<svg width="201" height="148" viewBox="0 0 201 148" fill="none" xmlns="http://www.w3.org/2000/svg">
<mask id="mask0_9521_16304" style="mask-type:alpha" maskUnits="userSpaceOnUse" x="0" y="0" width="201" height="148">
<path d="M0 10C0 4.47716 4.47715 0 10 0H190.473C195.996 0 200.473 4.47715 200.473 10V138C200.473 143.523 195.996 148 190.473 148H10C4.47716 148 0 143.523 0 138V10Z" fill="white"/>
</mask>
<g mask="url(#mask0_9521_16304)">
<g opacity="0.3">
<path d="M146.363 24.5924C146.363 24.5924 152.689 -5.67657 176.924 -9.67667C176.924 -9.67667 181.641 -10.3829 183.369 -5.3019C185.097 -0.220905 175.685 0.085033 169.928 2.31285C164.17 4.54067 150.863 13.6689 146.363 24.591V24.5924Z" fill="#E1E2C4"/>
</g>
<g opacity="0.3">
<path d="M145.645 18.9816C145.645 18.9816 142.382 -5.84925 159.877 -15.1931C159.877 -15.1931 163.301 -16.9573 165.986 -13.5112C168.671 -10.065 161.542 -7.39241 157.728 -4.19422C153.914 -0.994676 146.165 9.44763 145.643 18.9816H145.645Z" fill="#E1E2C4"/>
</g>
<path d="M73.3263 71.166C72.8343 72.4679 71.9805 73.9787 71.0856 74.3534C70.0701 74.7793 69.6467 75.3804 69.6467 75.3804L68.8271 74.9127L67.8486 74.3534C67.8486 74.3534 67.8719 74.2469 67.9199 74.0731C67.9665 73.8992 68.0405 73.658 68.1392 73.3911C68.1392 73.3911 68.4393 73.011 68.2557 72.5339C68.072 72.0582 68.109 71.321 68.4228 70.8722C68.7367 70.4234 69.0396 69.3182 69.2287 69.3506C69.6864 69.4274 69.0039 70.9476 69.1999 71.2293C69.3767 71.484 69.5987 71.3964 69.6398 71.3776C69.6425 71.3762 69.6453 71.3749 69.648 71.3735C70.9321 70.8183 72.4903 67.8236 73.1797 68.2279C73.4373 68.3788 73.5374 70.6121 73.3277 71.166H73.3263Z" fill="#FFB27D"/>
<path d="M68.8832 72.9775L70.4921 74.0894C70.6059 74.1675 70.7635 74.1406 70.8443 74.0287L74.9666 68.2617C75.0461 68.1499 75.0187 67.9949 74.905 67.9154L73.2961 66.8035C73.1823 66.7253 73.0247 66.7523 72.9439 66.8641L68.8216 72.6311C68.7421 72.743 68.7695 72.898 68.8832 72.9775Z" fill="#2B478B"/>
<path d="M70.3565 73.9964L71.2994 74.6487C71.3857 74.708 71.5063 74.6878 71.5666 74.6029L75.7575 68.7388C75.8178 68.6539 75.7972 68.5353 75.7109 68.476L74.768 67.8237C74.6817 67.7644 74.5611 67.7846 74.5008 67.8695L70.3099 73.7349C70.2496 73.8198 70.2702 73.9384 70.3565 73.9977V73.9964Z" fill="#233862"/>
<path d="M45.8008 64.7024C45.8008 64.7024 53.9878 78.7459 56.9576 81.3295L67.8485 73.3441C67.8485 73.3441 69.4286 73.8212 70.1207 75.3806C70.1207 75.3806 63.5069 88.6316 56.9959 89.1936C50.485 89.7556 41.3455 73.3104 41.3455 73.3104L45.8008 64.701V64.7024Z" fill="#E05D4E"/>
<path d="M52.6654 100.833C52.6654 100.833 52.1049 107.716 51.4457 115.988C50.5495 127.227 49.4723 141.032 49.3654 143.646C49.1817 148.187 48.4417 155.451 48.4417 155.451C48.4417 155.451 46.6889 157.176 43.1792 156.45C43.1792 156.45 40.0518 146.08 39.1583 135.108C39.1446 134.929 39.1309 134.747 39.1172 134.567C38.2867 123.398 36.9944 99.8785 36.9944 99.8785L52.6668 100.831L52.6654 100.833Z" fill="#3F3F3F"/>
<path d="M52.6654 100.833C52.6654 100.833 52.1049 107.716 51.4457 115.988L39.1583 135.108C39.1446 134.929 39.1309 134.747 39.1172 134.567C38.2867 123.398 36.9944 99.8785 36.9944 99.8785L52.6668 100.831L52.6654 100.833Z" fill="#212721"/>
<path d="M50.1038 101.649C50.1038 101.649 39.9927 126.576 33.3447 138.289C26.6967 150.004 24.6191 153.272 24.6191 153.272C24.6191 153.272 20.8106 151.773 20.4639 150.752C20.4639 150.752 23.006 128.138 27.4586 122.624C29.9748 119.51 32.9294 110.162 33.0678 106.892C33.2063 103.624 33.9682 97.1533 33.9682 97.1533L50.1038 101.648V101.649Z" fill="#3F3F3F"/>
<path d="M47.5863 65.3129C43.6353 66.5393 36.7996 63.2306 36.7996 63.2306C36.7996 63.2306 40.4422 60.5419 40.2517 54.9514L43.3064 57.372L45.3813 59.0162C45.3813 59.0162 45.3731 59.9852 45.1456 61.6847C45.0853 62.1322 45.5978 63.1174 46.0432 63.6713C47.241 65.166 47.5863 65.3129 47.5863 65.3129Z" fill="#FFB27D"/>
<path d="M45.3813 59.0162C45.3813 59.0162 45.3731 59.9852 45.1456 61.6847C42.846 61.2966 40.238 57.6415 40.238 57.6415C41.4084 57.3086 42.4335 57.2493 43.3065 57.3719L45.3813 59.0162Z" fill="#ED975D"/>
<path d="M46.5905 58.9232C46.5905 58.9232 40.0645 59.9892 39.4519 55.9824C38.8393 51.9756 37.584 49.4148 41.7255 48.5644C45.867 47.714 46.9112 49.1237 47.4471 50.4122C47.9829 51.7006 48.2735 58.5431 46.5905 58.9245V58.9232Z" fill="#FFB27D"/>
<path d="M53.1012 101.406C52.9819 101.503 52.8435 101.561 52.6859 101.561C51.2017 101.54 46.8752 102.352 43.2148 101.981C40.1285 101.69 37.3972 100.791 34.4631 99.4971C34.0739 99.326 33.1777 98.8542 33.1968 98.427C33.2105 97.958 33.2571 97.2787 33.3174 96.4216C33.5257 93.4444 33.8875 88.3216 33.534 82.4131C33.4709 81.3134 33.4367 80.2217 33.4326 79.1476C33.4024 71.1393 35.0168 64.096 38.262 61.7118C38.5388 61.5164 40.2409 62.3345 41.8032 63.0932C43.2477 63.7941 44.6921 63.8709 46.0571 63.6L47.4221 64.786C49.0844 66.3036 50.9043 68.367 51.6951 71.4991C52.368 74.1649 52.764 78.971 52.9806 83.9523C53.0792 86.2097 53.1587 88.4861 53.1793 90.6465V90.7233C53.1985 90.9376 53.1985 91.1721 53.1985 91.3851C53.278 96.9297 53.1985 101.327 53.0998 101.406H53.1012Z" fill="#E05D4E"/>
<path d="M33.3175 96.4228C33.5258 93.4456 33.8876 88.3228 33.5341 82.4143C33.471 81.3146 33.4368 80.2229 33.4327 79.1487C34.7839 75.9236 35.8885 73.5853 35.8885 73.5853H39.2954C39.2954 73.5853 41.7937 90.3633 33.3162 96.4228H33.3175Z" fill="#BC4638"/>
<path d="M15.8663 115.437L30.3957 117.473C32.2869 117.739 34.0548 116.434 34.3234 114.574L35.2211 108.381C35.491 106.521 34.1644 104.783 32.2732 104.519L17.7438 102.482C15.8526 102.217 14.0847 103.521 13.8161 105.381L12.9184 111.574C12.6485 113.434 13.975 115.173 15.8663 115.437Z" fill="#233862"/>
<path d="M33.094 106.365C32.6856 105.36 31.8044 104.566 30.6875 104.296C30.6875 104.296 30.6861 104.296 30.6847 104.296C30.5751 104.271 30.4641 104.248 30.349 104.233L27.456 103.829L27.6492 102.492C27.693 102.194 27.6149 101.896 27.4299 101.654C27.2449 101.412 26.9749 101.255 26.6721 101.213L25.9169 101.106L22.8787 100.68L22.3305 100.604C21.7028 100.516 21.119 100.946 21.0299 101.563L20.8367 102.9L15.8428 102.201C13.9447 101.935 12.1714 103.244 11.9 105.11L10.9928 111.373C10.7228 113.24 12.0535 114.984 13.9516 115.251L28.455 117.285C28.7113 117.321 28.9648 117.328 29.2115 117.308H29.2142C29.6117 117.278 29.9927 117.181 30.3462 117.026C31.4124 116.564 32.2224 115.585 32.3978 114.372L33.305 108.109C33.3927 107.499 33.3105 106.902 33.0926 106.365H33.094ZM21.7439 101.663C21.7714 101.476 21.9207 101.334 22.1003 101.306C22.1427 101.299 22.1852 101.298 22.2291 101.304L22.8746 101.395L25.266 101.73L26.5693 101.914C26.8036 101.946 26.9667 102.162 26.9338 102.391L26.7406 103.728L21.5507 103L21.7439 101.664V101.663Z" fill="#2B478B"/>
<path d="M26.916 96.9983C26.916 96.9983 26.1527 97.9983 26.1225 98.3972C25.917 101.105 27.175 101.478 23.9189 102.982C23.9189 102.982 22.5292 103.504 22.5046 102.442C22.4813 101.381 23.4693 101.364 23.2885 99.8771C23.0801 98.1627 23.1007 98.1466 24.245 97.2517L25.0029 96.0198L26.916 96.9969V96.9983Z" fill="#FFB27D"/>
<path d="M24.9754 97.7651C26.202 98.001 27.5327 97.9053 27.5327 97.9053C27.5327 97.9053 31.1753 86.8403 31.644 85.8295C32.1127 84.8187 42.4623 72.8561 42.4623 72.8561L38.1509 62.2454C38.1509 62.2454 26.9571 80.634 25.8196 83.2176C23.9408 87.4872 23.2898 97.0603 23.2898 97.0603C23.2898 97.0603 24.0134 97.5805 24.9768 97.7651H24.9754Z" fill="#E05D4E"/>
<path d="M39.4462 55.597C39.4462 55.597 40.1163 55.4865 40.0081 54.5795C39.8998 53.6724 39.9012 52.4864 40.6508 52.7074C41.4004 52.9285 41.4374 53.5188 41.7458 53.1738C42.0541 52.8287 42.0596 51.3759 44.2907 51.2748C46.5218 51.1737 47.429 51.9379 48.4664 51.4891C49.5039 51.0403 49.5587 49.4958 49.5587 49.4958C49.5587 49.4958 49.264 50.047 48.8173 50.2222C48.8173 50.2222 50.5481 47.8933 48.5446 46.2962C46.5396 44.6992 44.4963 45.745 43.3355 45.8137C40.7796 45.966 39.1282 46.117 38.2936 47.768C37.459 49.4189 37.803 54.0053 39.4434 55.5957L39.4462 55.597Z" fill="black"/>
<path d="M25.7127 98.1898C25.7127 98.1898 26.4472 98.9432 26.4938 99.2559C26.6432 100.261 26.9844 100.697 26.8131 100.806C26.4568 101.034 25.9867 100.288 25.762 99.6198C25.5372 98.9513 25.714 98.1885 25.714 98.1885L25.7127 98.1898Z" fill="#FFB27D"/>
<path d="M161.204 9.81561H90.3032C85.8474 9.81561 82.2354 13.3679 82.2354 17.7498V151.136C82.2354 155.518 85.8474 159.07 90.3032 159.07H161.204C165.66 159.07 169.272 155.518 169.272 151.136V17.7498C169.272 13.3679 165.66 9.81561 161.204 9.81561Z" fill="white"/>
<path d="M161.205 160.065H90.3032C85.297 160.065 81.2227 156.059 81.2227 151.134V17.7484C81.2227 12.8251 85.2956 8.81824 90.3032 8.81824H161.206C166.212 8.81824 170.285 12.8237 170.285 17.7484V151.134C170.285 156.058 166.212 160.065 161.206 160.065H161.205ZM90.3032 10.8116C86.4139 10.8116 83.2482 13.9235 83.2482 17.7497V151.136C83.2482 154.962 86.4125 158.074 90.3032 158.074H161.206C165.095 158.074 168.261 154.962 168.261 151.136V17.7484C168.261 13.9235 165.097 10.8102 161.206 10.8102H90.3032V10.8116Z" fill="#222721"/>
<g opacity="0.9">
<path d="M154.377 49.0902H97.1306V105.388H154.377V49.0902Z" fill="white"/>
</g>
<path d="M105.143 99.4796H102.868V101.717H105.143V99.4796Z" fill="#212721"/>
<path d="M107.418 99.4796H105.144V101.717H107.418V99.4796Z" fill="#212721"/>
<path d="M109.694 99.4796H107.419V101.717H109.694V99.4796Z" fill="#212721"/>
<path d="M111.968 99.4796H109.693V101.717H111.968V99.4796Z" fill="#212721"/>
<path d="M114.243 99.4796H111.968V101.717H114.243V99.4796Z" fill="#212721"/>
<path d="M118.795 99.4796H116.52V101.717H118.795V99.4796Z" fill="#212721"/>
<path d="M121.07 99.4796H118.795V101.717H121.07V99.4796Z" fill="#212721"/>
<path d="M127.894 99.4796H125.619V101.717H127.894V99.4796Z" fill="#212721"/>
<path d="M132.579 99.4796H130.169V101.717H132.579V99.4796Z" fill="#212721"/>
<path d="M134.854 99.4796H132.579V101.717H134.854V99.4796Z" fill="#212721"/>
<path d="M139.404 99.4796H137.129V101.717H139.404V99.4796Z" fill="#212721"/>
<path d="M141.678 99.4796H139.403V101.717H141.678V99.4796Z" fill="#212721"/>
<path d="M143.953 99.4796H141.678V101.717H143.953V99.4796Z" fill="#212721"/>
<path d="M146.228 99.4796H143.953V101.717H146.228V99.4796Z" fill="#212721"/>
<path d="M148.503 99.4796H146.228V101.717H148.503V99.4796Z" fill="#212721"/>
<path d="M150.914 99.4796H148.505V101.717H150.914V99.4796Z" fill="#212721"/>
<path d="M102.869 99.4796H100.594V101.717H102.869V99.4796Z" fill="#212721"/>
<path d="M114.243 97.2422H111.968V99.4795H114.243V97.2422Z" fill="#212721"/>
<path d="M121.07 97.2422H118.795V99.4795H121.07V97.2422Z" fill="#212721"/>
<path d="M125.619 97.2422H123.344V99.4795H125.619V97.2422Z" fill="#212721"/>
<path d="M127.894 97.2422H125.619V99.4795H127.894V97.2422Z" fill="#212721"/>
<path d="M130.169 97.2422H127.894V99.4795H130.169V97.2422Z" fill="#212721"/>
<path d="M132.579 97.2422H130.169V99.4795H132.579V97.2422Z" fill="#212721"/>
<path d="M139.404 97.2422H137.129V99.4795H139.404V97.2422Z" fill="#212721"/>
<path d="M150.914 97.2422H148.505V99.4795H150.914V97.2422Z" fill="#212721"/>
<path d="M102.869 97.2422H100.594V99.4795H102.869V97.2422Z" fill="#212721"/>
<path d="M107.418 95.0051H105.144V97.2424H107.418V95.0051Z" fill="#212721"/>
<path d="M109.694 95.0051H107.419V97.2424H109.694V95.0051Z" fill="#212721"/>
<path d="M114.243 95.0051H111.968V97.2424H114.243V95.0051Z" fill="#212721"/>
<path d="M118.795 95.0051H116.52V97.2424H118.795V95.0051Z" fill="#212721"/>
<path d="M121.07 95.0051H118.795V97.2424H121.07V95.0051Z" fill="#212721"/>
<path d="M123.345 95.0051H121.07V97.2424H123.345V95.0051Z" fill="#212721"/>
<path d="M127.894 95.0051H125.619V97.2424H127.894V95.0051Z" fill="#212721"/>
<path d="M130.169 95.0051H127.894V97.2424H130.169V95.0051Z" fill="#212721"/>
<path d="M132.579 95.0051H130.169V97.2424H132.579V95.0051Z" fill="#212721"/>
<path d="M134.854 95.0051H132.579V97.2424H134.854V95.0051Z" fill="#212721"/>
<path d="M139.404 95.0051H137.129V97.2424H139.404V95.0051Z" fill="#212721"/>
<path d="M143.953 95.0051H141.678V97.2424H143.953V95.0051Z" fill="#212721"/>
<path d="M146.228 95.0051H143.953V97.2424H146.228V95.0051Z" fill="#212721"/>
<path d="M150.914 95.0051H148.505V97.2424H150.914V95.0051Z" fill="#212721"/>
<path d="M102.869 95.0051H100.594V97.2424H102.869V95.0051Z" fill="#212721"/>
<path d="M107.418 92.7679H105.144V95.0051H107.418V92.7679Z" fill="#212721"/>
<path d="M109.694 92.7679H107.419V95.0051H109.694V92.7679Z" fill="#212721"/>
<path d="M114.243 92.7679H111.968V95.0051H114.243V92.7679Z" fill="#212721"/>
<path d="M118.795 92.7679H116.52V95.0051H118.795V92.7679Z" fill="#212721"/>
<path d="M123.345 92.7679H121.07V95.0051H123.345V92.7679Z" fill="#212721"/>
<path d="M127.894 92.7679H125.619V95.0051H127.894V92.7679Z" fill="#212721"/>
<path d="M139.404 92.7679H137.129V95.0051H139.404V92.7679Z" fill="#212721"/>
<path d="M143.953 92.7679H141.678V95.0051H143.953V92.7679Z" fill="#212721"/>
<path d="M146.228 92.7679H143.953V95.0051H146.228V92.7679Z" fill="#212721"/>
<path d="M150.914 92.7679H148.505V95.0051H150.914V92.7679Z" fill="#212721"/>
<path d="M102.869 92.7679H100.594V95.0051H102.869V92.7679Z" fill="#212721"/>
<path d="M114.243 90.5306H111.968V92.7678H114.243V90.5306Z" fill="#212721"/>
<path d="M118.795 90.5306H116.52V92.7678H118.795V90.5306Z" fill="#212721"/>
<path d="M121.07 90.5306H118.795V92.7678H121.07V90.5306Z" fill="#212721"/>
<path d="M123.345 90.5306H121.07V92.7678H123.345V90.5306Z" fill="#212721"/>
<path d="M127.894 90.5306H125.619V92.7678H127.894V90.5306Z" fill="#212721"/>
<path d="M130.169 90.5306H127.894V92.7678H130.169V90.5306Z" fill="#212721"/>
<path d="M134.854 90.5306H132.579V92.7678H134.854V90.5306Z" fill="#212721"/>
<path d="M139.404 90.5306H137.129V92.7678H139.404V90.5306Z" fill="#212721"/>
<path d="M150.914 90.5306H148.505V92.7678H150.914V90.5306Z" fill="#212721"/>
<path d="M102.869 90.5306H100.594V92.7678H102.869V90.5306Z" fill="#212721"/>
<path d="M105.143 88.2932H102.868V90.5304H105.143V88.2932Z" fill="#212721"/>
<path d="M107.418 88.2932H105.144V90.5304H107.418V88.2932Z" fill="#212721"/>
<path d="M109.694 88.2932H107.419V90.5304H109.694V88.2932Z" fill="#212721"/>
<path d="M111.968 88.2932H109.693V90.5304H111.968V88.2932Z" fill="#212721"/>
<path d="M114.243 88.2932H111.968V90.5304H114.243V88.2932Z" fill="#212721"/>
<path d="M118.795 88.2932H116.52V90.5304H118.795V88.2932Z" fill="#212721"/>
<path d="M123.345 88.2932H121.07V90.5304H123.345V88.2932Z" fill="#212721"/>
<path d="M125.619 88.2932H123.344V90.5304H125.619V88.2932Z" fill="#212721"/>
<path d="M130.169 88.2932H127.894V90.5304H130.169V88.2932Z" fill="#212721"/>
<path d="M139.404 88.2932H137.129V90.5304H139.404V88.2932Z" fill="#212721"/>
<path d="M141.678 88.2932H139.403V90.5304H141.678V88.2932Z" fill="#212721"/>
<path d="M143.953 88.2932H141.678V90.5304H143.953V88.2932Z" fill="#212721"/>
<path d="M146.228 88.2932H143.953V90.5304H146.228V88.2932Z" fill="#212721"/>
<path d="M148.503 88.2932H146.228V90.5304H148.503V88.2932Z" fill="#212721"/>
<path d="M150.914 88.2932H148.505V90.5304H150.914V88.2932Z" fill="#212721"/>
<path d="M102.869 88.2932H100.594V90.5304H102.869V88.2932Z" fill="#212721"/>
<path d="M125.619 86.0562H123.344V88.2935H125.619V86.0562Z" fill="#212721"/>
<path d="M127.894 86.0562H125.619V88.2935H127.894V86.0562Z" fill="#212721"/>
<path d="M130.169 86.0562H127.894V88.2935H130.169V86.0562Z" fill="#212721"/>
<path d="M134.854 86.0562H132.579V88.2935H134.854V86.0562Z" fill="#212721"/>
<path d="M105.143 83.8173H102.868V86.0545H105.143V83.8173Z" fill="#212721"/>
<path d="M107.418 83.8173H105.144V86.0545H107.418V83.8173Z" fill="#212721"/>
<path d="M109.694 83.8173H107.419V86.0545H109.694V83.8173Z" fill="#212721"/>
<path d="M111.968 83.8173H109.693V86.0545H111.968V83.8173Z" fill="#212721"/>
<path d="M118.795 83.8173H116.52V86.0545H118.795V83.8173Z" fill="#212721"/>
<path d="M121.07 83.8173H118.795V86.0545H121.07V83.8173Z" fill="#212721"/>
<path d="M123.345 83.8173H121.07V86.0545H123.345V83.8173Z" fill="#212721"/>
<path d="M127.894 83.8173H125.619V86.0545H127.894V83.8173Z" fill="#212721"/>
<path d="M130.169 83.8173H127.894V86.0545H130.169V83.8173Z" fill="#212721"/>
<path d="M132.579 83.8173H130.169V86.0545H132.579V83.8173Z" fill="#212721"/>
<path d="M134.854 83.8173H132.579V86.0545H134.854V83.8173Z" fill="#212721"/>
<path d="M137.128 83.8173H134.854V86.0545H137.128V83.8173Z" fill="#212721"/>
<path d="M139.404 83.8173H137.129V86.0545H139.404V83.8173Z" fill="#212721"/>
<path d="M141.678 83.8173H139.403V86.0545H141.678V83.8173Z" fill="#212721"/>
<path d="M143.953 83.8173H141.678V86.0545H143.953V83.8173Z" fill="#212721"/>
<path d="M148.503 83.8173H146.228V86.0545H148.503V83.8173Z" fill="#212721"/>
<path d="M150.914 83.8173H148.505V86.0545H150.914V83.8173Z" fill="#212721"/>
<path d="M107.418 81.5802H105.144V83.8174H107.418V81.5802Z" fill="#212721"/>
<path d="M109.694 81.5802H107.419V83.8174H109.694V81.5802Z" fill="#212721"/>
<path d="M116.518 81.5802H114.243V83.8174H116.518V81.5802Z" fill="#212721"/>
<path d="M118.795 81.5802H116.52V83.8174H118.795V81.5802Z" fill="#212721"/>
<path d="M123.345 81.5802H121.07V83.8174H123.345V81.5802Z" fill="#212721"/>
<path d="M130.169 81.5802H127.894V83.8174H130.169V81.5802Z" fill="#212721"/>
<path d="M134.854 81.5802H132.579V83.8174H134.854V81.5802Z" fill="#212721"/>
<path d="M137.128 81.5802H134.854V83.8174H137.128V81.5802Z" fill="#212721"/>
<path d="M141.678 81.5802H139.403V83.8174H141.678V81.5802Z" fill="#212721"/>
<path d="M143.953 81.5802H141.678V83.8174H143.953V81.5802Z" fill="#212721"/>
<path d="M105.143 79.3431H102.868V81.5803H105.143V79.3431Z" fill="#212721"/>
<path d="M109.694 79.3431H107.419V81.5803H109.694V79.3431Z" fill="#212721"/>
<path d="M111.968 79.3431H109.693V81.5803H111.968V79.3431Z" fill="#212721"/>
<path d="M114.243 79.3431H111.968V81.5803H114.243V79.3431Z" fill="#212721"/>
<path d="M116.518 79.3431H114.243V81.5803H116.518V79.3431Z" fill="#212721"/>
<path d="M121.07 79.3431H118.795V81.5803H121.07V79.3431Z" fill="#212721"/>
<path d="M123.345 79.3431H121.07V81.5803H123.345V79.3431Z" fill="#212721"/>
<path d="M125.619 79.3431H123.344V81.5803H125.619V79.3431Z" fill="#212721"/>
<path d="M127.894 79.3431H125.619V81.5803H127.894V79.3431Z" fill="#212721"/>
<path d="M130.169 79.3431H127.894V81.5803H130.169V79.3431Z" fill="#212721"/>
<path d="M132.579 79.3431H130.169V81.5803H132.579V79.3431Z" fill="#212721"/>
<path d="M143.953 79.3431H141.678V81.5803H143.953V79.3431Z" fill="#212721"/>
<path d="M146.228 79.3431H143.953V81.5803H146.228V79.3431Z" fill="#212721"/>
<path d="M150.914 79.3431H148.505V81.5803H150.914V79.3431Z" fill="#212721"/>
<path d="M102.869 79.3431H100.594V81.5803H102.869V79.3431Z" fill="#212721"/>
<path d="M105.143 77.1056H102.868V79.3428H105.143V77.1056Z" fill="#212721"/>
<path d="M107.418 77.1056H105.144V79.3428H107.418V77.1056Z" fill="#212721"/>
<path d="M109.694 77.1056H107.419V79.3428H109.694V77.1056Z" fill="#212721"/>
<path d="M118.795 77.1056H116.52V79.3428H118.795V77.1056Z" fill="#212721"/>
<path d="M121.07 77.1056H118.795V79.3428H121.07V77.1056Z" fill="#212721"/>
<path d="M130.169 77.1056H127.894V79.3428H130.169V77.1056Z" fill="#212721"/>
<path d="M137.128 77.1056H134.854V79.3428H137.128V77.1056Z" fill="#212721"/>
<path d="M139.404 77.1056H137.129V79.3428H139.404V77.1056Z" fill="#212721"/>
<path d="M143.953 77.1056H141.678V79.3428H143.953V77.1056Z" fill="#212721"/>
<path d="M146.228 77.1056H143.953V79.3428H146.228V77.1056Z" fill="#212721"/>
<path d="M148.503 77.1056H146.228V79.3428H148.503V77.1056Z" fill="#212721"/>
<path d="M150.914 77.1056H148.505V79.3428H150.914V77.1056Z" fill="#212721"/>
<path d="M102.869 77.1056H100.594V79.3428H102.869V77.1056Z" fill="#212721"/>
<path d="M109.694 74.8685H107.419V77.1058H109.694V74.8685Z" fill="#212721"/>
<path d="M111.968 74.8685H109.693V77.1058H111.968V74.8685Z" fill="#212721"/>
<path d="M114.243 74.8685H111.968V77.1058H114.243V74.8685Z" fill="#212721"/>
<path d="M116.518 74.8685H114.243V77.1058H116.518V74.8685Z" fill="#212721"/>
<path d="M118.795 74.8685H116.52V77.1058H118.795V74.8685Z" fill="#212721"/>
<path d="M121.07 74.8685H118.795V77.1058H121.07V74.8685Z" fill="#212721"/>
<path d="M127.894 74.8685H125.619V77.1058H127.894V74.8685Z" fill="#212721"/>
<path d="M134.854 74.8685H132.579V77.1058H134.854V74.8685Z" fill="#212721"/>
<path d="M137.128 74.8685H134.854V77.1058H137.128V74.8685Z" fill="#212721"/>
<path d="M146.228 74.8685H143.953V77.1058H146.228V74.8685Z" fill="#212721"/>
<path d="M102.869 74.8685H100.594V77.1058H102.869V74.8685Z" fill="#212721"/>
<path d="M105.143 72.6312H102.868V74.8685H105.143V72.6312Z" fill="#212721"/>
<path d="M107.418 72.6312H105.144V74.8685H107.418V72.6312Z" fill="#212721"/>
<path d="M109.694 72.6312H107.419V74.8685H109.694V72.6312Z" fill="#212721"/>
<path d="M111.968 72.6312H109.693V74.8685H111.968V72.6312Z" fill="#212721"/>
<path d="M116.518 72.6312H114.243V74.8685H116.518V72.6312Z" fill="#212721"/>
<path d="M121.07 72.6312H118.795V74.8685H121.07V72.6312Z" fill="#212721"/>
<path d="M123.345 72.6312H121.07V74.8685H123.345V72.6312Z" fill="#212721"/>
<path d="M127.894 72.6312H125.619V74.8685H127.894V72.6312Z" fill="#212721"/>
<path d="M130.169 72.6312H127.894V74.8685H130.169V72.6312Z" fill="#212721"/>
<path d="M132.579 72.6312H130.169V74.8685H132.579V72.6312Z" fill="#212721"/>
<path d="M134.854 72.6312H132.579V74.8685H134.854V72.6312Z" fill="#212721"/>
<path d="M139.404 72.6312H137.129V74.8685H139.404V72.6312Z" fill="#212721"/>
<path d="M141.678 72.6312H139.403V74.8685H141.678V72.6312Z" fill="#212721"/>
<path d="M143.953 72.6312H141.678V74.8685H143.953V72.6312Z" fill="#212721"/>
<path d="M146.228 72.6312H143.953V74.8685H146.228V72.6312Z" fill="#212721"/>
<path d="M150.914 72.6312H148.505V74.8685H150.914V72.6312Z" fill="#212721"/>
<path d="M105.143 70.3939H102.868V72.6312H105.143V70.3939Z" fill="#212721"/>
<path d="M109.694 70.3939H107.419V72.6312H109.694V70.3939Z" fill="#212721"/>
<path d="M114.243 70.3939H111.968V72.6312H114.243V70.3939Z" fill="#212721"/>
<path d="M116.518 70.3939H114.243V72.6312H116.518V70.3939Z" fill="#212721"/>
<path d="M123.345 70.3939H121.07V72.6312H123.345V70.3939Z" fill="#212721"/>
<path d="M125.619 70.3939H123.344V72.6312H125.619V70.3939Z" fill="#212721"/>
<path d="M127.894 70.3939H125.619V72.6312H127.894V70.3939Z" fill="#212721"/>
<path d="M132.579 70.3939H130.169V72.6312H132.579V70.3939Z" fill="#212721"/>
<path d="M134.854 70.3939H132.579V72.6312H134.854V70.3939Z" fill="#212721"/>
<path d="M137.128 70.3939H134.854V72.6312H137.128V70.3939Z" fill="#212721"/>
<path d="M141.678 70.3939H139.403V72.6312H141.678V70.3939Z" fill="#212721"/>
<path d="M146.228 70.3939H143.953V72.6312H146.228V70.3939Z" fill="#212721"/>
<path d="M148.503 70.3939H146.228V72.6312H148.503V70.3939Z" fill="#212721"/>
<path d="M150.914 70.3939H148.505V72.6312H150.914V70.3939Z" fill="#212721"/>
<path d="M102.869 70.3939H100.594V72.6312H102.869V70.3939Z" fill="#212721"/>
<path d="M105.143 68.1567H102.868V70.3939H105.143V68.1567Z" fill="#212721"/>
<path d="M114.243 68.1567H111.968V70.3939H114.243V68.1567Z" fill="#212721"/>
<path d="M116.518 68.1567H114.243V70.3939H116.518V68.1567Z" fill="#212721"/>
<path d="M121.07 68.1567H118.795V70.3939H121.07V68.1567Z" fill="#212721"/>
<path d="M123.345 68.1567H121.07V70.3939H123.345V68.1567Z" fill="#212721"/>
<path d="M127.894 68.1567H125.619V70.3939H127.894V68.1567Z" fill="#212721"/>
<path d="M130.169 68.1567H127.894V70.3939H130.169V68.1567Z" fill="#212721"/>
<path d="M134.854 68.1567H132.579V70.3939H134.854V68.1567Z" fill="#212721"/>
<path d="M137.128 68.1567H134.854V70.3939H137.128V68.1567Z" fill="#212721"/>
<path d="M139.404 68.1567H137.129V70.3939H139.404V68.1567Z" fill="#212721"/>
<path d="M141.678 68.1567H139.403V70.3939H141.678V68.1567Z" fill="#212721"/>
<path d="M143.953 68.1567H141.678V70.3939H143.953V68.1567Z" fill="#212721"/>
<path d="M146.228 68.1567H143.953V70.3939H146.228V68.1567Z" fill="#212721"/>
<path d="M102.869 68.1567H100.594V70.3939H102.869V68.1567Z" fill="#212721"/>
<path d="M121.07 65.9196H118.795V68.1568H121.07V65.9196Z" fill="#212721"/>
<path d="M125.619 65.9196H123.344V68.1568H125.619V65.9196Z" fill="#212721"/>
<path d="M127.894 65.9196H125.619V68.1568H127.894V65.9196Z" fill="#212721"/>
<path d="M132.579 65.9196H130.169V68.1568H132.579V65.9196Z" fill="#212721"/>
<path d="M134.854 65.9196H132.579V68.1568H134.854V65.9196Z" fill="#212721"/>
<path d="M137.128 65.9196H134.854V68.1568H137.128V65.9196Z" fill="#212721"/>
<path d="M105.143 63.6821H102.868V65.9194H105.143V63.6821Z" fill="#212721"/>
<path d="M107.418 63.6821H105.144V65.9194H107.418V63.6821Z" fill="#212721"/>
<path d="M109.694 63.6821H107.419V65.9194H109.694V63.6821Z" fill="#212721"/>
<path d="M111.968 63.6821H109.693V65.9194H111.968V63.6821Z" fill="#212721"/>
<path d="M114.243 63.6821H111.968V65.9194H114.243V63.6821Z" fill="#212721"/>
<path d="M118.795 63.6821H116.52V65.9194H118.795V63.6821Z" fill="#212721"/>
<path d="M121.07 63.6821H118.795V65.9194H121.07V63.6821Z" fill="#212721"/>
<path d="M127.894 63.6821H125.619V65.9194H127.894V63.6821Z" fill="#212721"/>
<path d="M137.128 63.6821H134.854V65.9194H137.128V63.6821Z" fill="#212721"/>
<path d="M139.404 63.6821H137.129V65.9194H139.404V63.6821Z" fill="#212721"/>
<path d="M143.953 63.6821H141.678V65.9194H143.953V63.6821Z" fill="#212721"/>
<path d="M150.914 63.6821H148.505V65.9194H150.914V63.6821Z" fill="#212721"/>
<path d="M102.869 63.6821H100.594V65.9194H102.869V63.6821Z" fill="#212721"/>
<path d="M114.243 61.4448H111.968V63.6821H114.243V61.4448Z" fill="#212721"/>
<path d="M132.579 61.4448H130.169V63.6821H132.579V61.4448Z" fill="#212721"/>
<path d="M134.854 61.4448H132.579V63.6821H134.854V61.4448Z" fill="#212721"/>
<path d="M139.404 61.4448H137.129V63.6821H139.404V61.4448Z" fill="#212721"/>
<path d="M141.678 61.4448H139.403V63.6821H141.678V61.4448Z" fill="#212721"/>
<path d="M146.228 61.4448H143.953V63.6821H146.228V61.4448Z" fill="#212721"/>
<path d="M148.503 61.4448H146.228V63.6821H148.503V61.4448Z" fill="#212721"/>
<path d="M150.914 61.4448H148.505V63.6821H150.914V61.4448Z" fill="#212721"/>
<path d="M102.869 61.4448H100.594V63.6821H102.869V61.4448Z" fill="#212721"/>
<path d="M107.418 59.2077H105.144V61.445H107.418V59.2077Z" fill="#212721"/>
<path d="M109.694 59.2077H107.419V61.445H109.694V59.2077Z" fill="#212721"/>
<path d="M114.243 59.2077H111.968V61.445H114.243V59.2077Z" fill="#212721"/>
<path d="M118.795 59.2077H116.52V61.445H118.795V59.2077Z" fill="#212721"/>
<path d="M121.07 59.2077H118.795V61.445H121.07V59.2077Z" fill="#212721"/>
<path d="M125.619 59.2077H123.344V61.445H125.619V59.2077Z" fill="#212721"/>
<path d="M127.894 59.2077H125.619V61.445H127.894V59.2077Z" fill="#212721"/>
<path d="M132.579 59.2077H130.169V61.445H132.579V59.2077Z" fill="#212721"/>
<path d="M141.678 59.2077H139.403V61.445H141.678V59.2077Z" fill="#212721"/>
<path d="M143.953 59.2077H141.678V61.445H143.953V59.2077Z" fill="#212721"/>
<path d="M146.228 59.2077H143.953V61.445H146.228V59.2077Z" fill="#212721"/>
<path d="M102.869 59.2077H100.594V61.445H102.869V59.2077Z" fill="#212721"/>
<path d="M107.418 56.9705H105.144V59.2077H107.418V56.9705Z" fill="#212721"/>
<path d="M109.694 56.9705H107.419V59.2077H109.694V56.9705Z" fill="#212721"/>
<path d="M114.243 56.9705H111.968V59.2077H114.243V56.9705Z" fill="#212721"/>
<path d="M118.795 56.9705H116.52V59.2077H118.795V56.9705Z" fill="#212721"/>
<path d="M123.345 56.9705H121.07V59.2077H123.345V56.9705Z" fill="#212721"/>
<path d="M125.619 56.9705H123.344V59.2077H125.619V56.9705Z" fill="#212721"/>
<path d="M127.894 56.9705H125.619V59.2077H127.894V56.9705Z" fill="#212721"/>
<path d="M130.169 56.9705H127.894V59.2077H130.169V56.9705Z" fill="#212721"/>
<path d="M132.579 56.9705H130.169V59.2077H132.579V56.9705Z" fill="#212721"/>
<path d="M137.128 56.9705H134.854V59.2077H137.128V56.9705Z" fill="#212721"/>
<path d="M139.404 56.9705H137.129V59.2077H139.404V56.9705Z" fill="#212721"/>
<path d="M141.678 56.9705H139.403V59.2077H141.678V56.9705Z" fill="#212721"/>
<path d="M146.228 56.9705H143.953V59.2077H146.228V56.9705Z" fill="#212721"/>
<path d="M148.503 56.9705H146.228V59.2077H148.503V56.9705Z" fill="#212721"/>
<path d="M150.914 56.9705H148.505V59.2077H150.914V56.9705Z" fill="#212721"/>
<path d="M102.869 56.9705H100.594V59.2077H102.869V56.9705Z" fill="#212721"/>
<path d="M114.243 54.7332H111.968V56.9704H114.243V54.7332Z" fill="#212721"/>
<path d="M123.345 54.7332H121.07V56.9704H123.345V54.7332Z" fill="#212721"/>
<path d="M125.619 54.7332H123.344V56.9704H125.619V54.7332Z" fill="#212721"/>
<path d="M130.169 54.7332H127.894V56.9704H130.169V54.7332Z" fill="#212721"/>
<path d="M132.579 54.7332H130.169V56.9704H132.579V54.7332Z" fill="#212721"/>
<path d="M134.854 54.7332H132.579V56.9704H134.854V54.7332Z" fill="#212721"/>
<path d="M137.128 54.7332H134.854V56.9704H137.128V54.7332Z" fill="#212721"/>
<path d="M148.503 54.7332H146.228V56.9704H148.503V54.7332Z" fill="#212721"/>
<path d="M102.869 54.7332H100.594V56.9704H102.869V54.7332Z" fill="#212721"/>
<path d="M105.143 52.4959H102.868V54.7332H105.143V52.4959Z" fill="#212721"/>
<path d="M107.418 52.4959H105.144V54.7332H107.418V52.4959Z" fill="#212721"/>
<path d="M109.694 52.4959H107.419V54.7332H109.694V52.4959Z" fill="#212721"/>
<path d="M111.968 52.4959H109.693V54.7332H111.968V52.4959Z" fill="#212721"/>
<path d="M114.243 52.4959H111.968V54.7332H114.243V52.4959Z" fill="#212721"/>
<path d="M118.795 52.4959H116.52V54.7332H118.795V52.4959Z" fill="#212721"/>
<path d="M121.07 52.4959H118.795V54.7332H121.07V52.4959Z" fill="#212721"/>
<path d="M132.579 52.4959H130.169V54.7332H132.579V52.4959Z" fill="#212721"/>
<path d="M137.128 52.4959H134.854V54.7332H137.128V52.4959Z" fill="#212721"/>
<path d="M141.678 52.4959H139.403V54.7332H141.678V52.4959Z" fill="#212721"/>
<path d="M143.953 52.4959H141.678V54.7332H143.953V52.4959Z" fill="#212721"/>
<path d="M150.914 52.4959H148.505V54.7332H150.914V52.4959Z" fill="#212721"/>
<path d="M102.869 52.4959H100.594V54.7332H102.869V52.4959Z" fill="#212721"/>
<g opacity="0.8">
<path d="M92.9907 56.9018C92.5439 56.9018 92.1821 56.546 92.1821 56.1066V45.2559C92.1821 44.8166 92.5439 44.4608 92.9907 44.4608H104.124C104.571 44.4608 104.933 44.8166 104.933 45.2559C104.933 45.6953 104.571 46.0511 104.124 46.0511H93.8006V56.1066C93.8006 56.546 93.4388 56.9018 92.9921 56.9018H92.9907Z" fill="white"/>
<path d="M158.517 56.9502C158.07 56.9502 157.708 56.5944 157.708 56.1551V46.0025H147.483C147.037 46.0025 146.675 45.6467 146.675 45.2073C146.675 44.768 147.037 44.4122 147.483 44.4122H158.517C158.964 44.4122 159.325 44.768 159.325 45.2073V56.1564C159.325 56.5958 158.964 56.9516 158.517 56.9516V56.9502Z" fill="white"/>
</g>
<g opacity="0.8">
<path d="M158.517 111.48H147.384C146.937 111.48 146.575 111.124 146.575 110.685C146.575 110.245 146.937 109.888 147.384 109.888H157.707V99.8328C157.707 99.3934 158.069 99.0376 158.516 99.0376C158.962 99.0376 159.324 99.3934 159.324 99.8328V110.683C159.324 111.123 158.962 111.479 158.516 111.479L158.517 111.48Z" fill="white"/>
<path d="M104.024 111.528H92.9907C92.5439 111.528 92.1821 111.173 92.1821 110.733V99.7841C92.1821 99.3448 92.5439 98.989 92.9907 98.989C93.4375 98.989 93.7993 99.3448 93.7993 99.7841V109.937H104.024C104.471 109.937 104.833 110.292 104.833 110.732C104.833 111.171 104.471 111.527 104.024 111.527V111.528Z" fill="white"/>
</g>
<path d="M109.921 20.5254H136.565" stroke="black" stroke-width="2" stroke-linecap="round"/>
</g>
</svg>
