<svg width="25" height="25" viewBox="0 0 25 25" fill="none" xmlns="http://www.w3.org/2000/svg">
<path fill-rule="evenodd" clip-rule="evenodd" d="M12.5 0C10.0277 0 7.61099 0.733112 5.55538 2.10663C3.49976 3.48015 1.89761 5.43238 0.951511 7.71646C0.00541604 10.0005 -0.242126 12.5139 0.24019 14.9386C0.722505 17.3634 1.91301 19.5907 3.66117 21.3388C5.40933 23.087 7.63661 24.2775 10.0614 24.7598C12.4861 25.2421 14.9995 24.9946 17.2835 24.0485C19.5676 23.1024 21.5199 21.5002 22.8934 19.4446C24.2669 17.389 25 14.9723 25 12.5C25 9.18479 23.683 6.00537 21.3388 3.66117C18.9946 1.31696 15.8152 0 12.5 0V0ZM17.8643 9.8428L12.2178 15.8428C12.1281 15.9381 12.0047 15.9944 11.874 15.9997C11.7433 16.0049 11.6157 15.9588 11.5186 15.8711L8.16501 12.8462C8.1151 12.8025 8.07438 12.7494 8.04522 12.6898C8.01606 12.6303 7.99903 12.5655 7.99513 12.4993C7.99123 12.4331 8.00054 12.3668 8.02252 12.3042C8.04449 12.2417 8.07869 12.1841 8.12312 12.1349C8.16756 12.0857 8.22134 12.0458 8.28133 12.0175C8.34133 11.9893 8.40635 11.9733 8.4726 11.9704C8.53885 11.9675 8.60501 11.9778 8.66722 12.0008C8.72944 12.0237 8.78648 12.0588 8.83501 12.104L11.825 14.8008L17.136 9.1572C17.181 9.10937 17.235 9.07087 17.2949 9.0439C17.3548 9.01693 17.4194 9.00202 17.4851 9.00003C17.5507 8.99803 17.6161 9.00898 17.6775 9.03226C17.7389 9.05554 17.7952 9.09069 17.843 9.1357C17.8908 9.18071 17.9293 9.2347 17.9563 9.29459C17.9833 9.35448 17.9982 9.4191 18.0002 9.48475C18.0022 9.5504 17.9912 9.6158 17.9679 9.67722C17.9447 9.73864 17.9095 9.79487 17.8645 9.8427L17.8643 9.8428Z" fill="#64A7D2"/>
</svg>
