<svg width="17" height="17" viewBox="0 0 17 17" fill="none" xmlns="http://www.w3.org/2000/svg">
<g clip-path="url(#clip0_941_6672)">
<path d="M8.27778 8.72222H5.84722C5.75513 8.72222 5.66682 8.68564 5.6017 8.62052C5.53658 8.55541 5.5 8.46709 5.5 8.375C5.5 8.28291 5.53658 8.19459 5.6017 8.12948C5.66682 8.06436 5.75513 8.02778 5.84722 8.02778H8.27778V5.59722C8.27778 5.50513 8.31436 5.41682 8.37948 5.3517C8.44459 5.28658 8.53291 5.25 8.625 5.25C8.71709 5.25 8.80541 5.28658 8.87052 5.3517C8.93564 5.41682 8.97222 5.50513 8.97222 5.59722V8.02778H11.4028C11.4949 8.02778 11.5832 8.06436 11.6483 8.12948C11.7134 8.19459 11.75 8.28291 11.75 8.375C11.75 8.46709 11.7134 8.55541 11.6483 8.62052C11.5832 8.68564 11.4949 8.72222 11.4028 8.72222H8.97222V11.1528C8.97222 11.2449 8.93564 11.3332 8.87052 11.3983C8.80541 11.4634 8.71709 11.5 8.625 11.5C8.53291 11.5 8.44459 11.4634 8.37948 11.3983C8.31436 11.3332 8.27778 11.2449 8.27778 11.1528V8.72222Z" fill="#E7503D"/>
</g>
<circle cx="8.5" cy="8.5" r="7.5" stroke="#E7503D"/>
<defs>
<clipPath id="clip0_941_6672">
<rect width="6.25" height="6.25" fill="white" transform="translate(5.5 5.25)"/>
</clipPath>
</defs>
</svg>
