<svg width="22" height="22" viewBox="0 0 22 22" fill="none" xmlns="http://www.w3.org/2000/svg">
<path d="M10.7037 11.2964H7.46296C7.34018 11.2964 7.22242 11.2476 7.1356 11.1608C7.04878 11.074 7 10.9562 7 10.8334C7 10.7106 7.04878 10.5929 7.1356 10.5061C7.22242 10.4192 7.34018 10.3705 7.46296 10.3705H10.7037V7.12971C10.7037 7.00693 10.7525 6.88917 10.8393 6.80235C10.9261 6.71552 11.0439 6.66675 11.1667 6.66675C11.2895 6.66675 11.4072 6.71552 11.494 6.80235C11.5809 6.88917 11.6296 7.00693 11.6296 7.12971V10.3705H14.8704C14.9932 10.3705 15.1109 10.4192 15.1977 10.5061C15.2846 10.5929 15.3333 10.7106 15.3333 10.8334C15.3333 10.9562 15.2846 11.074 15.1977 11.1608C15.1109 11.2476 14.9932 11.2964 14.8704 11.2964H11.6296V14.5371C11.6296 14.6599 11.5809 14.7777 11.494 14.8645C11.4072 14.9513 11.2895 15.0001 11.1667 15.0001C11.0439 15.0001 10.9261 14.9513 10.8393 14.8645C10.7525 14.7777 10.7037 14.6599 10.7037 14.5371V11.2964Z" fill="#E7503D" stroke="#E7503D" stroke-width="0.25"/>
<circle cx="11" cy="11" r="10" stroke="#E7503D" stroke-width="1.25"/>
</svg>
