<svg width="15" height="14" viewBox="0 0 15 14" fill="none" xmlns="http://www.w3.org/2000/svg">
<path d="M1.85135 12.5169H13.1436C13.6178 12.5169 14 12.1302 14 11.6548C14 11.5058 13.9611 11.3603 13.8868 11.229L8.2424 1.42603C8.00884 1.01802 7.48863 0.879649 7.08167 1.11381C6.95074 1.18832 6.84458 1.29831 6.77026 1.42603L1.11175 11.2468C0.878185 11.6548 1.02328 12.1763 1.43024 12.4069C1.56117 12.4815 1.70626 12.5205 1.85489 12.5169H1.85135Z" stroke="#FE0000" stroke-miterlimit="10"/>
<path d="M7.51295 4.44873C7.8739 4.44873 8.16408 4.74321 8.16055 5.1051V5.1122L8.04023 8.84819C8.03315 9.14622 7.78543 9.38393 7.48464 9.37683C7.198 9.36974 6.96444 9.13912 6.95736 8.84819L6.84766 5.12284C6.84766 4.75385 7.14138 4.45583 7.50941 4.44873H7.51295Z" fill="#FE0000"/>
<path d="M7.50013 11.204C7.87342 11.204 8.17604 10.9006 8.17604 10.5263C8.17604 10.152 7.87342 9.84863 7.50013 9.84863C7.12683 9.84863 6.82422 10.152 6.82422 10.5263C6.82422 10.9006 7.12683 11.204 7.50013 11.204Z" fill="#FE0000"/>
</svg>
