<svg width="67" height="21" viewBox="0 0 67 21" fill="none" xmlns="http://www.w3.org/2000/svg">
<g clip-path="url(#clip0_1225_5070)">
<path d="M65.2566 16.7448H58.4975V11.9922H64.0496C64.9883 11.9922 65.7662 11.1908 65.7662 10.2237C65.7662 9.25664 64.9883 8.45532 64.0496 8.45532H58.4975V3.73032H65.0152C65.9539 3.73032 66.7317 2.92901 66.7317 1.9619C66.7317 0.994797 65.9539 0.193481 65.0152 0.193481H57.0492C57.0224 0.193481 56.9687 0.193481 56.9419 0.193481C56.9151 0.193481 56.8614 0.193481 56.8346 0.193481C55.8959 0.193481 55.118 0.994797 55.118 1.9619V18.4856C55.118 19.4527 55.8959 20.254 56.8346 20.254H65.2834C66.2221 20.254 66.9999 19.4527 66.9999 18.4856C66.9731 17.5461 66.2221 16.7448 65.2566 16.7448Z" fill="#B12028"/>
<path d="M48.2518 20.2816C47.3131 20.2816 46.5353 19.4803 46.5353 18.5132V1.98949C46.5353 1.02239 47.3131 0.221069 48.2518 0.221069C49.1906 0.221069 49.9684 1.02239 49.9684 1.98949V18.5132C49.9684 19.4803 49.2174 20.2816 48.2518 20.2816Z" fill="#B12028"/>
<path d="M23.6297 1.98949C23.6297 1.02239 22.8519 0.221069 21.9132 0.221069C20.9744 0.221069 20.1966 1.02239 20.1966 1.98949V13.125L11.5333 0.911859C10.9432 0.138175 9.87034 1.66786e-05 9.14616 0.607912C8.8243 0.884227 8.60973 1.24344 8.52926 1.63028V1.65791C8.52926 1.71317 8.50244 1.74081 8.50244 1.79607C8.50244 1.8237 8.50244 1.8237 8.50244 1.85133C8.50244 1.87896 8.50244 1.93423 8.50244 1.96186V1.98949V18.5132C8.50244 19.4803 9.28026 20.2816 10.219 20.2816C11.1578 20.2816 11.9356 19.4803 11.9356 18.5132V7.37765L20.6257 19.5908C20.6257 19.5908 20.6257 19.5908 20.6257 19.6184C20.6526 19.6461 20.6794 19.6737 20.7062 19.7013C20.733 19.729 20.733 19.729 20.7598 19.7566C20.7867 19.7842 20.8135 19.8119 20.8135 19.8119C20.8403 19.8395 20.8403 19.8395 20.8671 19.8671C20.894 19.8948 20.9208 19.8948 20.9208 19.9224C20.9476 19.95 20.9744 19.95 21.0012 19.9777C21.0281 20.0053 21.0549 20.0053 21.0817 20.0329C21.1085 20.0605 21.1353 20.0605 21.1622 20.0882C21.189 20.1158 21.2158 20.1158 21.2426 20.1434C21.2695 20.1434 21.2695 20.1711 21.2963 20.1711C21.3231 20.1987 21.3767 20.1987 21.4036 20.1987C21.4304 20.1987 21.4304 20.1987 21.4572 20.2263C21.484 20.2263 21.5377 20.254 21.5645 20.254C21.5913 20.254 21.5913 20.254 21.6181 20.2816C21.645 20.2816 21.6718 20.2816 21.7254 20.3092C21.7522 20.3092 21.7791 20.3092 21.8059 20.3092C21.8327 20.3092 21.8595 20.3092 21.8863 20.3092C21.9132 20.3092 21.94 20.3092 21.9668 20.3092H21.9936C22.0205 20.3092 22.0205 20.3092 22.0473 20.3092C22.0741 20.3092 22.1009 20.3092 22.1546 20.3092C22.1814 20.3092 22.2082 20.3092 22.235 20.3092C22.2618 20.3092 22.2887 20.3092 22.3155 20.2816C22.3423 20.2816 22.3691 20.2816 22.396 20.254C22.4228 20.254 22.4496 20.254 22.4764 20.2263C22.5032 20.2263 22.5301 20.1987 22.5569 20.1987C22.5837 20.1987 22.6105 20.1711 22.6374 20.1711C22.6642 20.1711 22.691 20.1434 22.7178 20.1434C22.7446 20.1434 22.7715 20.1158 22.7983 20.1158C22.8251 20.0882 22.8519 20.0882 22.8787 20.0605C22.9056 20.0605 22.9324 20.0329 22.9324 20.0329C22.9592 20.0053 22.986 20.0053 23.0129 19.9777C23.0397 19.9777 23.0397 19.95 23.0665 19.95C23.0665 19.95 23.0665 19.95 23.0933 19.9224C23.1201 19.8948 23.147 19.8948 23.1738 19.8671C23.2006 19.8395 23.2274 19.8395 23.2274 19.8119C23.2542 19.7842 23.2542 19.7842 23.2811 19.7566C23.3079 19.729 23.3347 19.7013 23.3347 19.6737C23.3347 19.6461 23.3615 19.6461 23.3615 19.6184C23.3884 19.5908 23.4152 19.5632 23.4152 19.5355C23.4152 19.5079 23.442 19.5079 23.442 19.4803C23.4688 19.4527 23.4688 19.425 23.4956 19.3698C23.4956 19.3421 23.5225 19.3421 23.5225 19.3145C23.5493 19.2869 23.5493 19.2592 23.5761 19.2316C23.5761 19.204 23.6029 19.1763 23.6029 19.1487C23.6029 19.1211 23.6297 19.0934 23.6297 19.0658C23.6297 19.0382 23.6566 19.0105 23.6566 18.9829C23.6566 18.9553 23.6834 18.9277 23.6834 18.9C23.6834 18.8724 23.6834 18.8448 23.6834 18.8171C23.6834 18.7895 23.6834 18.7619 23.7102 18.7342C23.7102 18.7066 23.7102 18.679 23.7102 18.679C23.7102 18.6513 23.7102 18.5961 23.7102 18.5684C23.7102 18.5684 23.7102 18.5684 23.7102 18.5408V1.98949H23.6297Z" fill="#B12028"/>
<path d="M3.43315 18.5132C3.43315 19.4803 2.65532 20.2816 1.71657 20.2816C0.777822 20.2816 0 19.4803 0 18.5132V1.98949C0 1.02239 0.777822 0.221069 1.71657 0.221069C2.65532 0.221069 3.43315 1.02239 3.43315 1.98949V18.5132Z" fill="#B12028"/>
<path d="M41.8146 6.88026V13.3737C41.8146 15.3079 41.1173 17.0487 39.8567 18.375C38.6497 19.5632 37.0941 20.2263 35.3507 20.2263H28.9672V0H35.3507C37.0941 0 38.6497 0.663158 39.8567 1.85132C41.1173 3.20526 41.8146 4.94605 41.8146 6.88026Z" fill="#8DC6E8"/>
<path d="M38.1401 3.09469C37.1209 1.76838 35.8066 0.93943 34.3314 0.746009L28.9403 0.0275879V20.2539L34.3314 20.9723C35.7798 21.1657 37.1209 20.6684 38.1401 19.5907C39.2129 18.4302 39.803 16.7447 39.803 14.8105V8.31706C39.803 6.35522 39.2129 4.53154 38.1401 3.09469Z" fill="#B12028"/>
<path d="M38.1132 12.0197C38.4539 12.0197 38.7301 11.7352 38.7301 11.3842C38.7301 11.0332 38.4539 10.7487 38.1132 10.7487C37.7725 10.7487 37.4963 11.0332 37.4963 11.3842C37.4963 11.7352 37.7725 12.0197 38.1132 12.0197Z" fill="white"/>
</g>
<defs>
<clipPath id="clip0_1225_5070">
<rect width="67" height="21" fill="white"/>
</clipPath>
</defs>
</svg>
