<svg width="34" height="36" viewBox="0 0 34 36" fill="none" xmlns="http://www.w3.org/2000/svg">
<path d="M17.4538 35.52C14.0938 35.52 11.1471 34.8 8.61375 33.36C6.08042 31.9467 4.12042 29.9333 2.73375 27.32C1.34708 24.68 0.65375 21.5733 0.65375 18C0.65375 15.4133 1.06708 13.0533 1.89375 10.92C2.74708 8.76 3.93375 6.90667 5.45375 5.36C7.00042 3.78667 8.82708 2.58666 10.9338 1.76C13.0404 0.906664 15.3738 0.479998 17.9338 0.479998C20.9738 0.479998 23.6404 1.09333 25.9338 2.32C28.2538 3.54666 30.0671 5.26666 31.3738 7.48C32.6804 9.69333 33.3338 12.2667 33.3338 15.2C33.3338 17.52 33.0138 19.5333 32.3738 21.24C31.7338 22.9467 30.8404 24.28 29.6938 25.24C28.5738 26.1733 27.2538 26.64 25.7338 26.64C24.4538 26.64 23.4271 26.32 22.6538 25.68C21.8804 25.04 21.4404 24.16 21.3338 23.04C20.5871 24.1867 19.6671 25.08 18.5738 25.72C17.5071 26.3333 16.3871 26.64 15.2138 26.64C13.1871 26.64 11.6138 26.0133 10.4938 24.76C9.37375 23.48 8.81375 21.72 8.81375 19.48C8.81375 17.5067 9.18708 15.76 9.93375 14.24C10.7071 12.6933 11.7471 11.48 13.0538 10.6C14.3604 9.69333 15.8404 9.24 17.4938 9.24C18.8004 9.24 19.8938 9.53333 20.7738 10.12C21.6804 10.7067 22.3071 11.52 22.6538 12.56L23.0138 10.48C23.1471 9.76 23.5604 9.4 24.2538 9.4C25.0004 9.4 25.3071 9.8 25.1738 10.6L23.4938 20.28C23.4404 20.6267 23.4004 20.9467 23.3738 21.24C23.3471 21.5333 23.3338 21.8 23.3338 22.04C23.3338 23.9067 24.1871 24.84 25.8938 24.84C26.9871 24.84 27.9471 24.44 28.7738 23.64C29.6004 22.84 30.2404 21.72 30.6938 20.28C31.1738 18.8133 31.4138 17.12 31.4138 15.2C31.4138 12.64 30.8404 10.4 29.6938 8.48C28.5471 6.56 26.9604 5.06667 24.9338 4C22.9071 2.90667 20.5604 2.36 17.8938 2.36C14.8804 2.36 12.2404 3.01333 9.97375 4.32C7.70708 5.62667 5.93375 7.45333 4.65375 9.8C3.37375 12.1467 2.73375 14.88 2.73375 18C2.73375 21.2533 3.33375 24.0533 4.53375 26.4C5.73375 28.72 7.44042 30.4933 9.65375 31.72C11.8671 32.9733 14.4671 33.6 17.4538 33.6C19.5071 33.6 21.3604 33.2933 23.0138 32.68C24.6938 32.0667 26.0804 31.24 27.1738 30.2C27.5738 29.8533 27.9471 29.7333 28.2938 29.84C28.6671 29.9733 28.8938 30.2133 28.9738 30.56C29.0538 30.9333 28.8938 31.3067 28.4938 31.68C27.2404 32.8533 25.6671 33.7867 23.7738 34.48C21.9071 35.1733 19.8004 35.52 17.4538 35.52ZM15.4138 24.72C16.6671 24.72 17.7871 24.3467 18.7738 23.6C19.7871 22.8267 20.5738 21.7867 21.1338 20.48C21.7204 19.1467 22.0138 17.64 22.0138 15.96C22.0138 12.7867 20.5604 11.2 17.6538 11.2C16.4004 11.2 15.2671 11.56 14.2538 12.28C13.2671 12.9733 12.4804 13.9467 11.8938 15.2C11.3071 16.4533 11.0138 17.8667 11.0138 19.44C11.0138 21.1467 11.4004 22.4533 12.1738 23.36C12.9471 24.2667 14.0271 24.72 15.4138 24.72Z" fill="#E7503D"/>
</svg>
