<svg width="15" height="24" viewBox="0 0 15 24" fill="none" xmlns="http://www.w3.org/2000/svg">
<path d="M14.6044 7.85821V15.2746C14.6044 17.4837 13.8135 19.472 12.3835 20.9868C11.0144 22.3439 9.24983 23.1012 7.27224 23.1012H0.03125V0H7.27224C9.24983 0 11.0144 0.757418 12.3835 2.11446C13.8135 3.66085 14.6044 5.64907 14.6044 7.85821Z" fill="#8DC6E8"/>
<path d="M10.4356 3.5343C9.27949 2.01947 7.78865 1.0727 6.11528 0.851786L0 0.03125V23.1325L6.11528 23.953C7.75825 24.1739 9.27949 23.6059 10.4356 22.375C11.6525 21.0496 12.3219 19.1245 12.3219 16.9154V9.49897C12.3219 7.25828 11.6525 5.17538 10.4356 3.5343Z" fill="#B12028"/>
<path d="M10.4068 13.729C10.7933 13.729 11.1066 13.4041 11.1066 13.0032C11.1066 12.6023 10.7933 12.2773 10.4068 12.2773C10.0203 12.2773 9.70703 12.6023 9.70703 13.0032C9.70703 13.4041 10.0203 13.729 10.4068 13.729Z" fill="white"/>
</svg>
