<svg width="23" height="27" viewBox="0 0 23 27" fill="none" xmlns="http://www.w3.org/2000/svg">
<path d="M12.9788 5.35416C12.6913 5.35416 12.458 5.12083 12.458 4.83333V3.08333C12.458 2.50937 11.9903 2.04167 11.4163 2.04167C10.8424 2.04167 10.3747 2.50937 10.3747 3.08333V4.83333C10.3747 5.12083 10.1413 5.35416 9.85384 5.35416C9.56634 5.35416 9.33301 5.12187 9.33301 4.83333V3.08333C9.33301 1.93437 10.2674 1 11.4163 1C12.5653 1 13.4997 1.93437 13.4997 3.08333V4.83333C13.4997 5.12187 13.2663 5.35416 12.9788 5.35416Z" fill="#E7503D" stroke="#E7503D"/>
<path d="M11.4163 26.0006C9.40592 26.0006 7.77051 24.3652 7.77051 22.3548C7.77051 22.0673 8.00384 21.834 8.29134 21.834C8.57884 21.834 8.81217 22.0673 8.81217 22.3548C8.81217 23.7902 9.98092 24.959 11.4163 24.959C12.8518 24.959 14.0205 23.7902 14.0205 22.3548C14.0205 22.0673 14.2538 21.834 14.5413 21.834C14.8288 21.834 15.0622 22.0673 15.0622 22.3548C15.0622 24.3652 13.4268 26.0006 11.4163 26.0006Z" fill="#E7503D" stroke="#E7503D"/>
<path d="M20.2708 22.875H2.5625C1.70104 22.875 1 22.1739 1 21.3125C1 20.8552 1.19896 20.4229 1.54687 20.125C3.18854 18.7375 4.125 16.7187 4.125 14.5812V11.4167C4.125 7.39583 7.39583 4.125 11.4167 4.125C15.4375 4.125 18.7083 7.39583 18.7083 11.4167V14.5812C18.7083 16.7198 19.6448 18.7375 21.2781 20.1177C21.6344 20.4229 21.8333 20.8552 21.8333 21.3125C21.8333 22.1739 21.1333 22.875 20.2708 22.875ZM11.4167 5.16667C7.96979 5.16667 5.16666 7.96979 5.16666 11.4167V14.5812C5.16666 17.0271 4.09583 19.3344 2.22812 20.9135C2.10833 21.0156 2.04167 21.1604 2.04167 21.3125C2.04167 21.6 2.275 21.8333 2.5625 21.8333H20.2708C20.5583 21.8333 20.7917 21.6 20.7917 21.3125C20.7917 21.1604 20.725 21.0156 20.6094 20.9167C18.7385 19.3344 17.6667 17.026 17.6667 14.5812V11.4167C17.6667 7.96979 14.8635 5.16667 11.4167 5.16667Z" fill="#E7503D" stroke="#E7503D"/>
</svg>
