<svg width="38" height="39" viewBox="0 0 38 39" fill="none" xmlns="http://www.w3.org/2000/svg">
<path d="M0.69438 10.5473C0.685036 10.6221 0.675693 10.6969 0.666349 10.7716V12.3414C0.666349 12.9862 1.0775 13.5655 1.68487 13.7898V16.0978C1.68487 16.8734 2.29225 17.5088 3.06783 17.5462V30.8898C2.29225 30.9272 1.68487 31.5626 1.68487 32.3382V34.6462C1.0775 34.8798 0.675693 35.4592 0.666349 36.1133V37.6457C0.666349 37.9354 0.899955 38.1597 1.18028 38.1597H36.1746C36.4643 38.1597 36.6885 37.9261 36.6885 37.6457V36.1133C36.6885 35.4592 36.2867 34.8798 35.6793 34.6462V32.3382C35.6793 31.5626 35.072 30.9272 34.2964 30.8898V17.5556C35.072 17.5182 35.6793 16.8828 35.6793 16.1072V13.7992C36.2867 13.5749 36.6885 12.9955 36.6885 12.3508V10.7903C36.6885 10.7155 36.6792 10.6408 36.6605 10.566C36.9221 10.6688 37.2305 10.538 37.3333 10.2764C37.4267 10.0241 37.3239 9.74374 37.081 9.62226L18.9251 0.0630738C18.7755 -0.0210246 18.5887 -0.0210246 18.4392 0.0630738L0.273889 9.60358C0.0215939 9.7344 -0.0718502 10.0521 0.0589696 10.3044C0.180445 10.538 0.45143 10.6408 0.703725 10.5473H0.69438ZM2.71274 14.6962V13.9019H8.69308V14.6962H2.71274ZM16.0377 17.5649V30.9085C15.2621 30.9459 14.6641 31.5813 14.6547 32.3569V34.5621H9.73029V32.3569C9.73029 31.5813 9.12291 30.9459 8.34734 30.9085V17.5649C9.12291 17.5275 9.73029 16.8921 9.73029 16.1165V13.9113H14.6454V16.1165C14.6454 16.8921 15.2528 17.5275 16.0283 17.5649H16.0377ZM15.6919 14.7055V13.9113H21.6723V14.7055H15.6919ZM29.0169 17.5742V30.9179C28.2413 30.9552 27.6339 31.5906 27.6339 32.3662V34.5715H22.7095V32.3662C22.7095 31.5906 22.1021 30.9552 21.3265 30.9179V17.5742C22.1021 17.5369 22.7095 16.9015 22.7095 16.1259V13.9206H27.6246V16.1259C27.6246 16.9015 28.2319 17.5369 29.0075 17.5742H29.0169ZM28.6711 14.7149V13.9206H34.6515V14.7149H28.6711ZM34.6515 33.7866V34.5808H28.6618V33.7866H34.6515ZM21.6723 33.7866V34.5808H15.6826V33.7866H21.6723ZM16.5516 16.5557H16.1031C15.8695 16.5557 15.6919 16.3688 15.6919 16.1446V15.7708H21.6723V16.1446C21.6723 16.3782 21.4854 16.5557 21.2611 16.5557H16.561H16.5516ZM20.2893 17.5929V30.9179H17.0655V17.5929H20.2893ZM16.5516 31.9551H21.2518C21.4854 31.9551 21.6629 32.142 21.6629 32.3662V32.74H15.6826V32.3662C15.6826 32.1326 15.8695 31.9551 16.0937 31.9551H16.5423H16.5516ZM8.69308 33.7866V34.5808H2.71274V33.7866H8.69308ZM2.71274 16.1446V15.7521H8.69308V16.1259C8.69308 16.3595 8.50619 16.537 8.28193 16.537H3.11455C2.89028 16.537 2.71274 16.3501 2.71274 16.1259V16.1446ZM7.31012 17.5929V30.9179H4.0957V17.5929H7.31012ZM2.71274 32.3849C2.71274 32.1513 2.89963 31.9738 3.12389 31.9738H8.27258C8.50619 31.9738 8.68373 32.1606 8.68373 32.3849V32.7587H2.7034V32.3849H2.71274ZM35.6606 36.16V37.1785H1.70356V36.16C1.70356 35.861 1.94651 35.6274 2.23618 35.6274H35.128C35.4177 35.6274 35.6606 35.861 35.6606 36.1507V36.16ZM34.6515 32.3943V32.768H28.6711V32.3943C28.6711 32.1606 28.858 31.9831 29.0823 31.9831H34.2497C34.4739 31.9831 34.6515 32.17 34.6515 32.3849V32.3943ZM30.0541 30.9552V17.6116H33.2779V30.9365H30.0541V30.9552ZM34.6515 16.1819C34.6515 16.4155 34.4646 16.5931 34.2403 16.5931H29.0916C28.858 16.5931 28.6805 16.4062 28.6805 16.1819V15.7895H34.6608V16.1819H34.6515ZM18.6821 1.10029L34.1282 9.22046H3.23602L18.6821 1.10029ZM1.70356 10.7903C1.70356 10.5006 1.93717 10.2764 2.2175 10.2764H35.1374C35.427 10.2764 35.6513 10.51 35.6513 10.7903V12.3601C35.6513 12.6498 35.4177 12.8741 35.1374 12.8741H2.22684C1.93717 12.8741 1.71291 12.6405 1.71291 12.3601V10.7903H1.70356Z" fill="#E7503D"/>
</svg>
