<svg width="211" height="188" viewBox="0 0 211 188" fill="none" xmlns="http://www.w3.org/2000/svg">
<path d="M139.135 0.334005L11.0618 13.7805L28.2477 176.569L156.321 163.123L139.135 0.334005Z" fill="#E0E0E0"/>
<path d="M144.023 3.81114L17.2271 22.7764L39.6182 171.653L166.414 152.687L144.023 3.81114Z" fill="#EBEBEB"/>
<path d="M193.894 17.2554C193.894 17.2554 188.873 13.9451 182.757 25.9157C176.64 37.8864 174.321 44.7948 174.321 44.7948C174.321 44.7948 172.704 47.3011 170.977 45.6633C169.25 44.0256 166.881 39.3703 163.945 40.2091C160.899 41.0776 159.894 44.4673 160.476 49.4501C161.058 54.4329 161.929 65.3911 162.004 66.3837C162.079 67.3564 161.521 68.7907 160.162 67.8627C158.804 66.9346 151 58.2693 147.099 62.2049C143.197 66.1455 147.099 79.7539 147.497 81.2527C147.895 82.7466 147.601 83.3868 146.89 83.759C146.178 84.1312 143.829 80.9698 141.51 78.5975C139.191 76.2252 136.08 73.8778 134.02 76.3344C131.96 78.7911 131.303 89.0098 141.047 105.601L146.069 112.996L155.046 112.5C174.197 110.266 181.975 103.591 182.707 100.469C183.433 97.3476 179.686 96.2855 176.386 95.8686C173.087 95.4517 169.145 95.4865 169.011 94.6924C168.877 93.9033 169.215 93.2829 170.648 92.6973C172.087 92.1117 185.335 87.0246 186.136 81.5455C186.937 76.0664 175.302 75.0738 173.739 74.5527C172.176 74.0316 172.987 72.7214 173.814 72.1953C174.655 71.6593 183.951 65.7484 188.291 63.2124C192.63 60.6763 194.735 57.8325 193.601 54.8845C192.501 52.0407 187.355 52.9589 185.001 52.5718C182.647 52.1847 183.682 49.3856 183.682 49.3856C183.682 49.3856 187.813 43.3804 193.715 31.3005C199.613 19.2207 193.79 17.1958 193.79 17.1958" fill="#E0E0E0"/>
<path d="M188.395 27.9653C188.395 27.9653 188.36 28.0547 188.286 28.2234C188.201 28.4021 188.087 28.6502 187.937 28.9728C187.619 29.6378 187.156 30.6056 186.564 31.8414C185.369 34.3328 183.613 37.921 181.428 42.348C177.058 51.2019 170.922 63.386 164.104 76.8207C157.281 90.2604 151.115 102.425 146.706 111.259C144.506 115.671 142.729 119.244 141.49 121.726C140.878 122.951 140.4 123.909 140.072 124.569C139.912 124.887 139.788 125.13 139.698 125.304C139.614 125.468 139.564 125.552 139.564 125.552C139.564 125.552 139.599 125.463 139.673 125.294C139.758 125.115 139.873 124.867 140.022 124.545C140.34 123.879 140.803 122.912 141.395 121.676C142.59 119.189 144.347 115.596 146.531 111.169C150.901 102.315 157.037 90.1314 163.86 76.6917C170.678 63.2569 176.844 51.0927 181.259 42.2587C183.458 37.8466 185.235 34.2733 186.474 31.7918C187.086 30.5659 187.564 29.6081 187.892 28.948C188.052 28.6304 188.176 28.3872 188.266 28.2135C188.35 28.0497 188.4 27.9653 188.4 27.9653H188.395Z" fill="#EBEBEB"/>
<path d="M166.991 46.8495C166.991 46.8495 167.09 47.0579 167.215 47.455C167.344 47.847 167.513 48.4227 167.717 49.1374C168.12 50.5667 168.633 52.5519 169.155 54.7505C169.663 56.9243 170.121 58.8896 170.474 60.3934C170.638 61.0684 170.773 61.6391 170.882 62.1007C170.982 62.5027 171.027 62.731 171.007 62.7359C170.987 62.7409 170.907 62.5275 170.778 62.1304C170.648 61.7334 170.479 61.1577 170.28 60.443C169.887 59.0087 169.404 57.0186 168.882 54.82C168.359 52.6512 167.886 50.6908 167.523 49.192C167.359 48.517 167.215 47.9463 167.105 47.4897C167.01 47.0877 166.966 46.8594 166.986 46.8544L166.991 46.8495Z" fill="#EBEBEB"/>
<path d="M171.838 62.8896C171.818 62.8152 175.874 61.5893 180.905 60.1451C185.932 58.7058 190.027 57.5941 190.047 57.6686C190.067 57.743 186.011 58.9689 180.98 60.4131C175.953 61.8523 171.858 62.964 171.838 62.8896Z" fill="#EBEBEB"/>
<path d="M160.426 83.0545C160.426 83.0545 160.66 83.0247 161.088 83.0247C161.571 83.0247 162.173 83.0247 162.885 83.0297C164.403 83.0297 166.498 83.0297 168.807 82.9403C171.121 82.856 173.206 82.7071 174.719 82.588C175.431 82.5334 176.028 82.4837 176.511 82.449C176.934 82.4192 177.168 82.4093 177.173 82.4292C177.178 82.449 176.944 82.4937 176.526 82.5582C176.108 82.6227 175.496 82.7021 174.739 82.7865C173.231 82.9552 171.136 83.1389 168.817 83.2232C166.498 83.3126 164.398 83.2877 162.88 83.2331C162.118 83.2034 161.506 83.1736 161.083 83.1389C160.66 83.1091 160.426 83.0793 160.426 83.0594V83.0545Z" fill="#EBEBEB"/>
<path d="M152.842 69.5055C152.842 69.5055 152.981 69.6742 153.19 70.0067C153.424 70.3889 153.713 70.8653 154.056 71.4212C154.778 72.6222 155.36 74.6819 156.823 76.136C157.888 77.9872 158.844 79.6696 159.521 80.8955C159.834 81.4712 160.098 81.9576 160.312 82.3546C160.491 82.702 160.586 82.9005 160.571 82.9055C160.556 82.9154 160.431 82.7367 160.222 82.4042C159.988 82.0221 159.7 81.5456 159.356 80.9898C158.635 79.7887 157.654 78.1212 156.589 76.275C155.524 74.4238 154.569 72.7413 153.892 71.5205C153.578 70.9448 153.315 70.4584 153.101 70.0613C152.922 69.7139 152.827 69.5154 152.842 69.5105V69.5055Z" fill="#EBEBEB"/>
<path d="M140.505 86.0271C140.505 86.0271 140.679 86.2454 140.948 86.6722C141.236 87.1437 141.614 87.7492 142.062 88.4788C142.993 90.0123 144.267 92.1365 145.655 94.4939C147.044 96.8513 148.293 98.9953 149.179 100.554C149.597 101.303 149.95 101.923 150.219 102.405C150.458 102.847 150.582 103.095 150.567 103.105C150.553 103.115 150.393 102.886 150.125 102.459C149.836 101.988 149.458 101.382 149.01 100.653C148.079 99.1193 146.805 96.9952 145.417 94.6328C144.028 92.2754 142.784 90.1314 141.893 88.5731C141.475 87.8236 141.122 87.2033 140.853 86.7219C140.614 86.2802 140.49 86.032 140.505 86.0221V86.0271Z" fill="#EBEBEB"/>
<path d="M150.448 102.628C150.448 102.628 150.747 102.588 151.284 102.569C151.871 102.549 152.638 102.524 153.563 102.494C155.484 102.43 158.142 102.33 161.073 102.137C164.004 101.948 166.652 101.71 168.568 101.521C169.489 101.432 170.25 101.358 170.837 101.303C171.375 101.253 171.674 101.234 171.674 101.253C171.674 101.273 171.385 101.328 170.852 101.412C170.32 101.497 169.548 101.601 168.593 101.72C166.682 101.958 164.029 102.226 161.098 102.415C158.162 102.608 155.504 102.678 153.573 102.693C152.608 102.693 151.832 102.693 151.294 102.678C150.757 102.663 150.458 102.648 150.458 102.628H150.448Z" fill="#EBEBEB"/>
<path d="M1.68997 98.9063C3.42684 97.9484 5.57676 97.9137 7.46292 98.5192C9.35406 99.1247 11.0063 100.316 12.4296 101.691C15.1867 104.351 16.9186 108.405 17.909 112.103C13.7286 112.937 9.40383 110.544 7.28874 109.199C3.93943 107.065 -0.80832 101.184 1.68997 98.9113" fill="#E7503D"/>
<path d="M25.1798 112.981C23.1593 112.078 21.8305 109.929 21.6712 107.726C21.512 105.522 22.4277 103.314 23.9107 101.671C24.5975 100.912 25.5033 100.222 26.5285 100.271C27.484 100.316 28.3151 101.036 28.7182 101.899C29.1213 102.768 29.1562 103.76 29.0616 104.708C28.7481 107.969 27.8473 111.066 25.1798 112.981Z" fill="#E7503D"/>
<path d="M31.9332 123.349C31.9332 123.349 31.7242 123.155 31.3808 122.783C31.0076 122.366 30.5199 121.83 29.9376 121.19C28.7531 119.835 27.0213 117.929 25.9065 115.349C24.7867 112.783 24.513 110.182 24.7768 108.376C24.8962 107.467 25.1052 106.753 25.2894 106.276C25.374 106.033 25.4685 105.859 25.5233 105.735C25.583 105.616 25.6178 105.552 25.6228 105.557C25.6875 105.577 25.155 106.599 24.9709 108.395C24.7619 110.177 25.0605 112.718 26.1603 115.239C27.2502 117.771 28.9323 119.671 30.0819 121.061C30.6642 121.756 31.142 122.317 31.4555 122.714C31.774 123.111 31.9382 123.339 31.9233 123.349H31.9332Z" fill="#263238"/>
<path d="M5.70625 103.07C5.70625 103.07 5.81076 103.125 5.99988 103.249C6.2089 103.393 6.48261 103.577 6.81605 103.8C7.52274 104.281 8.533 104.996 9.7722 105.884C12.2556 107.666 15.6497 110.172 19.3324 113.026C23.0201 115.88 26.2948 118.54 28.6388 120.495C29.8133 121.473 30.7539 122.272 31.3959 122.833C31.6994 123.101 31.9433 123.314 32.1324 123.483C32.2967 123.632 32.3813 123.716 32.3763 123.726C32.3713 123.731 32.2718 123.667 32.0976 123.528C31.8985 123.369 31.6447 123.165 31.3262 122.917C30.6344 122.361 29.6789 121.587 28.5144 120.649C26.1405 118.733 22.8459 116.098 19.1632 113.244C15.4804 110.396 12.1063 107.865 9.65773 106.043C8.45338 105.15 7.468 104.415 6.75633 103.889C6.43285 103.646 6.17406 103.448 5.97002 103.294C5.79085 103.155 5.70127 103.08 5.70625 103.07Z" fill="#263238"/>
<path d="M23.6321 118.783C19.5313 116.555 14.3257 116.475 10.1602 118.579C9.1002 119.115 7.97547 120.019 8.07003 121.2C8.16459 122.386 9.42369 123.101 10.5683 123.433C15.326 124.823 20.8601 122.987 23.8362 119.036" fill="#E7503D"/>
<path d="M13.3403 120.366C13.3403 120.366 13.5643 120.222 13.9923 120.009C14.2063 119.9 14.47 119.766 14.7885 119.651C15.1071 119.532 15.4604 119.364 15.8735 119.249C16.2816 119.125 16.7295 118.976 17.2271 118.877C17.7148 118.753 18.2523 118.674 18.8147 118.594C19.9444 118.465 21.1985 118.426 22.5074 118.574C23.8113 118.733 25.0306 119.056 26.0956 119.448C26.6231 119.661 27.1257 119.86 27.5687 120.103C28.0265 120.316 28.4247 120.57 28.7879 120.798C29.1612 121.011 29.4598 121.264 29.7385 121.458C30.0172 121.652 30.2362 121.85 30.4153 122.009C30.7736 122.326 30.9628 122.51 30.9528 122.525C30.913 122.575 30.1416 121.845 28.6884 120.967C28.3201 120.753 27.927 120.515 27.4691 120.312C27.0262 120.078 26.5285 119.89 26.011 119.691C24.9559 119.319 23.7615 119.011 22.4775 118.852C21.1935 118.708 19.9593 118.738 18.8495 118.852C18.2921 118.922 17.7646 118.991 17.2819 119.106C16.7892 119.19 16.3462 119.329 15.9382 119.443C14.3108 119.934 13.3752 120.431 13.3503 120.371L13.3403 120.366Z" fill="#263238"/>
<path d="M152.827 138.248C149.343 136.014 148.089 133.151 147.541 129.056C146.999 124.962 148.343 120.659 151.12 117.597C153.439 115.046 156.694 113.304 158.376 110.296C160.167 107.095 159.938 102.827 162.501 100.197C164.263 98.3853 166.916 97.8195 169.086 96.5292C170.857 95.477 172.295 93.9534 173.903 92.668C175.51 91.3826 177.441 90.2907 179.502 90.3652C182.612 90.4793 185.14 93.4224 185.409 96.5143C185.678 99.6062 184.055 102.634 181.766 104.733C180.104 106.257 178.029 107.453 176.979 109.443C175.003 113.185 177.412 118.183 175.277 121.835C173.719 124.5 170.006 125.895 169.603 128.952C169.454 130.079 169.817 131.205 169.852 132.342C169.961 135.89 166.746 138.878 163.273 139.642C159.794 140.407 156.181 139.449 152.832 138.248" fill="#455A64"/>
<path d="M173.266 103.095C173.266 103.095 173.156 103.249 172.918 103.512C172.649 103.8 172.3 104.177 171.868 104.639C171.405 105.125 170.837 105.711 170.225 106.44C169.613 107.165 168.862 107.944 168.135 108.892C167.389 109.825 166.552 110.832 165.746 111.984C165.338 112.554 164.89 113.125 164.482 113.751C164.069 114.376 163.646 115.016 163.213 115.676C161.536 118.346 159.849 121.384 158.396 124.724C156.962 128.074 155.907 131.379 155.136 134.436C154.788 135.975 154.444 137.434 154.24 138.823C153.976 140.203 153.842 141.503 153.708 142.69C153.538 143.871 153.528 144.953 153.449 145.901C153.369 146.848 153.364 147.662 153.354 148.332C153.339 148.963 153.324 149.474 153.314 149.871C153.3 150.223 153.29 150.407 153.275 150.407C153.26 150.407 153.245 150.223 153.23 149.871C153.22 149.474 153.205 148.963 153.185 148.327C153.165 147.657 153.15 146.839 153.205 145.886C153.26 144.938 153.25 143.846 153.399 142.66C153.518 141.469 153.633 140.158 153.882 138.769C154.071 137.369 154.404 135.9 154.743 134.347C155.499 131.265 156.549 127.93 157.993 124.555C159.456 121.195 161.168 118.143 162.875 115.468C163.318 114.808 163.746 114.167 164.164 113.542C164.582 112.917 165.04 112.346 165.453 111.775C166.274 110.629 167.13 109.626 167.891 108.703C168.638 107.76 169.404 106.991 170.041 106.281C170.673 105.567 171.26 104.996 171.743 104.524C172.201 104.083 172.569 103.725 172.853 103.447C173.112 103.204 173.251 103.085 173.261 103.095H173.266Z" fill="#263238"/>
<path d="M155.932 12.5854H27.718V163.127H155.932V12.5854Z" fill="#FAFAFA"/>
<path d="M155.937 163.127C155.937 162.129 155.892 102.286 155.823 12.5855L155.937 12.6996C118.05 12.6996 74.2201 12.7095 27.7329 12.7145H27.718L27.8474 12.5855C27.8375 68.1706 27.8325 119.944 27.8275 163.127L27.718 163.018C104.956 163.082 155.021 163.127 155.932 163.127C155.017 163.127 104.951 163.172 27.718 163.236H27.6085V163.127C27.6036 119.944 27.5936 68.1706 27.5886 12.5855V12.4564H27.7329C74.2151 12.4614 118.05 12.4663 155.937 12.4713H156.052V12.5855C155.982 102.286 155.937 162.129 155.937 163.127Z" fill="#263238"/>
<path d="M89.7373 82.1364C89.7373 82.1364 89.7323 82.0371 89.7273 81.8584C89.7273 81.6698 89.7273 81.4018 89.7174 81.0544C89.7174 80.3398 89.7074 79.2975 89.6975 77.9526C89.6875 75.2478 89.6726 71.3171 89.6527 66.374L89.7373 66.4584C77.8231 66.4683 59.6881 66.4881 39.428 66.503L39.5574 66.374C39.5574 71.8382 39.5574 77.1486 39.5574 82.1413L39.433 82.0172C53.8753 82.0421 66.4365 82.0619 75.3945 82.0768C79.8735 82.0917 83.4567 82.1016 85.9252 82.1115C87.1544 82.1165 88.1049 82.1264 88.7569 82.1264C89.0754 82.1264 89.3193 82.1314 89.4934 82.1364C89.6577 82.1364 89.7472 82.1463 89.7472 82.1463C89.7472 82.1463 89.6676 82.1512 89.5084 82.1562C89.3392 82.1562 89.1003 82.1562 88.7868 82.1661C88.1398 82.1661 87.1992 82.1761 85.9799 82.181C83.5164 82.1909 79.9482 82.2009 75.4791 82.2158C66.5012 82.2306 53.9102 82.2505 39.433 82.2753H39.3086V82.1512C39.3086 77.1535 39.3086 71.8481 39.3086 66.3839V66.2549H39.443C59.703 66.2747 77.8381 66.2896 89.7522 66.2995H89.8368V66.3839C89.8169 71.3518 89.802 75.2974 89.792 78.0121C89.7821 79.3521 89.7771 80.3894 89.7721 81.0991C89.7721 81.4415 89.7672 81.7046 89.7622 81.8882C89.7622 82.0669 89.7522 82.1512 89.7522 82.1512L89.7373 82.1364Z" fill="#263238"/>
<path d="M145.426 103.497C145.426 103.497 145.416 103.139 145.416 102.46C145.416 101.775 145.406 100.757 145.401 99.4272C145.392 96.762 145.382 92.8264 145.367 87.7295L145.431 87.794C125.087 87.8089 85.2085 87.8337 39.438 87.8585H39.433L39.5624 87.7295C39.5624 93.1292 39.5624 98.4494 39.5624 103.497L39.433 103.368C69.3628 103.388 95.8437 103.407 114.85 103.422C124.36 103.437 131.999 103.452 137.265 103.462C139.897 103.472 141.933 103.477 143.321 103.482C144.008 103.482 144.536 103.487 144.894 103.492C145.247 103.492 145.436 103.502 145.436 103.502C145.436 103.502 145.262 103.507 144.914 103.512C144.56 103.512 144.038 103.512 143.356 103.522C141.978 103.522 139.947 103.532 137.329 103.541C132.069 103.551 124.445 103.561 114.944 103.581C95.9183 103.596 69.4026 103.616 39.438 103.636H39.3086V103.507C39.3086 98.4594 39.3086 93.1391 39.3086 87.7394V87.6104H39.443C85.2135 87.6401 125.092 87.6649 145.436 87.6749H145.501V87.7394C145.486 92.8512 145.471 96.8017 145.466 99.4718C145.461 100.797 145.456 101.804 145.451 102.489C145.451 103.164 145.436 103.507 145.436 103.507L145.426 103.497Z" fill="#263238"/>
<path d="M145.426 124.704C145.426 124.704 145.416 124.346 145.416 123.666C145.416 122.981 145.406 121.964 145.401 120.634C145.392 117.969 145.382 114.033 145.367 108.936L145.431 109.001C125.087 109.016 85.2085 109.04 39.438 109.065H39.433L39.5624 108.936C39.5624 114.336 39.5624 119.656 39.5624 124.704L39.433 124.575C69.3628 124.594 95.8437 124.614 114.85 124.629C124.36 124.644 131.999 124.659 137.265 124.669C139.897 124.679 141.933 124.684 143.321 124.689C144.008 124.689 144.536 124.694 144.894 124.699C145.247 124.699 145.436 124.709 145.436 124.709C145.436 124.709 145.262 124.713 144.914 124.718C144.56 124.718 144.038 124.718 143.356 124.728C141.978 124.728 139.947 124.738 137.329 124.748C132.069 124.758 124.445 124.768 114.944 124.788C95.9183 124.803 69.4026 124.823 39.438 124.843H39.3086V124.713C39.3086 119.666 39.3086 114.346 39.3086 108.946V108.817H39.443C85.2135 108.847 125.092 108.872 145.436 108.882H145.501V108.946C145.486 114.058 145.471 118.009 145.466 120.679C145.461 122.004 145.456 123.011 145.451 123.696C145.451 124.371 145.436 124.713 145.436 124.713L145.426 124.704Z" fill="#263238"/>
<path d="M145.427 82.1364C145.427 82.1364 145.422 82.0371 145.417 81.8584C145.417 81.6698 145.417 81.4018 145.407 81.0544C145.407 80.3398 145.397 79.2975 145.387 77.9526C145.377 75.2478 145.362 71.3171 145.342 66.374L145.427 66.4584C133.512 66.4683 115.377 66.4881 95.1172 66.503L95.2466 66.374C95.2466 71.8382 95.2466 77.1486 95.2466 82.1413L95.1222 82.0172C109.565 82.0421 122.126 82.0619 131.084 82.0768C135.563 82.0917 139.146 82.1016 141.614 82.1115C142.844 82.1165 143.794 82.1264 144.446 82.1264C144.765 82.1264 145.008 82.1314 145.183 82.1364C145.347 82.1364 145.436 82.1463 145.436 82.1463C145.436 82.1463 145.357 82.1512 145.198 82.1562C145.028 82.1562 144.789 82.1562 144.476 82.1661C143.829 82.1661 142.888 82.1761 141.669 82.181C139.206 82.1909 135.637 82.2009 131.168 82.2158C122.19 82.2306 109.599 82.2505 95.1222 82.2753H94.9978V82.1512C94.9978 77.1535 94.9978 71.8481 94.9978 66.3839V66.2549H95.1322C115.392 66.2747 133.527 66.2896 145.441 66.2995H145.526V66.3839C145.506 71.3518 145.491 75.2974 145.481 78.0121C145.471 79.3521 145.466 80.3894 145.461 81.0991C145.461 81.4415 145.456 81.7046 145.451 81.8882C145.451 82.0669 145.441 82.1512 145.441 82.1512L145.427 82.1364Z" fill="#263238"/>
<path d="M144.103 132.858H40.752C40.0209 132.858 39.4282 133.449 39.4282 134.178V147.652C39.4282 148.382 40.0209 148.973 40.752 148.973H144.103C144.834 148.973 145.427 148.382 145.427 147.652V134.178C145.427 133.449 144.834 132.858 144.103 132.858Z" fill="#E8505B"/>
<g opacity="0.3">
<path d="M144.103 132.858H40.752C40.0209 132.858 39.4282 133.449 39.4282 134.178V147.652C39.4282 148.382 40.0209 148.973 40.752 148.973H144.103C144.834 148.973 145.427 148.382 145.427 147.652V134.178C145.427 133.449 144.834 132.858 144.103 132.858Z" fill="black"/>
</g>
<path d="M144.103 130.615H40.752C40.0209 130.615 39.4282 131.206 39.4282 131.935V145.409C39.4282 146.138 40.0209 146.729 40.752 146.729H144.103C144.834 146.729 145.427 146.138 145.427 145.409V131.935C145.427 131.206 144.834 130.615 144.103 130.615Z" fill="#E7503D"/>
<path d="M46.0769 79.8386C46.49 76.7467 47.1121 72.8359 47.7341 72.96C48.2019 73.0543 48.187 75.3372 48.839 76.171C50.0981 77.784 51.4716 70.94 53.9002 70.4388C56.6723 69.868 58.3793 78.0371 60.2505 75.9427C61.2259 74.8558 61.3454 71.9872 62.1814 72.0418C63.1618 72.1113 63.5102 76.0767 64.3911 75.9427C65.1923 75.8186 65.2819 72.5083 66.1379 72.0418C67.2377 71.4463 67.7553 76.5333 69.2682 77.5457C71.4381 78.9949 72.9062 70.2155 76.1709 68.6025C77.5395 67.9275 79.5252 68.3593 82.2474 73.1883" stroke="#E8505B" stroke-miterlimit="10"/>
<path d="M101.88 74.831C103.622 69.7837 104.632 68.7563 105.245 68.8407C106.588 69.0243 106.504 74.6176 108.126 74.831C109.176 74.97 109.41 72.6473 111.251 71.9575C114.297 70.8061 117.363 75.764 120.623 74.831C121.513 74.5779 122.723 73.7937 123.748 71.2378C125.35 72.0369 126.953 72.8359 128.555 73.6349" stroke="#E8505B" stroke-miterlimit="10"/>
<path d="M46.3606 98.5586C48.4757 93.7049 50.3171 92.613 51.6458 92.5684C54.2835 92.479 55.3136 96.5089 58.6132 96.6429C61.4549 96.7621 62.072 93.8339 65.1028 93.7694C68.4222 93.6999 69.4424 97.1789 72.7917 97.844C74.8421 98.2509 77.9227 97.6306 82.4067 93.0498C82.8645 93.7049 85.2782 97.0201 89.8568 97.844C93.8978 98.5686 96.9884 96.8762 97.7896 96.4047" stroke="#E8505B" stroke-miterlimit="10"/>
<path d="M49.4861 114.857C51.2279 117.329 52.7558 117.899 53.8108 117.974C56.4982 118.162 57.8967 115.259 60.7782 115.338C62.6643 115.388 64.1623 116.693 65.1029 117.736C70.4379 113.904 73.9465 113.79 76.1561 114.381C78.4752 115.001 79.3163 116.381 81.6852 116.778C85.2684 117.378 88.6177 115.105 90.8174 113.185" stroke="#E8505B" stroke-miterlimit="10"/>
<path d="M66.3968 55.649C73.3753 55.649 79.0326 50.0074 79.0326 43.0481C79.0326 36.0888 73.3753 30.4471 66.3968 30.4471C59.4182 30.4471 53.761 36.0888 53.761 43.0481C53.761 50.0074 59.4182 55.649 66.3968 55.649Z" fill="#E8505B" fill-opacity="0.5"/>
<g opacity="0.3">
<path d="M66.3968 55.649C73.3753 55.649 79.0326 50.0074 79.0326 43.0481C79.0326 36.0888 73.3753 30.4471 66.3968 30.4471C59.4182 30.4471 53.761 36.0888 53.761 43.0481C53.761 50.0074 59.4182 55.649 66.3968 55.649Z" fill="black"/>
</g>
<path d="M66.3968 53.3064C73.3753 53.3064 79.0326 47.6648 79.0326 40.7054C79.0326 33.7461 73.3753 28.1045 66.3968 28.1045C59.4182 28.1045 53.761 33.7461 53.761 40.7054C53.761 47.6648 59.4182 53.3064 66.3968 53.3064Z" fill="#E7503D" fill-opacity="0.6"/>
<path d="M66.3967 48.1599C66.0384 48.1599 65.7498 44.8248 65.7498 40.7056C65.7498 36.5863 66.0384 33.2512 66.3967 33.2512C66.755 33.2512 67.0437 36.5863 67.0437 40.7056C67.0437 44.8248 66.755 48.1599 66.3967 48.1599Z" fill="white"/>
<path d="M73.8718 40.7056C73.8718 41.0629 70.5275 41.3508 66.3968 41.3508C62.2662 41.3508 58.9219 41.0629 58.9219 40.7056C58.9219 40.3483 62.2662 40.0604 66.3968 40.0604C70.5275 40.0604 73.8718 40.3483 73.8718 40.7056Z" fill="white"/>
<path d="M158.251 73.9922C157.883 75.8384 157.49 77.6499 157.047 79.4613C156.614 81.2728 156.171 83.0843 155.688 84.8859L154.952 87.5857L154.857 87.9282C154.812 88.077 154.763 88.2259 154.708 88.3798C154.594 88.6875 154.444 89.0101 154.22 89.3376C154.001 89.6652 153.698 90.0076 153.29 90.2806C152.887 90.5536 152.384 90.7273 151.931 90.7719C151.005 90.8464 150.338 90.5684 149.796 90.3004C149.254 90.0176 148.816 89.69 148.412 89.3476C147.611 88.6478 146.979 87.9133 146.387 87.0696L147.77 85.8288C148.447 86.34 149.194 86.8611 149.91 87.2433C150.264 87.4368 150.622 87.6006 150.936 87.685C151.239 87.7842 151.508 87.7693 151.513 87.7197C151.518 87.6999 151.463 87.6999 151.438 87.7048C151.408 87.7048 151.413 87.6899 151.438 87.6205C151.458 87.5559 151.498 87.4467 151.528 87.3177L151.642 86.7718L152.225 84.062L153.394 78.6425C153.772 76.8359 154.18 75.0245 154.574 73.2378L158.256 73.9971L158.251 73.9922Z" fill="#FFC3BD"/>
<path d="M156.589 68.3195C152.344 71.5604 152.513 77.6698 152.513 77.6698L160.108 79.4812C160.108 79.4812 162.437 73.3421 161.491 71.0938C160.506 68.7464 158.978 66.4981 156.589 68.3245V68.3195Z" fill="#F47457"/>
<path d="M148.164 85.923L145.372 83.1388L143.864 87.4963C143.864 87.4963 146.223 88.7668 148.477 87.5707L148.164 85.928V85.923Z" fill="#FFC3BD"/>
<path d="M141.51 82.712L140.997 86.1514L143.869 87.4963L145.372 83.1389L141.51 82.712Z" fill="#FFC3BD"/>
<path d="M181.194 183.549L176.924 183.966L172.479 173.827L176.749 173.415L181.194 183.549Z" fill="#FFC3BD"/>
<path d="M208.705 168.566L205.495 171.569L198.572 163.98L201.777 160.973L208.705 168.566Z" fill="#FFC3BD"/>
<path d="M204.012 170.125L206.421 165.792C206.51 165.633 206.689 165.569 206.854 165.628L210.566 167.038C210.949 167.182 211.119 167.678 210.91 168.035C210.044 169.529 209.551 170.209 208.491 172.115C207.839 173.286 206.57 175.976 205.669 177.594C204.788 179.177 203.116 178.408 203.345 177.654C204.375 174.274 204.181 172.388 203.892 170.899C203.838 170.631 203.887 170.353 204.012 170.125Z" fill="#263238"/>
<path d="M176.356 182.651H181.602C181.791 182.651 181.965 182.785 182.015 182.969L183.155 187.108C183.274 187.535 182.956 187.932 182.513 187.937C180.666 187.952 179.79 187.947 177.481 187.947H170.434C168.518 187.947 168.115 186.016 168.911 185.838C172.465 185.053 174.515 183.972 175.615 182.939C175.814 182.751 176.078 182.651 176.356 182.651Z" fill="#263238"/>
<path opacity="0.2" d="M172.479 173.832L174.769 179.058H179.223L176.754 173.415L172.479 173.832Z" fill="black"/>
<path opacity="0.2" d="M201.782 160.978L198.572 163.98L202.141 167.891L205.351 164.889L201.782 160.978Z" fill="black"/>
<path d="M157.873 67.6943C157.873 67.6943 155.952 68.538 162.392 93.9483C169.489 93.3379 176.824 92.7026 180.278 92.4048C179.347 85.1688 178.949 80.6922 181.139 65.4957C181.139 65.4957 177.322 65.0043 173.455 65.1532C170.434 65.2674 167.956 65.3865 165.333 65.853C161.874 66.4734 157.868 67.6943 157.868 67.6943H157.873Z" fill="#F47457"/>
<path d="M173.455 65.0242C173.455 65.0242 174.47 65.044 175.67 65.044C176.391 66.1508 174.047 70.9996 170.175 74.1709C169.245 71.2775 167.065 69.6745 167.065 69.6745L173.455 65.0242Z" fill="white"/>
<path d="M165.338 65.7885C165.338 65.7885 164.885 65.853 163.805 66.1011C163.084 67.2079 161.864 71.9376 163.99 74.3496C164.816 71.3718 167.07 69.6794 167.07 69.6794L165.338 65.7885Z" fill="white"/>
<path d="M171.862 56.0958C171.574 58.746 171.479 63.5651 173.46 65.1483C173.46 65.1483 171.345 67.3022 167.07 69.6745C163.96 67.5305 165.338 65.848 165.338 65.848C168.195 64.9001 167.931 62.7512 167.249 60.7709L171.867 56.0958H171.862Z" fill="#FFC3BD"/>
<path d="M166.995 69.6896C166.995 69.6896 169.618 66.8409 170.971 67.3868C172.325 67.9327 171.28 68.9104 171.161 69.8236C171.041 70.7417 171.688 73.1835 169.872 72.5483C168.055 71.913 166.995 69.6846 166.995 69.6846V69.6896Z" fill="#E7503D"/>
<path d="M166.891 69.6296C166.891 69.6296 165.652 67.4459 164.313 67.7338C162.974 68.0266 163.77 68.7909 163.89 69.6148C164.044 70.6719 162.924 72.6918 164.542 72.121C166.114 71.5652 166.891 69.6296 166.891 69.6296Z" fill="#E7503D"/>
<g opacity="0.2">
<path d="M166.209 69.1583C166.224 69.7688 166.308 70.1906 166.458 70.4438C166.741 69.9921 166.886 69.6348 166.886 69.6348C166.886 69.6348 166.647 69.208 166.254 68.7563C166.214 68.8556 166.204 68.9896 166.209 69.1583Z" fill="black"/>
<path d="M167.951 68.7711C167.388 69.2625 167 69.6893 167 69.6893C167 69.6893 167.179 70.0615 167.513 70.5479C167.737 70.3593 167.916 70.0168 167.996 69.4213C168.04 69.1136 168.015 68.9101 167.951 68.7711Z" fill="black"/>
</g>
<path d="M166.96 70.5877C166.592 70.5877 166.363 70.1857 166.333 69.2229C166.308 68.2651 167.045 68.7961 167.045 68.7961C167.045 68.7961 168.03 68.2849 167.861 69.4512C167.732 70.3594 167.344 70.5877 166.96 70.5877Z" fill="#E7503D"/>
<path opacity="0.2" d="M169.976 58.0066L167.244 60.7709C167.408 61.2374 167.543 61.7188 167.617 62.1854C168.717 61.9273 170.31 60.7908 170.325 59.6145C170.335 59.0289 170.091 58.2646 169.976 58.0016V58.0066Z" fill="black"/>
<path d="M167.637 47.1425C167.637 47.1425 164.661 51.2668 164.169 53.118C162.138 54.2942 161.725 48.4875 162.805 44.8993C166.139 46.9738 167.637 47.1376 167.637 47.1376V47.1425Z" fill="#263238"/>
<path d="M174.197 51.9566C173.087 56.19 172.709 58.0065 170.106 59.7783C166.189 62.4483 161.217 60.1654 161.033 55.6838C160.869 51.6539 162.71 45.4055 167.254 44.5271C171.728 43.6586 175.306 47.7232 174.197 51.9566Z" fill="#FFC3BD"/>
<path d="M176.506 50.2695C176.506 50.2695 174.371 53.7138 174.087 55.2126C172.539 56.2647 171.887 51.669 172.539 48.7558C173.251 46.1899 176.506 50.2645 176.506 50.2645V50.2695Z" fill="#263238"/>
<path d="M175.655 47.8673C175.038 48.3338 174.386 46.6117 175.003 45.2915C173.823 45.366 172.405 44.6662 172.703 43.5297C170.379 44.3039 169.518 41.9465 169.787 40.3186C170.111 38.3483 171.843 37.9116 172.863 38.4327C172.883 37.5443 175.112 35.6932 175.968 37.1423C177.556 36.5815 180.114 36.7552 180.064 38.7007C181.114 38.7354 184.21 39.9166 183.07 42.6959C184.438 42.7753 185.175 44.5123 184.419 45.8176C186.17 46.84 185.523 48.6217 184.857 49.242C185.489 50.5522 183.568 52.4977 182.552 52.2645C181.776 53.4556 180.587 54.3439 179.805 53.3315C178.292 54.4283 176.6 53.0387 176.983 51.9617C175.271 51.6788 173.54 48.8599 175.66 47.8623L175.655 47.8673Z" fill="#263238"/>
<path d="M178.188 43.7034C179.303 45.5595 179.208 47.6588 177.979 48.3934C176.75 49.1279 174.849 48.2197 173.734 46.3635C172.619 44.5074 172.714 42.408 173.943 41.6735C175.172 40.939 177.073 41.8472 178.188 43.7034Z" fill="#407BFF"/>
<path d="M167.836 46.6265C167.767 47.1576 166.299 47.0236 165.876 46.0856C165.268 46.7208 163.84 47.0484 163.352 46.3585C162.526 47.907 160.874 47.5 160.441 46.7556C160.008 46.0111 159.729 44.6413 160.585 44.3733C160.088 43.9416 160.237 41.9365 161.541 42.1847C162.088 41.1127 163.591 39.8967 164.681 40.8447C165.273 40.3285 167.657 39.3161 168.633 41.2119C169.429 40.5568 170.832 41.0035 171.171 42.006C172.724 41.604 173.39 42.7753 173.385 43.4056C174.485 43.7033 174.56 45.5992 173.868 46.0061C174.127 46.964 173.993 47.9913 172.977 47.907C172.783 49.1924 171.051 49.3959 170.643 48.6911C169.543 49.4256 167.244 48.175 167.831 46.6265H167.836Z" fill="#263238"/>
<path d="M165.219 42.9786C166.478 41.2416 171.071 40.517 175.048 43.1225C178.631 45.47 178.397 50.9194 175.55 50.6315C172.704 50.3436 169.882 47.0085 169.882 47.0085L165.219 42.9786Z" fill="#263238"/>
<path d="M174.55 55.7782C174.132 56.5822 173.38 57.1231 172.664 57.3365C171.589 57.6591 171.027 56.7062 171.305 55.6789C171.559 54.7558 172.42 53.4753 173.51 53.6044C174.585 53.7284 175.023 54.855 174.545 55.7782H174.55Z" fill="#FFC3BD"/>
<path d="M162.392 93.9484C162.392 93.9484 156.34 120.649 160.381 139.469C163.089 152.075 172.848 177.544 172.848 177.544L180.477 177.351C180.477 177.351 173.092 150.625 171.564 140.114C168.951 122.133 175.496 92.8218 175.496 92.8218L162.397 93.9533L162.392 93.9484Z" fill="#466EB6"/>
<path opacity="0.2" d="M169.369 99.3381L173.186 105.338C172.216 111.562 171.25 119.344 171.002 126.833C165.637 117.254 168.175 104.41 169.369 99.3381Z" fill="black"/>
<path d="M171.768 177.936L181.194 177.698L180.646 174.81L171.031 175.261L171.768 177.936Z" fill="#263238"/>
<path d="M166.304 93.6604C166.304 93.6604 169.852 121.974 177.551 137.434C183.767 149.921 200.354 167.693 200.354 167.693L204.594 163.335C204.594 163.335 193.392 144.02 188.768 135.726C177.441 115.388 186.698 99.8691 180.278 92.4048L166.299 93.6654L166.304 93.6604Z" fill="#466EB6"/>
<path d="M199.921 168.278L205.395 162.958L203.579 160.491L197.776 166.273L199.921 168.278Z" fill="#263238"/>
<path d="M180.457 91.333L181.403 92.8616C181.478 92.9807 181.338 93.1196 181.134 93.1345L162.372 94.7524C162.213 94.7673 162.068 94.6979 162.054 94.5986L161.755 93.0154C161.735 92.9062 161.864 92.802 162.044 92.7871L180.159 91.2238C180.293 91.2139 180.413 91.2585 180.462 91.333H180.457Z" fill="#407BFF"/>
<path opacity="0.5" d="M180.457 91.333L181.403 92.8616C181.478 92.9807 181.338 93.1196 181.134 93.1345L162.372 94.7524C162.213 94.7673 162.068 94.6979 162.054 94.5986L161.755 93.0154C161.735 92.9062 161.864 92.802 162.044 92.7871L180.159 91.2238C180.293 91.2139 180.413 91.2585 180.462 91.333H180.457Z" fill="white"/>
<path d="M178.198 93.5612L178.681 93.5215C178.775 93.5116 178.845 93.457 178.835 93.3974L178.427 91.3428C178.417 91.2832 178.327 91.2385 178.228 91.2485L177.745 91.2882C177.651 91.2981 177.581 91.3527 177.591 91.4122L177.999 93.4669C178.009 93.5265 178.098 93.5711 178.198 93.5612Z" fill="#407BFF"/>
<path d="M163.751 94.807L164.233 94.7673C164.328 94.7574 164.398 94.7028 164.388 94.6433L163.98 92.5886C163.97 92.529 163.88 92.4844 163.781 92.4943L163.298 92.534C163.203 92.5439 163.134 92.5985 163.144 92.6581L163.552 94.7127C163.562 94.7723 163.651 94.817 163.751 94.807Z" fill="#407BFF"/>
<path d="M170.972 94.1867L171.454 94.147C171.549 94.1371 171.619 94.0825 171.609 94.0229L171.201 91.9682C171.191 91.9087 171.101 91.864 171.001 91.8739L170.519 91.9136C170.424 91.9236 170.355 91.9782 170.364 92.0377L170.773 94.0924C170.783 94.1519 170.872 94.1966 170.972 94.1867Z" fill="#407BFF"/>
<path d="M181.901 69.5505C182.239 69.8781 182.473 70.1312 182.737 70.429C182.99 70.7168 183.234 71.0096 183.473 71.3025C183.951 71.8931 184.399 72.4985 184.822 73.1189C185.658 74.3696 186.409 75.6798 187.046 77.0446C187.693 78.4045 188.196 79.8387 188.599 81.2979C188.788 82.0324 188.962 82.7669 189.092 83.5163C189.266 84.3005 189.331 85.5759 188.753 86.6529C188.475 87.1939 188.067 87.6405 187.639 87.973C187.211 88.3056 186.768 88.5388 186.34 88.7175C185.479 89.0649 184.658 89.2138 183.866 89.3031C182.284 89.4669 180.791 89.4073 179.323 89.2436C176.391 88.911 173.594 88.2956 170.812 87.442L171.265 85.6404C172.619 85.8638 174.012 86.0722 175.391 86.2162C176.77 86.375 178.148 86.4891 179.507 86.5189C180.86 86.5387 182.214 86.5189 183.438 86.3055C184.045 86.1963 184.623 86.0375 185.061 85.8241C185.509 85.6057 185.738 85.3526 185.792 85.1739C185.827 85.0796 185.852 84.9754 185.852 84.8166C185.852 84.7372 185.842 84.6479 185.832 84.5486C185.812 84.4444 185.802 84.355 185.752 84.1764C185.613 83.5362 185.429 82.9059 185.235 82.2855C184.832 81.0348 184.309 79.8288 183.722 78.6526C183.135 77.4714 182.448 76.3399 181.692 75.2579C181.318 74.712 180.925 74.181 180.517 73.6698C180.313 73.4117 180.104 73.1636 179.89 72.9204C179.691 72.6822 179.447 72.4142 179.283 72.2454L181.901 69.5555V69.5505Z" fill="#FFC3BD"/>
<path d="M172.395 85.9134L168.906 84.0721L168.752 88.6778C168.752 88.6778 171.216 88.8316 172.664 87.7001L172.4 85.9134H172.395Z" fill="#FFC3BD"/>
<path d="M166.284 110.664L169.165 79.4914L163.019 74.7965L144.252 73.0743L140.997 108.341L166.284 110.664Z" fill="#407BFF"/>
<path opacity="0.8" d="M166.284 110.664L169.165 79.4914L163.019 74.7965L144.252 73.0743L140.997 108.341L166.284 110.664Z" fill="white"/>
<path d="M169.165 79.4911L163.019 74.7961L164.631 80.4142L169.165 79.4911Z" fill="black"/>
<g opacity="0.3">
<path d="M143.197 113.79C147.43 113.79 150.861 110.368 150.861 106.147C150.861 101.926 147.43 98.5044 143.197 98.5044C138.964 98.5044 135.533 101.926 135.533 106.147C135.533 110.368 138.964 113.79 143.197 113.79Z" fill="black"/>
<path d="M146.982 110.921C149.63 108.835 150.081 105.002 147.989 102.361C145.897 99.7199 142.053 99.2703 139.405 101.357C136.757 103.444 136.306 107.276 138.398 109.917C140.491 112.558 144.334 113.008 146.982 110.921Z" fill="white"/>
<path d="M146.969 105.611L144.277 105.298L144.59 102.608L142.66 102.38L142.341 105.07L139.644 104.757L139.42 106.683L142.117 107.001L141.799 109.691L143.729 109.914L144.048 107.224L146.745 107.542L146.969 105.611Z" fill="black"/>
</g>
<path opacity="0.4" d="M164.577 85.9531C164.472 87.0995 163.452 87.9432 162.302 87.839L148.616 86.5834C147.467 86.4791 146.621 85.4617 146.725 84.3153C146.83 83.1688 147.85 82.3251 149 82.4294L162.686 83.685C163.835 83.7892 164.681 84.8066 164.577 85.9531Z" fill="black"/>
<path opacity="0.4" d="M159.913 91.5859C159.809 92.7323 158.789 93.576 157.639 93.4718L148.074 92.5934C146.924 92.4891 146.078 91.4717 146.183 90.3253C146.287 89.1789 147.308 88.3351 148.457 88.4394L158.022 89.3178C159.172 89.422 160.018 90.4394 159.913 91.5859Z" fill="black"/>
<path d="M166.781 84.3451L167.304 87.7844L168.752 88.6778L168.906 84.0721L166.781 84.3451Z" fill="#FFC3BD"/>
<path d="M181.139 65.4908C183.334 65.8779 186.404 72.1511 186.404 72.1511L180.875 77.1389C180.875 77.1389 176.481 72.3546 176.715 69.5059C176.914 67.0889 178.347 64.9995 181.139 65.4908Z" fill="#F47457"/>
<path d="M203.171 172.457C203.226 172.457 203.285 172.447 203.34 172.427C203.863 172.249 204.211 171.281 204.365 170.72C204.375 170.685 204.365 170.651 204.336 170.631C204.311 170.611 204.271 170.606 204.241 170.621C204.082 170.705 202.678 171.45 202.633 172.001C202.629 172.085 202.648 172.209 202.783 172.308C202.912 172.403 203.037 172.452 203.166 172.452L203.171 172.457ZM204.141 170.879C203.898 171.653 203.584 172.164 203.285 172.269C203.156 172.313 203.027 172.284 202.892 172.179C202.813 172.12 202.808 172.06 202.813 172.025C202.843 171.688 203.664 171.157 204.141 170.884V170.879Z" fill="#407BFF"/>
<path d="M202.952 171.093C203.449 171.093 204.062 170.934 204.325 170.77C204.35 170.755 204.365 170.725 204.365 170.696C204.365 170.666 204.345 170.636 204.32 170.621C204.276 170.596 203.166 169.986 202.569 170.199C202.414 170.254 202.305 170.358 202.24 170.507C202.146 170.74 202.25 170.874 202.32 170.934C202.454 171.048 202.683 171.093 202.947 171.093H202.952ZM204.091 170.696C203.619 170.899 202.698 171.023 202.434 170.805C202.389 170.77 202.35 170.71 202.404 170.571C202.444 170.467 202.519 170.398 202.628 170.363C203.036 170.219 203.773 170.542 204.091 170.696Z" fill="#407BFF"/>
<path d="M174.027 183.495C174.53 183.495 175.077 183.396 175.461 183.311C175.495 183.301 175.525 183.272 175.53 183.237C175.53 183.202 175.515 183.162 175.48 183.148C175.266 183.048 173.36 182.17 172.883 182.492C172.823 182.532 172.748 182.612 172.758 182.76C172.768 182.964 172.858 183.128 173.017 183.252C173.256 183.43 173.629 183.495 174.027 183.495ZM175.162 183.197C174.595 183.301 173.554 183.44 173.122 183.118C173.002 183.028 172.942 182.909 172.932 182.755C172.932 182.686 172.957 182.656 172.982 182.641C173.251 182.458 174.376 182.855 175.167 183.197H175.162Z" fill="#407BFF"/>
<path d="M175.441 183.316C175.441 183.316 175.48 183.311 175.495 183.296C175.52 183.277 175.53 183.242 175.525 183.212C175.505 183.133 175.077 181.262 174.042 181.381C173.783 181.41 173.714 181.54 173.699 181.644C173.634 182.12 174.833 183.083 175.406 183.316C175.416 183.316 175.426 183.321 175.441 183.321V183.316ZM174.137 181.544C174.799 181.544 175.182 182.631 175.306 183.068C174.684 182.746 173.828 181.966 173.868 181.659C173.868 181.634 173.878 181.569 174.062 181.544C174.087 181.544 174.112 181.544 174.137 181.544Z" fill="#407BFF"/>
</svg>
