<svg width="32" height="36" viewBox="0 0 32 36" fill="none" xmlns="http://www.w3.org/2000/svg">
<path d="M12.5603 30.24C12.7513 30.24 12.9344 30.3159 13.0694 30.4509C13.2045 30.5859 13.2803 30.769 13.2803 30.96C13.2803 31.151 13.2045 31.3341 13.0694 31.4691C12.9344 31.6041 12.7513 31.68 12.5603 31.68H9.68031C9.48936 31.68 9.30622 31.6041 9.1712 31.4691C9.03617 31.3341 8.96031 31.151 8.96031 30.96C8.96031 30.769 9.03617 30.5859 9.1712 30.4509C9.30622 30.3159 9.48936 30.24 9.68031 30.24H12.5603ZM32.0003 9.36V20.88C32.0003 21.4529 31.7727 22.0023 31.3677 22.4074C30.9626 22.8124 30.4132 23.04 29.8403 23.04H21.9203V33.84C21.9203 34.4129 21.6927 34.9623 21.2877 35.3674C20.8826 35.7724 20.3332 36 19.7603 36H2.48031C1.90744 36 1.35804 35.7724 0.952962 35.3674C0.547883 34.9623 0.320313 34.4129 0.320312 33.84V2.16C0.320312 1.58713 0.547883 1.03773 0.952962 0.632649C1.35804 0.227571 1.90744 0 2.48031 0L19.7603 0C20.3332 0 20.8826 0.227571 21.2877 0.632649C21.6927 1.03773 21.9203 1.58713 21.9203 2.16V7.2H29.8403C30.4132 7.2 30.9626 7.42757 31.3677 7.83265C31.7727 8.23773 32.0003 8.78713 32.0003 9.36ZM20.4803 23.04H12.5603C11.9874 23.04 11.438 22.8124 11.033 22.4074C10.6279 22.0023 10.4003 21.4529 10.4003 20.88V9.36C10.4003 8.78713 10.6279 8.23773 11.033 7.83265C11.438 7.42757 11.9874 7.2 12.5603 7.2H20.4803V2.16C20.4801 1.96911 20.4042 1.78611 20.2692 1.65114C20.1342 1.51616 19.9512 1.44023 19.7603 1.44H2.48031C2.28943 1.44023 2.10643 1.51616 1.97145 1.65114C1.83647 1.78611 1.76054 1.96911 1.76031 2.16V33.84C1.76054 34.0309 1.83647 34.2139 1.97145 34.3489C2.10643 34.4838 2.28943 34.5598 2.48031 34.56H19.7603C19.9512 34.5598 20.1342 34.4838 20.2692 34.3489C20.4042 34.2139 20.4801 34.0309 20.4803 33.84V23.04ZM30.5603 9.36C30.5601 9.16912 30.4842 8.98611 30.3492 8.85114C30.2142 8.71616 30.0312 8.64023 29.8403 8.64H12.5603C12.3694 8.64023 12.1864 8.71616 12.0514 8.85114C11.9165 8.98611 11.8405 9.16912 11.8403 9.36V20.88C11.8405 21.0709 11.9165 21.2539 12.0514 21.3889C12.1864 21.5238 12.3694 21.5998 12.5603 21.6H29.8403C30.0312 21.5998 30.2142 21.5238 30.3492 21.3889C30.4842 21.2539 30.5601 21.0709 30.5603 20.88V9.36Z" fill="#E7503D"/>
</svg>
