<svg width="40" height="30" viewBox="0 0 40 30" fill="none" xmlns="http://www.w3.org/2000/svg">
<path d="M37.6 0.320312H2.4C1.76348 0.320312 1.15303 0.547883 0.702944 0.952962C0.252856 1.35804 0 1.90744 0 2.48031L0 26.9603C0 27.5332 0.252856 28.0826 0.702944 28.4877C1.15303 28.8927 1.76348 29.1203 2.4 29.1203H37.6C38.2365 29.1203 38.847 28.8927 39.2971 28.4877C39.7471 28.0826 40 27.5332 40 26.9603V2.48031C40 1.90744 39.7471 1.35804 39.2971 0.952962C38.847 0.547883 38.2365 0.320313 37.6 0.320312ZM38.4 26.9603C38.4 27.1513 38.3157 27.3344 38.1657 27.4694C38.0157 27.6045 37.8122 27.6803 37.6 27.6803H2.4C2.18783 27.6803 1.98434 27.6045 1.83431 27.4694C1.68429 27.3344 1.6 27.1513 1.6 26.9603V2.48031C1.6 2.28936 1.68429 2.10622 1.83431 1.9712C1.98434 1.83617 2.18783 1.76031 2.4 1.76031H37.6C37.8122 1.76031 38.0157 1.83617 38.1657 1.9712C38.3157 2.10622 38.4 2.28936 38.4 2.48031V26.9603ZM24 22.6403C24 22.8313 23.9157 23.0144 23.7657 23.1494C23.6157 23.2845 23.4122 23.3603 23.2 23.3603H5.6C5.38783 23.3603 5.18434 23.2845 5.03431 23.1494C4.88429 23.0144 4.8 22.8313 4.8 22.6403C4.8 22.4494 4.88429 22.2662 5.03431 22.1312C5.18434 21.9962 5.38783 21.9203 5.6 21.9203H23.2C23.4122 21.9203 23.6157 21.9962 23.7657 22.1312C23.9157 22.2662 24 22.4494 24 22.6403ZM7.2 11.8403H12C12.6365 11.8403 13.247 11.6127 13.6971 11.2077C14.1471 10.8026 14.4 10.2532 14.4 9.68031V6.80031C14.4 6.22744 14.1471 5.67804 13.6971 5.27296C13.247 4.86788 12.6365 4.64031 12 4.64031H7.2C6.56348 4.64031 5.95303 4.86788 5.50294 5.27296C5.05286 5.67804 4.8 6.22744 4.8 6.80031V9.68031C4.8 10.2532 5.05286 10.8026 5.50294 11.2077C5.95303 11.6127 6.56348 11.8403 7.2 11.8403ZM6.4 6.80031C6.4 6.60936 6.48429 6.42622 6.63432 6.2912C6.78434 6.15617 6.98783 6.08031 7.2 6.08031H12C12.2122 6.08031 12.4157 6.15617 12.5657 6.2912C12.7157 6.42622 12.8 6.60936 12.8 6.80031V9.68031C12.8 9.87127 12.7157 10.0544 12.5657 10.1894C12.4157 10.3245 12.2122 10.4003 12 10.4003H7.2C6.98783 10.4003 6.78434 10.3245 6.63432 10.1894C6.48429 10.0544 6.4 9.87127 6.4 9.68031V6.80031ZM35.2 22.6403C35.2 22.8313 35.1157 23.0144 34.9657 23.1494C34.8157 23.2845 34.6122 23.3603 34.4 23.3603H28C27.7878 23.3603 27.5843 23.2845 27.4343 23.1494C27.2843 23.0144 27.2 22.8313 27.2 22.6403C27.2 22.4494 27.2843 22.2662 27.4343 22.1312C27.5843 21.9962 27.7878 21.9203 28 21.9203H34.4C34.6122 21.9203 34.8157 21.9962 34.9657 22.1312C35.1157 22.2662 35.2 22.4494 35.2 22.6403Z" fill="#E7503D"/>
</svg>
