<svg width="45" height="36" viewBox="0 0 45 36" fill="none" xmlns="http://www.w3.org/2000/svg">
<path d="M39.2304 17.4931C39.363 17.7056 39.4066 17.9626 39.3516 18.2076C39.2967 18.4526 39.1478 18.6655 38.9375 18.7995C38.7272 18.9335 38.4729 18.9775 38.2305 18.922C37.9881 18.8665 37.7774 18.716 37.6447 18.5036C36.0338 15.9152 33.7996 13.7821 31.151 12.3036C28.5025 10.8251 25.5261 10.0495 22.5002 10.0495C19.4744 10.0495 16.498 10.8251 13.8495 12.3036C11.2009 13.7821 8.96666 15.9152 7.35576 18.5036C7.22051 18.7101 7.01064 18.8548 6.77106 18.9069C6.53149 18.959 6.28128 18.9142 6.07399 18.7821C5.8667 18.65 5.71883 18.4412 5.66203 18.2003C5.60522 17.9594 5.64401 17.7056 5.77009 17.4933C7.54977 14.6341 10.018 12.2777 12.9438 10.6445C15.8697 9.01135 19.1577 8.1547 22.5002 8.1547C25.8428 8.1547 29.1308 9.01135 32.0567 10.6445C34.9825 12.2777 37.4507 14.6341 39.2304 17.4933V17.4931ZM22.9687 17.0528C20.8511 17.0603 18.769 17.6035 16.9124 18.6328C15.0558 19.6621 13.4838 21.1447 12.3396 22.9454C12.2037 23.1559 12.156 23.4124 12.2072 23.6584C12.2583 23.9044 12.4041 24.1199 12.6124 24.2573C12.8208 24.3947 13.0746 24.4428 13.3181 24.3911C13.5615 24.3394 13.7747 24.1921 13.9107 23.9816C14.8784 22.439 16.2162 21.1686 17.7998 20.2883C19.3834 19.4081 21.1614 18.9465 22.9688 18.9465C24.7762 18.9465 26.5542 19.4081 28.1378 20.2883C29.7214 21.1686 31.0592 22.439 32.0269 23.9816C32.0942 24.0858 32.1812 24.1757 32.2829 24.2459C32.3846 24.3162 32.499 24.3655 32.6195 24.3911C32.7401 24.4167 32.8644 24.4181 32.9855 24.3951C33.1066 24.3722 33.222 24.3253 33.3252 24.2573C33.4283 24.1892 33.5172 24.1013 33.5867 23.9986C33.6563 23.8958 33.7051 23.7802 33.7304 23.6584C33.7558 23.5366 33.7571 23.4109 33.7344 23.2886C33.7116 23.1662 33.6653 23.0496 33.598 22.9454C32.4538 21.1446 30.8817 19.662 29.0251 18.6327C27.1685 17.6035 25.0864 17.0603 22.9687 17.0528ZM44.8497 12.4232C42.462 8.61719 39.1612 5.48266 35.2539 3.31075C31.3465 1.13884 26.9594 0 22.5 0C18.0405 0 13.6534 1.13884 9.74606 3.31075C5.83873 5.48266 2.53792 8.61719 0.150212 12.4232C0.0152021 12.6343 -0.0313109 12.8909 0.0209056 13.1366C0.0731222 13.3823 0.219791 13.597 0.428647 13.7334C0.637502 13.8698 0.891437 13.9169 1.13459 13.8641C1.37774 13.8113 1.59018 13.6631 1.72519 13.4521C3.94286 9.91187 7.01044 6.99591 10.6427 4.97533C14.2749 2.95476 18.3538 1.8952 22.5 1.8952C26.6462 1.8952 30.7251 2.95476 34.3573 4.97533C37.9895 6.99591 41.0571 9.91187 43.2747 13.4521C43.3598 13.5849 43.4764 13.6942 43.6139 13.7698C43.7515 13.8454 43.9056 13.885 44.0622 13.885C44.2429 13.8857 44.4199 13.833 44.5713 13.7334C44.6747 13.6659 44.764 13.5784 44.8339 13.476C44.9039 13.3736 44.9532 13.2583 44.9791 13.1366C45.005 13.0149 45.0068 12.8893 44.9846 12.7669C44.9624 12.6445 44.9166 12.5277 44.8497 12.4232ZM27.1874 31.2632C27.1874 32.2001 26.9125 33.1159 26.3974 33.8948C25.8824 34.6738 25.1503 35.2809 24.2938 35.6394C23.4373 35.998 22.4948 36.0918 21.5855 35.909C20.6762 35.7262 19.841 35.2751 19.1854 34.6126C18.5299 33.9502 18.0834 33.1062 17.9026 32.1873C17.7217 31.2684 17.8145 30.316 18.1693 29.4505C18.5241 28.585 19.1249 27.8452 19.8958 27.3247C20.6666 26.8042 21.5729 26.5264 22.5 26.5264C23.7432 26.5264 24.9354 27.0254 25.8145 27.9138C26.6936 28.8021 27.1874 30.0069 27.1874 31.2632ZM25.3124 31.2632C25.3124 30.7011 25.1475 30.1516 24.8384 29.6842C24.5294 29.2168 24.0902 28.8526 23.5762 28.6375C23.0623 28.4223 22.4968 28.3661 21.9513 28.4757C21.4057 28.5854 20.9046 28.8561 20.5112 29.2535C20.1179 29.651 19.8501 30.1574 19.7415 30.7087C19.633 31.26 19.6887 31.8315 19.9016 32.3508C20.1145 32.8701 20.4749 33.314 20.9374 33.6263C21.3999 33.9386 21.9437 34.1053 22.5 34.1053C23.2456 34.1044 23.9605 33.8047 24.4877 33.2719C25.015 32.7391 25.3116 32.0167 25.3124 31.2632Z" fill="#E7503D"/>
</svg>
