<svg width="24" height="24" viewBox="0 0 24 24" fill="none" xmlns="http://www.w3.org/2000/svg">
<path d="M9.5 19C9.22386 19 9 19.2239 9 19.5C9 19.7761 9.22386 20 9.5 20V19ZM14.5 20C14.7761 20 15 19.7761 15 19.5C15 19.2239 14.7761 19 14.5 19V20ZM10.5 21.5C10.2239 21.5 10 21.7239 10 22C10 22.2761 10.2239 22.5 10.5 22.5V21.5ZM13.5 22.5C13.7761 22.5 14 22.2761 14 22C14 21.7239 13.7761 21.5 13.5 21.5V22.5ZM6.89564 13.7902L6.53112 14.1324L6.89564 13.7902ZM17.1044 13.7902L16.7398 13.448L17.1044 13.7902ZM9.5 20H14.5V19H9.5V20ZM10.5 22.5H13.5V21.5H10.5V22.5ZM18.5 9C18.5 10.721 17.8318 12.2848 16.7398 13.448L17.4689 14.1324C18.728 12.7912 19.5 10.9852 19.5 9H18.5ZM12 2.5C15.5899 2.5 18.5 5.41015 18.5 9H19.5C19.5 4.85786 16.1421 1.5 12 1.5V2.5ZM5.5 9C5.5 5.41015 8.41015 2.5 12 2.5V1.5C7.85786 1.5 4.5 4.85786 4.5 9H5.5ZM7.26017 13.448C6.16815 12.2848 5.5 10.721 5.5 9H4.5C4.5 10.9852 5.27196 12.7912 6.53112 14.1324L7.26017 13.448ZM14.9468 16.5H9.05315V17.5H14.9468V16.5ZM8.5 16.9468C8.5 17.2523 8.74765 17.5 9.05315 17.5V16.5C9.29995 16.5 9.5 16.7001 9.5 16.9468H8.5ZM6.53112 14.1324C6.82064 14.4408 7.10342 14.6966 7.35063 14.9209C7.60357 15.1504 7.8104 15.3393 7.9829 15.5358C8.30139 15.8985 8.5 16.2816 8.5 16.9468H9.5C9.5 16.0116 9.19418 15.3997 8.73437 14.876C8.51771 14.6292 8.26692 14.402 8.02259 14.1803C7.77254 13.9534 7.51839 13.723 7.26017 13.448L6.53112 14.1324ZM14.9468 17.5C15.2523 17.5 15.5 17.2523 15.5 16.9468H14.5C14.5 16.7001 14.7001 16.5 14.9468 16.5V17.5ZM16.7398 13.448C16.4816 13.723 16.2275 13.9534 15.9774 14.1803C15.7331 14.402 15.4823 14.6292 15.2656 14.876C14.8058 15.3997 14.5 16.0116 14.5 16.9468H15.5C15.5 16.2816 15.6986 15.8985 16.0171 15.5358C16.1896 15.3393 16.3964 15.1504 16.6494 14.9209C16.8966 14.6966 17.1794 14.4408 17.4689 14.1324L16.7398 13.448Z" fill="#212121"/>
<path d="M13 5.75C13.4142 5.75 13.75 5.41421 13.75 5C13.75 4.58579 13.4142 4.25 13 4.25V5.75ZM7.25 10C7.25 10.4142 7.58579 10.75 8 10.75C8.41421 10.75 8.75 10.4142 8.75 10H7.25ZM8.75 10C8.75 7.65279 10.6528 5.75 13 5.75V4.25C9.82436 4.25 7.25 6.82436 7.25 10H8.75Z" fill="#E7503D"/>
</svg>
