<svg width="15" height="15" viewBox="0 0 15 15" fill="none" xmlns="http://www.w3.org/2000/svg">
<path d="M14.4 1.2H11.4V0.3C11.4 0.220435 11.3684 0.144129 11.3121 0.087868C11.2559 0.0316071 11.1796 0 11.1 0C11.0204 0 10.9441 0.0316071 10.8879 0.087868C10.8316 0.144129 10.8 0.220435 10.8 0.3V1.2H4.2V0.3C4.2 0.220435 4.16839 0.144129 4.11213 0.087868C4.05587 0.0316071 3.97957 0 3.9 0C3.82044 0 3.74413 0.0316071 3.68787 0.087868C3.63161 0.144129 3.6 0.220435 3.6 0.3V1.2H0.6C0.44087 1.2 0.288258 1.26321 0.175736 1.37574C0.0632141 1.48826 0 1.64087 0 1.8L0 13.8C0 13.9591 0.0632141 14.1117 0.175736 14.2243C0.288258 14.3368 0.44087 14.4 0.6 14.4H14.4C14.5591 14.4 14.7117 14.3368 14.8243 14.2243C14.9368 14.1117 15 13.9591 15 13.8V1.8C15 1.64087 14.9368 1.48826 14.8243 1.37574C14.7117 1.26321 14.5591 1.2 14.4 1.2ZM14.4 13.8H0.6V4.8H14.4V13.8ZM14.4 4.2H0.6V1.8H14.4V4.2Z" fill="#E7503D" stroke="#E7503D" stroke-width="0.5"/>
</svg>
