<svg width="35" height="36" viewBox="0 0 35 36" fill="none" xmlns="http://www.w3.org/2000/svg">
<path d="M17.28 10.08C18.1344 10.08 18.9697 9.82664 19.6801 9.35195C20.3905 8.87726 20.9442 8.20257 21.2712 7.41319C21.5982 6.62382 21.6837 5.75521 21.517 4.91721C21.3503 4.07921 20.9389 3.30946 20.3347 2.7053C19.7306 2.10114 18.9608 1.6897 18.1228 1.52301C17.2848 1.35632 16.4162 1.44187 15.6268 1.76884C14.8375 2.09581 14.1628 2.64952 13.6881 3.35994C13.2134 4.07036 12.96 4.90559 12.96 5.76C12.96 6.90574 13.4152 8.00455 14.2253 8.8147C15.0355 9.62486 16.1343 10.08 17.28 10.08V10.08ZM17.28 2.88C17.8496 2.88 18.4065 3.04891 18.8801 3.36537C19.3537 3.68183 19.7228 4.13162 19.9408 4.65787C20.1588 5.18413 20.2158 5.7632 20.1047 6.32186C19.9936 6.88053 19.7193 7.39369 19.3165 7.79647C18.9137 8.19925 18.4006 8.47354 17.8419 8.58466C17.2832 8.69579 16.7042 8.63876 16.1779 8.42078C15.6517 8.2028 15.2019 7.83366 14.8854 7.36004C14.5689 6.88643 14.4 6.32961 14.4 5.76C14.4009 4.99645 14.7046 4.26442 15.2445 3.7245C15.7844 3.18459 16.5165 2.88088 17.28 2.88V2.88ZM27.36 8.64C28.2144 8.64 29.0497 8.38664 29.7601 7.91195C30.4705 7.43726 31.0242 6.76257 31.3512 5.97319C31.6782 5.18382 31.7637 4.31521 31.597 3.47721C31.4303 2.63921 31.0189 1.86946 30.4147 1.2653C29.8106 0.661138 29.0408 0.249698 28.2028 0.0830095C27.3648 -0.0836786 26.4962 0.0018718 25.7068 0.328842C24.9175 0.655813 24.2428 1.20952 23.7681 1.91994C23.2934 2.63036 23.04 3.46559 23.04 4.32C23.04 5.46574 23.4952 6.56455 24.3053 7.3747C25.1155 8.18486 26.2143 8.64 27.36 8.64ZM27.36 1.44C27.9296 1.44 28.4865 1.60891 28.9601 1.92537C29.4337 2.24183 29.8028 2.69162 30.0208 3.21787C30.2388 3.74413 30.2958 4.3232 30.1847 4.88186C30.0736 5.44053 29.7993 5.95369 29.3965 6.35647C28.9937 6.75925 28.4806 7.03354 27.9219 7.14466C27.3632 7.25579 26.7842 7.19876 26.2579 6.98078C25.7316 6.7628 25.2819 6.39366 24.9654 5.92004C24.6489 5.44643 24.48 4.88961 24.48 4.32C24.4809 3.55645 24.7846 2.82442 25.3245 2.2845C25.8644 1.74459 26.5965 1.44088 27.36 1.44V1.44ZM7.20003 8.64C8.05444 8.64 8.88967 8.38664 9.60009 7.91195C10.3105 7.43726 10.8642 6.76257 11.1912 5.97319C11.5182 5.18382 11.6037 4.31521 11.437 3.47721C11.2703 2.63921 10.8589 1.86946 10.2547 1.2653C9.65057 0.661138 8.88082 0.249698 8.04282 0.0830095C7.20482 -0.0836786 6.33621 0.0018718 5.54684 0.328842C4.75746 0.655813 4.08277 1.20952 3.60808 1.91994C3.13339 2.63036 2.88003 3.46559 2.88003 4.32C2.88003 5.46574 3.33517 6.56455 4.14533 7.3747C4.95549 8.18486 6.05429 8.64 7.20003 8.64ZM7.20003 1.44C7.76964 1.44 8.32646 1.60891 8.80007 1.92537C9.27368 2.24183 9.64282 2.69162 9.8608 3.21787C10.0788 3.74413 10.1358 4.3232 10.0247 4.88186C9.91357 5.44053 9.63927 5.95369 9.2365 6.35647C8.83372 6.75925 8.32055 7.03354 7.76189 7.14466C7.20322 7.25579 6.62415 7.19876 6.0979 6.98078C5.57165 6.7628 5.12185 6.39366 4.8054 5.92004C4.48894 5.44643 4.32003 4.88961 4.32003 4.32C4.32091 3.55645 4.62461 2.82442 5.16453 2.2845C5.70444 1.74459 6.43647 1.44088 7.20003 1.44V1.44ZM27.36 10.08C26.2394 10.082 25.1349 10.3468 24.1351 10.8531C23.1354 11.3594 22.2683 12.093 21.6035 12.9951L21.6051 12.9966C20.3664 12.0391 18.8451 11.5197 17.2795 11.5197C15.714 11.5197 14.1926 12.0391 12.954 12.9966L12.9564 12.9944C12.0575 11.777 10.7969 10.8748 9.35462 10.4165C7.91235 9.95826 6.36217 9.9674 4.92541 10.4426C3.48864 10.9179 2.23877 11.8349 1.35423 13.0628C0.469702 14.2907 -0.00425775 15.7667 2.88219e-05 17.28V20.88C2.88219e-05 21.4529 0.2276 22.0023 0.632678 22.4074C1.03776 22.8124 1.58716 23.04 2.16003 23.04H2.88003V29.52C2.88003 30.0929 3.1076 30.6423 3.51268 31.0474C3.91776 31.4524 4.46716 31.68 5.04003 31.68H9.36003C9.9329 31.68 10.4823 31.4524 10.8874 31.0474C11.2925 30.6423 11.52 30.0929 11.52 29.52V25.7878C11.7506 25.8729 11.9942 25.9177 12.24 25.92H12.96V33.84C12.96 34.4129 13.1876 34.9623 13.5927 35.3674C13.9978 35.7724 14.5472 36 15.12 36H19.44C20.0129 36 20.5623 35.7724 20.9674 35.3674C21.3725 34.9623 21.6 34.4129 21.6 33.84V25.92H22.32C22.5658 25.9177 22.8094 25.8729 23.04 25.7878V29.52C23.04 30.0929 23.2676 30.6423 23.6727 31.0474C24.0778 31.4524 24.6272 31.68 25.2 31.68H29.52C30.0929 31.68 30.6423 31.4524 31.0474 31.0474C31.4525 30.6423 31.68 30.0929 31.68 29.52V23.04H32.4C32.9729 23.04 33.5223 22.8124 33.9274 22.4074C34.3325 22.0023 34.56 21.4529 34.56 20.88V17.28C34.56 16.3345 34.3738 15.3982 34.012 14.5247C33.6501 13.6511 33.1198 12.8574 32.4512 12.1888C31.7826 11.5203 30.9889 10.9899 30.1154 10.6281C29.2418 10.2662 28.3055 10.08 27.36 10.08V10.08ZM10.08 18.72V29.52C10.0798 29.7109 10.0038 29.8939 9.86885 30.0288C9.73388 30.1638 9.5509 30.2397 9.36003 30.24H5.04003C4.84916 30.2397 4.66617 30.1638 4.53121 30.0288C4.39624 29.8939 4.3203 29.7109 4.32003 29.52V23.04C4.32003 22.6581 4.16832 22.2918 3.89826 22.0218C3.62821 21.7517 3.26194 21.6 2.88003 21.6H2.16003C1.96915 21.5997 1.78617 21.5238 1.65121 21.3888C1.51624 21.2539 1.4403 21.0709 1.44003 20.88V17.28C1.43803 16.0559 1.82668 14.8632 2.54942 13.8752C3.27217 12.8873 4.29129 12.1558 5.45852 11.7871C6.62575 11.4184 7.88018 11.4317 9.03928 11.8252C10.1984 12.2187 11.2017 12.9718 11.9032 13.9749C10.7342 15.2795 10.0853 16.9682 10.08 18.72ZM23.04 23.76C23.0398 23.9509 22.9639 24.1339 22.8289 24.2689C22.6939 24.4038 22.5109 24.4798 22.32 24.48H21.6C21.2181 24.48 20.8518 24.6317 20.5818 24.9018C20.3117 25.1718 20.16 25.5381 20.16 25.92V33.84C20.1598 34.0309 20.0839 34.2139 19.9489 34.3489C19.8139 34.4838 19.6309 34.5598 19.44 34.56H15.12C14.9291 34.5598 14.7461 34.4838 14.6112 34.3489C14.4762 34.2139 14.4003 34.0309 14.4 33.84V25.92C14.4 25.5381 14.2483 25.1718 13.9783 24.9018C13.7082 24.6317 13.3419 24.48 12.96 24.48H12.24C12.0491 24.4798 11.8661 24.4038 11.7312 24.2689C11.5962 24.1339 11.5203 23.9509 11.52 23.76V18.72C11.52 17.1924 12.1269 15.7273 13.2071 14.6471C14.2873 13.5669 15.7524 12.96 17.28 12.96C18.8077 12.96 20.2728 13.5669 21.353 14.6471C22.4332 15.7273 23.04 17.1924 23.04 18.72V23.76ZM33.12 20.88C33.1198 21.0709 33.0438 21.2539 32.9089 21.3888C32.7739 21.5238 32.5909 21.5997 32.4 21.6H31.68C31.2981 21.6 30.9318 21.7517 30.6618 22.0218C30.3917 22.2918 30.24 22.6581 30.24 23.04V29.52C30.2398 29.7109 30.1638 29.8939 30.0289 30.0288C29.8939 30.1638 29.7109 30.2397 29.52 30.24H25.2C25.0092 30.2397 24.8262 30.1638 24.6912 30.0288C24.5562 29.8939 24.4803 29.7109 24.48 29.52V18.72C24.4748 16.9682 23.8259 15.2795 22.6568 13.9749C23.3584 12.9718 24.3617 12.2187 25.5208 11.8252C26.6799 11.4317 27.9343 11.4184 29.1015 11.7871C30.2688 12.1558 31.2879 12.8873 32.0106 13.8752C32.7334 14.8632 33.122 16.0559 33.12 17.28V20.88Z" fill="#E7503D"/>
</svg>
