<svg width="24" height="28" viewBox="0 0 24 28" fill="none" xmlns="http://www.w3.org/2000/svg">
<path d="M22.7368 27.2826H23.2368V26.7826V1.21739V0.717391H22.7368H1.26316H0.763158V1.21739V26.7826V27.2826H1.26316H22.7368ZM12 7.92029L11.9995 7.92029C11.3705 7.92098 10.764 8.1619 10.3139 8.59573C9.86312 9.03016 9.60599 9.62317 9.60526 10.2458V10.2464C9.60526 10.7106 9.7482 11.1629 10.0137 11.5458C10.279 11.9285 10.6541 12.224 11.0895 12.3978C11.5248 12.5716 12.0028 12.6168 12.4638 12.5284C12.9248 12.4401 13.3507 12.2215 13.6868 11.8976C14.023 11.5736 14.2541 11.1585 14.348 10.7037C14.4419 10.2488 14.3935 9.77744 14.2099 9.35013C14.0263 8.92306 13.7168 8.56103 13.3234 8.30766C12.9301 8.05442 12.4696 7.92029 12 7.92029ZM16.3761 19.8768H16.9574L16.8705 19.302C16.6985 18.1649 16.1085 17.1293 15.2134 16.3823C14.3187 15.6356 13.1783 15.2261 12.0006 15.2246L11.9994 15.2246C10.8217 15.2261 9.68127 15.6356 8.7866 16.3822C7.8915 17.1293 7.30148 18.1649 7.12953 19.3021L7.04263 19.8768H7.62392H16.3761ZM1.26316 0.5H22.7368C22.9451 0.5 23.1412 0.579897 23.2831 0.716581C23.4243 0.85266 23.5 1.03321 23.5 1.21739V26.7826C23.5 26.9668 23.4243 27.1473 23.2831 27.2834C23.1412 27.4201 22.9451 27.5 22.7368 27.5H1.26316C1.05492 27.5 0.858763 27.4201 0.716942 27.2834C0.575747 27.1473 0.5 26.9668 0.5 26.7826V1.21739C0.5 1.03321 0.575746 0.85266 0.716942 0.716581C0.858764 0.579897 1.05492 0.5 1.26316 0.5ZM13.4837 12.3566C13.0461 12.6384 12.5297 12.7899 12 12.7899C11.2893 12.7899 10.6112 12.5176 10.114 12.0384C9.61747 11.5599 9.3421 10.9149 9.3421 10.2464C9.3421 9.74752 9.4955 9.25827 9.78521 8.84039C10.0751 8.42227 10.4891 8.09367 10.9769 7.89893C11.4649 7.70414 12.0028 7.65291 12.5219 7.75244C13.041 7.85195 13.5154 8.09715 13.886 8.45433C14.2564 8.81131 14.5064 9.26387 14.6075 9.75369C14.7086 10.2434 14.6569 10.7511 14.4581 11.2136C14.2593 11.6764 13.9212 12.0749 13.4837 12.3566ZM15.6724 16.4718C16.6399 17.4043 17.1811 18.6641 17.1842 19.9744C17.1823 20.0143 17.1799 20.0543 17.177 20.0942H6.82298C6.82008 20.0543 6.81768 20.0143 6.8158 19.9743C6.81886 18.6641 7.36007 17.4043 8.32763 16.4718C9.29856 15.5361 10.6192 15.0072 12 15.0072C13.3808 15.0072 14.7014 15.5361 15.6724 16.4718Z" fill="#E7503D" stroke="#E7503D"/>
</svg>
