<svg width="27" height="27" viewBox="0 0 27 27" fill="none" xmlns="http://www.w3.org/2000/svg">
<path d="M24.5 1.00195H6.5C6.10218 1.00195 5.72064 1.15999 5.43934 1.44129C5.15804 1.7226 5 2.10413 5 2.50195V4.99995H2.5C2.10218 4.99995 1.72064 5.15799 1.43934 5.43929C1.15804 5.7206 1 6.10213 1 6.49995L1 20.498C1 20.8958 1.15804 21.2773 1.43934 21.5586C1.72064 21.8399 2.10218 21.998 2.5 21.998H5V25C4.99985 25.1318 5.02575 25.2623 5.07621 25.3841C5.12666 25.5059 5.20068 25.6165 5.294 25.7096C5.38733 25.8028 5.49813 25.8765 5.62004 25.9267C5.74195 25.9768 5.87257 26.0024 6.0044 26.002C6.21967 26.0015 6.42887 25.9306 6.6 25.8L11.6664 21.9975L20.983 22L20.9956 22.0022C21.1246 22.0019 21.2524 21.9769 21.372 21.9285C21.3869 21.9199 21.4013 21.9106 21.4152 21.9007C21.5896 21.8235 21.7378 21.6973 21.8417 21.5374C21.9455 21.3774 22.0005 21.1907 22 21V18H24.5C24.8978 18 25.2794 17.8419 25.5607 17.5606C25.842 17.2793 26 16.8978 26 16.5V2.50195C26 2.10413 25.842 1.7226 25.5607 1.44129C25.2794 1.15999 24.8978 1.00195 24.5 1.00195ZM11.3306 21L6 25V21L2.5 20.998C2.36739 20.998 2.24021 20.9453 2.14645 20.8515C2.05268 20.7577 2 20.6306 2 20.498V6.49995C2.00019 6.3674 2.05292 6.24033 2.14665 6.1466C2.24038 6.05288 2.36745 6.00014 2.5 5.99995H5V16.5C5 16.8978 5.15804 17.2793 5.43934 17.5606C5.72064 17.8419 6.10218 18 6.5 18H15.3335L19.3335 21H11.3306ZM25 16.5C25 16.6326 24.9473 16.7597 24.8536 16.8535C24.7598 16.9473 24.6326 17 24.5 17H21V21L15.667 17H6.5C6.36739 17 6.24021 16.9473 6.14645 16.8535C6.05268 16.7597 6 16.6326 6 16.5V2.50195C6 2.36934 6.05268 2.24217 6.14645 2.1484C6.24021 2.05463 6.36739 2.00195 6.5 2.00195H24.5C24.6326 2.00195 24.7598 2.05463 24.8536 2.1484C24.9473 2.24217 25 2.36934 25 2.50195V16.5Z" fill="#979797" stroke="#979797" stroke-width="0.5"/>
</svg>
