<svg width="22" height="22" viewBox="0 0 22 22" fill="none" xmlns="http://www.w3.org/2000/svg">
<path d="M20.1304 4.63636H16.6522V1.90909C16.6522 1.66799 16.5606 1.43675 16.3975 1.26627C16.2344 1.09578 16.0132 1 15.7826 1H1.86957C1.63894 1 1.41776 1.09578 1.25469 1.26627C1.09161 1.43675 1 1.66799 1 1.90909V15.5455C1 15.7866 1.09161 16.0178 1.25469 16.1883C1.41776 16.3588 1.63894 16.4545 1.86957 16.4545H4.47826V20.0909C4.47826 20.332 4.56988 20.5632 4.73295 20.7337C4.89603 20.9042 5.1172 21 5.34783 21H20.1304C20.3611 21 20.5822 20.9042 20.7453 20.7337C20.9084 20.5632 21 20.332 21 20.0909V5.54545C21 5.30435 20.9084 5.07312 20.7453 4.90263C20.5822 4.73214 20.3611 4.63636 20.1304 4.63636ZM1.86957 1.90909H15.7826V15.5455H1.86957V1.90909ZM20.1304 20.0909H5.34783V16.4545H15.7826C16.0132 16.4545 16.2344 16.3588 16.3975 16.1883C16.5606 16.0178 16.6522 15.7866 16.6522 15.5455V5.54545H20.1304V20.0909Z" fill="#E7503D" stroke="#E7503D" stroke-width="0.5"/>
</svg>
