<svg width="29" height="33" viewBox="0 0 29 33" fill="none" xmlns="http://www.w3.org/2000/svg">
<path d="M7.46783 5.85034C8.6907 2.99803 11.524 1 14.824 1C18.1239 1 20.9572 2.99803 22.1801 5.85034M7.46783 5.85034L6.67432 2.85034M7.46783 5.85034L10.1743 4.85034M22.1801 12.1497C20.9572 15.002 18.1239 17 14.824 17C11.524 17 8.6907 15.002 7.46783 12.1497M22.1801 12.1497L19.6743 12.8503M22.1801 12.1497L22.6743 14.8503" stroke="#E7503D" stroke-linecap="round" stroke-linejoin="round"/>
<path d="M11.824 10.4211L14.3852 10.4211C14.9988 10.4211 15.5874 10.1882 16.0213 9.7736C16.4552 9.35905 16.699 8.79679 16.699 8.21053C16.699 7.62426 16.4552 7.062 16.0213 6.64745C15.5874 6.23289 14.9988 6 14.3852 6L11.824 6M11.824 8.21053L17.824 8.21053M12.949 6L17.824 6M14.824 10.4211L16.5777 13" stroke="#E7503D" stroke-linecap="round" stroke-linejoin="round"/>
<path d="M5 21.93C5 21.93 7.90423 19.7554 10 19.93C11.7404 20.075 14 21.93 14 21.93H18.01C18.8329 21.93 19.5 22.5971 19.5 23.42M11 25.43H17.49C18.6001 25.43 19.5 24.5301 19.5 23.42M19.5 23.42L25.7008 19.2861C26.4359 18.7961 27.4235 18.9494 27.9754 19.6393C28.5474 20.3543 28.4517 21.3936 27.7587 21.9921L19.1149 29.4571C18.4075 30.0681 17.4678 30.3381 16.544 30.196L5 28.42M2.24254 19.2306L4.24254 19.7306C4.6877 19.8419 5 20.2419 5 20.7008L5 30.302C5 30.6808 4.786 31.027 4.44721 31.1964L2.44721 32.1964C1.78231 32.5289 1 32.0454 1 31.302V20.2008C1 19.5502 1.61139 19.0729 2.24254 19.2306Z" stroke="#212121" stroke-linejoin="round"/>
</svg>
