<svg width="36" height="36" viewBox="0 0 36 36" fill="none" xmlns="http://www.w3.org/2000/svg">
<path d="M33.24 29.52V33.12C33.24 33.8838 32.9365 34.6164 32.3964 35.1565C31.8563 35.6966 31.1238 36 30.36 36H5.88V35.928C5.06685 35.762 4.33603 35.3202 3.81122 34.6773C3.2864 34.0344 2.99983 33.2299 3 32.4V0.720054C3 0.589726 3.03537 0.461841 3.10235 0.350039C3.16932 0.238237 3.26538 0.14671 3.38029 0.0852197C3.4952 0.0237294 3.62465 -0.00541802 3.75483 0.000885927C3.885 0.00718987 4.01102 0.0487088 4.11945 0.121015L8.03999 2.7349L11.9607 0.121303C12.0789 0.0422179 12.2179 0 12.3601 0C12.5023 0 12.6413 0.0422179 12.7594 0.121303L16.68 2.7349L20.6007 0.121303C20.7188 0.0422179 20.8578 0 21 0C21.1422 0 21.2812 0.0422179 21.3994 0.121303L25.32 2.7349L29.2406 0.121303C29.3491 0.0490491 29.475 0.00756379 29.6052 0.00126823C29.7353 -0.00502733 29.8647 0.0241027 29.9796 0.0855539C30.0944 0.147005 30.1905 0.238474 30.2575 0.350213C30.3245 0.461952 30.3599 0.589773 30.36 0.720054V28.8H32.52C32.7109 28.8 32.894 28.8759 33.0291 29.0109C33.1641 29.1459 33.24 29.3291 33.24 29.52ZM9.47999 28.8H28.92V2.06544L25.7194 4.19952C25.6012 4.27861 25.4622 4.32082 25.32 4.32082C25.1778 4.32082 25.0388 4.27861 24.9207 4.19952L21 1.58592L17.0794 4.19952C16.9613 4.27861 16.8223 4.32082 16.6801 4.32082C16.5378 4.32082 16.3988 4.27861 16.2807 4.19952L12.36 1.58592L8.43945 4.19952C8.32127 4.27861 8.18227 4.32082 8.04006 4.32082C7.89786 4.32082 7.75886 4.27861 7.64068 4.19952L4.44 2.06544V32.4C4.44 32.9729 4.66757 33.5223 5.07265 33.9274C5.47772 34.3324 6.02713 34.56 6.59999 34.56C7.17286 34.56 7.72227 34.3324 8.12734 33.9274C8.53242 33.5223 8.75999 32.9729 8.75999 32.4V29.52C8.75999 29.3291 8.83585 29.1459 8.97087 29.0109C9.1059 28.8759 9.28903 28.8 9.47999 28.8ZM31.8 30.24H10.2V32.4C10.1977 33.1812 9.93894 33.9401 9.46357 34.56H30.36C30.7418 34.5597 31.1078 34.4078 31.3778 34.1379C31.6478 33.8679 31.7996 33.5018 31.8 33.12V30.24Z" fill="#E7503D"/>
<path d="M20.8446 13.4386H20.1871C20.0533 13.0503 19.8656 12.6831 19.6296 12.3477H20.8446C21.0872 12.3477 21.3199 12.2506 21.4915 12.0778C21.6631 11.905 21.7594 11.6707 21.7594 11.4263C21.7594 11.1819 21.6631 10.9476 21.4915 10.7748C21.3199 10.602 21.0872 10.5049 20.8446 10.5049H16.1939C16.1604 10.5049 16.128 10.5 16.0939 10.5H13.6743C13.4317 10.5 13.199 10.5971 13.0274 10.7699C12.8558 10.9427 12.7594 11.177 12.7594 11.4214C12.7594 11.6658 12.8558 11.9001 13.0274 12.0729C13.199 12.2457 13.4317 12.3428 13.6743 12.3428H16.0939C16.5003 12.3428 16.9007 12.4426 17.2602 12.6336C17.6197 12.8245 17.9276 13.1009 18.1572 13.4386H13.7121C13.4695 13.4386 13.2368 13.5357 13.0652 13.7085C12.8936 13.8813 12.7973 14.1157 12.7973 14.36C12.7973 14.6044 12.8936 14.8388 13.0652 15.0116C13.2368 15.1844 13.4695 15.2814 13.7121 15.2814H18.558C18.4609 15.8695 18.1602 16.4039 17.7091 16.7898C17.258 17.1757 16.6858 17.3882 16.0939 17.3896H13.6743C13.4955 17.3897 13.3206 17.4425 13.1713 17.5416C13.0219 17.6407 12.9047 17.7817 12.8341 17.9472C12.7635 18.1127 12.7426 18.2954 12.774 18.4727C12.8054 18.65 12.8877 18.8142 13.0107 18.9449L17.9572 24.1969C18.039 24.2879 18.1381 24.3616 18.2486 24.4135C18.3591 24.4655 18.4788 24.4947 18.6007 24.4993C18.7225 24.504 18.8441 24.4841 18.9582 24.4408C19.0723 24.3975 19.1767 24.3316 19.2651 24.2471C19.3536 24.1626 19.4244 24.0611 19.4734 23.9486C19.5224 23.8362 19.5485 23.715 19.5503 23.5922C19.5521 23.4694 19.5295 23.3474 19.4838 23.2336C19.4382 23.1197 19.3703 23.0161 19.2844 22.929L15.8029 19.2324H16.0939C17.1719 19.231 18.2108 18.8257 19.0084 18.0954C19.806 17.3651 20.3053 16.3621 20.4091 15.2814H20.8446C21.0872 15.2814 21.3199 15.1844 21.4915 15.0116C21.6631 14.8388 21.7594 14.6044 21.7594 14.36C21.7594 14.1157 21.6631 13.8813 21.4915 13.7085C21.3199 13.5357 21.0872 13.4386 20.8446 13.4386Z" fill="#E7503D"/>
</svg>
