<svg width="33" height="24" viewBox="0 0 33 24" fill="none" xmlns="http://www.w3.org/2000/svg">
<rect x="0.5" y="1" width="32" height="22" rx="2" stroke="#212121"/>
<path d="M1.5 6.5H31.5M31.5 10.625H1.5" stroke="#E7503D" stroke-linecap="round" stroke-linejoin="round"/>
<path d="M24.5427 18.3768C24.6748 18.5135 24.8269 18.6316 24.9945 18.7292C25.2899 18.9014 25.6334 19 26 19C27.1046 19 28 18.1046 28 17C28 15.8954 27.1046 15 26 15C25.5661 15 25.1645 15.1381 24.8368 15.3729C24.7305 15.449 24.632 15.5333 24.5427 15.6257M25 17C25 18.1046 24.1046 19 23 19C21.8954 19 21 18.1046 21 17C21 15.8954 21.8954 15 23 15C24.1046 15 25 15.8954 25 17Z" stroke="#212121"/>
</svg>
