<svg width="36" height="29" viewBox="0 0 36 29" fill="none" xmlns="http://www.w3.org/2000/svg">
<path d="M35.9958 14.4567C36.0186 14.8376 35.9576 15.2189 35.8171 15.5738C35.6767 15.9286 35.4602 16.2484 35.1829 16.5106L23.3114 27.1467C22.8455 27.584 22.2713 27.8891 21.6482 28.0306C21.025 28.1721 20.3754 28.1449 19.7663 27.9518L7.97069 23.8589L5.76 24.9642V25.2398C5.75962 25.6216 5.60778 25.9877 5.33781 26.2577C5.06784 26.5276 4.7018 26.6795 4.32 26.6798H0.72C0.529044 26.6798 0.345909 26.604 0.210883 26.469C0.0758569 26.3339 0 26.1508 0 25.9598C0 25.7689 0.0758569 25.5858 0.210883 25.4507C0.345909 25.3157 0.529044 25.2398 0.72 25.2398H4.32V12.2798H0.72C0.529044 12.2798 0.345909 12.204 0.210883 12.069C0.0758569 11.9339 0 11.7508 0 11.5598C0 11.3689 0.0758569 11.1858 0.210883 11.0507C0.345909 10.9157 0.529044 10.8398 0.72 10.8398H4.32C4.66509 10.8429 4.99736 10.9711 5.25506 11.2006C5.51275 11.4302 5.67837 11.7454 5.72112 12.0879L10.6256 10.8616C10.7584 10.8286 10.8979 10.834 11.0278 10.877L18.0927 13.2318C18.5866 13.3948 19.0299 13.6829 19.3793 14.0681C19.7287 14.4533 19.9724 14.9225 20.0866 15.4298C20.2008 15.9372 20.1816 16.4655 20.0309 16.9633C19.8801 17.4611 19.6031 17.9113 19.2266 18.2701L21.4678 18.7184L31.9529 12.4086C32.3379 12.1593 32.7816 12.0154 33.2396 11.9911C33.6976 11.9669 34.154 12.0633 34.5631 12.2706C34.9723 12.4778 35.3199 12.7888 35.5713 13.1725C35.8227 13.5561 35.9691 13.9988 35.9958 14.4567ZM34.5587 14.5396C34.5465 14.332 34.4798 14.1312 34.3652 13.9575C34.2507 13.7839 34.0924 13.6435 33.9062 13.5506C33.7201 13.4576 33.5127 13.4155 33.3051 13.4283C33.0975 13.4411 32.8969 13.5084 32.7236 13.6235L21.9714 20.0957C21.8179 20.1885 21.6353 20.2203 21.4595 20.185L14.3054 18.7541L14.2992 18.7528C14.2048 18.7405 14.1137 18.7096 14.0313 18.6618C13.9489 18.614 13.8767 18.5504 13.8191 18.4746C13.7615 18.3988 13.7194 18.3123 13.6954 18.2201C13.6715 18.1279 13.666 18.0319 13.6794 17.9376C13.6928 17.8433 13.7248 17.7526 13.7735 17.6707C13.8222 17.5889 13.8866 17.5175 13.9631 17.4607C14.0396 17.4039 14.1265 17.3629 14.219 17.34C14.3114 17.3171 14.4075 17.3127 14.5017 17.3272L16.9119 17.6718C17.3036 17.7273 17.702 17.6343 18.0287 17.4112C18.3554 17.1881 18.5869 16.8509 18.6778 16.4659C18.7687 16.0809 18.7123 15.6757 18.5199 15.3301C18.3274 14.9844 18.0127 14.7232 17.6376 14.5977L10.7712 12.3094L5.76 13.5614V23.3534L7.59802 22.4344C7.68386 22.3912 7.77756 22.3657 7.8735 22.3595C7.96944 22.3534 8.06563 22.3666 8.1563 22.3986L20.2192 26.5849C20.5845 26.6969 20.973 26.7099 21.3449 26.6224C21.7169 26.5349 22.0589 26.3502 22.336 26.0871L34.2075 15.451C34.3286 15.3336 34.4227 15.1913 34.4833 15.034C34.544 14.8766 34.5698 14.7079 34.5587 14.5396Z" fill="#E7503D"/>
<path d="M25.6666 7.12936e-05C25.1474 0.00103093 24.6356 0.12382 24.1725 0.358566C23.7093 0.593311 23.3077 0.93346 23 1.35166C22.5841 0.787564 22.0006 0.369325 21.3328 0.156695C20.665 -0.0559342 19.9471 -0.0520758 19.2817 0.167719C18.6162 0.387513 18.0372 0.811999 17.6275 1.38053C17.2177 1.94907 16.9981 2.63257 17 3.33338C17 5.68497 22.3492 12 22.9924 12H23.0076C23.6502 12 28.9999 5.68564 28.9999 3.33338C28.9999 2.44933 28.6488 1.60149 28.0236 0.976376C27.3985 0.351259 26.5507 7.12936e-05 25.6666 7.12936e-05ZM23 10.3392C21.4895 8.83202 18.3333 4.61524 18.3333 3.33338C18.3339 2.80314 18.5448 2.29478 18.9198 1.91984C19.2947 1.5449 19.8031 1.334 20.3333 1.3334C20.6448 1.33396 20.9518 1.408 21.2294 1.5495C21.5069 1.69101 21.7471 1.89599 21.9305 2.14779L23 3.58405L24.0694 2.14793C24.2528 1.8961 24.4931 1.69109 24.7706 1.54956C25.0481 1.40803 25.3551 1.33397 25.6666 1.3334C26.1969 1.334 26.7052 1.5449 27.0802 1.91984C27.4551 2.29478 27.666 2.80314 27.6666 3.33338C27.6666 4.61458 24.5104 8.83202 23 10.3392Z" fill="#E7503D"/>
</svg>
