<svg width="38" height="36" viewBox="0 0 38 36" fill="none" xmlns="http://www.w3.org/2000/svg">
<path d="M6.08 27.7502V29.2502C6.08 29.4491 5.99993 29.6398 5.8574 29.7805C5.71487 29.9211 5.52156 30.0002 5.32 30.0002C5.11844 30.0002 4.92513 29.9211 4.7826 29.7805C4.64007 29.6398 4.56 29.4491 4.56 29.2502V27.7502C4.56 27.5513 4.64007 27.3605 4.7826 27.2198C4.92513 27.0792 5.11844 27.0002 5.32 27.0002C5.52156 27.0002 5.71487 27.0792 5.8574 27.2198C5.99993 27.3605 6.08 27.5513 6.08 27.7502ZM9.88 27.0002C9.67844 27.0002 9.48513 27.0792 9.3426 27.2198C9.20007 27.3605 9.12 27.5513 9.12 27.7502V29.2502C9.12 29.4491 9.20007 29.6398 9.3426 29.7805C9.48513 29.9211 9.67844 30.0002 9.88 30.0002C10.0816 30.0002 10.2749 29.9211 10.4174 29.7805C10.5599 29.6398 10.64 29.4491 10.64 29.2502V27.7502C10.64 27.5513 10.5599 27.3605 10.4174 27.2198C10.2749 27.0792 10.0816 27.0002 9.88 27.0002ZM14.44 27.0002C14.2384 27.0002 14.0451 27.0792 13.9026 27.2198C13.7601 27.3605 13.68 27.5513 13.68 27.7502V29.2502C13.68 29.4491 13.7601 29.6398 13.9026 29.7805C14.0451 29.9211 14.2384 30.0002 14.44 30.0002C14.6416 30.0002 14.8349 29.9211 14.9774 29.7805C15.1199 29.6398 15.2 29.4491 15.2 29.2502V27.7502C15.2 27.5513 15.1199 27.3605 14.9774 27.2198C14.8349 27.0792 14.6416 27.0002 14.44 27.0002ZM26.6 4.50022C25.3075 4.50006 24.0328 4.79814 22.8778 5.37065C21.7227 5.94315 20.7194 6.77422 19.9477 7.79751C19.8261 7.95622 19.7733 8.15612 19.801 8.35323C19.8287 8.55034 19.9346 8.72851 20.0955 8.84856C20.2563 8.9686 20.4589 9.02068 20.6586 8.99334C20.8583 8.96599 21.0389 8.86147 21.1605 8.70276C21.7904 7.86439 22.6104 7.18327 23.555 6.71395C24.4996 6.24464 25.5424 6.00019 26.6 6.00019C27.6576 6.00019 28.7004 6.24464 29.645 6.71395C30.5896 7.18327 31.4096 7.86439 32.0395 8.70276C32.1611 8.86147 32.3417 8.96599 32.5414 8.99334C32.7411 9.02068 32.9437 8.9686 33.1045 8.84856C33.2654 8.72851 33.3713 8.55034 33.399 8.35323C33.4267 8.15612 33.3739 7.95622 33.2523 7.79751C32.4806 6.77422 31.4773 5.94315 30.3222 5.37065C29.1672 4.79814 27.8925 4.50006 26.6 4.50022ZM17.708 5.71896C18.7745 4.40264 20.1274 3.33997 21.6665 2.60968C23.2057 1.87939 24.8916 1.50021 26.5994 1.50021C28.3072 1.50021 29.9931 1.87939 31.5323 2.60968C33.0714 3.33997 34.4243 4.40264 35.4908 5.71896C35.619 5.86715 35.8006 5.96027 35.9972 5.97861C36.1938 5.99695 36.3899 5.93907 36.544 5.81722C36.6981 5.69538 36.7981 5.51913 36.8228 5.32581C36.8475 5.13249 36.795 4.93726 36.6764 4.78147C35.4676 3.28956 33.9342 2.08515 32.1897 1.25746C30.4452 0.429764 28.5344 0 26.5988 0C24.6632 0 22.7523 0.429764 21.0078 1.25746C19.2634 2.08515 17.73 3.28956 16.5212 4.78147C16.4026 4.93726 16.3501 5.13249 16.3748 5.32581C16.3995 5.51913 16.4995 5.69538 16.6536 5.81722C16.8077 5.93907 17.0038 5.99695 17.2004 5.97861C17.3969 5.96027 17.5786 5.86715 17.7068 5.71896H17.708ZM38 23.2502V33.7502C38 34.3469 37.7598 34.9192 37.3322 35.3411C36.9046 35.7631 36.3247 36.0002 35.72 36.0002H2.28C1.67531 36.0002 1.09538 35.7631 0.667796 35.3411C0.240214 34.9192 0 34.3469 0 33.7502L0 23.2502C0 22.6534 0.240214 22.0811 0.667796 21.6592C1.09538 21.2372 1.67531 21.0002 2.28 21.0002H25.84V16.4252C24.9173 16.2393 24.0975 15.722 23.5393 14.9735C22.9812 14.225 22.7246 13.2987 22.8192 12.3741C22.9139 11.4495 23.3531 10.5925 24.0516 9.96925C24.7501 9.34603 25.6583 9.00097 26.6 9.00097C27.5417 9.00097 28.4499 9.34603 29.1484 9.96925C29.8469 10.5925 30.2861 11.4495 30.3808 12.3741C30.4754 13.2987 30.2188 14.225 29.6607 14.9735C29.1025 15.722 28.2827 16.2393 27.36 16.4252V21.0002H35.72C36.3247 21.0002 36.9046 21.2372 37.3322 21.6592C37.7598 22.0811 38 22.6534 38 23.2502ZM26.6 15.0002C27.0509 15.0002 27.4918 14.8682 27.8667 14.621C28.2416 14.3738 28.5339 14.0224 28.7064 13.6112C28.879 13.2001 28.9242 12.7477 28.8362 12.3112C28.7482 11.8748 28.5311 11.4739 28.2122 11.1592C27.8933 10.8445 27.4871 10.6303 27.0448 10.5434C26.6025 10.4566 26.1441 10.5012 25.7275 10.6715C25.3109 10.8418 24.9548 11.1302 24.7043 11.5002C24.4537 11.8702 24.32 12.3052 24.32 12.7502C24.32 13.3469 24.5602 13.9192 24.9878 14.3412C25.4154 14.7631 25.9953 15.0002 26.6 15.0002ZM36.48 23.2502C36.48 23.0513 36.3999 22.8605 36.2574 22.7198C36.1149 22.5792 35.9216 22.5002 35.72 22.5002H2.28C2.07844 22.5002 1.88513 22.5792 1.7426 22.7198C1.60007 22.8605 1.52 23.0513 1.52 23.2502V33.7502C1.52 33.9491 1.60007 34.1398 1.7426 34.2805C1.88513 34.4211 2.07844 34.5002 2.28 34.5002H35.72C35.9216 34.5002 36.1149 34.4211 36.2574 34.2805C36.3999 34.1398 36.48 33.9491 36.48 33.7502V23.2502Z" fill="#E7503D"/>
</svg>
