<svg width="20" height="20" viewBox="0 0 20 20" fill="none" xmlns="http://www.w3.org/2000/svg">
<path d="M19.512 2.84479L19.3353 3.02158L16.9782 0.664884L17.155 0.488094L16.9782 0.664881C16.7125 0.399235 16.3522 0.25 15.9765 0.25C15.6008 0.25 15.2405 0.399233 14.9748 0.664874L19.512 2.84479ZM19.512 2.84479L19.3353 3.02159C19.4669 3.15315 19.5712 3.30934 19.6425 3.48124C19.7137 3.65315 19.7503 3.8374 19.7503 4.02347C19.7503 4.20954 19.7137 4.3938 19.6425 4.5657C19.5712 4.73761 19.4669 4.8938 19.3353 5.02535L19.3352 5.02537L5.02551 19.3349C4.75981 19.6006 4.39947 19.7499 4.02372 19.75C4.0237 19.75 4.02367 19.75 4.02365 19.75H1.11112C0.88274 19.75 0.663709 19.6593 0.502218 19.4978C0.340726 19.3363 0.25 19.1173 0.25 18.8889V15.9765V15.9764C0.249953 15.7904 0.28657 15.6061 0.35776 15.4341C0.428948 15.2622 0.533313 15.106 0.664891 14.9744C0.664894 14.9744 0.664897 14.9744 0.6649 14.9744L14.9748 0.664881L19.512 2.84479ZM0.861125 18.8889V19.1389L1.15318 15.7636C1.12524 15.8311 1.11095 15.9034 1.11112 15.9765H0.861125V15.9768V18.8889ZM13.4426 3.06091L1.09745 15.4061L4.02284 19.1389L4.02372 18.8889V19.1389H4.02345C4.12938 19.1392 4.23432 19.1184 4.33219 19.0779C4.43003 19.0374 4.51885 18.9778 4.59351 18.9027C4.59369 18.9026 4.59386 18.9024 4.59403 18.9022L16.9391 6.55739L17.1159 6.38061L16.9391 6.20383L13.7962 3.06091L13.6194 2.88413L13.4426 3.06091ZM18.9032 4.59277L18.7263 4.41603L18.9032 4.59276C19.0542 4.44167 19.139 4.2368 19.1389 4.02319C19.1389 3.80958 19.0541 3.60473 18.903 3.45369L18.7262 3.63047L18.903 3.45368L16.546 1.09687L16.5459 1.09686C16.3949 0.945836 16.19 0.860999 15.9764 0.860999C15.7628 0.860999 15.558 0.945836 15.4069 1.09686L15.4069 1.09687L14.2283 2.27521L14.0515 2.45199L14.2283 2.62878L17.3712 5.77171L17.548 5.94853L17.7248 5.77167L18.9032 4.59277Z" fill="#E7503D" stroke="#E7503D" stroke-width="0.5"/>
</svg>
