<svg width="29" height="38" viewBox="0 0 29 38" fill="none" xmlns="http://www.w3.org/2000/svg">
<path d="M15.4003 0.875H15.4L13.96 0.875L13.9597 0.875C12.8705 0.87719 11.8202 1.28057 11.0095 2.00809C10.2176 2.71875 9.7085 3.69005 9.57381 4.74382C7.02037 5.75952 4.82776 7.51476 3.27766 9.78526C1.71347 12.0764 0.876169 14.7858 0.875 17.5599V17.56V35.56C0.875 35.9751 1.03988 36.3731 1.33338 36.6666C1.62687 36.9601 2.02494 37.125 2.44 37.125H26.92C27.3351 37.125 27.7331 36.9601 28.0266 36.6666C28.3201 36.3731 28.485 35.9751 28.485 35.56V17.56V17.5599C28.4838 14.7858 27.6465 12.0764 26.0823 9.78526C24.5322 7.51476 22.3396 5.75952 19.7862 4.74382C19.6515 3.69005 19.1424 2.71875 18.3505 2.00809C17.5398 1.28057 16.4895 0.87719 15.4003 0.875ZM13.9602 2.565H15.3998C15.962 2.56663 16.5102 2.74042 16.9707 3.063C17.364 3.33851 17.6772 3.71127 17.8808 4.14305C15.7784 3.62548 13.5817 3.62547 11.4792 4.14305C11.6828 3.71127 11.996 3.33851 12.3893 3.063C12.8498 2.74042 13.398 2.56663 13.9602 2.565ZM2.565 35.435V17.56C2.565 14.3469 3.8414 11.2654 6.1134 8.9934C8.38541 6.7214 11.4669 5.445 14.68 5.445C17.8931 5.445 20.9746 6.7214 23.2466 8.9934C25.5186 11.2654 26.795 14.3469 26.795 17.56V35.435H2.565ZM3.755 22.6V32.68C3.755 33.0951 3.91988 33.4931 4.21338 33.7866C4.50687 34.0801 4.90494 34.245 5.32 34.245H24.04C24.4551 34.245 24.8531 34.0801 25.1466 33.7866C25.4401 33.4931 25.605 33.0951 25.605 32.68V22.6C25.605 22.1849 25.4401 21.7869 25.1466 21.4934C24.8531 21.1999 24.4551 21.035 24.04 21.035H5.32C4.90494 21.035 4.50687 21.1999 4.21338 21.4934C3.91988 21.7869 3.755 22.1849 3.755 22.6ZM5.445 32.555V25.605H8.075V27.64C8.075 27.8641 8.16403 28.079 8.32249 28.2375C8.48096 28.396 8.69589 28.485 8.92 28.485C9.14411 28.485 9.35904 28.396 9.51751 28.2375C9.67597 28.079 9.765 27.8641 9.765 27.64V25.605H23.915V32.555H5.445ZM5.445 23.915V22.725H23.915V23.915H5.445ZM14.68 16.965C15.4167 16.965 16.1369 16.7465 16.7495 16.3372C17.3621 15.9279 17.8395 15.3462 18.1215 14.6655C18.4034 13.9848 18.4772 13.2359 18.3334 12.5133C18.1897 11.7907 17.8349 11.127 17.314 10.606C16.793 10.0851 16.1293 9.7303 15.4067 9.58657C14.6841 9.44284 13.9352 9.51661 13.2545 9.79855C12.5738 10.0805 11.9921 10.5579 11.5828 11.1705C11.1735 11.7831 10.955 12.5033 10.955 13.24C10.955 14.2279 11.3475 15.1754 12.046 15.874C12.7446 16.5725 13.6921 16.965 14.68 16.965ZM14.6801 11.205C15.0826 11.205 15.476 11.3244 15.8106 11.548C16.1452 11.7716 16.4061 12.0894 16.5601 12.4612C16.7141 12.8331 16.7544 13.2423 16.6759 13.637C16.5974 14.0318 16.4036 14.3944 16.119 14.679C15.8344 14.9636 15.4718 15.1574 15.077 15.2359C14.6823 15.3144 14.2731 15.2741 13.9012 15.1201C13.5294 14.9661 13.2116 14.7052 12.988 14.3706C12.7644 14.036 12.645 13.6426 12.645 13.2401C12.6456 12.7006 12.8602 12.1833 13.2418 11.8018C13.6233 11.4202 14.1406 11.2056 14.6801 11.205Z" fill="#E7503D" stroke="white" stroke-width="0.25"/>
</svg>
