<svg width="36" height="36" viewBox="0 0 36 36" fill="none" xmlns="http://www.w3.org/2000/svg">
<path d="M17.9996 0C13.4861 0.000472454 9.13749 1.69644 5.81543 4.75183C2.49337 7.80722 0.440297 11.9991 0.063031 16.4968C-0.314235 20.9944 1.01184 25.4697 3.77849 29.0359C6.54513 32.602 10.5505 34.9987 15.0008 35.751C15.1891 35.7825 15.3823 35.7379 15.5377 35.627C15.6932 35.5161 15.7982 35.348 15.8297 35.1597C15.8612 34.9714 15.8166 34.7782 15.7057 34.6228C15.5948 34.4673 15.4267 34.3623 15.2384 34.3308C11.0242 33.6503 7.23175 31.3786 4.6432 27.9842C2.05465 24.5898 0.867355 20.3315 1.32617 16.0874C1.78498 11.8433 3.85491 7.93713 7.10909 5.17435C10.3633 2.41157 14.5536 1.00288 18.8158 1.23878C23.0781 1.47468 27.0874 3.33719 30.0168 6.44221C32.9462 9.54723 34.5724 13.658 34.5601 17.9268C34.5477 22.1956 32.8978 26.2968 29.9504 29.3849C27.0031 32.4729 22.9832 34.3122 18.7196 34.5234V25.92H22.3196C22.8925 25.92 23.4419 25.6924 23.8469 25.2873C24.252 24.8823 24.4796 24.3329 24.4796 23.76V21.6H25.1996C25.7725 21.6 26.3219 21.3724 26.7269 20.9674C27.132 20.5623 27.3596 20.0129 27.3596 19.44V10.08C27.3596 9.69809 27.2079 9.33182 26.9378 9.06177C26.6678 8.79171 26.3015 8.64 25.9196 8.64H23.0396V5.04C23.0396 4.84904 22.9637 4.66591 22.8287 4.53088C22.6937 4.39586 22.5105 4.32 22.3196 4.32C22.1286 4.32 21.9455 4.39586 21.8105 4.53088C21.6754 4.66591 21.5996 4.84904 21.5996 5.04V8.64H14.3996V5.04C14.3996 4.84904 14.3237 4.66591 14.1887 4.53088C14.0537 4.39586 13.8705 4.32 13.6796 4.32C13.4886 4.32 13.3055 4.39586 13.1705 4.53088C13.0354 4.66591 12.9596 4.84904 12.9596 5.04V8.64H10.0796C9.69768 8.64 9.33141 8.79171 9.06136 9.06177C8.79131 9.33182 8.63959 9.69809 8.63959 10.08V19.44C8.63959 20.0129 8.86716 20.5623 9.27224 20.9674C9.67732 21.3724 10.2267 21.6 10.7996 21.6H11.5196V23.76C11.5196 24.3329 11.7472 24.8823 12.1522 25.2873C12.5573 25.6924 13.1067 25.92 13.6796 25.92H17.2796V35.28C17.2796 35.471 17.3554 35.6541 17.4905 35.7891C17.6255 35.9241 17.8086 36 17.9996 36C22.7735 36 27.3519 34.1036 30.7275 30.7279C34.1032 27.3523 35.9996 22.7739 35.9996 18C35.9996 13.2261 34.1032 8.64773 30.7275 5.27208C27.3519 1.89642 22.7735 0 17.9996 0V0ZM13.6796 24.48C13.4887 24.4798 13.3057 24.4038 13.1707 24.2689C13.0357 24.1339 12.9598 23.9509 12.9596 23.76V21.6H15.1196C15.3105 21.6 15.4937 21.5241 15.6287 21.3891C15.7637 21.2541 15.8396 21.071 15.8396 20.88C15.8396 20.689 15.7637 20.5059 15.6287 20.3709C15.4937 20.2359 15.3105 20.16 15.1196 20.16H10.7996C10.6087 20.1598 10.4257 20.0838 10.2907 19.9489C10.1558 19.8139 10.0798 19.6309 10.0796 19.44V14.4H23.7596C23.9505 14.4 24.1337 14.3241 24.2687 14.1891C24.4037 14.0541 24.4796 13.871 24.4796 13.68C24.4796 13.489 24.4037 13.3059 24.2687 13.1709C24.1337 13.0359 23.9505 12.96 23.7596 12.96H10.0796V10.08H25.9196V19.44C25.9194 19.6309 25.8434 19.8139 25.7085 19.9489C25.5735 20.0838 25.3905 20.1598 25.1996 20.16H20.8796C20.6886 20.16 20.5055 20.2359 20.3705 20.3709C20.2354 20.5059 20.1596 20.689 20.1596 20.88C20.1596 21.071 20.2354 21.2541 20.3705 21.3891C20.5055 21.5241 20.6886 21.6 20.8796 21.6H23.0396V23.76C23.0394 23.9509 22.9634 24.1339 22.8285 24.2689C22.6935 24.4038 22.5105 24.4798 22.3196 24.48H13.6796Z" fill="#E7503D"/>
</svg>
