<svg width="20" height="16" viewBox="0 0 20 16" fill="none" xmlns="http://www.w3.org/2000/svg">
<path d="M18.8 0.20166H1.2C0.88174 0.20166 0.576515 0.328089 0.351472 0.553132C0.126428 0.778176 0 1.0834 0 1.40166L0 14.2017C0 14.5199 0.126428 14.8251 0.351472 15.0502C0.576515 15.2752 0.88174 15.4017 1.2 15.4017H18.8C19.1183 15.4017 19.4235 15.2752 19.6485 15.0502C19.8736 14.8251 20 14.5199 20 14.2017V1.40166C20 1.0834 19.8736 0.778176 19.6485 0.553132C19.4235 0.328089 19.1183 0.20166 18.8 0.20166ZM19.2 14.2017C19.2 14.3077 19.1579 14.4095 19.0828 14.4845C19.0078 14.5595 18.9061 14.6017 18.8 14.6017H1.2C1.09391 14.6017 0.992172 14.5595 0.917157 14.4845C0.842143 14.4095 0.8 14.3077 0.8 14.2017V3.87566L9.184 8.84422C9.43091 8.99053 9.71264 9.06773 9.99964 9.06773C10.2866 9.06773 10.5684 8.99053 10.8153 8.84422L19.2 3.87566V14.2017ZM19.2 2.94566L10.408 8.15614C10.2846 8.22921 10.1437 8.26777 10.0003 8.26777C9.85683 8.26777 9.71601 8.22921 9.59256 8.15614L0.8 2.94574V1.40166C0.800127 1.29561 0.842311 1.19394 0.917298 1.11896C0.992285 1.04397 1.09395 1.00179 1.2 1.00166H18.8C18.906 1.00179 19.0077 1.04397 19.0827 1.11896C19.1577 1.19394 19.1999 1.29561 19.2 1.40166V2.94566Z" fill="#E7503D" stroke="#E7503D" stroke-width="0.25"/>
</svg>
