<svg width="34" height="34" viewBox="0 0 34 34" fill="none" xmlns="http://www.w3.org/2000/svg">
<path d="M1 33H33M3.66667 33L3.66666 28C3.66666 27.0795 4.41286 26.3333 5.33333 26.3333V26.3333C6.2538 26.3333 7 27.0795 7 28V32.816M11.6667 32.816V18.6667C11.6667 17.7462 12.4129 17 13.3333 17V17C14.2538 17 15 17.7462 15 18.6667V32.816M19.6667 33V22.6667C19.6667 21.7462 20.4129 21 21.3333 21V21C22.2538 21 23 21.7462 23 22.6667V32.816M27.6667 33V10.6667C27.6667 9.74619 28.4129 9 29.3333 9V9C30.2538 9 31 9.74619 31 10.6667V33" stroke="#212121" stroke-linecap="round" stroke-linejoin="round"/>
<path d="M3.66669 19.6667L10.7184 12.0273C11.2879 11.4103 12.1822 11.2148 12.9572 11.5377L18.0716 13.6687C18.9877 14.0504 20.0451 13.7026 20.5558 12.8515L27.6667 1M27.6667 1L24.3334 1.66667M27.6667 1L28.3334 4.33333" stroke="#E7503D" stroke-linecap="round" stroke-linejoin="round"/>
<path d="M14 7.42105L16.5612 7.42105C17.1749 7.42105 17.7634 7.18816 18.1973 6.7736C18.6312 6.35905 18.875 5.79679 18.875 5.21053C18.875 4.62426 18.6312 4.062 18.1973 3.64745C17.7634 3.23289 17.1749 3 16.5612 3L14 3M14 5.21053L20 5.21053M15.125 3L20 3M17 7.42105L18.7537 10" stroke="#212121" stroke-linecap="round" stroke-linejoin="round"/>
</svg>
