<svg width="19" height="19" viewBox="0 0 19 19" fill="none" xmlns="http://www.w3.org/2000/svg">
<path d="M9.524 14.084C9.284 14.084 9.1 14.012 8.972 13.868C8.844 13.724 8.78 13.524 8.78 13.268V8.864C8.78 8.6 8.844 8.4 8.972 8.264C9.1 8.12 9.284 8.048 9.524 8.048C9.764 8.048 9.948 8.12 10.076 8.264C10.212 8.4 10.28 8.6 10.28 8.864V13.268C10.28 13.524 10.216 13.724 10.088 13.868C9.96 14.012 9.772 14.084 9.524 14.084ZM9.524 6.932C9.244 6.932 9.024 6.864 8.864 6.728C8.712 6.584 8.636 6.388 8.636 6.14C8.636 5.884 8.712 5.688 8.864 5.552C9.024 5.416 9.244 5.348 9.524 5.348C9.812 5.348 10.032 5.416 10.184 5.552C10.336 5.688 10.412 5.884 10.412 6.14C10.412 6.388 10.336 6.584 10.184 6.728C10.032 6.864 9.812 6.932 9.524 6.932Z" fill="#E7503D"/>
<circle cx="9.5" cy="9.5" r="8.75" stroke="#E7503D" stroke-width="1.5"/>
</svg>
