<svg width="271" height="278" viewBox="0 0 271 278" fill="none" xmlns="http://www.w3.org/2000/svg">
<path d="M175.05 90.622V176.412C175.214 188.641 172.931 200.78 168.336 212.115C163.74 223.449 156.925 233.75 148.29 242.412C131.912 258.408 109.894 267.314 87 267.202H0V0.00197852H87C109.869 -0.152031 131.882 8.69055 148.29 24.622C156.927 33.2822 163.744 43.5829 168.34 54.9177C172.936 66.2524 175.217 78.3921 175.05 90.622Z" fill="#8EC6E8"/>
<path d="M125.04 40.49C111.35 23.04 93.2401 11.83 73.3401 9.34999L0 0V267.22L73.3401 276.53C82.7878 277.815 92.4056 276.829 101.396 273.656C110.387 270.482 118.493 265.211 125.04 258.28C139.64 242.84 147.6 220.79 147.6 195.12V109.37C147.847 84.5557 139.919 60.35 125.04 40.49V40.49Z" fill="#B22128"/>
<path d="M124.67 158.363C129.265 158.363 132.99 154.638 132.99 150.043C132.99 145.448 129.265 141.723 124.67 141.723C120.075 141.723 116.35 145.448 116.35 150.043C116.35 154.638 120.075 158.363 124.67 158.363Z" fill="white"/>
<path d="M199.771 179.553C197.451 150.153 199.831 96.1728 221.661 105.673C228.001 108.423 226.661 116.853 225.321 121.833C221.981 134.003 204.631 148.913 203.881 179.283L199.771 179.553Z" fill="#365489"/>
<path d="M199.77 179.551C199.13 186.501 202.46 194.171 210.77 192.071C211.18 191.957 211.557 191.751 211.874 191.469C212.192 191.186 212.44 190.835 212.6 190.441L213.31 188.841C213.31 188.841 206.75 189.951 206.31 185.341C205.87 180.731 205.51 180.221 203.86 179.281L199.77 179.551Z" fill="#F9C38A"/>
<path d="M224.391 165.262C222.841 192.922 197.811 250.412 191.471 257.822L194.871 260.762C194.871 260.762 227.631 229.762 237.991 188.592C253.991 177.932 244.641 165.262 244.641 165.262H224.391Z" fill="#B22128"/>
<path d="M228.359 165.262C228.359 207.262 250.359 248.092 260.699 261.992L264.099 258.902C264.099 258.902 244.479 216.262 253.979 187.512C264.099 182.102 256.219 165.262 256.219 165.262H228.359Z" fill="#E7503D"/>
<path d="M264.099 258.902C264.099 258.902 266.389 261.272 268.759 263.402C269.138 263.736 269.446 264.142 269.666 264.597C269.885 265.052 270.011 265.546 270.036 266.05C270.061 266.555 269.985 267.059 269.812 267.533C269.639 268.008 269.373 268.443 269.029 268.812C265.829 272.361 261.799 275.062 257.299 276.672H247.299C247.035 276.683 246.776 276.595 246.571 276.427C246.367 276.259 246.231 276.021 246.191 275.759C246.15 275.498 246.207 275.23 246.35 275.008C246.494 274.785 246.714 274.623 246.969 274.552C251.099 273.212 255.779 271.422 257.609 269.642C260.269 265.942 261.479 263.122 260.659 261.992L264.099 258.902Z" fill="#F9C38A"/>
<path d="M194.921 260.762L192.311 271.842C192.204 272.271 192.004 272.671 191.725 273.014C191.446 273.356 191.095 273.633 190.697 273.824C190.298 274.015 189.863 274.116 189.421 274.119C188.979 274.122 188.542 274.028 188.141 273.842C183.809 271.791 179.988 268.801 176.956 265.089C173.924 261.377 171.756 257.037 170.611 252.382C170.594 252.184 170.638 251.984 170.736 251.81C170.834 251.636 170.982 251.496 171.16 251.406C171.339 251.317 171.54 251.283 171.738 251.309C171.936 251.335 172.122 251.42 172.271 251.552C180.271 260.742 187.521 261.822 191.521 257.812L194.921 260.762Z" fill="#F9C38A"/>
<path d="M173.721 122.34C177.081 121.81 185.301 124.01 185.301 124.01L185.521 120.84C185.521 120.84 194.911 123.95 194.801 116.25C199.801 113.77 205.371 115.11 207.701 116.76C214.651 113.22 219.151 108.61 220.451 103.45C213.107 102.211 205.618 102.1 198.241 103.12L175.761 103L173.721 122.34Z" fill="#F9C38A"/>
<path d="M185.42 110.061V112.061C185.42 112.061 177.99 110.691 176.42 113.251C174.85 115.811 175.31 127.511 173.02 129.711C169.83 132.771 159.21 130.711 164.02 121.711C159.22 121.711 162.9 114.571 164.84 113.661C159.08 110.411 163.54 98.561 169.65 100.231C167.59 95.451 179.12 95.1211 183.11 100.071C186.38 94.8611 193.26 96.1611 198.18 103.071C194.44 103.871 189.27 109.921 186.61 108.951C184.69 103.511 180.05 106.071 179.49 108.181C178.93 110.291 185.42 110.061 185.42 110.061Z" fill="#13375A"/>
<path d="M171.82 128.93C172.119 128.682 172.349 128.362 172.49 128C172.501 127.975 172.507 127.947 172.507 127.92C172.507 127.892 172.501 127.864 172.49 127.839C172.478 127.813 172.462 127.791 172.441 127.772C172.421 127.753 172.396 127.739 172.37 127.73C172.318 127.711 172.261 127.712 172.21 127.735C172.16 127.757 172.12 127.799 172.1 127.85C171.68 128.85 170.5 129.33 168.92 129.08C167.34 128.83 165.42 127.73 165.34 126.53C165.34 126.475 165.318 126.421 165.278 126.382C165.239 126.342 165.186 126.32 165.13 126.32C165.074 126.32 165.021 126.342 164.981 126.382C164.942 126.421 164.92 126.475 164.92 126.53C165.01 127.97 167.04 129.18 168.86 129.47C169.363 129.593 169.887 129.609 170.397 129.516C170.907 129.423 171.392 129.223 171.82 128.93V128.93Z" fill="white"/>
<path d="M159.31 123.72V123.67C159.871 122.747 160.107 121.663 159.98 120.59C159.72 118.03 160.85 116 163.63 114.02C163.654 114.005 163.676 113.985 163.692 113.961C163.708 113.937 163.719 113.91 163.724 113.882C163.729 113.853 163.727 113.824 163.719 113.796C163.712 113.768 163.698 113.742 163.68 113.72C163.648 113.675 163.599 113.645 163.545 113.636C163.491 113.627 163.435 113.639 163.39 113.67C160.45 115.76 159.28 117.9 159.56 120.67C159.673 121.644 159.462 122.628 158.96 123.47C158.931 123.516 158.92 123.571 158.929 123.625C158.938 123.678 158.967 123.727 159.01 123.76C159.056 123.791 159.112 123.804 159.167 123.796C159.222 123.789 159.273 123.762 159.31 123.72V123.72Z" fill="#13375A"/>
<path d="M257.759 157.543C257.149 149.653 244.319 100.213 220.449 103.453C196.579 106.693 214.339 153.053 224.389 165.263H256.219C256.219 165.263 258.379 165.423 257.759 157.543Z" fill="#A9CBE8"/>
<path d="M244.241 174.072C247.801 169.822 249.961 180.792 249.961 180.792C249.961 180.792 251.511 167.192 253.961 165.262H237.961C237.961 165.262 240.691 178.322 244.241 174.072Z" fill="#A9CBE8"/>
<path d="M221.761 135.683C221.722 135.683 221.684 135.673 221.649 135.656C221.615 135.639 221.584 135.614 221.561 135.583C221.524 135.54 221.504 135.485 221.504 135.428C221.504 135.372 221.524 135.317 221.561 135.273C221.631 135.203 228.111 128.213 229.771 122.013C229.789 121.952 229.831 121.9 229.887 121.868C229.943 121.837 230.008 121.828 230.071 121.843C230.102 121.852 230.131 121.866 230.156 121.885C230.182 121.905 230.203 121.929 230.219 121.957C230.235 121.985 230.245 122.016 230.249 122.048C230.252 122.08 230.25 122.113 230.241 122.143C228.911 127.143 224.571 132.543 222.741 134.673C224.741 133.673 228.911 131.223 230.491 128.523C230.523 128.468 230.575 128.427 230.637 128.41C230.699 128.393 230.765 128.402 230.821 128.433C230.876 128.465 230.917 128.518 230.934 128.58C230.951 128.642 230.942 128.708 230.911 128.763C228.731 132.493 222.121 135.533 221.841 135.663L221.761 135.683Z" fill="white"/>
<path d="M213.381 180.063C205.841 151.553 198.541 98.0027 221.721 103.453C228.451 105.033 228.671 113.553 228.211 118.703C227.101 131.283 212.681 149.043 217.371 179.063L213.381 180.063Z" fill="#486EB5"/>
<path d="M213.381 180.062C213.981 187.012 218.641 193.963 226.431 190.413C226.813 190.225 227.147 189.954 227.41 189.62C227.673 189.286 227.858 188.897 227.951 188.482L228.361 186.783C228.361 186.783 222.101 189.042 220.871 184.582C219.641 180.122 219.161 179.683 217.371 179.062L213.381 180.062Z" fill="#F9C38A"/>
<path d="M229.8 158.861H229.7C229.67 158.849 229.643 158.831 229.62 158.808C229.598 158.785 229.58 158.757 229.569 158.727C229.558 158.697 229.553 158.665 229.555 158.633C229.557 158.601 229.565 158.569 229.58 158.541C230.64 156.181 228.38 154.791 225.99 153.321C223.87 152.021 221.67 150.661 222.14 148.541C222.146 148.509 222.158 148.479 222.176 148.452C222.194 148.426 222.218 148.403 222.245 148.386C222.273 148.369 222.303 148.358 222.335 148.354C222.367 148.349 222.399 148.352 222.43 148.361C222.461 148.366 222.49 148.378 222.516 148.396C222.541 148.413 222.563 148.436 222.58 148.462C222.597 148.488 222.608 148.518 222.614 148.548C222.619 148.579 222.618 148.61 222.61 148.641C222.22 150.431 224.18 151.641 226.25 152.911C228.59 154.361 231.25 155.991 230.01 158.741C229.99 158.778 229.959 158.809 229.922 158.83C229.885 158.852 229.843 158.862 229.8 158.861V158.861Z" fill="white"/>
<path d="M254.21 156.082C254.148 156.072 254.092 156.038 254.054 155.988C254.017 155.937 254.001 155.874 254.01 155.812C254.26 154.062 253.35 153.152 252.3 152.102C250.87 150.672 249.24 149.052 250.15 144.982C251.06 140.912 248.59 139.692 245.47 138.132C243.202 137.181 241.176 135.736 239.54 133.902C237.44 131.262 238.2 128.392 238.93 125.622C239.72 122.622 240.46 119.842 238 117.222C237.956 117.174 237.933 117.111 237.936 117.046C237.939 116.981 237.967 116.92 238.015 116.877C238.062 116.833 238.125 116.81 238.19 116.813C238.255 116.816 238.316 116.844 238.36 116.892C241 119.702 240.19 122.772 239.36 125.742C238.63 128.522 237.93 131.152 239.87 133.602C241.468 135.374 243.438 136.771 245.64 137.692C248.82 139.292 251.57 140.692 250.58 145.082C249.74 148.892 251.19 150.352 252.58 151.762C253.68 152.852 254.71 153.892 254.43 155.882C254.419 155.934 254.392 155.982 254.353 156.018C254.313 156.054 254.263 156.076 254.21 156.082V156.082Z" fill="white"/>
<path d="M195.19 102.082C195.227 102.043 195.248 101.991 195.248 101.937C195.248 101.883 195.227 101.831 195.19 101.792C193.55 99.7918 189.79 97.9418 187.3 99.8418C187.263 99.8808 187.242 99.9327 187.242 99.9868C187.242 100.041 187.263 100.093 187.3 100.132C187.319 100.151 187.341 100.167 187.366 100.178C187.391 100.188 187.418 100.194 187.445 100.194C187.472 100.194 187.499 100.188 187.524 100.178C187.549 100.167 187.571 100.151 187.59 100.132C189.88 98.3918 193.37 100.132 194.9 102.002C194.914 102.026 194.932 102.048 194.954 102.065C194.976 102.083 195.001 102.095 195.028 102.103C195.055 102.11 195.084 102.112 195.111 102.109C195.139 102.105 195.166 102.096 195.19 102.082V102.082Z" fill="white"/>
<path d="M183.42 100.343C183.46 100.311 183.486 100.266 183.496 100.217C183.505 100.167 183.496 100.116 183.47 100.073C183.163 99.6417 183.02 99.1143 183.07 98.5871C183.119 98.06 183.358 97.5683 183.74 97.2025C183.778 97.1618 183.8 97.1082 183.8 97.0525C183.8 96.9968 183.778 96.9432 183.74 96.9025C183.701 96.8652 183.649 96.8444 183.595 96.8444C183.541 96.8444 183.49 96.8652 183.45 96.9025V96.9025C183.155 97.1952 182.931 97.5526 182.797 97.9466C182.664 98.3406 182.624 98.7603 182.68 99.1725C181.59 97.653 180.63 96.044 179.81 94.3625C179.799 94.3375 179.782 94.3151 179.761 94.2966C179.741 94.278 179.717 94.2637 179.691 94.2544C179.665 94.2452 179.637 94.2411 179.61 94.2425C179.582 94.2438 179.555 94.2507 179.531 94.2625C179.506 94.2743 179.483 94.2909 179.465 94.3114C179.446 94.3319 179.432 94.3558 179.422 94.3818C179.413 94.4078 179.409 94.4354 179.41 94.4629C179.412 94.4905 179.419 94.5176 179.43 94.5425C180.418 96.625 181.661 98.5766 183.13 100.353C183.171 100.383 183.22 100.4 183.271 100.4C183.321 100.4 183.37 100.383 183.41 100.353L183.42 100.343Z" fill="#2460AB"/>
</svg>
