<svg width="320" height="36" viewBox="0 0 320 36" fill="none" xmlns="http://www.w3.org/2000/svg">
<rect x="0.5" y="0.5" width="319" height="35" rx="9.5" stroke="#E7503D"/>
<path d="M19.0938 9C14.0719 9 10 13.0719 10 18.0938C10 23.1156 14.0719 27.1875 19.0938 27.1875C24.1156 27.1875 28.1875 23.1156 28.1875 18.0938C28.1875 13.0719 24.1156 9 19.0938 9ZM19.0938 25.6448C14.9244 25.6448 11.5427 22.2631 11.5427 18.0938C11.5427 13.9244 14.9244 10.5427 19.0938 10.5427C23.2631 10.5427 26.6448 13.9244 26.6448 18.0938C26.6448 22.2631 23.2631 25.6448 19.0938 25.6448Z" fill="#E7503D"/>
<path d="M21.3588 14.1294C20.7498 13.5956 19.946 13.3033 19.0935 13.3033C18.2409 13.3033 17.4371 13.5976 16.8282 14.1294C16.1948 14.6836 15.8457 15.4285 15.8457 16.2263V16.3805C15.8457 16.4699 15.9188 16.5429 16.0081 16.5429H16.9824C17.0717 16.5429 17.1448 16.4699 17.1448 16.3805V16.2263C17.1448 15.3311 18.0197 14.6024 19.0935 14.6024C20.1673 14.6024 21.0421 15.3311 21.0421 16.2263C21.0421 16.8576 20.5956 17.4361 19.9034 17.702C19.4731 17.8664 19.1077 18.1546 18.8458 18.5322C18.5799 18.9179 18.4419 19.3807 18.4419 19.8496V20.286C18.4419 20.3753 18.515 20.4484 18.6043 20.4484H19.5786C19.6679 20.4484 19.741 20.3753 19.741 20.286V19.8252C19.742 19.6282 19.8025 19.436 19.9143 19.2738C20.0262 19.1116 20.1844 18.9868 20.3682 18.9158C21.5658 18.4551 22.3392 17.3995 22.3392 16.2263C22.3412 15.4285 21.9921 14.6836 21.3588 14.1294ZM18.2815 22.5594C18.2815 22.7748 18.3671 22.9813 18.5193 23.1336C18.6716 23.2858 18.8781 23.3714 19.0935 23.3714C19.3088 23.3714 19.5153 23.2858 19.6676 23.1336C19.8199 22.9813 19.9054 22.7748 19.9054 22.5594C19.9054 22.3441 19.8199 22.1376 19.6676 21.9853C19.5153 21.833 19.3088 21.7475 19.0935 21.7475C18.8781 21.7475 18.6716 21.833 18.5193 21.9853C18.3671 22.1376 18.2815 22.3441 18.2815 22.5594Z" fill="#E7503D"/>
<path d="M36.078 22V12.13H42.532V13.558H37.87V16.344H42.238V17.772H37.87V22H36.078ZM42.1097 22L46.5757 12.13H48.0457L52.5117 22H50.6917L49.7117 19.718H44.8957L43.9297 22H42.1097ZM47.2897 14.076L45.5117 18.29H49.0957L47.3177 14.076H47.2897ZM60.4846 24.982L59.1266 22.784C58.8559 22.3547 58.4126 22.14 57.7966 22.14C56.8446 22.14 56.0139 21.93 55.3046 21.51C54.5953 21.09 54.0446 20.502 53.6526 19.746C53.2606 18.9807 53.0646 18.0847 53.0646 17.058C53.0646 16.022 53.2606 15.126 53.6526 14.37C54.0446 13.614 54.5953 13.0307 55.3046 12.62C56.0139 12.2 56.8493 11.99 57.8106 11.99C58.7719 11.99 59.6073 12.2 60.3166 12.62C61.0259 13.0307 61.5766 13.614 61.9686 14.37C62.3606 15.126 62.5566 16.0173 62.5566 17.044C62.5566 18.164 62.3233 19.1253 61.8566 19.928C61.3993 20.7307 60.7646 21.3187 59.9526 21.692C60.3539 21.8227 60.6993 22.1353 60.9886 22.63L62.0106 24.254L60.4846 24.982ZM57.8106 20.6C58.7159 20.6 59.4206 20.2873 59.9246 19.662C60.4286 19.0367 60.6806 18.1687 60.6806 17.058C60.6806 15.938 60.4286 15.07 59.9246 14.454C59.4299 13.838 58.7253 13.53 57.8106 13.53C56.9053 13.53 56.2006 13.838 55.6966 14.454C55.1926 15.07 54.9406 15.938 54.9406 17.058C54.9406 18.1687 55.1926 19.0367 55.6966 19.662C56.2006 20.2873 56.9053 20.6 57.8106 20.6ZM64.8424 15.938L64.1284 15.378C64.5578 14.93 64.8098 14.496 64.8844 14.076H63.9884V12.13H65.9484V13.404C65.9484 13.8893 65.8644 14.3327 65.6964 14.734C65.5378 15.126 65.2531 15.5273 64.8424 15.938ZM69.7246 22.14C69.1459 22.14 68.6046 22.07 68.1006 21.93C67.5966 21.79 67.1766 21.5893 66.8406 21.328L67.2886 20.18C67.6339 20.4133 68.0213 20.5953 68.4506 20.726C68.8799 20.8473 69.3093 20.908 69.7386 20.908C70.1866 20.908 70.5179 20.8333 70.7326 20.684C70.9566 20.5253 71.0686 20.32 71.0686 20.068C71.0686 19.676 70.7793 19.424 70.2006 19.312L68.8006 19.046C67.6153 18.822 67.0226 18.206 67.0226 17.198C67.0226 16.75 67.1439 16.3627 67.3866 16.036C67.6386 15.7093 67.9839 15.4573 68.4226 15.28C68.8613 15.1027 69.3653 15.014 69.9346 15.014C70.4199 15.014 70.8866 15.084 71.3346 15.224C71.7826 15.3547 72.1653 15.5553 72.4826 15.826L72.0066 16.974C71.7359 16.75 71.4093 16.5727 71.0266 16.442C70.6533 16.3113 70.2939 16.246 69.9486 16.246C69.4913 16.246 69.1506 16.3253 68.9266 16.484C68.7119 16.6427 68.6046 16.8527 68.6046 17.114C68.6046 17.5247 68.8706 17.7767 69.4026 17.87L70.8026 18.136C71.4093 18.248 71.8666 18.4533 72.1746 18.752C72.4919 19.0507 72.6506 19.452 72.6506 19.956C72.6506 20.6373 72.3846 21.174 71.8526 21.566C71.3206 21.9487 70.6113 22.14 69.7246 22.14Z" fill="#E7503D"/>
<path d="M302 23L307 18.5L302 14" stroke="#E7503D" stroke-width="1.5" stroke-linecap="round" stroke-linejoin="round"/>
</svg>
