<svg width="34" height="35" viewBox="0 0 34 35" fill="none" xmlns="http://www.w3.org/2000/svg">
<path d="M9.5 9.70921L12.4881 9.70921C13.204 9.70921 13.8906 9.43589 14.3969 8.94938C14.9031 8.46287 15.1875 7.80301 15.1875 7.11498M15.1875 7.11498C15.1875 6.42695 14.9031 5.76709 14.3969 5.28058C13.8906 4.79407 13.204 4.52075 12.4881 4.52075M15.1875 7.11498H9.5M15.1875 7.11498H16.5M12.4881 4.52075H16.5M12.4881 4.52075H9.5M13 9.70922L13.5833 10.5722M8.5 13.5C7.24523 12.2274 6 9.9755 6 8.04149C6 4.15258 9.13401 1 13 1C16.866 1 20 4.15258 20 8.04149C20 8.86449 19.8596 9.65451 19.6017 10.3887" stroke="#E7503D" stroke-linecap="round" stroke-linejoin="round"/>
<path d="M26.5929 14.0633H26.0929V14.3013L26.2777 14.4514L26.5929 14.0633ZM22.5929 11.844L22.4265 12.3155L22.5929 11.844ZM30.0929 18.5009C29.8167 18.5009 29.5929 18.7248 29.5929 19.0009C29.5929 19.2771 29.8167 19.5009 30.0929 19.5009V18.5009ZM32.5026 20.084L33.0009 20.1255L32.5026 20.084ZM32.1693 24.084L31.671 24.0424L32.1693 24.084ZM26.5929 19.0009C26.5929 18.7248 26.369 18.5009 26.0929 18.5009C25.8167 18.5009 25.5929 18.7248 25.5929 19.0009H26.5929ZM25.5929 20.5009C25.5929 20.7771 25.8167 21.0009 26.0929 21.0009C26.369 21.0009 26.5929 20.7771 26.5929 20.5009H25.5929ZM25.4071 10.3133L25.5692 10.7863L25.4071 10.3133ZM22.3651 33.5455L21.9179 33.7691L22.3651 33.5455ZM23.0952 34.0846L23.1774 33.5914L23.0952 34.0846ZM24.2453 34.2763L24.3275 33.7831L24.2453 34.2763ZM25.3997 33.1485L24.9047 33.2192L25.3997 33.1485ZM25.5878 30.9302C25.5488 30.6568 25.2955 30.4669 25.0222 30.5059C24.7488 30.545 24.5588 30.7983 24.5979 31.0716L25.5878 30.9302ZM12.0906 34.0846L12.0084 33.5914L12.0906 34.0846ZM10.9404 34.2763L10.8582 33.7831L10.9404 34.2763ZM9.78607 33.1485L10.281 33.2192L9.78607 33.1485ZM10.5878 31.0716C10.6269 30.7983 10.4369 30.545 10.1636 30.5059C9.89021 30.4669 9.63695 30.6568 9.5979 30.9302L10.5878 31.0716ZM4.35793 22.8053C4.60169 22.9351 4.90448 22.8427 5.03424 22.5989C5.16399 22.3551 5.07157 22.0523 4.82781 21.9226L4.35793 22.8053ZM2.09287 16.5009L2.27857 16.9652L2.09287 16.5009ZM0.917314 21.5328C0.658755 21.6297 0.527754 21.9179 0.624716 22.1765C0.721678 22.435 1.00989 22.566 1.26844 22.4691L0.917314 21.5328ZM19.2205 11.0863L19.168 11.5835L19.2205 11.0863ZM9.50222 13.3903L9.22287 12.9756L9.50222 13.3903ZM15.3035 11.1709L15.3778 11.6654L15.3035 11.1709ZM23.0074 11.9975L22.8264 12.4636C23.023 12.5399 23.2463 12.4847 23.3847 12.3256L23.0074 11.9975ZM30.1035 25.0009V24.5009C29.8885 24.5009 29.6975 24.6384 29.6293 24.8424L30.1035 25.0009ZM29.6293 19.1594C29.7169 19.4213 30.0001 19.5627 30.262 19.4751C30.5239 19.3876 30.6653 19.1043 30.5777 18.8424L29.6293 19.1594ZM13.3871 32.4125L13.526 31.9322C13.2942 31.8652 13.0477 31.9732 12.9399 32.1889L13.3871 32.4125ZM21.7987 32.4125L22.2459 32.1889C22.138 31.9732 21.8915 31.8652 21.6598 31.9322L21.7987 32.4125ZM9.83604 31.4158C10.073 31.5576 10.38 31.4806 10.5219 31.2436C10.6637 31.0067 10.5866 30.6996 10.3497 30.5578L9.83604 31.4158ZM24.836 30.5578C24.5991 30.6997 24.522 31.0067 24.6639 31.2436C24.8057 31.4806 25.1128 31.5576 25.3497 31.4158L24.836 30.5578ZM30.0929 19.5009H31.5061V18.5009H30.0929V19.5009ZM32.0043 20.0424L31.671 24.0424L32.6676 24.1255L33.0009 20.1255L32.0043 20.0424ZM31.671 24.0424C31.6494 24.3014 31.4327 24.5009 31.1725 24.5009V25.5009C31.9525 25.5009 32.6028 24.9031 32.6676 24.1255L31.671 24.0424ZM31.5061 19.5009C31.7986 19.5009 32.0286 19.7509 32.0043 20.0424L33.0009 20.1255C33.0738 19.251 32.3836 18.5009 31.5061 18.5009V19.5009ZM25.5929 19.0009V20.5009H26.5929V19.0009H25.5929ZM25.5692 10.7863C25.7922 10.7099 26.0929 10.8809 26.0929 11.2276H27.0929C27.0929 10.3077 26.2202 9.50607 25.245 9.84031L25.5692 10.7863ZM23.013 34.5778L24.1631 34.7695L24.3275 33.7831L23.1774 33.5914L23.013 34.5778ZM25.8946 33.0778L25.5878 30.9302L24.5979 31.0716L24.9047 33.2192L25.8946 33.0778ZM24.1631 34.7695C25.1639 34.9363 26.0381 34.0822 25.8946 33.0778L24.9047 33.2192C24.9525 33.554 24.6611 33.8387 24.3275 33.7831L24.1631 34.7695ZM21.9179 33.7691C22.1325 34.1983 22.5396 34.4989 23.013 34.5778L23.1774 33.5914C23.0196 33.5651 22.8839 33.4649 22.8124 33.3218L21.9179 33.7691ZM12.0084 33.5914L10.8582 33.7831L11.0226 34.7695L12.1728 34.5778L12.0084 33.5914ZM10.281 33.2192L10.5878 31.0716L9.5979 30.9302L9.2911 33.0778L10.281 33.2192ZM10.8582 33.7831C10.5246 33.8387 10.2332 33.554 10.281 33.2192L9.2911 33.0778C9.14762 34.0822 10.0219 34.9363 11.0226 34.7695L10.8582 33.7831ZM12.3734 33.3218C12.3019 33.4649 12.1662 33.5651 12.0084 33.5914L12.1728 34.5778C12.6461 34.4989 13.0532 34.1983 13.2678 33.7691L12.3734 33.3218ZM4.82781 21.9226C4.11963 21.5456 3.51657 21.1166 3.02615 20.6703L2.35303 21.4098C2.90852 21.9154 3.58067 22.3916 4.35793 22.8053L4.82781 21.9226ZM3.02615 20.6703C2.10472 19.8316 1.61558 18.9652 1.51831 18.2922C1.47074 17.963 1.51813 17.6966 1.6315 17.4905C1.7433 17.2872 1.94274 17.0995 2.27857 16.9652L1.90717 16.0367C1.39 16.2436 0.994849 16.573 0.755261 17.0086C0.517228 17.4414 0.45642 17.9359 0.528598 18.4353C0.670842 19.4195 1.33307 20.4814 2.35303 21.4098L3.02615 20.6703ZM2.27857 16.9652C2.67674 16.8059 2.92833 16.8696 3.08953 16.9836C3.27204 17.1128 3.43836 17.3779 3.50485 17.787C3.63735 18.6024 3.32854 19.7801 2.35257 20.6707L3.02662 21.4094C4.24019 20.302 4.6811 18.7909 4.4919 17.6266C4.39753 17.0459 4.13514 16.4985 3.66714 16.1673C3.17781 15.8211 2.55709 15.7767 1.90717 16.0367L2.27857 16.9652ZM2.35257 20.6707C1.97885 21.0117 1.50523 21.3123 0.917314 21.5328L1.26844 22.4691C1.97283 22.2049 2.55666 21.8382 3.02662 21.4094L2.35257 20.6707ZM17.5929 11.5009C18.1266 11.5009 18.6522 11.529 19.168 11.5835L19.2731 10.5891C18.7224 10.5309 18.1617 10.5009 17.5929 10.5009V11.5009ZM19.168 11.5835C20.31 11.7042 21.4032 11.9544 22.4265 12.3155L22.7593 11.3725C21.6619 10.9853 20.4923 10.7179 19.2731 10.5891L19.168 11.5835ZM5.09287 22.0009C5.09287 18.7081 6.90284 15.7442 9.78157 13.805L9.22287 12.9756C6.11823 15.067 4.09287 18.3194 4.09287 22.0009H5.09287ZM9.78157 13.805C11.3715 12.734 13.2823 11.9804 15.3778 11.6654L15.2292 10.6765C12.9911 11.013 10.9395 11.8193 9.22287 12.9756L9.78157 13.805ZM15.3778 11.6654C16.0964 11.5574 16.8366 11.5009 17.5929 11.5009V10.5009C16.7869 10.5009 15.997 10.5611 15.2292 10.6765L15.3778 11.6654ZM23.3847 12.3256C24.0909 11.5135 24.6938 11.0863 25.5692 10.7863L25.245 9.84031C24.1758 10.2068 23.4312 10.7482 22.6301 11.6694L23.3847 12.3256ZM22.4265 12.3155C22.561 12.3629 22.6944 12.4123 22.8264 12.4636L23.1883 11.5314C23.0466 11.4764 22.9035 11.4234 22.7593 11.3725L22.4265 12.3155ZM26.0929 11.2276V14.0633H27.0929V11.2276H26.0929ZM31.1725 24.5009H30.1035V25.5009H31.1725V24.5009ZM26.2777 14.4514C27.8555 15.7326 29.0252 17.3522 29.6293 19.1594L30.5777 18.8424C29.9071 16.836 28.6171 15.0629 26.9081 13.6751L26.2777 14.4514ZM12.9399 32.1889L12.3734 33.3218L13.2678 33.7691L13.8343 32.6361L12.9399 32.1889ZM17.5929 32.5009C16.1679 32.5009 14.7999 32.3005 13.526 31.9322L13.2482 32.8928C14.6126 33.2873 16.0741 33.5009 17.5929 33.5009V32.5009ZM21.6598 31.9322C20.3858 32.3005 19.0179 32.5009 17.5929 32.5009V33.5009C19.1116 33.5009 20.5731 33.2873 21.9375 32.8928L21.6598 31.9322ZM21.3515 32.6361L21.9179 33.7691L22.8124 33.3218L22.2459 32.1889L21.3515 32.6361ZM10.3497 30.5578C7.14347 28.6383 5.09287 25.5048 5.09287 22.0009H4.09287C4.09287 25.9201 6.38709 29.351 9.83604 31.4158L10.3497 30.5578ZM29.6293 24.8424C28.8533 27.1641 27.143 29.1767 24.836 30.5578L25.3497 31.4158C27.833 29.9291 29.7161 27.7371 30.5777 25.1594L29.6293 24.8424Z" fill="black"/>
</svg>
