<svg width="30" height="38" viewBox="0 0 30 38" fill="none" xmlns="http://www.w3.org/2000/svg">
<path d="M15.2705 38C14.2619 38 13.1748 37.9546 12.0204 37.8637C3.5254 37.1933 0.914122 33.0237 0.230483 29.6379C-0.744542 24.8548 1.59776 19.7421 3.07711 17.1062C5.04957 13.6069 7.71688 10.5507 10.2385 8.83508C8.46777 7.13086 7.32463 4.68814 7.10049 2.97255C6.97721 2.01819 7.13411 1.26833 7.55998 0.757066C8.69191 -0.59495 10.2833 0.166269 11.4377 0.722982C12.2222 1.09791 13.0179 1.4842 13.6791 1.39331C14.105 1.32514 14.7886 1.10927 15.5059 0.893404C17.0861 0.40486 18.7111 -0.0950448 19.8319 0.143546C20.2801 0.2458 20.6052 0.586644 20.7396 1.08655C21.1207 2.54082 19.7758 6.18785 17.8482 8.51696C23.7544 11.9822 30.9942 22.7188 29.1002 30.3537C28.2148 33.944 25.032 37.9886 15.2705 37.9886V38ZM9.19623 1.72279C9.03933 1.72279 8.92726 1.7796 8.8376 1.88185C8.78157 1.95002 8.70312 2.21134 8.77036 2.76805C8.9833 4.4041 10.3394 6.96043 12.1773 8.25564L13.3093 9.06231L12.0877 9.72127C7.14532 12.3571 0.465834 22.3893 1.86673 29.3085C2.69606 33.3872 6.14788 35.705 12.1437 36.1708C20.975 36.8752 26.276 34.7165 27.4639 29.9561C29.2347 22.8324 21.6698 12.0277 16.1223 9.55085L14.9343 9.01686L15.8981 8.13067C17.8706 6.32419 19.081 2.92711 19.137 1.80232C18.3413 1.81368 17.0076 2.23406 15.999 2.54082C15.2257 2.77941 14.4972 3.00664 13.9257 3.09753C12.7601 3.24523 11.673 2.73396 10.7204 2.2795C9.94712 1.90458 9.48762 1.72279 9.19623 1.72279Z" fill="#E7503D"/>
<path d="M18.3925 21.4088H17.6976C17.608 20.9202 17.4062 20.443 17.1149 20.034H18.3925C18.7623 20.034 19.0649 19.7273 19.0649 19.3523C19.0649 18.9774 18.7623 18.6707 18.3925 18.6707H12.0828C11.713 18.6707 11.4104 18.9774 11.4104 19.3523C11.4104 19.7273 11.713 20.034 12.0828 20.034H14.6044C15.4226 20.0568 16.1398 20.6021 16.3864 21.4088H12.0828C11.713 21.4088 11.4104 21.7155 11.4104 22.0905C11.4104 22.4654 11.713 22.7721 12.0828 22.7721H16.3864C16.151 23.5675 15.4338 24.1242 14.6044 24.1469H12.0828C12.0044 24.1469 11.9147 24.1696 11.8475 24.2037C11.6906 24.2719 11.5673 24.4082 11.5113 24.5786C11.444 24.749 11.444 24.9308 11.5113 25.1013C11.5449 25.1808 11.5897 25.2603 11.6458 25.3285L16.689 30.8047C16.9131 31.0547 17.2942 31.0774 17.5407 30.8502C17.5519 30.8388 17.5744 30.8161 17.5856 30.8047C17.8321 30.532 17.8321 30.1117 17.5856 29.839L13.6182 25.533H14.6157C16.1622 25.4875 17.4623 24.34 17.7088 22.7949H18.4037C18.7735 22.7949 19.0761 22.4881 19.0761 22.1132C19.0761 21.7383 18.7735 21.4315 18.4037 21.4315L18.3925 21.4088Z" fill="#E7503D"/>
</svg>
