<svg width="28" height="28" viewBox="0 0 28 28" fill="none" xmlns="http://www.w3.org/2000/svg">
<path d="M4.27778 0C1.92925 0 0 1.92925 0 4.27778V23.7222C0 26.0707 1.92925 28 4.27778 28H23.7222C26.0707 28 28 26.0707 28 23.7222V4.27778C28 1.92925 26.0707 0 23.7222 0H4.27778ZM4.27778 2.33333H23.7222C24.8099 2.33333 25.6667 3.1901 25.6667 4.27778V23.7222C25.6667 23.8255 25.6515 23.9258 25.6363 24.023L16.1875 14.8811C15.5829 14.2977 14.7899 14.003 14 14.003C13.2101 14.003 12.4171 14.2977 11.8125 14.8811L2.36371 24.023C2.34852 23.9258 2.33333 23.8255 2.33333 23.7222V4.27778C2.33333 3.1901 3.1901 2.33333 4.27778 2.33333ZM19.0556 5.44444C17.9861 5.44444 17.0352 5.88802 16.4336 6.56554C15.832 7.24306 15.5556 8.10286 15.5556 8.94444C15.5556 9.78602 15.832 10.6458 16.4336 11.3234C17.0352 12.0009 17.9861 12.4444 19.0556 12.4444C20.125 12.4444 21.076 12.0009 21.6775 11.3234C22.2791 10.6458 22.5556 9.78602 22.5556 8.94444C22.5556 8.10286 22.2791 7.24306 21.6775 6.56554C21.076 5.88802 20.125 5.44444 19.0556 5.44444ZM19.0556 7.77778C19.5417 7.77778 19.7574 7.91754 19.9336 8.11502C20.1098 8.3125 20.2222 8.61936 20.2222 8.94444C20.2222 9.26953 20.1098 9.57639 19.9336 9.77387C19.7574 9.97135 19.5417 10.1111 19.0556 10.1111C18.5694 10.1111 18.3537 9.97135 18.1775 9.77387C18.0013 9.57639 17.8889 9.26953 17.8889 8.94444C17.8889 8.61936 18.0013 8.3125 18.1775 8.11502C18.3537 7.91754 18.5694 7.77778 19.0556 7.77778ZM14.003 16.3242C14.2036 16.3242 14.4041 16.4032 14.5681 16.5612L23.9562 25.6454C23.8802 25.6515 23.8012 25.6667 23.7222 25.6667H4.27778C4.19879 25.6667 4.11979 25.6515 4.04384 25.6454L13.4349 16.5612C13.5959 16.4032 13.7995 16.3242 14.003 16.3242Z" fill="#E7503D"/>
</svg>
