<?xml version="1.0" encoding="UTF-8"?>
<svg xmlns="http://www.w3.org/2000/svg" xmlns:xlink="http://www.w3.org/1999/xlink" viewBox="0 0 48 48" width="48px" height="48px">
<g id="surface46406449">
<path style=" stroke:none;fill-rule:nonzero;fill:rgb(90.588236%,31.37255%,23.921569%);fill-opacity:1;" d="M 11.5 6 C 8.480469 6 6 8.480469 6 11.5 L 6 36.5 C 6 39.519531 8.480469 42 11.5 42 L 36.5 42 C 39.519531 42 42 39.519531 42 36.5 L 42 11.5 C 42 8.480469 39.519531 6 36.5 6 Z M 11.5 9 L 36.5 9 C 37.898438 9 39 10.101562 39 11.5 L 39 36.5 C 39 36.632812 38.980469 36.761719 38.960938 36.886719 L 26.8125 25.132812 C 26.035156 24.382812 25.015625 24.003906 24 24.003906 C 22.984375 24.003906 21.964844 24.382812 21.1875 25.132812 L 9.039062 36.886719 C 9.019531 36.761719 9 36.632812 9 36.5 L 9 11.5 C 9 10.101562 10.101562 9 11.5 9 Z M 30.5 13 C 29.125 13 27.902344 13.570312 27.128906 14.441406 C 26.355469 15.3125 26 16.417969 26 17.5 C 26 18.582031 26.355469 19.6875 27.128906 20.558594 C 27.902344 21.429688 29.125 22 30.5 22 C 31.875 22 33.097656 21.429688 33.871094 20.558594 C 34.644531 19.6875 35 18.582031 35 17.5 C 35 16.417969 34.644531 15.3125 33.871094 14.441406 C 33.097656 13.570312 31.875 13 30.5 13 Z M 30.5 16 C 31.125 16 31.402344 16.179688 31.628906 16.433594 C 31.855469 16.6875 32 17.082031 32 17.5 C 32 17.917969 31.855469 18.3125 31.628906 18.566406 C 31.402344 18.820312 31.125 19 30.5 19 C 29.875 19 29.597656 18.820312 29.371094 18.566406 C 29.144531 18.3125 29 17.917969 29 17.5 C 29 17.082031 29.144531 16.6875 29.371094 16.433594 C 29.597656 16.179688 29.875 16 30.5 16 Z M 24.003906 26.988281 C 24.261719 26.988281 24.519531 27.089844 24.730469 27.292969 L 36.800781 38.972656 C 36.703125 38.980469 36.601562 39 36.5 39 L 11.5 39 C 11.398438 39 11.296875 38.980469 11.199219 38.972656 L 23.273438 27.292969 C 23.480469 27.089844 23.742188 26.988281 24.003906 26.988281 Z M 24.003906 26.988281 "/>
</g>
</svg>
