<svg width="36" height="36" viewBox="0 0 36 36" fill="none" xmlns="http://www.w3.org/2000/svg">
<path d="M17.9997 0C16.4297 0.0089639 14.878 0.33681 13.4386 0.963645C11.9992 1.59048 10.7022 2.50323 9.62623 3.64651C8.55028 4.78979 7.71784 6.13977 7.17942 7.61451C6.641 9.08925 6.40783 10.658 6.49406 12.2256L7.21262 26.748C7.23701 27.2986 7.47219 27.8187 7.86947 28.2007C8.26676 28.5827 8.79572 28.7972 9.34684 28.8H15.8397V36H20.1597V28.8H26.6522C27.2033 28.7973 27.7323 28.5827 28.1297 28.2007C28.527 27.8187 28.7622 27.2986 28.7867 26.748L29.5053 12.2256C29.5914 10.658 29.3582 9.08928 28.8198 7.61455C28.2814 6.13983 27.4489 4.78987 26.373 3.6466C25.297 2.50333 24 1.59058 22.5607 0.963727C21.1213 0.336879 19.5696 0.00900482 17.9997 0ZM18.7197 34.56H17.2797V28.8H18.7197V34.56ZM27.3484 26.6766C27.3423 26.8582 27.2666 27.0304 27.1369 27.1577C27.0072 27.2849 26.8336 27.3574 26.6519 27.36H9.34684C9.16527 27.3574 8.99168 27.2849 8.86207 27.1577C8.73247 27.0306 8.65679 26.8584 8.65074 26.6769L7.93247 12.1536C7.85657 10.7637 8.06661 9.37292 8.54959 8.06738C9.03258 6.76184 9.77824 5.56925 10.7405 4.56336C11.6745 3.57671 12.7999 2.79085 14.048 2.25379C15.296 1.71672 16.6404 1.43973 17.999 1.43973C19.3577 1.43973 20.7021 1.71672 21.9501 2.25379C23.1981 2.79085 24.3235 3.57671 25.2575 4.56336C26.2198 5.56921 26.9655 6.7618 27.4485 8.06734C27.9315 9.37289 28.1415 10.7636 28.0655 12.1536L27.3484 26.6766ZM17.9997 2.88C15.6971 2.8779 13.4866 3.78395 11.848 5.40151C10.2093 7.01907 9.27466 9.21762 9.2469 11.52H26.7518C26.7241 9.21772 25.7895 7.01926 24.151 5.40171C22.5124 3.78417 20.3021 2.87805 17.9997 2.88ZM19.7377 10.08L21.3887 8.42904C21.5199 8.29325 21.5924 8.11137 21.5908 7.92259C21.5891 7.73381 21.5134 7.55322 21.3799 7.41973C21.2464 7.28624 21.0658 7.21052 20.8771 7.20887C20.6883 7.20723 20.5064 7.27981 20.3706 7.41096L17.7013 10.08H10.8457C11.1233 8.76879 11.7633 7.5618 12.693 6.59635C13.377 5.87715 14.2002 5.30451 15.1124 4.91322C16.0246 4.52194 17.0068 4.32016 17.9994 4.32016C18.9919 4.32016 19.9742 4.52194 20.8864 4.91322C21.7986 5.30451 22.6217 5.87715 23.3058 6.59635C24.2354 7.56184 24.8754 8.76881 25.153 10.08H19.7377Z" fill="#E7503D"/>
<path d="M20.6498 12.5757L20.7361 12.3965H20.5371C18.7051 12.3965 16.7037 13.2392 15.1611 14.657C13.617 16.0761 12.5234 18.08 12.5234 20.4102C12.5234 23.4168 14.6119 26.1902 17.4466 26.6575C17.6272 26.7064 17.8133 26.7319 18.0004 26.7334H18.0015C18.0387 26.7334 18.0799 26.7307 18.1151 26.7284C18.1292 26.7274 18.1423 26.7265 18.1539 26.7259C18.1686 26.7265 18.1835 26.7277 18.2019 26.7292L18.2077 26.7296C18.2293 26.7314 18.2555 26.7334 18.2832 26.7334C19.5868 26.7334 20.8832 26.155 21.8528 25.2932C22.8214 24.4322 23.4795 23.2737 23.4795 22.1006C23.4795 20.1297 22.5189 18.7363 21.6526 17.4796C21.5542 17.3369 21.4571 17.196 21.3627 17.0562C20.8966 16.3659 20.4989 15.7063 20.3263 14.9894C20.1552 14.2784 20.2037 13.5022 20.6498 12.5757ZM14.7774 22.665C14.7824 23.3933 14.9607 24.1064 15.2931 24.7471C14.7621 24.2842 14.3199 23.7257 13.9906 23.0985C13.5556 22.2698 13.3311 21.3469 13.3369 20.411V20.4102C13.3369 16.769 16.4714 13.8494 19.5292 13.3021C19.0895 15.1933 20.0618 16.6046 20.9725 17.9263L20.9825 17.9408C20.9825 17.9408 20.9825 17.9408 20.9825 17.9408C21.8231 19.1613 22.666 20.3899 22.666 22.1006C22.666 23.228 21.8653 24.3905 20.7364 25.1344C21.0683 24.5578 21.2393 23.8985 21.2256 23.2262C21.2252 22.7659 21.0277 22.3762 20.7594 22.017C20.5817 21.7791 20.3642 21.5442 20.1459 21.3083C20.0392 21.193 19.9322 21.0775 19.8296 20.9614C19.5112 20.6008 19.2214 20.2208 19.0479 19.775C18.8757 19.3323 18.8157 18.8183 18.9682 18.1856L19.0054 18.0313H18.8467C17.6973 18.0313 16.6785 18.6365 15.9508 19.5115C15.2234 20.3862 14.7774 21.5409 14.7773 22.6641L14.7774 22.665ZM20.4121 23.2276C20.4121 24.7634 19.4377 25.8546 18.1041 25.9094C17.9431 25.9026 17.7826 25.8868 17.6234 25.8619C17.138 25.7228 16.6305 25.3304 16.2422 24.7642C15.8533 24.1972 15.5908 23.4652 15.5908 22.6641C15.5908 21.8878 15.8687 21.05 16.3406 20.3558C16.7796 19.7102 17.3796 19.1983 18.0663 18.9716C18.0967 20.2927 18.9023 21.1626 19.5465 21.8583L19.5551 21.8676C19.5551 21.8676 19.5551 21.8676 19.5551 21.8676C19.7957 22.1274 20.0115 22.3608 20.1682 22.5882C20.3246 22.8151 20.4121 23.0222 20.4121 23.2276Z" fill="#E7503D" stroke="#E7503D" stroke-width="0.25"/>
</svg>
