<svg width="39" height="47" viewBox="0 0 39 47" fill="none" xmlns="http://www.w3.org/2000/svg">
<g opacity="0.5">
<path fill-rule="evenodd" clip-rule="evenodd" d="M17.8028 27.0669L19.4999 24.0717L21.1971 27.0669L24.0256 27.666L21.7628 30.0621L22.3285 33.0573L19.4999 31.5597L16.6714 33.0573L17.2371 30.0621L14.9742 27.666L17.8028 27.0669ZM16.346 30.3399L14.3872 28.2656C14.1758 28.0418 14.0992 27.7157 14.1874 27.4157C14.2756 27.1157 14.5145 26.89 14.81 26.8274L17.2798 26.3043L18.791 23.6372C18.9389 23.3762 19.2086 23.2159 19.4999 23.2159C19.7913 23.2159 20.0609 23.3762 20.2089 23.6372L21.7201 26.3043L24.1898 26.8274C24.4854 26.89 24.7243 27.1157 24.8125 27.4157C24.9007 27.7157 24.824 28.0418 24.6127 28.2656L22.6538 30.3399L23.1359 32.8924C23.1966 33.2137 23.0757 33.5428 22.8245 33.7402C22.5732 33.9375 22.2358 33.9685 21.9552 33.8199L19.4999 32.52L17.0447 33.8199C16.7641 33.9685 16.4266 33.9375 16.1754 33.7402C15.9242 33.5428 15.8033 33.2137 15.864 32.8924L16.346 30.3399Z" fill="#81A5B0"/>
<path d="M13.9662 1.76585C13.7742 1.44582 13.4283 1.25 13.0551 1.25H2.78325C1.95737 1.25 1.44725 2.15097 1.87216 2.85915L13.3472 21.9841C13.5392 22.3042 13.885 22.5 14.2583 22.5H24.5301C25.356 22.5 25.8661 21.599 25.4412 20.8908L13.9662 1.76585Z" fill="#C52229"/>
<path fill-rule="evenodd" clip-rule="evenodd" d="M13.0549 0.1875H2.78307C1.13132 0.1875 0.111082 1.98944 0.960901 3.4058L12.4359 22.5308C12.8199 23.1709 13.5116 23.5625 14.2581 23.5625H24.5299C26.1817 23.5625 27.2019 21.7606 26.3521 20.3442L14.8771 1.2192C14.4931 0.579136 13.8014 0.1875 13.0549 0.1875ZM13.0549 1.25C13.4281 1.25 13.774 1.44582 13.966 1.76585L25.441 20.8908C25.8659 21.599 25.3558 22.5 24.5299 22.5H14.2581C13.8849 22.5 13.539 22.3042 13.347 21.9841L1.87199 2.85915C1.44708 2.15097 1.9572 1.25 2.78307 1.25H13.0549Z" fill="#9B0F15"/>
<path d="M25.0343 1.76585C25.2263 1.44582 25.5722 1.25 25.9454 1.25H36.2172C37.0431 1.25 37.5532 2.15097 37.1283 2.85915L25.6533 21.9841C25.4613 22.3042 25.1155 22.5 24.7422 22.5H14.4704C13.6445 22.5 13.1344 21.599 13.5593 20.8908L25.0343 1.76585Z" fill="#F1333B"/>
<path fill-rule="evenodd" clip-rule="evenodd" d="M25.9456 0.1875H36.2174C37.8692 0.1875 38.8894 1.98944 38.0396 3.4058L26.5646 22.5308C26.1806 23.1709 25.4888 23.5625 24.7424 23.5625H14.4706C12.8188 23.5625 11.7986 21.7606 12.6484 20.3442L24.1234 1.2192C24.5074 0.579136 25.1991 0.1875 25.9456 0.1875ZM25.9456 1.25C25.5724 1.25 25.2265 1.44582 25.0345 1.76585L13.5595 20.8908C13.1346 21.599 13.6447 22.5 14.4706 22.5H24.7424C25.1156 22.5 25.4615 22.3042 25.6535 21.9841L37.1285 2.85915C37.5534 2.15097 37.0433 1.25 36.2174 1.25H25.9456Z" fill="#9B0F15"/>
<path fill-rule="evenodd" clip-rule="evenodd" d="M26.1418 1.85305C26.3956 2.00037 26.4818 2.32549 26.3345 2.57922L21.5533 10.8136C21.4059 11.0673 21.0808 11.1536 20.8271 11.0063C20.5733 10.8589 20.4871 10.5338 20.6344 10.2801L25.4157 2.04571C25.563 1.79198 25.8881 1.70572 26.1418 1.85305Z" fill="#FE666D"/>
<path fill-rule="evenodd" clip-rule="evenodd" d="M2.7644 1.85305C2.51067 2.00037 2.42442 2.32549 2.57174 2.57922L7.35299 10.8136C7.50032 11.0673 7.82544 11.1536 8.07917 11.0063C8.3329 10.8589 8.41916 10.5338 8.27183 10.2801L3.49058 2.04571C3.34325 1.79198 3.01813 1.70572 2.7644 1.85305Z" fill="#DF3840"/>
<path d="M12.8594 2.99316C12.8594 3.36908 12.5621 3.67383 12.1953 3.67383C11.8286 3.67383 11.5312 3.36908 11.5312 2.99316C11.5312 2.61724 11.8286 2.3125 12.1953 2.3125C12.5621 2.3125 12.8594 2.61724 12.8594 2.99316Z" fill="#AA161D"/>
<path d="M10.5271 3.15918C10.5271 3.62679 10.1572 4.00586 9.70103 4.00586C9.24483 4.00586 8.875 3.62679 8.875 3.15918C8.875 2.69157 9.24483 2.3125 9.70103 2.3125C10.1572 2.3125 10.5271 2.69157 10.5271 3.15918Z" fill="#AA161D"/>
<path d="M12.5935 5.58301C12.5935 6.05062 12.2236 6.42969 11.7674 6.42969C11.3112 6.42969 10.9414 6.05062 10.9414 5.58301C10.9414 5.1154 11.3112 4.73633 11.7674 4.73633C12.2236 4.73633 12.5935 5.1154 12.5935 5.58301Z" fill="#AA161D"/>
<path d="M14.4823 4.4292C14.4823 4.663 14.2974 4.85254 14.0693 4.85254C13.8412 4.85254 13.6562 4.663 13.6562 4.4292C13.6562 4.1954 13.8412 4.00586 14.0693 4.00586C14.2974 4.00586 14.4823 4.1954 14.4823 4.4292Z" fill="#AA161D"/>
<path d="M10.1141 5.15967C10.1141 5.39347 9.9292 5.58301 9.7011 5.58301C9.473 5.58301 9.28809 5.39347 9.28809 5.15967C9.28809 4.92586 9.473 4.73633 9.7011 4.73633C9.9292 4.73633 10.1141 4.92586 10.1141 5.15967Z" fill="#AA161D"/>
<path d="M7.81236 2.56982C7.81236 2.80363 7.62744 2.99316 7.39934 2.99316C7.17124 2.99316 6.98633 2.80363 6.98633 2.56982C6.98633 2.33602 7.17124 2.14648 7.39934 2.14648C7.62744 2.14648 7.81236 2.33602 7.81236 2.56982Z" fill="#AA161D"/>
<path d="M14.0692 7.38428C14.0692 7.61808 13.8843 7.80762 13.6562 7.80762C13.4281 7.80762 13.2432 7.61808 13.2432 7.38428C13.2432 7.15047 13.4281 6.96094 13.6562 6.96094C13.8843 6.96094 14.0692 7.15047 14.0692 7.38428Z" fill="#AA161D"/>
<path d="M11.9442 7.80762C11.9442 8.04142 11.7593 8.23096 11.5312 8.23096C11.3031 8.23096 11.1182 8.04142 11.1182 7.80762C11.1182 7.57381 11.3031 7.38428 11.5312 7.38428C11.7593 7.38428 11.9442 7.57381 11.9442 7.80762Z" fill="#AA161D"/>
<path d="M16.0631 6.27197C16.0631 6.65248 15.7621 6.96094 15.3909 6.96094C15.0197 6.96094 14.7188 6.65248 14.7188 6.27197C14.7188 5.89147 15.0197 5.58301 15.3909 5.58301C15.7621 5.58301 16.0631 5.89147 16.0631 6.27197Z" fill="#AA161D"/>
<path d="M16.9393 8.23096C16.9393 8.46476 16.7544 8.6543 16.5263 8.6543C16.2982 8.6543 16.1133 8.46476 16.1133 8.23096C16.1133 7.99715 16.2982 7.80762 16.5263 7.80762C16.7544 7.80762 16.9393 7.99715 16.9393 8.23096Z" fill="#AA161D"/>
<path d="M5.15625 21.9688C5.15625 21.9688 5.58474 30.9819 8.34375 35.7812C11.2719 40.8749 19.5 45.875 19.5 45.875C19.5 45.875 27.7281 40.8749 30.6562 35.7812C33.4153 30.9819 33.8438 21.9688 33.8438 21.9688C33.8438 21.9688 30.3906 19.7072 26.6719 18.5156C22.9531 17.3241 19.5 17.1875 19.5 17.1875C19.5 17.1875 16.0469 17.3241 12.3281 18.5156C8.60938 19.7072 5.15625 21.9688 5.15625 21.9688Z" fill="#FFBB0D"/>
<path fill-rule="evenodd" clip-rule="evenodd" d="M4.57413 21.0799L5.15625 21.9687L4.09495 22.0192C4.07708 21.6433 4.25935 21.2861 4.57413 21.0799ZM19.5 17.1875C19.458 16.1258 19.4578 16.1258 19.4577 16.1258L19.453 16.126L19.4429 16.1265L19.408 16.1281C19.3783 16.1296 19.3357 16.1318 19.2811 16.1351C19.172 16.1416 19.0146 16.1521 18.8152 16.1685C18.4167 16.2013 17.8493 16.2576 17.1635 16.3522C15.7953 16.5408 13.9387 16.8838 12.0039 17.5038C10.0588 18.127 8.20244 19.0228 6.84437 19.7533C6.16224 20.1202 5.59889 20.4491 5.20457 20.6873C5.00728 20.8065 4.85197 20.9031 4.74487 20.9707C4.69132 21.0045 4.64979 21.031 4.62108 21.0495L4.58771 21.0711L4.57841 21.0771L4.57472 21.0795C4.57459 21.0796 4.57413 21.0799 5.15625 21.9687C4.09495 22.0192 4.09494 22.019 4.09495 22.0192L4.09539 22.0281L4.0965 22.05C4.09748 22.0688 4.09894 22.096 4.10095 22.1313C4.10495 22.2019 4.11112 22.3046 4.11992 22.4363C4.13752 22.6995 4.16567 23.0787 4.20814 23.5478C4.293 24.4852 4.43541 25.7861 4.66596 27.2415C5.12105 30.1142 5.94024 33.7321 7.42261 36.3108C8.99626 39.0482 11.9281 41.6773 14.3672 43.5766C15.603 44.5389 16.7441 45.3378 17.5766 45.8964C17.9932 46.176 18.3334 46.396 18.5707 46.5468C18.6894 46.6223 18.7824 46.6805 18.8464 46.7202C18.8784 46.7401 18.9032 46.7554 18.9203 46.7659L18.9401 46.7781L18.9473 46.7824L18.9479 46.7828C18.9481 46.7829 18.9482 46.783 19.5 45.875L18.9479 46.7828C19.2869 46.9888 19.7128 46.989 20.0518 46.783L19.5 45.875C20.0518 46.783 20.0516 46.7831 20.0518 46.783L20.0527 46.7824L20.0599 46.7781L20.0797 46.7659C20.0968 46.7554 20.1216 46.7401 20.1536 46.7202C20.2176 46.6805 20.3106 46.6223 20.4293 46.5468C20.6666 46.396 21.0068 46.176 21.4234 45.8964C22.2559 45.3378 23.397 44.5389 24.6328 43.5766C27.0719 41.6773 30.0038 39.0482 31.5774 36.3108C33.0598 33.7321 33.879 30.1142 34.334 27.2415C34.5646 25.7861 34.707 24.4852 34.7919 23.5478C34.8343 23.0787 34.8625 22.6995 34.8801 22.4363C34.8889 22.3046 34.8951 22.2019 34.8991 22.1313C34.9011 22.096 34.9025 22.0688 34.9035 22.05L34.9046 22.0281L34.9049 22.022L34.905 22.0196C34.905 22.0194 34.9051 22.0192 33.8438 21.9687L34.905 22.0196C34.9229 21.6437 34.7407 21.2861 34.4259 21.0799L33.8438 21.9687C34.4259 21.0799 34.426 21.08 34.4259 21.0799L34.4253 21.0795L34.4216 21.0771L34.4123 21.0711L34.3789 21.0495C34.3502 21.031 34.3087 21.0045 34.2551 20.9707C34.148 20.9031 33.9927 20.8065 33.7954 20.6873C33.4011 20.4491 32.8378 20.1202 32.1556 19.7533C30.7976 19.0228 28.9412 18.127 26.9961 17.5038C25.0613 16.8838 23.2047 16.5408 21.8365 16.3522C21.1507 16.2576 20.5833 16.2013 20.1848 16.1685C19.9854 16.1521 19.828 16.1416 19.7189 16.1351C19.6643 16.1318 19.6217 16.1296 19.592 16.1281L19.5571 16.1265L19.547 16.126L19.5428 16.1259C19.5426 16.1258 19.542 16.1258 19.5 17.1875ZM19.5 17.1875L19.4577 16.1258C19.4856 16.1247 19.514 16.1247 19.542 16.1258L19.5 17.1875ZM19.5 17.1875C19.5 17.1875 16.0469 17.3241 12.3281 18.5156C8.60938 19.7072 5.15625 21.9687 5.15625 21.9687C5.15625 21.9687 5.58475 30.9819 8.34375 35.7812C11.2719 40.8749 19.5 45.875 19.5 45.875C19.5 45.875 27.7281 40.8749 30.6563 35.7812C33.4153 30.9819 33.8438 21.9687 33.8438 21.9687C33.8438 21.9687 30.3906 19.7072 26.6719 18.5156C22.9531 17.3241 19.5 17.1875 19.5 17.1875Z" fill="#E89B05"/>
<path fill-rule="evenodd" clip-rule="evenodd" d="M20.0308 18.229C20.0424 18.5221 19.8142 18.7692 19.5211 18.7808L19.5199 18.7809L19.5143 18.7811L19.4894 18.7823C19.4669 18.7834 19.4327 18.7852 19.3875 18.7879C19.2971 18.7933 19.1627 18.8022 18.9902 18.8164C18.645 18.8449 18.1475 18.8941 17.5435 18.9774C16.3337 19.1442 14.7054 19.4461 13.0215 19.9856C11.3427 20.5236 9.71425 21.3066 8.49948 21.96C7.89364 22.2859 7.39412 22.5776 7.04681 22.7874C6.93833 22.8529 6.84476 22.9104 6.76752 22.9584C6.76858 22.9746 6.76969 22.9915 6.77086 23.0089C6.78645 23.2421 6.8116 23.5813 6.84975 24.0026C6.92607 24.8457 7.05418 26.0156 7.26116 27.3222C7.67814 29.9543 8.40483 33.0692 9.63071 35.2017C9.77694 35.456 9.68927 35.7808 9.43491 35.927C9.18054 36.0732 8.8558 35.9856 8.70957 35.7312C7.38082 33.4198 6.63181 30.14 6.21175 27.4884C6.00021 26.1531 5.86947 24.9589 5.79157 24.0984C5.7526 23.6679 5.72681 23.3204 5.71072 23.0798C5.70268 22.9595 5.69706 22.8659 5.69343 22.802C5.69162 22.77 5.69031 22.7455 5.68943 22.7288L5.68845 22.7095L5.68813 22.703C5.68813 22.7028 5.6881 22.7023 6.21875 22.6771C5.92769 22.2327 5.92775 22.2326 5.92783 22.2326L5.9309 22.2306L5.93875 22.2255L5.96807 22.2065C5.99358 22.1901 6.03092 22.1662 6.07935 22.1357C6.17621 22.0745 6.31751 21.9866 6.49746 21.8779C6.85726 21.6606 7.37228 21.3598 7.99619 21.0243C9.2409 20.3548 10.9328 19.5392 12.6973 18.9738C14.4566 18.4101 16.1486 18.0971 17.3984 17.9249C18.0241 17.8386 18.5411 17.7873 18.903 17.7575C19.084 17.7426 19.2264 17.7331 19.3243 17.7273C19.3732 17.7244 19.4111 17.7224 19.4371 17.7211L19.4672 17.7197L19.4754 17.7193L19.4785 17.7192C19.4787 17.7192 19.479 17.7192 19.5 18.25L19.4785 17.7192C19.7717 17.7076 20.0192 17.9358 20.0308 18.229ZM6.21875 22.6771L5.92783 22.2326C5.77044 22.3356 5.67917 22.5144 5.6881 22.7023L6.21875 22.6771Z" fill="#FFD15C"/>
<path fill-rule="evenodd" clip-rule="evenodd" d="M32.8066 22.1465C33.0996 22.1604 33.3259 22.4093 33.312 22.7024L32.7813 22.6771C33.312 22.7024 33.312 22.7022 33.312 22.7024L33.3119 22.703L33.3116 22.7096L33.3106 22.7288C33.3098 22.7456 33.3085 22.7701 33.3066 22.802C33.303 22.8659 33.2974 22.9595 33.2894 23.0799C33.2733 23.3204 33.2475 23.668 33.2085 24.0984C33.1306 24.959 32.9999 26.1532 32.7883 27.4885C32.3683 30.1401 31.6193 33.4199 30.2905 35.7313C28.8801 38.1847 26.2262 40.5741 23.9747 42.3273C22.8407 43.2103 21.7931 43.9437 21.0289 44.4566C20.6466 44.7132 20.3347 44.9148 20.1178 45.0527C20.0093 45.1217 19.9245 45.1747 19.8665 45.2107C19.8376 45.2287 19.8153 45.2425 19.8 45.2518L19.7826 45.2625L19.7779 45.2654L19.7766 45.2662C19.7765 45.2663 19.776 45.2665 19.5001 44.8126L19.776 45.2665C19.5252 45.4189 19.1984 45.3392 19.0461 45.0884C18.8937 44.8377 18.9734 44.511 19.2241 44.3586C19.2242 44.3586 19.2241 44.3586 19.2241 44.3586L19.2287 44.3558L19.244 44.3464C19.2578 44.338 19.2786 44.3251 19.3061 44.3081C19.361 44.274 19.4426 44.2229 19.5477 44.1561C19.758 44.0224 20.0625 43.8255 20.4368 43.5743C21.1858 43.0717 22.2123 42.353 23.3219 41.489C25.5574 39.7483 28.0685 37.4646 29.3694 35.2017C30.5952 33.0693 31.3219 29.9543 31.7389 27.3222C31.9459 26.0157 32.074 24.8458 32.1503 24.0027C32.1885 23.5813 32.2136 23.2421 32.2292 23.009C32.237 22.8924 32.2424 22.8024 32.2458 22.7419C32.2476 22.7116 32.2488 22.6887 32.2496 22.6736L32.2504 22.6568L32.2506 22.6528L32.2507 22.652C32.2646 22.3589 32.5135 22.1326 32.8066 22.1465Z" fill="#EEAD04"/>
<path d="M8.875 23.9167C8.875 23.9167 9.1924 30.5931 11.2361 34.1481C13.4051 37.9212 19.5 41.625 19.5 41.625C19.5 41.625 25.5949 37.9212 27.7639 34.1481C29.8076 30.5931 30.125 23.9167 30.125 23.9167C30.125 23.9167 27.5671 22.2414 24.8125 21.3588C22.0579 20.4762 19.5 20.375 19.5 20.375C19.5 20.375 16.9421 20.4762 14.1875 21.3588C11.4329 22.2414 8.875 23.9167 8.875 23.9167Z" fill="#FFDD28"/>
<path fill-rule="evenodd" clip-rule="evenodd" d="M8.29288 23.0278L8.875 23.9167L7.8137 23.9671C7.79583 23.5913 7.97809 23.234 8.29288 23.0278ZM19.5 20.375C19.458 19.3133 19.4579 19.3133 19.4577 19.3133L19.4536 19.3135L19.4455 19.3139L19.4183 19.3151C19.3954 19.3163 19.3629 19.318 19.3215 19.3204C19.2387 19.3254 19.12 19.3333 18.9702 19.3457C18.6706 19.3703 18.2453 19.4125 17.7316 19.4834C16.7078 19.6245 15.3161 19.8815 13.8633 20.347C12.4003 20.8157 11.0087 21.4877 9.99498 22.033C9.48501 22.3073 9.06369 22.5533 8.76837 22.7316C8.62058 22.8209 8.504 22.8935 8.42327 22.9444C8.3829 22.9699 8.35146 22.99 8.32954 23.0041L8.30386 23.0207L8.29651 23.0254L8.29343 23.0275C8.2933 23.0275 8.29288 23.0278 8.875 23.9167C7.8137 23.9671 7.81369 23.9669 7.8137 23.9671L7.81405 23.9743L7.81491 23.9911C7.81566 24.0055 7.81677 24.0261 7.81827 24.0527C7.82129 24.1059 7.82592 24.1829 7.8325 24.2814C7.84567 24.4783 7.86669 24.7613 7.89836 25.1112C7.96163 25.8101 8.06779 26.78 8.23976 27.8655C8.57766 29.9985 9.19025 32.7212 10.315 34.6777C11.509 36.7548 13.7178 38.7297 15.5287 40.1398C16.4504 40.8575 17.3012 41.4531 17.9217 41.8696C18.2324 42.0781 18.4864 42.2423 18.6638 42.3551C18.7526 42.4116 18.8223 42.4552 18.8705 42.4851C18.8946 42.5001 18.9134 42.5116 18.9264 42.5196L18.9417 42.529L18.9461 42.5317L18.9479 42.5328C18.9481 42.5329 18.9482 42.533 19.5 41.625L18.9479 42.5328C19.2869 42.7388 19.7128 42.739 20.0518 42.533L19.5 41.625C20.0518 42.533 20.0516 42.5331 20.0518 42.533L20.0539 42.5317L20.0583 42.529L20.0736 42.5196C20.0866 42.5116 20.1054 42.5001 20.1295 42.4851C20.1777 42.4552 20.2474 42.4116 20.3362 42.3551C20.5137 42.2423 20.7676 42.0781 21.0783 41.8696C21.6989 41.4531 22.5496 40.8575 23.4713 40.1398C25.2822 38.7297 27.491 36.7548 28.685 34.6777C29.8098 32.7212 30.4223 29.9985 30.7603 27.8655C30.9322 26.78 31.0384 25.8101 31.1016 25.1112C31.1333 24.7613 31.1543 24.4783 31.1675 24.2814C31.1741 24.1829 31.1787 24.1059 31.1817 24.0527C31.1832 24.0261 31.1843 24.0055 31.1851 23.9911L31.186 23.9743L31.1863 23.968C31.1863 23.9678 31.1863 23.9671 30.125 23.9167L31.1863 23.9671C31.2042 23.5913 31.0219 23.234 30.7071 23.0278L30.125 23.9167C30.7071 23.0278 30.7073 23.0279 30.7071 23.0278L30.7066 23.0275L30.7058 23.0269L30.7035 23.0254L30.6961 23.0207L30.6705 23.0041C30.6485 22.99 30.6171 22.9699 30.5767 22.9444C30.496 22.8935 30.3794 22.8209 30.2316 22.7316C29.9363 22.5533 29.515 22.3073 29.005 22.033C27.9913 21.4877 26.5997 20.8157 25.1367 20.347C23.684 19.8815 22.2922 19.6245 21.2684 19.4834C20.7547 19.4125 20.3294 19.3703 20.0299 19.3457C19.88 19.3333 19.7613 19.3254 19.6785 19.3204C19.6371 19.318 19.6046 19.3163 19.5817 19.3151L19.5545 19.3139L19.5464 19.3135L19.5427 19.3134C19.5426 19.3133 19.542 19.3133 19.5 20.375ZM19.5 20.375L19.4577 19.3133C19.4857 19.3122 19.514 19.3122 19.542 19.3133L19.5 20.375ZM19.5 20.375C19.5 20.375 16.9421 20.4762 14.1875 21.3588C11.4329 22.2414 8.875 23.9167 8.875 23.9167C8.875 23.9167 9.19241 30.5931 11.2361 34.1481C13.4051 37.9212 19.5 41.625 19.5 41.625C19.5 41.625 25.5949 37.9212 27.7639 34.1481C29.8076 30.5931 30.125 23.9167 30.125 23.9167C30.125 23.9167 27.5671 22.2414 24.8125 21.3588C22.0579 20.4762 19.5 20.375 19.5 20.375Z" fill="#E89B05"/>
<path fill-rule="evenodd" clip-rule="evenodd" d="M29.0878 24.0944C29.3809 24.1083 29.6072 24.3572 29.5932 24.6502L29.0626 24.625C29.5932 24.6502 29.5932 24.6501 29.5932 24.6502L29.5932 24.6508L29.5931 24.6519L29.593 24.6558L29.5922 24.67L29.5893 24.7234C29.5867 24.7699 29.5826 24.8377 29.5768 24.9249C29.5651 25.0992 29.5465 25.3505 29.5183 25.6618C29.462 26.2838 29.3675 27.147 29.2145 28.1125C28.9117 30.0243 28.3693 32.4088 27.3981 34.0981C26.3673 35.8913 24.4366 37.6264 22.8132 38.8905C21.9933 39.5289 21.2361 40.059 20.6837 40.4297C20.4073 40.6152 20.1817 40.7611 20.0246 40.861C19.946 40.9109 19.8846 40.9494 19.8424 40.9756C19.8213 40.9887 19.8051 40.9987 19.7939 41.0055L19.781 41.0134L19.7775 41.0156L19.7765 41.0162C19.7764 41.0163 19.776 41.0165 19.5001 40.5625L19.776 41.0165C19.5252 41.1689 19.1984 41.0891 19.0461 40.8384C18.8937 40.5877 18.9734 40.2609 19.2241 40.1086C19.2241 40.1085 19.2241 40.1086 19.2241 40.1086L19.2271 40.1067L19.2379 40.1002L19.2819 40.0729C19.321 40.0486 19.3793 40.0122 19.4546 39.9643C19.6051 39.8686 19.8233 39.7276 20.0916 39.5475C20.6287 39.187 21.3649 38.6716 22.1604 38.0522C23.7677 36.8006 25.5557 35.1712 26.477 33.5686C27.3452 32.0583 27.8653 29.8386 28.1651 27.9462C28.3135 27.0095 28.4054 26.1706 28.4601 25.566C28.4875 25.2639 28.5055 25.0208 28.5166 24.854C28.5222 24.7706 28.5261 24.7063 28.5285 24.6632L28.5312 24.6147L28.5318 24.603L28.5319 24.6003C28.5319 24.6003 28.5319 24.5997 28.5319 24.5997M29.0878 24.0944C28.7948 24.0804 28.5459 24.3067 28.5319 24.5997L29.0878 24.0944Z" fill="#ECC704"/>
<path fill-rule="evenodd" clip-rule="evenodd" d="M18.1514 28.2162L19.5 25.8362L20.8486 28.2162L23.0961 28.6922L21.2981 30.5962L21.7476 32.9762L19.5 31.7862L17.2524 32.9762L17.7019 30.5962L15.9039 28.6922L18.1514 28.2162ZM16.9939 30.817L15.4374 29.1687C15.2694 28.9909 15.2085 28.7318 15.2786 28.4934C15.3487 28.255 15.5385 28.0757 15.7734 28.0259L17.7359 27.6103L18.9367 25.491C19.0542 25.2836 19.2685 25.1562 19.5 25.1562C19.7315 25.1562 19.9458 25.2836 20.0633 25.491L21.2641 27.6103L23.2266 28.0259C23.4615 28.0757 23.6513 28.255 23.7214 28.4934C23.7915 28.7318 23.7306 28.9909 23.5626 29.1687L22.0061 30.817L22.3892 32.8452C22.4374 33.1005 22.3413 33.362 22.1417 33.5188C21.9421 33.6757 21.6739 33.7003 21.451 33.5822L19.5 32.5493L17.5491 33.5822C17.3261 33.7003 17.0579 33.6757 16.8583 33.5188C16.6587 33.362 16.5626 33.1005 16.6108 32.8452L16.9939 30.817Z" fill="#E89B05"/>
</g>
</svg>
