<svg width="15" height="15" viewBox="0 0 15 15" fill="none" xmlns="http://www.w3.org/2000/svg">
<path d="M10.9006 6.07701L10.9006 6.077C10.9499 6.02461 10.9888 5.96277 11.0145 5.89494C11.0401 5.82739 11.0522 5.75546 11.05 5.68325C11.0478 5.61104 11.0314 5.53998 11.0017 5.47411C10.9721 5.40824 10.9297 5.34886 10.8771 5.29935C10.8245 5.24985 10.7627 5.21119 10.6951 5.18558C10.6276 5.15998 10.5556 5.14793 10.4834 5.15013C10.4112 5.15233 10.3402 5.16872 10.2743 5.19838C10.2084 5.22804 10.149 5.27038 10.0995 5.32299C10.0995 5.32299 10.0995 5.32299 10.0995 5.323L7.08068 8.5309L5.46971 7.0779C5.41669 7.02893 5.35455 6.99087 5.28681 6.9659C5.21837 6.94067 5.1456 6.92931 5.07272 6.93247C4.99985 6.93563 4.92833 6.95325 4.86233 6.98432C4.79634 7.01538 4.73718 7.05926 4.6883 7.1134C4.63942 7.16755 4.6018 7.23088 4.57763 7.2997C4.55346 7.36852 4.54322 7.44146 4.54751 7.51428C4.5518 7.58709 4.57053 7.65833 4.60261 7.72384C4.63437 7.7887 4.67858 7.84665 4.73273 7.89441L6.74359 9.70818C6.74361 9.7082 6.74363 9.70822 6.74365 9.70823C6.74367 9.70826 6.74369 9.70828 6.74372 9.7083C6.85049 9.80468 6.99077 9.8554 7.1345 9.84958C7.27828 9.84376 7.41406 9.78182 7.5127 9.67705L7.51274 9.67701L10.9006 6.07701ZM3.47212 1.47184C4.66437 0.675205 6.06609 0.25 7.5 0.25C9.42282 0.25 11.2669 1.01384 12.6265 2.37348C13.9862 3.73311 14.75 5.57718 14.75 7.5C14.75 8.93391 14.3248 10.3356 13.5282 11.5279C12.7315 12.7201 11.5992 13.6494 10.2745 14.1981C8.94969 14.7469 7.49196 14.8904 6.0856 14.6107C4.67923 14.3309 3.38741 13.6405 2.37348 12.6265C1.35955 11.6126 0.669053 10.3208 0.38931 8.9144C0.109567 7.50804 0.253141 6.05031 0.801877 4.72554C1.35061 3.40078 2.27986 2.26849 3.47212 1.47184Z" stroke="#9EC14F" stroke-width="0.5"/>
</svg>
