<svg width="28" height="37" viewBox="0 0 28 37" fill="none" xmlns="http://www.w3.org/2000/svg">
<path d="M22.2098 11.9L19.8098 24.45H25.7598C26.0931 24.45 26.3598 24.5667 26.5598 24.8C26.7598 25 26.8598 25.25 26.8598 25.55C26.8598 25.8167 26.7598 26.0333 26.5598 26.2C26.3598 26.3667 26.0931 26.45 25.7598 26.45H19.4098L17.6598 35.4C17.6264 35.6333 17.5098 35.8333 17.3098 36C17.1098 36.1667 16.8764 36.25 16.6098 36.25C16.2431 36.25 15.9598 36.1167 15.7598 35.85C15.5598 35.5833 15.5098 35.25 15.6098 34.85L17.2598 26.45H7.80977L6.05977 35.4C6.02643 35.6333 5.90977 35.8333 5.70977 36C5.50977 36.1667 5.27643 36.25 5.00977 36.25C4.6431 36.25 4.35977 36.1167 4.15977 35.85C3.95977 35.5833 3.90977 35.25 4.00977 34.85L5.65977 26.45H1.25977C0.926432 26.45 0.659766 26.35 0.459766 26.15C0.259766 25.9167 0.159766 25.65 0.159766 25.35C0.159766 25.0833 0.259766 24.8667 0.459766 24.7C0.659766 24.5333 0.926432 24.45 1.25977 24.45H6.00977L8.45977 11.9H2.25977C1.92643 11.9 1.65977 11.8 1.45977 11.6C1.25977 11.3667 1.15977 11.1 1.15977 10.8C1.15977 10.5333 1.25977 10.3167 1.45977 10.15C1.65977 9.98333 1.92643 9.9 2.25977 9.9H8.85977L10.5598 1.2C10.6264 0.933331 10.7598 0.733331 10.9598 0.6C11.1598 0.433331 11.3931 0.349997 11.6598 0.349997C11.9931 0.349997 12.2598 0.483331 12.4598 0.749998C12.6598 1.01667 12.7098 1.35 12.6098 1.75L11.0098 9.9H20.4598L22.1598 1.2C22.1931 0.966666 22.3098 0.766666 22.5098 0.6C22.7098 0.433331 22.9431 0.349997 23.2098 0.349997C23.5764 0.349997 23.8598 0.483331 24.0598 0.749998C24.2598 1.01667 24.3098 1.35 24.2098 1.75L22.6098 9.9H26.7598C27.0931 9.9 27.3598 10.0167 27.5598 10.25C27.7598 10.45 27.8598 10.7 27.8598 11C27.8598 11.2667 27.7598 11.4833 27.5598 11.65C27.3598 11.8167 27.0931 11.9 26.7598 11.9H22.2098ZM17.6098 24.45L20.0598 11.9H10.6098L8.20977 24.45H17.6098Z" fill="#E7503D"/>
</svg>
