<svg width="24" height="24" viewBox="0 0 24 24" fill="none" xmlns="http://www.w3.org/2000/svg">
<rect width="24" height="24" fill="white"/>
<circle cx="12" cy="12" r="9.5" stroke="#212121"/>
<path d="M12.9854 17C12.6448 17 12.3847 16.6958 12.4376 16.3593L13.8351 7.46847C13.8775 7.19874 14.11 7 14.383 7C14.7236 7 14.9838 7.30421 14.9309 7.64071L13.5333 16.5315C13.4909 16.8013 13.2585 17 12.9854 17ZM8.68422 14.3242C8.32468 14.3242 8.04995 14.0034 8.10526 13.6481C8.14969 13.3628 8.39542 13.1523 8.68422 13.1523H14.759C15.1186 13.1523 15.3933 13.4732 15.338 13.8284C15.2936 14.1138 15.0479 14.3242 14.759 14.3242H8.68422ZM9.617 17C9.27637 17 9.01624 16.6958 9.06914 16.3593L10.4667 7.46847C10.5091 7.19874 10.7415 7 11.0146 7C11.3552 7 11.6153 7.30421 11.5624 7.64071L10.1649 16.5315C10.1225 16.8013 9.89005 17 9.617 17ZM9.24095 10.8477C8.88141 10.8477 8.60668 10.5268 8.66199 10.1716C8.70642 9.88621 8.95215 9.67578 9.24095 9.67578H15.3158C15.6753 9.67578 15.95 9.9966 15.8947 10.3519C15.8503 10.6372 15.6046 10.8477 15.3158 10.8477H9.24095Z" fill="#E7503D"/>
</svg>
