    <svg width="80" height="32" viewBox="0 0 80 32" fill="none" xmlns="http://www.w3.org/2000/svg">
<path d="M79.9999 18.6665L77.7732 20.4932H76.6399L76.8799 20.1065H52.6132H38.8532H5.70659L7.17325 17.2265H40.3199H54.0799H76.8799L76.6399 16.8398H77.7732L79.9999 18.6665ZM43.1199 20.9998L39.7866 27.5465H44.3066L47.6399 20.9998H43.1199ZM5.25325 20.9998L1.91992 27.5465H6.31992L8.22658 23.7865H13.9466L15.3732 20.9998H5.25325V20.9998ZM20.4932 20.9332C19.1199 20.9332 17.8666 21.7065 17.2399 22.9198L14.8532 27.6132H17.7066L20.1866 22.7465H24.4799L24.1599 23.3732H20.6266L19.7066 25.1865H23.2399L21.9999 27.6132H24.8532L28.2532 20.9198H20.4932V20.9332ZM27.3466 25.8665L26.3999 27.7198H35.1866C36.7866 27.7198 38.0799 26.4265 38.0799 24.8265C38.0799 24.0398 37.4399 23.3998 36.6532 23.3998H31.5466L31.9199 22.6665H38.6932L39.6266 20.8398H32.4932C31.0799 20.8398 29.4799 21.5865 28.6132 23.3998C28.2132 24.1998 28.7866 25.1465 29.6799 25.1465H35.0666L34.6932 25.8798H27.3466V25.8665ZM55.7732 25.1465L56.6666 23.3998H52.4399C51.0666 23.3998 49.8132 24.1732 49.1866 25.3998L48.9199 25.9198C48.5066 26.7332 49.0932 27.6932 50.0132 27.6932H58.2132L60.8932 22.4398C61.2532 21.7198 60.7332 20.8665 59.9332 20.8665H51.8799L50.9199 22.7598H57.7999L57.4666 23.3998L56.2532 25.7998H51.8799L52.1866 25.1598H55.7732V25.1465ZM72.0532 20.7865C72.8265 20.7865 73.3332 21.5998 72.9732 22.2932L69.3465 29.4265C68.7732 30.5598 67.5999 31.2798 66.3199 31.2798H27.9466L28.4132 31.8398H27.4932L25.6799 30.3465L27.4932 28.8532H28.4132L27.9466 29.4132H66.3865L67.3732 27.4798H61.9732C61.1732 27.4798 60.6532 26.6265 61.0132 25.9198L62.8132 22.3998C63.3199 21.4132 64.3332 20.7865 65.4532 20.7865H72.0532ZM69.8932 22.5332H65.6399L64.0666 25.6265H68.3199L69.8932 22.5332Z" fill="black"/>
<path d="M0 30.8536L0.759999 29.3603H2.10667L2.04 29.4803H0.879999L0.6 30.0136H1.64L1.57333 30.1336H0.533333L0.226666 30.7203H1.41333L1.34667 30.8403H0V30.8536ZM2.61333 30.2403C2.25333 30.2803 2.02667 30.387 1.93333 30.5603C1.90667 30.6136 1.89333 30.6536 1.90667 30.6936C1.90667 30.7336 1.93333 30.7603 1.96 30.787C1.98667 30.8136 2.04 30.827 2.09333 30.8403C2.14666 30.8536 2.2 30.8536 2.26667 30.8536C2.37333 30.8536 2.48 30.8403 2.58667 30.8136C2.69333 30.787 2.8 30.7336 2.90667 30.6803C2.89333 30.6936 2.89333 30.7203 2.88 30.7336C2.88 30.747 2.88 30.7603 2.88 30.787C2.88 30.8003 2.89333 30.8136 2.90667 30.827C2.92 30.8403 2.93333 30.8403 2.96 30.8403C2.98666 30.8403 3.01333 30.8403 3.02666 30.8403C3.05333 30.8403 3.08 30.8403 3.10667 30.827C3.13333 30.827 3.16 30.8136 3.17333 30.8136L3.22666 30.7203C3.14666 30.7336 3.09333 30.747 3.08 30.7336C3.06666 30.7203 3.06666 30.6936 3.09333 30.6403L3.38666 30.0536C3.41333 29.987 3.42666 29.9336 3.42666 29.8936C3.42666 29.8536 3.4 29.8136 3.36 29.787C3.32 29.7603 3.28 29.747 3.21333 29.7336C3.16 29.7203 3.09333 29.7203 3.01333 29.7203C2.93333 29.7203 2.85333 29.7203 2.77333 29.7336C2.69333 29.747 2.62666 29.7736 2.56 29.8003C2.49333 29.827 2.42667 29.867 2.37333 29.907C2.32 29.947 2.26666 30.0003 2.22666 30.067H2.4C2.42667 30.0136 2.46667 29.987 2.50667 29.947C2.54667 29.9203 2.58667 29.8936 2.64 29.867C2.68 29.8536 2.73333 29.8403 2.78667 29.827C2.84 29.8136 2.89333 29.8136 2.96 29.8136C3.09333 29.8136 3.17333 29.8403 3.21333 29.8803C3.25333 29.9203 3.25333 29.9736 3.21333 30.0403C3.2 30.0536 3.18667 30.0803 3.17333 30.107C3.16 30.1336 3.13333 30.147 3.09333 30.1603C3.06666 30.1736 3.01333 30.1736 2.97333 30.187C2.92 30.187 2.88 30.2003 2.85333 30.2003L2.61333 30.2403ZM3.02666 30.4536C3 30.507 2.96 30.5603 2.90667 30.587C2.85333 30.627 2.8 30.6536 2.73333 30.6803C2.66667 30.707 2.6 30.7203 2.53333 30.7336C2.46667 30.747 2.4 30.747 2.32 30.747C2.28 30.747 2.24 30.747 2.21333 30.7336C2.17333 30.7203 2.14667 30.7203 2.13333 30.6936C2.10667 30.6803 2.09333 30.6536 2.09333 30.627C2.09333 30.6003 2.09333 30.5736 2.10667 30.547C2.14667 30.4803 2.21333 30.4136 2.29333 30.387C2.38666 30.347 2.49333 30.3336 2.62666 30.3203C2.70666 30.3203 2.77333 30.307 2.85333 30.307C2.93333 30.307 3.01333 30.2803 3.09333 30.267L3.02666 30.4536ZM3.93333 30.507C3.90666 30.5603 3.90666 30.6003 3.90666 30.6536C3.90666 30.6936 3.93333 30.7336 3.96 30.7736C3.98666 30.8136 4.04 30.827 4.09333 30.8536C4.14666 30.867 4.22666 30.8803 4.30666 30.8803C4.38666 30.8803 4.48 30.8803 4.56 30.867C4.64 30.8536 4.70666 30.8403 4.77333 30.8136C4.84 30.787 4.89333 30.7603 4.94666 30.7203C5 30.6803 5.04 30.6403 5.06666 30.587C5.10666 30.5203 5.10666 30.467 5.08 30.427C5.05333 30.387 5.01333 30.3603 4.94666 30.3336C4.89333 30.307 4.82666 30.2936 4.74666 30.2803C4.66666 30.267 4.6 30.2536 4.54666 30.2403C4.48 30.227 4.44 30.2003 4.4 30.1736C4.37333 30.147 4.36 30.107 4.38666 30.067C4.41333 30.0136 4.46666 29.9736 4.54666 29.9336C4.62666 29.8936 4.70666 29.8803 4.81333 29.8803C4.92 29.8803 5 29.8936 5.05333 29.9336C5.10666 29.9736 5.12 30.027 5.09333 30.107H5.26666C5.30666 29.987 5.29333 29.8936 5.22666 29.8403C5.16 29.787 5.04 29.7603 4.88 29.7603C4.72 29.7603 4.57333 29.787 4.45333 29.8403C4.33333 29.8936 4.25333 29.9736 4.2 30.067C4.16 30.1336 4.16 30.187 4.18666 30.227C4.21333 30.267 4.25333 30.2936 4.32 30.3203C4.37333 30.347 4.44 30.3603 4.52 30.3736C4.6 30.387 4.66666 30.4003 4.73333 30.4136C4.8 30.427 4.84 30.4536 4.88 30.467C4.90666 30.4936 4.92 30.5336 4.89333 30.587C4.88 30.6136 4.86666 30.6403 4.82666 30.667C4.8 30.6936 4.77333 30.707 4.73333 30.7336C4.69333 30.747 4.65333 30.7736 4.6 30.7736C4.54666 30.787 4.49333 30.787 4.42666 30.787C4.29333 30.787 4.21333 30.7736 4.16 30.7336C4.10666 30.6936 4.09333 30.627 4.12 30.5336H3.93333V30.507ZM5.41333 31.2536C5.44 31.2536 5.45333 31.267 5.48 31.267C5.50666 31.267 5.53333 31.267 5.56 31.267C5.61333 31.267 5.66666 31.2536 5.72 31.2403C5.77333 31.2136 5.82666 31.187 5.88 31.147C5.93333 31.107 5.98666 31.067 6.05333 31.0136C6.10666 30.9603 6.17333 30.8936 6.24 30.827L7.32 29.7736H7.13333L6.2 30.6936V29.7736H6.01333L6.02666 30.8536C6 30.8803 5.97333 30.907 5.93333 30.9336C5.90666 30.9736 5.86666 31.0003 5.84 31.027C5.8 31.0536 5.76 31.0803 5.72 31.107C5.68 31.1336 5.64 31.147 5.58666 31.147C5.56 31.147 5.53333 31.147 5.52 31.147C5.49333 31.147 5.48 31.147 5.45333 31.1336L5.41333 31.2536ZM9.18666 30.747C9.15999 30.747 9.13333 30.7603 9.10666 30.7603C9.07999 30.7603 9.05333 30.7603 9.03999 30.7603C8.99999 30.7603 8.97333 30.7603 8.95999 30.747C8.94666 30.747 8.93333 30.7336 8.93333 30.7203C8.93333 30.707 8.93333 30.6936 8.94666 30.667C8.95999 30.6536 8.95999 30.627 8.97333 30.6003L9.34666 29.867H9.62666L9.67999 29.7603H9.41333L9.55999 29.467H9.38666L9.23999 29.7603H9.03999L8.98666 29.867H9.18666L8.78666 30.6536C8.74666 30.7336 8.73333 30.787 8.77333 30.827C8.79999 30.8536 8.85333 30.867 8.94666 30.867C8.98666 30.867 9.02666 30.867 9.06666 30.8536C9.10666 30.8403 9.13333 30.8403 9.15999 30.8403L9.18666 30.747ZM10.5867 30.8803C10.6933 30.8803 10.7867 30.867 10.88 30.8403C10.9733 30.8136 11.0667 30.7736 11.1467 30.7203C11.2267 30.667 11.3067 30.6136 11.3733 30.547C11.44 30.4803 11.4933 30.4003 11.5333 30.3203C11.5733 30.2403 11.6 30.1736 11.6 30.0936C11.6133 30.027 11.6 29.9603 11.56 29.9203C11.5333 29.867 11.48 29.827 11.4133 29.8003C11.3467 29.7736 11.2533 29.7603 11.1333 29.7603C11.0133 29.7603 10.92 29.7736 10.8133 29.8003C10.72 29.827 10.6267 29.867 10.5333 29.9203C10.4533 29.9736 10.3733 30.027 10.32 30.0936C10.2533 30.1603 10.2 30.2403 10.16 30.3203C10.1067 30.4136 10.0933 30.4936 10.0933 30.5603C10.0933 30.627 10.1067 30.6936 10.1467 30.7336C10.1867 30.787 10.24 30.8136 10.3067 30.8403C10.4133 30.867 10.4933 30.8803 10.5867 30.8803ZM11.3733 30.307C11.3467 30.3603 11.3067 30.427 11.2533 30.4803C11.2 30.5336 11.1467 30.587 11.0933 30.627C11.0267 30.667 10.96 30.707 10.8933 30.7336C10.8133 30.7603 10.7333 30.7736 10.64 30.7736C10.56 30.7736 10.4933 30.7603 10.44 30.747C10.3867 30.7203 10.36 30.6936 10.3333 30.6536C10.3067 30.6136 10.3067 30.5603 10.3067 30.507C10.32 30.4536 10.3333 30.387 10.3733 30.3203C10.4 30.267 10.44 30.2003 10.4933 30.147C10.5333 30.0936 10.6 30.0403 10.6533 30.0003C10.72 29.9603 10.7867 29.9203 10.8533 29.8936C10.9333 29.867 11.0133 29.8536 11.0933 29.8536C11.1867 29.8536 11.2533 29.867 11.3067 29.8936C11.36 29.9203 11.3867 29.947 11.4133 29.987C11.4267 30.027 11.44 30.0803 11.4267 30.1336C11.4267 30.187 11.4 30.2536 11.3733 30.307ZM15.36 29.787C15.3867 29.707 15.3867 29.6403 15.3733 29.587C15.36 29.5336 15.3333 29.4803 15.28 29.4403C15.2267 29.4003 15.1733 29.3736 15.0933 29.347C15.0133 29.3203 14.92 29.3203 14.8133 29.3203C14.68 29.3203 14.5467 29.3336 14.4133 29.3603C14.28 29.387 14.16 29.4403 14.04 29.4936C13.92 29.5603 13.8133 29.6403 13.72 29.7336C13.6267 29.827 13.5333 29.947 13.4667 30.0936C13.4133 30.2003 13.3733 30.2936 13.36 30.387C13.3467 30.4803 13.3467 30.5603 13.3867 30.6403C13.4267 30.707 13.48 30.7736 13.5733 30.8136C13.6667 30.8536 13.7867 30.8803 13.9467 30.8803C14.08 30.8803 14.2133 30.867 14.32 30.8403C14.44 30.8136 14.5467 30.7736 14.64 30.7203C14.7333 30.667 14.8267 30.6136 14.8933 30.547C14.9733 30.4803 15.04 30.4136 15.0933 30.347H14.8933C14.84 30.4003 14.7867 30.467 14.72 30.507C14.6533 30.5603 14.5867 30.6003 14.52 30.6403C14.4533 30.6803 14.3733 30.707 14.2933 30.7203C14.2133 30.747 14.12 30.747 14.04 30.747C13.9067 30.747 13.8 30.7336 13.72 30.6936C13.6533 30.6536 13.6 30.6003 13.5733 30.547C13.5467 30.4803 13.5467 30.4136 13.56 30.3336C13.5733 30.2536 13.6133 30.1736 13.6533 30.0936C13.6933 30.0003 13.76 29.9203 13.8267 29.8403C13.8933 29.7603 13.9733 29.6936 14.0667 29.627C14.16 29.5603 14.2533 29.5203 14.36 29.4803C14.4667 29.4403 14.5867 29.427 14.7067 29.427C14.88 29.427 15 29.4536 15.08 29.507C15.16 29.5603 15.1867 29.6536 15.16 29.7736H15.36V29.787ZM15.92 30.3203C15.9467 30.267 15.9867 30.2003 16.0267 30.147C16.0667 30.0936 16.12 30.0403 16.1733 30.0003C16.2267 29.9603 16.2933 29.9336 16.3733 29.907C16.4533 29.8803 16.5333 29.867 16.6267 29.8803L16.6933 29.747C16.5733 29.747 16.4667 29.7603 16.3733 29.8003C16.28 29.8403 16.1867 29.8936 16.1067 29.9736L16.2133 29.7736H16.04L15.6 30.8403H15.6533L15.92 30.3203ZM18.16 30.3603C18.1333 30.4136 18.0933 30.4803 18.04 30.5203C18 30.5736 17.9467 30.6136 17.88 30.6536C17.8267 30.6936 17.76 30.7203 17.6933 30.7336C17.6267 30.747 17.56 30.7603 17.4933 30.7603C17.36 30.7603 17.28 30.7336 17.24 30.6803C17.2133 30.627 17.2133 30.5603 17.2667 30.467L17.6267 29.7603H17.4533L17.0933 30.467C17.0667 30.5203 17.04 30.5736 17.04 30.627C17.04 30.6803 17.04 30.7203 17.0667 30.747C17.0933 30.787 17.1333 30.8136 17.1867 30.827C17.24 30.8536 17.32 30.8536 17.4133 30.8536C17.48 30.8536 17.5333 30.8536 17.5867 30.8403C17.64 30.827 17.6933 30.8136 17.7333 30.8003C17.7733 30.787 17.8267 30.7603 17.8667 30.747C17.9067 30.7203 17.9467 30.707 17.9733 30.6936L17.8933 30.8403H18.0667L18.6133 29.7736H18.4533L18.16 30.3603ZM19.8667 29.547L19.96 29.3603H19.7733L19.68 29.547H19.8667ZM19.1867 30.8536L19.7333 29.787H19.56L19.0133 30.8536H19.1867ZM20 30.507C19.9733 30.5603 19.9733 30.6003 19.9733 30.6536C19.9733 30.6936 19.9867 30.7336 20.0267 30.7736C20.0533 30.8136 20.1067 30.827 20.16 30.8536C20.2133 30.867 20.2933 30.8803 20.3733 30.8803C20.4667 30.8803 20.5467 30.8803 20.6267 30.867C20.7067 30.8536 20.7733 30.8403 20.84 30.8136C20.9067 30.787 20.96 30.7603 21.0133 30.7203C21.0667 30.6803 21.1067 30.6403 21.1333 30.587C21.1733 30.5203 21.1733 30.467 21.1467 30.427C21.12 30.387 21.08 30.3603 21.0267 30.3336C20.9733 30.307 20.9067 30.2936 20.8267 30.2803C20.7467 30.267 20.68 30.2536 20.6267 30.2403C20.56 30.227 20.52 30.2003 20.48 30.1736C20.4533 30.147 20.44 30.107 20.4667 30.067C20.4933 30.0136 20.5467 29.9736 20.6267 29.9336C20.7067 29.8936 20.7867 29.8803 20.8933 29.8803C21 29.8803 21.08 29.8936 21.1333 29.9336C21.1867 29.9736 21.2 30.027 21.1733 30.107H21.3467C21.3867 29.987 21.3733 29.8936 21.3067 29.8403C21.24 29.787 21.12 29.7603 20.96 29.7603C20.8 29.7603 20.6533 29.787 20.5333 29.8403C20.4133 29.8936 20.3333 29.9736 20.28 30.067C20.24 30.1336 20.24 30.187 20.2667 30.227C20.2933 30.267 20.3333 30.2936 20.4 30.3203C20.4533 30.347 20.52 30.3603 20.6 30.3736C20.68 30.387 20.7467 30.4003 20.8133 30.4136C20.88 30.427 20.92 30.4536 20.96 30.467C20.9867 30.4936 21 30.5336 20.9733 30.587C20.96 30.6136 20.9333 30.6403 20.9067 30.667C20.88 30.6936 20.8533 30.707 20.8133 30.7336C20.7733 30.747 20.7333 30.7736 20.68 30.7736C20.6267 30.787 20.5733 30.787 20.5067 30.787C20.3733 30.787 20.2933 30.7736 20.24 30.7336C20.1867 30.6936 20.1733 30.627 20.2 30.5336H20V30.507ZM23.2 30.347C23.3067 30.1603 23.32 30.0136 23.2533 29.907C23.1867 29.8003 23.0533 29.7603 22.8533 29.7603C22.7467 29.7603 22.64 29.7736 22.5467 29.8003C22.4533 29.827 22.36 29.867 22.28 29.9203C22.2 29.9736 22.12 30.027 22.0533 30.107C21.9867 30.1736 21.9333 30.2536 21.8933 30.3336C21.8533 30.4136 21.8267 30.4803 21.8133 30.5603C21.8 30.627 21.8133 30.6936 21.84 30.7336C21.8667 30.787 21.92 30.827 21.9867 30.8536C22.0533 30.8803 22.1467 30.8936 22.2667 30.8936C22.36 30.8936 22.44 30.8803 22.52 30.867C22.6 30.8536 22.6667 30.827 22.7333 30.787C22.8 30.7603 22.8667 30.7203 22.92 30.6803C22.9733 30.6403 23.0267 30.587 23.08 30.5336H22.8933C22.8267 30.6136 22.7467 30.667 22.64 30.7203C22.5333 30.7603 22.4267 30.787 22.32 30.787C22.24 30.787 22.1733 30.7736 22.12 30.747C22.0667 30.7203 22.04 30.6936 22.0133 30.6536C21.9867 30.6136 21.9867 30.5736 21.9867 30.5203C21.9867 30.467 22.0133 30.4136 22.04 30.3603H23.2V30.347ZM22.12 30.2403C22.16 30.187 22.2 30.147 22.24 30.0936C22.2933 30.0536 22.3467 30.0136 22.4 29.9736C22.4533 29.9336 22.52 29.907 22.5867 29.8936C22.6533 29.867 22.72 29.867 22.8 29.867C22.88 29.867 22.9333 29.8803 22.9867 29.8936C23.04 29.907 23.0667 29.947 23.0933 29.9736C23.12 30.0136 23.12 30.0536 23.12 30.0936C23.12 30.1336 23.0933 30.187 23.0667 30.2403H22.12Z" fill="black"/>
<path d="M13.72 23.5729H8.00002L6.09336 27.3329H1.69336L5.02669 20.7863H15.1467L13.72 23.5729ZM20.28 20.7063C18.9067 20.7063 17.6533 21.4796 17.0267 22.6929L14.64 27.3863H17.4933L19.9733 22.5196H24.2667L23.9467 23.1463H20.4L19.48 24.9596H23.0133L21.7867 27.3863H24.64L28.04 20.6929H20.28V20.7063ZM38.48 22.4263L39.4133 20.5996H32.28C30.8667 20.5996 29.2667 21.3463 28.3867 23.1596C27.9867 23.9596 28.56 24.9063 29.4533 24.9063H34.84L34.4667 25.6396H27.12L26.1733 27.4929H34.96C36.56 27.4929 37.8533 26.1996 37.8533 24.5996C37.8533 23.8129 37.2133 23.1596 36.4267 23.1596H31.32L31.6933 22.4263H38.48Z" fill="#E98824"/>
<path d="M44.0931 27.3209H39.5731L42.9064 20.7742H47.4264L44.0931 27.3209ZM59.7064 20.6409H51.6531L50.6931 22.5342H57.5864L57.2531 23.1742L56.0398 25.5742H51.6664L51.9731 24.9342H55.5731L56.4664 23.1875H52.2398C50.8664 23.1875 49.6131 23.9609 48.9864 25.1875L48.7198 25.7075C48.3064 26.5209 48.8931 27.4809 49.8131 27.4809H58.0131L60.6931 22.2276C61.0398 21.4942 60.5064 20.6409 59.7064 20.6409ZM71.8398 20.5742C72.6131 20.5742 73.1198 21.3875 72.7598 22.0809L69.1331 29.2142C68.5598 30.3475 67.3864 31.0675 66.1198 31.0675H27.7198L28.1998 31.6275H27.2665L25.4531 30.1342L27.2665 28.6542H28.1998L27.7198 29.2142H66.1598L67.1464 27.2809H61.7464C60.9464 27.2809 60.4264 26.4275 60.7864 25.7209L62.5864 22.2009C63.0931 21.2142 64.1064 20.5875 65.2264 20.5875H71.8398V20.5742ZM69.6664 22.3209H65.4131L63.8398 25.4142H68.0931L69.6664 22.3209Z" fill="#38AC49"/>
<path d="M40.0936 17L38.627 19.88H52.3869L53.8536 17H40.0936Z" fill="#38AC49"/>
<path d="M45.0675 19.4141C46.1875 18.8408 46.7209 19.3741 46.8409 19.5341L46.4409 19.8008C46.0142 19.4141 45.2942 19.6275 45.0942 19.7075L45.0675 19.4141ZM44.9742 18.6008L45.0142 18.9741C46.6942 18.1208 47.3609 18.9875 47.4542 19.1208L47.9475 18.8008C47.5209 17.9208 45.7742 18.0675 44.9742 18.6008ZM44.8809 17.7741L44.9209 18.1341C47.0275 17.2008 48.0942 17.6541 48.5609 18.3875L49.0675 18.0541C48.1609 16.6008 45.9742 17.0808 44.8809 17.7741Z" fill="white"/>
<path d="M6.94713 17L5.48047 19.88H38.6271L40.0938 17H6.94713Z" fill="#E98824"/>
<path d="M77.5467 16.6133H76.4134L76.6534 16.9999H53.8534L52.3867 19.8799H76.6534L76.4134 20.2799H77.5467L79.7867 18.4399L77.5467 16.6133Z" fill="#E98824"/>
<path d="M57.1192 18.6662H54.4792C54.3859 18.6662 54.3192 18.5729 54.3725 18.4796L54.4392 18.3462C54.4792 18.2662 54.5592 18.2262 54.6392 18.2262H57.2792C57.3725 18.2262 57.4392 18.3196 57.3859 18.4129L57.3192 18.5462C57.2925 18.6129 57.2125 18.6662 57.1192 18.6662ZM63.0792 18.6662C63.1725 18.6662 63.2525 18.6129 63.2792 18.5329L63.3459 18.3996C63.3859 18.3196 63.3325 18.2129 63.2392 18.2129H60.5992C60.5059 18.2129 60.4259 18.2662 60.3859 18.3329L60.3192 18.4662C60.2792 18.5462 60.3325 18.6529 60.4259 18.6529H63.0792V18.6662ZM69.0392 18.6662C69.1325 18.6662 69.2125 18.6129 69.2525 18.5329L69.3192 18.3996C69.3592 18.3196 69.3059 18.2129 69.2125 18.2129H66.5725C66.4792 18.2129 66.3992 18.2662 66.3592 18.3329L66.2925 18.4662C66.2525 18.5462 66.3059 18.6529 66.3992 18.6529H69.0392V18.6662ZM74.9992 18.6662C75.0925 18.6662 75.1725 18.6129 75.2125 18.5329L75.2792 18.3996C75.3192 18.3196 75.2659 18.2129 75.1725 18.2129H72.5325C72.4392 18.2129 72.3592 18.2662 72.3325 18.3329L72.2659 18.4662C72.2259 18.5462 72.2792 18.6529 72.3725 18.6529H74.9992V18.6662ZM36.5992 30.2929C36.6659 30.2929 36.7192 30.2529 36.7459 30.1995L36.7859 30.1062C36.8125 30.0529 36.7725 29.9729 36.7059 29.9729H34.8392C34.7725 29.9729 34.7192 30.0129 34.6925 30.0662L34.6392 30.1596C34.6125 30.2129 34.6525 30.2929 34.7192 30.2929H36.5992ZM45.6392 30.2929C45.7059 30.2929 45.7592 30.2529 45.7859 30.1995L45.8259 30.1062C45.8525 30.0529 45.8125 29.9729 45.7459 29.9729H43.8792C43.8125 29.9729 43.7592 30.0129 43.7325 30.0662L43.6792 30.1596C43.6525 30.2129 43.6925 30.2929 43.7592 30.2929H45.6392ZM54.6925 30.2929C54.7592 30.2929 54.8125 30.2529 54.8392 30.1995L54.8792 30.1062C54.9059 30.0529 54.8659 29.9729 54.7992 29.9729H52.9325C52.8659 29.9729 52.8125 30.0129 52.7859 30.0662L52.7325 30.1596C52.7059 30.2129 52.7459 30.2929 52.8125 30.2929H54.6925ZM63.7325 30.2929C63.7992 30.2929 63.8525 30.2529 63.8792 30.1995L63.9192 30.1062C63.9459 30.0529 63.9059 29.9729 63.8392 29.9729H61.9725C61.9059 29.9729 61.8525 30.0129 61.8259 30.0662L61.7725 30.1596C61.7459 30.2129 61.7859 30.2929 61.8525 30.2929H63.7325Z" fill="#EDC91A"/>
<path d="M44.7459 16.6123C47.2126 15.1856 49.7326 15.5189 50.5193 17.0656L49.8526 17.5056C49.1326 16.1723 46.8259 15.9189 44.7993 17.1589L44.7459 16.6123ZM44.5859 15.1589L44.6659 15.9189C47.3459 14.4789 50.2393 14.6523 51.3059 16.5456L52.2659 15.9056C51.4393 13.6389 46.8659 13.5989 44.5859 15.1589Z" fill="#E98824"/>
<path d="M17.4395 10.8133L17.8661 9.30664L18.5995 10.3866L18.8795 9.39997H19.0928L18.6661 10.8933L17.9328 9.82664L17.6528 10.8133H17.4395ZM20.3461 10.8133H20.5861L20.3328 9.30664L19.1995 10.8133H19.4261L19.6795 10.4666H20.2795L20.3461 10.8133ZM19.8261 10.2666L20.1861 9.78664L20.2528 10.2666H19.8261ZM22.0661 9.59997L22.1195 9.39997H21.2528L21.1995 9.59997H21.5195L21.1861 10.8133H21.3995L21.7328 9.59997H22.0661ZM22.6394 9.39997L22.2395 10.8133H22.4661L22.8661 9.39997H22.6394ZM23.2661 10.0933C23.1994 10.32 23.2261 10.5066 23.3594 10.64C23.4661 10.7733 23.6128 10.8266 23.7994 10.8266C24.0128 10.8266 24.1994 10.76 24.3861 10.6133C24.5728 10.4666 24.6928 10.3066 24.7461 10.0933C24.7994 9.89331 24.7861 9.71997 24.6794 9.57331C24.5728 9.42664 24.4261 9.35998 24.2261 9.35998C24.0261 9.35998 23.8261 9.42664 23.6394 9.57331C23.4394 9.71997 23.3194 9.89331 23.2661 10.0933ZM23.4794 10.0933C23.5194 9.94664 23.6128 9.82664 23.7328 9.71997C23.8661 9.61331 23.9994 9.55998 24.1461 9.55998C24.2928 9.55998 24.3994 9.61331 24.4794 9.71997C24.5461 9.82664 24.5728 9.94664 24.5194 10.0933C24.4794 10.24 24.3861 10.3733 24.2661 10.4666C24.1328 10.5733 23.9994 10.6133 23.8528 10.6133C23.7194 10.6133 23.6128 10.56 23.5328 10.4666C23.4528 10.3866 23.4394 10.2533 23.4794 10.0933ZM25.3594 10.8133L25.6394 9.82664L26.3728 10.8933L26.7861 9.39997H26.5728L26.2928 10.3866L25.5594 9.30664L25.1461 10.8133H25.3594ZM28.0528 10.8133H28.2928L28.0394 9.30664L26.9194 10.8133H27.1461L27.3994 10.4666H27.9994L28.0528 10.8133ZM27.5461 10.2666L27.9061 9.78664L27.9861 10.2666H27.5461ZM29.1994 9.39997L28.7994 10.8133H29.4261L29.4794 10.6133H29.0661L29.3994 9.39997H29.1994ZM32.0528 9.39997H31.2794L30.8794 10.8133H31.6661L31.7194 10.6133H31.1594L31.2928 10.1466H31.8394L31.8928 9.94664H31.3461L31.4394 9.61331H31.9994L32.0528 9.39997ZM32.6661 9.39997L32.2661 10.8133H32.8928L32.9461 10.6133H32.5328L32.8794 9.39997H32.6661ZM34.6128 9.39997H33.8394L33.4394 10.8133H34.2128L34.2661 10.6133H33.7061L33.8394 10.1466H34.3861L34.4394 9.94664H33.8928L33.9861 9.61331H34.5461L34.6128 9.39997ZM36.2528 9.46664C36.1461 9.39997 36.0394 9.35998 35.9194 9.35998C35.6928 9.35998 35.4794 9.43997 35.2794 9.61331C35.1194 9.75997 35.0128 9.91997 34.9594 10.0933C34.9061 10.2933 34.9328 10.4666 35.0261 10.6133C35.1328 10.76 35.2794 10.8266 35.4794 10.8266C35.6128 10.8266 35.7461 10.7866 35.8928 10.72L35.9728 10.4666C35.9328 10.4933 35.8928 10.52 35.8528 10.5466C35.8128 10.5733 35.7861 10.5866 35.7461 10.6C35.6794 10.6266 35.6128 10.64 35.5461 10.64C35.3994 10.64 35.2928 10.5866 35.2261 10.4933C35.1594 10.3866 35.1461 10.2666 35.1861 10.12C35.2261 9.97331 35.3061 9.83997 35.4394 9.74664C35.5728 9.63997 35.7061 9.58664 35.8528 9.58664C35.9861 9.58664 36.0928 9.63997 36.1861 9.74664L36.2528 9.46664ZM37.5328 9.59997L37.5861 9.39997H36.7328L36.6794 9.59997H36.9994L36.6661 10.8133H36.8794L37.2128 9.59997H37.5328ZM38.3728 10.2C38.4661 10.1866 38.5594 10.1333 38.6394 10.0666C38.7194 9.99997 38.7728 9.90664 38.7994 9.81331C38.8394 9.67997 38.8128 9.58664 38.7461 9.50664C38.6794 9.43997 38.5594 9.39997 38.3728 9.39997H38.1194L37.7194 10.8133H37.9328L38.0928 10.24H38.1328L38.3728 10.8133H38.6394L38.3728 10.2ZM38.2794 9.59997H38.3594C38.5594 9.59997 38.6394 9.66664 38.5861 9.81331C38.5461 9.97331 38.4261 10.04 38.2128 10.04H38.1461L38.2794 9.59997ZM39.2794 10.0933C39.2128 10.32 39.2394 10.5066 39.3594 10.64C39.4661 10.7733 39.6128 10.8266 39.7994 10.8266C39.9994 10.8266 40.1994 10.76 40.3861 10.6133C40.5728 10.4666 40.6928 10.3066 40.7461 10.0933C40.7994 9.89331 40.7861 9.71997 40.6794 9.57331C40.5728 9.42664 40.4261 9.35998 40.2261 9.35998C40.0261 9.35998 39.8261 9.42664 39.6394 9.57331C39.4661 9.71997 39.3461 9.89331 39.2794 10.0933ZM39.4928 10.0933C39.5328 9.94664 39.6261 9.82664 39.7461 9.71997C39.8794 9.61331 40.0128 9.55998 40.1594 9.55998C40.3061 9.55998 40.4128 9.61331 40.4928 9.71997C40.5594 9.82664 40.5728 9.94664 40.5328 10.0933C40.4928 10.24 40.3994 10.3733 40.2794 10.4666C40.1461 10.5733 40.0128 10.6133 39.8661 10.6133C39.7328 10.6133 39.6261 10.56 39.5461 10.4666C39.4661 10.3866 39.4528 10.2533 39.4928 10.0933ZM41.3728 10.8133L41.6528 9.82664L42.3861 10.8933L42.7994 9.39997H42.5861L42.3061 10.3866L41.5728 9.30664L41.1461 10.8133H41.3728V10.8133ZM43.4794 9.39997L43.0794 10.8133H43.2928L43.6928 9.39997H43.4794ZM45.3861 9.46664C45.2928 9.39997 45.1728 9.35998 45.0394 9.35998C44.8128 9.35998 44.5994 9.43997 44.3994 9.61331C44.2394 9.75997 44.1328 9.91997 44.0928 10.0933C44.0394 10.2933 44.0661 10.4666 44.1594 10.6133C44.2661 10.76 44.4128 10.8266 44.6128 10.8266C44.7461 10.8266 44.8794 10.7866 45.0261 10.72L45.1061 10.4666C45.0661 10.4933 45.0261 10.52 44.9861 10.5466C44.9461 10.5733 44.9194 10.5866 44.8794 10.6C44.8261 10.6266 44.7594 10.64 44.6794 10.64C44.5328 10.64 44.4261 10.5866 44.3594 10.4933C44.2928 10.3866 44.2794 10.2666 44.3194 10.12C44.3594 9.97331 44.4528 9.83997 44.5728 9.74664C44.7061 9.63997 44.8394 9.58664 44.9861 9.58664C45.1194 9.58664 45.2261 9.63997 45.3194 9.74664L45.3861 9.46664ZM47.5861 9.59997L47.6394 9.39997H46.7861L46.7328 9.59997H47.0528L46.7194 10.8133H46.9328L47.2661 9.59997H47.5861ZM47.8528 10.0933C47.7861 10.32 47.8128 10.5066 47.9328 10.64C48.0394 10.7733 48.1861 10.8266 48.3728 10.8266C48.5728 10.8266 48.7728 10.76 48.9594 10.6133C49.1461 10.4666 49.2661 10.3066 49.3194 10.0933C49.3728 9.89331 49.3461 9.71997 49.2528 9.57331C49.1461 9.42664 48.9994 9.35998 48.7994 9.35998C48.5994 9.35998 48.3994 9.42664 48.2128 9.57331C48.0394 9.71997 47.9194 9.89331 47.8528 10.0933ZM48.0661 10.0933C48.1061 9.94664 48.1994 9.82664 48.3194 9.71997C48.4528 9.61331 48.5861 9.55998 48.7328 9.55998C48.8794 9.55998 48.9994 9.61331 49.0661 9.71997C49.1328 9.82664 49.1461 9.94664 49.1061 10.0933C49.0661 10.24 48.9728 10.3733 48.8528 10.4666C48.7194 10.5733 48.5861 10.6133 48.4394 10.6133C48.3061 10.6133 48.1994 10.56 48.1194 10.4666C48.0394 10.3866 48.0261 10.2533 48.0661 10.0933ZM50.1328 9.39997L49.7328 10.8133H50.3594L50.4128 10.6133H49.9994L50.3328 9.39997H50.1328ZM51.2928 9.39997L50.9061 10.8133H51.5328L51.5861 10.6133H51.1728L51.5061 9.39997H51.2928ZM54.3994 9.46664C54.2928 9.39997 54.1861 9.35998 54.0661 9.35998C53.8394 9.35998 53.6261 9.43997 53.4261 9.61331C53.2661 9.75997 53.1594 9.91997 53.1194 10.0933C53.0661 10.2933 53.0928 10.4666 53.1861 10.6133C53.2928 10.76 53.4394 10.8266 53.6394 10.8266C53.7728 10.8266 53.9061 10.7866 54.0528 10.72L54.1194 10.4666C54.0794 10.4933 54.0394 10.52 53.9994 10.5466C53.9594 10.5733 53.9328 10.5866 53.8928 10.6C53.8394 10.6266 53.7728 10.64 53.6928 10.64C53.5461 10.64 53.4394 10.5866 53.3728 10.4933C53.3061 10.3866 53.2794 10.2666 53.3328 10.12C53.3728 9.97331 53.4661 9.83997 53.5861 9.74664C53.7194 9.63997 53.8528 9.58664 53.9994 9.58664C54.1328 9.58664 54.2394 9.63997 54.3328 9.74664L54.3994 9.46664ZM54.7461 10.0933C54.6794 10.32 54.7061 10.5066 54.8261 10.64C54.9328 10.7733 55.0794 10.8266 55.2661 10.8266C55.4794 10.8266 55.6661 10.76 55.8528 10.6133C56.0394 10.4666 56.1594 10.3066 56.2128 10.0933C56.2661 9.89331 56.2528 9.71997 56.1461 9.57331C56.0394 9.42664 55.8928 9.35998 55.6928 9.35998C55.4928 9.35998 55.2928 9.42664 55.1061 9.57331C54.9328 9.71997 54.8128 9.89331 54.7461 10.0933ZM54.9728 10.0933C55.0128 9.94664 55.1061 9.82664 55.2261 9.71997C55.3594 9.61331 55.4928 9.55998 55.6394 9.55998C55.7861 9.55998 55.8928 9.61331 55.9728 9.71997C56.0394 9.82664 56.0661 9.94664 56.0128 10.0933C55.9728 10.24 55.8794 10.3733 55.7461 10.4666C55.6128 10.5733 55.4794 10.6133 55.3328 10.6133C55.1994 10.6133 55.0928 10.56 55.0128 10.4666C54.9461 10.3866 54.9194 10.2533 54.9728 10.0933ZM57.0261 9.39997L56.6261 10.8133H57.2528L57.3061 10.6133H56.8928L57.2261 9.39997H57.0261ZM58.1994 9.39997L57.7994 10.8133H58.4261L58.4794 10.6133H58.0661L58.3994 9.39997H58.1994ZM60.1461 9.39997H59.3728L58.9728 10.8133H59.7594L59.8128 10.6133H59.2394L59.3728 10.1466H59.9194L59.9728 9.94664H59.4261L59.5194 9.61331H60.0794L60.1461 9.39997ZM61.7728 9.46664C61.6661 9.39997 61.5594 9.35998 61.4394 9.35998C61.2128 9.35998 60.9994 9.43997 60.7994 9.61331C60.6394 9.75997 60.5328 9.91997 60.4928 10.0933C60.4394 10.2933 60.4661 10.4666 60.5594 10.6133C60.6661 10.76 60.8128 10.8266 61.0128 10.8266C61.1461 10.8266 61.2794 10.7866 61.4261 10.72L61.5061 10.4666C61.4661 10.4933 61.4261 10.52 61.3861 10.5466C61.3461 10.5733 61.3194 10.5866 61.2794 10.6C61.2128 10.6266 61.1461 10.64 61.0794 10.64C60.9328 10.64 60.8261 10.5866 60.7594 10.4933C60.6928 10.3866 60.6661 10.2666 60.7194 10.12C60.7594 9.97331 60.8528 9.83997 60.9728 9.74664C61.1061 9.63997 61.2394 9.58664 61.3861 9.58664C61.5194 9.58664 61.6261 9.63997 61.7194 9.74664L61.7728 9.46664ZM63.0661 9.59997L63.1194 9.39997H62.2661L62.2128 9.59997H62.5328L62.1994 10.8133H62.4128L62.7461 9.59997H63.0661ZM63.6394 9.39997L63.2394 10.8133H63.4528L63.8528 9.39997H63.6394ZM64.2661 10.0933C64.1994 10.32 64.2261 10.5066 64.3461 10.64C64.4528 10.7733 64.5994 10.8266 64.7861 10.8266C64.9861 10.8266 65.1861 10.76 65.3728 10.6133C65.5594 10.4666 65.6794 10.3066 65.7328 10.0933C65.7861 9.89331 65.7594 9.71997 65.6661 9.57331C65.5594 9.42664 65.4128 9.35998 65.2128 9.35998C65.0128 9.35998 64.8128 9.42664 64.6261 9.57331C64.4394 9.71997 64.3194 9.89331 64.2661 10.0933ZM64.4794 10.0933C64.5194 9.94664 64.5994 9.82664 64.7328 9.71997C64.8661 9.61331 64.9994 9.55998 65.1461 9.55998C65.2928 9.55998 65.3994 9.61331 65.4794 9.71997C65.5461 9.82664 65.5728 9.94664 65.5194 10.0933C65.4794 10.24 65.3861 10.3733 65.2528 10.4666C65.1194 10.5733 64.9861 10.6133 64.8394 10.6133C64.7061 10.6133 64.5994 10.56 64.5194 10.4666C64.4528 10.3866 64.4394 10.2533 64.4794 10.0933ZM66.3594 10.8133L66.6394 9.82664L67.3728 10.8933L67.7994 9.39997H67.5861L67.3061 10.3866L66.5728 9.30664L66.1461 10.8133H66.3594V10.8133Z" fill="#6D6E71"/>
<path d="M67.1996 0L69.2929 4.16L64.9062 8.29333L67.1996 0Z" fill="#008C44"/>
<path d="M65.7461 0L67.8261 4.16L63.4395 8.29333L65.7461 0Z" fill="#F47920"/>
<path d="M27.9074 8.387L21.2541 2.947L19.7608 8.36033H18.1074L20.4141 0.027006L27.0674 5.45367L28.5741 0.0136719H30.2274L27.9074 8.387ZM62.2141 6.707H53.9207L55.3207 1.64034H63.6141L63.8274 0.853672C63.8941 0.613672 63.8674 0.413672 63.7607 0.253672C63.6407 0.0936722 63.4674 0.0136719 63.2274 0.0136719H54.9341C54.7074 0.0136719 54.4807 0.0936722 54.2807 0.253672C54.0807 0.413672 53.9474 0.613672 53.8807 0.853672L52.0407 7.507C51.9741 7.747 52.0007 7.93367 52.1074 8.09367C52.2274 8.25367 52.4007 8.33367 52.6274 8.33367H60.9207C61.1474 8.33367 61.3741 8.25367 61.5741 8.09367C61.7741 7.93367 61.9207 7.73367 61.9741 7.507L62.2141 6.707ZM42.7474 0.0136719L42.2941 1.62701H46.4807L44.6274 8.32033H46.2807L48.1341 1.62701H52.2141H52.2274L52.6674 0.0136719H42.7474V0.0136719ZM40.5741 0.0136719H32.2807C32.2274 0.0136719 32.1874 0.0136727 32.1474 0.027006C31.9607 0.0536727 31.8007 0.133671 31.6274 0.267004C31.4274 0.427004 31.2941 0.627004 31.2274 0.867004L29.3874 7.52033C29.3207 7.76033 29.3474 7.947 29.4541 8.107C29.5741 8.267 29.7474 8.347 29.9741 8.347H30.8007H37.4541H38.2674C38.4941 8.347 38.7207 8.267 38.9207 8.107C39.1207 7.947 39.2674 7.747 39.3207 7.52033L39.5474 6.72033H37.9074H31.2674L31.7341 5.01367H38.3741L38.8274 3.387H32.1874L32.6674 1.65367H39.3074H40.9474L41.1741 0.867004C41.2407 0.627004 41.2141 0.427004 41.1074 0.267004C40.9874 0.093671 40.8141 0.0136719 40.5741 0.0136719Z" fill="#6D6E71"/>
</svg>
