<svg width="24" height="24" viewBox="0 0 24 24" fill="none" xmlns="http://www.w3.org/2000/svg">
<path d="M21 15C21 15.5304 20.7893 16.0391 20.4142 16.4142C20.0391 16.7893 19.5304 17 19 17H7L3 21V5C3 4.46957 3.21071 3.96086 3.58579 3.58579C3.96086 3.21071 4.46957 3 5 3H19C19.5304 3 20.0391 3.21071 20.4142 3.58579C20.7893 3.96086 21 4.46957 21 5V15Z" stroke="#212121" stroke-linecap="round" stroke-linejoin="round"/>
<path d="M10 7.60376C10.1881 7.06903 10.5594 6.61813 11.0481 6.33092C11.5368 6.04371 12.1113 5.93872 12.67 6.03455C13.2287 6.13038 13.7355 6.42085 14.1005 6.8545C14.4656 7.28815 14.6654 7.837 14.6645 8.40384C14.6645 10.004 12.2642 10.8041 12.2642 10.8041M12.3283 14.0045H12.3363" stroke="#212121" stroke-linecap="round" stroke-linejoin="round"/>
</svg>
