<svg width="20" height="17" viewBox="0 0 20 17" fill="none" xmlns="http://www.w3.org/2000/svg">
<path d="M1 8.72792C1 8.08105 5.11895 3.20792 10.2 3.20792C11.3311 3.22072 12.4498 3.44462 13.4987 3.86811L12.9214 4.44565C12.0495 4.12434 11.1291 3.95464 10.2 3.94392C5.84722 3.94392 2.35844 7.78849 1.78826 8.72792C2.75602 10.0419 3.97232 11.1531 5.36816 11.9986L4.83721 12.5297C2.51653 11.0588 1 9.11962 1 8.72792ZM15.5702 4.9189L15.0293 5.45979C16.4429 6.2851 17.6672 7.39847 18.6226 8.72763C18.0628 9.75788 14.4099 13.5119 10.2 13.5119C9.26928 13.5033 8.34686 13.3358 7.47253 13.0167L6.90515 13.5838C7.95215 14.0095 9.06981 14.2348 10.2 14.2479C15.281 14.2479 19.4 9.41792 19.4 8.72792C19.4 8.31068 17.8865 6.38082 15.5702 4.9189ZM10.2 6.88792C10.2849 6.89051 10.3696 6.89917 10.4533 6.91383L11.0574 6.30935C10.6001 6.14075 10.1041 6.10669 9.62801 6.2112C9.15194 6.3157 8.71578 6.5544 8.37113 6.89905C8.02648 7.2437 7.78778 7.67986 7.68327 8.15593C7.57877 8.632 7.61283 9.12805 7.78143 9.58536L8.38561 8.98125C8.37114 8.89751 8.36259 8.81286 8.36 8.72792C8.36056 8.2401 8.5546 7.77241 8.89955 7.42747C9.24449 7.08252 9.71218 6.88849 10.2 6.88792ZM10.2 10.5679C10.1151 10.5655 10.0304 10.5569 9.94674 10.5424L9.34256 11.1465C9.79989 11.3151 10.296 11.3492 10.772 11.2447C11.2481 11.1402 11.6843 10.9015 12.029 10.5568C12.3737 10.2122 12.6124 9.77598 12.7169 9.29989C12.8214 8.8238 12.7873 8.32774 12.6186 7.87041L12.0145 8.47489C12.0289 8.55853 12.0374 8.64308 12.04 8.72792C12.0394 9.21575 11.8454 9.68343 11.5005 10.0284C11.1555 10.3733 10.6878 10.5674 10.2 10.5679ZM17.8202 1.10775C17.7512 1.03876 17.6576 1 17.56 1C17.4624 1 17.3688 1.03876 17.2998 1.10775L2.57982 15.8277C2.54468 15.8617 2.51664 15.9023 2.49735 15.9472C2.47807 15.9921 2.46792 16.0404 2.46749 16.0892C2.46707 16.1381 2.47638 16.1866 2.49488 16.2318C2.51338 16.277 2.54071 16.3181 2.57526 16.3527C2.60982 16.3872 2.6509 16.4145 2.69613 16.433C2.74135 16.4515 2.78981 16.4609 2.83868 16.4604C2.88754 16.46 2.93583 16.4499 2.98072 16.4306C3.02562 16.4113 3.06623 16.3832 3.10018 16.3481L17.8202 1.6281C17.8892 1.55909 17.9279 1.4655 17.9279 1.36792C17.9279 1.27034 17.8892 1.17676 17.8202 1.10775Z" fill="#E7503D" stroke="#E7503D" stroke-width="0.5"/>
</svg>
