<svg width="25" height="23" viewBox="0 0 25 23" fill="none" xmlns="http://www.w3.org/2000/svg">
<path d="M23.8506 11.1213L12.8108 1.00147C12.7258 0.923881 12.615 0.880859 12.4999 0.880859C12.3849 0.880859 12.274 0.923881 12.1891 1.00147L1.1492 11.1213C1.05925 11.2038 1.00574 11.3186 1.00044 11.4405C0.99513 11.5624 1.03847 11.6814 1.12091 11.7714C1.20336 11.8613 1.31816 11.9148 1.44006 11.9201C1.56197 11.9254 1.68098 11.8821 1.77093 11.7996L3.76013 9.97623V20.7408C3.76013 21.1068 3.90552 21.4578 4.16432 21.7166C4.42311 21.9754 4.77412 22.1208 5.14011 22.1208H19.8599C20.2259 22.1208 20.5769 21.9754 20.8357 21.7166C21.0945 21.4578 21.2399 21.1068 21.2399 20.7408V9.97669L23.2289 11.7996C23.3189 11.882 23.4379 11.9253 23.5598 11.92C23.6817 11.9147 23.7965 11.8612 23.8789 11.7713C23.9614 11.6813 24.0047 11.5623 23.9994 11.4404C23.9941 11.3185 23.9406 11.2038 23.8506 11.1213ZM20.3199 9.16094V20.7408C20.3199 20.8628 20.2714 20.9798 20.1852 21.0661C20.0989 21.1523 19.9819 21.2008 19.8599 21.2008H12.5H5.14011C5.01811 21.2008 4.90111 21.1523 4.81485 21.0661C4.72858 20.9798 4.68012 20.8628 4.68012 20.7408V9.16094H4.64976L12.5 1.96451L20.3502 9.16094H20.3199Z" fill="#E7503D" stroke="#E7503D" stroke-width="0.5"/>
</svg>
