<svg width="25" height="24" viewBox="0 0 25 24" fill="none" xmlns="http://www.w3.org/2000/svg">
<path d="M3.5 9.48908C3.5 9.18049 3.64247 8.88919 3.88606 8.69973L11.8861 2.47751C12.2472 2.19665 12.7528 2.19665 13.1139 2.47751L21.1139 8.69973C21.3575 8.88919 21.5 9.18049 21.5 9.48908V20C21.5 20.5304 21.2893 21.0391 20.9142 21.4142C20.5391 21.7893 20.0304 22 19.5 22H5.5C4.96957 22 4.46086 21.7893 4.08579 21.4142C3.71071 21.0391 3.5 20.5304 3.5 20V9.48908Z" fill="white"/>
<path d="M9.5 21.5V12H15.5V21.5" fill="white"/>
<path d="M9.5 21.5V12H15.5V21.5M21.5 20V9.48908C21.5 9.18049 21.3575 8.88919 21.1139 8.69973L13.1139 2.47751C12.7528 2.19665 12.2472 2.19665 11.8861 2.47751L3.88606 8.69973C3.64247 8.88919 3.5 9.18049 3.5 9.48908V20C3.5 20.5304 3.71071 21.0391 4.08579 21.4142C4.46086 21.7893 4.96957 22 5.5 22H19.5C20.0304 22 20.5391 21.7893 20.9142 21.4142C21.2893 21.0391 21.5 20.5304 21.5 20Z" stroke="#E7503D" stroke-linejoin="round"/>
</svg>
