<svg width="35" height="36" viewBox="0 0 35 36" fill="none" xmlns="http://www.w3.org/2000/svg">
<path d="M33.84 34.56H31.68V16.56C31.68 15.9871 31.4524 15.4377 31.0473 15.0326C30.6423 14.6276 30.0929 14.4 29.52 14.4H24.48V6.48C24.4794 5.90732 24.2516 5.35827 23.8467 4.95332C23.4417 4.54838 22.8927 4.32061 22.32 4.32H19.7633C19.3228 3.05781 18.5005 1.9639 17.4106 1.18987C16.3206 0.415831 15.0169 0 13.68 0C12.3431 0 11.0394 0.415831 9.94943 1.18987C8.85946 1.9639 8.03724 3.05781 7.59672 4.32H5.04C4.46732 4.32061 3.91827 4.54838 3.51332 4.95332C3.10838 5.35827 2.88061 5.90732 2.88 6.48V34.56H0.72C0.529044 34.56 0.345909 34.6359 0.210883 34.7709C0.0758569 34.9059 0 35.089 0 35.28C0 35.471 0.0758569 35.6541 0.210883 35.7891C0.345909 35.9241 0.529044 36 0.72 36H33.84C34.031 36 34.2141 35.9241 34.3491 35.7891C34.4841 35.6541 34.56 35.471 34.56 35.28C34.56 35.089 34.4841 34.9059 34.3491 34.7709C34.2141 34.6359 34.031 34.56 33.84 34.56ZM13.68 1.44C14.6768 1.44 15.6513 1.73559 16.4801 2.28939C17.3089 2.8432 17.9549 3.63034 18.3364 4.55128C18.7178 5.47222 18.8176 6.48559 18.6232 7.46326C18.4287 8.44092 17.9487 9.33896 17.2438 10.0438C16.539 10.7487 15.6409 11.2287 14.6633 11.4232C13.6856 11.6176 12.6722 11.5178 11.7513 11.1364C10.8303 10.7549 10.0432 10.1089 9.48939 9.28007C8.93559 8.45125 8.64 7.47682 8.64 6.48C8.64149 5.14377 9.17296 3.86268 10.1178 2.91782C11.0627 1.97296 12.3438 1.44149 13.68 1.44ZM17.28 34.56H10.08V25.92H17.28V34.56ZM23.04 11.049V34.56H18.72V25.92C18.72 25.5381 18.5683 25.1718 18.2982 24.9018C18.0282 24.6317 17.6619 24.48 17.28 24.48H10.08C9.69809 24.48 9.33182 24.6317 9.06177 24.9018C8.79171 25.1718 8.64 25.5381 8.64 25.92V34.56H4.32V6.48C4.32038 6.28916 4.39636 6.10625 4.5313 5.9713C4.66625 5.83636 4.84916 5.76038 5.04 5.76H7.272C7.23435 5.99844 7.21031 6.23883 7.2 6.48C7.2 8.1986 7.88271 9.84682 9.09795 11.0621C10.3132 12.2773 11.9614 12.96 13.68 12.96C15.3986 12.96 17.0468 12.2773 18.2621 11.0621C19.4773 9.84682 20.16 8.1986 20.16 6.48C20.1497 6.23883 20.1257 5.99844 20.088 5.76H22.32C22.5108 5.76038 22.6938 5.83636 22.8287 5.9713C22.9636 6.10625 23.0396 6.28916 23.04 6.48V11.049ZM30.24 34.56H24.48V15.84H29.52C29.711 15.84 29.8941 15.9159 30.0291 16.0509C30.1641 16.1859 30.24 16.369 30.24 16.56V34.56ZM11.52 6.48C11.52 6.28904 11.5959 6.10591 11.7309 5.97088C11.8659 5.83586 12.049 5.76 12.24 5.76H12.96V5.04C12.96 4.84904 13.0359 4.66591 13.1709 4.53088C13.3059 4.39586 13.489 4.32 13.68 4.32C13.871 4.32 14.0541 4.39586 14.1891 4.53088C14.3241 4.66591 14.4 4.84904 14.4 5.04V5.76H15.12C15.311 5.76 15.4941 5.83586 15.6291 5.97088C15.7641 6.10591 15.84 6.28904 15.84 6.48C15.84 6.67096 15.7641 6.85409 15.6291 6.98912C15.4941 7.12414 15.311 7.2 15.12 7.2H14.4V7.92C14.4 8.11096 14.3241 8.29409 14.1891 8.42912C14.0541 8.56414 13.871 8.64 13.68 8.64C13.489 8.64 13.3059 8.56414 13.1709 8.42912C13.0359 8.29409 12.96 8.11096 12.96 7.92V7.2H12.24C12.049 7.2 11.8659 7.12414 11.7309 6.98912C11.5959 6.85409 11.52 6.67096 11.52 6.48ZM18.72 20.88C18.72 21.071 18.6441 21.2541 18.5091 21.3891C18.3741 21.5241 18.191 21.6 18 21.6H9.36C9.16904 21.6 8.98591 21.5241 8.85088 21.3891C8.71586 21.2541 8.64 21.071 8.64 20.88C8.64 20.689 8.71586 20.5059 8.85088 20.3709C8.98591 20.2359 9.16904 20.16 9.36 20.16H18C18.191 20.16 18.3741 20.2359 18.5091 20.3709C18.6441 20.5059 18.72 20.689 18.72 20.88ZM18.72 16.56C18.72 16.751 18.6441 16.9341 18.5091 17.0691C18.3741 17.2041 18.191 17.28 18 17.28H9.36C9.16904 17.28 8.98591 17.2041 8.85088 17.0691C8.71586 16.9341 8.64 16.751 8.64 16.56C8.64 16.369 8.71586 16.1859 8.85088 16.0509C8.98591 15.9159 9.16904 15.84 9.36 15.84H18C18.191 15.84 18.3741 15.9159 18.5091 16.0509C18.6441 16.1859 18.72 16.369 18.72 16.56Z" fill="#E7503D"/>
</svg>
