<svg width="36" height="36" viewBox="0 0 36 36" fill="none" xmlns="http://www.w3.org/2000/svg">
<path d="M35.2819 34.56H34.5619V23.4C34.5618 23.0833 34.4921 22.7705 34.3578 22.4838C34.2234 22.1971 34.0276 21.9434 33.7843 21.7407L30.2419 18.7878V6.48C30.2419 5.90713 30.0143 5.35773 29.6092 4.95265C29.2042 4.54757 28.6548 4.32 28.0819 4.32H25.9219V2.16C25.9219 1.58713 25.6943 1.03773 25.2892 0.632649C24.8842 0.227571 24.3348 0 23.7619 0L15.1219 0C14.549 0 13.9996 0.227571 13.5945 0.632649C13.1895 1.03773 12.9619 1.58713 12.9619 2.16V4.32H10.8019C10.229 4.32 9.67962 4.54757 9.27454 4.95265C8.86946 5.35773 8.64189 5.90713 8.64189 6.48V34.56H4.32189V25.8336C5.20128 25.5438 5.96034 24.9716 6.48113 24.2061C7.00192 23.4405 7.2553 22.5244 7.20189 21.6C7.28844 20.5516 6.95956 19.5112 6.28613 18.7031C5.6127 17.895 4.64867 17.3839 3.60189 17.28C2.5551 17.3839 1.59108 17.895 0.917649 18.7031C0.244221 19.5112 -0.0846687 20.5516 0.00188777 21.6C-0.0514983 22.5244 0.201886 23.4405 0.722677 24.2061C1.24347 24.9716 2.00251 25.5438 2.88189 25.8336V34.56H0.721888C0.530932 34.56 0.347797 34.6359 0.212771 34.7709C0.0777447 34.9059 0.00188777 35.089 0.00188777 35.28C0.00188777 35.471 0.0777447 35.6541 0.212771 35.7891C0.347797 35.9241 0.530932 36 0.721888 36H35.2819C35.4728 36 35.656 35.9241 35.791 35.7891C35.926 35.6541 36.0019 35.471 36.0019 35.28C36.0019 35.089 35.926 34.9059 35.791 34.7709C35.656 34.6359 35.4728 34.56 35.2819 34.56ZM1.44189 21.6C1.44189 20.0388 2.43117 18.72 3.60189 18.72C4.77261 18.72 5.76189 20.039 5.76189 21.6C5.76189 23.161 4.77275 24.48 3.60189 24.48C2.43102 24.48 1.44189 23.1617 1.44189 21.6ZM12.9619 34.56H10.0819V6.48C10.0821 6.28911 10.158 6.10611 10.293 5.97114C10.428 5.83616 10.611 5.76023 10.8019 5.76H12.9619V34.56ZM25.9219 5.76H28.0819C28.2728 5.76023 28.4558 5.83616 28.5908 5.97114C28.7257 6.10611 28.8017 6.28911 28.8019 6.48V17.5876L27.3043 16.3398C26.9163 16.0164 26.427 15.8395 25.9219 15.84V5.76ZM17.2819 23.4V34.56H14.4019V2.16C14.4021 1.96911 14.478 1.78611 14.613 1.65114C14.748 1.51616 14.931 1.44023 15.1219 1.44H23.7619C23.9528 1.44023 24.1358 1.51616 24.2708 1.65114C24.4057 1.78611 24.4817 1.96911 24.4819 2.16V16.3872L18.0595 21.7394C17.816 21.9422 17.6201 22.1961 17.4857 22.4831C17.3513 22.7701 17.2818 23.0831 17.2819 23.4ZM28.8019 34.56H23.0419V27.36H28.8019V34.56ZM33.1219 34.56H30.2419V27.36C30.2419 26.9781 30.0902 26.6118 29.8201 26.3418C29.5501 26.0717 29.1838 25.92 28.8019 25.92H23.0419C22.66 25.92 22.2937 26.0717 22.0237 26.3418C21.7536 26.6118 21.6019 26.9781 21.6019 27.36V34.56H18.7219V23.4C18.7218 23.2945 18.745 23.1902 18.7898 23.0946C18.8346 22.999 18.8999 22.9145 18.9811 22.847L25.4611 17.447C25.5905 17.3393 25.7535 17.2803 25.9219 17.2803C26.0903 17.2803 26.2533 17.3393 26.3827 17.447L32.8627 22.847C32.9438 22.9145 33.0091 22.9991 33.0539 23.0946C33.0987 23.1902 33.1219 23.2945 33.1219 23.4V34.56ZM21.6019 6.48C21.6019 6.67096 21.526 6.85409 21.391 6.98912C21.256 7.12414 21.0728 7.2 20.8819 7.2H18.0019C17.8109 7.2 17.6278 7.12414 17.4928 6.98912C17.3577 6.85409 17.2819 6.67096 17.2819 6.48C17.2819 6.28904 17.3577 6.10591 17.4928 5.97088C17.6278 5.83586 17.8109 5.76 18.0019 5.76H20.8819C21.0728 5.76 21.256 5.83586 21.391 5.97088C21.526 6.10591 21.6019 6.28904 21.6019 6.48ZM21.6019 10.8C21.6019 10.991 21.526 11.1741 21.391 11.3091C21.256 11.4441 21.0728 11.52 20.8819 11.52H18.0019C17.8109 11.52 17.6278 11.4441 17.4928 11.3091C17.3577 11.1741 17.2819 10.991 17.2819 10.8C17.2819 10.609 17.3577 10.4259 17.4928 10.2909C17.6278 10.1559 17.8109 10.08 18.0019 10.08H20.8819C21.0728 10.08 21.256 10.1559 21.391 10.2909C21.526 10.4259 21.6019 10.609 21.6019 10.8ZM21.6019 15.12C21.6019 15.311 21.526 15.4941 21.391 15.6291C21.256 15.7641 21.0728 15.84 20.8819 15.84H18.0019C17.8109 15.84 17.6278 15.7641 17.4928 15.6291C17.3577 15.4941 17.2819 15.311 17.2819 15.12C17.2819 14.929 17.3577 14.7459 17.4928 14.6109C17.6278 14.4759 17.8109 14.4 18.0019 14.4H20.8819C21.0728 14.4 21.256 14.4759 21.391 14.6109C21.526 14.7459 21.6019 14.929 21.6019 15.12Z" fill="#E7503D"/>
</svg>
