<svg width="100" height="50" viewBox="0 0 100 50" fill="none" xmlns="http://www.w3.org/2000/svg">
<path d="M97.3071 24.2143H87.2283V17.3415H95.5073C96.907 17.3415 98.067 16.1826 98.067 14.7841C98.067 13.3856 96.907 12.2268 95.5073 12.2268H87.2283V5.39395H96.9471C98.3469 5.39395 99.5067 4.23517 99.5067 2.83662C99.5067 1.43809 98.3469 0.279297 96.9471 0.279297H85.0687C85.0287 0.279297 84.9486 0.279297 84.9087 0.279297C84.8687 0.279297 84.7886 0.279297 84.7487 0.279297C83.3489 0.279297 82.189 1.43809 82.189 2.83662V26.7317C82.189 28.1302 83.3489 29.289 84.7487 29.289H97.3471C98.7468 29.289 99.9066 28.1302 99.9066 26.7317C99.8667 25.3731 98.7468 24.2143 97.3071 24.2143Z" fill="#870016"/>
<path d="M71.9504 29.33C70.5507 29.33 69.3909 28.1712 69.3909 26.7727V2.87764C69.3909 1.47911 70.5507 0.320312 71.9504 0.320312C73.3503 0.320312 74.5101 1.47911 74.5101 2.87764V26.7727C74.5101 28.1712 73.3903 29.33 71.9504 29.33Z" fill="#870016"/>
<path d="M35.2353 2.87764C35.2353 1.47911 34.0755 0.320312 32.6758 0.320312C31.2759 0.320312 30.1161 1.47911 30.1161 2.87764V18.9808L17.1978 1.31927C16.3179 0.200439 14.7181 0.000647038 13.6382 0.879729C13.1583 1.27931 12.8383 1.79877 12.7183 2.35818V2.39814C12.7183 2.47805 12.6783 2.51802 12.6783 2.59793C12.6783 2.63789 12.6783 2.63789 12.6783 2.67785C12.6783 2.7178 12.6783 2.79773 12.6783 2.83768V2.87764V26.7727C12.6783 28.1712 13.8382 29.33 15.238 29.33C16.6379 29.33 17.7977 28.1712 17.7977 26.7727V10.6695L30.7559 28.331C30.7559 28.331 30.7559 28.331 30.7559 28.3709C30.796 28.411 30.836 28.4509 30.8759 28.4908C30.9159 28.5309 30.9159 28.5309 30.9559 28.5708C30.996 28.6107 31.0359 28.6508 31.0359 28.6508C31.0759 28.6907 31.0759 28.6907 31.1159 28.7306C31.156 28.7706 31.1959 28.7706 31.1959 28.8106C31.2359 28.8505 31.2759 28.8505 31.3158 28.8905C31.3559 28.9304 31.3959 28.9304 31.4359 28.9704C31.4758 29.0103 31.5158 29.0103 31.5559 29.0503C31.5959 29.0902 31.6358 29.0902 31.6758 29.1302C31.7159 29.1302 31.7159 29.1702 31.7559 29.1702C31.7958 29.2101 31.8758 29.2101 31.9159 29.2101C31.9558 29.2101 31.9558 29.2101 31.9958 29.25C32.0358 29.25 32.1158 29.2901 32.1558 29.2901C32.1958 29.2901 32.1958 29.2901 32.2357 29.33C32.2758 29.33 32.3158 29.33 32.3957 29.3699C32.4357 29.3699 32.4758 29.3699 32.5158 29.3699C32.5557 29.3699 32.5957 29.3699 32.6356 29.3699C32.6758 29.3699 32.7157 29.3699 32.7557 29.3699H32.7957C32.8358 29.3699 32.8358 29.3699 32.8757 29.3699C32.9157 29.3699 32.9556 29.3699 33.0357 29.3699C33.0757 29.3699 33.1157 29.3699 33.1556 29.3699C33.1956 29.3699 33.2357 29.3699 33.2757 29.33C33.3156 29.33 33.3556 29.33 33.3957 29.2901C33.4356 29.2901 33.4756 29.2901 33.5156 29.25C33.5555 29.25 33.5956 29.2101 33.6356 29.2101C33.6756 29.2101 33.7155 29.1702 33.7556 29.1702C33.7956 29.1702 33.8356 29.1302 33.8755 29.1302C33.9155 29.1302 33.9556 29.0902 33.9956 29.0902C34.0355 29.0503 34.0755 29.0503 34.1155 29.0103C34.1556 29.0103 34.1955 28.9704 34.1955 28.9704C34.2355 28.9304 34.2755 28.9304 34.3156 28.8905C34.3555 28.8905 34.3555 28.8505 34.3955 28.8505C34.3955 28.8505 34.3955 28.8505 34.4355 28.8106C34.4754 28.7706 34.5155 28.7706 34.5555 28.7306C34.5955 28.6907 34.6354 28.6907 34.6354 28.6508C34.6754 28.6107 34.6754 28.6107 34.7155 28.5708C34.7555 28.5309 34.7954 28.4908 34.7954 28.4509C34.7954 28.411 34.8354 28.411 34.8354 28.3709C34.8755 28.331 34.9155 28.2911 34.9155 28.2511C34.9155 28.2111 34.9554 28.2112 34.9554 28.1712C34.9954 28.1313 34.9954 28.0913 35.0354 28.0114C35.0354 27.9714 35.0755 27.9714 35.0755 27.9315C35.1154 27.8916 35.1154 27.8515 35.1554 27.8116C35.1554 27.7717 35.1954 27.7316 35.1954 27.6917C35.1954 27.6518 35.2353 27.6117 35.2353 27.5718C35.2353 27.5319 35.2754 27.4919 35.2754 27.4519C35.2754 27.412 35.3154 27.3721 35.3154 27.3321C35.3154 27.2921 35.3154 27.2522 35.3154 27.2122C35.3154 27.1723 35.3154 27.1324 35.3554 27.0923C35.3554 27.0524 35.3554 27.0125 35.3554 27.0125C35.3554 26.9724 35.3554 26.8926 35.3554 26.8525C35.3554 26.8525 35.3554 26.8525 35.3554 26.8126V2.87764H35.2353Z" fill="#870016"/>
<path d="M5.11933 26.7727C5.11933 28.1712 3.95947 29.33 2.55966 29.33C1.15985 29.33 0 28.1712 0 26.7727V2.87764C0 1.47911 1.15985 0.320312 2.55966 0.320312C3.95947 0.320312 5.11933 1.47911 5.11933 2.87764V26.7727Z" fill="#870016"/>
<path d="M62.3517 9.9496V19.3398C62.3517 22.1369 61.3119 24.6543 59.4322 26.5722C57.6324 28.2905 55.3127 29.2494 52.7131 29.2494H43.1943V0H52.7131C55.3127 0 57.6324 0.958998 59.4322 2.67721C61.3119 4.63515 62.3517 7.15252 62.3517 9.9496Z" fill="#8DC6E8"/>
<path d="M56.8724 4.47442C55.3526 2.55644 53.3928 1.35768 51.1931 1.07798L43.1542 0.0390625V29.2885L51.1931 30.3274C53.3529 30.6071 55.3526 29.8879 56.8724 28.3294C58.4721 26.6512 59.3521 24.2138 59.3521 21.4167V12.0265C59.3521 9.1895 58.4721 6.55226 56.8724 4.47442Z" fill="#870016"/>
<path d="M56.8326 17.3829C57.3406 17.3829 57.7525 16.9715 57.7525 16.4639C57.7525 15.9563 57.3406 15.5449 56.8326 15.5449C56.3246 15.5449 55.9127 15.9563 55.9127 16.4639C55.9127 16.9715 56.3246 17.3829 56.8326 17.3829Z" fill="white"/>
<path d="M1.22129 44.9966C1.44417 45.2968 1.68752 45.5083 1.95134 45.6311C2.2197 45.754 2.51308 45.8154 2.83148 45.8154C3.48193 45.8154 3.98 45.5857 4.32569 45.1263C4.67138 44.6668 4.84423 43.9823 4.84423 43.0726C4.84423 42.2265 4.68958 41.6057 4.38027 41.2099C4.07552 40.8097 3.63886 40.6095 3.07028 40.6095C2.67456 40.6095 2.32887 40.7005 2.03321 40.8824C1.7421 41.0644 1.47146 41.3214 1.22129 41.6534V44.9966ZM1.22129 40.746C1.5124 40.4094 1.8399 40.141 2.20378 39.9409C2.57222 39.7407 2.99523 39.6407 3.47283 39.6407C3.87766 39.6407 4.24154 39.718 4.56449 39.8727C4.89199 40.0273 5.16945 40.2525 5.39688 40.5481C5.62431 40.8392 5.79715 41.194 5.91541 41.6125C6.03823 42.0309 6.09963 42.5017 6.09963 43.0248C6.09963 43.5843 6.0314 44.0937 5.89495 44.5531C5.75849 45.0125 5.56063 45.406 5.30136 45.7335C5.04664 46.0564 4.73506 46.3089 4.36663 46.4908C3.99819 46.6682 3.58427 46.7569 3.12487 46.7569C2.67001 46.7569 2.28566 46.6728 1.9718 46.5045C1.6625 46.3316 1.39186 46.0883 1.15989 45.7744L1.09848 46.4021C1.06209 46.575 0.957474 46.6614 0.784628 46.6614H0V36.6113H1.22129V40.746Z" fill="#870016"/>
<path d="M13.4257 39.7498L9.57076 48.7014C9.52982 48.7924 9.47751 48.8652 9.41383 48.9198C9.3547 48.9743 9.26146 49.0016 9.1341 49.0016H8.23348L9.49571 46.2588L6.64375 39.7498H7.69447C7.79909 39.7498 7.88097 39.7771 7.9401 39.8317C8.00378 39.8817 8.04699 39.9386 8.06973 40.0023L9.91872 44.3553C9.9915 44.5463 10.0529 44.7464 10.1029 44.9557C10.1666 44.7419 10.2348 44.5395 10.3076 44.3484L12.102 40.0023C12.1293 39.9295 12.1748 39.8704 12.2385 39.8249C12.3067 39.7749 12.3818 39.7498 12.4636 39.7498H13.4257Z" fill="#870016"/>
<path d="M18.9862 46.6602H17.2054L18.4063 36.7944H20.187L18.9862 46.6602Z" fill="#870016"/>
<path d="M22.9283 41.1064C23.2831 40.5834 23.6766 40.1945 24.1087 39.9397C24.5408 39.6805 24.9866 39.5508 25.446 39.5508C25.7371 39.5508 25.9986 39.61 26.2306 39.7282C26.4626 39.8465 26.6536 40.0193 26.8037 40.2468C26.9538 40.4696 27.0584 40.7471 27.1176 41.0792C27.1812 41.4066 27.1858 41.7819 27.1312 42.2049L26.6058 46.6602H24.9206L25.446 42.2049C25.5051 41.7501 25.4823 41.4248 25.3777 41.2293C25.2731 41.0291 25.0821 40.929 24.8046 40.929C24.6181 40.929 24.4271 40.9836 24.2315 41.0928C24.0359 41.1974 23.8471 41.3498 23.6652 41.5499C23.4833 41.7455 23.315 41.982 23.1603 42.2595C23.0102 42.5324 22.8874 42.8394 22.7919 43.1806L22.403 46.6602H20.7177L21.5569 39.6532H22.4098C22.5872 39.6532 22.7236 39.6964 22.8192 39.7828C22.9192 39.8692 22.9693 40.008 22.9693 40.199L22.9283 41.1064Z" fill="#870016"/>
<path d="M32.8967 41.2907C32.7421 41.1224 32.5647 41.0041 32.3645 40.9359C32.1644 40.8676 31.9665 40.8335 31.771 40.8335C31.4708 40.8335 31.1978 40.9268 30.9522 41.1133C30.7066 41.2998 30.4951 41.5431 30.3177 41.8433C30.1448 42.1435 30.0107 42.4824 29.9151 42.8599C29.8196 43.2329 29.7719 43.6082 29.7719 43.9857C29.7719 44.4769 29.8515 44.8431 30.0107 45.0842C30.1744 45.3207 30.3996 45.439 30.6861 45.439C30.8681 45.439 31.0546 45.3775 31.2456 45.2547C31.4366 45.1274 31.6209 44.9545 31.7983 44.7362C31.9756 44.5133 32.1394 44.2518 32.2895 43.9516C32.4441 43.6514 32.5761 43.3284 32.6852 42.9827L32.8967 41.2907ZM35.1414 36.5215L33.886 46.6602H32.9922C32.7785 46.6602 32.6329 46.6079 32.5556 46.5033C32.4828 46.3942 32.4464 46.26 32.4464 46.1008L32.5078 45.1251C32.3395 45.3753 32.1599 45.6027 31.9688 45.8074C31.7778 46.0075 31.5776 46.1781 31.3684 46.3191C31.1592 46.4601 30.9408 46.5693 30.7134 46.6466C30.4905 46.7239 30.2608 46.7626 30.0243 46.7626C29.7332 46.7626 29.4694 46.7103 29.2329 46.6057C28.9963 46.4965 28.7939 46.335 28.6256 46.1212C28.4573 45.9075 28.3277 45.6368 28.2367 45.3093C28.1457 44.9818 28.1003 44.5952 28.1003 44.1494C28.1003 43.7537 28.1412 43.3671 28.2231 42.9896C28.3049 42.6075 28.4209 42.2459 28.571 41.9047C28.7211 41.5636 28.8985 41.2497 29.1032 40.9632C29.3125 40.6766 29.5444 40.4287 29.7992 40.2195C30.0539 40.0102 30.3245 39.8465 30.6111 39.7282C30.9022 39.61 31.2024 39.5508 31.5117 39.5508C31.8255 39.5508 32.1098 39.6077 32.3645 39.7214C32.6193 39.8351 32.8421 39.992 33.0332 40.1922L33.4903 36.5215H35.1414Z" fill="#870016"/>
<path d="M42.1153 39.66L41.2692 46.6602H40.4164C40.0161 46.6602 39.816 46.4669 39.816 46.0803L39.8569 45.2752C39.5021 45.7755 39.1132 46.1485 38.6902 46.3942C38.2717 46.6398 37.8373 46.7626 37.387 46.7626C37.0959 46.7626 36.8344 46.7035 36.6024 46.5852C36.3704 46.4669 36.1794 46.2964 36.0293 46.0735C35.8792 45.8461 35.7723 45.5663 35.7086 45.2343C35.6495 44.9022 35.6472 44.5247 35.7018 44.1017L36.2271 39.66H37.9124L37.387 44.1017C37.3279 44.5611 37.3506 44.8909 37.4552 45.091C37.5599 45.2866 37.7509 45.3844 38.0284 45.3844C38.2103 45.3844 38.3945 45.3343 38.581 45.2343C38.7721 45.1342 38.9563 44.9909 39.1337 44.8044C39.3111 44.6179 39.4748 44.3951 39.6249 44.1358C39.775 43.872 39.9001 43.5786 40.0002 43.2556L40.43 39.66H42.1153Z" fill="#870016"/>
<path d="M47.4987 40.9768C47.4487 41.0496 47.4009 41.1019 47.3554 41.1337C47.3099 41.161 47.2508 41.1747 47.178 41.1747C47.0962 41.1747 47.0143 41.1519 46.9324 41.1064C46.8505 41.061 46.755 41.0109 46.6458 40.9563C46.5412 40.8972 46.4184 40.8449 46.2774 40.7994C46.141 40.7539 45.9772 40.7312 45.7862 40.7312C45.4268 40.7312 45.1516 40.8131 44.9606 40.9768C44.7696 41.136 44.674 41.3361 44.674 41.5772C44.674 41.7637 44.74 41.9138 44.8719 42.0275C45.0084 42.1412 45.1789 42.2413 45.3836 42.3277C45.5883 42.4142 45.8066 42.5029 46.0386 42.5938C46.2751 42.6802 46.4957 42.7917 46.7004 42.9281C46.9051 43.0601 47.0734 43.2329 47.2053 43.4467C47.3418 43.6559 47.41 43.9266 47.41 44.2586C47.41 44.5952 47.3418 44.9159 47.2053 45.2206C47.0734 45.5254 46.8824 45.7937 46.6322 46.0257C46.382 46.2531 46.0795 46.4351 45.7248 46.5715C45.3745 46.7035 44.9788 46.7694 44.5376 46.7694C44.3193 46.7694 44.1055 46.7467 43.8962 46.7012C43.687 46.6602 43.4914 46.6011 43.3095 46.5238C43.1321 46.4465 42.9683 46.3555 42.8182 46.2509C42.6681 46.1463 42.5408 46.0325 42.4361 45.9097L42.8523 45.2684C42.9024 45.1911 42.9615 45.1319 43.0297 45.091C43.098 45.0501 43.1821 45.0296 43.2822 45.0296C43.3777 45.0296 43.4641 45.0591 43.5414 45.1183C43.6188 45.1774 43.7075 45.2434 43.8075 45.3161C43.9122 45.3844 44.0372 45.4481 44.1828 45.5072C44.3329 45.5663 44.5239 45.5959 44.7559 45.5959C44.9424 45.5959 45.1062 45.5709 45.2472 45.5208C45.3927 45.4708 45.5155 45.4026 45.6156 45.3161C45.7157 45.2297 45.7907 45.1297 45.8407 45.0159C45.8908 44.9022 45.9158 44.7817 45.9158 44.6543C45.9158 44.4997 45.8771 44.3723 45.7998 44.2722C45.7225 44.1676 45.6179 44.0789 45.486 44.0062C45.3586 43.9288 45.213 43.8629 45.0493 43.8083C44.8856 43.7492 44.7173 43.6878 44.5444 43.6241C44.3761 43.5604 44.2101 43.4876 44.0463 43.4057C43.8871 43.3239 43.7416 43.2215 43.6097 43.0987C43.4823 42.9714 43.38 42.819 43.3026 42.6416C43.2253 42.4596 43.1867 42.239 43.1867 41.9798C43.1867 41.6705 43.2458 41.3703 43.3641 41.0792C43.4823 40.7835 43.6552 40.5242 43.8826 40.3013C44.11 40.0739 44.3898 39.892 44.7218 39.7555C45.0584 39.6191 45.4427 39.5508 45.8749 39.5508C46.3206 39.5508 46.7164 39.6282 47.062 39.7828C47.4077 39.9329 47.6966 40.1262 47.9285 40.3628L47.4987 40.9768Z" fill="#870016"/>
<path d="M50.2354 46.6602H48.4546L49.6555 36.7944H51.4362L50.2354 46.6602Z" fill="#870016"/>
<path d="M54.1775 41.1064C54.5323 40.5834 54.9258 40.1945 55.3579 39.9397C55.79 39.6805 56.2358 39.5508 56.6952 39.5508C56.9863 39.5508 57.2478 39.61 57.4798 39.7282C57.7118 39.8465 57.9028 40.0193 58.0529 40.2468C58.203 40.4696 58.3076 40.7471 58.3668 41.0792C58.4304 41.4066 58.435 41.7819 58.3804 42.2049L57.855 46.6602H56.1698L56.6952 42.2049C56.7543 41.7501 56.7316 41.4248 56.6269 41.2293C56.5223 41.0291 56.3313 40.929 56.0538 40.929C55.8673 40.929 55.6763 40.9836 55.4807 41.0928C55.2851 41.1974 55.0963 41.3498 54.9144 41.5499C54.7325 41.7455 54.5642 41.982 54.4095 42.2595C54.2594 42.5324 54.1366 42.8394 54.0411 43.1806L53.6522 46.6602H51.9669L52.8061 39.6532H53.659C53.8364 39.6532 53.9728 39.6964 54.0684 39.7828C54.1684 39.8692 54.2185 40.008 54.2185 40.199L54.1775 41.1064Z" fill="#870016"/>
<path d="M64.1459 41.2907C63.9913 41.1224 63.8139 41.0041 63.6138 40.9359C63.4136 40.8676 63.2158 40.8335 63.0202 40.8335C62.72 40.8335 62.447 40.9268 62.2014 41.1133C61.9558 41.2998 61.7443 41.5431 61.5669 41.8433C61.3941 42.1435 61.2599 42.4824 61.1643 42.8599C61.0688 43.2329 61.0211 43.6082 61.0211 43.9857C61.0211 44.4769 61.1007 44.8431 61.2599 45.0842C61.4236 45.3207 61.6488 45.439 61.9353 45.439C62.1173 45.439 62.3038 45.3775 62.4948 45.2547C62.6858 45.1274 62.8701 44.9545 63.0475 44.7362C63.2248 44.5133 63.3886 44.2518 63.5387 43.9516C63.6934 43.6514 63.8253 43.3284 63.9344 42.9827L64.1459 41.2907ZM66.3907 36.5215L65.1353 46.6602H64.2415C64.0277 46.6602 63.8821 46.6079 63.8048 46.5033C63.732 46.3942 63.6956 46.26 63.6956 46.1008L63.757 45.1251C63.5887 45.3753 63.4091 45.6027 63.218 45.8074C63.027 46.0075 62.8268 46.1781 62.6176 46.3191C62.4084 46.4601 62.19 46.5693 61.9626 46.6466C61.7397 46.7239 61.51 46.7626 61.2735 46.7626C60.9824 46.7626 60.7186 46.7103 60.4821 46.6057C60.2455 46.4965 60.0431 46.335 59.8748 46.1212C59.7065 45.9075 59.5769 45.6368 59.4859 45.3093C59.395 44.9818 59.3495 44.5952 59.3495 44.1494C59.3495 43.7537 59.3904 43.3671 59.4723 42.9896C59.5542 42.6075 59.6701 42.2459 59.8202 41.9047C59.9703 41.5636 60.1477 41.2497 60.3524 40.9632C60.5617 40.6766 60.7936 40.4287 61.0484 40.2195C61.3031 40.0102 61.5737 39.8465 61.8603 39.7282C62.1514 39.61 62.4516 39.5508 62.7609 39.5508C63.0747 39.5508 63.359 39.6077 63.6138 39.7214C63.8685 39.8351 64.0914 39.992 64.2824 40.1922L64.7395 36.5215H66.3907Z" fill="#870016"/>
<path d="M73.5521 45.282C73.8659 45.282 74.1366 45.2388 74.364 45.1524C74.596 45.066 74.7848 44.9454 74.9303 44.7908C75.0759 44.6316 75.1828 44.4428 75.251 44.2245C75.3238 44.0016 75.3602 43.7583 75.3602 43.4944C75.3602 43.1351 75.2464 42.8485 75.019 42.6348C74.7916 42.421 74.4186 42.3141 73.9001 42.3141H72.2353L71.8737 45.282H73.5521ZM72.747 38.159L72.3854 41.0928H73.6954C74.3049 41.0928 74.7734 40.9495 75.1009 40.663C75.4329 40.3764 75.599 39.9375 75.599 39.3461C75.599 38.9322 75.4807 38.632 75.2442 38.4455C75.0122 38.2545 74.6483 38.159 74.1525 38.159H72.747ZM74.3163 36.7944C74.8621 36.7944 75.3283 36.849 75.7149 36.9581C76.1061 37.0628 76.4245 37.2129 76.6701 37.4085C76.9203 37.604 77.1045 37.8406 77.2228 38.118C77.3411 38.3955 77.4002 38.7048 77.4002 39.0459C77.4002 39.328 77.3615 39.5986 77.2842 39.8579C77.2114 40.1126 77.0954 40.3491 76.9362 40.5674C76.777 40.7858 76.5746 40.9814 76.329 41.1542C76.0834 41.327 75.79 41.4703 75.4488 41.584C76.0083 41.725 76.4245 41.9548 76.6974 42.2732C76.9703 42.587 77.1068 42.9873 77.1068 43.474C77.1068 43.9288 77.0227 44.3518 76.8544 44.743C76.6861 45.1297 76.4427 45.4662 76.1243 45.7528C75.8059 46.0348 75.417 46.2577 74.9576 46.4214C74.5028 46.5806 73.9865 46.6602 73.4088 46.6602H69.936L71.1505 36.7944H74.3163Z" fill="#870016"/>
<path d="M82.6251 40.7653C82.5614 40.7608 82.5 40.7585 82.4409 40.7585C82.3863 40.7539 82.3317 40.7517 82.2771 40.7517C81.8996 40.7517 81.5494 40.8381 81.2264 41.0109C80.9035 41.1838 80.6237 41.418 80.3872 41.7137C80.1552 42.0048 79.971 42.3459 79.8346 42.7371C79.7027 43.1237 79.6367 43.5331 79.6367 43.9652C79.6367 44.4565 79.714 44.8158 79.8687 45.0432C80.0233 45.2707 80.2348 45.3844 80.5032 45.3844C80.6897 45.3844 80.8716 45.3207 81.049 45.1933C81.231 45.0614 81.4015 44.884 81.5607 44.6611C81.7245 44.4337 81.8723 44.1676 82.0042 43.8629C82.1407 43.5581 82.2589 43.2306 82.359 42.8804L82.6251 40.7653ZM82.1612 45.2002C81.8519 45.6778 81.5016 46.0576 81.1104 46.3396C80.7238 46.6216 80.3008 46.7626 79.8414 46.7626C79.5776 46.7626 79.3297 46.7103 79.0977 46.6057C78.8703 46.501 78.6701 46.3464 78.4973 46.1417C78.329 45.9325 78.1948 45.6732 78.0947 45.3639C77.9992 45.0501 77.9515 44.6839 77.9515 44.2654C77.9515 43.847 78.0038 43.4399 78.1084 43.0441C78.213 42.6484 78.3608 42.2777 78.5519 41.932C78.7474 41.5818 78.9817 41.2611 79.2546 40.97C79.5275 40.6789 79.8323 40.4287 80.1689 40.2195C80.51 40.0102 80.8762 39.8488 81.2674 39.735C81.6631 39.6168 82.0793 39.5577 82.5159 39.5577C82.8298 39.5577 83.1436 39.5804 83.4575 39.6259C83.7759 39.6714 84.0852 39.7532 84.3854 39.8715L83.5462 46.6602H82.6524C82.4386 46.6602 82.2931 46.6079 82.2157 46.5033C82.143 46.3942 82.1066 46.26 82.1066 46.1008L82.1612 45.2002Z" fill="#870016"/>
<path d="M87.3057 41.1064C87.6605 40.5834 88.0539 40.1945 88.486 39.9397C88.9182 39.6805 89.3639 39.5508 89.8233 39.5508C90.1144 39.5508 90.376 39.61 90.608 39.7282C90.8399 39.8465 91.031 40.0193 91.1811 40.2468C91.3312 40.4696 91.4358 40.7471 91.4949 41.0792C91.5586 41.4066 91.5632 41.7819 91.5086 42.2049L90.9832 46.6602H89.298L89.8233 42.2049C89.8825 41.7501 89.8597 41.4248 89.7551 41.2293C89.6505 41.0291 89.4594 40.929 89.182 40.929C88.9955 40.929 88.8044 40.9836 88.6089 41.0928C88.4133 41.1974 88.2245 41.3498 88.0426 41.5499C87.8606 41.7455 87.6923 41.982 87.5377 42.2595C87.3876 42.5324 87.2648 42.8394 87.1692 43.1806L86.7803 46.6602H85.0951L85.9343 39.6532H86.7872C86.9645 39.6532 87.101 39.6964 87.1965 39.7828C87.2966 39.8692 87.3466 40.008 87.3466 40.199L87.3057 41.1064Z" fill="#870016"/>
<path d="M95.3637 36.5215L94.6541 42.3277H94.8247C94.9293 42.3277 95.0135 42.3118 95.0771 42.28C95.1454 42.2481 95.2159 42.189 95.2887 42.1026L97.1513 39.9534C97.2286 39.8579 97.3105 39.7851 97.3969 39.735C97.4833 39.685 97.5925 39.66 97.7244 39.66H99.2254L96.9193 42.2595C96.7556 42.4596 96.5782 42.6166 96.3871 42.7303C96.4735 42.794 96.5463 42.8713 96.6055 42.9623C96.6691 43.0532 96.726 43.1533 96.776 43.2625L98.5022 46.6602H97.0421C96.9193 46.6602 96.817 46.6398 96.7351 46.5988C96.6532 46.5534 96.5873 46.4738 96.5372 46.36L95.1795 43.7059C95.1294 43.6013 95.0749 43.5331 95.0157 43.5013C94.9612 43.4694 94.8702 43.4535 94.7428 43.4535H94.5108L94.1219 46.6602H92.4572L93.7057 36.5215H95.3637Z" fill="#870016"/>
</svg>
