<svg width="97" height="13" viewBox="0 0 97 13" fill="none" xmlns="http://www.w3.org/2000/svg">
<path d="M2.704 12H0.616L2.024 0.431999H4.112L2.704 12ZM7.32625 5.488C7.74225 4.87467 8.20358 4.41867 8.71025 4.12C9.21692 3.816 9.73958 3.664 10.2783 3.664C10.6196 3.664 10.9263 3.73333 11.1983 3.872C11.4703 4.01067 11.6943 4.21333 11.8703 4.48C12.0463 4.74133 12.1689 5.06667 12.2383 5.456C12.3129 5.84 12.3183 6.28 12.2543 6.776L11.6383 12H9.66225L10.2783 6.776C10.3476 6.24267 10.3209 5.86133 10.1983 5.632C10.0756 5.39733 9.85158 5.28 9.52625 5.28C9.30758 5.28 9.08358 5.344 8.85425 5.472C8.62492 5.59467 8.40358 5.77333 8.19025 6.008C7.97692 6.23733 7.77958 6.51467 7.59825 6.84C7.42225 7.16 7.27825 7.52 7.16625 7.92L6.71025 12H4.73425L5.71825 3.784H6.71825C6.92625 3.784 7.08625 3.83467 7.19825 3.936C7.31558 4.03733 7.37425 4.2 7.37425 4.424L7.32625 5.488ZM19.0145 5.704C18.8332 5.50667 18.6252 5.368 18.3905 5.288C18.1558 5.208 17.9238 5.168 17.6945 5.168C17.3425 5.168 17.0225 5.27733 16.7345 5.496C16.4465 5.71467 16.1985 6 15.9905 6.352C15.7878 6.704 15.6305 7.10133 15.5185 7.544C15.4065 7.98133 15.3505 8.42133 15.3505 8.864C15.3505 9.44 15.4438 9.86933 15.6305 10.152C15.8225 10.4293 16.0865 10.568 16.4225 10.568C16.6358 10.568 16.8545 10.496 17.0785 10.352C17.3025 10.2027 17.5185 10 17.7265 9.744C17.9345 9.48267 18.1265 9.176 18.3025 8.824C18.4838 8.472 18.6385 8.09333 18.7665 7.688L19.0145 5.704ZM21.6465 0.112L20.1745 12H19.1265C18.8758 12 18.7052 11.9387 18.6145 11.816C18.5292 11.688 18.4865 11.5307 18.4865 11.344L18.5585 10.2C18.3612 10.4933 18.1505 10.76 17.9265 11C17.7025 11.2347 17.4678 11.4347 17.2225 11.6C16.9772 11.7653 16.7212 11.8933 16.4545 11.984C16.1932 12.0747 15.9238 12.12 15.6465 12.12C15.3052 12.12 14.9958 12.0587 14.7185 11.936C14.4412 11.808 14.2038 11.6187 14.0065 11.368C13.8092 11.1173 13.6572 10.8 13.5505 10.416C13.4438 10.032 13.3905 9.57867 13.3905 9.056C13.3905 8.592 13.4385 8.13867 13.5345 7.696C13.6305 7.248 13.7665 6.824 13.9425 6.424C14.1185 6.024 14.3265 5.656 14.5665 5.32C14.8118 4.984 15.0838 4.69333 15.3825 4.448C15.6812 4.20267 15.9985 4.01067 16.3345 3.872C16.6758 3.73333 17.0278 3.664 17.3905 3.664C17.7585 3.664 18.0918 3.73067 18.3905 3.864C18.6892 3.99733 18.9505 4.18133 19.1745 4.416L19.7105 0.112H21.6465ZM29.8235 3.792L28.8315 12H27.8315C27.3622 12 27.1275 11.7733 27.1275 11.32L27.1755 10.376C26.7595 10.9627 26.3035 11.4 25.8075 11.688C25.3168 11.976 24.8075 12.12 24.2795 12.12C23.9382 12.12 23.6315 12.0507 23.3595 11.912C23.0875 11.7733 22.8635 11.5733 22.6875 11.312C22.5115 11.0453 22.3862 10.7173 22.3115 10.328C22.2422 9.93867 22.2395 9.496 22.3035 9L22.9195 3.792H24.8955L24.2795 9C24.2102 9.53867 24.2368 9.92533 24.3595 10.16C24.4822 10.3893 24.7062 10.504 25.0315 10.504C25.2448 10.504 25.4608 10.4453 25.6795 10.328C25.9035 10.2107 26.1195 10.0427 26.3275 9.824C26.5355 9.60533 26.7275 9.344 26.9035 9.04C27.0795 8.73067 27.2262 8.38667 27.3435 8.008L27.8475 3.792H29.8235ZM36.1358 5.336C36.0771 5.42133 36.0211 5.48267 35.9678 5.52C35.9144 5.552 35.8451 5.568 35.7598 5.568C35.6638 5.568 35.5678 5.54133 35.4718 5.488C35.3758 5.43467 35.2638 5.376 35.1358 5.312C35.0131 5.24267 34.8691 5.18133 34.7038 5.128C34.5438 5.07467 34.3518 5.048 34.1278 5.048C33.7064 5.048 33.3838 5.144 33.1598 5.336C32.9358 5.52267 32.8238 5.75733 32.8238 6.04C32.8238 6.25867 32.9011 6.43467 33.0558 6.568C33.2158 6.70133 33.4158 6.81867 33.6558 6.92C33.8958 7.02133 34.1518 7.12533 34.4238 7.232C34.7011 7.33333 34.9598 7.464 35.1998 7.624C35.4398 7.77867 35.6371 7.98133 35.7918 8.232C35.9518 8.47733 36.0318 8.79467 36.0318 9.184C36.0318 9.57867 35.9518 9.95467 35.7918 10.312C35.6371 10.6693 35.4131 10.984 35.1198 11.256C34.8264 11.5227 34.4718 11.736 34.0558 11.896C33.6451 12.0507 33.1811 12.128 32.6638 12.128C32.4078 12.128 32.1571 12.1013 31.9118 12.048C31.6664 12 31.4371 11.9307 31.2238 11.84C31.0158 11.7493 30.8238 11.6427 30.6478 11.52C30.4718 11.3973 30.3224 11.264 30.1997 11.12L30.6878 10.368C30.7464 10.2773 30.8158 10.208 30.8958 10.16C30.9758 10.112 31.0744 10.088 31.1918 10.088C31.3038 10.088 31.4051 10.1227 31.4958 10.192C31.5864 10.2613 31.6904 10.3387 31.8078 10.424C31.9304 10.504 32.0771 10.5787 32.2478 10.648C32.4238 10.7173 32.6478 10.752 32.9198 10.752C33.1384 10.752 33.3304 10.7227 33.4958 10.664C33.6664 10.6053 33.8104 10.5253 33.9278 10.424C34.0451 10.3227 34.1331 10.2053 34.1918 10.072C34.2504 9.93867 34.2798 9.79733 34.2798 9.648C34.2798 9.46667 34.2344 9.31733 34.1438 9.2C34.0531 9.07733 33.9304 8.97333 33.7758 8.888C33.6264 8.79733 33.4558 8.72 33.2638 8.656C33.0718 8.58667 32.8744 8.51467 32.6718 8.44C32.4744 8.36533 32.2798 8.28 32.0878 8.184C31.9011 8.088 31.7304 7.968 31.5758 7.824C31.4264 7.67467 31.3064 7.496 31.2158 7.288C31.1251 7.07467 31.0798 6.816 31.0798 6.512C31.0798 6.14933 31.1491 5.79733 31.2878 5.456C31.4264 5.10933 31.6291 4.80533 31.8958 4.544C32.1624 4.27733 32.4904 4.064 32.8798 3.904C33.2744 3.744 33.7251 3.664 34.2318 3.664C34.7544 3.664 35.2184 3.75467 35.6238 3.936C36.0291 4.112 36.3678 4.33867 36.6398 4.616L36.1358 5.336ZM39.3446 12H37.2566L38.6646 0.431999H40.7526L39.3446 12ZM43.9669 5.488C44.3829 4.87467 44.8442 4.41867 45.3509 4.12C45.8575 3.816 46.3802 3.664 46.9189 3.664C47.2602 3.664 47.5669 3.73333 47.8389 3.872C48.1109 4.01067 48.3349 4.21333 48.5109 4.48C48.6869 4.74133 48.8095 5.06667 48.8789 5.456C48.9535 5.84 48.9589 6.28 48.8949 6.776L48.2789 12H46.3029L46.9189 6.776C46.9882 6.24267 46.9615 5.86133 46.8389 5.632C46.7162 5.39733 46.4922 5.28 46.1669 5.28C45.9482 5.28 45.7242 5.344 45.4949 5.472C45.2655 5.59467 45.0442 5.77333 44.8309 6.008C44.6175 6.23733 44.4202 6.51467 44.2389 6.84C44.0629 7.16 43.9189 7.52 43.8069 7.92L43.3509 12H41.3749L42.3589 3.784H43.3589C43.5669 3.784 43.7269 3.83467 43.8389 3.936C43.9562 4.03733 44.0149 4.2 44.0149 4.424L43.9669 5.488ZM55.6551 5.704C55.4738 5.50667 55.2658 5.368 55.0311 5.288C54.7965 5.208 54.5645 5.168 54.3351 5.168C53.9831 5.168 53.6631 5.27733 53.3751 5.496C53.0871 5.71467 52.8391 6 52.6311 6.352C52.4285 6.704 52.2711 7.10133 52.1591 7.544C52.0471 7.98133 51.9911 8.42133 51.9911 8.864C51.9911 9.44 52.0845 9.86933 52.2711 10.152C52.4631 10.4293 52.7271 10.568 53.0631 10.568C53.2765 10.568 53.4951 10.496 53.7191 10.352C53.9431 10.2027 54.1591 10 54.3671 9.744C54.5751 9.48267 54.7671 9.176 54.9431 8.824C55.1245 8.472 55.2791 8.09333 55.4071 7.688L55.6551 5.704ZM58.2871 0.112L56.8151 12H55.7671C55.5165 12 55.3458 11.9387 55.2551 11.816C55.1698 11.688 55.1271 11.5307 55.1271 11.344L55.1991 10.2C55.0018 10.4933 54.7911 10.76 54.5671 11C54.3431 11.2347 54.1085 11.4347 53.8631 11.6C53.6178 11.7653 53.3618 11.8933 53.0951 11.984C52.8338 12.0747 52.5645 12.12 52.2871 12.12C51.9458 12.12 51.6365 12.0587 51.3591 11.936C51.0818 11.808 50.8445 11.6187 50.6471 11.368C50.4498 11.1173 50.2978 10.8 50.1911 10.416C50.0845 10.032 50.0311 9.57867 50.0311 9.056C50.0311 8.592 50.0791 8.13867 50.1751 7.696C50.2711 7.248 50.4071 6.824 50.5831 6.424C50.7591 6.024 50.9671 5.656 51.2071 5.32C51.4525 4.984 51.7245 4.69333 52.0231 4.448C52.3218 4.20267 52.6391 4.01067 52.9751 3.872C53.3165 3.73333 53.6685 3.664 54.0311 3.664C54.3991 3.664 54.7325 3.73067 55.0311 3.864C55.3298 3.99733 55.5911 4.18133 55.8151 4.416L56.3511 0.112H58.2871ZM66.6841 10.384C67.0521 10.384 67.3695 10.3333 67.6361 10.232C67.9081 10.1307 68.1295 9.98933 68.3001 9.808C68.4708 9.62133 68.5961 9.4 68.6761 9.144C68.7615 8.88267 68.8041 8.59733 68.8041 8.288C68.8041 7.86667 68.6708 7.53067 68.4041 7.28C68.1375 7.02933 67.7001 6.904 67.0921 6.904H65.1401L64.7161 10.384H66.6841ZM65.7401 2.032L65.3161 5.472H66.8521C67.5668 5.472 68.1161 5.304 68.5001 4.968C68.8895 4.632 69.0841 4.11733 69.0841 3.424C69.0841 2.93867 68.9455 2.58667 68.6681 2.368C68.3961 2.144 67.9695 2.032 67.3881 2.032H65.7401ZM67.5801 0.431999C68.2201 0.431999 68.7668 0.495999 69.2201 0.624C69.6788 0.746666 70.0521 0.922666 70.3401 1.152C70.6335 1.38133 70.8495 1.65867 70.9881 1.984C71.1268 2.30933 71.1961 2.672 71.1961 3.072C71.1961 3.40267 71.1508 3.72 71.0601 4.024C70.9748 4.32267 70.8388 4.6 70.6521 4.856C70.4655 5.112 70.2281 5.34133 69.9401 5.544C69.6521 5.74667 69.3081 5.91467 68.9081 6.048C69.5641 6.21333 70.0521 6.48267 70.3721 6.856C70.6921 7.224 70.8521 7.69333 70.8521 8.264C70.8521 8.79733 70.7535 9.29333 70.5561 9.752C70.3588 10.2053 70.0735 10.6 69.7001 10.936C69.3268 11.2667 68.8708 11.528 68.3321 11.72C67.7988 11.9067 67.1935 12 66.5161 12H62.4441L63.8681 0.431999H67.5801ZM77.3225 5.088C77.2478 5.08267 77.1758 5.08 77.1065 5.08C77.0425 5.07467 76.9785 5.072 76.9145 5.072C76.4718 5.072 76.0612 5.17333 75.6825 5.376C75.3038 5.57867 74.9758 5.85333 74.6985 6.2C74.4265 6.54133 74.2105 6.94133 74.0505 7.4C73.8958 7.85333 73.8185 8.33333 73.8185 8.84C73.8185 9.416 73.9092 9.83733 74.0905 10.104C74.2718 10.3707 74.5198 10.504 74.8345 10.504C75.0532 10.504 75.2665 10.4293 75.4745 10.28C75.6878 10.1253 75.8878 9.91733 76.0745 9.656C76.2665 9.38933 76.4398 9.07733 76.5945 8.72C76.7545 8.36267 76.8932 7.97867 77.0105 7.568L77.3225 5.088ZM76.7785 10.288C76.4158 10.848 76.0052 11.2933 75.5465 11.624C75.0932 11.9547 74.5972 12.12 74.0585 12.12C73.7492 12.12 73.4585 12.0587 73.1865 11.936C72.9198 11.8133 72.6852 11.632 72.4825 11.392C72.2852 11.1467 72.1278 10.8427 72.0105 10.48C71.8985 10.112 71.8425 9.68267 71.8425 9.192C71.8425 8.70133 71.9038 8.224 72.0265 7.76C72.1492 7.296 72.3225 6.86133 72.5465 6.456C72.7758 6.04533 73.0505 5.66933 73.3705 5.328C73.6905 4.98667 74.0478 4.69333 74.4425 4.448C74.8425 4.20267 75.2718 4.01333 75.7305 3.88C76.1945 3.74133 76.6825 3.672 77.1945 3.672C77.5625 3.672 77.9305 3.69867 78.2985 3.752C78.6718 3.80533 79.0345 3.90133 79.3865 4.04L78.4025 12H77.3545C77.1038 12 76.9332 11.9387 76.8425 11.816C76.7572 11.688 76.7145 11.5307 76.7145 11.344L76.7785 10.288ZM82.8106 5.488C83.2266 4.87467 83.688 4.41867 84.1946 4.12C84.7013 3.816 85.224 3.664 85.7626 3.664C86.104 3.664 86.4106 3.73333 86.6826 3.872C86.9546 4.01067 87.1786 4.21333 87.3546 4.48C87.5306 4.74133 87.6533 5.06667 87.7226 5.456C87.7973 5.84 87.8026 6.28 87.7386 6.776L87.1226 12H85.1466L85.7626 6.776C85.832 6.24267 85.8053 5.86133 85.6826 5.632C85.56 5.39733 85.336 5.28 85.0106 5.28C84.792 5.28 84.568 5.344 84.3386 5.472C84.1093 5.59467 83.888 5.77333 83.6746 6.008C83.4613 6.23733 83.264 6.51467 83.0826 6.84C82.9066 7.16 82.7626 7.52 82.6506 7.92L82.1946 12H80.2186L81.2026 3.784H82.2026C82.4106 3.784 82.5706 3.83467 82.6826 3.936C82.8 4.03733 82.8586 4.2 82.8586 4.424L82.8106 5.488ZM92.2589 0.112L91.4269 6.92H91.6269C91.7495 6.92 91.8482 6.90133 91.9229 6.864C92.0029 6.82667 92.0855 6.75733 92.1709 6.656L94.3549 4.136C94.4455 4.024 94.5415 3.93867 94.6429 3.88C94.7442 3.82133 94.8722 3.792 95.0269 3.792H96.7869L94.0829 6.84C93.8909 7.07467 93.6829 7.25867 93.4589 7.392C93.5602 7.46667 93.6455 7.55733 93.7149 7.664C93.7895 7.77067 93.8562 7.888 93.9149 8.016L95.9389 12H94.2269C94.0829 12 93.9629 11.976 93.8669 11.928C93.7709 11.8747 93.6935 11.7813 93.6349 11.648L92.0429 8.536C91.9842 8.41333 91.9202 8.33333 91.8509 8.296C91.7869 8.25867 91.6802 8.24 91.5309 8.24H91.2589L90.8029 12H88.8509L90.3149 0.112H92.2589Z" fill="#870016"/>
</svg>
