<svg width="36" height="34" viewBox="0 0 36 34" fill="none" xmlns="http://www.w3.org/2000/svg">
<path d="M26.64 0.439453C22.757 0.439453 19.6318 3.35819 18.0065 5.26216C16.3931 3.35531 13.2839 0.439453 9.36 0.439453C3.76142 0.439453 0 4.49017 0 10.5195C0 21.2287 16.4762 32.5019 17.1778 32.9899L17.9957 33.5595L18.8165 33.0919C19.5182 32.6091 36 21.3519 36 10.5195C36 4.49017 32.2386 0.439453 26.64 0.439453ZM26.4193 24.8499L19.0032 18.3608L25.2816 10.8269L32.5463 17.1839C30.8624 20.0062 28.801 22.5853 26.4193 24.8499ZM25.6739 9.25729C25.6017 9.19417 25.5175 9.14613 25.4265 9.11597C25.3354 9.08582 25.2392 9.07418 25.1436 9.08171C25.048 9.08925 24.9548 9.11583 24.8696 9.15988C24.7843 9.20393 24.7088 9.26456 24.6473 9.33822L17.4473 17.9782C17.327 18.1227 17.2679 18.3085 17.2826 18.4959C17.2973 18.6834 17.3847 18.8577 17.5261 18.9816L25.3767 25.8511C23.065 28.0124 20.5996 30.0032 18 31.808C18 31.808 1.44 20.5995 1.44 10.5195C1.44 5.47945 4.32 1.87945 9.36 1.87945C14.34 1.87945 18 7.63945 18 7.63945C18 7.63945 21.72 1.87945 26.64 1.87945C31.68 1.87945 34.56 5.47945 34.56 10.5195C34.5107 12.3768 34.0539 14.2005 33.222 15.8619L25.6739 9.25729ZM25.92 21.3195C25.92 21.177 25.9622 21.0378 26.0413 20.9194C26.1205 20.801 26.2329 20.7088 26.3645 20.6543C26.496 20.5998 26.6408 20.5855 26.7805 20.6133C26.9201 20.6411 27.0484 20.7096 27.1491 20.8103C27.2498 20.911 27.3184 21.0393 27.3462 21.179C27.3739 21.3187 27.3597 21.4634 27.3052 21.595C27.2507 21.7265 27.1584 21.839 27.04 21.9181C26.9216 21.9972 26.7824 22.0395 26.64 22.0395C26.449 22.0395 26.2659 21.9636 26.1309 21.8286C25.9959 21.6935 25.92 21.5104 25.92 21.3195ZM28.8 18.4395C28.8 18.2971 28.8422 18.1578 28.9213 18.0394C29.0005 17.921 29.1129 17.8288 29.2445 17.7743C29.376 17.7198 29.5208 17.7055 29.6605 17.7333C29.8001 17.7611 29.9284 17.8296 30.0291 17.9303C30.1298 18.031 30.1984 18.1593 30.2262 18.299C30.2539 18.4387 30.2397 18.5834 30.1852 18.715C30.1307 18.8465 30.0384 18.959 29.92 19.0381C29.8016 19.1172 29.6624 19.1595 29.52 19.1595C29.329 19.1595 29.1459 19.0836 29.0109 18.9486C28.8759 18.8135 28.8 18.6304 28.8 18.4395ZM24.48 18.4395C24.48 18.5819 24.4378 18.7211 24.3587 18.8395C24.2795 18.9579 24.1671 19.0501 24.0355 19.1046C23.904 19.1591 23.7592 19.1734 23.6195 19.1456C23.4799 19.1178 23.3516 19.0493 23.2509 18.9486C23.1502 18.8479 23.0816 18.7196 23.0538 18.5799C23.0261 18.4403 23.0403 18.2955 23.0948 18.1639C23.1493 18.0324 23.2416 17.9199 23.36 17.8408C23.4784 17.7617 23.6176 17.7195 23.76 17.7195C23.951 17.7195 24.1341 17.7953 24.2691 17.9303C24.4041 18.0654 24.48 18.2485 24.48 18.4395ZM25.92 15.5595C25.92 15.4171 25.9622 15.2778 26.0413 15.1594C26.1205 15.041 26.2329 14.9488 26.3645 14.8943C26.496 14.8398 26.6408 14.8255 26.7805 14.8533C26.9201 14.8811 27.0484 14.9496 27.1491 15.0503C27.2498 15.151 27.3184 15.2793 27.3462 15.419C27.3739 15.5587 27.3597 15.7034 27.3052 15.835C27.2507 15.9665 27.1584 16.079 27.04 16.1581C26.9216 16.2372 26.7824 16.2795 26.64 16.2795C26.449 16.2795 26.2659 16.2036 26.1309 16.0686C25.9959 15.9335 25.92 15.7504 25.92 15.5595Z" fill="#E7503D"/>
</svg>
