<svg width="37" height="47" viewBox="0 0 37 47" fill="none" xmlns="http://www.w3.org/2000/svg">
<path d="M32.0968 39.3388L28.0177 35.2596C27.612 34.8539 27.0617 34.626 26.4879 34.626C25.9142 34.626 25.3639 34.8539 24.9581 35.2596L23.2012 37.0165C22.972 37.246 22.6721 37.3915 22.35 37.4294C22.0279 37.4674 21.7024 37.3956 21.4262 37.2257C19.0306 35.7944 16.7958 34.1097 14.7605 32.2005C12.8513 30.1652 11.1665 27.9304 9.73532 25.5347C9.56538 25.2584 9.49359 24.9329 9.53155 24.6108C9.56951 24.2886 9.71501 23.9887 9.94452 23.7595L11.7014 22.0026C11.9024 21.8017 12.0618 21.5632 12.1705 21.3007C12.2793 21.0383 12.3353 20.7569 12.3353 20.4728C12.3353 20.1887 12.2793 19.9073 12.1705 19.6448C12.0618 19.3823 11.9024 19.1439 11.7014 18.943L7.62234 14.8643C7.42147 14.6634 7.18298 14.504 6.92049 14.3952C6.658 14.2864 6.37666 14.2305 6.09253 14.2305C5.80841 14.2305 5.52706 14.2864 5.26458 14.3952C5.00209 14.504 4.7636 14.6634 4.56272 14.8643L2.11418 17.313C0.922386 18.5029 0.185113 20.0728 0.0304547 21.7498C-0.124204 23.4268 0.313525 25.105 1.26759 26.4928C3.78494 30.3048 6.59144 33.9177 9.66232 37.2997C13.0439 40.3702 16.6565 43.1765 20.468 45.6936C21.8558 46.6477 23.5341 47.0855 25.2112 46.9309C26.8883 46.7762 28.4582 46.0388 29.648 44.8468L32.0968 42.3981C32.2977 42.1973 32.4571 41.9588 32.5658 41.6963C32.6746 41.4339 32.7305 41.1526 32.7305 40.8685C32.7305 40.5844 32.6746 40.3031 32.5658 40.0406C32.4571 39.7781 32.2977 39.5397 32.0968 39.3388V39.3388ZM31.0906 41.3922L28.6418 43.8409C27.687 44.7976 26.4271 45.3896 25.0812 45.5139C23.7352 45.6382 22.3883 45.2869 21.2745 44.5211C17.5357 42.0514 13.9902 39.301 10.6686 36.2936C7.66093 32.9714 4.91017 29.4255 2.44006 25.6864C1.675 24.5723 1.32416 23.2255 1.44844 21.8797C1.57272 20.534 2.16428 19.2742 3.12044 18.3191L5.56941 15.8704C5.63813 15.8017 5.71971 15.7471 5.80951 15.7099C5.8993 15.6727 5.99555 15.6536 6.09275 15.6536C6.18994 15.6536 6.28619 15.6727 6.37598 15.7099C6.46578 15.7471 6.54736 15.8017 6.61608 15.8704L10.695 19.9494C10.8337 20.0883 10.9116 20.2766 10.9116 20.4729C10.9116 20.6692 10.8337 20.8575 10.695 20.9965L8.93812 22.7534C8.48169 23.208 8.19223 23.8034 8.11667 24.4432C8.04112 25.0829 8.1839 25.7294 8.52187 26.2778C10.0108 28.7695 11.7653 31.0927 13.7545 33.2066C15.8686 35.1957 18.1917 36.9502 20.6833 38.4393C21.2321 38.7761 21.8784 38.9182 22.5178 38.8427C23.1573 38.7671 23.7526 38.4782 24.2077 38.0227L25.9647 36.2661C26.1036 36.1274 26.2918 36.0494 26.4881 36.0494C26.6845 36.0494 26.8727 36.1274 27.0116 36.2661L31.0906 40.3453C31.229 40.4843 31.3068 40.6725 31.3068 40.8687C31.3068 41.0649 31.229 41.253 31.0906 41.392V41.3922Z" fill="#E7503D"/>
<path d="M34.1538 27.75C34.1538 27.9387 34.0789 28.1197 33.9454 28.2531C33.812 28.3866 33.631 28.4615 33.4423 28.4615H22.0577C21.869 28.4615 21.688 28.3866 21.5546 28.2531C21.4211 28.1197 21.3462 27.9387 21.3462 27.75C21.3462 27.5613 21.4211 27.3803 21.5546 27.2469C21.688 27.1134 21.869 27.0385 22.0577 27.0385H33.4423C33.631 27.0385 33.812 27.1134 33.9454 27.2469C34.0789 27.3803 34.1538 27.5613 34.1538 27.75ZM21.3462 16.3654V6.40385C21.3462 4.70544 22.0208 3.0766 23.2218 1.87564C24.4228 0.674689 26.0516 0 27.75 0C29.4484 0 31.0772 0.674689 32.2782 1.87564C33.4792 3.0766 34.1538 4.70544 34.1538 6.40385V16.3654C34.1538 18.0638 33.4792 19.6926 32.2782 20.8936C31.0772 22.0945 29.4484 22.7692 27.75 22.7692C26.0516 22.7692 24.4228 22.0945 23.2218 20.8936C22.0208 19.6926 21.3462 18.0638 21.3462 16.3654V16.3654ZM22.7692 16.3654C22.7692 17.6864 23.294 18.9532 24.2281 19.8873C25.1621 20.8214 26.429 21.3462 27.75 21.3462C29.071 21.3462 30.3379 20.8214 31.2719 19.8873C32.206 18.9532 32.7308 17.6864 32.7308 16.3654V6.40385C32.7308 5.08286 32.206 3.81599 31.2719 2.88191C30.3379 1.94784 29.071 1.42308 27.75 1.42308C26.429 1.42308 25.1621 1.94784 24.2281 2.88191C23.294 3.81599 22.7692 5.08286 22.7692 6.40385V16.3654ZM36.2885 12.8077C36.0997 12.8077 35.9188 12.8827 35.7853 13.0161C35.6519 13.1495 35.5769 13.3305 35.5769 13.5192V16.3654C35.5769 18.4412 34.7523 20.432 33.2845 21.8999C31.8166 23.3677 29.8258 24.1923 27.75 24.1923C25.6742 24.1923 23.6834 23.3677 22.2155 21.8999C20.7477 20.432 19.9231 18.4412 19.9231 16.3654V13.5192C19.9231 13.3305 19.8481 13.1495 19.7147 13.0161C19.5812 12.8827 19.4003 12.8077 19.2115 12.8077C19.0228 12.8077 18.8418 12.8827 18.7084 13.0161C18.575 13.1495 18.5 13.3305 18.5 13.5192V16.3654C18.5 18.8186 19.4746 21.1714 21.2093 22.9061C22.944 24.6408 25.2967 25.6154 27.75 25.6154C30.2033 25.6154 32.556 24.6408 34.2907 22.9061C36.0254 21.1714 37 18.8186 37 16.3654V13.5192C37 13.3305 36.925 13.1495 36.7916 13.0161C36.6582 12.8827 36.4772 12.8077 36.2885 12.8077Z" fill="#E7503D"/>
</svg>
