<svg width="36" height="30" viewBox="0 0 36 30" fill="none" xmlns="http://www.w3.org/2000/svg">
<path d="M35.9958 15.4567C36.0186 15.8376 35.9576 16.2189 35.8171 16.5738C35.6767 16.9286 35.4602 17.2484 35.1829 17.5106L23.3114 28.1467C22.8455 28.584 22.2713 28.8891 21.6482 29.0306C21.025 29.1721 20.3754 29.1449 19.7663 28.9518L7.97069 24.8589L5.76 25.9642V26.2398C5.75962 26.6216 5.60778 26.9877 5.33781 27.2577C5.06784 27.5276 4.7018 27.6795 4.32 27.6798H0.72C0.529044 27.6798 0.345909 27.604 0.210883 27.469C0.0758569 27.3339 0 27.1508 0 26.9598C0 26.7689 0.0758569 26.5858 0.210883 26.4507C0.345909 26.3157 0.529044 26.2398 0.72 26.2398H4.32V13.2798H0.72C0.529044 13.2798 0.345909 13.204 0.210883 13.069C0.0758569 12.9339 0 12.7508 0 12.5598C0 12.3689 0.0758569 12.1858 0.210883 12.0507C0.345909 11.9157 0.529044 11.8398 0.72 11.8398H4.32C4.66509 11.8429 4.99736 11.9711 5.25506 12.2006C5.51275 12.4302 5.67837 12.7454 5.72112 13.0879L10.6256 11.8616C10.7584 11.8286 10.8979 11.834 11.0278 11.877L18.0927 14.2318C18.5866 14.3948 19.0299 14.6829 19.3793 15.0681C19.7287 15.4533 19.9724 15.9225 20.0866 16.4298C20.2008 16.9372 20.1816 17.4655 20.0309 17.9633C19.8801 18.4611 19.6031 18.9113 19.2266 19.2701L21.4678 19.7184L31.9529 13.4086C32.3379 13.1593 32.7816 13.0154 33.2396 12.9911C33.6976 12.9669 34.154 13.0633 34.5631 13.2706C34.9723 13.4778 35.3199 13.7888 35.5713 14.1725C35.8227 14.5561 35.9691 14.9988 35.9958 15.4567ZM34.5587 15.5396C34.5465 15.332 34.4798 15.1312 34.3652 14.9575C34.2507 14.7839 34.0924 14.6435 33.9062 14.5506C33.7201 14.4576 33.5127 14.4155 33.3051 14.4283C33.0975 14.4411 32.8969 14.5084 32.7236 14.6235L21.9714 21.0957C21.8179 21.1885 21.6353 21.2203 21.4595 21.185L14.3054 19.7541L14.2992 19.7528C14.2048 19.7405 14.1137 19.7096 14.0313 19.6618C13.9489 19.614 13.8767 19.5504 13.8191 19.4746C13.7615 19.3988 13.7194 19.3123 13.6954 19.2201C13.6715 19.1279 13.666 19.0319 13.6794 18.9376C13.6928 18.8433 13.7248 18.7526 13.7735 18.6707C13.8222 18.5889 13.8866 18.5175 13.9631 18.4607C14.0396 18.4039 14.1265 18.3629 14.219 18.34C14.3114 18.3171 14.4075 18.3127 14.5017 18.3272L16.9119 18.6718C17.3036 18.7273 17.702 18.6343 18.0287 18.4112C18.3554 18.1881 18.5869 17.8509 18.6778 17.4659C18.7687 17.0809 18.7123 16.6757 18.5199 16.3301C18.3274 15.9844 18.0127 15.7232 17.6376 15.5977L10.7712 13.3094L5.76 14.5614V24.3534L7.59802 23.4344C7.68386 23.3912 7.77756 23.3657 7.8735 23.3595C7.96944 23.3534 8.06563 23.3666 8.1563 23.3986L20.2192 27.5849C20.5845 27.6969 20.973 27.7099 21.3449 27.6224C21.7169 27.5349 22.0589 27.3502 22.336 27.0871L34.2075 16.451C34.3286 16.3336 34.4227 16.1913 34.4833 16.034C34.544 15.8766 34.5698 15.7079 34.5587 15.5396Z" fill="#E7503D"/>
<path d="M25.3331 2.97122L25.3563 3.03864H25.4276H26.0851C26.301 3.03864 26.5082 3.12501 26.6611 3.27897C26.814 3.43296 26.9 3.64197 26.9 3.86004C26.9 4.07812 26.814 4.28712 26.6611 4.44111C26.5082 4.59507 26.301 4.68144 26.0851 4.68144H25.6496H25.5588L25.5501 4.77188C25.4487 5.82798 24.9607 6.80816 24.1814 7.52169C23.4021 8.2352 22.3873 8.63106 21.3343 8.63239H21.0435H20.812L20.9707 8.80095L24.4521 12.4976L24.4521 12.4976L24.4538 12.4993C24.5304 12.5769 24.5908 12.6692 24.6316 12.7708C24.6723 12.8723 24.6925 12.9811 24.6909 13.0907C24.6893 13.2003 24.6659 13.3084 24.6223 13.4087C24.5786 13.509 24.5154 13.5995 24.4366 13.6748C24.3578 13.7501 24.2648 13.8087 24.1633 13.8473C24.0617 13.8859 23.9535 13.9036 23.8451 13.8994C23.7366 13.8952 23.6301 13.8693 23.5317 13.823C23.4333 13.7768 23.3451 13.7112 23.2721 13.63L23.2722 13.63L23.2705 13.6283L18.3241 8.37637C18.2144 8.25988 18.141 8.1135 18.113 7.95529C18.085 7.79708 18.1037 7.63408 18.1666 7.48647C18.2296 7.33888 18.3341 7.21321 18.4671 7.12495C18.6001 7.03669 18.7558 6.98966 18.9149 6.9896C18.9149 6.9896 18.9149 6.9896 18.9149 6.9896L21.3344 6.9896L21.3347 6.9896C21.9504 6.98817 22.5456 6.7671 23.0147 6.36577C23.4837 5.96446 23.7963 5.40889 23.8972 4.79772L23.9164 4.68144H23.7985H18.9527C18.7368 4.68144 18.5296 4.59507 18.3767 4.44111C18.2238 4.28712 18.1378 4.07812 18.1378 3.86004C18.1378 3.64197 18.2238 3.43296 18.3767 3.27897C18.5296 3.12501 18.7368 3.03864 18.9527 3.03864H23.3978H23.5867L23.4805 2.88243C23.2418 2.53123 22.9216 2.24386 22.5477 2.04525C22.1737 1.84665 21.7573 1.74282 21.3344 1.7428H21.3344H18.9149C18.699 1.7428 18.4918 1.65643 18.3389 1.50246C18.186 1.34848 18.1 1.13947 18.1 0.921398C18.1 0.703321 18.186 0.494319 18.3389 0.34033C18.4918 0.186366 18.699 0.1 18.9149 0.1H21.3344C21.3472 0.1 21.3602 0.100916 21.3773 0.102182L21.3788 0.102292C21.3944 0.103458 21.414 0.104914 21.4345 0.104914H26.0851C26.301 0.104914 26.5082 0.19128 26.6611 0.345245C26.814 0.499233 26.9 0.708235 26.9 0.926311C26.9 1.14439 26.814 1.35339 26.6611 1.50738C26.5082 1.66134 26.301 1.74771 26.0851 1.74771H24.8702H24.6775L24.7884 1.90526C25.0189 2.23291 25.2023 2.59178 25.3331 2.97122Z" fill="#E7503D" stroke="white" stroke-width="0.2"/>
</svg>
