<svg width="21" height="37" viewBox="0 0 21 37" fill="none" xmlns="http://www.w3.org/2000/svg">
<path d="M16.0813 8.34599V3.25195H16.5054C16.9272 3.25195 17.3318 3.08065 17.6301 2.77572C17.9283 2.47079 18.0959 2.05721 18.0959 1.62598C18.0959 1.19474 17.9283 0.781167 17.6301 0.476238C17.3318 0.171308 16.9272 0 16.5054 0L3.78176 0C3.35994 0 2.9554 0.171308 2.65713 0.476238C2.35886 0.781167 2.1913 1.19474 2.1913 1.62598C2.1913 2.05721 2.35886 2.47079 2.65713 2.77572C2.9554 3.08065 3.35994 3.25195 3.78176 3.25195H4.20585V8.34599C3.04726 8.48873 1.97985 9.06006 1.20503 9.95217C0.430214 10.8443 0.00157459 11.9955 0 13.1885V28.5811C0.0002525 29.3755 0.19036 30.1578 0.553786 30.86C0.917212 31.5622 1.44295 32.163 2.08527 32.6101V34.29C2.08606 35.0085 2.36559 35.6973 2.86253 36.2054C3.35948 36.7134 4.03325 36.9992 4.73603 37H15.5512C16.2539 36.9992 16.9277 36.7134 17.4247 36.2054C17.9216 35.6973 18.2011 35.0085 18.2019 34.29V32.6101C18.8442 32.163 19.37 31.5622 19.7334 30.86C20.0968 30.1578 20.2869 29.3755 20.2872 28.5811V13.1885C20.2856 11.9955 19.857 10.8443 19.0822 9.95217C18.3073 9.06006 17.2399 8.48873 16.0813 8.34599ZM3.78176 2.16797C3.64115 2.16797 3.50631 2.11087 3.40688 2.00922C3.30746 1.90758 3.2516 1.76972 3.2516 1.62598C3.2516 1.48223 3.30746 1.34437 3.40688 1.24273C3.50631 1.14109 3.64115 1.08398 3.78176 1.08398H16.5054C16.646 1.08398 16.7809 1.14109 16.8803 1.24273C16.9797 1.34437 17.0356 1.48223 17.0356 1.62598C17.0356 1.76972 16.9797 1.90758 16.8803 2.00922C16.7809 2.11087 16.646 2.16797 16.5054 2.16797H3.78176ZM15.021 3.25195V8.31055H13.7486V3.25195H15.021ZM11.4737 5.70337H8.81348C8.67288 5.70337 8.53803 5.76048 8.43861 5.86212C8.33918 5.96376 8.28333 6.10162 8.28333 6.24537C8.28333 6.38911 8.33918 6.52697 8.43861 6.62861C8.53803 6.73026 8.67288 6.78736 8.81348 6.78736H9.61344V8.31055H7.59889V3.25195H12.6883V8.31055H10.6737V6.78736H11.4737C11.6143 6.78736 11.7492 6.73026 11.8486 6.62861C11.948 6.52697 12.0039 6.38911 12.0039 6.24537C12.0039 6.10162 11.948 5.96376 11.8486 5.86212C11.7492 5.76048 11.6143 5.70337 11.4737 5.70337ZM6.53859 3.25195V8.31055H5.26615V3.25195H6.53859ZM17.1416 34.29C17.1411 34.7211 16.9734 35.1344 16.6753 35.4392C16.3771 35.7441 15.9728 35.9155 15.5512 35.916H4.73603C4.31436 35.9155 3.9101 35.7441 3.61193 35.4392C3.31376 35.1344 3.14605 34.7211 3.14557 34.29V33.167C3.66668 33.3606 4.21693 33.4594 4.77138 33.459H15.5158C16.0703 33.4594 16.6205 33.3606 17.1416 33.167V34.29ZM19.2269 28.5811C19.2258 29.5869 18.8344 30.5513 18.1387 31.2625C17.443 31.9738 16.4997 32.3739 15.5158 32.375H4.77138C3.78748 32.3739 2.8442 31.9738 2.14848 31.2625C1.45276 30.5513 1.06142 29.5869 1.06031 28.5811V13.1885C1.06142 12.1826 1.45276 11.2183 2.14848 10.507C2.8442 9.79575 3.78748 9.39567 4.77138 9.39453H15.5158C16.4997 9.39567 17.443 9.79575 18.1387 10.507C18.8344 11.2183 19.2258 12.1826 19.2269 13.1885V28.5811Z" fill="#E7503D"/>
</svg>
