<svg width="40" height="42" viewBox="0 0 40 42" fill="none" xmlns="http://www.w3.org/2000/svg">
<path d="M22.2814 21C29.1647 21 33.4814 13.1834 33.4814 8.4C32.0086 9.58107 30.1313 10.1374 28.2529 9.94938C26.2877 9.94938 24.2102 9.6705 22.5158 9.6705C21.9681 9.66175 21.4209 9.70511 20.8814 9.8C19.2674 10.1089 17.8166 10.9837 16.79 12.2669C15.7634 13.5501 15.2285 15.1575 15.2814 16.8V26.6351C13.3688 26.8093 11.5903 27.6921 10.2952 29.1102C9.00001 30.5284 8.28177 32.3794 8.28143 34.3V35H23.6814V34.3C23.6811 32.3794 22.9629 30.5284 21.6677 29.1102C20.3726 27.6921 18.5941 26.8093 16.6814 26.6351V19.2254C18.3016 20.4178 20.2702 21.0416 22.2814 21V21ZM21.1512 11.1737C21.6018 11.0965 22.0587 11.0619 22.5158 11.0705C23.2817 11.0705 24.1527 11.1327 25.0747 11.1987C26.1117 11.2729 27.184 11.3495 28.2527 11.3495C29.4091 11.3729 30.5633 11.2388 31.6836 10.9509C30.5738 14.854 27.1994 19.6 22.2814 19.6C19.0334 19.6 16.6814 17.9276 16.6814 16.8C16.6348 15.4836 17.0593 14.1938 17.8786 13.1625C18.698 12.1311 19.8584 11.4259 21.1512 11.1737V11.1737ZM22.2428 33.6H9.72007C9.89151 32.0593 10.625 30.6358 11.7802 29.6021C12.9354 28.5683 14.4312 27.9967 15.9814 27.9967C17.5317 27.9967 19.0275 28.5683 20.1827 29.6021C21.3379 30.6358 22.0714 32.0593 22.2428 33.6V33.6ZM13.8814 18.2C13.8814 4.25838 2.68143 6.70838 2.68143 0C1.23117 1.45026 0.469433 4.1111 0.0856932 6.89444C-0.0896364 8.21122 0.00450954 9.54989 0.362414 10.8292C0.720317 12.1084 1.33451 13.3016 2.16769 14.3362C3.00088 15.3709 4.03566 16.2253 5.20921 16.8478C6.38276 17.4702 7.67057 17.8476 8.99445 17.9571C10.669 18.102 12.3655 18.2 13.8814 18.2ZM3.21833 13.4086C2.50995 12.5303 1.98949 11.5159 1.68919 10.4282C1.38888 9.34052 1.31514 8.20275 1.47253 7.0854C1.62622 5.84109 1.90291 4.61509 2.29853 3.42538C3.32125 4.70605 4.58577 5.77316 6.02015 6.566C8.98437 8.477 12.043 10.4488 12.4385 16.7727C11.4377 16.7371 10.3254 16.6667 9.11499 16.5627C7.96853 16.4687 6.85359 16.1403 5.83927 15.5977C4.82495 15.0552 3.93287 14.3101 3.21833 13.4086V13.4086Z" fill="#E7503D"/>
<path d="M25.4062 21.3346L23.4062 22.0013L20.7396 21.0013L18.7396 23.0013L19.7396 25.3346L18.7396 28.0013L16.4062 28.668V31.3346L19.0729 32.3346L20.0729 34.668L18.7396 37.3346L20.7396 39.0013L23.4062 37.668L25.7396 39.0013L26.7396 41.668L29.0729 41.3346L30.0729 38.668L32.7396 38.0013L34.7396 39.0013L36.7396 37.0013L35.4062 34.3346L36.4062 32.3346L39.0729 31.3346V28.668L36.4062 27.668L35.4062 25.3346L36.7396 23.0013L34.7396 21.0013L32.4062 22.3346L29.7396 21.0013L29.0729 18.668H26.4062L25.4062 21.3346Z" fill="white"/>
<path d="M39.0442 28.1301L37.0709 27.5649C36.9954 27.5428 36.9267 27.502 36.871 27.4464C36.8154 27.3908 36.7746 27.3221 36.7524 27.2466C36.5767 26.6669 36.3452 26.1055 36.0612 25.5704C36.0238 25.5015 36.0044 25.4243 36.0046 25.3459C36.0049 25.2675 36.0248 25.1904 36.0627 25.1218L37.0534 23.3376C37.1546 23.1553 37.1937 22.9449 37.1647 22.7384C37.1358 22.5319 37.0403 22.3404 36.8929 22.1929L35.547 20.8467C35.3996 20.6991 35.2081 20.6036 35.0016 20.5747C34.795 20.5458 34.5846 20.585 34.4023 20.6864L32.6171 21.6768C32.5488 21.7145 32.4721 21.7343 32.394 21.7344C32.3154 21.7341 32.2379 21.7147 32.1685 21.6777C31.6337 21.3934 31.0725 21.1619 30.4928 20.9865C30.4175 20.9642 30.3489 20.9234 30.2934 20.8678C30.2378 20.8122 30.1971 20.7436 30.1749 20.6682L29.6096 18.6956C29.5522 18.4952 29.4311 18.3189 29.2646 18.1934C29.0981 18.0679 28.8953 18 28.6868 18H26.7927C26.5842 18 26.3814 18.0679 26.2149 18.1934C26.0484 18.3189 25.9273 18.4952 25.8699 18.6956L25.3046 20.6681C25.2824 20.7437 25.2416 20.8124 25.186 20.8681C25.1303 20.9238 25.0616 20.9646 24.9861 20.9868C24.4066 21.1624 23.8456 21.3939 23.3109 21.678C23.2415 21.715 23.1642 21.7345 23.0856 21.7348C23.0074 21.7348 22.9306 21.715 22.8622 21.6772L21.0773 20.6864C20.8951 20.585 20.6847 20.5458 20.4781 20.5747C20.2716 20.6036 20.0801 20.6991 19.9326 20.8467L18.5867 22.1925C18.4392 22.34 18.3437 22.5316 18.3147 22.7382C18.2857 22.9448 18.3248 23.1552 18.4261 23.3376L19.4165 25.1226C19.4544 25.1914 19.4743 25.2686 19.4744 25.3471C19.4745 25.4256 19.4548 25.5028 19.4172 25.5717C19.1331 26.1063 18.9016 26.6672 18.726 27.2465C18.7039 27.322 18.6631 27.3908 18.6074 27.4464C18.5517 27.502 18.4829 27.5427 18.4074 27.5648L16.4352 28.1301C16.2347 28.1876 16.0585 28.3087 15.933 28.4753C15.8075 28.6418 15.7397 28.8446 15.7397 29.0532V30.9469C15.7397 31.1555 15.8076 31.3583 15.9331 31.5248C16.0586 31.6913 16.2349 31.8125 16.4354 31.8699L18.4081 32.4352C18.4836 32.4572 18.5524 32.4979 18.6081 32.5535C18.6638 32.6092 18.7045 32.6779 18.7266 32.7535C18.9023 33.3332 19.1338 33.8946 19.4178 34.4297C19.4551 34.4986 19.4746 34.5757 19.4743 34.654C19.4741 34.7323 19.4541 34.8093 19.4164 34.8779L18.4261 36.6624C18.325 36.8447 18.286 37.0549 18.315 37.2614C18.3439 37.4678 18.4393 37.6592 18.5866 37.8066L19.9325 39.1525C20.0799 39.3 20.2714 39.3954 20.4779 39.4245C20.6844 39.4535 20.8948 39.4144 21.0772 39.3132L22.8622 38.3232C22.9306 38.2854 23.0074 38.2656 23.0856 38.2656C23.1642 38.2659 23.2415 38.2853 23.3109 38.3223C23.8456 38.6065 24.4066 38.838 24.9861 39.0135C25.0616 39.0358 25.1303 39.0766 25.186 39.1323C25.2416 39.188 25.2824 39.2567 25.3046 39.3323L25.8701 41.3048C25.9275 41.5051 26.0487 41.6813 26.2152 41.8068C26.3817 41.9322 26.5845 42 26.7929 42H28.6867C28.8952 42 29.098 41.9321 29.2645 41.8066C29.431 41.6811 29.5521 41.5048 29.6095 41.3044L30.1747 39.3319C30.1968 39.2564 30.2375 39.1877 30.2931 39.1321C30.3487 39.0765 30.4175 39.0357 30.4929 39.0136C31.0726 38.838 31.6338 38.6065 32.1687 38.3224C32.238 38.2854 32.3153 38.2659 32.3939 38.2657C32.4721 38.2655 32.549 38.2853 32.6173 38.3233L34.4021 39.3136C34.5845 39.4148 34.7949 39.4538 35.0014 39.4248C35.2079 39.3958 35.3993 39.3003 35.5468 39.1528L36.8927 37.807C37.04 37.6596 37.1354 37.4682 37.1643 37.2617C37.1933 37.0553 37.1543 36.8451 37.0532 36.6628L36.0629 34.8772C36.0251 34.8085 36.0052 34.7314 36.0051 34.653C36.0049 34.5746 36.0245 34.4974 36.062 34.4286C36.346 33.8937 36.5775 33.3324 36.7532 32.7528C36.7755 32.6774 36.8163 32.6087 36.872 32.5531C36.9276 32.4975 36.9963 32.4568 37.0718 32.4346L39.0442 31.8697C39.2446 31.8123 39.4209 31.6911 39.5464 31.5246C39.6719 31.3582 39.7397 31.1553 39.7397 30.9468V29.0532C39.7398 28.8446 39.6719 28.6418 39.5465 28.4752C39.421 28.3087 39.2447 28.1876 39.0442 28.1301ZM38.7797 30.9468L36.8072 31.5122C36.5776 31.5781 36.3682 31.7007 36.1982 31.8687C36.0283 32.0367 35.9034 32.2447 35.8349 32.4736C35.6771 32.9939 35.4694 33.4976 35.2147 33.9779C35.1017 34.188 35.0434 34.4232 35.0449 34.6617C35.0465 34.9003 35.1079 35.1347 35.2236 35.3434L36.214 37.1284L34.868 38.4742L33.083 37.4838C32.8721 37.367 32.635 37.3058 32.3939 37.3057C32.158 37.3062 31.9258 37.3643 31.7175 37.4749C31.2375 37.73 30.7338 37.9377 30.2135 38.0951C29.9845 38.1637 29.7765 38.2886 29.6084 38.4586C29.4404 38.6286 29.3178 38.838 29.2518 39.0678L28.6866 41.04H26.7929L26.2274 39.067C26.1613 38.8372 26.0386 38.6278 25.8705 38.4578C25.7024 38.2878 25.4943 38.1629 25.2653 38.0943C24.7452 37.937 24.2417 37.7295 23.7619 37.4747C23.5536 37.364 23.3214 37.3059 23.0856 37.3054C22.8444 37.3054 22.6073 37.3668 22.3965 37.484L20.6114 38.474L19.2655 37.1283L20.2558 35.3433C20.3712 35.135 20.4325 34.901 20.4342 34.6629C20.4359 34.4247 20.3778 34.19 20.2654 33.9801C20.0107 33.4997 19.803 32.9957 19.6452 32.4754C19.5769 32.2461 19.452 32.0378 19.282 31.8695C19.1121 31.7013 18.9025 31.5785 18.6725 31.5126L16.6997 30.9468V29.0532L18.672 28.4878C18.9017 28.4219 19.1111 28.2993 19.2811 28.1313C19.4511 27.9633 19.5761 27.7553 19.6446 27.5264C19.8022 27.0064 20.0097 26.503 20.2644 26.0231C20.3777 25.813 20.4362 25.5777 20.4348 25.339C20.4333 25.1004 20.3719 24.8659 20.2561 24.6571L19.2653 22.8715L20.6115 21.526L22.3962 22.5159C22.6071 22.6329 22.8443 22.6943 23.0855 22.6945C23.3213 22.694 23.5535 22.6359 23.7618 22.5252C24.2417 22.2705 24.7452 22.0628 25.2652 21.9051C25.4942 21.8366 25.7024 21.7117 25.8706 21.5417C26.0387 21.3717 26.1614 21.1622 26.2274 20.9324L26.7927 18.96H28.6867L29.2518 20.9325C29.3178 21.1621 29.4403 21.3715 29.6083 21.5414C29.7763 21.7113 29.9842 21.8362 30.2131 21.9047C30.7332 22.0624 31.2369 22.27 31.7169 22.5249C31.9253 22.6359 32.1577 22.6942 32.3938 22.6946C32.6349 22.6946 32.872 22.6333 33.0828 22.5165L34.8684 21.5261L36.2142 22.8719L35.2238 24.6563C35.1083 24.8647 35.0469 25.0988 35.0452 25.3371C35.0435 25.5754 35.1016 25.8103 35.2142 26.0203C35.4689 26.5007 35.6767 27.0046 35.8345 27.525C35.9028 27.7542 36.0278 27.9625 36.1977 28.1307C36.3677 28.299 36.5773 28.4218 36.8071 28.4878L38.7797 29.0532V30.9468ZM27.7397 24.72C26.6955 24.72 25.6746 25.0297 24.8063 25.6098C23.938 26.19 23.2613 27.0146 22.8617 27.9794C22.462 28.9442 22.3575 30.0059 22.5612 31.0301C22.7649 32.0543 23.2678 32.9951 24.0062 33.7335C24.7446 34.4719 25.6855 34.9748 26.7097 35.1785C27.7339 35.3823 28.7955 35.2777 29.7603 34.8781C30.7251 34.4785 31.5497 33.8017 32.1299 32.9334C32.7101 32.0651 33.0197 31.0443 33.0197 30C33.0182 28.6001 32.4614 27.2581 31.4715 26.2682C30.4817 25.2784 29.1396 24.7216 27.7397 24.72V24.72ZM27.7397 34.32C26.8853 34.32 26.0501 34.0666 25.3397 33.592C24.6293 33.1173 24.0756 32.4426 23.7486 31.6532C23.4216 30.8638 23.3361 29.9952 23.5028 29.1572C23.6694 28.3192 24.0809 27.5495 24.685 26.9453C25.2892 26.3411 26.059 25.9297 26.897 25.763C27.735 25.5963 28.6036 25.6819 29.3929 26.0088C30.1823 26.3358 30.857 26.8895 31.3317 27.5999C31.8064 28.3104 32.0597 29.1456 32.0597 30C32.0597 31.1457 31.6046 32.2445 30.7944 33.0547C29.9843 33.8649 28.8855 34.32 27.7397 34.32Z" fill="#E7503D"/>
</svg>
