<svg width="40" height="51" viewBox="0 0 40 51" fill="none" xmlns="http://www.w3.org/2000/svg">
<path d="M17.397 37.705C14.457 37.705 11.8787 37.075 9.66203 35.815C7.44537 34.5783 5.73036 32.8167 4.51703 30.53C3.3037 28.22 2.69703 25.5017 2.69703 22.375C2.69703 20.1117 3.0587 18.0467 3.78203 16.18C4.5287 14.29 5.56703 12.6683 6.89703 11.315C8.25037 9.93833 9.8487 8.88833 11.692 8.165C13.5354 7.41833 15.577 7.045 17.817 7.045C20.477 7.045 22.8104 7.58166 24.817 8.655C26.847 9.72833 28.4337 11.2333 29.577 13.17C30.7204 15.1067 31.292 17.3583 31.292 19.925C31.292 21.955 31.012 23.7167 30.452 25.21C29.892 26.7033 29.1104 27.87 28.107 28.71C27.127 29.5267 25.972 29.935 24.642 29.935C23.522 29.935 22.6237 29.655 21.947 29.095C21.2704 28.535 20.8854 27.765 20.792 26.785C20.1387 27.7883 19.3337 28.57 18.377 29.13C17.4437 29.6667 16.4637 29.935 15.437 29.935C13.6637 29.935 12.287 29.3867 11.307 28.29C10.327 27.17 9.83703 25.63 9.83703 23.67C9.83703 21.9433 10.1637 20.415 10.817 19.085C11.4937 17.7317 12.4037 16.67 13.547 15.9C14.6904 15.1067 15.9854 14.71 17.432 14.71C18.5754 14.71 19.532 14.9667 20.302 15.48C21.0954 15.9933 21.6437 16.705 21.947 17.615L22.262 15.795C22.3787 15.165 22.7404 14.85 23.347 14.85C24.0004 14.85 24.2687 15.2 24.152 15.9L22.682 24.37C22.6354 24.6733 22.6004 24.9533 22.577 25.21C22.5537 25.4667 22.542 25.7 22.542 25.91C22.542 27.5433 23.2887 28.36 24.782 28.36C25.7387 28.36 26.5787 28.01 27.302 27.31C28.0254 26.61 28.5854 25.63 28.982 24.37C29.402 23.0867 29.612 21.605 29.612 19.925C29.612 17.685 29.1104 15.725 28.107 14.045C27.1037 12.365 25.7154 11.0583 23.942 10.125C22.1687 9.16833 20.1154 8.69 17.782 8.69C15.1454 8.69 12.8354 9.26167 10.852 10.405C8.8687 11.5483 7.31703 13.1467 6.19703 15.2C5.07703 17.2533 4.51703 19.645 4.51703 22.375C4.51703 25.2217 5.04203 27.6717 6.09203 29.725C7.14203 31.755 8.63536 33.3067 10.572 34.38C12.5087 35.4767 14.7837 36.025 17.397 36.025C19.1937 36.025 20.8154 35.7567 22.262 35.22C23.732 34.6833 24.9454 33.96 25.902 33.05C26.252 32.7467 26.5787 32.6417 26.882 32.735C27.2087 32.8517 27.407 33.0617 27.477 33.365C27.547 33.6917 27.407 34.0183 27.057 34.345C25.9604 35.3717 24.5837 36.1883 22.927 36.795C21.2937 37.4017 19.4504 37.705 17.397 37.705ZM15.612 28.255C16.7087 28.255 17.6887 27.9283 18.552 27.275C19.4387 26.5983 20.127 25.6883 20.617 24.545C21.1304 23.3783 21.387 22.06 21.387 20.59C21.387 17.8133 20.1154 16.425 17.572 16.425C16.4754 16.425 15.4837 16.74 14.597 17.37C13.7337 17.9767 13.0454 18.8283 12.532 19.925C12.0187 21.0217 11.762 22.2583 11.762 23.635C11.762 25.1283 12.1004 26.2717 12.777 27.065C13.4537 27.8583 14.3987 28.255 15.612 28.255Z" fill="#E7503D"/>
<path d="M25.6665 30.3346L23.6665 31.0013L20.9998 30.0013L18.9998 32.0013L19.9998 34.3346L18.9998 37.0013L16.6665 37.668V40.3346L19.3332 41.3346L20.3332 43.668L18.9998 46.3346L20.9998 48.0013L23.6665 46.668L25.9998 48.0013L26.9998 50.668L29.3332 50.3346L30.3332 47.668L32.9998 47.0013L34.9998 48.0013L36.9998 46.0013L35.6665 43.3346L36.6665 41.3346L39.3332 40.3346V37.668L36.6665 36.668L35.6665 34.3346L36.9998 32.0013L34.9998 30.0013L32.6665 31.3346L29.9998 30.0013L29.3332 27.668H26.6665L25.6665 30.3346Z" fill="white"/>
<path d="M39.3045 37.1301L37.3312 36.5649C37.2557 36.5428 37.1869 36.502 37.1313 36.4464C37.0756 36.3908 37.0348 36.3221 37.0127 36.2466C36.837 35.6669 36.6055 35.1055 36.3215 34.5704C36.2841 34.5015 36.2646 34.4243 36.2649 34.3459C36.2651 34.2675 36.2851 34.1904 36.3229 34.1218L37.3136 32.3376C37.4148 32.1553 37.4539 31.9449 37.425 31.7384C37.396 31.5319 37.3006 31.3404 37.1531 31.1929L35.8073 29.8467C35.6599 29.6991 35.4684 29.6036 35.2618 29.5747C35.0552 29.5458 34.8449 29.585 34.6626 29.6864L32.8774 30.6768C32.8091 30.7145 32.7323 30.7343 32.6543 30.7344C32.5756 30.7341 32.4982 30.7147 32.4288 30.6777C31.894 30.3934 31.3328 30.1619 30.7531 29.9865C30.6777 29.9642 30.6091 29.9234 30.5536 29.8678C30.4981 29.8122 30.4573 29.7436 30.4351 29.6682L29.8699 27.6956C29.8125 27.4952 29.6914 27.3189 29.5249 27.1934C29.3584 27.0679 29.1555 27 28.947 27H27.053C26.8445 27 26.6416 27.0679 26.4751 27.1934C26.3086 27.3189 26.1875 27.4952 26.1301 27.6956L25.5649 29.6681C25.5427 29.7437 25.5019 29.8124 25.4462 29.8681C25.3906 29.9238 25.3219 29.9646 25.2463 29.9868C24.6669 30.1624 24.1058 30.3939 23.5711 30.678C23.5018 30.715 23.4244 30.7345 23.3458 30.7348C23.2677 30.7348 23.1908 30.715 23.1224 30.6772L21.3376 29.6864C21.1553 29.585 20.945 29.5458 20.7384 29.5747C20.5318 29.6036 20.3403 29.6991 20.1929 29.8467L18.847 31.1925C18.6994 31.34 18.6039 31.5316 18.5749 31.7382C18.546 31.9448 18.5851 32.1552 18.6864 32.3376L19.6768 34.1226C19.7146 34.1914 19.7345 34.2686 19.7346 34.3471C19.7347 34.4256 19.7151 34.5028 19.6775 34.5717C19.3933 35.1063 19.1618 35.6672 18.9863 36.2465C18.9641 36.322 18.9233 36.3908 18.8676 36.4464C18.812 36.502 18.7432 36.5427 18.6676 36.5648L16.6954 37.1301C16.495 37.1876 16.3187 37.3087 16.1933 37.4753C16.0678 37.6418 16 37.8446 16 38.0532V39.9469C16 40.1555 16.0679 40.3583 16.1934 40.5248C16.3189 40.6913 16.4952 40.8125 16.6956 40.8699L18.6683 41.4352C18.7439 41.4572 18.8127 41.4979 18.8684 41.5535C18.924 41.6092 18.9648 41.6779 18.9868 41.7535C19.1626 42.3332 19.3941 42.8946 19.678 43.4297C19.7154 43.4986 19.7348 43.5757 19.7346 43.654C19.7343 43.7323 19.7144 43.8093 19.6766 43.8779L18.6864 45.6624C18.5853 45.8447 18.5463 46.0549 18.5752 46.2614C18.6042 46.4678 18.6995 46.6592 18.8469 46.8066L20.1927 48.1525C20.3401 48.3 20.5316 48.3954 20.7381 48.4245C20.9447 48.4535 21.155 48.4144 21.3374 48.3132L23.1224 47.3232C23.1908 47.2854 23.2677 47.2656 23.3458 47.2656C23.4244 47.2659 23.5018 47.2853 23.5711 47.3223C24.1058 47.6065 24.6669 47.838 25.2463 48.0135C25.3219 48.0358 25.3906 48.0766 25.4462 48.1323C25.5019 48.188 25.5427 48.2567 25.5649 48.3323L26.1303 50.3048C26.1878 50.5051 26.3089 50.6813 26.4754 50.8068C26.6419 50.9322 26.8447 51 27.0532 51H28.9469C29.1554 51 29.3583 50.9321 29.5248 50.8066C29.6913 50.6811 29.8124 50.5048 29.8698 50.3044L30.4349 48.3319C30.457 48.2564 30.4978 48.1877 30.5534 48.1321C30.609 48.0765 30.6777 48.0357 30.7532 48.0136C31.3328 47.838 31.894 47.6065 32.429 47.3224C32.4983 47.2854 32.5756 47.2659 32.6542 47.2657C32.7323 47.2655 32.8092 47.2853 32.8776 47.3233L34.6624 48.3136C34.8448 48.4148 35.0551 48.4538 35.2616 48.4248C35.4681 48.3958 35.6596 48.3003 35.807 48.1528L37.1529 46.807C37.3003 46.6596 37.3956 46.4682 37.4246 46.2617C37.4536 46.0553 37.4145 45.8451 37.3134 45.6628L36.3232 43.8772C36.2854 43.8085 36.2655 43.7314 36.2653 43.653C36.2652 43.5746 36.2847 43.4974 36.3222 43.4286C36.6063 42.8937 36.8378 42.3324 37.0134 41.7528C37.0357 41.6774 37.0766 41.6087 37.1322 41.5531C37.1879 41.4975 37.2566 41.4568 37.3321 41.4346L39.3045 40.8697C39.5049 40.8123 39.6812 40.6911 39.8067 40.5246C39.9321 40.3582 40 40.1553 40 39.9468V38.0532C40 37.8446 39.9322 37.6418 39.8067 37.4752C39.6812 37.3087 39.5049 37.1876 39.3045 37.1301ZM39.04 39.9468L37.0675 40.5122C36.8378 40.5781 36.6284 40.7007 36.4585 40.8687C36.2886 41.0367 36.1636 41.2447 36.0951 41.4736C35.9374 41.9939 35.7297 42.4976 35.4749 42.9779C35.362 43.188 35.3036 43.4232 35.3052 43.6617C35.3067 43.9003 35.3682 44.1347 35.4839 44.3434L36.4742 46.1284L35.1283 47.4742L33.3433 46.4838C33.1324 46.367 32.8952 46.3058 32.6542 46.3057C32.4183 46.3062 32.1861 46.3643 31.9778 46.4749C31.4977 46.73 30.994 46.9377 30.4737 47.0951C30.2448 47.1637 30.0367 47.2886 29.8687 47.4586C29.7006 47.6286 29.578 47.838 29.5121 48.0678L28.9468 50.04H27.0532L26.4876 48.067C26.4216 47.8372 26.2989 47.6278 26.1308 47.4578C25.9627 47.2878 25.7545 47.1629 25.5255 47.0943C25.0055 46.937 24.502 46.7295 24.0221 46.4747C23.8139 46.364 23.5817 46.3059 23.3458 46.3054C23.1047 46.3054 22.8675 46.3668 22.6567 46.484L20.8716 47.474L19.5258 46.1283L20.516 44.3433C20.6314 44.135 20.6928 43.901 20.6945 43.6629C20.6961 43.4247 20.6381 43.19 20.5256 42.9801C20.2709 42.4997 20.0632 41.9957 19.9055 41.4754C19.8372 41.2461 19.7123 41.0378 19.5423 40.8695C19.3723 40.7013 19.1627 40.5785 18.9328 40.5126L16.96 39.9468V38.0532L18.9322 37.4878C19.1619 37.4219 19.3714 37.2993 19.5414 37.1313C19.7113 36.9633 19.8363 36.7553 19.9049 36.5264C20.0624 36.0064 20.27 35.503 20.5247 35.0231C20.6379 34.813 20.6965 34.5777 20.695 34.339C20.6936 34.1004 20.6321 33.8659 20.5163 33.6571L19.5256 31.8715L20.8717 30.526L22.6564 31.5159C22.8674 31.6329 23.1046 31.6943 23.3457 31.6945C23.5816 31.694 23.8138 31.6359 24.022 31.5252C24.502 31.2705 25.0054 31.0628 25.5254 30.9051C25.7545 30.8366 25.9627 30.7117 26.1308 30.5417C26.2989 30.3717 26.4216 30.1622 26.4876 29.9324L27.053 27.96H28.9469L29.5121 29.9325C29.578 30.1621 29.7006 30.3715 29.8686 30.5414C30.0365 30.7113 30.2445 30.8362 30.4733 30.9047C30.9935 31.0624 31.4971 31.27 31.9772 31.5249C32.1856 31.6359 32.418 31.6942 32.6541 31.6946C32.8951 31.6946 33.1322 31.6333 33.3431 31.5165L35.1287 30.5261L36.4745 31.8719L35.4841 33.6563C35.3685 33.8647 35.3071 34.0988 35.3054 34.3371C35.3038 34.5754 35.3619 34.8103 35.4745 35.0203C35.7292 35.5007 35.9369 36.0046 36.0947 36.525C36.1631 36.7542 36.288 36.9625 36.458 37.1307C36.628 37.299 36.8375 37.4218 37.0674 37.4878L39.04 38.0532V39.9468ZM28 33.72C26.9557 33.72 25.9349 34.0297 25.0666 34.6098C24.1983 35.19 23.5215 36.0146 23.1219 36.9794C22.7223 37.9442 22.6177 39.0059 22.8215 40.0301C23.0252 41.0543 23.5281 41.9951 24.2665 42.7335C25.0049 43.4719 25.9457 43.9748 26.9699 44.1785C27.9941 44.3823 29.0558 44.2777 30.0206 43.8781C30.9854 43.4785 31.81 42.8017 32.3902 41.9334C32.9703 41.0651 33.28 40.0443 33.28 39C33.2784 37.6001 32.7216 36.2581 31.7318 35.2682C30.7419 34.2784 29.3999 33.7216 28 33.72V33.72ZM28 43.32C27.1456 43.32 26.3104 43.0666 25.5999 42.592C24.8895 42.1173 24.3358 41.4426 24.0088 40.6532C23.6819 39.8638 23.5963 38.9952 23.763 38.1572C23.9297 37.3192 24.3411 36.5495 24.9453 35.9453C25.5495 35.3411 26.3192 34.9297 27.1572 34.763C27.9952 34.5963 28.8638 34.6819 29.6532 35.0088C30.4426 35.3358 31.1173 35.8895 31.592 36.5999C32.0666 37.3104 32.32 38.1456 32.32 39C32.32 40.1457 31.8649 41.2445 31.0547 42.0547C30.2445 42.8649 29.1457 43.32 28 43.32Z" fill="#E7503D"/>
</svg>
