<svg width="39" height="44" viewBox="0 0 39 44" fill="none" xmlns="http://www.w3.org/2000/svg">
<path fill-rule="evenodd" clip-rule="evenodd" d="M8.8508 16.0511C8.71577 16.1861 8.63992 16.3692 8.63992 16.5602C8.63992 16.7511 8.71577 16.9343 8.8508 17.0693C8.98582 17.2043 9.16896 17.2802 9.35991 17.2802H12.9599V20.8801C12.9599 21.0711 13.0357 21.2542 13.1708 21.3893C13.3058 21.5243 13.4889 21.6001 13.6799 21.6001C13.8708 21.6001 14.054 21.5243 14.189 21.3893C14.324 21.2542 14.3999 21.0711 14.3999 20.8801V17.2802H17.9998C18.1908 17.2802 18.3739 17.2043 18.5089 17.0693C18.644 16.9343 18.7198 16.7511 18.7198 16.5602C18.7198 16.3692 18.644 16.1861 18.5089 16.0511C18.3739 15.916 18.1908 15.8402 17.9998 15.8402H14.3999V12.2402C14.3999 12.0493 14.324 11.8661 14.189 11.7311C14.054 11.5961 13.8708 11.5202 13.6799 11.5202C13.4889 11.5202 13.3058 11.5961 13.1708 11.7311C13.0357 11.8661 12.9599 12.0493 12.9599 12.2402V15.8402H9.35991C9.16896 15.8402 8.98582 15.916 8.8508 16.0511ZM18.875 36H3.59997C2.6452 36 1.72953 35.6207 1.05441 34.9456C0.379281 34.2705 0 33.3548 0 32.4V0.720336C-2.11765e-06 0.590009 0.0353701 0.462126 0.102344 0.350324C0.169318 0.238523 0.265383 0.146997 0.380292 0.085507C0.495201 0.0240173 0.624645 -0.00512998 0.754819 0.00117392C0.884993 0.00747781 1.01102 0.0489964 1.11945 0.121302L5.03995 2.73473L8.9606 0.121302C9.07878 0.0422175 9.21778 0 9.35998 0C9.50218 0 9.64118 0.0422175 9.75936 0.121302L13.6799 2.73473L17.6005 0.121302C17.7187 0.0422175 17.8577 0 17.9999 0C18.1421 0 18.2811 0.0422175 18.3993 0.121302L22.3198 2.73473L26.2404 0.121302C26.3489 0.0490351 26.4749 0.00754847 26.605 0.0012648C26.7352 -0.00501886 26.8646 0.0241361 26.9795 0.0856212C27.0944 0.147106 27.1904 0.238617 27.2574 0.350396C27.3243 0.462175 27.3597 0.590032 27.3597 0.720336V20.0002V20.5H26L25.9198 20.6605V20.0002V2.06543L22.7192 4.19934C22.6011 4.27843 22.4621 4.32064 22.3199 4.32064C22.1777 4.32064 22.0387 4.27843 21.9205 4.19934L17.9998 1.58591L14.0793 4.19934C13.9611 4.27843 13.8221 4.32064 13.6799 4.32064C13.5377 4.32064 13.3987 4.27843 13.2806 4.19934L9.35991 1.58591L5.4394 4.19934C5.32122 4.27843 5.18222 4.32064 5.04002 4.32064C4.89782 4.32064 4.75882 4.27843 4.64064 4.19934L1.43999 2.06543V32.4C1.43999 32.9729 1.66755 33.5223 2.07263 33.9274C2.4777 34.3324 3.0271 34.56 3.59997 34.56C4.17283 34.56 4.72223 34.3324 5.1273 33.9274C5.53238 33.5223 5.75994 32.9729 5.75994 32.4V29.5201C5.75994 29.3291 5.8358 29.146 5.97083 29.0109C6.10585 28.8759 6.28898 28.8001 6.47994 28.8001H18.1405H18.3163H18.7285L18.1114 30.2401H17.8283H17H7.19993V32.4C7.19993 33.2142 6.91942 34.56 6.46381 34.56H18.3163C18.3826 34.56 18.449 34.5604 18.5153 34.5611L18.875 36Z" fill="#E7503D"/>
<path d="M38.3045 30.1301L36.3312 29.5649C36.2557 29.5428 36.1869 29.502 36.1313 29.4464C36.0756 29.3908 36.0348 29.3221 36.0127 29.2466C35.837 28.6669 35.6055 28.1055 35.3215 27.5704C35.2841 27.5015 35.2646 27.4243 35.2649 27.3459C35.2651 27.2675 35.2851 27.1904 35.3229 27.1218L36.3136 25.3376C36.4148 25.1553 36.4539 24.9449 36.425 24.7384C36.396 24.5319 36.3006 24.3404 36.1531 24.1929L34.8073 22.8467C34.6599 22.6991 34.4684 22.6036 34.2618 22.5747C34.0552 22.5458 33.8449 22.585 33.6626 22.6864L31.8774 23.6768C31.8091 23.7145 31.7323 23.7343 31.6543 23.7344C31.5756 23.7341 31.4982 23.7147 31.4288 23.6777C30.894 23.3934 30.3328 23.1619 29.7531 22.9865C29.6777 22.9642 29.6091 22.9234 29.5536 22.8678C29.4981 22.8122 29.4573 22.7436 29.4351 22.6682L28.8699 20.6956C28.8125 20.4952 28.6914 20.3189 28.5249 20.1934C28.3584 20.0679 28.1555 20 27.947 20H26.053C25.8445 20 25.6416 20.0679 25.4751 20.1934C25.3086 20.3189 25.1875 20.4952 25.1301 20.6956L24.5649 22.6681C24.5427 22.7437 24.5019 22.8124 24.4462 22.8681C24.3906 22.9238 24.3219 22.9646 24.2463 22.9868C23.6669 23.1624 23.1058 23.3939 22.5711 23.678C22.5018 23.715 22.4244 23.7345 22.3458 23.7348C22.2677 23.7348 22.1908 23.715 22.1224 23.6772L20.3376 22.6864C20.1553 22.585 19.945 22.5458 19.7384 22.5747C19.5318 22.6036 19.3403 22.6991 19.1929 22.8467L17.847 24.1925C17.6994 24.34 17.6039 24.5316 17.5749 24.7382C17.546 24.9448 17.5851 25.1552 17.6864 25.3376L18.6768 27.1226C18.7146 27.1914 18.7345 27.2686 18.7346 27.3471C18.7347 27.4256 18.7151 27.5028 18.6775 27.5717C18.3933 28.1063 18.1618 28.6672 17.9863 29.2465C17.9641 29.322 17.9233 29.3908 17.8676 29.4464C17.812 29.502 17.7432 29.5427 17.6676 29.5648L15.6954 30.1301C15.495 30.1876 15.3187 30.3087 15.1933 30.4753C15.0678 30.6418 15 30.8446 15 31.0532V32.9469C15 33.1555 15.0679 33.3583 15.1934 33.5248C15.3189 33.6913 15.4952 33.8125 15.6956 33.8699L17.6683 34.4352C17.7439 34.4572 17.8127 34.4979 17.8684 34.5535C17.924 34.6092 17.9648 34.6779 17.9868 34.7535C18.1626 35.3332 18.3941 35.8946 18.678 36.4297C18.7154 36.4986 18.7348 36.5757 18.7346 36.654C18.7343 36.7323 18.7144 36.8093 18.6766 36.8779L17.6864 38.6624C17.5853 38.8447 17.5463 39.0549 17.5752 39.2614C17.6042 39.4678 17.6995 39.6592 17.8469 39.8066L19.1927 41.1525C19.3401 41.3 19.5316 41.3954 19.7381 41.4245C19.9447 41.4535 20.155 41.4144 20.3374 41.3132L22.1224 40.3232C22.1908 40.2854 22.2677 40.2656 22.3458 40.2656C22.4244 40.2659 22.5018 40.2853 22.5711 40.3223C23.1058 40.6065 23.6669 40.838 24.2463 41.0135C24.3219 41.0358 24.3906 41.0766 24.4462 41.1323C24.5019 41.188 24.5427 41.2567 24.5649 41.3323L25.1303 43.3048C25.1878 43.5051 25.3089 43.6813 25.4754 43.8068C25.6419 43.9322 25.8447 44 26.0532 44H27.9469C28.1554 44 28.3583 43.9321 28.5248 43.8066C28.6913 43.6811 28.8124 43.5048 28.8698 43.3044L29.4349 41.3319C29.457 41.2564 29.4978 41.1877 29.5534 41.1321C29.609 41.0765 29.6777 41.0357 29.7532 41.0136C30.3328 40.838 30.894 40.6065 31.429 40.3224C31.4983 40.2854 31.5756 40.2659 31.6542 40.2657C31.7323 40.2655 31.8092 40.2853 31.8776 40.3233L33.6624 41.3136C33.8448 41.4148 34.0551 41.4538 34.2616 41.4248C34.4681 41.3958 34.6596 41.3003 34.807 41.1528L36.1529 39.807C36.3003 39.6596 36.3956 39.4682 36.4246 39.2617C36.4536 39.0553 36.4145 38.8451 36.3134 38.6628L35.3232 36.8772C35.2854 36.8085 35.2655 36.7314 35.2653 36.653C35.2652 36.5746 35.2847 36.4974 35.3222 36.4286C35.6063 35.8937 35.8378 35.3324 36.0134 34.7528C36.0357 34.6774 36.0766 34.6087 36.1322 34.5531C36.1879 34.4975 36.2566 34.4568 36.3321 34.4346L38.3045 33.8697C38.5049 33.8123 38.6812 33.6911 38.8067 33.5246C38.9321 33.3582 39 33.1553 39 32.9468V31.0532C39 30.8446 38.9322 30.6418 38.8067 30.4752C38.6812 30.3087 38.5049 30.1876 38.3045 30.1301ZM38.04 32.9468L36.0675 33.5122C35.8378 33.5781 35.6284 33.7007 35.4585 33.8687C35.2886 34.0367 35.1636 34.2447 35.0951 34.4736C34.9374 34.9939 34.7297 35.4976 34.4749 35.9779C34.362 36.188 34.3036 36.4232 34.3052 36.6617C34.3067 36.9003 34.3682 37.1347 34.4839 37.3434L35.4742 39.1284L34.1283 40.4742L32.3433 39.4838C32.1324 39.367 31.8952 39.3058 31.6542 39.3057C31.4183 39.3062 31.1861 39.3643 30.9778 39.4749C30.4977 39.73 29.994 39.9377 29.4737 40.0951C29.2448 40.1637 29.0367 40.2886 28.8687 40.4586C28.7006 40.6286 28.578 40.838 28.5121 41.0678L27.9468 43.04H26.0532L25.4876 41.067C25.4216 40.8372 25.2989 40.6278 25.1308 40.4578C24.9627 40.2878 24.7545 40.1629 24.5255 40.0943C24.0055 39.937 23.502 39.7295 23.0221 39.4747C22.8139 39.364 22.5817 39.3059 22.3458 39.3054C22.1047 39.3054 21.8675 39.3668 21.6567 39.484L19.8716 40.474L18.5258 39.1283L19.516 37.3433C19.6314 37.135 19.6928 36.901 19.6945 36.6629C19.6961 36.4247 19.6381 36.19 19.5256 35.9801C19.2709 35.4997 19.0632 34.9957 18.9055 34.4754C18.8372 34.2461 18.7123 34.0378 18.5423 33.8695C18.3723 33.7013 18.1627 33.5785 17.9328 33.5126L15.96 32.9468V31.0532L17.9322 30.4878C18.1619 30.4219 18.3714 30.2993 18.5414 30.1313C18.7113 29.9633 18.8363 29.7553 18.9049 29.5264C19.0624 29.0064 19.27 28.503 19.5247 28.0231C19.6379 27.813 19.6965 27.5777 19.695 27.339C19.6936 27.1004 19.6321 26.8659 19.5163 26.6571L18.5256 24.8715L19.8717 23.526L21.6564 24.5159C21.8674 24.6329 22.1046 24.6943 22.3457 24.6945C22.5816 24.694 22.8138 24.6359 23.022 24.5252C23.502 24.2705 24.0054 24.0628 24.5254 23.9051C24.7545 23.8366 24.9627 23.7117 25.1308 23.5417C25.2989 23.3717 25.4216 23.1622 25.4876 22.9324L26.053 20.96H27.9469L28.5121 22.9325C28.578 23.1621 28.7006 23.3715 28.8686 23.5414C29.0365 23.7113 29.2445 23.8362 29.4733 23.9047C29.9935 24.0624 30.4971 24.27 30.9772 24.5249C31.1856 24.6359 31.418 24.6942 31.6541 24.6946C31.8951 24.6946 32.1322 24.6333 32.3431 24.5165L34.1287 23.5261L35.4745 24.8719L34.4841 26.6563C34.3685 26.8647 34.3071 27.0988 34.3054 27.3371C34.3038 27.5754 34.3619 27.8103 34.4745 28.0203C34.7292 28.5007 34.9369 29.0046 35.0947 29.525C35.1631 29.7542 35.288 29.9625 35.458 30.1307C35.628 30.299 35.8375 30.4218 36.0674 30.4878L38.04 31.0532V32.9468ZM27 26.72C25.9557 26.72 24.9349 27.0297 24.0666 27.6098C23.1983 28.19 22.5215 29.0146 22.1219 29.9794C21.7223 30.9442 21.6177 32.0059 21.8215 33.0301C22.0252 34.0543 22.5281 34.9951 23.2665 35.7335C24.0049 36.4719 24.9457 36.9748 25.9699 37.1785C26.9941 37.3823 28.0558 37.2777 29.0206 36.8781C29.9854 36.4785 30.81 35.8017 31.3902 34.9334C31.9703 34.0651 32.28 33.0443 32.28 32C32.2784 30.6001 31.7216 29.2581 30.7318 28.2682C29.7419 27.2784 28.3999 26.7216 27 26.72V26.72ZM27 36.32C26.1456 36.32 25.3104 36.0666 24.5999 35.592C23.8895 35.1173 23.3358 34.4426 23.0088 33.6532C22.6819 32.8638 22.5963 31.9952 22.763 31.1572C22.9297 30.3192 23.3411 29.5495 23.9453 28.9453C24.5495 28.3411 25.3192 27.9297 26.1572 27.763C26.9952 27.5963 27.8638 27.6819 28.6532 28.0088C29.4426 28.3358 30.1173 28.8895 30.592 29.5999C31.0666 30.3104 31.32 31.1456 31.32 32C31.32 33.1457 30.8649 34.2445 30.0547 35.0547C29.2445 35.8649 28.1457 36.32 27 36.32Z" fill="#E7503D"/>
</svg>
