<svg width="44" height="40" viewBox="0 0 44 40" fill="none" xmlns="http://www.w3.org/2000/svg">
<path d="M33.84 0H2.16C1.58713 0 1.03773 0.227571 0.632649 0.632649C0.227571 1.03773 0 1.58713 0 2.16L0 26.64C0 27.2129 0.227571 27.7623 0.632649 28.1673C1.03773 28.5724 1.58713 28.8 2.16 28.8H33.84C34.4129 28.8 34.9623 28.5724 35.3674 28.1673C35.7724 27.7623 36 27.2129 36 26.64V2.16C36 1.58713 35.7724 1.03773 35.3674 0.632649C34.9623 0.227571 34.4129 0 33.84 0V0ZM34.56 26.64C34.56 26.831 34.4841 27.0141 34.3491 27.1491C34.2141 27.2841 34.031 27.36 33.84 27.36H2.16C1.96904 27.36 1.78591 27.2841 1.65088 27.1491C1.51586 27.0141 1.44 26.831 1.44 26.64V12.96H34.56V26.64ZM34.56 11.52H1.44V7.2H34.56V11.52ZM34.56 5.76H1.44V2.16C1.44 1.96904 1.51586 1.78591 1.65088 1.65088C1.78591 1.51586 1.96904 1.44 2.16 1.44H33.84C34.031 1.44 34.2141 1.51586 34.3491 1.65088C34.4841 1.78591 34.56 1.96904 34.56 2.16V5.76ZM4.32 22.32C4.32 22.129 4.39586 21.9459 4.53088 21.8109C4.66591 21.6759 4.84904 21.6 5.04 21.6H10.8C10.991 21.6 11.1741 21.6759 11.3091 21.8109C11.4441 21.9459 11.52 22.129 11.52 22.32C11.52 22.511 11.4441 22.6941 11.3091 22.8291C11.1741 22.9641 10.991 23.04 10.8 23.04H5.04C4.84904 23.04 4.66591 22.9641 4.53088 22.8291C4.39586 22.6941 4.32 22.511 4.32 22.32Z" fill="#E7503D"/>
<path d="M29.668 19.3334L27.668 20.0001L25.0013 19.0001L23.0013 21.0001L24.0013 23.3334L23.0013 26.0001L20.668 26.6667V29.3334L23.3346 30.3334L24.3346 32.6667L23.0013 35.3334L25.0013 37.0001L27.668 35.6667L30.0013 37.0001L31.0013 39.6667L33.3346 39.3334L34.3346 36.6667L37.0013 36.0001L39.0013 37.0001L41.0013 35.0001L39.668 32.3334L40.668 30.3334L43.3346 29.3334V26.6667L40.668 25.6667L39.668 23.3334L41.0013 21.0001L39.0013 19.0001L36.668 20.3334L34.0013 19.0001L33.3346 16.6667H30.668L29.668 19.3334Z" fill="white"/>
<path d="M43.3045 26.1301L41.3312 25.5649C41.2557 25.5428 41.1869 25.502 41.1313 25.4464C41.0756 25.3908 41.0348 25.3221 41.0127 25.2466C40.837 24.6669 40.6055 24.1055 40.3215 23.5704C40.2841 23.5015 40.2646 23.4243 40.2649 23.3459C40.2651 23.2675 40.2851 23.1904 40.3229 23.1218L41.3136 21.3376C41.4148 21.1553 41.4539 20.9449 41.425 20.7384C41.396 20.5319 41.3006 20.3404 41.1531 20.1929L39.8073 18.8467C39.6599 18.6991 39.4684 18.6036 39.2618 18.5747C39.0552 18.5458 38.8449 18.585 38.6626 18.6864L36.8774 19.6768C36.8091 19.7145 36.7323 19.7343 36.6543 19.7344C36.5756 19.7341 36.4982 19.7147 36.4288 19.6777C35.894 19.3934 35.3328 19.1619 34.7531 18.9865C34.6777 18.9642 34.6091 18.9234 34.5536 18.8678C34.4981 18.8122 34.4573 18.7436 34.4351 18.6682L33.8699 16.6956C33.8125 16.4952 33.6914 16.3189 33.5249 16.1934C33.3584 16.0679 33.1555 16 32.947 16H31.053C30.8445 16 30.6416 16.0679 30.4751 16.1934C30.3086 16.3189 30.1875 16.4952 30.1301 16.6956L29.5649 18.6681C29.5427 18.7437 29.5019 18.8124 29.4462 18.8681C29.3906 18.9238 29.3219 18.9646 29.2463 18.9868C28.6669 19.1624 28.1058 19.3939 27.5711 19.678C27.5018 19.715 27.4244 19.7345 27.3458 19.7348C27.2677 19.7348 27.1908 19.715 27.1224 19.6772L25.3376 18.6864C25.1553 18.585 24.945 18.5458 24.7384 18.5747C24.5318 18.6036 24.3403 18.6991 24.1929 18.8467L22.847 20.1925C22.6994 20.34 22.6039 20.5316 22.5749 20.7382C22.546 20.9448 22.5851 21.1552 22.6864 21.3376L23.6768 23.1226C23.7146 23.1914 23.7345 23.2686 23.7346 23.3471C23.7347 23.4256 23.7151 23.5028 23.6775 23.5717C23.3933 24.1063 23.1618 24.6672 22.9863 25.2465C22.9641 25.322 22.9233 25.3908 22.8676 25.4464C22.812 25.502 22.7432 25.5427 22.6676 25.5648L20.6954 26.1301C20.495 26.1876 20.3187 26.3087 20.1933 26.4753C20.0678 26.6418 20 26.8446 20 27.0532V28.9469C20 29.1555 20.0679 29.3583 20.1934 29.5248C20.3189 29.6913 20.4952 29.8125 20.6956 29.8699L22.6683 30.4352C22.7439 30.4572 22.8127 30.4979 22.8684 30.5535C22.924 30.6092 22.9648 30.6779 22.9868 30.7535C23.1626 31.3332 23.3941 31.8946 23.678 32.4297C23.7154 32.4986 23.7348 32.5757 23.7346 32.654C23.7343 32.7323 23.7144 32.8093 23.6766 32.8779L22.6864 34.6624C22.5853 34.8447 22.5463 35.0549 22.5752 35.2614C22.6042 35.4678 22.6995 35.6592 22.8469 35.8066L24.1927 37.1525C24.3401 37.3 24.5316 37.3954 24.7381 37.4245C24.9447 37.4535 25.155 37.4144 25.3374 37.3132L27.1224 36.3232C27.1908 36.2854 27.2677 36.2656 27.3458 36.2656C27.4244 36.2659 27.5018 36.2853 27.5711 36.3223C28.1058 36.6065 28.6669 36.838 29.2463 37.0135C29.3219 37.0358 29.3906 37.0766 29.4462 37.1323C29.5019 37.188 29.5427 37.2567 29.5649 37.3323L30.1303 39.3048C30.1878 39.5051 30.3089 39.6813 30.4754 39.8068C30.6419 39.9322 30.8447 40 31.0532 40H32.9469C33.1554 40 33.3583 39.9321 33.5248 39.8066C33.6913 39.6811 33.8124 39.5048 33.8698 39.3044L34.4349 37.3319C34.457 37.2564 34.4978 37.1877 34.5534 37.1321C34.609 37.0765 34.6777 37.0357 34.7532 37.0136C35.3328 36.838 35.894 36.6065 36.429 36.3224C36.4983 36.2854 36.5756 36.2659 36.6542 36.2657C36.7323 36.2655 36.8092 36.2853 36.8776 36.3233L38.6624 37.3136C38.8448 37.4148 39.0551 37.4538 39.2616 37.4248C39.4681 37.3958 39.6596 37.3003 39.807 37.1528L41.1529 35.807C41.3003 35.6596 41.3956 35.4682 41.4246 35.2617C41.4536 35.0553 41.4145 34.8451 41.3134 34.6628L40.3232 32.8772C40.2854 32.8085 40.2655 32.7314 40.2653 32.653C40.2652 32.5746 40.2847 32.4974 40.3222 32.4286C40.6063 31.8937 40.8378 31.3324 41.0134 30.7528C41.0357 30.6774 41.0766 30.6087 41.1322 30.5531C41.1879 30.4975 41.2566 30.4568 41.3321 30.4346L43.3045 29.8697C43.5049 29.8123 43.6812 29.6911 43.8067 29.5246C43.9321 29.3582 44 29.1553 44 28.9468V27.0532C44 26.8446 43.9322 26.6418 43.8067 26.4752C43.6812 26.3087 43.5049 26.1876 43.3045 26.1301ZM43.04 28.9468L41.0675 29.5122C40.8378 29.5781 40.6284 29.7007 40.4585 29.8687C40.2886 30.0367 40.1636 30.2447 40.0951 30.4736C39.9374 30.9939 39.7297 31.4976 39.4749 31.9779C39.362 32.188 39.3036 32.4232 39.3052 32.6617C39.3067 32.9003 39.3682 33.1347 39.4839 33.3434L40.4742 35.1284L39.1283 36.4742L37.3433 35.4838C37.1324 35.367 36.8952 35.3058 36.6542 35.3057C36.4183 35.3062 36.1861 35.3643 35.9778 35.4749C35.4977 35.73 34.994 35.9377 34.4737 36.0951C34.2448 36.1637 34.0367 36.2886 33.8687 36.4586C33.7006 36.6286 33.578 36.838 33.5121 37.0678L32.9468 39.04H31.0532L30.4876 37.067C30.4216 36.8372 30.2989 36.6278 30.1308 36.4578C29.9627 36.2878 29.7545 36.1629 29.5255 36.0943C29.0055 35.937 28.502 35.7295 28.0221 35.4747C27.8139 35.364 27.5817 35.3059 27.3458 35.3054C27.1047 35.3054 26.8675 35.3668 26.6567 35.484L24.8716 36.474L23.5258 35.1283L24.516 33.3433C24.6314 33.135 24.6928 32.901 24.6945 32.6629C24.6961 32.4247 24.6381 32.19 24.5256 31.9801C24.2709 31.4997 24.0632 30.9957 23.9055 30.4754C23.8372 30.2461 23.7123 30.0378 23.5423 29.8695C23.3723 29.7013 23.1627 29.5785 22.9328 29.5126L20.96 28.9468V27.0532L22.9322 26.4878C23.1619 26.4219 23.3714 26.2993 23.5414 26.1313C23.7113 25.9633 23.8363 25.7553 23.9049 25.5264C24.0624 25.0064 24.27 24.503 24.5247 24.0231C24.6379 23.813 24.6965 23.5777 24.695 23.339C24.6936 23.1004 24.6321 22.8659 24.5163 22.6571L23.5256 20.8715L24.8717 19.526L26.6564 20.5159C26.8674 20.6329 27.1046 20.6943 27.3457 20.6945C27.5816 20.694 27.8138 20.6359 28.022 20.5252C28.502 20.2705 29.0054 20.0628 29.5254 19.9051C29.7545 19.8366 29.9627 19.7117 30.1308 19.5417C30.2989 19.3717 30.4216 19.1622 30.4876 18.9324L31.053 16.96H32.9469L33.5121 18.9325C33.578 19.1621 33.7006 19.3715 33.8686 19.5414C34.0365 19.7113 34.2445 19.8362 34.4733 19.9047C34.9935 20.0624 35.4971 20.27 35.9772 20.5249C36.1856 20.6359 36.418 20.6942 36.6541 20.6946C36.8951 20.6946 37.1322 20.6333 37.3431 20.5165L39.1287 19.5261L40.4745 20.8719L39.4841 22.6563C39.3685 22.8647 39.3071 23.0988 39.3054 23.3371C39.3038 23.5754 39.3619 23.8103 39.4745 24.0203C39.7292 24.5007 39.9369 25.0046 40.0947 25.525C40.1631 25.7542 40.288 25.9625 40.458 26.1307C40.628 26.299 40.8375 26.4218 41.0674 26.4878L43.04 27.0532V28.9468ZM32 22.72C30.9557 22.72 29.9349 23.0297 29.0666 23.6098C28.1983 24.19 27.5215 25.0146 27.1219 25.9794C26.7223 26.9442 26.6177 28.0059 26.8215 29.0301C27.0252 30.0543 27.5281 30.9951 28.2665 31.7335C29.0049 32.4719 29.9457 32.9748 30.9699 33.1785C31.9941 33.3823 33.0558 33.2777 34.0206 32.8781C34.9854 32.4785 35.81 31.8017 36.3902 30.9334C36.9703 30.0651 37.28 29.0443 37.28 28C37.2784 26.6001 36.7216 25.2581 35.7318 24.2682C34.7419 23.2784 33.3999 22.7216 32 22.72V22.72ZM32 32.32C31.1456 32.32 30.3104 32.0666 29.5999 31.592C28.8895 31.1173 28.3358 30.4426 28.0088 29.6532C27.6819 28.8638 27.5963 27.9952 27.763 27.1572C27.9297 26.3192 28.3411 25.5495 28.9453 24.9453C29.5495 24.3411 30.3192 23.9297 31.1572 23.763C31.9952 23.5963 32.8638 23.6819 33.6532 24.0088C34.4426 24.3358 35.1173 24.8895 35.592 25.5999C36.0666 26.3104 36.32 27.1456 36.32 28C36.32 29.1457 35.8649 30.2445 35.0547 31.0547C34.2445 31.8649 33.1457 32.32 32 32.32Z" fill="#E7503D"/>
</svg>
