<svg width="48" height="46" viewBox="0 0 48 46" fill="none" xmlns="http://www.w3.org/2000/svg">
<path d="M0.105629 19.3276L0.105621 19.3277C0.0780792 19.7893 0.151989 20.2513 0.322159 20.6813C0.492165 21.1108 0.754124 21.498 1.08964 21.8155C1.08996 21.8158 1.09028 21.8161 1.0906 21.8164L15.9278 35.1096L15.9278 35.1096L15.9295 35.1112C16.499 35.6456 17.2007 36.0185 17.9623 36.1914C18.7234 36.3643 19.5169 36.3312 20.261 36.0955L35.004 30.9799L35.0438 30.9661L35.0815 30.9849L37.8448 32.3666L37.9001 32.3942V32.456V32.8004C37.9005 33.2512 38.0798 33.6834 38.3985 34.0021C38.7173 34.3208 39.1494 34.5001 39.6002 34.5005H44.1C44.3122 34.5005 44.5157 34.4162 44.6657 34.2662C44.8157 34.1162 44.9 33.9127 44.9 33.7005C44.9 33.4884 44.8157 33.2849 44.6657 33.1349C44.5157 32.9848 44.3122 32.9005 44.1 32.9005H39.6001H39.5001V32.8005V16.6008V16.5008H39.6001H44.1C44.3122 16.5008 44.5157 16.4165 44.6657 16.2664C44.8157 16.1164 44.9 15.9129 44.9 15.7008C44.9 15.4886 44.8157 15.2851 44.6657 15.1351C44.5157 14.9851 44.3122 14.9008 44.1 14.9008H39.6005C39.1935 14.9045 38.8017 15.0557 38.4978 15.3264C38.1937 15.5972 37.9984 15.9692 37.9479 16.3732L37.9339 16.4852L37.8244 16.4578L31.6941 14.925C31.6941 14.925 31.694 14.925 31.694 14.925C31.5464 14.8884 31.3914 14.8943 31.247 14.9421C31.2469 14.9421 31.2469 14.9421 31.2469 14.9421L22.416 17.8856L22.4157 17.8857C21.8148 18.084 21.2754 18.4345 20.8503 18.9032C20.4251 19.3719 20.1286 19.9428 19.9897 20.5602C19.8507 21.1775 19.8741 21.8204 20.0575 22.426C20.2408 23.0317 20.578 23.5795 21.0361 24.0161L21.1753 24.1488L20.9867 24.1865L18.1852 24.7469L18.1472 24.7545L18.114 24.7345L5.00785 16.8474L5.00782 16.8474L5.00507 16.8456C4.53849 16.5435 4.00084 16.3691 3.44578 16.3397C2.89072 16.3104 2.33767 16.4272 1.84184 16.6784C1.34601 16.9296 0.92474 17.3064 0.620083 17.7713C0.315422 18.2362 0.138039 18.7727 0.105629 19.3276ZM17.5877 26.2848L17.5878 26.2849C17.7583 26.3879 17.9611 26.4232 18.1563 26.384L18.1564 26.384L27.098 24.5956L27.0989 24.5954L27.1058 24.594L27.1057 24.5937L27.1133 24.5927C27.2182 24.579 27.3194 24.5446 27.411 24.4916C27.5026 24.4385 27.5827 24.3678 27.6467 24.2836C27.7108 24.1993 27.7575 24.1032 27.7841 24.0008C27.8108 23.8984 27.8168 23.7917 27.802 23.6869C27.7871 23.5821 27.7516 23.4813 27.6974 23.3904C27.6433 23.2994 27.5717 23.2201 27.4868 23.157C27.4018 23.094 27.3051 23.0484 27.2024 23.0229C27.0997 22.9974 26.993 22.9926 26.8884 23.0087L26.8873 23.0089L23.8745 23.4396L23.8744 23.4396C23.36 23.5124 22.8371 23.3904 22.4081 23.0975C21.9791 22.8045 21.6751 22.3618 21.5558 21.8562C21.4364 21.3507 21.5104 20.8187 21.7631 20.3649C22.0158 19.911 22.429 19.568 22.9216 19.4032L22.9217 19.4031L31.5046 16.5428L31.5322 16.5336L31.5604 16.5406L37.8243 18.1057L37.9001 18.1246V18.2027V30.4426V30.6044L37.7554 30.532L35.4579 29.3833L35.4576 29.3831C35.3623 29.3351 35.2583 29.3068 35.1518 29.3C35.0454 29.2931 34.9386 29.3079 34.838 29.3433L34.8375 29.3435L19.7591 34.5764L19.7592 34.5764L19.7557 34.5775C19.2821 34.7227 18.7785 34.7395 18.2963 34.6261C17.8146 34.5128 17.3717 34.2737 17.0126 33.9332C17.0123 33.9329 17.0119 33.9325 17.0115 33.9322L2.17447 20.6391L2.17441 20.6392L2.1716 20.6365C2.00981 20.4797 1.88406 20.2896 1.80308 20.0793C1.72219 19.8693 1.68768 19.6443 1.70235 19.4196C1.71859 19.1425 1.80765 18.8745 1.96053 18.6427C2.11341 18.411 2.32471 18.2237 2.5731 18.0997C2.8215 17.9757 3.09821 17.9194 3.37532 17.9365C3.65167 17.9535 3.91867 18.0429 4.14952 18.1958L17.5877 26.2848Z" fill="#E7503D" stroke="white" stroke-width="0.2"/>
<path d="M20.4403 3.70583L20.4635 3.77326H20.5348H21.3567C21.6332 3.77326 21.8986 3.88389 22.0944 4.08105C22.2901 4.27823 22.4003 4.54582 22.4003 4.82499C22.4003 5.10415 22.2901 5.37174 22.0944 5.56893C21.8986 5.76609 21.6332 5.87672 21.3567 5.87672H20.8123H20.7215L20.7128 5.96716C20.5855 7.2934 19.9727 8.52433 18.994 9.42043C18.0153 10.3165 16.7407 10.8137 15.4183 10.8153H15.0547H14.8232L14.9819 10.9839L19.3337 15.6047L19.3337 15.6047L19.3353 15.6063C19.4334 15.7057 19.5108 15.8239 19.563 15.954C19.6151 16.084 19.6409 16.2232 19.6389 16.3635C19.6368 16.5038 19.607 16.6422 19.551 16.7707C19.4951 16.8991 19.4143 17.0149 19.3133 17.1114C19.2124 17.2078 19.0934 17.2829 18.9633 17.3323C18.8331 17.3817 18.6946 17.4043 18.5557 17.399C18.4168 17.3937 18.2803 17.3604 18.1543 17.3012C18.0283 17.242 17.9153 17.158 17.8219 17.054L17.8219 17.054L17.8203 17.0523L11.6373 10.4875C11.4969 10.3383 11.4029 10.1509 11.3671 9.94834C11.3312 9.7458 11.3551 9.53713 11.4357 9.34816C11.5163 9.1592 11.6501 8.99828 11.8205 8.88524C11.9908 8.77221 12.1902 8.71197 12.394 8.71188C12.394 8.71188 12.394 8.71188 12.394 8.71188L15.4184 8.71188L15.4186 8.71188C16.1823 8.71011 16.9206 8.43592 17.5024 7.93812C18.0842 7.44033 18.472 6.75117 18.5971 5.993L18.6163 5.87672H18.4985H12.4413C12.1647 5.87672 11.8994 5.76609 11.7036 5.56893C11.5078 5.37174 11.3977 5.10415 11.3977 4.82499C11.3977 4.54582 11.5078 4.27823 11.7036 4.08105C11.8994 3.88389 12.1647 3.77326 12.4413 3.77326H17.9976H18.1865L18.0803 3.61704C17.7842 3.1814 17.387 2.82495 16.9232 2.57861C16.4594 2.33227 15.9429 2.20349 15.4184 2.20346H12.394C12.1175 2.20346 11.8521 2.09283 11.6563 1.89567C11.4605 1.69849 11.3504 1.4309 11.3504 1.15173C11.3504 0.872567 11.4605 0.604978 11.6563 0.407794C11.8521 0.210633 12.1175 0.1 12.394 0.1H15.4184C15.4355 0.1 15.4526 0.101223 15.4738 0.102797L15.4754 0.102916C15.4952 0.104383 15.5188 0.106142 15.5434 0.106142H21.3567C21.6332 0.106142 21.8986 0.216776 22.0944 0.413937C22.2901 0.611121 22.4003 0.878709 22.4003 1.15787C22.4003 1.43704 22.2901 1.70463 22.0944 1.90181C21.8986 2.09897 21.6332 2.20961 21.3567 2.20961H19.838H19.6453L19.7562 2.36716C20.0458 2.77863 20.2761 3.22933 20.4403 3.70583Z" fill="#E7503D" stroke="white" stroke-width="0.2"/>
<path d="M33.6665 25.3346L31.6665 26.0013L28.9998 25.0013L26.9998 27.0013L27.9998 29.3346L26.9998 32.0013L24.6665 32.668V35.3346L27.3332 36.3346L28.3332 38.668L26.9998 41.3346L28.9998 43.0013L31.6665 41.668L33.9998 43.0013L34.9998 45.668L37.3332 45.3346L38.3332 42.668L40.9998 42.0013L42.9998 43.0013L44.9998 41.0013L43.6665 38.3346L44.6665 36.3346L47.3332 35.3346V32.668L44.6665 31.668L43.6665 29.3346L44.9998 27.0013L42.9998 25.0013L40.6665 26.3346L37.9998 25.0013L37.3332 22.668H34.6665L33.6665 25.3346Z" fill="white"/>
<path d="M47.3045 32.1301L45.3312 31.5649C45.2557 31.5428 45.1869 31.502 45.1313 31.4464C45.0756 31.3908 45.0348 31.3221 45.0127 31.2466C44.837 30.6669 44.6055 30.1055 44.3215 29.5704C44.2841 29.5015 44.2646 29.4243 44.2649 29.3459C44.2651 29.2675 44.2851 29.1904 44.3229 29.1218L45.3136 27.3376C45.4148 27.1553 45.4539 26.9449 45.425 26.7384C45.396 26.5319 45.3006 26.3404 45.1531 26.1929L43.8073 24.8467C43.6599 24.6991 43.4684 24.6036 43.2618 24.5747C43.0552 24.5458 42.8449 24.585 42.6626 24.6864L40.8774 25.6768C40.8091 25.7145 40.7323 25.7343 40.6543 25.7344C40.5756 25.7341 40.4982 25.7147 40.4288 25.6777C39.894 25.3934 39.3328 25.1619 38.7531 24.9865C38.6777 24.9642 38.6091 24.9234 38.5536 24.8678C38.4981 24.8122 38.4573 24.7436 38.4351 24.6682L37.8699 22.6956C37.8125 22.4952 37.6914 22.3189 37.5249 22.1934C37.3584 22.0679 37.1555 22 36.947 22H35.053C34.8445 22 34.6416 22.0679 34.4751 22.1934C34.3086 22.3189 34.1875 22.4952 34.1301 22.6956L33.5649 24.6681C33.5427 24.7437 33.5019 24.8124 33.4462 24.8681C33.3906 24.9238 33.3219 24.9646 33.2463 24.9868C32.6669 25.1624 32.1058 25.3939 31.5711 25.678C31.5018 25.715 31.4244 25.7345 31.3458 25.7348C31.2677 25.7348 31.1908 25.715 31.1224 25.6772L29.3376 24.6864C29.1553 24.585 28.945 24.5458 28.7384 24.5747C28.5318 24.6036 28.3403 24.6991 28.1929 24.8467L26.847 26.1925C26.6994 26.34 26.6039 26.5316 26.5749 26.7382C26.546 26.9448 26.5851 27.1552 26.6864 27.3376L27.6768 29.1226C27.7146 29.1914 27.7345 29.2686 27.7346 29.3471C27.7347 29.4256 27.7151 29.5028 27.6775 29.5717C27.3933 30.1063 27.1618 30.6672 26.9863 31.2465C26.9641 31.322 26.9233 31.3908 26.8676 31.4464C26.812 31.502 26.7432 31.5427 26.6676 31.5648L24.6954 32.1301C24.495 32.1876 24.3187 32.3087 24.1933 32.4753C24.0678 32.6418 24 32.8446 24 33.0532V34.9469C24 35.1555 24.0679 35.3583 24.1934 35.5248C24.3189 35.6913 24.4952 35.8125 24.6956 35.8699L26.6683 36.4352C26.7439 36.4572 26.8127 36.4979 26.8684 36.5535C26.924 36.6092 26.9648 36.6779 26.9868 36.7535C27.1626 37.3332 27.3941 37.8946 27.678 38.4297C27.7154 38.4986 27.7348 38.5757 27.7346 38.654C27.7343 38.7323 27.7144 38.8093 27.6766 38.8779L26.6864 40.6624C26.5853 40.8447 26.5463 41.0549 26.5752 41.2614C26.6042 41.4678 26.6995 41.6592 26.8469 41.8066L28.1927 43.1525C28.3401 43.3 28.5316 43.3954 28.7381 43.4245C28.9447 43.4535 29.155 43.4144 29.3374 43.3132L31.1224 42.3232C31.1908 42.2854 31.2677 42.2656 31.3458 42.2656C31.4244 42.2659 31.5018 42.2853 31.5711 42.3223C32.1058 42.6065 32.6669 42.838 33.2463 43.0135C33.3219 43.0358 33.3906 43.0766 33.4462 43.1323C33.5019 43.188 33.5427 43.2567 33.5649 43.3323L34.1303 45.3048C34.1878 45.5051 34.3089 45.6813 34.4754 45.8068C34.6419 45.9322 34.8447 46 35.0532 46H36.9469C37.1554 46 37.3583 45.9321 37.5248 45.8066C37.6913 45.6811 37.8124 45.5048 37.8698 45.3044L38.4349 43.3319C38.457 43.2564 38.4978 43.1877 38.5534 43.1321C38.609 43.0765 38.6777 43.0357 38.7532 43.0136C39.3328 42.838 39.894 42.6065 40.429 42.3224C40.4983 42.2854 40.5756 42.2659 40.6542 42.2657C40.7323 42.2655 40.8092 42.2853 40.8776 42.3233L42.6624 43.3136C42.8448 43.4148 43.0551 43.4538 43.2616 43.4248C43.4681 43.3958 43.6596 43.3003 43.807 43.1528L45.1529 41.807C45.3003 41.6596 45.3956 41.4682 45.4246 41.2617C45.4536 41.0553 45.4145 40.8451 45.3134 40.6628L44.3232 38.8772C44.2854 38.8085 44.2655 38.7314 44.2653 38.653C44.2652 38.5746 44.2847 38.4974 44.3222 38.4286C44.6063 37.8937 44.8378 37.3324 45.0134 36.7528C45.0357 36.6774 45.0766 36.6087 45.1322 36.5531C45.1879 36.4975 45.2566 36.4568 45.3321 36.4346L47.3045 35.8697C47.5049 35.8123 47.6812 35.6911 47.8067 35.5246C47.9321 35.3582 48 35.1553 48 34.9468V33.0532C48 32.8446 47.9322 32.6418 47.8067 32.4752C47.6812 32.3087 47.5049 32.1876 47.3045 32.1301ZM47.04 34.9468L45.0675 35.5122C44.8378 35.5781 44.6284 35.7007 44.4585 35.8687C44.2886 36.0367 44.1636 36.2447 44.0951 36.4736C43.9374 36.9939 43.7297 37.4976 43.4749 37.9779C43.362 38.188 43.3036 38.4232 43.3052 38.6617C43.3067 38.9003 43.3682 39.1347 43.4839 39.3434L44.4742 41.1284L43.1283 42.4742L41.3433 41.4838C41.1324 41.367 40.8952 41.3058 40.6542 41.3057C40.4183 41.3062 40.1861 41.3643 39.9778 41.4749C39.4977 41.73 38.994 41.9377 38.4737 42.0951C38.2448 42.1637 38.0367 42.2886 37.8687 42.4586C37.7006 42.6286 37.578 42.838 37.5121 43.0678L36.9468 45.04H35.0532L34.4876 43.067C34.4216 42.8372 34.2989 42.6278 34.1308 42.4578C33.9627 42.2878 33.7545 42.1629 33.5255 42.0943C33.0055 41.937 32.502 41.7295 32.0221 41.4747C31.8139 41.364 31.5817 41.3059 31.3458 41.3054C31.1047 41.3054 30.8675 41.3668 30.6567 41.484L28.8716 42.474L27.5258 41.1283L28.516 39.3433C28.6314 39.135 28.6928 38.901 28.6945 38.6629C28.6961 38.4247 28.6381 38.19 28.5256 37.9801C28.2709 37.4997 28.0632 36.9957 27.9055 36.4754C27.8372 36.2461 27.7123 36.0378 27.5423 35.8695C27.3723 35.7013 27.1627 35.5785 26.9328 35.5126L24.96 34.9468V33.0532L26.9322 32.4878C27.1619 32.4219 27.3714 32.2993 27.5414 32.1313C27.7113 31.9633 27.8363 31.7553 27.9049 31.5264C28.0624 31.0064 28.27 30.503 28.5247 30.0231C28.6379 29.813 28.6965 29.5777 28.695 29.339C28.6936 29.1004 28.6321 28.8659 28.5163 28.6571L27.5256 26.8715L28.8717 25.526L30.6564 26.5159C30.8674 26.6329 31.1046 26.6943 31.3457 26.6945C31.5816 26.694 31.8138 26.6359 32.022 26.5252C32.502 26.2705 33.0054 26.0628 33.5254 25.9051C33.7545 25.8366 33.9627 25.7117 34.1308 25.5417C34.2989 25.3717 34.4216 25.1622 34.4876 24.9324L35.053 22.96H36.9469L37.5121 24.9325C37.578 25.1621 37.7006 25.3715 37.8686 25.5414C38.0365 25.7113 38.2445 25.8362 38.4733 25.9047C38.9935 26.0624 39.4971 26.27 39.9772 26.5249C40.1856 26.6359 40.418 26.6942 40.6541 26.6946C40.8951 26.6946 41.1322 26.6333 41.3431 26.5165L43.1287 25.5261L44.4745 26.8719L43.4841 28.6563C43.3685 28.8647 43.3071 29.0988 43.3054 29.3371C43.3038 29.5754 43.3619 29.8103 43.4745 30.0203C43.7292 30.5007 43.9369 31.0046 44.0947 31.525C44.1631 31.7542 44.288 31.9625 44.458 32.1307C44.628 32.299 44.8375 32.4218 45.0674 32.4878L47.04 33.0532V34.9468ZM36 28.72C34.9557 28.72 33.9349 29.0297 33.0666 29.6098C32.1983 30.19 31.5215 31.0146 31.1219 31.9794C30.7223 32.9442 30.6177 34.0059 30.8215 35.0301C31.0252 36.0543 31.5281 36.9951 32.2665 37.7335C33.0049 38.4719 33.9457 38.9748 34.9699 39.1785C35.9941 39.3823 37.0558 39.2777 38.0206 38.8781C38.9854 38.4785 39.81 37.8017 40.3902 36.9334C40.9703 36.0651 41.28 35.0443 41.28 34C41.2784 32.6001 40.7216 31.2581 39.7318 30.2682C38.7419 29.2784 37.3999 28.7216 36 28.72V28.72ZM36 38.32C35.1456 38.32 34.3104 38.0666 33.5999 37.592C32.8895 37.1173 32.3358 36.4426 32.0088 35.6532C31.6819 34.8638 31.5963 33.9952 31.763 33.1572C31.9297 32.3192 32.3411 31.5495 32.9453 30.9453C33.5495 30.3411 34.3192 29.9297 35.1572 29.763C35.9952 29.5963 36.8638 29.6819 37.6532 30.0088C38.4426 30.3358 39.1173 30.8895 39.592 31.5999C40.0666 32.3104 40.32 33.1456 40.32 34C40.32 35.1457 39.8649 36.2445 39.0547 37.0547C38.2445 37.8649 37.1457 38.32 36 38.32Z" fill="#E7503D"/>
</svg>
