<svg width="31" height="36" viewBox="0 0 31 36" fill="none" xmlns="http://www.w3.org/2000/svg">
<rect x="0.625" y="0.625" width="19.75" height="34.75" rx="1.375" stroke="#E7503D" stroke-width="1.25"/>
<line x1="9.625" y1="31.375" x2="12.375" y2="31.375" stroke="#E7503D" stroke-width="1.25" stroke-linecap="round"/>
<path d="M29.6663 22.0701L28.3837 23.3629C27.7605 23.9922 26.9383 24.3815 26.0599 24.4631C25.1815 24.5448 24.3025 24.3137 23.5757 23.8099C21.5794 22.481 19.6873 20.9995 17.9162 19.3784C16.3078 17.5929 14.8379 15.6855 13.5194 13.673C13.0197 12.9403 12.7904 12.0543 12.8714 11.169C12.9524 10.2836 13.3385 9.45483 13.9627 8.8266L15.2453 7.53384C15.3505 7.42776 15.4754 7.3436 15.6129 7.28619C15.7504 7.22877 15.8978 7.19922 16.0466 7.19922C16.1954 7.19922 16.3427 7.22877 16.4802 7.28619C16.6177 7.3436 16.7426 7.42776 16.8478 7.53384L18.9841 9.68722C19.0894 9.79327 19.1729 9.91917 19.2298 10.0578C19.2868 10.1963 19.3161 10.3449 19.3161 10.4949C19.3161 10.6449 19.2868 10.7934 19.2298 10.932C19.1729 11.0706 19.0894 11.1965 18.9841 11.3025L18.0639 12.23C17.9437 12.351 17.8676 12.5093 17.8477 12.6794C17.8278 12.8494 17.8654 13.0212 17.9544 13.1671C18.7041 14.4319 19.5865 15.6117 20.5865 16.6862C21.6525 17.6942 22.8229 18.5837 24.0777 19.3393C24.2223 19.429 24.3928 19.4669 24.5615 19.4469C24.7302 19.4268 24.8873 19.35 25.0073 19.2289L25.9275 18.3013C26.1401 18.0872 26.4283 17.9668 26.7288 17.9668C27.0293 17.9668 27.3175 18.0872 27.53 18.3013L29.6665 20.4549C29.7717 20.561 29.8552 20.6869 29.9121 20.8255C29.969 20.964 29.9983 21.1126 29.9983 21.2626C29.9983 21.4125 29.969 21.5611 29.912 21.6996C29.8551 21.8382 29.7716 21.9641 29.6663 22.0701Z" fill="white" stroke="#E7503D" stroke-width="1.25"/>
</svg>
