<svg width="36" height="36" viewBox="0 0 36 36" fill="none" xmlns="http://www.w3.org/2000/svg">
<path d="M34.9567 15.1952L31.9968 14.3473C31.8835 14.3142 31.7804 14.2531 31.6969 14.1697C31.6134 14.0862 31.5523 13.9832 31.519 13.8699C31.2555 13.0003 30.9082 12.1582 30.4822 11.3556C30.4261 11.2522 30.3969 11.1364 30.3973 11.0188C30.3977 10.9012 30.4276 10.7856 30.4844 10.6826L31.9704 8.0064C32.1223 7.73289 32.1809 7.41737 32.1375 7.10757C32.094 6.79778 31.9509 6.51055 31.7297 6.28934L29.7109 4.27003C29.4898 4.04868 29.2026 3.90545 28.8927 3.86205C28.5829 3.81865 28.2673 3.87746 27.9939 4.02955L25.3161 5.5152C25.2136 5.57179 25.0985 5.60152 24.9814 5.6016C24.8634 5.60122 24.7473 5.572 24.6432 5.5165C23.841 5.09014 22.9991 4.7429 22.1296 4.4797C22.0166 4.4463 21.9137 4.38511 21.8304 4.30172C21.7471 4.21834 21.686 4.11541 21.6527 4.00234L20.8048 1.04342C20.7187 0.742773 20.537 0.478334 20.2873 0.290085C20.0375 0.101835 19.7333 9.29637e-06 19.4206 0L16.5794 0C16.2667 9.29637e-06 15.9625 0.101835 15.7127 0.290085C15.463 0.478334 15.2813 0.742773 15.1952 1.04342L14.3473 4.00219C14.314 4.1155 14.2528 4.21864 14.1694 4.30216C14.0859 4.38569 13.9828 4.44693 13.8695 4.48027C13.0003 4.74364 12.1587 5.09088 11.3567 5.51707C11.2527 5.57256 11.1366 5.60178 11.0187 5.60218C10.9015 5.60215 10.7862 5.57243 10.6836 5.51578L8.0064 4.02955C7.73298 3.87746 7.41743 3.81865 7.10757 3.86205C6.79772 3.90545 6.51046 4.04868 6.28934 4.27003L4.27046 6.28877C4.04912 6.51 3.90587 6.79733 3.8624 7.10724C3.81893 7.41716 3.87761 7.73281 4.02955 8.0064L5.5152 10.6839C5.57194 10.7871 5.60177 10.9029 5.60194 11.0206C5.60212 11.1384 5.57263 11.2542 5.51621 11.3576C5.08998 12.1594 4.74274 13.0008 4.47941 13.8698C4.44617 13.9831 4.38498 14.0861 4.30146 14.1696C4.21794 14.253 4.11478 14.3141 4.00147 14.3472L1.04314 15.1952C0.742491 15.2814 0.478082 15.4631 0.289883 15.7129C0.101685 15.9627 -7.11419e-05 16.267 3.73175e-08 16.5797V19.4204C-2.19424e-05 19.7332 0.10179 20.0375 0.290041 20.2872C0.478293 20.537 0.742749 20.7187 1.04342 20.8048L4.00248 21.6528C4.11583 21.6858 4.21903 21.7469 4.30254 21.8303C4.38605 21.9137 4.44718 22.0169 4.48027 22.1302C4.7439 22.9998 5.09112 23.8419 5.51707 24.6446C5.57309 24.7478 5.60226 24.8635 5.60188 24.981C5.6015 25.0984 5.5716 25.2139 5.51491 25.3168L4.02955 27.9936C3.87791 28.267 3.81938 28.5824 3.86282 28.892C3.90625 29.2017 4.04929 29.4888 4.27032 29.7099L6.28906 31.7287C6.51022 31.9499 6.79741 32.0932 7.10721 32.1367C7.41701 32.1802 7.73255 32.1216 8.00611 31.9699L10.6836 30.4848C10.7862 30.4281 10.9015 30.3984 11.0187 30.3984C11.1366 30.3988 11.2527 30.428 11.3567 30.4835C12.1587 30.9097 13.0003 31.257 13.8695 31.5203C13.9828 31.5536 14.0859 31.6149 14.1694 31.6984C14.2528 31.7819 14.314 31.8851 14.3473 31.9984L15.1955 34.9572C15.2817 35.2577 15.4634 35.522 15.7131 35.7101C15.9629 35.8983 16.2671 36 16.5797 36H19.4204C19.7332 36 20.0374 35.8982 20.2871 35.7099C20.5369 35.5217 20.7186 35.2572 20.8047 34.9566L21.6524 31.9978C21.6856 31.8846 21.7467 31.7815 21.8301 31.6981C21.9135 31.6147 22.0166 31.5536 22.1298 31.5204C22.9992 31.257 23.8411 30.9097 24.6434 30.4837C24.7474 30.4281 24.8634 30.3989 24.9813 30.3985C25.0985 30.3983 25.2139 30.428 25.3164 30.4849L27.9936 31.9704C28.2671 32.1222 28.5827 32.1807 28.8924 32.1372C29.2022 32.0937 29.4894 31.9505 29.7105 31.7292L31.7294 29.7105C31.9504 29.4894 32.0935 29.2023 32.1369 28.8926C32.1803 28.583 32.1218 28.2676 31.9702 27.9942L30.4848 25.3158C30.4281 25.2128 30.3982 25.0971 30.398 24.9795C30.3977 24.8619 30.4271 24.7461 30.4834 24.6429C30.9095 23.8405 31.2567 22.9987 31.5202 22.1292C31.5536 22.016 31.6149 21.9131 31.6984 21.8297C31.7819 21.7463 31.8849 21.6852 31.9981 21.6518L34.9567 20.8045C35.2573 20.7184 35.5218 20.5367 35.71 20.287C35.8982 20.0372 36 19.733 36 19.4203V16.5797C36.0001 16.267 35.8983 15.9627 35.7101 15.7129C35.5218 15.4631 35.2574 15.2813 34.9567 15.1952ZM34.56 19.4203L31.6012 20.2683C31.2567 20.3672 30.9426 20.5511 30.6877 20.8031C30.4329 21.0551 30.2454 21.3671 30.1427 21.7104C29.9061 22.4908 29.5945 23.2464 29.2124 23.9668C29.043 24.282 28.9554 24.6347 28.9578 24.9926C28.9601 25.3505 29.0523 25.702 29.2258 26.015L30.7113 28.6926L28.6924 30.7113L26.0149 29.2257C25.6985 29.0506 25.3429 28.9586 24.9813 28.9585C24.6274 28.9593 24.2791 29.0464 23.9666 29.2124C23.2466 29.595 22.491 29.9065 21.7106 30.1427C21.3671 30.2455 21.0551 30.433 20.803 30.6879C20.551 30.9429 20.367 31.2571 20.2681 31.6017L19.4203 34.56H16.5797L15.7314 31.6005C15.6324 31.2559 15.4483 30.9416 15.1962 30.6867C14.944 30.4318 14.6318 30.2443 14.2883 30.1415C13.5082 29.9055 12.753 29.5942 12.0332 29.212C11.7208 29.046 11.3725 28.9588 11.0187 28.9581C10.657 28.958 10.3013 29.0502 9.9851 29.226L7.30742 30.711L5.28869 28.6924L6.77405 26.0149C6.94715 25.7024 7.03917 25.3515 7.04168 24.9943C7.0442 24.6371 6.95713 24.285 6.78845 23.9701C6.40636 23.2495 6.09484 22.4936 5.85821 21.713C5.75577 21.3692 5.56843 21.0567 5.31345 20.8043C5.05847 20.5519 4.74406 20.3678 4.3992 20.2689L1.44 19.4203V16.5797L4.39834 15.7317C4.74291 15.6329 5.0571 15.449 5.31204 15.197C5.56699 14.945 5.7545 14.6329 5.85734 14.2896C6.09364 13.5096 6.40498 12.7545 6.78701 12.0347C6.95686 11.7195 7.04473 11.3666 7.04254 11.0086C7.04035 10.6505 6.94817 10.2988 6.77448 9.98568L5.2884 7.30728L7.30757 5.28898L9.98467 6.7739C10.3011 6.94928 10.6568 7.04144 11.0186 7.04174C11.3724 7.04105 11.7207 6.9539 12.0331 6.78787C12.7529 6.40568 13.5082 6.09414 14.2881 5.85763C14.6317 5.75495 14.944 5.56751 15.1962 5.31256C15.4484 5.05761 15.6325 4.74333 15.7314 4.39862L16.5794 1.44H19.4204L20.2681 4.39877C20.367 4.7432 20.5509 5.05725 20.8028 5.31206C21.0548 5.56688 21.3667 5.75428 21.71 5.85706C22.4902 6.09353 23.2457 6.40506 23.9658 6.7873C24.2783 6.95384 24.627 7.04126 24.9811 7.04189C25.3427 7.04185 25.6983 6.94993 26.0146 6.77477L28.693 5.28912L30.7117 7.30786L29.2261 9.98438C29.0528 10.297 28.9607 10.6481 28.9582 11.0056C28.9557 11.363 29.0428 11.7154 29.2117 12.0305C29.5938 12.7511 29.9054 13.507 30.1421 14.2875C30.2446 14.6313 30.432 14.9437 30.687 15.1961C30.942 15.4485 31.2563 15.6327 31.6011 15.7317L34.56 16.5797V19.4203ZM18 10.08C16.4336 10.08 14.9023 10.5445 13.5999 11.4148C12.2974 12.285 11.2823 13.522 10.6829 14.9691C10.0834 16.4163 9.92659 18.0088 10.2322 19.5451C10.5378 21.0814 11.2921 22.4927 12.3997 23.6003C13.5073 24.7079 14.9186 25.4622 16.4549 25.7678C17.9912 26.0734 19.5837 25.9166 21.0309 25.3171C22.478 24.7177 23.715 23.7026 24.5852 22.4001C25.4555 21.0977 25.92 19.5664 25.92 18C25.9176 15.9002 25.0825 13.8871 23.5977 12.4023C22.1129 10.9175 20.0998 10.0824 18 10.08ZM18 24.48C16.7184 24.48 15.4655 24.1 14.3999 23.3879C13.3343 22.6759 12.5037 21.6639 12.0133 20.4798C11.5228 19.2957 11.3945 17.9928 11.6445 16.7358C11.8945 15.4788 12.5117 14.3242 13.4179 13.4179C14.3242 12.5117 15.4788 11.8945 16.7358 11.6445C17.9928 11.3945 19.2957 11.5228 20.4798 12.0133C21.6639 12.5037 22.6759 13.3343 23.3879 14.3999C24.1 15.4655 24.48 16.7184 24.48 18C24.48 19.7186 23.7973 21.3668 22.5821 22.5821C21.3668 23.7973 19.7186 24.48 18 24.48Z" fill="#E7503D"/>
</svg>
