<svg width="35" height="36" viewBox="0 0 35 36" fill="none" xmlns="http://www.w3.org/2000/svg">
<path d="M23.4806 21.6C30.5605 21.6 35.0006 13.56 35.0006 8.64C33.4857 9.85482 31.5548 10.427 29.6226 10.2336C27.6013 10.2336 25.4645 9.9468 23.7217 9.9468C23.1584 9.9378 22.5955 9.9824 22.0406 10.08C20.3805 10.3977 18.8882 11.2975 17.8323 12.6174C16.7764 13.9372 16.2262 15.5906 16.2806 17.28V27.3961C14.3133 27.5752 12.484 28.4833 11.1519 29.9419C9.81972 31.4006 9.08095 33.3046 9.08061 35.28V36H24.9206V35.28C24.9203 33.3046 24.1815 31.4006 22.8494 29.9419C21.5172 28.4833 19.6879 27.5752 17.7206 27.3961V19.7747C19.387 21.0011 21.4119 21.6428 23.4806 21.6ZM22.3181 11.4929C22.7816 11.4135 23.2515 11.378 23.7217 11.3868C24.5095 11.3868 25.4053 11.4507 26.3537 11.5187C27.4203 11.595 28.5232 11.6738 29.6225 11.6738C30.8119 11.6978 31.9991 11.5599 33.1514 11.2638C32.0099 15.2784 28.539 20.16 23.4806 20.16C20.1398 20.16 17.7206 18.4398 17.7206 17.28C17.6726 15.926 18.1093 14.5994 18.952 13.5385C19.7948 12.4777 20.9883 11.7524 22.3181 11.4929ZM23.4409 34.56H10.5604C10.7367 32.9753 11.4911 31.5112 12.6793 30.4478C13.8675 29.3845 15.4061 28.7966 17.0006 28.7966C18.5951 28.7966 20.1337 29.3845 21.3219 30.4478C22.5101 31.5112 23.2645 32.9753 23.4409 34.56ZM14.8406 18.72C14.8406 4.38005 3.32061 6.90005 3.32061 0C1.82891 1.4917 1.04541 4.22856 0.650704 7.09142C0.470365 8.44582 0.567201 9.82275 0.935331 11.1386C1.30346 12.4544 1.9352 13.6817 2.79219 14.7459C3.64918 15.81 4.71353 16.6889 5.92061 17.3292C7.12768 17.9694 8.4523 18.3576 9.814 18.4702C11.5364 18.6192 13.2814 18.72 14.8406 18.72ZM3.87285 13.7917C3.14423 12.8883 2.60889 11.8449 2.30001 10.7262C1.99113 9.60739 1.91528 8.43711 2.07717 7.28784C2.23525 6.00798 2.51984 4.74695 2.92677 3.52325C3.97871 4.84051 5.27935 5.9381 6.75472 6.7536C9.80363 8.7192 12.9496 10.7473 13.3564 17.2519C12.3271 17.2153 11.183 17.1429 9.93798 17.0359C8.75877 16.9393 7.61197 16.6014 6.56867 16.0434C5.52537 15.4853 4.6078 14.719 3.87285 13.7917Z" fill="#E7503D"/>
</svg>
