<svg width="29" height="36" viewBox="0 0 29 36" fill="none" xmlns="http://www.w3.org/2000/svg">
<path d="M26.5833 0H2.41667C1.77573 0 1.16104 0.243542 0.707825 0.67705C0.254612 1.11056 0 1.69852 0 2.31159V33.1328C0 33.7459 0.254612 34.3339 0.707825 34.7674C1.16104 35.2009 1.77573 35.4444 2.41667 35.4444H26.5833C27.2243 35.4444 27.839 35.2009 28.2922 34.7674C28.7454 34.3339 29 33.7459 29 33.1328V2.31159C29 1.69852 28.7454 1.11056 28.2922 0.67705C27.839 0.243542 27.2243 0 26.5833 0ZM27.3889 33.1328C27.3886 33.3371 27.3037 33.533 27.1527 33.6774C27.0017 33.8219 26.7969 33.9031 26.5833 33.9034H2.41667C2.2031 33.9031 1.99835 33.8219 1.84734 33.6774C1.69632 33.533 1.61137 33.3371 1.61111 33.1328V2.31159C1.61137 2.10731 1.69632 1.91147 1.84734 1.76702C1.99835 1.62257 2.2031 1.54131 2.41667 1.54106H26.5833C26.7969 1.54131 27.0017 1.62257 27.1527 1.76702C27.3037 1.91147 27.3886 2.10731 27.3889 2.31159V33.1328ZM24.1667 10.0169C24.1667 10.2213 24.0818 10.4173 23.9307 10.5618C23.7797 10.7063 23.5748 10.7874 23.3611 10.7874H13.6944C13.4808 10.7874 13.2759 10.7063 13.1248 10.5618C12.9738 10.4173 12.8889 10.2213 12.8889 10.0169C12.8889 9.81255 12.9738 9.61656 13.1248 9.47206C13.2759 9.32756 13.4808 9.24638 13.6944 9.24638H23.3611C23.5748 9.24638 23.7797 9.32756 23.9307 9.47206C24.0818 9.61656 24.1667 9.81255 24.1667 10.0169ZM24.1667 17.7222C24.1667 17.9266 24.0818 18.1226 23.9307 18.2671C23.7797 18.4116 23.5748 18.4928 23.3611 18.4928H13.6944C13.4808 18.4928 13.2759 18.4116 13.1248 18.2671C12.9738 18.1226 12.8889 17.9266 12.8889 17.7222C12.8889 17.5179 12.9738 17.3219 13.1248 17.1774C13.2759 17.0329 13.4808 16.9517 13.6944 16.9517H23.3611C23.5748 16.9517 23.7797 17.0329 23.9307 17.1774C24.0818 17.3219 24.1667 17.5179 24.1667 17.7222ZM24.1667 25.4275C24.1667 25.6319 24.0818 25.8279 23.9307 25.9724C23.7797 26.1169 23.5748 26.1981 23.3611 26.1981H13.6944C13.4808 26.1981 13.2759 26.1169 13.1248 25.9724C12.9738 25.8279 12.8889 25.6319 12.8889 25.4275C12.8889 25.2232 12.9738 25.0272 13.1248 24.8827C13.2759 24.7382 13.4808 24.657 13.6944 24.657H23.3611C23.5748 24.657 23.7797 24.7382 23.9307 24.8827C24.0818 25.0272 24.1667 25.2232 24.1667 25.4275Z" fill="#E7503D"/>
<circle cx="7.49902" cy="10.5" r="2.5" fill="#E7503D"/>
<circle cx="7.49902" cy="17.5" r="2.5" fill="#E7503D"/>
<circle cx="7.49902" cy="25.5" r="2.5" fill="#E7503D"/>
</svg>
