<svg width="32" height="36" viewBox="0 0 32 36" fill="none" xmlns="http://www.w3.org/2000/svg">
<path d="M29.8182 0H2.18182C1.60316 0 1.04821 0.227571 0.63904 0.632649C0.22987 1.03773 0 1.58713 0 2.16V33.84C0 34.4129 0.22987 34.9623 0.63904 35.3674C1.04821 35.7724 1.60316 36 2.18182 36H20.4481C21.027 35.9999 21.5821 35.7723 21.9914 35.3671L31.3615 26.0866C31.7702 25.6817 31.9999 25.1327 32 24.5602V2.16C32 1.58713 31.7701 1.03773 31.361 0.632649C30.9518 0.227571 30.3968 0 29.8182 0ZM21.7853 33.5344L21.8125 26.6368C21.8135 26.4464 21.8905 26.2642 22.0268 26.1298C22.1631 25.9955 22.3475 25.9199 22.5398 25.9197H29.4733L21.7853 33.5344ZM30.5455 24.48H22.5398C21.9629 24.481 21.4098 24.7077 21.0011 25.1107C20.5924 25.5138 20.3612 26.0604 20.358 26.6315L20.3267 34.56H2.18182C1.98893 34.56 1.80395 34.4841 1.66756 34.3491C1.53117 34.2141 1.45455 34.031 1.45455 33.84V2.16C1.45455 1.96904 1.53117 1.78591 1.66756 1.65088C1.80395 1.51586 1.98893 1.44 2.18182 1.44H29.8182C30.0111 1.44 30.1961 1.51586 30.3324 1.65088C30.4688 1.78591 30.5455 1.96904 30.5455 2.16V24.48ZM8.72727 10.08V17.28H26.9091C27.102 17.28 27.287 17.3559 27.4234 17.4909C27.5597 17.6259 27.6364 17.809 27.6364 18C27.6364 18.191 27.5597 18.3741 27.4234 18.5091C27.287 18.6441 27.102 18.72 26.9091 18.72H8.72727V25.92H16.7273C16.9202 25.92 17.1051 25.9959 17.2415 26.1309C17.3779 26.2659 17.4545 26.449 17.4545 26.64C17.4545 26.831 17.3779 27.0141 17.2415 27.1491C17.1051 27.2841 16.9202 27.36 16.7273 27.36H8.72727V31.68H7.27273V27.36H5.09091C4.89802 27.36 4.71304 27.2841 4.57665 27.1491C4.44026 27.0141 4.36364 26.831 4.36364 26.64C4.36364 26.449 4.44026 26.2659 4.57665 26.1309C4.71304 25.9959 4.89802 25.92 5.09091 25.92H7.27273V18.72H5.09091C4.89802 18.72 4.71304 18.6441 4.57665 18.5091C4.44026 18.3741 4.36364 18.191 4.36364 18C4.36364 17.809 4.44026 17.6259 4.57665 17.4909C4.71304 17.3559 4.89802 17.28 5.09091 17.28H7.27273V10.08H5.09091C4.89802 10.08 4.71304 10.0041 4.57665 9.86912C4.44026 9.73409 4.36364 9.55096 4.36364 9.36C4.36364 9.16904 4.44026 8.98591 4.57665 8.85088C4.71304 8.71586 4.89802 8.64 5.09091 8.64H7.27273V4.32H8.72727V8.64H26.9091C27.102 8.64 27.287 8.71586 27.4234 8.85088C27.5597 8.98591 27.6364 9.16904 27.6364 9.36C27.6364 9.55096 27.5597 9.73409 27.4234 9.86912C27.287 10.0041 27.102 10.08 26.9091 10.08H8.72727Z" fill="#E7503D"/>
</svg>
