<svg width="32" height="35" viewBox="0 0 32 35" fill="none" xmlns="http://www.w3.org/2000/svg">
<path d="M14.2809 25.5254H4.28248C3.88891 25.5254 3.57031 25.8508 3.57031 26.2528C3.57031 26.6547 3.88891 26.9801 4.28248 26.9801H14.2809C14.6745 26.9801 14.9931 26.6547 14.9931 26.2528C14.9931 25.8508 14.6745 25.5254 14.2809 25.5254Z" fill="#E7503D"/>
<path d="M14.2809 29.1621H4.28248C3.88891 29.1621 3.57031 29.4875 3.57031 29.8895C3.57031 30.2915 3.88891 30.6169 4.28248 30.6169H14.2809C14.6745 30.6169 14.9931 30.2915 14.9931 29.8895C14.9931 29.4875 14.6745 29.1621 14.2809 29.1621Z" fill="#E7503D"/>
<path d="M14.2809 21.8789H4.28248C3.88891 21.8789 3.57031 22.2043 3.57031 22.6063C3.57031 23.0082 3.88891 23.3336 4.28248 23.3336H14.2809C14.6745 23.3336 14.9931 23.0082 14.9931 22.6063C14.9931 22.2043 14.6745 21.8789 14.2809 21.8789Z" fill="#E7503D"/>
<path d="M4.28248 19.6872H9.98917C10.3827 19.6872 10.7013 19.3618 10.7013 18.9598C10.7013 18.5578 10.3827 18.2324 9.98917 18.2324H4.28248C3.88891 18.2324 3.57031 18.5578 3.57031 18.9598C3.57031 19.3618 3.88891 19.6872 4.28248 19.6872Z" fill="#E7503D"/>
<path d="M19.7815 9.47461H4.64793C4.04821 9.47461 3.57031 9.80001 3.57031 10.202C3.57031 10.604 4.05758 10.9294 4.64793 10.9294H19.7815C20.3812 10.9294 20.8591 10.604 20.8591 10.202C20.8591 9.80001 20.3718 9.47461 19.7815 9.47461Z" fill="#E7503D"/>
<path d="M4.64793 7.29263H13.297C13.8967 7.29263 14.3746 6.96723 14.3746 6.56526C14.3746 6.16329 13.8873 5.83789 13.297 5.83789H4.64793C4.04821 5.83789 3.57031 6.16329 3.57031 6.56526C3.57031 6.96723 4.05758 7.29263 4.64793 7.29263Z" fill="#E7503D"/>
<path d="M31.4103 24.7881C31.4103 21.0459 28.6366 17.9068 24.982 17.5335V7.29286H29.9766C30.3701 7.29286 30.6887 6.96746 30.6887 6.56549V3.64643C30.6981 1.63659 29.1051 0 27.1279 0H3.5702C1.60237 0 0 1.63659 0 3.64643V34.2726C0 34.6746 0.3186 35 0.712166 35H24.2699C24.6634 35 24.982 34.6746 24.982 34.2726V32.0905C28.6459 31.7173 31.429 28.5589 31.4103 24.7976V24.7881ZM29.2738 3.64643V5.83812H24.982V3.64643C24.982 2.44053 25.9378 1.45474 27.1279 1.45474C28.318 1.45474 29.2738 2.43095 29.2738 3.64643ZM1.42433 33.5357V3.64643C1.42433 2.44053 2.38013 1.46431 3.56083 1.46431H24.2699C23.2953 2.78507 23.5577 2.19169 23.5577 17.5431C19.622 17.8302 16.6609 21.3139 16.942 25.3336C17.1951 28.9513 20.0156 31.8321 23.5577 32.0905V33.5453H1.42433V33.5357ZM24.2699 30.6166C21.112 30.6166 18.5632 28.0038 18.5632 24.7881C18.5632 21.5723 21.1213 18.9595 24.2699 18.9595C27.4184 18.9595 29.9766 21.5723 29.9766 24.7881C29.9766 28.0134 27.4184 30.6166 24.2699 30.6166Z" fill="#E7503D"/>
<path d="M25.9956 22.7511H25.6343C25.5608 22.5269 25.4576 22.3149 25.328 22.1213H25.9956C26.1289 22.1213 26.2568 22.0653 26.3511 21.9655C26.4454 21.8658 26.4983 21.7305 26.4983 21.5894C26.4983 21.4484 26.4454 21.3131 26.3511 21.2133C26.2568 21.1136 26.1289 21.0575 25.9956 21.0575H23.44C23.4216 21.0575 23.4038 21.0547 23.385 21.0547H22.0555C21.9221 21.0547 21.7943 21.1107 21.7 21.2105C21.6057 21.3102 21.5527 21.4455 21.5527 21.5866C21.5527 21.7277 21.6057 21.863 21.7 21.9627C21.7943 22.0625 21.9221 22.1185 22.0555 22.1185H23.385C23.6084 22.1185 23.8284 22.1761 24.026 22.2864C24.2235 22.3966 24.3927 22.5561 24.5189 22.7511H22.0763C21.9429 22.7511 21.815 22.8071 21.7208 22.9069C21.6265 23.0066 21.5735 23.1419 21.5735 23.283C21.5735 23.4241 21.6265 23.5594 21.7208 23.6591C21.815 23.7589 21.9429 23.8149 22.0763 23.8149H24.7391C24.6858 24.1544 24.5205 24.4629 24.2726 24.6857C24.0247 24.9084 23.7103 25.0311 23.385 25.0319H22.0555C21.9572 25.0319 21.8611 25.0625 21.779 25.1197C21.697 25.1769 21.6326 25.2583 21.5938 25.3538C21.555 25.4494 21.5435 25.5548 21.5607 25.6572C21.578 25.7595 21.6232 25.8543 21.6908 25.9298L24.409 28.9616C24.4539 29.0142 24.5084 29.0567 24.5691 29.0867C24.6298 29.1167 24.6956 29.1335 24.7625 29.1362C24.8295 29.1389 24.8963 29.1274 24.959 29.1024C25.0217 29.0774 25.0791 29.0394 25.1277 28.9906C25.1763 28.9418 25.2152 28.8832 25.2421 28.8183C25.269 28.7534 25.2834 28.6834 25.2844 28.6125C25.2854 28.5416 25.2729 28.4712 25.2479 28.4055C25.2228 28.3398 25.1855 28.28 25.1383 28.2297L23.2252 26.0957H23.385C23.9774 26.0949 24.5483 25.861 24.9866 25.4394C25.4249 25.0178 25.6993 24.4387 25.7563 23.8149H25.9956C26.1289 23.8149 26.2568 23.7589 26.3511 23.6591C26.4454 23.5594 26.4983 23.4241 26.4983 23.283C26.4983 23.1419 26.4454 23.0066 26.3511 22.9069C26.2568 22.8071 26.1289 22.7511 25.9956 22.7511Z" fill="#E7503D"/>
</svg>
