<svg width="272" height="114" viewBox="0 0 272 114" fill="none" xmlns="http://www.w3.org/2000/svg">
<rect x="0.5" y="0.5" width="271" height="113" rx="9.5" fill="#FFB71B" fill-opacity="0.1" stroke="#FFB71B"/>
<path opacity="0.67" d="M9.54308 112.275C5.07246 102.521 -5.52289 95.5501 3.58226 80.2208C12.6874 64.8916 17.3219 74.4733 17.6572 63.3234C17.9925 52.1734 18.9835 46.7709 33.0511 46.7709C47.1186 46.7709 44.9727 50.4327 56.3951 47.1159C67.8175 43.7992 83.5466 34.3978 96.9585 44.6774C110.37 54.957 105.564 68.373 103.582 74.1205C101.6 79.868 102.755 82.8319 104.745 83.8748C106.734 84.9176 111.697 93.629 111.533 98.5061C111.369 103.383 110.042 108.958 108.053 110.699C106.064 112.44 105.237 113.31 105.237 113.31L9.54308 112.275Z" fill="white" fill-opacity="0.3"/>
<g opacity="0.85">
<path opacity="0.85" d="M40.4563 111.412C40.6575 110.864 41.9018 105.579 41.4995 101.925C41.0897 98.2708 41.1642 97.2515 42.1403 94.4287C43.1164 91.6059 43.0269 87.2306 42.7587 84.596C42.483 81.9614 44.5171 76.2688 44.3458 75.3279C44.1744 74.387 41.656 77.743 40.3446 82.4711C39.0332 87.1993 40.4414 93.7152 39.3908 96.7496C38.3402 99.7841 38.1465 103.219 38.0944 105.343C38.0422 107.461 37.0959 111.138 37.2226 111.35C37.3418 111.569 40.4563 111.412 40.4563 111.412Z" fill="#C92615"/>
<g opacity="0.2">
<g opacity="0.2">
<path opacity="0.2" d="M43.7944 75.9789C43.1536 77.3589 42.6246 78.8016 42.1701 80.2601C41.7454 81.6009 41.3877 82.9731 41.1493 84.3688C40.896 85.8664 40.8662 87.3641 40.8289 88.8852C40.7693 91.3473 40.7246 93.8251 40.4638 96.2793C40.1732 99.0551 39.5771 101.784 39.3164 104.559C39.0705 107.1 39.4356 109.688 38.8842 112.181C38.8544 112.306 39.0332 112.353 39.063 112.236C39.2195 111.538 39.3238 110.879 39.3536 110.158C39.4132 108.723 39.3462 107.288 39.4058 105.853C39.525 102.952 40.1732 100.098 40.5383 97.2203C40.8289 94.9777 40.9109 92.7117 40.9705 90.4534C41.0152 88.9087 40.9779 87.3405 41.1344 85.7959C41.2834 84.3296 41.6038 82.879 41.9987 81.4598C42.5128 79.625 43.1462 77.798 43.9509 76.0808C44.0105 75.9632 43.854 75.8691 43.7944 75.9789Z" fill="white"/>
</g>
</g>
<path opacity="0.85" d="M41.165 111.812C41.2321 111.224 42.4317 105.924 44.369 103.007C46.2988 100.09 46.6788 99.1727 47.0588 96.1539C47.4388 93.1429 49.4059 89.4184 50.7769 87.3014C52.1478 85.1843 52.8631 79.0761 53.4145 78.3704C53.9659 77.6647 54.6961 82.04 53.7796 86.8936C52.8631 91.7472 48.8321 96.5538 48.4223 99.7922C48.0125 103.031 46.6937 106.112 45.8294 107.97C44.9576 109.829 44.1902 113.561 43.9815 113.671C43.7804 113.781 41.165 111.812 41.165 111.812Z" fill="#C92615"/>
<g opacity="0.2">
<g opacity="0.2">
<path opacity="0.2" d="M53.4069 79.2564C53.3697 80.707 53.2132 82.1654 53.0046 83.6081C52.8109 84.9333 52.5575 86.2506 52.1999 87.5443C51.805 88.9793 51.2312 90.3044 50.5979 91.6374C49.5324 93.9034 48.452 96.1695 47.5728 98.5218C46.6042 101.109 45.941 103.815 44.9649 106.402C44.0708 108.77 42.6104 110.864 41.9994 113.349C41.9696 113.475 42.1485 113.522 42.1783 113.404C42.372 112.628 42.6104 111.922 42.9457 111.201C43.5567 109.876 44.2794 108.598 44.8383 107.241C45.9112 104.646 46.5744 101.893 47.5057 99.251C48.3328 96.9066 49.3908 94.664 50.434 92.4215C51.0524 91.1042 51.6932 89.8104 52.1328 88.4147C52.5352 87.1366 52.8258 85.8193 53.0418 84.4942C53.3324 82.777 53.5336 81.0128 53.5783 79.2642C53.5932 79.1231 53.4069 79.1231 53.4069 79.2564Z" fill="white"/>
</g>
</g>
<path opacity="0.85" d="M38.5118 112.463C38.3255 111.797 38.1392 107.813 40.151 103.305C42.1553 98.804 42.9451 100.6 43.5412 96.0597C44.1373 91.5197 44.0106 88.7675 45.635 85.2076C47.2667 81.6478 47.6616 79.3269 47.4977 77.7038C47.3338 76.0807 46.8718 70.3724 49.5467 66.052C52.2142 61.7237 53.5926 63.3155 52.7879 65.0013C51.9758 66.6949 48.9581 68.0044 49.6212 76.7628C49.6212 76.7628 50.0981 83.1062 48.7867 86.2427C47.4754 89.3791 46.4844 89.9436 46.1118 94.8521C45.7393 99.7606 46.2012 101.917 44.0032 107.617C41.8051 113.318 43.5487 113.592 43.5487 113.592L38.5118 112.463Z" fill="#F0512A"/>
<g opacity="0.2">
<g opacity="0.2">
<path opacity="0.2" d="M52.0055 64.1623C51.6478 64.3741 51.3274 64.7112 51.0592 65.0327C50.2768 65.9579 49.7255 67.0871 49.3306 68.2475C48.0862 71.9093 48.3843 75.8769 48.1831 79.6955C48.0937 81.4126 47.7807 83.0828 47.3188 84.7294C46.7674 86.7132 46.0894 88.6578 45.6125 90.6729C45.2996 91.9981 45.0909 93.3467 44.8823 94.6954C44.5396 96.8517 44.167 99.0001 43.6231 101.117C43.1239 103.046 42.5278 104.959 41.7976 106.802C41.2238 108.245 40.3968 109.64 40.2552 111.232C40.2478 111.342 40.2329 111.46 40.2403 111.569C40.2478 111.695 40.434 111.695 40.4266 111.569C40.367 110.213 41.1046 108.919 41.6188 107.727C42.3117 106.112 42.8854 104.442 43.3772 102.74C44.018 100.537 44.4874 98.2944 44.8599 96.0284C45.0909 94.6326 45.2772 93.2213 45.5603 91.8334C46.2831 88.2265 47.818 84.8313 48.2576 81.1617C48.4364 79.6562 48.429 78.1351 48.4662 76.6139C48.5184 74.442 48.5929 72.2229 49.04 70.0902C49.4945 67.9339 50.3439 65.7619 52.0427 64.3741C52.0651 64.3584 52.0874 64.3427 52.1172 64.327C52.2066 64.2721 52.1098 64.0996 52.0055 64.1623Z" fill="white"/>
</g>
</g>
<path opacity="0.85" d="M34.6675 113.537C34.4961 112.942 33.6169 106.951 34.5781 102.27C35.5392 97.5888 35.5765 96.3656 34.7271 93.284C33.8851 90.2025 34.5334 84.7765 35.204 81.4127C35.8745 78.0489 34.0863 71.8701 34.4141 70.6469C34.742 69.4237 37.4318 72.5053 38.4526 77.7901C39.4734 83.075 36.9251 91.7001 37.8416 95.0091C38.7581 98.318 38.5569 102.474 38.3557 105.061C38.1546 107.657 38.8624 111.789 38.6761 112.11C38.4899 112.432 34.6675 113.537 34.6675 113.537Z" fill="#F0512A"/>
<g opacity="0.2">
<g opacity="0.2">
<path opacity="0.2" d="M34.8009 71.3762C35.5684 73.1404 36.0899 75.0615 36.4774 76.959C36.8425 78.7389 37.0586 80.558 37.0437 82.385C37.0288 84.2355 36.7903 86.1017 36.6562 87.9443C36.4699 90.4848 36.2911 93.041 36.3358 95.5893C36.3954 98.8747 36.7978 102.152 36.6935 105.446C36.6339 107.32 36.3582 109.178 36.2166 111.052C36.1421 112.032 36.157 112.934 36.2762 113.906C36.2911 114.031 36.4774 114.031 36.4625 113.906C36.3582 113.059 36.3209 112.283 36.3731 111.428C36.4774 109.797 36.6935 108.166 36.8201 106.535C37.0809 103.101 36.6488 99.6588 36.537 96.2323C36.455 93.7624 36.5966 91.3003 36.7754 88.8382C36.9021 87.0191 37.0884 85.1921 37.2001 83.373C37.3045 81.5852 37.1629 79.7818 36.8649 78.0254C36.4848 75.7358 35.8739 73.407 34.9574 71.2821C34.9127 71.1645 34.7562 71.2586 34.8009 71.3762Z" fill="white"/>
</g>
</g>
</g>
<g opacity="0.85">
<path opacity="0.85" d="M21.4125 109.084C21.4274 108.613 20.9878 104.301 19.4753 101.737C17.9702 99.1727 17.7243 98.3964 17.7764 95.9892C17.8211 93.582 16.4054 90.3829 15.3325 88.5245C14.2595 86.6662 14.4309 81.7969 13.9764 81.1618C13.5293 80.5267 12.1882 83.8356 12.4042 87.7561C12.6203 91.6845 15.9435 96.0284 15.8913 98.616C15.8392 101.204 16.7109 103.807 17.3145 105.383C17.918 106.967 18.149 109.993 18.3427 110.111C18.5364 110.229 21.4125 109.084 21.4125 109.084Z" fill="#C92615"/>
<g opacity="0.2">
<g opacity="0.2">
<path opacity="0.2" d="M13.6787 81.7968C13.5073 82.9808 13.4551 84.1962 13.4626 85.388C13.47 86.4544 13.5446 87.5286 13.7159 88.5793C13.9171 89.7947 14.312 90.8924 14.7442 92.0294C15.4744 93.9347 16.2195 95.8401 16.756 97.8161C17.3371 99.941 17.6128 102.144 18.2014 104.261C18.7528 106.261 19.9152 108.064 20.176 110.142C20.1909 110.268 20.3771 110.268 20.3622 110.142C20.2877 109.562 20.1909 109.052 19.9971 108.503C19.6097 107.421 19.1105 106.386 18.723 105.304C17.9556 103.132 17.6724 100.803 17.1434 98.561C16.7112 96.7497 16.0705 95.0011 15.4148 93.2683C14.9752 92.0999 14.4536 90.9473 14.1406 89.7241C13.8575 88.6264 13.7234 87.4894 13.6712 86.3603C13.5967 84.8627 13.6414 83.3258 13.8575 81.836C13.8799 81.7262 13.701 81.6792 13.6787 81.7968Z" fill="white"/>
</g>
</g>
<path opacity="0.85" d="M22.2023 109.146C22.0831 108.692 21.5913 104.379 22.5152 101.588C23.4392 98.7963 23.5062 97.9886 22.9399 95.6442C22.3737 93.2919 23.0741 89.8967 23.7223 87.8815C24.3705 85.8664 23.156 81.1226 23.4615 80.4169C23.767 79.7112 25.7937 82.7064 26.427 86.5878C27.0604 90.4691 24.7431 95.3462 25.3541 97.871C25.9651 100.396 25.667 103.101 25.4211 104.763C25.1753 106.426 25.5925 109.437 25.436 109.586C25.2721 109.735 22.2023 109.146 22.2023 109.146Z" fill="#C92615"/>
<g opacity="0.2">
<g opacity="0.2">
<path opacity="0.2" d="M23.7288 81.0519C24.1535 82.1654 24.459 83.3415 24.7123 84.5098C24.9508 85.6233 25.1147 86.7602 25.1594 87.8972C25.2041 89.1517 25.0104 90.3593 24.8241 91.5981C24.5335 93.5035 24.2429 95.4246 24.1535 97.3535C24.0566 99.5568 24.2578 101.768 24.1237 103.979C24.0045 105.994 23.2817 107.955 23.468 109.985C23.4829 110.111 23.6692 110.111 23.6543 109.985C23.5947 109.342 23.6021 108.778 23.6915 108.135C23.848 107.014 24.1162 105.916 24.2429 104.787C24.4962 102.497 24.2653 100.192 24.3249 97.8945C24.3696 95.9735 24.6453 94.0681 24.9284 92.1784C25.1072 90.9787 25.3531 89.7712 25.3606 88.5558C25.368 87.4738 25.2488 86.3917 25.0625 85.3253C24.8092 83.859 24.4366 82.3849 23.9151 81.0049C23.8629 80.8873 23.6841 80.9343 23.7288 81.0519Z" fill="white"/>
</g>
</g>
<path opacity="0.85" d="M19.9073 110.503C19.5273 110.072 18.1339 107.194 18.6331 103.203C19.1398 99.2118 20.4363 100.278 19.6018 96.7262C18.7672 93.1821 17.7986 91.1826 18.2382 88.0227C18.6778 84.8549 18.3425 83.0122 17.6868 81.8596C17.0312 80.7148 14.848 76.6532 16.0327 72.5758C17.2174 68.4985 19.0057 69.2198 18.7598 70.7332C18.5139 72.2465 16.0774 74.2146 19.3857 80.4639C19.3857 80.4639 21.7849 84.9882 21.5167 87.7404C21.2484 90.4848 20.4884 91.2375 21.6433 94.9777C22.8057 98.7257 23.8936 100.161 23.5806 105.1C23.2602 110.032 24.9889 109.664 24.9889 109.664L19.9073 110.503Z" fill="#F0512A"/>
<g opacity="0.2">
<g opacity="0.2">
<path opacity="0.2" d="M17.7843 70.3568C16.8082 71.3291 16.5176 73.0463 16.5176 74.3793C16.5102 77.5549 18.0674 80.3855 19.0211 83.3024C19.9674 86.2114 19.5874 89.2851 19.9302 92.2961C20.0494 93.3075 20.2506 94.3034 20.4517 95.2992C20.8094 97.0712 21.1223 98.8512 21.249 100.662C21.3757 102.395 21.3757 104.152 21.1968 105.885C21.0851 106.967 20.7647 108.26 21.2639 109.295C21.3161 109.405 21.48 109.311 21.4278 109.194C20.9733 108.245 21.2565 107.037 21.3682 106.049C21.5321 104.622 21.5545 103.179 21.4949 101.745C21.4204 99.9019 21.1745 98.0827 20.8317 96.2715C20.6306 95.2129 20.3847 94.1622 20.2208 93.0958C19.7737 90.2339 20.1686 87.2699 19.5278 84.4393C19.2596 83.2553 18.7902 82.1341 18.358 81.0049C17.7396 79.4054 17.1211 77.7509 16.8455 76.0494C16.6145 74.6537 16.6368 73.1639 17.1435 71.8388C17.3223 71.3683 17.5682 70.8508 17.9258 70.4979C18.0004 70.4038 17.8662 70.2706 17.7843 70.3568Z" fill="white"/>
</g>
</g>
<path opacity="0.85" d="M16.614 112.565C16.2638 112.181 13.5963 108.049 13.0673 104.277C12.5308 100.506 12.1955 99.5882 10.452 97.5966C8.70843 95.605 7.65784 91.3786 7.25548 88.6735C6.85313 85.9683 3.26919 82.0008 3.20213 80.9893C3.13507 79.9778 6.60725 81.3656 9.2002 84.9333C11.7932 88.501 12.0316 95.7069 13.9092 97.8475C15.7869 99.9881 16.8748 103.125 17.4857 105.1C18.0967 107.076 20.034 109.899 19.952 110.197C19.8701 110.487 16.614 112.565 16.614 112.565Z" fill="#F0512A"/>
<g opacity="0.2">
<g opacity="0.2">
<path opacity="0.2" d="M3.7902 81.3892C4.78119 82.2203 5.68276 83.2005 6.50237 84.2041C7.29218 85.1686 8.00748 86.2036 8.60356 87.317C9.30396 88.6265 9.72122 90.0222 10.1534 91.4414C10.8463 93.7075 11.5244 95.9971 12.4334 98.1769C13.4765 100.686 14.8997 102.999 15.8981 105.524C16.4867 107.014 16.822 108.605 17.2989 110.134C17.5448 110.934 17.8354 111.609 18.2675 112.306C18.3346 112.408 18.4911 112.314 18.4315 112.205C18.044 111.577 17.7683 110.973 17.5448 110.26C17.1126 108.903 16.8146 107.492 16.3452 106.143C15.4212 103.517 13.9608 101.156 12.8432 98.6238C11.9118 96.5146 11.2338 94.2956 10.5557 92.0844C10.1236 90.6808 9.75847 89.2381 9.13259 87.9129C8.60356 86.7917 7.93297 85.741 7.19532 84.7608C6.23414 83.4828 5.14629 82.2517 3.92432 81.2324C3.82746 81.1775 3.70079 81.3108 3.7902 81.3892Z" fill="white"/>
</g>
</g>
</g>
<g opacity="0.85">
<path opacity="0.85" d="M96.0429 109.178C96.2143 108.747 97.2351 104.544 96.6837 101.58C96.1323 98.6238 96.1621 97.8083 97.0041 95.5658C97.8461 93.3233 97.5853 89.8105 97.2053 87.6777C96.8253 85.545 98.5986 81.0442 98.39 80.2836C98.1814 79.523 95.8194 82.1263 94.7166 85.8821C93.6139 89.638 95.2755 94.9385 94.359 97.3379C93.4425 99.7451 93.3978 102.497 93.4351 104.199C93.4723 105.9 92.6825 108.825 92.8166 109.005C92.9656 109.186 96.0429 109.178 96.0429 109.178Z" fill="#C92615"/>
<g opacity="0.2">
<g opacity="0.2">
<path opacity="0.2" d="M97.8893 80.7855C97.323 81.8519 96.861 82.9888 96.4661 84.1336C96.1085 85.1765 95.8104 86.2585 95.6242 87.3563C95.4304 88.5403 95.4453 89.7086 95.4751 90.9083C95.5198 92.9156 95.5795 94.9307 95.4304 96.9302C95.2591 99.1727 94.7747 101.376 94.6257 103.626C94.4916 105.665 94.961 107.735 94.5214 109.742C94.4916 109.868 94.6704 109.915 94.7002 109.797C95.0653 108.127 94.7896 106.449 94.7747 104.756C94.7598 102.403 95.2889 100.09 95.5422 97.7613C95.7359 95.9501 95.721 94.1153 95.6912 92.2961C95.6689 91.0494 95.5645 89.7792 95.6689 88.5324C95.7657 87.3641 96.0191 86.2193 96.3544 85.1059C96.7865 83.6631 97.3453 82.2204 98.0532 80.9031C98.1053 80.7776 97.9489 80.6757 97.8893 80.7855Z" fill="white"/>
</g>
</g>
<path opacity="0.85" d="M96.7646 109.531C96.8094 109.06 97.778 104.842 99.5737 102.568C101.369 100.294 101.705 99.5646 101.958 97.1574C102.211 94.7502 104 91.8255 105.281 90.1789C106.555 88.5323 107.002 83.6395 107.524 83.0906C108.045 82.5417 108.947 86.0937 108.239 89.9672C107.539 93.8407 103.739 97.5495 103.471 100.137C103.202 102.732 102.025 105.155 101.235 106.622C100.453 108.088 99.8419 111.06 99.6407 111.138C99.4396 111.216 96.7646 109.531 96.7646 109.531Z" fill="#C92615"/>
<g opacity="0.2">
<g opacity="0.2">
<path opacity="0.2" d="M107.554 83.7965C107.577 84.9491 107.48 86.1175 107.338 87.2623C107.204 88.313 107.01 89.3558 106.72 90.3673C106.392 91.5199 105.885 92.5471 105.319 93.59C104.35 95.3856 103.352 97.1812 102.57 99.0787C101.72 101.125 101.169 103.289 100.312 105.328C99.5222 107.202 98.1736 108.786 97.6669 110.785C97.6371 110.911 97.8159 110.958 97.8457 110.84C98.0097 110.205 98.2183 109.656 98.5238 109.084C99.0826 108.033 99.7383 107.045 100.238 105.963C101.191 103.909 101.743 101.682 102.57 99.5727C103.3 97.7222 104.246 95.9737 105.185 94.2251C105.744 93.1901 106.318 92.1786 106.698 91.0573C107.04 90.038 107.271 88.9716 107.435 87.9052C107.644 86.5487 107.77 85.1609 107.741 83.7887C107.733 83.6711 107.547 83.6711 107.554 83.7965Z" fill="white"/>
</g>
</g>
<path opacity="0.85" d="M94.1577 109.954C93.9416 109.405 93.5989 106.198 95.402 102.646C97.2052 99.0942 98.0695 100.568 98.4719 96.9379C98.8742 93.3075 98.6283 91.0885 100.096 88.2814C101.564 85.4822 101.862 83.6238 101.631 82.3144C101.4 80.9971 100.707 76.3944 103.173 73.0149C105.64 69.6354 107.078 70.9684 106.34 72.2935C105.602 73.6187 102.667 74.5596 103.688 81.6322C103.688 81.6322 104.425 86.7603 103.255 89.2302C102.086 91.7001 101.124 92.1235 100.96 96.0597C100.797 99.9959 101.34 101.745 99.4032 106.253C97.4585 110.754 99.2021 111.044 99.2021 111.044L94.1577 109.954Z" fill="#F0512A"/>
<g opacity="0.2">
<g opacity="0.2">
<path opacity="0.2" d="M105.565 71.5721C104.424 72.074 103.612 73.3991 103.15 74.5361C101.995 77.3824 102.39 80.605 102.398 83.6082C102.405 84.9568 102.219 86.2663 101.861 87.5679C101.407 89.2145 100.773 90.7984 100.356 92.4607C100.088 93.5271 99.9241 94.617 99.7676 95.7069C99.5217 97.4319 99.246 99.1491 98.8064 100.835C98.3519 102.576 97.7633 104.293 97.0033 105.908C96.519 106.935 95.7068 108.088 95.8409 109.303C95.8558 109.429 96.0421 109.429 96.0272 109.303C95.908 108.206 96.6158 107.155 97.0629 106.23C97.6739 104.959 98.1805 103.626 98.5978 102.27C99.1417 100.506 99.5143 98.7022 99.79 96.8752C99.9613 95.7618 100.088 94.6405 100.312 93.5349C100.893 90.6494 102.279 87.9835 102.539 85.0274C102.644 83.812 102.562 82.5888 102.539 81.3735C102.502 79.6406 102.487 77.845 102.867 76.1435C103.15 74.8575 103.672 73.5951 104.551 72.6385C104.842 72.317 105.304 71.9172 105.632 71.776C105.721 71.7054 105.676 71.5173 105.565 71.5721Z" fill="white"/>
</g>
</g>
<path opacity="0.85" d="M90.3872 110.668C90.186 110.182 89.0684 105.328 89.8284 101.596C90.5884 97.8632 90.5735 96.8831 89.6048 94.374C88.6362 91.8648 89.0609 87.5209 89.5825 84.8393C90.1041 82.1576 88.0774 77.1158 88.3531 76.1435C88.6287 75.1713 91.4229 77.751 92.6523 82.0479C93.8892 86.3447 91.7135 93.1821 92.7566 95.8795C93.7998 98.5768 93.7774 101.917 93.688 103.995C93.5986 106.073 94.4703 109.429 94.299 109.68C94.1276 109.931 90.3872 110.668 90.3872 110.668Z" fill="#F0512A"/>
<g opacity="0.2">
<g opacity="0.2">
<path opacity="0.2" d="M88.778 76.7551C89.5306 78.0646 90.1043 79.5152 90.5663 80.9658C90.9984 82.3144 91.3114 83.7101 91.4306 85.1372C91.5498 86.6349 91.3934 88.156 91.3337 89.6537C91.2443 91.8256 91.1549 94.0054 91.3039 96.1774C91.4902 98.859 92.0341 101.509 92.0788 104.207C92.1012 105.728 91.9 107.249 91.8404 108.77C91.8106 109.578 91.8628 110.283 92.0267 111.068C92.049 111.193 92.2353 111.138 92.2055 111.013C92.0639 110.33 91.9969 109.703 92.0192 109.005C92.0565 107.641 92.2279 106.285 92.2651 104.928C92.3396 102.144 91.7659 99.3922 91.5275 96.6322C91.3486 94.5229 91.4083 92.398 91.4902 90.2888C91.5498 88.799 91.7063 87.2857 91.6541 85.7959C91.6094 84.4158 91.3561 83.0437 90.9835 81.7185C90.4992 79.9778 89.8286 78.2293 88.9345 76.6689C88.8749 76.5434 88.711 76.6454 88.778 76.7551Z" fill="white"/>
</g>
</g>
</g>
<path d="M18.1348 82.9808V88.0697H45.5396L45.4949 82.8475L18.1348 82.9808Z" fill="#FCC84E"/>
<path d="M31.0918 82.9965L31.1216 88.1402L44.0044 88.0696V82.9965H31.0918Z" fill="#E7503D"/>
<path d="M20.377 82.973L20.444 88.0775L22.8656 88.0462L22.8358 82.973" fill="#FEF04F"/>
<path d="M17.2178 87.9992V93.0802H44.6226L44.5779 87.858L17.2178 87.9992Z" fill="#FCC84E"/>
<path d="M30.1748 88.007L30.2121 93.1507L43.0874 93.0801V88.007H30.1748Z" fill="#E7503D"/>
<path d="M19.46 87.9835L19.527 93.0959L21.9561 93.0567L21.9262 87.9835" fill="#FEF04F"/>
<path d="M18.3877 92.986V98.0748H45.7851L45.7478 92.8527L18.3877 92.986Z" fill="#FCC84E"/>
<path d="M31.3447 93.0016L31.3745 98.1453L44.2573 98.0747V93.0016H31.3447Z" fill="#E7503D"/>
<path d="M20.6299 92.9781L20.6895 98.0827L23.1185 98.0513L23.0887 92.9781" fill="#FEF04F"/>
<path d="M16.6143 98.0905V103.179H44.0191L43.9744 97.9572L16.6143 98.0905Z" fill="#FCC84E"/>
<path d="M29.5713 98.1062L29.6085 103.25L42.4839 103.179V98.1062H29.5713Z" fill="#E7503D"/>
<path d="M18.8564 98.0828L18.9235 103.195L21.3525 103.156L21.3227 98.0828" fill="#FEF04F"/>
<path d="M18.3213 103.132V108.213H45.7261L45.6814 102.991L18.3213 103.132Z" fill="#FCC84E"/>
<path d="M31.2783 103.14L31.3081 108.284L44.1909 108.213V103.14H31.2783Z" fill="#E7503D"/>
<path d="M20.5635 103.117L20.6305 108.229L23.0596 108.19L23.0223 103.117" fill="#FEF04F"/>
<path d="M16.1826 108.307V113.396H43.5875L43.5428 108.174L16.1826 108.307Z" fill="#FCC84E"/>
<path d="M29.1406 108.315L29.1779 113.459L42.0532 113.396V108.315H29.1406Z" fill="#E7503D"/>
<path d="M18.4248 108.292L18.4919 113.404L20.9209 113.373L20.8911 108.292" fill="#FEF04F"/>
<path d="M50.0945 40.5743C54.2125 40.4667 57.4695 36.9367 57.3693 32.6897C57.2691 28.4428 53.8496 25.0872 49.7316 25.1948C45.6137 25.3024 42.3566 28.8325 42.4568 33.0794C42.557 37.3263 45.9765 40.6819 50.0945 40.5743Z" fill="#DC952D"/>
<path d="M50.7576 40.5743C54.8756 40.4667 58.1326 36.9367 58.0324 32.6897C57.9322 28.4428 54.5127 25.0872 50.3947 25.1948C46.2767 25.3024 43.0197 28.8325 43.1199 33.0794C43.2201 37.3263 46.6396 40.6819 50.7576 40.5743Z" fill="#FCC84E"/>
<path d="M43.1319 32.8139C46.5892 30.4772 50.0465 28.1328 53.4963 25.7961C53.9359 25.9922 54.45 26.2744 54.9791 26.6743C55.2846 26.9017 55.5528 27.137 55.7763 27.3644L43.6908 35.7072C43.6908 35.7072 42.9829 34.6722 43.1319 32.8139Z" fill="#FEF04F"/>
<path d="M45.8516 38.8437C49.8155 36.1463 53.7869 33.449 57.7508 30.7517C57.8626 31.1673 57.9595 31.6534 58.0042 32.2023C58.0265 32.4924 58.034 32.759 58.034 33.0099C54.6363 35.3544 51.2387 37.6989 47.841 40.0512C47.61 39.9571 47.3567 39.8473 47.0959 39.7062C46.5967 39.4317 46.1794 39.1259 45.8516 38.8437Z" fill="#F59E1B"/>
<path d="M50.6276 38.8358C53.7221 38.8358 56.2307 36.1958 56.2307 32.9393C56.2307 29.6828 53.7221 27.0428 50.6276 27.0428C47.533 27.0428 45.0244 29.6828 45.0244 32.9393C45.0244 36.1958 47.533 38.8358 50.6276 38.8358Z" fill="#D2753F"/>
<path d="M51.0746 38.6224C54.0325 38.5451 56.3707 35.9556 56.2972 32.8386C56.2236 29.7216 53.7662 27.2574 50.8083 27.3347C47.8505 27.412 45.5123 30.0015 45.5858 33.1185C45.6593 36.2355 48.1168 38.6997 51.0746 38.6224Z" fill="#E7503D"/>
<path d="M49.4258 30.2578H53.1211C53.1419 30.2604 53.1523 30.2708 53.1523 30.2891V30.6406C53.1523 30.6615 53.1419 30.6719 53.1211 30.6719H51.7305V30.7031C51.9284 30.8099 52.082 31.0286 52.1914 31.3594L52.207 31.4727H53.1211C53.1419 31.4753 53.1523 31.4857 53.1523 31.5039V31.8555C53.1523 31.8763 53.1419 31.8867 53.1211 31.8867H52.2422C52.2422 32.2799 52.0013 32.6628 51.5195 33.0352C51.0924 33.2799 50.7891 33.4023 50.6094 33.4023C50.6094 33.4128 50.599 33.418 50.5781 33.418L52.5625 35.9883V36.0195H51.8086C51.8008 36.0195 51.0339 35.0247 49.5078 33.0352V33.0195H49.7461C50.5898 33.0195 51.0964 32.7161 51.2656 32.1094C51.276 32.0365 51.2812 31.9779 51.2812 31.9336V31.8867H49.4258C49.4049 31.8867 49.3945 31.8763 49.3945 31.8555V31.5039C49.3971 31.4831 49.4076 31.4727 49.4258 31.4727H51.2656C51.2031 31.2357 51.0703 31.043 50.8672 30.8945C50.5859 30.7461 50.3294 30.6719 50.0977 30.6719H49.4258C49.4049 30.6719 49.3945 30.6615 49.3945 30.6406V30.2891C49.3971 30.2682 49.4076 30.2578 49.4258 30.2578Z" fill="white"/>
<path d="M49.4258 30.2578H53.1211C53.1419 30.2604 53.1523 30.2708 53.1523 30.2891V30.6406C53.1523 30.6615 53.1419 30.6719 53.1211 30.6719H51.7305V30.7031C51.9284 30.8099 52.082 31.0286 52.1914 31.3594L52.207 31.4727H53.1211C53.1419 31.4753 53.1523 31.4857 53.1523 31.5039V31.8555C53.1523 31.8763 53.1419 31.8867 53.1211 31.8867H52.2422C52.2422 32.2799 52.0013 32.6628 51.5195 33.0352C51.0924 33.2799 50.7891 33.4023 50.6094 33.4023C50.6094 33.4128 50.599 33.418 50.5781 33.418L52.5625 35.9883V36.0195H51.8086C51.8008 36.0195 51.0339 35.0247 49.5078 33.0352V33.0195H49.7461C50.5898 33.0195 51.0964 32.7161 51.2656 32.1094C51.276 32.0365 51.2812 31.9779 51.2812 31.9336V31.8867H49.4258C49.4049 31.8867 49.3945 31.8763 49.3945 31.8555V31.5039C49.3971 31.4831 49.4076 31.4727 49.4258 31.4727H51.2656C51.2031 31.2357 51.0703 31.043 50.8672 30.8945C50.5859 30.7461 50.3294 30.6719 50.0977 30.6719H49.4258C49.4049 30.6719 49.3945 30.6615 49.3945 30.6406V30.2891C49.3971 30.2682 49.4076 30.2578 49.4258 30.2578Z" fill="white"/>
<path d="M55.9786 112.738C55.9935 112.526 55.8594 112.44 56.15 112.079C56.4406 111.718 58.2885 111.177 58.2885 111.177L62.1332 111.091L62.1481 112.722L55.9786 112.738Z" fill="#529A74"/>
<path d="M73.6299 87.9755C73.6299 87.8971 74.442 87.0189 74.442 87.0189L76.0589 87.2855L73.5777 85.0508L72.1099 86.7523L73.6299 87.9755Z" fill="#FEABB5"/>
<path d="M59.9269 107.907C59.9269 107.907 59.9641 110.111 59.912 110.268C59.8598 110.424 58.8018 111.24 58.8018 111.24L61.8194 111.169L61.7673 107.955L59.9269 107.907Z" fill="#FEABB5"/>
<path d="M57.4916 59.4262C56.9104 58.4696 55.8226 55.1921 57.6704 51.8126C57.6704 51.8126 59.1383 50.2993 61.3662 50.2679C63.594 50.2444 65.4642 52.2125 65.4642 52.2125C65.4642 52.2125 68.2733 52.0557 69.5623 53.2789C70.8513 54.5021 70.9556 55.5136 70.9556 55.5136C70.9556 55.5136 73.9882 55.3803 75.0239 57.9365C76.0596 60.4926 75.5827 63.6291 74.6215 64.6954C73.6603 65.7618 72.7737 66.6949 70.4489 66.5302C68.1242 66.3734 68.7278 65.8637 67.1332 66.1303C65.5387 66.3969 63.7207 64.6641 63.7207 64.6641L57.4916 59.4262Z" fill="#4F2926"/>
<path d="M55.7479 75.6337C55.6809 75.7434 59.6224 108.315 59.6224 108.315L62.8934 108.245L62.424 91.8489L58.6166 75.6337H55.7479Z" fill="#3252A1"/>
<path d="M62.3938 74.1126C61.2091 74.0028 60.1585 75.2339 57.111 75.6338C56.9247 75.6573 56.7757 75.673 56.6714 75.6808C60.0989 85.6468 62.7812 92.9546 63.653 94.8208C63.884 95.3226 64.331 96.193 65.1432 96.4125C65.7244 96.5694 66.3354 96.3028 67.0581 95.9578C68.4067 95.3226 74.0025 88.1167 74.0025 88.1167L71.9087 86.3054C71.9087 86.3054 66.9836 91.5903 66.6856 91.308C66.3801 91.0257 66.2832 80.3462 65.6424 78.3938C65.2475 77.202 64.1299 74.2773 62.3938 74.1126Z" fill="#5670C4"/>
<path d="M59.5251 51.4676C59.5251 51.4676 58.5266 52.0949 58.1988 52.8947C57.8709 53.6945 57.8188 53.8905 57.8188 53.8905C57.8188 53.8905 57.4388 53.6004 57.2898 53.8905C57.1407 54.1806 57.2749 54.9804 57.5282 55.0353C57.7815 55.0902 57.7815 55.0902 57.7815 55.0902C57.7815 55.0902 57.7666 56.8466 59.0333 57.6307C60.3 58.4148 62.1702 56.5486 62.3565 56.2114C62.3565 56.2114 62.5651 56.1487 62.7514 56.0781C62.9376 56.0154 63.1537 55.5214 63.1165 55.1607C63.0792 54.8 62.9749 54.7373 62.7365 54.6432C62.498 54.5491 61.8498 54.11 61.7604 53.7493C61.6784 53.3808 61.0972 50.9501 59.5251 51.4676Z" fill="#FEABB5"/>
<path d="M58.5342 57.3248C58.5268 57.9913 58.5119 58.6656 58.5044 59.3321C58.3852 59.4262 58.2064 59.5359 57.9829 59.5673C57.8562 59.583 57.8189 59.5673 57.7593 59.5752C57.3495 59.6536 57.1633 61.0179 57.3197 62.1784C57.3868 62.6488 57.4837 62.9625 57.737 63.1428C57.8562 63.2291 58.0127 63.284 58.2139 63.2918C58.9888 63.3153 59.7339 62.9076 60.0096 62.5234C60.2033 62.2568 60.6354 61.9275 60.8217 61.2845C61.0303 60.5553 60.8515 59.9358 60.777 59.7084C60.7025 59.583 60.6354 59.4497 60.5609 59.3242L60.5237 57.4894C59.868 57.3953 59.2048 57.3012 58.5492 57.2072C58.5342 57.2464 58.5342 57.2856 58.5342 57.3248Z" fill="#FEABB5"/>
<path d="M49.9355 40.5215C50.0399 41.6271 50.1889 43.3443 50.3081 45.4457C50.5242 49.1545 50.4348 50.1896 50.7254 51.9224C50.9861 53.4514 51.5748 55.6469 53.0575 58.2031L55.3673 55.8273C55.3673 55.8273 53.2438 51.7029 53.1097 50.2288C52.9756 48.7546 52.305 41.2743 52.305 41.2743C52.305 41.2743 53.5493 40.5921 53.743 40.0746C53.8697 39.7374 53.8399 39.4944 53.7877 39.3297C53.7356 39.165 53.7132 39.1337 53.6909 39.1337C53.6164 39.118 53.5493 39.2905 53.4003 39.4787C53.4003 39.4787 53.2885 39.6198 52.9979 39.8394C52.7073 40.0589 52.1411 40.2863 51.4034 40.3804C50.9265 40.4275 50.4348 40.4745 49.9355 40.5215Z" fill="#FEABB5"/>
<path d="M67.1626 59.8967L82.8917 59.9359C82.8917 59.9359 83.9647 57.8894 84.4788 57.6307C84.9929 57.3641 84.8364 57.8188 84.5831 58.3834C84.3298 58.948 84.4415 59.0028 84.5458 59.0028C84.6501 59.0028 88.4502 58.9088 88.4725 59.1361C88.4874 59.3635 87.8913 59.4263 87.3698 59.4263C86.8482 59.4263 86.4309 59.3949 86.4607 59.536C86.4905 59.6772 87.0866 59.7634 87.5188 59.7634C87.9435 59.7634 88.4949 59.7477 88.6961 59.8732C88.8972 59.9987 88.6961 60.2809 88.3459 60.2809C87.9957 60.2809 86.6992 60.3907 86.647 60.4064C86.5949 60.4221 86.6098 60.5867 86.8854 60.673C87.1686 60.7592 88.1298 60.8455 88.2192 60.9004C88.316 60.9553 88.5694 61.1121 88.2713 61.1983C87.9808 61.2846 86.9972 61.1983 86.7588 61.1983C86.5204 61.1983 86.3415 61.1983 86.5204 61.4257C86.6917 61.6531 87.5262 62.0452 87.4592 62.2804C87.3921 62.5235 86.7886 62.053 86.5129 61.8413C86.2298 61.6296 85.6337 61.559 85.045 61.6139C84.4564 61.6688 83.1301 61.7394 83.0407 61.6688C82.9513 61.5982 67.1924 63.2448 67.1924 63.2448L67.1626 59.8967Z" fill="#FEABB5"/>
<path d="M73.2801 85.1763C73.2801 85.1763 73.0044 84.1099 73.608 83.6865C74.2115 83.263 79.0472 87.5991 79.0472 87.5991C79.0472 87.5991 77.2292 87.6775 76.5437 87.5991C75.8582 87.5207 73.2801 85.1763 73.2801 85.1763Z" fill="#529A74"/>
<path d="M58.5117 57.1523C58.7054 57.27 58.9737 57.4189 59.3164 57.5052C59.9274 57.662 60.4788 57.5679 60.4937 57.6463C60.4937 57.6699 60.4639 57.7012 60.3074 57.7483C60.2478 57.7718 60.1658 57.8032 60.0615 57.8424C59.8902 57.9051 59.607 58.0149 59.458 58.0541C59.2717 58.109 58.9662 58.1638 58.5341 58.1168L58.5117 57.1523Z" fill="#FE8D90"/>
<path d="M59.0398 53.6604C59.0702 53.3503 58.9124 53.0791 58.6873 53.0546C58.4621 53.0301 58.255 53.2617 58.2245 53.5719C58.1941 53.882 58.3519 54.1533 58.5771 54.1777C58.8022 54.2022 59.0094 53.9706 59.0398 53.6604Z" fill="#4F2926"/>
<path d="M61.6023 53.948C61.6327 53.6379 61.4749 53.3666 61.2498 53.3422C61.0246 53.3177 60.8175 53.5493 60.787 53.8595C60.7566 54.1696 60.9144 54.4408 61.1396 54.4653C61.3647 54.4898 61.5719 54.2582 61.6023 53.948Z" fill="#4F2926"/>
<path d="M58.9998 55.6861C59.0818 55.4046 58.9058 55.0982 58.6068 55.0018C58.3078 54.9054 57.9989 55.0555 57.917 55.337C57.835 55.6186 58.011 55.9249 58.31 56.0213C58.609 56.1177 58.9178 55.9677 58.9998 55.6861Z" fill="#FE8D90"/>
<path d="M61.6602 55.6681C61.6752 55.374 61.4342 55.1213 61.1219 55.1036C60.8096 55.0859 60.5442 55.31 60.5292 55.604C60.5141 55.8981 60.7551 56.1508 61.0674 56.1685C61.3797 56.1862 61.6451 55.9621 61.6602 55.6681Z" fill="#FE8D90"/>
<path d="M57.7816 59.928C57.7816 59.9593 57.8338 61.7157 58.1541 61.9588C58.4745 62.2019 59.4953 61.606 59.7189 61.3943C59.9424 61.1904 60.6279 60.4455 60.6279 60.4455C60.6279 60.4455 60.7098 61.7393 60.2255 62.2097C59.7412 62.6802 58.1169 63.0801 57.9008 62.9233C57.6847 62.7664 57.6251 62.5939 57.6177 62.0999C57.6177 61.606 57.7816 59.928 57.7816 59.928Z" fill="#FE8D90"/>
<path d="M52.8119 57.7326C52.7448 57.5287 55.2409 55.4116 55.2409 55.4116C55.2409 55.4116 55.5464 56.086 55.9264 56.8465C56.5448 58.0854 56.7013 58.4304 57.0441 58.799C57.4241 59.2067 57.819 59.4419 58.0723 59.5674C57.9233 60.0692 57.8562 60.5005 57.8264 60.8141C57.7444 61.708 57.8488 62.696 57.8488 62.696C57.8488 62.696 59.2123 62.6411 59.9872 61.8413C60.7621 61.0415 60.6131 59.6379 60.6131 59.6379L67.3712 59.7634C67.3712 59.7634 68.1535 63.4879 67.5723 63.5663C66.9912 63.6447 63.7276 63.778 63.1241 64.9463C62.5206 66.1146 61.4551 69.9254 61.6562 71.5485C61.8574 73.1716 62.6398 74.1047 62.6398 74.1047C62.6398 74.1047 61.4998 74.928 59.3017 75.4063C57.1037 75.8846 55.688 75.8611 55.688 75.8611C55.688 75.8611 54.168 69.5255 54.2723 65.6128C54.3766 61.7158 54.2276 62.053 52.8119 57.7326Z" fill="#FECB73"/>
<path d="M55.2782 67.4711C55.6074 67.4711 55.8743 67.1903 55.8743 66.8438C55.8743 66.4974 55.6074 66.2166 55.2782 66.2166C54.949 66.2166 54.6821 66.4974 54.6821 66.8438C54.6821 67.1903 54.949 67.4711 55.2782 67.4711Z" fill="white"/>
<path d="M60.7318 63.8329C61.061 63.8329 61.3279 63.5521 61.3279 63.2057C61.3279 62.8592 61.061 62.5784 60.7318 62.5784C60.4026 62.5784 60.1357 62.8592 60.1357 63.2057C60.1357 63.5521 60.4026 63.8329 60.7318 63.8329Z" fill="white"/>
<path d="M56.1498 62.1548C56.479 62.1548 56.7459 61.874 56.7459 61.5276C56.7459 61.1811 56.479 60.9003 56.1498 60.9003C55.8206 60.9003 55.5537 61.1811 55.5537 61.5276C55.5537 61.874 55.8206 62.1548 56.1498 62.1548Z" fill="white"/>
<path d="M58.1693 65.7461C58.4985 65.7461 58.7654 65.4653 58.7654 65.1189C58.7654 64.7724 58.4985 64.4916 58.1693 64.4916C57.8401 64.4916 57.5732 64.7724 57.5732 65.1189C57.5732 65.4653 57.8401 65.7461 58.1693 65.7461Z" fill="white"/>
<path d="M57.7738 70.537C58.103 70.537 58.3699 70.2562 58.3699 69.9098C58.3699 69.5633 58.103 69.2825 57.7738 69.2825C57.4446 69.2825 57.1777 69.5633 57.1777 69.9098C57.1777 70.2562 57.4446 70.537 57.7738 70.537Z" fill="white"/>
<path d="M60.8358 69.4943C61.165 69.4943 61.4319 69.2135 61.4319 68.867C61.4319 68.5206 61.165 68.2397 60.8358 68.2397C60.5066 68.2397 60.2397 68.5206 60.2397 68.867C60.2397 69.2135 60.5066 69.4943 60.8358 69.4943Z" fill="white"/>
<path d="M56.5297 74.9986C56.8589 74.9986 57.1258 74.7177 57.1258 74.3713C57.1258 74.0249 56.8589 73.744 56.5297 73.744C56.2005 73.744 55.9336 74.0249 55.9336 74.3713C55.9336 74.7177 56.2005 74.9986 56.5297 74.9986Z" fill="white"/>
<path d="M59.9867 73.4618C60.3159 73.4618 60.5828 73.181 60.5828 72.8346C60.5828 72.4881 60.3159 72.2073 59.9867 72.2073C59.6575 72.2073 59.3906 72.4881 59.3906 72.8346C59.3906 73.181 59.6575 73.4618 59.9867 73.4618Z" fill="white"/>
<path d="M63.6156 61.6609C63.9448 61.6609 64.2117 61.3801 64.2117 61.0337C64.2117 60.6872 63.9448 60.4064 63.6156 60.4064C63.2864 60.4064 63.0195 60.6872 63.0195 61.0337C63.0195 61.3801 63.2864 61.6609 63.6156 61.6609Z" fill="white"/>
<path d="M65.7543 63.2292C66.0835 63.2292 66.3504 62.9483 66.3504 62.6019C66.3504 62.2555 66.0835 61.9746 65.7543 61.9746C65.4251 61.9746 65.1582 62.2555 65.1582 62.6019C65.1582 62.9483 65.4251 63.2292 65.7543 63.2292Z" fill="white"/>
<path d="M64.0625 64.2249C63.8017 63.9975 62.684 62.1 62.5871 61.8256C62.4903 61.5511 63.2056 64.6954 63.2056 64.6954L63.2205 64.7816C63.2205 64.7816 63.4068 64.5778 63.5856 64.468C63.7644 64.3582 64.0625 64.2249 64.0625 64.2249Z" fill="#E7503D"/>
<path d="M54.0112 60.9161C54.0112 60.9161 55.0618 60.5868 55.412 60.2653C55.4418 60.2339 55.4567 60.2261 55.4641 60.2261C55.5237 60.2731 55.0692 61.6453 54.1826 61.8805C54.1677 61.8805 54.1602 61.8884 54.1528 61.8884C54.0261 61.3709 53.9292 61.0023 53.9218 60.9475C53.9218 60.9396 53.9143 60.9239 53.9218 60.9161C53.9292 60.8926 53.9739 60.9082 54.0112 60.9161Z" fill="#E7503D"/>
<path d="M54.995 58.7206C55.3242 58.7206 55.5911 58.4398 55.5911 58.0933C55.5911 57.7469 55.3242 57.4661 54.995 57.4661C54.6658 57.4661 54.3989 57.7469 54.3989 58.0933C54.3989 58.4398 54.6658 58.7206 54.995 58.7206Z" fill="white"/>
<path d="M73.9946 91.2845V96.3734H101.399L101.355 91.1512L73.9946 91.2845Z" fill="#FCC84E"/>
<path d="M86.9521 91.3002L86.9894 96.4439L99.8722 96.3733V91.3002H86.9521Z" fill="#E7503D"/>
<path d="M76.2451 91.2767L76.3047 96.3813L78.7338 96.3499L78.704 91.2767" fill="#FEF04F"/>
<path d="M72.2285 96.3892V101.478H99.6334L99.5887 96.2559L72.2285 96.3892Z" fill="#FCC84E"/>
<path d="M85.1855 96.4049L85.2154 101.549L98.0982 101.478V96.4049H85.1855Z" fill="#E7503D"/>
<path d="M74.4707 96.3813L74.5378 101.494L76.9668 101.455L76.9295 96.3813" fill="#FEF04F"/>
<path d="M73.936 101.431V106.512H101.341L101.296 101.29L73.936 101.431Z" fill="#FCC84E"/>
<path d="M86.8931 101.439L86.9229 106.583L99.8057 106.512V101.439H86.8931Z" fill="#E7503D"/>
<path d="M76.1787 101.415L76.2458 106.528L78.6674 106.489L78.6375 101.415" fill="#FEF04F"/>
<path d="M71.7974 106.606V111.695H99.2022L99.1575 106.473L71.7974 106.606Z" fill="#FCC84E"/>
<path d="M84.7544 106.614L84.7842 111.758L97.667 111.695V106.614H84.7544Z" fill="#E7503D"/>
<path d="M74.04 106.598L74.1071 111.703L76.5361 111.671L76.4989 106.598" fill="#FEF04F"/>
<path d="M33.4836 66.6402L31.7847 65.2837L29.758 65.9894L30.4584 63.8723L29.1992 62.0689L31.3302 62.1081L32.5745 60.2889L33.193 62.4374L35.2196 63.1196L33.4687 64.3977L33.4836 66.6402Z" fill="#5670C4"/>
<path d="M77.467 46.1594L75.7681 44.8028L73.7489 45.5085L74.4418 43.3915L73.1826 41.5802L75.3136 41.6272L76.5579 39.8081L77.1764 41.9487L79.203 42.6309L77.4595 43.9168L77.467 46.1594Z" fill="#328A5A"/>
<path d="M92.4736 62.0062C92.5481 61.6768 93.8074 58.6031 93.8074 58.6031C93.8074 58.6031 95.1635 59.7479 96.4227 58.807C97.6819 57.8661 97.2348 57.0741 97.4882 56.8075C97.7415 56.5409 98.4941 56.6429 98.5164 57.3564C98.5388 58.0699 97.8607 59.4343 98.0321 59.5127C98.2035 59.5911 99.7533 59.9204 99.7756 60.6104C99.798 61.3005 99.3882 61.4259 99.3286 61.3867C99.269 61.3475 99.649 62.1316 99.2839 62.3433C98.9188 62.555 98.8666 62.5472 98.8666 62.5472C98.8666 62.5472 99.1349 63.2529 98.8592 63.4175C98.5835 63.5822 98.1439 63.5822 98.1439 63.5822C98.1439 63.5822 98.6207 64.233 98.0321 64.3349C97.4435 64.4369 96.1321 64.0056 95.0964 63.4411C94.0607 62.8687 94.2544 62.7275 93.6956 62.5237C93.1293 62.3355 92.4736 62.0062 92.4736 62.0062Z" fill="#F1CFAA"/>
<path d="M30.2402 43.4609C30.3641 43.4941 30.4505 43.54 30.4993 43.5987C30.5491 43.6537 30.5879 43.7287 30.6156 43.8234L31.0521 45.3183L30.4624 45.1603C30.3809 45.1385 30.3165 45.1098 30.269 45.0743C30.2261 45.0363 30.1861 44.98 30.1491 44.9056L29.2573 43.1975L30.2402 43.4609Z" fill="white"/>
<path d="M30.2402 43.4609C30.3641 43.4941 30.4505 43.54 30.4993 43.5987C30.5491 43.6537 30.5879 43.7287 30.6156 43.8234L31.0521 45.3183L30.4624 45.1603C30.3809 45.1385 30.3165 45.1098 30.269 45.0743C30.2261 45.0363 30.1861 44.98 30.1491 44.9056L29.2573 43.1975L30.2402 43.4609Z" fill="#E7503D"/>
<path d="M77.1302 73.21C77.2414 73.1458 77.3349 73.1172 77.4109 73.1242C77.4851 73.1279 77.5654 73.1535 77.6521 73.2009L79.0177 73.9493L78.489 74.2545C78.416 74.2967 78.3502 74.322 78.2915 74.3305C78.2343 74.3339 78.1662 74.3224 78.0874 74.2959L76.249 73.7187L77.1302 73.21Z" fill="white"/>
<path d="M77.1302 73.21C77.2414 73.1458 77.3349 73.1172 77.4109 73.1242C77.4851 73.1279 77.5654 73.1535 77.6521 73.2009L79.0177 73.9493L78.489 74.2545C78.416 74.2967 78.3502 74.322 78.2915 74.3305C78.2343 74.3339 78.1662 74.3224 78.0874 74.2959L76.249 73.7187L77.1302 73.21Z" fill="#E7503D"/>
<path d="M114.18 58L114.71 54.67L112.6 50.95H113.5L115.18 53.94L117.82 50.95H118.82L115.53 54.66L115 58H114.18ZM119.716 58.09C119.063 58.09 118.546 57.9 118.166 57.52C117.793 57.1333 117.606 56.61 117.606 55.95C117.606 55.4033 117.713 54.91 117.926 54.47C118.139 54.03 118.436 53.6833 118.816 53.43C119.203 53.1767 119.656 53.05 120.176 53.05C120.829 53.05 121.343 53.2433 121.716 53.63C122.089 54.01 122.276 54.53 122.276 55.19C122.276 55.7367 122.169 56.23 121.956 56.67C121.749 57.1033 121.453 57.45 121.066 57.71C120.679 57.9633 120.229 58.09 119.716 58.09ZM119.746 57.44C120.113 57.44 120.423 57.3367 120.676 57.13C120.936 56.9233 121.129 56.65 121.256 56.31C121.389 55.9633 121.456 55.58 121.456 55.16C121.456 54.68 121.339 54.3167 121.106 54.07C120.879 53.8233 120.559 53.7 120.146 53.7C119.779 53.7 119.466 53.8033 119.206 54.01C118.953 54.21 118.759 54.4833 118.626 54.83C118.493 55.1767 118.426 55.56 118.426 55.98C118.426 56.4533 118.543 56.8167 118.776 57.07C119.009 57.3167 119.333 57.44 119.746 57.44ZM124.823 58.09C124.296 58.09 123.896 57.9267 123.623 57.6C123.349 57.2733 123.269 56.7633 123.383 56.07L123.843 53.14H124.653L124.193 56.07C124.046 56.97 124.336 57.42 125.063 57.42C125.529 57.42 125.903 57.27 126.183 56.97C126.469 56.67 126.653 56.27 126.733 55.77L127.143 53.14H127.953L127.183 58H126.393L126.523 57.18C126.343 57.4667 126.106 57.69 125.813 57.85C125.526 58.01 125.196 58.09 124.823 58.09ZM131.266 58L132.046 53.14H132.836L132.696 53.97C132.876 53.6767 133.113 53.45 133.406 53.29C133.706 53.13 134.053 53.05 134.446 53.05C134.986 53.05 135.393 53.2133 135.666 53.54C135.946 53.8667 136.03 54.3733 135.916 55.06L135.456 58H134.646L135.106 55.06C135.253 54.16 134.953 53.71 134.206 53.71C133.72 53.71 133.333 53.86 133.046 54.16C132.76 54.46 132.576 54.86 132.496 55.36L132.076 58H131.266ZM139.28 58.09C138.587 58.09 138.037 57.9 137.63 57.52C137.223 57.1333 137.02 56.6067 137.02 55.94C137.02 55.4133 137.127 54.9333 137.34 54.5C137.553 54.06 137.853 53.71 138.24 53.45C138.627 53.1833 139.087 53.05 139.62 53.05C140.127 53.05 140.527 53.1667 140.82 53.4C141.12 53.6333 141.323 53.94 141.43 54.32C141.537 54.6933 141.56 55.0967 141.5 55.53L141.47 55.74H137.81C137.763 56.26 137.873 56.6733 138.14 56.98C138.407 57.2867 138.8 57.44 139.32 57.44C139.627 57.44 139.91 57.3967 140.17 57.31C140.437 57.2167 140.68 57.0733 140.9 56.88L141.17 57.43C140.943 57.6433 140.66 57.8067 140.32 57.92C139.98 58.0333 139.633 58.09 139.28 58.09ZM139.61 53.65C139.257 53.65 138.963 53.7267 138.73 53.88C138.497 54.0267 138.31 54.22 138.17 54.46C138.037 54.7 137.943 54.95 137.89 55.21H140.85C140.89 54.77 140.813 54.4 140.62 54.1C140.433 53.8 140.097 53.65 139.61 53.65ZM144.602 58.09C143.909 58.09 143.359 57.9 142.952 57.52C142.546 57.1333 142.342 56.6067 142.342 55.94C142.342 55.4133 142.449 54.9333 142.662 54.5C142.876 54.06 143.176 53.71 143.562 53.45C143.949 53.1833 144.409 53.05 144.942 53.05C145.449 53.05 145.849 53.1667 146.142 53.4C146.442 53.6333 146.646 53.94 146.752 54.32C146.859 54.6933 146.882 55.0967 146.822 55.53L146.792 55.74H143.132C143.086 56.26 143.196 56.6733 143.462 56.98C143.729 57.2867 144.122 57.44 144.642 57.44C144.949 57.44 145.232 57.3967 145.492 57.31C145.759 57.2167 146.002 57.0733 146.222 56.88L146.492 57.43C146.266 57.6433 145.982 57.8067 145.642 57.92C145.302 58.0333 144.956 58.09 144.602 58.09ZM144.932 53.65C144.579 53.65 144.286 53.7267 144.052 53.88C143.819 54.0267 143.632 54.22 143.492 54.46C143.359 54.7 143.266 54.95 143.212 55.21H146.172C146.212 54.77 146.136 54.4 145.942 54.1C145.756 53.8 145.419 53.65 144.932 53.65ZM149.535 58.09C148.975 58.09 148.521 57.9033 148.175 57.53C147.835 57.1567 147.665 56.65 147.665 56.01C147.665 55.47 147.758 54.9767 147.945 54.53C148.138 54.0767 148.415 53.7167 148.775 53.45C149.141 53.1833 149.581 53.05 150.095 53.05C150.461 53.05 150.791 53.1367 151.085 53.31C151.378 53.4767 151.591 53.7367 151.725 54.09L152.215 50.95H153.025L151.905 58H151.115L151.245 57.19C151.058 57.47 150.818 57.69 150.525 57.85C150.238 58.01 149.908 58.09 149.535 58.09ZM149.795 57.44C150.168 57.44 150.481 57.3367 150.735 57.13C150.988 56.9233 151.181 56.65 151.315 56.31C151.448 55.9633 151.515 55.58 151.515 55.16C151.515 54.68 151.398 54.3167 151.165 54.07C150.931 53.8233 150.611 53.7 150.205 53.7C149.831 53.7 149.518 53.8033 149.265 54.01C149.011 54.21 148.818 54.4833 148.685 54.83C148.551 55.1767 148.485 55.56 148.485 55.98C148.485 56.4533 148.601 56.8167 148.835 57.07C149.068 57.3167 149.388 57.44 149.795 57.44ZM157.613 58.09C157.333 58.09 157.07 58.0267 156.823 57.9C156.583 57.7733 156.39 57.6 156.243 57.38C156.096 57.16 156.023 56.91 156.023 56.63C156.023 56.1167 156.24 55.7467 156.673 55.52C157.113 55.2933 157.813 55.18 158.773 55.18H159.463L159.513 54.88C159.58 54.5 159.53 54.21 159.363 54.01C159.196 53.8033 158.903 53.7 158.483 53.7C157.89 53.7 157.34 53.87 156.833 54.21L156.603 53.62C156.843 53.4467 157.14 53.31 157.493 53.21C157.853 53.1033 158.213 53.05 158.573 53.05C159.253 53.05 159.73 53.2367 160.003 53.61C160.276 53.9833 160.363 54.48 160.263 55.1L159.803 58H159.033L159.153 57.24C158.986 57.5267 158.763 57.74 158.483 57.88C158.203 58.02 157.913 58.09 157.613 58.09ZM157.813 57.48C158.173 57.48 158.496 57.36 158.783 57.12C159.07 56.8733 159.25 56.5333 159.323 56.1L159.383 55.71H158.883C158.37 55.71 157.963 55.7367 157.663 55.79C157.37 55.8433 157.16 55.9333 157.033 56.06C156.906 56.1867 156.843 56.36 156.843 56.58C156.843 56.8733 156.94 57.0967 157.133 57.25C157.326 57.4033 157.553 57.48 157.813 57.48ZM163.306 58.09C162.739 58.09 162.322 57.93 162.056 57.61C161.796 57.29 161.709 56.8633 161.796 56.33L162.206 53.77H161.246L161.356 53.14H162.306L162.536 51.65H163.346L163.116 53.14H164.656L164.546 53.77H163.006L162.616 56.25C162.549 56.6567 162.589 56.95 162.736 57.13C162.889 57.31 163.129 57.4 163.456 57.4C163.569 57.4 163.672 57.39 163.766 57.37C163.866 57.3433 163.959 57.3167 164.046 57.29L164.126 57.92C164.039 57.9667 163.916 58.0067 163.756 58.04C163.602 58.0733 163.452 58.09 163.306 58.09ZM166.292 58.09C165.812 58.09 165.462 57.95 165.242 57.67C165.022 57.3833 164.955 56.9633 165.042 56.41L165.912 50.95H166.722L165.852 56.41C165.799 56.7633 165.825 57.0167 165.932 57.17C166.045 57.3233 166.245 57.4 166.532 57.4C166.612 57.4 166.689 57.3967 166.762 57.39C166.842 57.3833 166.922 57.37 167.002 57.35L166.882 58.01C166.795 58.0367 166.699 58.0567 166.592 58.07C166.485 58.0833 166.385 58.09 166.292 58.09ZM170.032 58.09C169.339 58.09 168.789 57.9 168.382 57.52C167.975 57.1333 167.772 56.6067 167.772 55.94C167.772 55.4133 167.879 54.9333 168.092 54.5C168.305 54.06 168.605 53.71 168.992 53.45C169.379 53.1833 169.839 53.05 170.372 53.05C170.879 53.05 171.279 53.1667 171.572 53.4C171.872 53.6333 172.075 53.94 172.182 54.32C172.289 54.6933 172.312 55.0967 172.252 55.53L172.222 55.74H168.562C168.515 56.26 168.625 56.6733 168.892 56.98C169.159 57.2867 169.552 57.44 170.072 57.44C170.379 57.44 170.662 57.3967 170.922 57.31C171.189 57.2167 171.432 57.0733 171.652 56.88L171.922 57.43C171.695 57.6433 171.412 57.8067 171.072 57.92C170.732 58.0333 170.385 58.09 170.032 58.09ZM170.362 53.65C170.009 53.65 169.715 53.7267 169.482 53.88C169.249 54.0267 169.062 54.22 168.922 54.46C168.789 54.7 168.695 54.95 168.642 55.21H171.602C171.642 54.77 171.565 54.4 171.372 54.1C171.185 53.8 170.849 53.65 170.362 53.65ZM174.644 58.09C174.364 58.09 174.101 58.0267 173.854 57.9C173.614 57.7733 173.421 57.6 173.274 57.38C173.128 57.16 173.054 56.91 173.054 56.63C173.054 56.1167 173.271 55.7467 173.704 55.52C174.144 55.2933 174.844 55.18 175.804 55.18H176.494L176.544 54.88C176.611 54.5 176.561 54.21 176.394 54.01C176.228 53.8033 175.934 53.7 175.514 53.7C174.921 53.7 174.371 53.87 173.864 54.21L173.634 53.62C173.874 53.4467 174.171 53.31 174.524 53.21C174.884 53.1033 175.244 53.05 175.604 53.05C176.284 53.05 176.761 53.2367 177.034 53.61C177.308 53.9833 177.394 54.48 177.294 55.1L176.834 58H176.064L176.184 57.24C176.018 57.5267 175.794 57.74 175.514 57.88C175.234 58.02 174.944 58.09 174.644 58.09ZM174.844 57.48C175.204 57.48 175.528 57.36 175.814 57.12C176.101 56.8733 176.281 56.5333 176.354 56.1L176.414 55.71H175.914C175.401 55.71 174.994 55.7367 174.694 55.79C174.401 55.8433 174.191 55.9333 174.064 56.06C173.938 56.1867 173.874 56.36 173.874 56.58C173.874 56.8733 173.971 57.0967 174.164 57.25C174.358 57.4033 174.584 57.48 174.844 57.48ZM180.187 58.09C179.794 58.09 179.427 58.0367 179.087 57.93C178.747 57.8233 178.47 57.6767 178.257 57.49L178.557 56.93C178.797 57.1167 179.054 57.2533 179.327 57.34C179.607 57.4267 179.897 57.47 180.197 57.47C180.557 57.47 180.837 57.4 181.037 57.26C181.244 57.1133 181.347 56.91 181.347 56.65C181.347 56.3167 181.134 56.1 180.707 56L179.757 55.77C179.424 55.6967 179.16 55.5533 178.967 55.34C178.78 55.1267 178.687 54.8667 178.687 54.56C178.687 54.1267 178.864 53.7667 179.217 53.48C179.577 53.1933 180.064 53.05 180.677 53.05C181.01 53.05 181.33 53.1067 181.637 53.22C181.944 53.3267 182.19 53.4733 182.377 53.66L182.097 54.21C181.71 53.85 181.227 53.67 180.647 53.67C180.274 53.67 179.98 53.7467 179.767 53.9C179.554 54.0533 179.447 54.26 179.447 54.52C179.447 54.68 179.494 54.82 179.587 54.94C179.687 55.0533 179.84 55.1333 180.047 55.18L180.997 55.41C181.35 55.4967 181.624 55.64 181.817 55.84C182.017 56.0333 182.117 56.2867 182.117 56.6C182.117 57.0667 181.937 57.4333 181.577 57.7C181.224 57.96 180.76 58.09 180.187 58.09ZM185.103 58.09C184.536 58.09 184.119 57.93 183.853 57.61C183.593 57.29 183.506 56.8633 183.593 56.33L184.003 53.77H183.043L183.153 53.14H184.103L184.333 51.65H185.143L184.913 53.14H186.453L186.343 53.77H184.803L184.413 56.25C184.346 56.6567 184.386 56.95 184.533 57.13C184.686 57.31 184.926 57.4 185.253 57.4C185.366 57.4 185.469 57.39 185.563 57.37C185.663 57.3433 185.756 57.3167 185.843 57.29L185.923 57.92C185.836 57.9667 185.713 58.0067 185.553 58.04C185.399 58.0733 185.249 58.09 185.103 58.09ZM189.647 58L189.757 57.3H191.367L192.207 52L190.857 52.77L190.577 52.13L192.607 50.95H193.197L192.187 57.3H193.697L193.577 58H189.647ZM197.673 58.09C196.947 58.09 196.393 57.87 196.013 57.43C195.64 56.9833 195.453 56.34 195.453 55.5C195.453 54.54 195.567 53.7133 195.793 53.02C196.02 52.3267 196.343 51.7933 196.763 51.42C197.183 51.0467 197.68 50.86 198.253 50.86C198.98 50.86 199.53 51.0833 199.903 51.53C200.277 51.97 200.463 52.6067 200.463 53.44C200.463 54.4067 200.35 55.2367 200.123 55.93C199.897 56.6233 199.573 57.1567 199.153 57.53C198.733 57.9033 198.24 58.09 197.673 58.09ZM197.713 57.38C198.3 57.38 198.767 57.03 199.113 56.33C199.467 55.6233 199.643 54.6 199.643 53.26C199.65 52.1333 199.173 51.57 198.213 51.57C197.62 51.57 197.147 51.9233 196.793 52.63C196.447 53.33 196.273 54.35 196.273 55.69C196.273 56.8167 196.753 57.38 197.713 57.38ZM201.159 58L202.269 50.95H203.079L202.389 55.3H202.409L204.979 53.14H205.999L203.209 55.53L205.479 58H204.499L202.349 55.7H202.329L201.969 58H201.159ZM208.438 59.8L209.488 53.14H210.288L210.158 53.94C210.344 53.66 210.581 53.4433 210.868 53.29C211.161 53.13 211.491 53.05 211.858 53.05C212.431 53.05 212.888 53.2367 213.228 53.61C213.568 53.9833 213.738 54.4933 213.738 55.14C213.738 55.6733 213.641 56.1633 213.448 56.61C213.261 57.0567 212.984 57.4167 212.618 57.69C212.258 57.9567 211.818 58.09 211.298 58.09C210.938 58.09 210.611 58.0067 210.318 57.84C210.024 57.6667 209.811 57.4067 209.678 57.06L209.248 59.8H208.438ZM211.198 57.44C211.571 57.44 211.884 57.3367 212.138 57.13C212.391 56.9233 212.584 56.65 212.718 56.31C212.851 55.9633 212.918 55.58 212.918 55.16C212.918 54.68 212.801 54.3167 212.568 54.07C212.334 53.8233 212.014 53.7 211.608 53.7C211.234 53.7 210.921 53.8033 210.668 54.01C210.414 54.21 210.221 54.4833 210.088 54.83C209.954 55.1767 209.888 55.56 209.888 55.98C209.888 56.4533 210.004 56.8167 210.238 57.07C210.471 57.3167 210.791 57.44 211.198 57.44ZM216.728 58.09C216.074 58.09 215.558 57.9 215.178 57.52C214.804 57.1333 214.618 56.61 214.618 55.95C214.618 55.4033 214.724 54.91 214.938 54.47C215.151 54.03 215.448 53.6833 215.828 53.43C216.214 53.1767 216.668 53.05 217.188 53.05C217.841 53.05 218.354 53.2433 218.728 53.63C219.101 54.01 219.288 54.53 219.288 55.19C219.288 55.7367 219.181 56.23 218.968 56.67C218.761 57.1033 218.464 57.45 218.078 57.71C217.691 57.9633 217.241 58.09 216.728 58.09ZM216.758 57.44C217.124 57.44 217.434 57.3367 217.688 57.13C217.948 56.9233 218.141 56.65 218.268 56.31C218.401 55.9633 218.468 55.58 218.468 55.16C218.468 54.68 218.351 54.3167 218.118 54.07C217.891 53.8233 217.571 53.7 217.158 53.7C216.791 53.7 216.478 53.8033 216.218 54.01C215.964 54.21 215.771 54.4833 215.638 54.83C215.504 55.1767 215.438 55.56 215.438 55.98C215.438 56.4533 215.554 56.8167 215.788 57.07C216.021 57.3167 216.344 57.44 216.758 57.44ZM220.984 51.93L221.124 51.02H222.124L221.974 51.93H220.984ZM220.104 58L220.874 53.14H221.684L220.914 58H220.104ZM222.429 58L223.209 53.14H223.999L223.859 53.97C224.039 53.6767 224.275 53.45 224.569 53.29C224.869 53.13 225.215 53.05 225.609 53.05C226.149 53.05 226.555 53.2133 226.829 53.54C227.109 53.8667 227.192 54.3733 227.079 55.06L226.619 58H225.809L226.269 55.06C226.415 54.16 226.115 53.71 225.369 53.71C224.882 53.71 224.495 53.86 224.209 54.16C223.922 54.46 223.739 54.86 223.659 55.36L223.239 58H222.429ZM230.122 58.09C229.556 58.09 229.139 57.93 228.872 57.61C228.612 57.29 228.526 56.8633 228.612 56.33L229.022 53.77H228.062L228.172 53.14H229.122L229.352 51.65H230.162L229.932 53.14H231.472L231.362 53.77H229.822L229.432 56.25C229.366 56.6567 229.406 56.95 229.552 57.13C229.706 57.31 229.946 57.4 230.272 57.4C230.386 57.4 230.489 57.39 230.582 57.37C230.682 57.3433 230.776 57.3167 230.862 57.29L230.942 57.92C230.856 57.9667 230.732 58.0067 230.572 58.04C230.419 58.0733 230.269 58.09 230.122 58.09ZM233.468 58.09C233.075 58.09 232.708 58.0367 232.368 57.93C232.028 57.8233 231.752 57.6767 231.538 57.49L231.838 56.93C232.078 57.1167 232.335 57.2533 232.608 57.34C232.888 57.4267 233.178 57.47 233.478 57.47C233.838 57.47 234.118 57.4 234.318 57.26C234.525 57.1133 234.628 56.91 234.628 56.65C234.628 56.3167 234.415 56.1 233.988 56L233.038 55.77C232.705 55.6967 232.442 55.5533 232.248 55.34C232.062 55.1267 231.968 54.8667 231.968 54.56C231.968 54.1267 232.145 53.7667 232.498 53.48C232.858 53.1933 233.345 53.05 233.958 53.05C234.292 53.05 234.612 53.1067 234.918 53.22C235.225 53.3267 235.472 53.4733 235.658 53.66L235.378 54.21C234.992 53.85 234.508 53.67 233.928 53.67C233.555 53.67 233.262 53.7467 233.048 53.9C232.835 54.0533 232.728 54.26 232.728 54.52C232.728 54.68 232.775 54.82 232.868 54.94C232.968 55.0533 233.122 55.1333 233.328 55.18L234.278 55.41C234.632 55.4967 234.905 55.64 235.098 55.84C235.298 56.0333 235.398 56.2867 235.398 56.6C235.398 57.0667 235.218 57.4333 234.858 57.7C234.505 57.96 234.042 58.09 233.468 58.09ZM241.001 58.09C240.434 58.09 240.018 57.93 239.751 57.61C239.491 57.29 239.404 56.8633 239.491 56.33L239.901 53.77H238.941L239.051 53.14H240.001L240.231 51.65H241.041L240.811 53.14H242.351L242.241 53.77H240.701L240.311 56.25C240.244 56.6567 240.284 56.95 240.431 57.13C240.584 57.31 240.824 57.4 241.151 57.4C241.264 57.4 241.368 57.39 241.461 57.37C241.561 57.3433 241.654 57.3167 241.741 57.29L241.821 57.92C241.734 57.9667 241.611 58.0067 241.451 58.04C241.298 58.0733 241.148 58.09 241.001 58.09ZM244.618 58.09C243.965 58.09 243.448 57.9 243.068 57.52C242.695 57.1333 242.508 56.61 242.508 55.95C242.508 55.4033 242.615 54.91 242.828 54.47C243.042 54.03 243.338 53.6833 243.718 53.43C244.105 53.1767 244.558 53.05 245.078 53.05C245.732 53.05 246.245 53.2433 246.618 53.63C246.992 54.01 247.178 54.53 247.178 55.19C247.178 55.7367 247.072 56.23 246.858 56.67C246.652 57.1033 246.355 57.45 245.968 57.71C245.582 57.9633 245.132 58.09 244.618 58.09ZM244.648 57.44C245.015 57.44 245.325 57.3367 245.578 57.13C245.838 56.9233 246.032 56.65 246.158 56.31C246.292 55.9633 246.358 55.58 246.358 55.16C246.358 54.68 246.242 54.3167 246.008 54.07C245.782 53.8233 245.462 53.7 245.048 53.7C244.682 53.7 244.368 53.8033 244.108 54.01C243.855 54.21 243.662 54.4833 243.528 54.83C243.395 55.1767 243.328 55.56 243.328 55.98C243.328 56.4533 243.445 56.8167 243.678 57.07C243.912 57.3167 244.235 57.44 244.648 57.44ZM114.1 70.09C113.573 70.09 113.173 69.9267 112.9 69.6C112.627 69.2733 112.547 68.7633 112.66 68.07L113.12 65.14H113.93L113.47 68.07C113.323 68.97 113.613 69.42 114.34 69.42C114.807 69.42 115.18 69.27 115.46 68.97C115.747 68.67 115.93 68.27 116.01 67.77L116.42 65.14H117.23L116.46 70H115.67L115.8 69.18C115.62 69.4667 115.383 69.69 115.09 69.85C114.803 70.01 114.473 70.09 114.1 70.09ZM117.975 70L118.755 65.14H119.545L119.405 65.97C119.585 65.6767 119.822 65.45 120.115 65.29C120.415 65.13 120.762 65.05 121.155 65.05C121.695 65.05 122.102 65.2133 122.375 65.54C122.655 65.8667 122.739 66.3733 122.625 67.06L122.165 70H121.355L121.815 67.06C121.962 66.16 121.662 65.71 120.915 65.71C120.429 65.71 120.042 65.86 119.755 66.16C119.469 66.46 119.285 66.86 119.205 67.36L118.785 70H117.975ZM125.159 70.09C124.679 70.09 124.329 69.95 124.109 69.67C123.889 69.3833 123.822 68.9633 123.909 68.41L124.779 62.95H125.589L124.719 68.41C124.666 68.7633 124.692 69.0167 124.799 69.17C124.912 69.3233 125.112 69.4 125.399 69.4C125.479 69.4 125.556 69.3967 125.629 69.39C125.709 69.3833 125.789 69.37 125.869 69.35L125.749 70.01C125.662 70.0367 125.566 70.0567 125.459 70.07C125.352 70.0833 125.252 70.09 125.159 70.09ZM128.749 70.09C128.096 70.09 127.579 69.9 127.199 69.52C126.826 69.1333 126.639 68.61 126.639 67.95C126.639 67.4033 126.746 66.91 126.959 66.47C127.173 66.03 127.469 65.6833 127.849 65.43C128.236 65.1767 128.689 65.05 129.209 65.05C129.863 65.05 130.376 65.2433 130.749 65.63C131.123 66.01 131.309 66.53 131.309 67.19C131.309 67.7367 131.203 68.23 130.989 68.67C130.783 69.1033 130.486 69.45 130.099 69.71C129.713 69.9633 129.263 70.09 128.749 70.09ZM128.779 69.44C129.146 69.44 129.456 69.3367 129.709 69.13C129.969 68.9233 130.163 68.65 130.289 68.31C130.423 67.9633 130.489 67.58 130.489 67.16C130.489 66.68 130.373 66.3167 130.139 66.07C129.913 65.8233 129.593 65.7 129.179 65.7C128.813 65.7 128.499 65.8033 128.239 66.01C127.986 66.21 127.793 66.4833 127.659 66.83C127.526 67.1767 127.459 67.56 127.459 67.98C127.459 68.4533 127.576 68.8167 127.809 69.07C128.043 69.3167 128.366 69.44 128.779 69.44ZM134.336 70.09C133.616 70.09 133.079 69.89 132.726 69.49C132.379 69.09 132.206 68.57 132.206 67.93C132.206 67.57 132.256 67.22 132.356 66.88C132.456 66.54 132.613 66.2333 132.826 65.96C133.039 65.68 133.309 65.46 133.636 65.3C133.963 65.1333 134.353 65.05 134.806 65.05C135.126 65.05 135.433 65.1033 135.726 65.21C136.019 65.3167 136.253 65.46 136.426 65.64L136.136 66.22C135.796 65.88 135.363 65.71 134.836 65.71C134.403 65.71 134.053 65.82 133.786 66.04C133.526 66.2533 133.336 66.53 133.216 66.87C133.096 67.21 133.036 67.56 133.036 67.92C133.036 68.3733 133.143 68.74 133.356 69.02C133.576 69.2933 133.936 69.43 134.436 69.43C134.636 69.43 134.849 69.39 135.076 69.31C135.303 69.2233 135.513 69.0933 135.706 68.92L135.946 69.52C135.753 69.7 135.506 69.84 135.206 69.94C134.913 70.04 134.623 70.09 134.336 70.09ZM136.765 70L137.875 62.95H138.685L137.995 67.3H138.015L140.585 65.14H141.605L138.815 67.53L141.085 70H140.105L137.955 67.7H137.935L137.575 70H136.765ZM146.333 70.09C145.766 70.09 145.35 69.93 145.083 69.61C144.823 69.29 144.736 68.8633 144.823 68.33L145.233 65.77H144.273L144.383 65.14H145.333L145.563 63.65H146.373L146.143 65.14H147.683L147.573 65.77H146.033L145.643 68.25C145.576 68.6567 145.616 68.95 145.763 69.13C145.916 69.31 146.156 69.4 146.483 69.4C146.596 69.4 146.7 69.39 146.793 69.37C146.893 69.3433 146.986 69.3167 147.073 69.29L147.153 69.92C147.066 69.9667 146.943 70.0067 146.783 70.04C146.63 70.0733 146.48 70.09 146.333 70.09ZM147.819 70L148.939 62.95H149.749L149.279 65.93C149.459 65.65 149.696 65.4333 149.989 65.28C150.283 65.1267 150.619 65.05 150.999 65.05C151.539 65.05 151.946 65.2133 152.219 65.54C152.499 65.8667 152.583 66.3733 152.469 67.06L152.009 70H151.199L151.659 67.06C151.806 66.16 151.506 65.71 150.759 65.71C150.273 65.71 149.886 65.86 149.599 66.16C149.313 66.46 149.129 66.86 149.049 67.36L148.629 70H147.819ZM154.383 63.93L154.523 63.02H155.523L155.373 63.93H154.383ZM153.503 70L154.273 65.14H155.083L154.313 70H153.503ZM157.687 70.09C157.294 70.09 156.927 70.0367 156.587 69.93C156.247 69.8233 155.97 69.6767 155.757 69.49L156.057 68.93C156.297 69.1167 156.554 69.2533 156.827 69.34C157.107 69.4267 157.397 69.47 157.697 69.47C158.057 69.47 158.337 69.4 158.537 69.26C158.744 69.1133 158.847 68.91 158.847 68.65C158.847 68.3167 158.634 68.1 158.207 68L157.257 67.77C156.924 67.6967 156.66 67.5533 156.467 67.34C156.28 67.1267 156.187 66.8667 156.187 66.56C156.187 66.1267 156.364 65.7667 156.717 65.48C157.077 65.1933 157.564 65.05 158.177 65.05C158.51 65.05 158.83 65.1067 159.137 65.22C159.444 65.3267 159.69 65.4733 159.877 65.66L159.597 66.21C159.21 65.85 158.727 65.67 158.147 65.67C157.774 65.67 157.48 65.7467 157.267 65.9C157.054 66.0533 156.947 66.26 156.947 66.52C156.947 66.68 156.994 66.82 157.087 66.94C157.187 67.0533 157.34 67.1333 157.547 67.18L158.497 67.41C158.85 67.4967 159.124 67.64 159.317 67.84C159.517 68.0333 159.617 68.2867 159.617 68.6C159.617 69.0667 159.437 69.4333 159.077 69.7C158.724 69.96 158.26 70.09 157.687 70.09ZM165.79 70.09C165.423 70.09 165.09 70.0033 164.79 69.83C164.497 69.65 164.287 69.38 164.16 69.02L164.01 70H163.21L164.33 62.95H165.14L164.67 65.91C164.857 65.6433 165.093 65.4333 165.38 65.28C165.667 65.1267 165.99 65.05 166.35 65.05C166.917 65.05 167.37 65.2367 167.71 65.61C168.057 65.9833 168.23 66.49 168.23 67.13C168.23 67.6633 168.133 68.1567 167.94 68.61C167.753 69.0567 167.477 69.4167 167.11 69.69C166.75 69.9567 166.31 70.09 165.79 70.09ZM165.69 69.44C166.063 69.44 166.377 69.3367 166.63 69.13C166.883 68.9233 167.077 68.65 167.21 68.31C167.343 67.9633 167.41 67.58 167.41 67.16C167.41 66.68 167.293 66.3167 167.06 66.07C166.827 65.8233 166.507 65.7 166.1 65.7C165.727 65.7 165.413 65.8033 165.16 66.01C164.907 66.21 164.713 66.4833 164.58 66.83C164.447 67.1767 164.38 67.56 164.38 67.98C164.38 68.4533 164.497 68.8167 164.73 69.07C164.963 69.3167 165.283 69.44 165.69 69.44ZM171.37 70.09C170.677 70.09 170.127 69.9 169.72 69.52C169.313 69.1333 169.11 68.6067 169.11 67.94C169.11 67.4133 169.217 66.9333 169.43 66.5C169.643 66.06 169.943 65.71 170.33 65.45C170.717 65.1833 171.177 65.05 171.71 65.05C172.217 65.05 172.617 65.1667 172.91 65.4C173.21 65.6333 173.413 65.94 173.52 66.32C173.627 66.6933 173.65 67.0967 173.59 67.53L173.56 67.74H169.9C169.853 68.26 169.963 68.6733 170.23 68.98C170.497 69.2867 170.89 69.44 171.41 69.44C171.717 69.44 172 69.3967 172.26 69.31C172.527 69.2167 172.77 69.0733 172.99 68.88L173.26 69.43C173.033 69.6433 172.75 69.8067 172.41 69.92C172.07 70.0333 171.723 70.09 171.37 70.09ZM171.7 65.65C171.347 65.65 171.053 65.7267 170.82 65.88C170.587 66.0267 170.4 66.22 170.26 66.46C170.127 66.7 170.033 66.95 169.98 67.21H172.94C172.98 66.77 172.903 66.4 172.71 66.1C172.523 65.8 172.187 65.65 171.7 65.65ZM174.362 70L175.142 65.14H175.932L175.792 65.97C175.972 65.6767 176.209 65.45 176.502 65.29C176.802 65.13 177.149 65.05 177.542 65.05C178.082 65.05 178.489 65.2133 178.762 65.54C179.042 65.8667 179.126 66.3733 179.012 67.06L178.552 70H177.742L178.202 67.06C178.349 66.16 178.049 65.71 177.302 65.71C176.816 65.71 176.429 65.86 176.142 66.16C175.856 66.46 175.672 66.86 175.592 67.36L175.172 70H174.362ZM182.376 70.09C181.682 70.09 181.132 69.9 180.726 69.52C180.319 69.1333 180.116 68.6067 180.116 67.94C180.116 67.4133 180.222 66.9333 180.436 66.5C180.649 66.06 180.949 65.71 181.336 65.45C181.722 65.1833 182.182 65.05 182.716 65.05C183.222 65.05 183.622 65.1667 183.916 65.4C184.216 65.6333 184.419 65.94 184.526 66.32C184.632 66.6933 184.656 67.0967 184.596 67.53L184.566 67.74H180.906C180.859 68.26 180.969 68.6733 181.236 68.98C181.502 69.2867 181.896 69.44 182.416 69.44C182.722 69.44 183.006 69.3967 183.266 69.31C183.532 69.2167 183.776 69.0733 183.996 68.88L184.266 69.43C184.039 69.6433 183.756 69.8067 183.416 69.92C183.076 70.0333 182.729 70.09 182.376 70.09ZM182.706 65.65C182.352 65.65 182.059 65.7267 181.826 65.88C181.592 66.0267 181.406 66.22 181.266 66.46C181.132 66.7 181.039 66.95 180.986 67.21H183.946C183.986 66.77 183.909 66.4 183.716 66.1C183.529 65.8 183.192 65.65 182.706 65.65ZM185.638 70L186.308 65.77H185.358L185.458 65.14H186.398L186.458 64.76C186.545 64.2133 186.765 63.7833 187.118 63.47C187.471 63.15 187.965 62.9733 188.598 62.94L189.078 62.92V63.54L188.618 63.57C188.211 63.6033 187.898 63.7167 187.678 63.91C187.465 64.1033 187.328 64.3933 187.268 64.78L187.208 65.14H190.208L189.428 70H188.618L189.298 65.77H187.118L186.448 70H185.638ZM189.508 63.93L189.658 63.02H190.638L190.498 63.93H189.508ZM192.954 70.09C192.388 70.09 191.971 69.93 191.704 69.61C191.444 69.29 191.358 68.8633 191.444 68.33L191.854 65.77H190.894L191.004 65.14H191.954L192.184 63.65H192.994L192.764 65.14H194.304L194.194 65.77H192.654L192.264 68.25C192.198 68.6567 192.238 68.95 192.384 69.13C192.538 69.31 192.778 69.4 193.104 69.4C193.218 69.4 193.321 69.39 193.414 69.37C193.514 69.3433 193.608 69.3167 193.694 69.29L193.774 69.92C193.688 69.9667 193.564 70.0067 193.404 70.04C193.251 70.0733 193.101 70.09 192.954 70.09Z" fill="#212721"/>
<path d="M115.67 39.14C114.643 39.14 113.761 38.9347 113.024 38.524C112.296 38.104 111.736 37.516 111.344 36.76C110.952 35.9947 110.756 35.094 110.756 34.058C110.756 33.022 110.952 32.126 111.344 31.37C111.736 30.614 112.296 30.0307 113.024 29.62C113.761 29.2 114.643 28.99 115.67 28.99C116.333 28.99 116.958 29.0927 117.546 29.298C118.143 29.5033 118.633 29.7973 119.016 30.18L118.428 31.608C118.008 31.2533 117.579 30.9967 117.14 30.838C116.701 30.67 116.23 30.586 115.726 30.586C114.727 30.586 113.967 30.8893 113.444 31.496C112.921 32.0933 112.66 32.9473 112.66 34.058C112.66 35.1687 112.921 36.0273 113.444 36.634C113.967 37.2407 114.727 37.544 115.726 37.544C116.23 37.544 116.701 37.4647 117.14 37.306C117.579 37.138 118.008 36.8767 118.428 36.522L119.016 37.95C118.633 38.3233 118.143 38.6173 117.546 38.832C116.958 39.0373 116.333 39.14 115.67 39.14ZM123.042 39.14C122.332 39.14 121.716 38.9953 121.194 38.706C120.671 38.4167 120.265 38.006 119.976 37.474C119.686 36.9327 119.542 36.298 119.542 35.57C119.542 34.842 119.686 34.212 119.976 33.68C120.265 33.148 120.671 32.7373 121.194 32.448C121.716 32.1587 122.332 32.014 123.042 32.014C123.751 32.014 124.367 32.1587 124.89 32.448C125.412 32.7373 125.818 33.148 126.108 33.68C126.397 34.212 126.542 34.842 126.542 35.57C126.542 36.298 126.397 36.9327 126.108 37.474C125.818 38.006 125.412 38.4167 124.89 38.706C124.367 38.9953 123.751 39.14 123.042 39.14ZM123.042 37.81C123.564 37.81 123.984 37.6233 124.302 37.25C124.619 36.8673 124.778 36.3073 124.778 35.57C124.778 34.8233 124.619 34.268 124.302 33.904C123.984 33.5307 123.564 33.344 123.042 33.344C122.519 33.344 122.099 33.5307 121.782 33.904C121.464 34.268 121.306 34.8233 121.306 35.57C121.306 36.3073 121.464 36.8673 121.782 37.25C122.099 37.6233 122.519 37.81 123.042 37.81ZM127.986 39V32.154H129.694V33.218C129.928 32.826 130.24 32.5273 130.632 32.322C131.034 32.1167 131.482 32.014 131.976 32.014C133.591 32.014 134.398 32.952 134.398 34.828V39H132.648V34.912C132.648 34.38 132.546 33.9927 132.34 33.75C132.144 33.5073 131.836 33.386 131.416 33.386C130.903 33.386 130.492 33.5493 130.184 33.876C129.886 34.1933 129.736 34.618 129.736 35.15V39H127.986ZM138.123 39L135.155 32.154H137.017L138.921 36.942L140.895 32.154H142.645L139.635 39H138.123ZM146.727 39.14C145.953 39.14 145.285 38.9953 144.725 38.706C144.165 38.4167 143.731 38.006 143.423 37.474C143.125 36.942 142.975 36.312 142.975 35.584C142.975 34.8747 143.12 34.254 143.409 33.722C143.708 33.19 144.114 32.7747 144.627 32.476C145.15 32.168 145.743 32.014 146.405 32.014C147.376 32.014 148.141 32.322 148.701 32.938C149.271 33.554 149.555 34.394 149.555 35.458V35.976H144.655C144.786 37.1987 145.486 37.81 146.755 37.81C147.138 37.81 147.521 37.754 147.903 37.642C148.286 37.5207 148.636 37.334 148.953 37.082L149.443 38.258C149.117 38.5287 148.706 38.7433 148.211 38.902C147.717 39.0607 147.222 39.14 146.727 39.14ZM146.475 33.204C145.962 33.204 145.547 33.3627 145.229 33.68C144.912 33.9973 144.721 34.4267 144.655 34.968H148.099C148.062 34.3987 147.903 33.9647 147.623 33.666C147.353 33.358 146.97 33.204 146.475 33.204ZM150.941 39V32.154H152.649V33.358C152.985 32.546 153.704 32.098 154.805 32.014L155.337 31.972L155.449 33.456L154.441 33.554C153.293 33.666 152.719 34.254 152.719 35.318V39H150.941ZM159.956 39.14C158.145 39.14 157.24 38.244 157.24 36.452V33.47H155.924V32.154H157.24V30.11H158.99V32.154H161.062V33.47H158.99V36.354C158.99 36.802 159.088 37.138 159.284 37.362C159.48 37.586 159.797 37.698 160.236 37.698C160.367 37.698 160.502 37.684 160.642 37.656C160.782 37.6187 160.927 37.5813 161.076 37.544L161.342 38.832C161.174 38.9253 160.959 39 160.698 39.056C160.446 39.112 160.199 39.14 159.956 39.14ZM165.967 41.52V32.154H167.675V33.246C167.871 32.8727 168.165 32.574 168.557 32.35C168.958 32.126 169.411 32.014 169.915 32.014C170.512 32.014 171.035 32.1587 171.483 32.448C171.94 32.7373 172.295 33.148 172.547 33.68C172.799 34.2027 172.925 34.8327 172.925 35.57C172.925 36.298 172.799 36.9327 172.547 37.474C172.295 38.006 171.945 38.4167 171.497 38.706C171.049 38.9953 170.521 39.14 169.915 39.14C169.429 39.14 168.991 39.0373 168.599 38.832C168.216 38.6173 167.922 38.3327 167.717 37.978V41.52H165.967ZM169.425 37.81C169.947 37.81 170.367 37.6233 170.685 37.25C171.002 36.8673 171.161 36.3073 171.161 35.57C171.161 34.8233 171.002 34.268 170.685 33.904C170.367 33.5307 169.947 33.344 169.425 33.344C168.902 33.344 168.482 33.5307 168.165 33.904C167.847 34.268 167.689 34.8233 167.689 35.57C167.689 36.3073 167.847 36.8673 168.165 37.25C168.482 37.6233 168.902 37.81 169.425 37.81ZM177.483 39.14C176.774 39.14 176.158 38.9953 175.635 38.706C175.113 38.4167 174.707 38.006 174.417 37.474C174.128 36.9327 173.983 36.298 173.983 35.57C173.983 34.842 174.128 34.212 174.417 33.68C174.707 33.148 175.113 32.7373 175.635 32.448C176.158 32.1587 176.774 32.014 177.483 32.014C178.193 32.014 178.809 32.1587 179.331 32.448C179.854 32.7373 180.26 33.148 180.549 33.68C180.839 34.212 180.983 34.842 180.983 35.57C180.983 36.298 180.839 36.9327 180.549 37.474C180.26 38.006 179.854 38.4167 179.331 38.706C178.809 38.9953 178.193 39.14 177.483 39.14ZM177.483 37.81C178.006 37.81 178.426 37.6233 178.743 37.25C179.061 36.8673 179.219 36.3073 179.219 35.57C179.219 34.8233 179.061 34.268 178.743 33.904C178.426 33.5307 178.006 33.344 177.483 33.344C176.961 33.344 176.541 33.5307 176.223 33.904C175.906 34.268 175.747 34.8233 175.747 35.57C175.747 36.3073 175.906 36.8673 176.223 37.25C176.541 37.6233 176.961 37.81 177.483 37.81ZM182.316 30.684V28.976H184.276V30.684H182.316ZM182.428 39V32.154H184.178V39H182.428ZM185.996 39V32.154H187.704V33.218C187.937 32.826 188.25 32.5273 188.642 32.322C189.043 32.1167 189.491 32.014 189.986 32.014C191.601 32.014 192.408 32.952 192.408 34.828V39H190.658V34.912C190.658 34.38 190.555 33.9927 190.35 33.75C190.154 33.5073 189.846 33.386 189.426 33.386C188.913 33.386 188.502 33.5493 188.194 33.876C187.895 34.1933 187.746 34.618 187.746 35.15V39H185.996ZM197.321 39.14C195.511 39.14 194.605 38.244 194.605 36.452V33.47H193.289V32.154H194.605V30.11H196.355V32.154H198.427V33.47H196.355V36.354C196.355 36.802 196.453 37.138 196.649 37.362C196.845 37.586 197.163 37.698 197.601 37.698C197.732 37.698 197.867 37.684 198.007 37.656C198.147 37.6187 198.292 37.5813 198.441 37.544L198.707 38.832C198.539 38.9253 198.325 39 198.063 39.056C197.811 39.112 197.564 39.14 197.321 39.14ZM202.064 39.14C201.486 39.14 200.944 39.07 200.44 38.93C199.936 38.79 199.516 38.5893 199.18 38.328L199.628 37.18C199.974 37.4133 200.361 37.5953 200.79 37.726C201.22 37.8473 201.649 37.908 202.078 37.908C202.526 37.908 202.858 37.8333 203.072 37.684C203.296 37.5253 203.408 37.32 203.408 37.068C203.408 36.676 203.119 36.424 202.54 36.312L201.14 36.046C199.955 35.822 199.362 35.206 199.362 34.198C199.362 33.75 199.484 33.3627 199.726 33.036C199.978 32.7093 200.324 32.4573 200.762 32.28C201.201 32.1027 201.705 32.014 202.274 32.014C202.76 32.014 203.226 32.084 203.674 32.224C204.122 32.3547 204.505 32.5553 204.822 32.826L204.346 33.974C204.076 33.75 203.749 33.5727 203.366 33.442C202.993 33.3113 202.634 33.246 202.288 33.246C201.831 33.246 201.49 33.3253 201.266 33.484C201.052 33.6427 200.944 33.8527 200.944 34.114C200.944 34.5247 201.21 34.7767 201.742 34.87L203.142 35.136C203.749 35.248 204.206 35.4533 204.514 35.752C204.832 36.0507 204.99 36.452 204.99 36.956C204.99 37.6373 204.724 38.174 204.192 38.566C203.66 38.9487 202.951 39.14 202.064 39.14ZM213.304 39.14C211.493 39.14 210.588 38.244 210.588 36.452V33.47H209.272V32.154H210.588V30.11H212.338V32.154H214.41V33.47H212.338V36.354C212.338 36.802 212.436 37.138 212.632 37.362C212.828 37.586 213.145 37.698 213.584 37.698C213.714 37.698 213.85 37.684 213.99 37.656C214.13 37.6187 214.274 37.5813 214.424 37.544L214.69 38.832C214.522 38.9253 214.307 39 214.046 39.056C213.794 39.112 213.546 39.14 213.304 39.14ZM218.595 39.14C217.885 39.14 217.269 38.9953 216.747 38.706C216.224 38.4167 215.818 38.006 215.529 37.474C215.239 36.9327 215.095 36.298 215.095 35.57C215.095 34.842 215.239 34.212 215.529 33.68C215.818 33.148 216.224 32.7373 216.747 32.448C217.269 32.1587 217.885 32.014 218.595 32.014C219.304 32.014 219.92 32.1587 220.443 32.448C220.965 32.7373 221.371 33.148 221.661 33.68C221.95 34.212 222.095 34.842 222.095 35.57C222.095 36.298 221.95 36.9327 221.661 37.474C221.371 38.006 220.965 38.4167 220.443 38.706C219.92 38.9953 219.304 39.14 218.595 39.14ZM218.595 37.81C219.117 37.81 219.537 37.6233 219.855 37.25C220.172 36.8673 220.331 36.3073 220.331 35.57C220.331 34.8233 220.172 34.268 219.855 33.904C219.537 33.5307 219.117 33.344 218.595 33.344C218.072 33.344 217.652 33.5307 217.335 33.904C217.017 34.268 216.859 34.8233 216.859 35.57C216.859 36.3073 217.017 36.8673 217.335 37.25C217.652 37.6233 218.072 37.81 218.595 37.81ZM230.476 39.14C229.758 39.14 229.132 38.9953 228.6 38.706C228.068 38.4073 227.658 37.9873 227.368 37.446C227.079 36.9047 226.934 36.27 226.934 35.542C226.934 34.814 227.079 34.1887 227.368 33.666C227.658 33.134 228.068 32.728 228.6 32.448C229.132 32.1587 229.758 32.014 230.476 32.014C230.915 32.014 231.349 32.084 231.778 32.224C232.208 32.364 232.562 32.56 232.842 32.812L232.324 34.03C232.082 33.8153 231.806 33.652 231.498 33.54C231.2 33.428 230.91 33.372 230.63 33.372C230.024 33.372 229.552 33.5633 229.216 33.946C228.89 34.3193 228.726 34.856 228.726 35.556C228.726 36.2467 228.89 36.7927 229.216 37.194C229.552 37.586 230.024 37.782 230.63 37.782C230.901 37.782 231.19 37.726 231.498 37.614C231.806 37.502 232.082 37.334 232.324 37.11L232.842 38.342C232.562 38.5847 232.203 38.7807 231.764 38.93C231.335 39.07 230.906 39.14 230.476 39.14ZM236.129 39.14C235.634 39.14 235.191 39.0467 234.799 38.86C234.416 38.664 234.113 38.4027 233.889 38.076C233.674 37.7493 233.567 37.3807 233.567 36.97C233.567 36.466 233.698 36.0693 233.959 35.78C234.22 35.4813 234.645 35.2667 235.233 35.136C235.821 35.0053 236.61 34.94 237.599 34.94H238.089V34.646C238.089 34.1793 237.986 33.8433 237.781 33.638C237.576 33.4327 237.23 33.33 236.745 33.33C236.362 33.33 235.97 33.3907 235.569 33.512C235.168 33.624 234.762 33.8013 234.351 34.044L233.847 32.854C234.09 32.686 234.374 32.5413 234.701 32.42C235.037 32.2893 235.387 32.1913 235.751 32.126C236.124 32.0513 236.474 32.014 236.801 32.014C237.8 32.014 238.542 32.2473 239.027 32.714C239.512 33.1713 239.755 33.8853 239.755 34.856V39H238.117V37.908C237.958 38.2907 237.706 38.594 237.361 38.818C237.016 39.0327 236.605 39.14 236.129 39.14ZM236.493 37.936C236.95 37.936 237.328 37.7773 237.627 37.46C237.935 37.1427 238.089 36.7413 238.089 36.256V35.948H237.613C236.736 35.948 236.124 36.018 235.779 36.158C235.443 36.2887 235.275 36.5313 235.275 36.886C235.275 37.194 235.382 37.446 235.597 37.642C235.812 37.838 236.11 37.936 236.493 37.936ZM244.037 39.14C243.458 39.14 242.917 39.07 242.413 38.93C241.909 38.79 241.489 38.5893 241.153 38.328L241.601 37.18C241.946 37.4133 242.334 37.5953 242.763 37.726C243.192 37.8473 243.622 37.908 244.051 37.908C244.499 37.908 244.83 37.8333 245.045 37.684C245.269 37.5253 245.381 37.32 245.381 37.068C245.381 36.676 245.092 36.424 244.513 36.312L243.113 36.046C241.928 35.822 241.335 35.206 241.335 34.198C241.335 33.75 241.456 33.3627 241.699 33.036C241.951 32.7093 242.296 32.4573 242.735 32.28C243.174 32.1027 243.678 32.014 244.247 32.014C244.732 32.014 245.199 32.084 245.647 32.224C246.095 32.3547 246.478 32.5553 246.795 32.826L246.319 33.974C246.048 33.75 245.722 33.5727 245.339 33.442C244.966 33.3113 244.606 33.246 244.261 33.246C243.804 33.246 243.463 33.3253 243.239 33.484C243.024 33.6427 242.917 33.8527 242.917 34.114C242.917 34.5247 243.183 34.7767 243.715 34.87L245.115 35.136C245.722 35.248 246.179 35.4533 246.487 35.752C246.804 36.0507 246.963 36.452 246.963 36.956C246.963 37.6373 246.697 38.174 246.165 38.566C245.633 38.9487 244.924 39.14 244.037 39.14ZM248.367 39V29.13H250.117V33.148C250.35 32.7747 250.663 32.4947 251.055 32.308C251.447 32.112 251.881 32.014 252.357 32.014C253.972 32.014 254.779 32.952 254.779 34.828V39H253.029V34.912C253.029 34.38 252.926 33.9927 252.721 33.75C252.525 33.5073 252.217 33.386 251.797 33.386C251.284 33.386 250.873 33.5493 250.565 33.876C250.266 34.1933 250.117 34.618 250.117 35.15V39H248.367Z" fill="#212721"/>
</svg>
