<svg width="25" height="24" viewBox="0 0 25 24" fill="none" xmlns="http://www.w3.org/2000/svg">
<path d="M24.0347 10.3254C24.9677 10.3254 25.3572 9.12663 24.5993 8.57405L13.0676 0.185703C12.9029 0.0650468 12.7041 0 12.4999 0C12.2958 0 12.0969 0.0650468 11.9322 0.185703L0.400531 8.57405C-0.35738 9.12361 0.0321443 10.3254 0.968209 10.3254H2.83732V21.6186H0.663233C0.530372 21.6186 0.421668 21.7273 0.421668 21.8601V23.4303C0.421668 23.5632 0.530372 23.6719 0.663233 23.6719H24.3366C24.4695 23.6719 24.5782 23.5632 24.5782 23.4303V21.8601C24.5782 21.7273 24.4695 21.6186 24.3366 21.6186H22.1625V10.3254H24.0347ZM12.4999 2.3145L20.686 8.26908H4.31389L12.4999 2.3145ZM5.01141 10.3254H8.5443V21.6186H5.01141V10.3254ZM10.7184 10.3254H14.2513V21.6186H10.7184V10.3254ZM19.9884 21.6186H16.4254V10.3254H19.9884V21.6186Z" fill="#E7503D"/>
</svg>
