<svg width="38" height="38" viewBox="0 0 38 38" fill="none" xmlns="http://www.w3.org/2000/svg">
<path d="M19 6.08001C17.6471 6.08001 16.3247 6.48117 15.1999 7.23276C14.075 7.98435 13.1983 9.05261 12.6806 10.3025C12.1629 11.5523 12.0275 12.9276 12.2914 14.2544C12.5553 15.5813 13.2068 16.8 14.1634 17.7566C15.1199 18.7132 16.3387 19.3647 17.6655 19.6286C18.9924 19.8925 20.3677 19.757 21.6175 19.2393C22.8674 18.7216 23.9356 17.8449 24.6872 16.7201C25.4388 15.5953 25.84 14.2728 25.84 12.92C25.84 11.1059 25.1193 9.36615 23.8366 8.0834C22.5538 6.80065 20.814 6.08001 19 6.08001ZM19 18.24C17.9478 18.24 16.9192 17.928 16.0443 17.3434C15.1695 16.7589 14.4876 15.928 14.0849 14.9559C13.6823 13.9838 13.5769 12.9141 13.7822 11.8821C13.9875 10.8502 14.4941 9.90222 15.2382 9.1582C15.9822 8.41419 16.9301 7.90751 17.9621 7.70223C18.9941 7.49696 20.0637 7.60231 21.0358 8.00497C22.0079 8.40763 22.8388 9.08951 23.4234 9.96438C24.008 10.8392 24.32 11.8678 24.32 12.92C24.3184 14.3305 23.7573 15.6827 22.76 16.68C21.7626 17.6774 20.4104 18.2384 19 18.24V18.24ZM19 1.01257e-05C15.0135 -0.00362132 11.1271 1.24787 7.89181 3.577C4.65655 5.90614 2.23665 9.1947 0.97529 12.9763C-0.28607 16.758 -0.324871 20.8408 0.86439 24.6457C2.05365 28.4506 4.41061 31.7846 7.60103 34.1748V34.1748C10.8829 36.6567 14.8851 37.9996 18.9997 37.9996C23.1144 37.9996 27.1166 36.6567 30.3984 34.1748V34.1748C30.9051 33.7937 31.3912 33.3889 31.8566 32.9606C34.6737 30.3739 36.6436 26.9966 37.5082 23.2711C38.3729 19.5456 38.0919 15.6459 36.7021 12.0828C35.3123 8.51981 32.8785 5.45975 29.7197 3.30366C26.5609 1.14758 22.8245 -0.00393939 19 1.01257e-05V1.01257e-05ZM19 36.48C14.8859 36.482 10.9043 35.0257 7.76245 32.3698C8.19314 29.6996 9.56058 27.2699 11.6198 25.5163C13.679 23.7626 16.2953 22.7995 19 22.7995C21.7048 22.7995 24.3211 23.7626 26.3803 25.5163C28.4395 27.2699 29.8069 29.6996 30.2376 32.3698C27.0957 35.0258 23.1141 36.4821 19 36.48ZM31.54 31.1507C30.8605 28.3368 29.2544 25.8332 26.9799 24.0426C24.7054 22.2519 21.8947 21.2783 19 21.2783C16.1052 21.2783 13.2945 22.2519 11.02 24.0426C8.74555 25.8332 7.13942 28.3368 6.45996 31.1507C4.06662 28.6862 2.45255 25.5711 1.8194 22.1945C1.18625 18.818 1.5621 15.3297 2.89999 12.1655C4.23788 9.00131 6.47849 6.30151 9.3419 4.40337C12.2053 2.50524 15.5646 1.49294 19 1.49294C22.4354 1.49294 25.7946 2.50524 28.658 4.40337C31.5214 6.30151 33.762 9.00131 35.0999 12.1655C36.4378 15.3297 36.8137 18.818 36.1805 22.1945C35.5474 25.5711 33.9333 28.6862 31.54 31.1507V31.1507Z" fill="#E7503D"/>
</svg>
