<svg width="37" height="29" viewBox="0 0 37 29" fill="none" xmlns="http://www.w3.org/2000/svg">
<path d="M5.46962 14.0303C5.76251 14.3232 6.23738 14.3232 6.53028 14.0303L11.3032 9.25736C11.5961 8.96447 11.5961 8.48959 11.3032 8.1967C11.0104 7.9038 10.5355 7.9038 10.2426 8.1967L5.99995 12.4393L1.75731 8.1967C1.46441 7.9038 0.98954 7.9038 0.696647 8.1967C0.403755 8.48959 0.403755 8.96446 0.696647 9.25736L5.46962 14.0303ZM29.8489 10.4444C29.9563 10.8444 30.3677 11.0816 30.7677 10.9742C31.1678 10.8668 31.405 10.4554 31.2976 10.0554L29.8489 10.4444ZM6.74995 13.5C6.74995 7.01065 12.0106 1.75 18.4999 1.75L18.4999 0.249999C11.1822 0.249999 5.24995 6.18223 5.24995 13.5L6.74995 13.5ZM18.4999 1.75C23.9315 1.75 28.504 5.43605 29.8489 10.4444L31.2976 10.0554C29.7811 4.40824 24.6271 0.25 18.4999 0.249999L18.4999 1.75Z" fill="#979797"/>
<path d="M31.5305 14.4697C31.2376 14.1768 30.7627 14.1768 30.4698 14.4697L25.6968 19.2426C25.4039 19.5355 25.4039 20.0104 25.6968 20.3033C25.9897 20.5962 26.4646 20.5962 26.7575 20.3033L31.0001 16.0607L35.2428 20.3033C35.5357 20.5962 36.0105 20.5962 36.3034 20.3033C36.5963 20.0104 36.5963 19.5355 36.3034 19.2426L31.5305 14.4697ZM7.1511 18.0554C7.04369 17.6553 6.63231 17.4181 6.23227 17.5255C5.83222 17.633 5.595 18.0443 5.70242 18.4444L7.1511 18.0554ZM30.2501 15C30.2501 21.4893 24.9895 26.75 18.5001 26.75L18.5001 28.25C25.8179 28.25 31.7501 22.3178 31.7501 15L30.2501 15ZM18.5001 26.75C13.0685 26.75 8.49592 23.0638 7.1511 18.0554L5.70242 18.4444C7.21876 24.0916 12.3729 28.25 18.5001 28.25L18.5001 26.75Z" fill="#979797"/>
<path d="M21.8351 10.1886H21.1776C21.0438 9.80034 20.8561 9.43305 20.6202 9.09771H21.8351C22.0778 9.09771 22.3105 9.00063 22.482 8.82784C22.6536 8.65504 22.75 8.42068 22.75 8.17631C22.75 7.93194 22.6536 7.69758 22.482 7.52479C22.3105 7.35199 22.0778 7.25491 21.8351 7.25491H17.1845C17.1509 7.25491 17.1186 7.25 17.0844 7.25H14.6649C14.4222 7.25 14.1895 7.34708 14.018 7.51987C13.8464 7.69267 13.75 7.92703 13.75 8.1714C13.75 8.41577 13.8464 8.65013 14.018 8.82292C14.1895 8.99572 14.4222 9.0928 14.6649 9.0928H17.0844C17.4909 9.09282 17.8912 9.19262 18.2508 9.38357C18.6103 9.57452 18.9182 9.85085 19.1478 10.1886H14.7027C14.4601 10.1886 14.2274 10.2857 14.0558 10.4585C13.8842 10.6313 13.7878 10.8657 13.7878 11.11C13.7878 11.3544 13.8842 11.5888 14.0558 11.7616C14.2274 11.9344 14.4601 12.0314 14.7027 12.0314H19.5485C19.4515 12.6195 19.1507 13.1539 18.6997 13.5398C18.2486 13.9257 17.6763 14.1382 17.0844 14.1396H14.6649C14.486 14.1397 14.3111 14.1925 14.1618 14.2916C14.0125 14.3907 13.8953 14.5317 13.8247 14.6972C13.7541 14.8627 13.7332 15.0454 13.7645 15.2227C13.7959 15.4 13.8782 15.5642 14.0013 15.6949L18.9478 20.9469C19.0296 21.0379 19.1287 21.1116 19.2392 21.1635C19.3497 21.2155 19.4694 21.2447 19.5912 21.2493C19.7131 21.254 19.8346 21.2341 19.9487 21.1908C20.0629 21.1475 20.1672 21.0816 20.2557 20.9971C20.3442 20.9126 20.415 20.8111 20.4639 20.6986C20.5129 20.5862 20.5391 20.465 20.5409 20.3422C20.5427 20.2194 20.5201 20.0974 20.4744 19.9836C20.4287 19.8697 20.3609 19.7661 20.2749 19.679L16.7935 15.9824H17.0844C18.1624 15.981 19.2013 15.5757 19.999 14.8454C20.7966 14.1151 21.2959 13.1121 21.3996 12.0314H21.8351C22.0778 12.0314 22.3105 11.9344 22.482 11.7616C22.6536 11.5888 22.75 11.3544 22.75 11.11C22.75 10.8657 22.6536 10.6313 22.482 10.4585C22.3105 10.2857 22.0778 10.1886 21.8351 10.1886Z" fill="#979797"/>
</svg>
