<svg width="271" height="278" viewBox="0 0 271 278" fill="none" xmlns="http://www.w3.org/2000/svg">
<path d="M175.05 90.622V176.412C175.214 188.641 172.931 200.78 168.336 212.115C163.74 223.449 156.925 233.75 148.29 242.412C131.912 258.408 109.894 267.314 87 267.202H0V0.00197852H87C109.869 -0.152031 131.882 8.69055 148.29 24.622C156.927 33.2822 163.744 43.5829 168.34 54.9177C172.936 66.2524 175.217 78.3921 175.05 90.622Z" fill="#8EC6E8"/>
<path d="M125.04 40.49C111.35 23.04 93.2401 11.83 73.3401 9.34999L0 0V267.22L73.3401 276.53C82.7878 277.815 92.4056 276.829 101.396 273.656C110.387 270.482 118.493 265.211 125.04 258.28C139.64 242.84 147.6 220.79 147.6 195.12V109.37C147.847 84.5557 139.919 60.35 125.04 40.49Z" fill="#B22128"/>
<path d="M124.672 158.363C129.267 158.363 132.992 154.638 132.992 150.043C132.992 145.448 129.267 141.723 124.672 141.723C120.076 141.723 116.352 145.448 116.352 150.043C116.352 154.638 120.076 158.363 124.672 158.363Z" fill="white"/>
<path d="M199.775 179.553C197.455 150.153 199.835 96.1728 221.665 105.673C228.005 108.423 226.665 116.853 225.325 121.833C221.985 134.003 204.635 148.913 203.885 179.283L199.775 179.553Z" fill="#365489"/>
<path d="M199.772 179.551C199.132 186.501 202.462 194.171 210.772 192.071C211.181 191.957 211.559 191.751 211.876 191.469C212.194 191.186 212.442 190.835 212.602 190.441L213.312 188.841C213.312 188.841 206.752 189.951 206.312 185.341C205.872 180.731 205.512 180.221 203.862 179.281L199.772 179.551Z" fill="#F9C38A"/>
<path d="M224.389 165.262C222.839 192.922 197.809 250.412 191.469 257.822L194.869 260.762C194.869 260.762 227.629 229.762 237.989 188.592C253.989 177.932 244.639 165.262 244.639 165.262H224.389Z" fill="#B22128"/>
<path d="M228.359 165.262C228.359 207.262 250.359 248.092 260.699 261.992L264.099 258.902C264.099 258.902 244.479 216.262 253.979 187.512C264.099 182.102 256.219 165.262 256.219 165.262H228.359Z" fill="#E7503D"/>
<path d="M173.719 122.34C177.079 121.81 185.299 124.01 185.299 124.01L185.519 120.84C185.519 120.84 194.909 123.95 194.799 116.25C199.799 113.77 205.369 115.11 207.699 116.76C214.649 113.22 219.149 108.61 220.449 103.45C213.105 102.211 205.616 102.1 198.239 103.12L175.759 103L173.719 122.34Z" fill="#F9C38A"/>
<path d="M185.42 110.061V112.061C185.42 112.061 177.99 110.691 176.42 113.251C174.85 115.811 175.31 127.511 173.02 129.711C169.83 132.771 159.21 130.711 164.02 121.711C159.22 121.711 162.9 114.571 164.84 113.661C159.08 110.411 163.54 98.561 169.65 100.231C167.59 95.451 179.12 95.1211 183.11 100.071C186.38 94.8611 193.26 96.1611 198.18 103.071C194.44 103.871 189.27 109.921 186.61 108.951C184.69 103.511 180.05 106.071 179.49 108.181C178.93 110.291 185.42 110.061 185.42 110.061Z" fill="#13375A"/>
<path d="M171.822 128.93C172.121 128.682 172.351 128.362 172.492 128C172.503 127.975 172.509 127.947 172.509 127.92C172.509 127.892 172.503 127.864 172.491 127.839C172.48 127.813 172.464 127.791 172.443 127.772C172.423 127.753 172.398 127.739 172.372 127.73C172.32 127.711 172.263 127.712 172.212 127.735C172.162 127.757 172.122 127.799 172.102 127.85C171.682 128.85 170.502 129.33 168.922 129.08C167.342 128.83 165.422 127.73 165.342 126.53C165.342 126.475 165.32 126.421 165.28 126.382C165.241 126.342 165.188 126.32 165.132 126.32C165.076 126.32 165.023 126.342 164.983 126.382C164.944 126.421 164.922 126.475 164.922 126.53C165.012 127.97 167.042 129.18 168.862 129.47C169.365 129.593 169.889 129.609 170.399 129.516C170.909 129.423 171.394 129.223 171.822 128.93Z" fill="white"/>
<path d="M195.19 102.082C195.227 102.043 195.248 101.991 195.248 101.937C195.248 101.883 195.227 101.831 195.19 101.792C193.55 99.7918 189.79 97.9418 187.3 99.8418C187.263 99.8808 187.242 99.9327 187.242 99.9868C187.242 100.041 187.263 100.093 187.3 100.132C187.319 100.151 187.341 100.167 187.366 100.178C187.391 100.188 187.418 100.194 187.445 100.194C187.472 100.194 187.499 100.188 187.524 100.178C187.549 100.167 187.571 100.151 187.59 100.132C189.88 98.3918 193.37 100.132 194.9 102.002C194.914 102.026 194.932 102.048 194.954 102.065C194.976 102.083 195.001 102.095 195.028 102.103C195.055 102.11 195.084 102.112 195.111 102.109C195.139 102.105 195.166 102.096 195.19 102.082Z" fill="white"/>
<path d="M159.306 123.72V123.67C159.867 122.747 160.103 121.663 159.976 120.59C159.716 118.03 160.846 116 163.626 114.02C163.651 114.005 163.672 113.985 163.688 113.961C163.704 113.937 163.715 113.91 163.72 113.882C163.725 113.853 163.723 113.824 163.716 113.796C163.708 113.768 163.694 113.742 163.676 113.72C163.644 113.675 163.595 113.645 163.541 113.636C163.487 113.627 163.431 113.639 163.386 113.67C160.446 115.76 159.276 117.9 159.556 120.67C159.669 121.644 159.458 122.628 158.956 123.47C158.927 123.516 158.916 123.571 158.925 123.625C158.934 123.678 158.963 123.727 159.006 123.76C159.052 123.791 159.108 123.804 159.163 123.796C159.219 123.789 159.269 123.762 159.306 123.72Z" fill="#13375A"/>
<path d="M183.417 100.343C183.456 100.311 183.483 100.266 183.492 100.217C183.501 100.167 183.492 100.116 183.467 100.073C183.159 99.6417 183.016 99.1143 183.066 98.5871C183.116 98.06 183.354 97.5683 183.737 97.2025C183.775 97.1618 183.796 97.1082 183.796 97.0525C183.796 96.9968 183.775 96.9432 183.737 96.9025C183.698 96.8652 183.646 96.8444 183.592 96.8444C183.538 96.8444 183.486 96.8652 183.447 96.9025C183.151 97.1952 182.927 97.5526 182.793 97.9466C182.66 98.3406 182.62 98.7603 182.677 99.1725C181.586 97.653 180.626 96.044 179.806 94.3625C179.795 94.3375 179.778 94.3151 179.758 94.2966C179.737 94.278 179.713 94.2637 179.687 94.2544C179.661 94.2452 179.634 94.2411 179.606 94.2425C179.578 94.2438 179.552 94.2507 179.527 94.2625C179.502 94.2743 179.479 94.2909 179.461 94.3114C179.442 94.3319 179.428 94.3558 179.418 94.3818C179.409 94.4078 179.405 94.4354 179.407 94.4629C179.408 94.4905 179.415 94.5176 179.427 94.5425C180.414 96.625 181.657 98.5766 183.126 100.353C183.167 100.383 183.216 100.4 183.267 100.4C183.317 100.4 183.366 100.383 183.407 100.353L183.417 100.343Z" fill="#2460AB"/>
<path d="M257.755 157.543C257.145 149.653 244.315 100.213 220.445 103.453C196.575 106.693 214.335 153.053 224.385 165.263H256.215C256.215 165.263 258.375 165.423 257.755 157.543Z" fill="#A9CBE8"/>
<path d="M244.241 174.072C247.801 169.822 249.961 180.792 249.961 180.792C249.961 180.792 251.511 167.192 253.961 165.262H237.961C237.961 165.262 240.691 178.322 244.241 174.072Z" fill="#A9CBE8"/>
<path d="M221.757 135.683C221.718 135.683 221.68 135.673 221.646 135.656C221.611 135.639 221.58 135.614 221.557 135.583C221.52 135.54 221.5 135.485 221.5 135.428C221.5 135.372 221.52 135.317 221.557 135.273C221.627 135.203 228.107 128.213 229.767 122.013C229.785 121.952 229.827 121.9 229.883 121.868C229.939 121.837 230.004 121.828 230.067 121.843C230.098 121.852 230.127 121.866 230.153 121.885C230.178 121.905 230.199 121.929 230.215 121.957C230.231 121.985 230.241 122.016 230.245 122.048C230.249 122.08 230.246 122.113 230.237 122.143C228.907 127.143 224.567 132.543 222.737 134.673C224.737 133.673 228.907 131.223 230.487 128.523C230.519 128.468 230.571 128.427 230.633 128.41C230.695 128.393 230.761 128.402 230.817 128.433C230.872 128.465 230.913 128.518 230.93 128.58C230.947 128.642 230.939 128.708 230.907 128.763C228.727 132.493 222.117 135.533 221.837 135.663L221.757 135.683Z" fill="white"/>
<path d="M213.385 180.063C205.845 151.553 198.545 98.0027 221.725 103.453C228.455 105.033 228.675 113.553 228.215 118.703C227.105 131.283 212.685 149.043 217.375 179.063L213.385 180.063Z" fill="#486EB5"/>
<path d="M213.383 180.062C213.983 187.012 218.643 193.963 226.433 190.413C226.815 190.225 227.149 189.954 227.412 189.62C227.675 189.286 227.86 188.897 227.953 188.482L228.363 186.783C228.363 186.783 222.103 189.042 220.873 184.582C219.643 180.122 219.163 179.683 217.373 179.062L213.383 180.062Z" fill="#F9C38A"/>
<path d="M264.101 258.902C264.101 258.902 266.391 261.272 268.761 263.402C269.14 263.736 269.448 264.142 269.668 264.597C269.887 265.052 270.013 265.546 270.038 266.05C270.063 266.555 269.987 267.059 269.814 267.533C269.641 268.008 269.375 268.443 269.031 268.812C265.831 272.361 261.801 275.062 257.301 276.672H247.301C247.037 276.683 246.778 276.595 246.573 276.427C246.369 276.259 246.233 276.021 246.193 275.759C246.152 275.498 246.209 275.23 246.352 275.008C246.496 274.785 246.716 274.623 246.971 274.552C251.101 273.212 255.781 271.422 257.611 269.642C260.271 265.942 261.481 263.122 260.661 261.992L264.101 258.902Z" fill="#F9C38A"/>
<path d="M194.923 260.762L192.313 271.842C192.206 272.271 192.006 272.671 191.727 273.014C191.448 273.356 191.097 273.633 190.699 273.824C190.3 274.015 189.865 274.116 189.423 274.119C188.981 274.122 188.544 274.028 188.143 273.842C183.811 271.791 179.99 268.801 176.958 265.089C173.926 261.377 171.758 257.037 170.613 252.382C170.596 252.184 170.64 251.984 170.738 251.81C170.836 251.636 170.984 251.496 171.162 251.406C171.341 251.317 171.542 251.283 171.74 251.309C171.938 251.335 172.123 251.42 172.273 251.552C180.273 260.742 187.523 261.822 191.523 257.812L194.923 260.762Z" fill="#F9C38A"/>
<path d="M254.212 156.082C254.15 156.072 254.094 156.038 254.056 155.988C254.019 155.937 254.003 155.874 254.012 155.812C254.262 154.062 253.352 153.152 252.302 152.102C250.872 150.672 249.242 149.052 250.152 144.982C251.062 140.912 248.592 139.692 245.472 138.132C243.204 137.181 241.178 135.736 239.542 133.902C237.442 131.262 238.202 128.392 238.932 125.622C239.722 122.622 240.462 119.842 238.002 117.222C237.958 117.174 237.935 117.111 237.938 117.046C237.941 116.981 237.969 116.92 238.017 116.877C238.064 116.833 238.127 116.81 238.192 116.813C238.257 116.816 238.318 116.844 238.362 116.892C241.002 119.702 240.192 122.772 239.362 125.742C238.632 128.522 237.932 131.152 239.872 133.602C241.47 135.374 243.44 136.771 245.642 137.692C248.822 139.292 251.572 140.692 250.582 145.082C249.742 148.892 251.192 150.352 252.582 151.762C253.682 152.852 254.712 153.892 254.432 155.882C254.421 155.934 254.394 155.982 254.354 156.018C254.315 156.054 254.265 156.076 254.212 156.082Z" fill="white"/>
<path d="M229.802 158.861H229.702C229.672 158.849 229.645 158.831 229.622 158.808C229.6 158.785 229.582 158.757 229.571 158.727C229.56 158.697 229.555 158.665 229.557 158.633C229.559 158.601 229.567 158.569 229.582 158.541C230.642 156.181 228.382 154.791 225.992 153.321C223.872 152.021 221.672 150.661 222.142 148.541C222.148 148.509 222.16 148.479 222.178 148.452C222.196 148.426 222.22 148.403 222.247 148.386C222.274 148.369 222.305 148.358 222.337 148.354C222.369 148.349 222.401 148.352 222.432 148.361C222.463 148.366 222.492 148.378 222.518 148.396C222.543 148.413 222.565 148.436 222.582 148.462C222.599 148.488 222.61 148.518 222.616 148.548C222.621 148.579 222.619 148.61 222.612 148.641C222.222 150.431 224.182 151.641 226.252 152.911C228.592 154.361 231.252 155.991 230.012 158.741C229.992 158.778 229.961 158.809 229.924 158.83C229.887 158.852 229.845 158.862 229.802 158.861Z" fill="white"/>
</svg>
