<svg width="202" height="293" viewBox="0 0 202 293" fill="none" xmlns="http://www.w3.org/2000/svg">
<path d="M124.541 155.415V216.281C124.659 224.958 123.036 233.571 119.766 241.613C116.497 249.654 111.647 256.962 105.502 263.107C93.852 274.461 78.1871 280.784 61.897 280.709H0V91.1226H61.897C78.1703 91.0099 93.8351 97.2839 105.509 108.59C111.653 114.735 116.502 122.043 119.77 130.085C123.039 138.127 124.661 146.739 124.541 155.415Z" fill="#8EC6E8"/>
<path d="M88.9616 119.848C79.2217 107.467 66.3372 99.5142 52.1862 97.7547L0.0078125 91.1211V280.707L52.1862 287.313C58.9068 288.223 65.7481 287.523 72.1434 285.272C78.5387 283.02 84.304 279.281 88.9616 274.365C99.3489 263.41 105.012 247.766 105.012 229.554V168.717C105.188 151.111 99.5476 133.938 88.9616 119.848Z" fill="#B22128"/>
<path d="M88.7006 203.474C91.9698 203.474 94.6199 200.831 94.6199 197.571C94.6199 194.311 91.9698 191.668 88.7006 191.668C85.4314 191.668 82.7812 194.311 82.7812 197.571C82.7812 200.831 85.4314 203.474 88.7006 203.474Z" fill="white"/>
<path d="M155.403 205.617C155.581 205.688 153.133 208.831 150.75 211.052C148.829 213.457 147.022 216.302 146.403 219.409C145.464 224.127 146.247 247.441 145.428 249.101C138.378 255.976 133.27 273.223 131.832 278.495C131.553 279.52 130.988 280.445 130.203 281.162L130.516 287.108L134.024 290.329C134.024 290.329 133.241 285.483 134.799 281.886C134.799 281.886 152.586 255.075 153.61 253.024C155.624 247.185 162.952 217.288 162.952 217.288L164.652 210.413L155.403 205.617Z" fill="#F9C38A"/>
<path d="M126.367 283.081C126.367 283.081 128.58 286.487 128.772 287.814C128.964 289.14 130.145 292.156 131.447 292.347C131.746 292.39 136.826 292.759 136.79 292.127C136.79 291.645 134.919 290.949 134.065 290.368C132.592 289.346 130.302 281.066 130.302 281.066C130.302 281.066 126.46 282.017 126.367 283.081Z" fill="#DC4537"/>
<path d="M170.578 216.331C170.578 216.331 182.018 240.708 182.089 244.994C182.153 248.669 180.09 269.286 180.666 286.455C180.666 287.073 181.47 287.874 182.615 288.421C183.263 288.719 186.379 290.102 186.379 290.102L186.806 291.216L176.077 290.457L175.928 287.534C175.928 287.534 171.659 261.851 172.093 254.586C172.164 253.451 172.719 246.618 172.719 246.618L159.82 221.787L167.931 211.145L170.578 216.331Z" fill="#F9C38A"/>
<path d="M171.679 161.6C169.95 156.996 165.418 154.207 160.708 155.073C159.987 153.915 159.043 152.91 157.93 152.118C156.818 151.325 155.559 150.76 154.226 150.454C149.047 149.348 142.053 151.391 142.238 156.84C140.232 160.508 140.154 165.758 143.227 168.553C142.16 173.519 146.785 178.259 152.818 178.088C154.917 181.537 158.922 183.764 162.892 183.282C163.771 183.138 164.657 183.041 165.546 182.991C165.24 182.941 171.949 188.05 177.605 180.189C183.368 172.171 179.305 162.459 171.679 161.6Z" fill="#202721"/>
<path d="M170.96 133.99C171.238 133.33 171.584 132.7 171.991 132.11L172.432 131.464C172.479 131.372 172.519 131.277 172.553 131.18C172.666 130.376 172.683 129.562 172.603 128.754L168.69 129.698L167.829 131.954C166.961 131.549 165.474 128.534 164.933 129.258C164.286 130.109 166.705 133.827 166.897 134.827C167.089 135.827 164.82 151.436 164.165 154.529C163.511 157.623 159.078 166.278 159.078 166.278L163.133 171.401C163.133 171.401 169.622 158.218 170.049 154.189C170.092 153.763 170.141 153.132 170.198 152.351L170.96 133.99Z" fill="#F9C38A"/>
<path d="M144.01 182.844L139.201 178.779C139.201 178.779 135.309 185.249 132.193 190.528C129.098 189.414 121.109 184.213 120.71 183.979C120.312 183.745 119.437 177.863 118.761 178.176C118.085 178.488 119.28 181.276 118.462 181.482C117.644 181.687 111.482 177.594 111.347 178.14C111.105 179.169 115.018 180.801 114.819 181.255C114.62 181.709 110.892 179.162 110.294 179.8C109.697 180.439 114.044 181.872 114.072 182.291C114.101 182.709 109.803 181.503 109.924 182.397C109.981 182.879 113.752 183.369 113.482 183.887C113.211 184.405 110.309 184.49 110.429 185.043C110.55 185.597 112.884 184.632 114.3 185.256C115.716 185.88 117.06 185.568 119.045 187.236C121.03 188.903 130.777 198.424 133.815 197.608C136.519 196.892 144.01 182.844 144.01 182.844Z" fill="#F9C38A"/>
<path d="M160.728 176.793C161.034 174.92 163.944 170.23 164.407 169.081C164.407 169.081 161.034 164.824 158.295 165.129C158.295 165.129 154.617 171.209 152.525 171.415C150.434 171.621 143.077 171.94 141.782 172.72C140.487 173.501 135.023 181.88 135.023 181.88C135.023 181.88 139.94 186.889 141.917 186.846C142.348 185.975 142.84 185.135 143.39 184.334C143.689 185.292 148.271 200.092 148.264 203.448C149.276 204.269 150.445 204.876 151.7 205.232C152.955 205.589 154.27 205.687 155.564 205.521C156.859 205.355 158.105 204.929 159.229 204.267C160.353 203.606 161.33 202.724 162.102 201.674C161.871 198.724 161.814 195.763 161.931 192.806C162.315 186.193 163.667 182.653 160.728 176.793Z" fill="#E7503D"/>
<path d="M184.576 234.068L162.136 201.73C160.792 202.313 159.393 202.76 157.96 203.064C154.753 203.563 151.501 203.701 148.263 203.476C148.271 203.582 148.271 203.689 148.263 203.795C147.893 206.463 144.343 210.585 143.61 218.694C142.785 227.875 143.283 243.824 143.567 244.867C158.465 243.05 180.343 238.496 184.576 234.068Z" fill="#202721"/>
<path d="M148.734 166.057C148.734 166.057 149.524 170.314 149.368 171.974C149.211 173.635 149.965 179.034 153.373 179.069C156.781 179.105 154.021 172.223 153.7 170.555C153.453 168.326 153.32 166.086 153.302 163.844L148.734 166.057Z" fill="#F9C38A"/>
<path d="M153.373 166.356C153.323 164.973 153.302 163.816 153.302 163.816L148.734 166.058C148.734 166.058 148.898 166.931 149.055 168.031C149.859 168.248 150.713 168.202 151.49 167.901C152.267 167.6 152.927 167.059 153.373 166.356Z" fill="#E5AC7A"/>
<path d="M147.067 154.327C145.898 155.077 145.038 156.219 144.641 157.548C143.993 159.747 144.726 165.423 149.28 166.771C153.833 168.119 155.804 163.649 154.864 160.137C153.925 156.625 151.912 152.184 147.067 154.327Z" fill="#F9C38A"/>
<path d="M155.449 158.785C155.357 159.729 154.859 160.445 154.325 160.395C153.792 160.346 153.443 159.53 153.528 158.586C153.614 157.643 154.119 156.919 154.653 156.976C155.186 157.033 155.535 157.841 155.449 158.785Z" fill="#F9C38A"/>
<path d="M145.968 162.42C146.502 163.243 146.502 164.222 145.968 164.591C145.434 164.96 144.545 164.591 144.033 163.783C143.521 162.974 143.499 161.98 144.033 161.604C144.566 161.228 145.434 161.597 145.968 162.42Z" fill="#F9C38A"/>
<path d="M167.176 128.622L165.788 130.339L164.871 129.63C164.843 129.57 164.828 129.504 164.828 129.438C164.828 129.372 164.843 129.307 164.871 129.247C165.006 129.034 167.147 127.991 167.176 128.622Z" fill="#F9C38A"/>
<path d="M176.045 292.494H189.599C190.097 292.444 190.218 292.04 190.047 291.785C189.691 291.274 188.105 290.898 186.333 290.082C183.217 290.408 176.43 288.287 175.939 287.57C175.654 289.003 175.768 292.43 176.045 292.494Z" fill="#DC4537"/>
<path d="M149.242 131.109C147.819 120.424 146.396 109.825 145.016 99.1825C145.671 99.0986 146.32 98.9706 146.958 98.7994C148.488 98.2744 149.434 97.0682 150.28 95.7912C152.337 92.6624 153.56 89.1789 154.663 85.6457C155.168 84.021 163.912 68.6537 164.211 64.4465C164.36 62.2188 164.339 59.9839 164.353 57.7561C164.353 56.7558 164.261 55.7483 164.211 54.7409C164.211 54.074 164.524 53.6838 165.299 53.4851C166.995 53.0881 168.777 53.286 170.344 54.0456C173.132 55.2517 174.612 57.5149 175.48 60.3032C176.633 64.2084 176.458 68.3842 174.982 72.1798C174.065 74.7197 173.36 77.3377 172.67 79.9486C172.324 81.1412 172.377 82.4136 172.819 83.574C173.004 84.0281 173.246 84.1345 173.766 84.0635C177.807 83.4818 181.855 82.8858 185.91 82.4246C188.294 82.1479 190.713 82.0912 193.11 81.9706C194.172 81.9322 195.212 82.2746 196.041 82.9355C197.894 84.2275 199.367 85.9882 200.31 88.0366C200.513 88.4423 200.609 88.8923 200.59 89.3451C200.572 89.7978 200.439 90.2385 200.204 90.6262C199.755 91.3853 199.343 92.1729 198.916 92.9462C198.705 93.2899 198.603 93.6892 198.623 94.0918C198.643 94.4944 198.785 94.8815 199.03 95.2023C199.698 96.1317 200.41 97.0328 201.114 97.9409C202.253 99.4095 202.281 100.133 201.264 101.659C200.744 102.425 200.253 103.212 199.762 103.993C199.515 104.351 199.375 104.771 199.357 105.206C199.34 105.64 199.446 106.071 199.663 106.448C200.154 107.37 200.595 108.321 201.157 109.193C202.146 110.74 201.904 112.145 200.851 113.514C200.239 114.316 199.634 115.124 199.008 115.919C198.658 116.312 198.405 116.781 198.27 117.288C198.134 117.796 198.119 118.328 198.226 118.842C198.347 119.424 198.354 120.034 198.489 120.609C198.591 121.103 198.591 121.613 198.491 122.108C198.391 122.603 198.192 123.073 197.906 123.489C196.915 125.116 195.646 126.557 194.156 127.746C193.007 128.583 191.676 129.138 190.272 129.364C188.18 129.825 186.074 130.25 183.954 130.548C181.613 130.882 179.244 131.073 176.882 131.3C175.018 131.478 173.147 131.613 171.276 131.755C168.142 132.012 164.993 132.036 161.856 131.826C158.135 131.57 154.4 131.428 150.679 131.23C150.202 131.18 149.733 131.137 149.242 131.109Z" fill="#F9C38A"/>
<path d="M145.944 114.685C145.318 109.955 144.694 105.244 144.073 100.552C143.937 99.7367 143.903 98.9073 143.973 98.0834C144.058 97.3739 144.229 97.0263 144.485 96.9908C145.332 96.8702 148.099 97.8067 148.363 99.7507C148.477 100.574 148.583 101.397 148.69 102.22C149.843 110.918 150.993 119.614 152.141 128.307C152.212 128.804 152.262 129.315 152.283 129.79C152.333 131.039 150.084 132.103 149.273 132.28C148.754 132.394 148.135 131.351 147.85 128.868C147.203 124.142 146.57 119.41 145.944 114.685Z" fill="#E7E6E6"/>
<path d="M132.118 116.494C131.445 111.367 130.766 106.237 130.083 101.106C129.883 100.159 130.046 99.1719 130.539 98.3386C130.776 97.9551 131.096 97.6289 131.475 97.3835C131.853 97.1381 132.282 96.9797 132.73 96.9196L141.872 95.7135C143.857 95.4581 145.359 96.6642 145.672 98.7856C145.8 99.6795 145.906 100.573 146.027 101.467C147.279 110.927 148.529 120.401 149.777 129.889C149.855 130.43 149.855 130.98 149.777 131.521C149.683 132.183 149.374 132.796 148.897 133.266C148.42 133.737 147.802 134.038 147.137 134.125C144.17 134.522 141.196 134.834 138.244 135.317C136.344 135.622 134.487 134.607 134.153 131.932C133.513 126.789 132.801 121.645 132.118 116.494Z" fill="#9DC150"/>
<path d="M142.949 101.164C142.999 101.543 142.935 101.927 142.765 102.269C142.594 102.611 142.326 102.894 141.994 103.083C141.662 103.273 141.281 103.359 140.9 103.332C140.518 103.305 140.153 103.165 139.852 102.93C139.55 102.696 139.325 102.377 139.206 102.014C139.086 101.652 139.078 101.262 139.181 100.895C139.284 100.528 139.495 100.199 139.786 99.9518C140.077 99.7041 140.435 99.5484 140.815 99.5043C141.318 99.4479 141.823 99.59 142.222 99.9003C142.62 100.211 142.882 100.664 142.949 101.164Z" fill="#E7E6E6"/>
<path d="M163.62 129.283C163.902 129.359 164.152 129.526 164.331 129.758C164.786 130.248 165.185 131.227 165.256 131.177C166.654 131.99 168.101 132.718 169.589 133.355C169.646 133.524 169.717 133.688 169.802 133.845L167.269 135.314L167.056 134.987C166.71 134.481 166.296 134.025 165.825 133.632C165.357 133.27 164.95 132.833 164.623 132.341C164.53 132.107 164.253 131.489 164.103 131.163C163.954 130.837 163.769 130.454 163.712 130.269C163.628 130.102 163.517 129.948 163.385 129.815C163.336 129.772 163.302 129.715 163.288 129.652C163.274 129.589 163.281 129.523 163.307 129.463C163.333 129.404 163.378 129.355 163.434 129.322C163.49 129.29 163.555 129.276 163.62 129.283Z" fill="#F9C38A"/>
<path d="M109.78 51.8326C108.992 50.6832 107.961 49.7206 106.758 49.0132C105.556 48.3057 104.212 47.8707 102.822 47.7389C101.057 47.5774 99.2765 47.7556 97.5785 48.2639C98.788 42.5881 102.815 38.7924 107.005 35.5785C107.281 35.3444 107.469 35.0236 107.537 34.669C107.606 34.3143 107.551 33.947 107.382 33.6274C107.247 33.3338 107.016 33.0951 106.726 32.9506C106.436 32.8061 106.105 32.7646 105.789 32.8328C98.8521 34.5356 94.5335 41.8715 93.4592 47.966C93.3321 48.701 93.2442 49.4423 93.1959 50.1866C92.1625 50.8091 91.1947 51.5341 90.3074 52.3505C84.011 58.1328 80.0482 66.54 78.8458 76.721C78.8159 76.9729 78.8542 77.2282 78.9568 77.4603C79.0594 77.6924 79.2226 77.8928 79.4292 78.0407C79.6156 78.1697 79.8303 78.2524 80.0553 78.2819C80.2309 78.3046 80.4093 78.2919 80.5799 78.2446C80.7505 78.1973 80.9098 78.1164 81.0485 78.0065C81.1872 77.8967 81.3023 77.7603 81.3871 77.6053C81.4719 77.4503 81.5247 77.2799 81.5422 77.1041C82.4537 71.1688 84.8002 65.5439 88.3793 60.7152C89.8358 58.6292 91.5523 56.7363 93.4876 55.082C94.3841 59.7929 97.1161 63.8653 101.926 64.8586C103.442 65.2271 105.036 65.1164 106.486 64.5419C107.937 63.9673 109.172 62.9574 110.022 61.6518C110.964 60.1763 111.445 58.4543 111.402 56.7054C111.359 54.9566 110.794 53.2602 109.78 51.8326ZM101.954 51.9887C104.167 52.2157 106.934 53.4928 107.311 56.352C107.413 56.9187 107.385 57.5012 107.229 58.0555C107.072 58.6098 106.791 59.1214 106.408 59.5517C106.015 59.9571 105.535 60.268 105.003 60.461C104.472 60.654 103.904 60.7239 103.341 60.6656C102.554 60.6236 101.786 60.4115 101.09 60.044C100.393 59.6765 99.7849 59.1623 99.3074 58.5371C98.1073 56.829 97.4166 54.8169 97.3153 52.7336C98.7559 52.0965 100.333 51.8282 101.904 51.9532L101.954 51.9887Z" fill="#E7503D"/>
<path d="M69.0902 71.698C71.0609 63.6313 72.6475 55.7703 70.5984 48.2002C69.5447 44.2354 67.3834 40.6506 64.3661 37.8631C65.0073 36.3772 65.4844 34.8262 65.789 33.2373C67.2119 25.6459 64.8428 17.8204 59.6349 12.7973C59.3873 12.5542 59.0538 12.418 58.7064 12.418C58.359 12.418 58.0255 12.5542 57.7779 12.7973C57.4905 13.054 57.3116 13.4099 57.2772 13.7932C57.2429 14.1765 57.3557 14.5584 57.593 14.8619C59.561 17.162 61.0414 19.8358 61.945 22.722C62.8487 25.6082 63.1567 28.647 62.8506 31.6552C62.6737 33.162 62.3375 34.646 61.8475 36.0823C60.2478 35.1686 58.4528 34.6481 56.6112 34.564C53.7653 34.4505 50.5566 36.0326 49.9163 39.2962C49.7011 40.5711 49.9685 41.8803 50.6666 42.9697C51.3646 44.0591 52.4436 44.8511 53.6942 45.192C54.5978 45.5047 55.5602 45.6116 56.5106 45.5048C57.4611 45.398 58.3755 45.0802 59.1867 44.5747C60.5384 43.7171 61.6847 42.5739 62.5447 41.226C64.7095 43.6246 66.2339 46.5281 66.9771 49.6688C68.4001 55.1672 67.6459 61.0204 66.906 66.6253C66.7139 68.0868 66.5147 69.6051 66.3581 71.0808C66.3348 71.3455 66.3833 71.6116 66.4984 71.8512C66.6136 72.0909 66.7912 72.2952 67.0127 72.443C67.1889 72.5726 67.3939 72.6577 67.6103 72.6913C67.7729 72.7233 67.9402 72.7229 68.1027 72.6902C68.2651 72.6576 68.4195 72.5933 68.557 72.501C68.6945 72.4087 68.8123 72.2903 68.9038 72.1525C68.9953 72.0147 69.0586 71.8603 69.0902 71.698ZM59.393 40.5875C58.5748 41.5453 56.8957 43.0707 54.7756 42.5456C54.329 42.459 53.9119 42.2605 53.5634 41.9689C53.2149 41.6772 52.9465 41.3019 52.7835 40.8784C52.6929 40.5355 52.698 40.1745 52.7983 39.8344C52.8986 39.4942 53.0904 39.1879 53.3527 38.9486C53.6653 38.596 54.0482 38.3123 54.4769 38.1156C54.9057 37.9189 55.3709 37.8136 55.8428 37.8063C57.4507 37.8692 59.0035 38.4076 60.3037 39.353C60.029 39.7849 59.7247 40.1974 59.393 40.5875Z" fill="#FAB623"/>
<path d="M55.8322 82.3407C54.7795 78.5791 52.8187 75.1321 50.1211 72.301C47.4235 69.4699 44.0714 67.3411 40.3579 66.1008C39.4097 65.8087 38.4452 65.5718 37.4694 65.3913C35.7832 56.7995 27.9572 51.5565 20.3872 47.5763C20.252 47.5018 20.1031 47.4552 19.9494 47.4395C19.7957 47.4238 19.6403 47.4393 19.4928 47.4851C19.3452 47.5308 19.2085 47.6058 19.0908 47.7056C18.973 47.8055 18.8768 47.928 18.8078 48.0659C18.6341 48.3542 18.5815 48.6993 18.6615 49.026C18.7414 49.3528 18.9474 49.635 19.2347 49.8112C24.0868 52.6491 30.1271 56.1965 33.0441 61.8723C33.5351 62.8426 33.9192 63.8631 34.1896 64.916C29.0173 64.5896 23.6457 65.7673 20.5011 69.1728C18.5802 71.2303 18.1817 73.7206 19.3983 75.998C19.5519 76.2879 19.7279 76.5655 19.9248 76.8281C20.8559 78.0418 22.0933 78.9874 23.5108 79.5683C24.9282 80.1491 26.4749 80.3444 27.9927 80.1342C33.6133 79.2403 37.6757 74.1037 37.7469 68.2221C38.3232 68.3498 38.8781 68.4988 39.4117 68.662C42.7893 69.7129 45.855 71.5783 48.337 74.093C50.819 76.6077 52.6407 79.694 53.6409 83.0786C53.6766 83.2219 53.7415 83.3563 53.8316 83.4736C53.9216 83.5909 54.0348 83.6885 54.1642 83.7603C54.2937 83.8322 54.4365 83.8767 54.5839 83.8913C54.7313 83.9058 54.8801 83.89 55.0211 83.8448C55.3278 83.7513 55.5851 83.5408 55.737 83.2592C55.8889 82.9775 55.9231 82.6474 55.8322 82.3407ZM34.6164 67.761C34.7658 70.9252 33.7413 74.0824 30.8528 76.1541C29.0884 77.4169 26.3279 78.3463 23.8663 77.1615C23.1856 76.9134 22.59 76.477 22.1491 75.9034C21.7082 75.3298 21.4403 74.6428 21.3769 73.9229C21.3134 73.203 21.457 72.4799 21.7908 71.8385C22.1246 71.197 22.6348 70.6636 23.2616 70.3009C26.3635 68.0589 30.6607 67.4417 34.6164 67.761Z" fill="#8EC6E8"/>
<path d="M86.9395 41.6077C85.5671 42.6427 84.4963 44.024 83.8375 45.6091C83.6311 46.2264 84.4493 46.95 84.8833 46.3186C85.6171 44.9596 86.5392 43.7105 87.6224 42.608C88.1347 42.1398 87.5228 41.1891 86.911 41.6432L86.9395 41.6077Z" fill="#8EC6E8"/>
<path d="M54.0729 65.0311C52.4555 62.259 50.3149 59.8256 47.7694 57.8654C47.1575 57.3901 46.5385 58.3691 47.1077 58.809C49.574 60.7065 51.6452 63.0659 53.2049 65.7548C53.5962 66.4288 54.4358 65.6555 54.0729 65.0453V65.0311Z" fill="#B22128"/>
<path d="M20.2643 65.1889C20.5583 63.9693 21.1527 62.8419 21.9937 61.9091C22.8347 60.9763 23.8958 60.2674 25.0809 59.8466C25.7425 59.6054 25.3299 58.4773 24.6398 58.7327C23.3202 59.2152 22.1387 60.0115 21.1976 61.0525C20.2566 62.0935 19.5845 63.3478 19.2398 64.7065C19.0619 65.416 20.0651 65.9481 20.2643 65.1889Z" fill="#B22128"/>
<path d="M41.2387 32.5131C41.5091 28.8451 39.9226 25.241 36.5574 23.4886C33.1922 21.7361 29.0586 22.6159 26.291 25.1629C25.7574 25.6596 26.412 26.6954 27.0025 26.1704C32.0609 21.7716 40.449 25.4609 40.1431 32.3286C40.1431 33.0381 41.1747 33.2935 41.2317 32.5131H41.2387Z" fill="#9DC150"/>
<path d="M60.3324 59.9971C59.9695 53.8034 51.6241 51.0719 46.4447 51.7601C45.6336 51.8665 45.847 53.0939 46.6225 53.0868C49.1408 53.0468 51.6357 53.573 53.9221 54.6264C56.0565 55.6409 58.9735 57.5494 59.2438 60.139C59.2531 60.2103 59.2765 60.279 59.3125 60.3413C59.3485 60.4036 59.3964 60.4582 59.4535 60.502C59.5107 60.5458 59.5759 60.578 59.6455 60.5966C59.7151 60.6153 59.7878 60.6201 59.8593 60.6108C59.9307 60.6015 59.9996 60.5782 60.0621 60.5423C60.1245 60.5064 60.1793 60.4586 60.2232 60.4017C60.2672 60.3447 60.2994 60.2796 60.3182 60.2102C60.3369 60.1408 60.3417 60.0684 60.3324 59.9971Z" fill="#9DC150"/>
<path d="M112.865 40.6336C113.745 39.7751 114.822 39.144 116.003 38.7953C117.183 38.4466 118.431 38.3909 119.638 38.6329C120.35 38.7748 120.478 37.5758 119.78 37.441C118.428 37.1726 117.03 37.2351 115.706 37.623C114.383 38.011 113.174 38.7129 112.182 39.6687C111.677 40.1512 112.324 41.1515 112.893 40.6336H112.865Z" fill="#9DC150"/>
<path d="M13.468 50.221L12.8918 49.178C12.8569 49.1125 12.8387 49.0394 12.8387 48.9652C12.8387 48.891 12.8569 48.8179 12.8918 48.7524L13.4182 47.6881C13.4568 47.6114 13.473 47.5255 13.4653 47.44C13.4575 47.3546 13.4259 47.273 13.3742 47.2044C13.3224 47.1358 13.2525 47.083 13.1723 47.0519C13.0921 47.0208 13.0048 47.0127 12.9202 47.0283L11.7463 47.2554C11.6723 47.2686 11.5962 47.2639 11.5244 47.2416C11.4526 47.2194 11.3872 47.1803 11.3337 47.1277L10.487 46.2976C10.4244 46.2379 10.3464 46.1967 10.2617 46.1785C10.177 46.1603 10.0889 46.1658 10.0071 46.1944C9.92536 46.2231 9.85313 46.2737 9.79845 46.3408C9.74378 46.4078 9.70878 46.4886 9.69732 46.5743L9.55502 47.752C9.5453 47.8259 9.5175 47.8962 9.47408 47.9568C9.43065 48.0175 9.37295 48.0665 9.30603 48.0996L8.25304 48.653C8.17485 48.6908 8.10893 48.7498 8.06279 48.8232C8.01666 48.8966 7.99219 48.9814 7.99219 49.0681C7.99219 49.1547 8.01666 49.2396 8.06279 49.313C8.10893 49.3864 8.17485 49.4454 8.25304 49.4831L9.32735 49.9798C9.39549 50.0131 9.45484 50.0619 9.50056 50.1223C9.54629 50.1827 9.57712 50.2529 9.59058 50.3274L9.78981 51.498C9.80434 51.5831 9.84249 51.6624 9.89998 51.7269C9.95746 51.7914 10.032 51.8386 10.115 51.863C10.198 51.8874 10.2862 51.888 10.3696 51.8649C10.4529 51.8418 10.5282 51.7958 10.5866 51.7322L11.3977 50.8666C11.4483 50.8115 11.5119 50.7697 11.5826 50.7449C11.6534 50.7202 11.7291 50.7132 11.8032 50.7247L12.9843 50.9021C13.0707 50.9175 13.1597 50.908 13.2409 50.8748C13.3221 50.8416 13.3922 50.7861 13.4429 50.7147C13.4937 50.6432 13.523 50.5589 13.5274 50.4715C13.5319 50.384 13.5113 50.2972 13.468 50.221Z" fill="#B22128"/>
<path d="M48.2714 17.2188L47.688 16.1759C47.6548 16.1098 47.6375 16.0369 47.6375 15.9631C47.6375 15.8892 47.6548 15.8163 47.688 15.7502L48.2215 14.686C48.2607 14.6087 48.2773 14.5219 48.2693 14.4356C48.2613 14.3494 48.2291 14.2671 48.1764 14.1982C48.1237 14.1293 48.0526 14.0767 47.9712 14.0463C47.8899 14.0158 47.8016 14.0089 47.7164 14.0262L46.5496 14.2532C46.4756 14.267 46.3993 14.2626 46.3274 14.2404C46.2555 14.2181 46.1901 14.1787 46.137 14.1255L45.2832 13.2954C45.2214 13.2351 45.1439 13.1934 45.0594 13.1748C44.975 13.1563 44.887 13.1618 44.8055 13.1906C44.724 13.2194 44.6522 13.2704 44.5983 13.3379C44.5444 13.4053 44.5106 13.4865 44.5006 13.5721L44.3228 14.7498C44.3149 14.8243 44.2887 14.8956 44.2465 14.9575C44.2043 15.0194 44.1474 15.0699 44.0808 15.1046L43.0421 15.6509C42.964 15.6886 42.898 15.7476 42.8519 15.821C42.8057 15.8944 42.7812 15.9793 42.7812 16.0659C42.7812 16.1526 42.8057 16.2374 42.8519 16.3108C42.898 16.3842 42.964 16.4432 43.0421 16.481L44.1235 16.9847C44.1909 17.0163 44.2495 17.0638 44.2941 17.1232C44.3388 17.1826 44.3682 17.2519 44.3797 17.3252L44.5789 18.4959C44.5947 18.58 44.6335 18.6582 44.6908 18.722C44.7481 18.7857 44.8218 18.8325 44.9039 18.8574C44.9861 18.8823 45.0735 18.8842 45.1567 18.863C45.2399 18.8418 45.3156 18.7982 45.3757 18.7371L46.1868 17.8645C46.2388 17.8112 46.3026 17.7707 46.3729 17.7461C46.4432 17.7215 46.5183 17.7134 46.5923 17.7226L47.7733 17.8999C47.8601 17.9156 47.9497 17.9066 48.0316 17.8739C48.1135 17.8412 48.1845 17.7861 48.2364 17.7151C48.2884 17.644 48.3193 17.5597 48.3255 17.4719C48.3316 17.3842 48.3129 17.2965 48.2714 17.2188Z" fill="#8EC6E8"/>
<path d="M95.9411 17.1656L95.3577 16.1298C95.3244 16.0625 95.3072 15.9884 95.3072 15.9134C95.3072 15.8384 95.3244 15.7643 95.3577 15.697L95.8913 14.6328C95.9305 14.5555 95.947 14.4687 95.939 14.3824C95.931 14.2961 95.8989 14.2139 95.8461 14.145C95.7934 14.0761 95.7223 14.0235 95.641 13.9931C95.5596 13.9626 95.4713 13.9557 95.3862 13.973L94.2194 14.2C94.146 14.2147 94.07 14.2114 93.9981 14.1904C93.9263 14.1694 93.8606 14.1313 93.8067 14.0794L92.953 13.2493C92.8916 13.1892 92.8146 13.1474 92.7307 13.1285C92.6468 13.1096 92.5593 13.1145 92.478 13.1425C92.3967 13.1705 92.3248 13.2205 92.2705 13.287C92.2161 13.3535 92.1815 13.4338 92.1704 13.5189L91.9925 14.6966C91.9859 14.7714 91.9602 14.8433 91.9179 14.9054C91.8755 14.9675 91.8179 15.0178 91.7506 15.0514L90.6905 15.5977C90.6123 15.6354 90.5464 15.6944 90.5003 15.7678C90.4542 15.8412 90.4297 15.9261 90.4297 16.0127C90.4297 16.0994 90.4542 16.1842 90.5003 16.2576C90.5464 16.331 90.6123 16.39 90.6905 16.4278L91.772 16.9315C91.8393 16.9631 91.8979 17.0106 91.9425 17.07C91.9872 17.1293 92.0165 17.1987 92.0281 17.272L92.2273 18.4427C92.2408 18.5283 92.2782 18.6085 92.3352 18.6739C92.3923 18.7393 92.4666 18.7874 92.5498 18.8126C92.633 18.8377 92.7217 18.839 92.8055 18.8163C92.8894 18.7935 92.9652 18.7476 93.0241 18.6839L93.8352 17.8183C93.8863 17.7637 93.9498 17.7223 94.0204 17.6976C94.0911 17.6728 94.1666 17.6656 94.2407 17.6764L95.4218 17.8467C95.5101 17.8675 95.6027 17.8623 95.6881 17.8317C95.7736 17.8011 95.8483 17.7465 95.9033 17.6744C95.9583 17.6023 95.9911 17.5159 95.9978 17.4256C96.0045 17.3353 95.9848 17.245 95.9411 17.1656Z" fill="#FFCD03"/>
<path d="M36.7712 46.2551C36.9489 46.004 37.0476 45.7059 37.0547 45.3987C37.0618 45.0914 36.9769 44.7891 36.811 44.5301C36.645 44.2712 36.4055 44.0674 36.1229 43.9448C35.8403 43.8222 35.5275 43.7863 35.2244 43.8418C34.9213 43.8972 34.6416 44.0414 34.4211 44.256C34.2005 44.4706 34.049 44.7458 33.9859 45.0466C33.9229 45.3474 33.9511 45.6601 34.067 45.9449C34.1829 46.2296 34.3813 46.4734 34.6368 46.6453C34.9731 46.8715 35.3848 46.9573 35.7838 46.8844C36.1828 46.8114 36.5372 46.5855 36.7712 46.2551Z" fill="#8EC6E8"/>
<path d="M79.9743 28.9387C80.152 28.6876 80.2507 28.3895 80.2578 28.0822C80.2649 27.775 80.1801 27.4727 80.0141 27.2137C79.8481 26.9548 79.6086 26.751 79.326 26.6284C79.0435 26.5058 78.7307 26.4699 78.4276 26.5254C78.1244 26.5808 77.8447 26.725 77.6242 26.9396C77.4036 27.1542 77.2521 27.4294 77.1891 27.7302C77.126 28.031 77.1543 28.3437 77.2702 28.6285C77.3861 28.9132 77.5844 29.157 77.8399 29.3289C78.1756 29.5569 78.5879 29.6438 78.9874 29.5708C79.387 29.4977 79.7415 29.2706 79.9743 28.9387Z" fill="#9DC150"/>
<path d="M10.6609 32.7038C11.411 32.2912 11.6837 31.3505 11.2699 30.6025C10.8562 29.8545 9.91283 29.5826 9.16277 29.9952C8.41272 30.4077 8.14007 31.3485 8.55378 32.0965C8.96749 32.8445 9.9109 33.1164 10.6609 32.7038Z" fill="#B22128"/>
<path d="M56.09 3.14801C56.9466 3.14801 57.641 2.45554 57.641 1.60135C57.641 0.747151 56.9466 0.0546875 56.09 0.0546875C55.2335 0.0546875 54.5391 0.747151 54.5391 1.60135C54.5391 2.45554 55.2335 3.14801 56.09 3.14801Z" fill="#B22128"/>
<path d="M78.4807 53.3941C79.3373 53.3941 80.0316 52.7016 80.0316 51.8474C80.0316 50.9932 79.3373 50.3008 78.4807 50.3008C77.6241 50.3008 76.9297 50.9932 76.9297 51.8474C76.9297 52.7016 77.6241 53.3941 78.4807 53.3941Z" fill="#B22128"/>
<path d="M7.13391 70.1448C7.31063 69.8931 7.40821 69.5947 7.41417 69.2875C7.42013 68.9804 7.33422 68.6784 7.16739 68.4201C7.00056 68.1618 6.76038 67.9589 6.47747 67.8373C6.19455 67.7157 5.88175 67.6808 5.5789 67.7372C5.27604 67.7936 4.99689 67.9386 4.77703 68.1538C4.55716 68.369 4.40654 68.6447 4.34439 68.9456C4.28224 69.2465 4.31134 69.559 4.42803 69.8434C4.54471 70.1277 4.74367 70.371 4.99953 70.5421C5.33667 70.7676 5.74905 70.8523 6.1481 70.778C6.54715 70.7037 6.90105 70.4764 7.13391 70.1448Z" fill="#FFCD03"/>
</svg>
