<svg width="71" height="76" viewBox="0 0 71 76" fill="none" xmlns="http://www.w3.org/2000/svg">
<path d="M70.9099 37.5728C70.9099 58.3004 55.1312 75.0832 35.6229 75.0832C16.1864 75.0832 0.335938 58.3004 0.335938 37.5728C0.335938 16.8453 16.1147 0.0625 35.6229 0.0625C55.1312 0.0625 70.9099 16.8453 70.9099 37.5728Z" fill="#FAB623"/>
<path d="M64.8841 37.5724C64.8841 54.7856 51.8308 68.6996 35.6217 68.6996C19.4844 68.6996 6.35938 54.7856 6.35938 37.5724C6.35938 20.3593 19.4127 6.44531 35.6217 6.44531C51.7591 6.44531 64.8841 20.3593 64.8841 37.5724Z" fill="#E7503D"/>
<path d="M63.0218 37.5735C63.0218 53.7108 50.7574 66.7641 35.6242 66.7641C20.4909 66.7641 8.22656 53.7108 8.22656 37.5735C8.22656 21.4361 20.4909 8.38281 35.6242 8.38281C50.7574 8.38281 63.0218 21.4361 63.0218 37.5735Z" fill="#F0EFEE"/>
<path d="M36.7716 37.5747C36.7716 38.2202 36.2696 38.794 35.6241 38.794C34.9786 38.794 34.4766 38.2202 34.4766 37.5747C34.4766 36.9292 34.9786 36.3555 35.6241 36.3555C36.2696 36.3555 36.7716 36.9292 36.7716 37.5747Z" fill="#231F20"/>
<path d="M35.6228 13.8331C35.4794 13.8331 35.3359 13.6897 35.3359 13.5462V9.88844C35.3359 9.745 35.4794 9.60156 35.6228 9.60156C35.7663 9.60156 35.9097 9.745 35.9097 9.88844V13.618C35.9097 13.7614 35.7663 13.8331 35.6228 13.8331Z" fill="#231F20"/>
<path d="M35.6228 65.5455C35.4794 65.5455 35.3359 65.402 35.3359 65.2586V61.5291C35.3359 61.3856 35.4794 61.2422 35.6228 61.2422C35.7663 61.2422 35.9097 61.3856 35.9097 61.5291V65.2586C35.9097 65.402 35.7663 65.5455 35.6228 65.5455Z" fill="#231F20"/>
<path d="M48.1735 15.9837C48.0301 15.912 48.0301 15.8402 48.1018 15.7685L49.1776 13.9038C49.2493 13.832 49.321 13.832 49.321 13.832C49.3928 13.9038 49.3928 13.9755 49.3928 14.0472L48.317 15.912C48.2452 15.9837 48.2452 15.9837 48.1735 15.9837Z" fill="#231F20"/>
<path d="M21.9938 61.3118C21.9938 61.3118 21.9221 61.3118 21.9938 61.3118C21.8504 61.2401 21.8504 61.1684 21.9221 61.0966L22.9979 59.2319C23.0697 59.1602 23.1414 59.1602 23.1414 59.1602C23.2131 59.2319 23.2131 59.3036 23.2131 59.3753L22.1373 61.2401C22.0656 61.3118 22.0656 61.3118 21.9938 61.3118Z" fill="#231F20"/>
<path d="M56.5653 25.2362C56.4936 25.2362 56.4936 25.2362 56.4219 25.1644C56.4219 25.0927 56.4219 25.021 56.4936 24.9493L58.2866 23.8735C58.3583 23.8017 58.4301 23.8735 58.4301 23.9452C58.4301 24.0169 58.4301 24.0886 58.3584 24.1603L56.5653 25.2362Z" fill="#231F20"/>
<path d="M12.9598 51.2713C12.8881 51.2713 12.8881 51.2713 12.8164 51.1996C12.8164 51.1279 12.8164 51.0562 12.8881 50.9844L14.6811 49.9086C14.7529 49.8369 14.8246 49.9086 14.8246 49.9803C14.8246 50.0521 14.8246 50.1238 14.7529 50.1955L12.9598 51.2713Z" fill="#231F20"/>
<path d="M57.7867 52.204C57.7867 52.204 57.7149 52.204 57.7867 52.204L55.9936 51.0564C55.9219 50.9847 55.9219 50.913 55.9219 50.8413C55.9936 50.7695 56.0653 50.7695 56.0653 50.7695L57.7867 51.9171C57.8584 51.9888 57.8584 52.0605 57.8584 52.1322C57.8584 52.204 57.8584 52.204 57.7867 52.204Z" fill="#231F20"/>
<path d="M15.2554 24.3055C15.1837 24.3055 15.1837 24.3055 15.2554 24.3055L13.4624 23.158C13.3906 23.0863 13.3906 23.0145 13.3906 22.9428C13.4623 22.8711 13.5341 22.8711 13.5341 22.8711L15.2554 24.0186C15.3271 24.0904 15.3271 24.1621 15.3271 24.2338C15.3271 24.3055 15.2554 24.3055 15.2554 24.3055Z" fill="#231F20"/>
<path d="M48.3194 61.8859C48.2477 61.8859 48.2477 61.8859 48.176 61.8142L47.1719 59.8777C47.1719 59.806 47.1719 59.7342 47.2436 59.6625C47.3153 59.5908 47.3871 59.6625 47.3871 59.7342L48.3911 61.6707C48.4629 61.7424 48.4629 61.8142 48.3194 61.8859C48.3912 61.8859 48.3912 61.8859 48.3194 61.8859Z" fill="#231F20"/>
<path d="M23.9327 15.4835C23.861 15.4835 23.861 15.4835 23.7893 15.4118L22.7852 13.4753C22.7852 13.4036 22.7852 13.3319 22.8569 13.2602C22.9286 13.1885 23.0003 13.2602 23.0003 13.3319L24.0044 15.2684C24.0761 15.3401 24.0761 15.4118 23.9327 15.4835C23.9327 15.4118 23.9327 15.4835 23.9327 15.4835Z" fill="#231F20"/>
<path d="M61.6567 37.8589H58.1424C57.9989 37.8589 57.8555 37.7155 57.8555 37.572C57.8555 37.4286 57.9989 37.2852 58.1424 37.2852H61.6567C61.8001 37.2852 61.9436 37.4286 61.9436 37.572C61.9436 37.7155 61.8001 37.8589 61.6567 37.8589Z" fill="#231F20"/>
<path d="M13.102 37.8589H9.58768C9.44424 37.8589 9.30078 37.7155 9.30078 37.572C9.30078 37.4286 9.44424 37.2852 9.58768 37.2852H13.102C13.2455 37.2852 13.3889 37.4286 13.3889 37.572C13.3889 37.7155 13.2455 37.8589 13.102 37.8589Z" fill="#231F20"/>
<path d="M38.7778 39.9405C38.706 39.9405 38.706 39.9405 38.6343 39.8688L22.1384 28.8954C21.9949 28.8237 21.9949 28.6802 22.0666 28.5368C22.1384 28.3934 22.2818 28.3934 22.4252 28.4651L38.9212 39.4385C39.0646 39.5102 39.0646 39.6536 38.9929 39.7971C38.9212 39.9405 38.8495 39.9405 38.7778 39.9405Z" fill="#231F20"/>
<path d="M31.2268 38.4304C31.1607 38.4028 31.1221 38.3089 31.0836 38.2151C31.0727 38.0551 31.1942 37.9504 31.2881 37.9119L56.2233 34.4185C56.3833 34.4076 56.488 34.5291 56.5265 34.6229C56.5374 34.7829 56.4159 34.8876 56.322 34.9261L31.3868 38.4195C31.293 38.4581 31.293 38.4581 31.2268 38.4304Z" fill="#231F20"/>
</svg>
