<svg width="24" height="24" viewBox="0 0 24 24" fill="none" xmlns="http://www.w3.org/2000/svg">
<g clip-path="url(#clip0_4808_2877)">
<path d="M18 14.46V15.96C18.0006 16.0993 17.9721 16.2371 17.9163 16.3647C17.8605 16.4923 17.7787 16.6068 17.6761 16.701C17.5735 16.7951 17.4523 16.8668 17.3204 16.9114C17.1885 16.956 17.0487 16.9726 16.91 16.96C15.3714 16.7929 13.8935 16.2671 12.595 15.425C11.3869 14.6574 10.3627 13.6331 9.59503 12.425C8.75002 11.1207 8.22415 9.63555 8.06003 8.09005C8.04753 7.95178 8.06397 7.81243 8.10828 7.68086C8.15259 7.54929 8.22381 7.42839 8.31741 7.32586C8.41101 7.22332 8.52493 7.1414 8.65192 7.08531C8.77892 7.02922 8.9162 7.00018 9.05503 7.00005H10.555C10.7977 6.99766 11.0329 7.08359 11.2169 7.24181C11.4009 7.40004 11.5211 7.61977 11.555 7.86005C11.6183 8.34008 11.7358 8.81141 11.905 9.26505C11.9723 9.44401 11.9869 9.63851 11.947 9.82549C11.9071 10.0125 11.8145 10.1841 11.68 10.32L11.045 10.955C11.7568 12.2068 12.7933 13.2433 14.045 13.955L14.68 13.32C14.816 13.1856 14.9876 13.093 15.1746 13.0531C15.3616 13.0132 15.5561 13.0278 15.735 13.095C16.1887 13.2643 16.66 13.3817 17.14 13.445C17.3829 13.4793 17.6047 13.6017 17.7633 13.7888C17.9219 13.9759 18.0061 14.2148 18 14.46Z" stroke="#E7503D" stroke-width="1.5" stroke-linecap="round" stroke-linejoin="round"/>
</g>
<path d="M5.5 6.5L2.5 6.5M5.5 10.5H2.5M5.5 14.5H2.5M5.5 18.5H2.5M6 22H19C20.1046 22 21 21.1046 21 20V4C21 2.89543 20.1046 2 19 2H6C4.89543 2 4 2.89543 4 4V20C4 21.1046 4.89543 22 6 22Z" stroke="#212121" stroke-linecap="round" stroke-linejoin="round"/>
<defs>
<clipPath id="clip0_4808_2877">
<rect width="12" height="12" fill="white" transform="translate(7 6)"/>
</clipPath>
</defs>
</svg>
