<svg width="24" height="29" viewBox="0 0 24 29" fill="none" xmlns="http://www.w3.org/2000/svg">
<path d="M22.7368 28.2552H23.2368V27.7552V1.60091V1.10091H22.7368H1.26316H0.763158V1.60091V27.7552V28.2552H1.26316H22.7368ZM12 8.46978H11.9994C11.3669 8.47048 10.7592 8.71846 10.3098 9.16152C9.8602 9.60482 9.60599 10.2074 9.60526 10.8374V10.8379C9.60526 11.3079 9.74664 11.7667 10.0107 12.1563C10.2747 12.5459 10.6491 12.8484 11.0859 13.0268C11.5226 13.2051 12.0027 13.2517 12.4659 13.1609C12.9291 13.07 13.3555 12.8456 13.6908 12.515C14.0263 12.1842 14.2555 11.762 14.3485 11.3013C14.4414 10.8405 14.3936 10.363 14.2115 9.92936C14.0294 9.49584 13.7214 9.12645 13.3277 8.86708C12.9341 8.60776 12.4721 8.46978 12 8.46978ZM16.3761 20.6787H16.9554L16.8707 20.1056C16.6996 18.9481 16.1122 17.8914 15.2177 17.1277C14.3233 16.3641 13.1814 15.9439 12.0006 15.9424L11.9994 15.9424C10.8186 15.9439 9.67667 16.364 8.78231 17.1276C7.88778 17.8914 7.30036 18.9481 7.12929 20.1056L7.04459 20.6787H7.62392H16.3761ZM1.26316 0.855469H22.7368C22.9415 0.855469 23.1364 0.935697 23.279 1.07629C23.4213 1.21665 23.5 1.40551 23.5 1.60091V27.7552C23.5 27.9506 23.4213 28.1394 23.279 28.2798C23.1364 28.4204 22.9415 28.5006 22.7368 28.5006H1.26316C1.05849 28.5006 0.863612 28.4204 0.721019 28.2798C0.578663 28.1394 0.5 27.9506 0.5 27.7552V1.60091C0.5 1.4055 0.578663 1.21665 0.721018 1.07629C0.863613 0.935697 1.05849 0.855469 1.26316 0.855469ZM13.4794 13.0093C13.0421 13.2974 12.5272 13.4515 12 13.4515C11.2928 13.4515 10.616 13.1745 10.1181 12.6835C9.62039 12.1928 9.3421 11.5288 9.3421 10.8379C9.3421 10.3226 9.49706 9.81824 9.78821 9.38861C10.0794 8.95889 10.4941 8.6229 10.9806 8.42422C11.4671 8.22552 12.0029 8.17342 12.5198 8.27481C13.0368 8.37619 13.5107 8.62626 13.8819 8.99233C14.2531 9.35831 14.5051 9.82375 14.6071 10.3294C14.7091 10.835 14.6568 11.3591 14.4565 11.8358C14.2562 12.3126 13.9166 12.7212 13.4794 13.0093ZM15.6683 17.1945C16.6371 18.1498 17.1813 19.443 17.1842 20.7906C17.1822 20.8351 17.1795 20.8797 17.1763 20.9242H6.82375C6.8205 20.8797 6.81785 20.8351 6.8158 20.7905C6.81873 19.443 7.36286 18.1498 8.33171 17.1945C9.30341 16.2365 10.6228 15.697 12 15.697C13.3772 15.697 14.6966 16.2365 15.6683 17.1945Z" fill="#E7503D" stroke="#E7503D"/>
</svg>
