<svg width="19" height="20" viewBox="0 0 19 20" fill="none" xmlns="http://www.w3.org/2000/svg">
<path d="M15.7505 12.6233C15.5224 12.3952 15.2131 12.2671 14.8905 12.2671C14.568 12.2671 14.2586 12.3952 14.0305 12.6233L13.0429 13.6109C12.914 13.74 12.7454 13.8218 12.5644 13.8431C12.3833 13.8644 12.2003 13.8241 12.045 13.7285C10.6983 12.924 9.44199 11.9769 8.29782 10.9036C7.22451 9.75939 6.2774 8.50304 5.47286 7.15623C5.37736 7.00093 5.33701 6.81796 5.35834 6.6369C5.37966 6.45584 5.46141 6.28726 5.59038 6.15839L6.57805 5.17071C6.69102 5.05779 6.78063 4.92372 6.84177 4.77616C6.9029 4.6286 6.93437 4.47043 6.93437 4.31071C6.93437 4.15098 6.9029 3.99282 6.84177 3.84526C6.78063 3.6977 6.69102 3.56363 6.57805 3.45071L4.28493 1.15783C4.17201 1.04487 4.03794 0.955257 3.89038 0.894119C3.74282 0.832981 3.58466 0.801514 3.42494 0.801514C3.26521 0.801514 3.10705 0.832981 2.95949 0.894119C2.81193 0.955257 2.67786 1.04487 2.56494 1.15783L1.18854 2.53439C0.518556 3.20332 0.104084 4.08582 0.0171266 5.02857C-0.069831 5.97133 0.176221 6.91475 0.712535 7.69495C2.12772 9.83787 3.70543 11.8689 5.43174 13.7701C7.33278 15.4963 9.36364 17.0739 11.5064 18.4889C12.2866 19.0253 13.23 19.2714 14.1728 19.1844C15.1156 19.0975 15.9981 18.6829 16.667 18.0129L18.0437 16.6363C18.1566 16.5234 18.2462 16.3893 18.3074 16.2418C18.3685 16.0942 18.4 15.936 18.4 15.7763C18.4 15.6166 18.3685 15.4584 18.3074 15.3109C18.2462 15.1633 18.1566 15.0292 18.0437 14.9163L15.7505 12.6233ZM17.478 16.0707L16.1013 17.4473C15.5646 17.9851 14.8563 18.3179 14.0997 18.3878C13.343 18.4577 12.5858 18.2602 11.9597 17.8297C9.85786 16.4413 7.8647 14.8951 5.99742 13.2045C4.30663 11.3369 2.76028 9.34358 1.37173 7.24159C0.941643 6.6153 0.744414 5.85818 0.814281 5.10165C0.884147 4.34511 1.2167 3.63692 1.75422 3.09999L3.13086 1.72343C3.16949 1.68479 3.21535 1.65413 3.26583 1.63322C3.31631 1.61231 3.37041 1.60154 3.42506 1.60154C3.4797 1.60154 3.5338 1.61231 3.58428 1.63322C3.63476 1.65413 3.68062 1.68479 3.71926 1.72343L6.01238 4.01639C6.09028 4.09453 6.13402 4.20037 6.13402 4.31071C6.13402 4.42105 6.09028 4.52689 6.01238 4.60503L5.02462 5.59279C4.76804 5.84835 4.60533 6.18308 4.56285 6.54271C4.52038 6.90234 4.60064 7.26577 4.79062 7.57407C5.62769 8.97483 6.614 10.2808 7.73229 11.4692C8.9207 12.5874 10.2267 13.5737 11.6273 14.4108C11.9358 14.6002 12.2992 14.6801 12.6587 14.6376C13.0181 14.5951 13.3528 14.4327 13.6087 14.1766L14.5964 13.1891C14.6745 13.1111 14.7803 13.0673 14.8907 13.0673C15.001 13.0673 15.1069 13.1111 15.1849 13.1891L17.478 15.4823C17.5558 15.5604 17.5995 15.6662 17.5995 15.7765C17.5995 15.8868 17.5558 15.9926 17.478 16.0707Z" fill="#E7503D" stroke="#E7503D" stroke-width="0.25"/>
</svg>
