<svg width="41" height="49" viewBox="0 0 41 49" fill="none" xmlns="http://www.w3.org/2000/svg">
<g opacity="0.5">
<path d="M14.5322 2.13956C14.3251 1.79443 13.9522 1.58325 13.5497 1.58325H2.47218C1.58153 1.58325 1.0314 2.55489 1.48964 3.31861L13.8646 23.9436C14.0717 24.2887 14.4447 24.4999 14.8472 24.4999H25.9247C26.8153 24.4999 27.3654 23.5283 26.9072 22.7646L14.5322 2.13956Z" fill="#C52229"/>
<path fill-rule="evenodd" clip-rule="evenodd" d="M13.5495 0.437378H2.47204C0.690739 0.437378 -0.409519 2.38065 0.506952 3.9081L12.882 24.5331C13.2961 25.2234 14.0421 25.6457 14.847 25.6457H25.9245C27.7058 25.6457 28.8061 23.7024 27.8896 22.175L15.5146 1.54999C15.1005 0.859731 14.3545 0.437378 13.5495 0.437378ZM13.5495 1.58321C13.952 1.58321 14.325 1.79439 14.5321 2.13952L26.9071 22.7645C27.3653 23.5282 26.8152 24.4999 25.9245 24.4999H14.847C14.4446 24.4999 14.0716 24.2887 13.8645 23.9436L1.48949 3.31857C1.03126 2.55485 1.58139 1.58321 2.47204 1.58321H13.5495Z" fill="#9B0F15"/>
<path d="M26.4688 2.13956C26.6758 1.79443 27.0488 1.58325 27.4513 1.58325H38.5288C39.4194 1.58325 39.9696 2.55489 39.5113 3.31861L27.1363 23.9436C26.9293 24.2887 26.5563 24.4999 26.1538 24.4999H15.0763C14.1857 24.4999 13.6355 23.5283 14.0938 22.7646L26.4688 2.13956Z" fill="#F1333B"/>
<path fill-rule="evenodd" clip-rule="evenodd" d="M27.451 0.437378H38.5285C40.3097 0.437378 41.41 2.38065 40.4935 3.9081L28.1185 24.5331C27.7044 25.2234 26.9584 25.6457 26.1534 25.6457H15.076C13.2947 25.6457 12.1944 23.7024 13.1109 22.175L25.4859 1.54999C25.9 0.859731 26.646 0.437378 27.451 0.437378ZM27.451 1.58321C27.0485 1.58321 26.6755 1.79439 26.4684 2.13952L14.0934 22.7645C13.6352 23.5282 14.1853 24.4999 15.076 24.4999H26.1534C26.5559 24.4999 26.9289 24.2887 27.136 23.9436L39.511 3.31857C39.9692 2.55485 39.4191 1.58321 38.5285 1.58321H27.451Z" fill="#9B0F15"/>
<path fill-rule="evenodd" clip-rule="evenodd" d="M27.6629 2.23369C27.9366 2.39257 28.0296 2.74319 27.8707 3.01682L22.7145 11.897C22.5556 12.1707 22.205 12.2637 21.9313 12.1048C21.6577 11.9459 21.5647 11.5953 21.7236 11.3217L26.8798 2.44146C27.0387 2.16783 27.3893 2.0748 27.6629 2.23369Z" fill="#FE666D"/>
<path fill-rule="evenodd" clip-rule="evenodd" d="M2.4523 2.23369C2.17866 2.39257 2.08564 2.74319 2.24452 3.01682L7.40078 11.897C7.55966 12.1707 7.91028 12.2637 8.18391 12.1048C8.45754 11.9459 8.55056 11.5953 8.39168 11.3217L3.23543 2.44146C3.07655 2.16783 2.72593 2.0748 2.4523 2.23369Z" fill="#DF3840"/>
<path d="M13.339 3.46318C13.339 3.86858 13.0184 4.19722 12.6229 4.19722C12.2274 4.19722 11.9067 3.86858 11.9067 3.46318C11.9067 3.05777 12.2274 2.72913 12.6229 2.72913C13.0184 2.72913 13.339 3.05777 13.339 3.46318Z" fill="#AA161D"/>
<path d="M10.8236 3.64221C10.8236 4.1465 10.4248 4.5553 9.93281 4.5553C9.44082 4.5553 9.04199 4.1465 9.04199 3.64221C9.04199 3.13793 9.44082 2.72913 9.93281 2.72913C10.4248 2.72913 10.8236 3.13793 10.8236 3.64221Z" fill="#AA161D"/>
<path d="M13.0526 6.2561C13.0526 6.76039 12.6538 7.16919 12.1618 7.16919C11.6698 7.16919 11.271 6.76039 11.271 6.2561C11.271 5.75182 11.6698 5.34302 12.1618 5.34302C12.6538 5.34302 13.0526 5.75182 13.0526 6.2561Z" fill="#AA161D"/>
<path d="M15.0891 5.01184C15.0891 5.26398 14.8896 5.46838 14.6437 5.46838C14.3977 5.46838 14.1982 5.26398 14.1982 5.01184C14.1982 4.7597 14.3977 4.5553 14.6437 4.5553C14.8896 4.5553 15.0891 4.7597 15.0891 5.01184Z" fill="#AA161D"/>
<path d="M10.3781 5.79956C10.3781 6.0517 10.1787 6.2561 9.93271 6.2561C9.68672 6.2561 9.4873 6.0517 9.4873 5.79956C9.4873 5.54742 9.68672 5.34302 9.93271 5.34302C10.1787 5.34302 10.3781 5.54742 10.3781 5.79956Z" fill="#AA161D"/>
<path d="M7.89619 3.00659C7.89619 3.25873 7.69677 3.46313 7.45078 3.46313C7.20479 3.46313 7.00537 3.25873 7.00537 3.00659C7.00537 2.75445 7.20479 2.55005 7.45078 2.55005C7.69677 2.55005 7.89619 2.75445 7.89619 3.00659Z" fill="#AA161D"/>
<path d="M14.6437 8.19861C14.6437 8.45075 14.4443 8.65515 14.1983 8.65515C13.9523 8.65515 13.7529 8.45075 13.7529 8.19861C13.7529 7.94647 13.9523 7.74207 14.1983 7.74207C14.4443 7.74207 14.6437 7.94647 14.6437 8.19861Z" fill="#AA161D"/>
<path d="M12.3522 8.65515C12.3522 8.90729 12.1528 9.11169 11.9068 9.11169C11.6608 9.11169 11.4614 8.90729 11.4614 8.65515C11.4614 8.40301 11.6608 8.19861 11.9068 8.19861C12.1528 8.19861 12.3522 8.40301 12.3522 8.65515Z" fill="#AA161D"/>
<path d="M16.794 6.9991C16.794 7.40945 16.4695 7.74211 16.0691 7.74211C15.6688 7.74211 15.3442 7.40945 15.3442 6.9991C15.3442 6.58876 15.6688 6.2561 16.0691 6.2561C16.4695 6.2561 16.794 6.58876 16.794 6.9991Z" fill="#AA161D"/>
<path d="M17.739 9.11169C17.739 9.36384 17.5395 9.56824 17.2936 9.56824C17.0476 9.56824 16.8481 9.36384 16.8481 9.11169C16.8481 8.85955 17.0476 8.65515 17.2936 8.65515C17.5395 8.65515 17.739 8.85955 17.739 9.11169Z" fill="#AA161D"/>
<path d="M5.03125 21.6354C5.03125 21.6354 5.49335 31.3554 8.46875 36.5312C11.6266 42.0244 20.5 47.4166 20.5 47.4166C20.5 47.4166 29.3734 42.0244 32.5312 36.5312C35.5067 31.3554 35.9688 21.6354 35.9688 21.6354C35.9688 21.6354 32.2448 19.1964 28.2344 17.9114C24.224 16.6264 20.5 16.4791 20.5 16.4791C20.5 16.4791 16.776 16.6264 12.7656 17.9114C8.75521 19.1964 5.03125 21.6354 5.03125 21.6354Z" fill="#DCA16A"/>
<path fill-rule="evenodd" clip-rule="evenodd" d="M4.40331 20.6768L5.03109 21.6353L3.88655 21.6897C3.86728 21.2844 4.06384 20.8991 4.40331 20.6768ZM20.4998 16.4791C20.4546 15.3341 20.4544 15.3341 20.4542 15.3342L20.4491 15.3344L20.4383 15.3348L20.4006 15.3366C20.3686 15.3382 20.3227 15.3406 20.2638 15.3441C20.1461 15.3511 19.9763 15.3625 19.7613 15.3802C19.3315 15.4156 18.7197 15.4763 17.9801 15.5782C16.5046 15.7816 14.5024 16.1516 12.4158 16.8202C10.3182 17.4923 8.31619 18.4584 6.85161 19.2461C6.11597 19.6418 5.50844 19.9965 5.08319 20.2534C4.87044 20.3819 4.70294 20.4861 4.58745 20.559C4.52969 20.5954 4.48491 20.6241 4.45394 20.644L4.41796 20.6672L4.40793 20.6738L4.40395 20.6764C4.4038 20.6765 4.40331 20.6768 5.03109 21.6353C3.88655 21.6897 3.88654 21.6895 3.88655 21.6897L3.88702 21.6993L3.88822 21.7229C3.88928 21.7432 3.89085 21.7726 3.89301 21.8107C3.89733 21.8868 3.90399 21.9976 3.91348 22.1395C3.93246 22.4234 3.96282 22.8323 4.00862 23.3383C4.10013 24.3492 4.25371 25.7521 4.50235 27.3216C4.99313 30.4196 5.87656 34.3214 7.47521 37.1022C9.17227 40.0543 12.334 42.8897 14.9644 44.9379C16.2972 45.9756 17.5278 46.8372 18.4255 47.4397C18.8748 47.7412 19.2417 47.9784 19.4977 48.1411C19.6256 48.2225 19.7259 48.2852 19.795 48.3281C19.8295 48.3495 19.8562 48.366 19.8746 48.3773L19.8961 48.3905L19.9038 48.3952L19.9044 48.3956C19.9046 48.3957 19.9048 48.3958 20.4998 47.4166L19.9044 48.3956C20.27 48.6177 20.7293 48.618 21.0949 48.3958L20.4998 47.4166C21.0949 48.3958 21.0947 48.3959 21.0949 48.3958L21.0959 48.3952L21.1036 48.3905L21.125 48.3773C21.1435 48.366 21.1702 48.3495 21.2047 48.3281C21.2738 48.2852 21.374 48.2225 21.502 48.1411C21.7579 47.9784 22.1249 47.7412 22.5741 47.4397C23.4719 46.8372 24.7025 45.9756 26.0352 44.9379C28.6657 42.8897 31.8274 40.0543 33.5245 37.1022C35.1231 34.3214 36.0066 30.4196 36.4973 27.3216C36.746 25.7521 36.8995 24.3492 36.9911 23.3383C37.0369 22.8323 37.0672 22.4234 37.0862 22.1395C37.0957 21.9976 37.1023 21.8868 37.1067 21.8107C37.1088 21.7726 37.1104 21.7432 37.1115 21.7229L37.1127 21.6993L37.113 21.6928L37.1131 21.6902C37.1131 21.6899 37.1131 21.6897 35.9686 21.6353L37.1131 21.6902C37.1324 21.2848 36.9358 20.8991 36.5964 20.6768L35.9686 21.6353C36.5964 20.6768 36.5965 20.6769 36.5964 20.6768L36.5957 20.6764L36.5918 20.6738L36.5817 20.6672L36.5457 20.644C36.5148 20.6241 36.47 20.5954 36.4122 20.559C36.2967 20.4861 36.1292 20.3819 35.9165 20.2534C35.4912 19.9965 34.8837 19.6418 34.1481 19.2461C32.6835 18.4584 30.6815 17.4923 28.5839 16.8202C26.4973 16.1516 24.4951 15.7816 23.0196 15.5782C22.28 15.4763 21.6681 15.4156 21.2383 15.3802C21.0233 15.3625 20.8536 15.3511 20.7359 15.3441C20.677 15.3406 20.6311 15.3382 20.599 15.3366L20.5614 15.3348L20.5506 15.3344L20.546 15.3342C20.5458 15.3342 20.5451 15.3341 20.4998 16.4791ZM20.4998 16.4791L20.4542 15.3342C20.4844 15.333 20.5149 15.3329 20.5451 15.3341L20.4998 16.4791ZM20.4998 16.4791C20.4998 16.4791 16.7759 16.6264 12.7655 17.9114C8.75505 19.1964 5.03109 21.6353 5.03109 21.6353C5.03109 21.6353 5.49319 31.3554 8.46859 36.5312C11.6264 42.0243 20.4998 47.4166 20.4998 47.4166C20.4998 47.4166 29.3732 42.0243 32.5311 36.5312C35.5065 31.3554 35.9686 21.6353 35.9686 21.6353C35.9686 21.6353 32.2446 19.1964 28.2342 17.9114C24.2238 16.6264 20.4998 16.4791 20.4998 16.4791Z" fill="#C38144"/>
<path fill-rule="evenodd" clip-rule="evenodd" d="M21.0723 17.6023C21.0848 17.9184 20.8387 18.1848 20.5226 18.1974L20.5213 18.1974L20.5152 18.1977L20.4884 18.199C20.4642 18.2001 20.4273 18.2021 20.3785 18.205C20.281 18.2108 20.1361 18.2205 19.95 18.2358C19.5778 18.2664 19.0412 18.3196 18.3899 18.4094C17.0852 18.5892 15.3292 18.9148 13.5132 19.4967C11.7027 20.0768 9.94658 20.9213 8.63653 21.6259C7.98317 21.9773 7.44447 22.2919 7.06992 22.5182C6.95293 22.5888 6.85203 22.6508 6.76873 22.7026C6.76987 22.7201 6.77107 22.7383 6.77233 22.7571C6.78914 23.0085 6.81627 23.3743 6.85741 23.8287C6.93972 24.7379 7.07788 25.9996 7.30109 27.4086C7.75077 30.2472 8.53446 33.6064 9.85649 35.9061C10.0142 36.1804 9.91964 36.5306 9.64533 36.6883C9.37101 36.846 9.02079 36.7515 8.8631 36.4772C7.43013 33.9845 6.62238 30.4475 6.16937 27.5879C5.94124 26.1479 5.80025 24.86 5.71624 23.932C5.67421 23.4678 5.6464 23.093 5.62905 22.8335C5.62037 22.7038 5.61431 22.6028 5.6104 22.5339C5.60845 22.4995 5.60703 22.473 5.60609 22.4549L5.60503 22.4342L5.60469 22.4271C5.60468 22.427 5.60465 22.4264 6.17692 22.3992C5.86303 21.9199 5.8631 21.9199 5.86319 21.9198L5.86649 21.9177L5.87496 21.9122L5.90658 21.8917C5.93409 21.874 5.97436 21.8483 6.02659 21.8153C6.13104 21.7494 6.28342 21.6546 6.4775 21.5374C6.86551 21.303 7.42092 20.9787 8.09376 20.6168C9.43611 19.8948 11.2607 19.0152 13.1636 18.4055C15.0609 17.7976 16.8856 17.4601 18.2334 17.2743C18.9082 17.1812 19.4658 17.1259 19.8561 17.0938C20.0513 17.0778 20.2048 17.0675 20.3103 17.0612C20.3631 17.058 20.4039 17.0559 20.432 17.0545L20.4645 17.053L20.4733 17.0526L20.4767 17.0525C20.4768 17.0525 20.4772 17.0524 20.4998 17.6249L20.4767 17.0525C20.7929 17.04 21.0598 17.2861 21.0723 17.6023ZM6.17692 22.3992L5.86319 21.9198C5.69345 22.031 5.59502 22.2238 5.60465 22.4264L6.17692 22.3992Z" fill="#F0B57F"/>
<path fill-rule="evenodd" clip-rule="evenodd" d="M34.8499 21.827C35.1659 21.842 35.41 22.1104 35.3949 22.4264L34.8227 22.3992C35.3949 22.4264 35.395 22.4263 35.3949 22.4264L35.3949 22.4272L35.3946 22.4342L35.3935 22.455C35.3926 22.473 35.3911 22.4995 35.3892 22.5339C35.3853 22.6028 35.3792 22.7038 35.3705 22.8335C35.3532 23.093 35.3254 23.4678 35.2834 23.932C35.1993 24.8601 35.0584 26.1479 34.8302 27.5879C34.3772 30.4475 33.5695 33.9845 32.1365 36.4772C30.6155 39.1231 27.7535 41.6999 25.3253 43.5906C24.1024 44.5428 22.9727 45.3338 22.1485 45.8869C21.7362 46.1636 21.3998 46.381 21.1659 46.5298C21.0489 46.6041 20.9575 46.6613 20.895 46.7002C20.8637 46.7196 20.8397 46.7344 20.8232 46.7445L20.8044 46.756L20.7993 46.7591L20.7979 46.76C20.7978 46.76 20.7973 46.7604 20.4998 46.2708L20.7973 46.7604C20.5269 46.9247 20.1745 46.8387 20.0102 46.5683C19.8458 46.2979 19.9318 45.9455 20.2022 45.7812C20.2022 45.7812 20.2022 45.7812 20.2022 45.7812L20.2071 45.7782L20.2236 45.7681C20.2384 45.759 20.2609 45.7451 20.2905 45.7267C20.3498 45.6899 20.4377 45.6349 20.5511 45.5628C20.7779 45.4186 21.1063 45.2063 21.51 44.9354C22.3177 44.3934 23.4247 43.6183 24.6213 42.6865C27.0322 40.8093 29.7402 38.3465 31.1431 35.9061C32.4651 33.6064 33.2488 30.2472 33.6985 27.4087C33.9217 25.9996 34.0599 24.7379 34.1422 23.8287C34.1833 23.3743 34.2105 23.0085 34.2273 22.7571C34.2357 22.6314 34.2415 22.5343 34.2452 22.469C34.2471 22.4364 34.2484 22.4117 34.2492 22.3954L34.2501 22.3773L34.2504 22.373L34.2504 22.3721C34.2654 22.0561 34.5338 21.8119 34.8499 21.827Z" fill="#CF945D"/>
<path d="M9.0415 23.7361C9.0415 23.7361 9.3838 30.9361 11.5878 34.77C13.927 38.839 20.4998 42.8333 20.4998 42.8333C20.4998 42.8333 27.0727 38.839 29.4119 34.77C31.6159 30.9361 31.9582 23.7361 31.9582 23.7361C31.9582 23.7361 29.1997 21.9294 26.229 20.9776C23.2583 20.0257 20.4998 19.9166 20.4998 19.9166C20.4998 19.9166 17.7413 20.0257 14.7707 20.9776C11.8 21.9294 9.0415 23.7361 9.0415 23.7361Z" fill="#F7BA82"/>
<path fill-rule="evenodd" clip-rule="evenodd" d="M8.41356 22.7775L9.04135 23.736L7.8968 23.7904C7.87753 23.3851 8.07409 22.9998 8.41356 22.7775ZM20.4997 19.9166C20.4544 18.7716 20.4542 18.7716 20.454 18.7717L20.4497 18.7718L20.4409 18.7722L20.4116 18.7736C20.3868 18.7748 20.3518 18.7767 20.3072 18.7793C20.2179 18.7846 20.0899 18.7932 19.9283 18.8065C19.6052 18.8331 19.1466 18.8786 18.5926 18.955C17.4885 19.1072 15.9876 19.3843 14.4209 19.8863C12.8431 20.3919 11.3424 21.1166 10.2492 21.7046C9.69919 22.0004 9.24483 22.2657 8.92635 22.4581C8.76697 22.5543 8.64125 22.6326 8.55418 22.6875C8.51064 22.715 8.47674 22.7367 8.4531 22.7519L8.42541 22.7698L8.41748 22.7749L8.41416 22.7771C8.41402 22.7772 8.41356 22.7775 9.04135 23.736C7.8968 23.7904 7.89679 23.7902 7.8968 23.7904L7.89718 23.7982L7.89811 23.8163C7.89892 23.8318 7.90011 23.8541 7.90173 23.8827C7.90499 23.9401 7.90998 24.0231 7.91708 24.1293C7.93128 24.3417 7.95394 24.6469 7.9881 25.0242C8.05633 25.778 8.17082 26.8239 8.35627 27.9946C8.72068 30.2948 9.38131 33.2311 10.5943 35.341C11.882 37.5811 14.2639 39.7109 16.2169 41.2316C17.2109 42.0056 18.1284 42.6479 18.7976 43.097C19.1327 43.3218 19.4065 43.4989 19.5979 43.6206C19.6937 43.6815 19.7689 43.7285 19.8208 43.7608C19.8468 43.777 19.867 43.7894 19.8811 43.7981L19.8976 43.8082L19.9023 43.811L19.9043 43.8122C19.9045 43.8124 19.9046 43.8125 20.4997 42.8332L19.9043 43.8122C20.2699 44.0344 20.7291 44.0346 21.0947 43.8125L20.4997 42.8332C21.0947 43.8125 21.0945 43.8126 21.0947 43.8125L21.0971 43.811L21.1018 43.8082L21.1183 43.7981C21.1323 43.7894 21.1525 43.777 21.1785 43.7608C21.2305 43.7285 21.3057 43.6815 21.4014 43.6206C21.5928 43.4989 21.8667 43.3218 22.2017 43.097C22.871 42.6479 23.7885 42.0056 24.7825 41.2316C26.7354 39.7109 29.1174 37.5811 30.4051 35.341C31.618 33.2311 32.2787 30.2948 32.6431 27.9946C32.8285 26.8239 32.943 25.778 33.0113 25.0242C33.0454 24.6469 33.0681 24.3417 33.0823 24.1293C33.0894 24.0231 33.0944 23.9401 33.0976 23.8827C33.0993 23.8541 33.1004 23.8318 33.1012 23.8163L33.1022 23.7982L33.1025 23.7914C33.1025 23.7912 33.1026 23.7904 31.958 23.736L33.1026 23.7904C33.1218 23.3851 32.9253 22.9998 32.5858 22.7775L31.958 23.736C32.5858 22.7775 32.5859 22.7776 32.5858 22.7775L32.5852 22.7771L32.5843 22.7765L32.5819 22.7749L32.5739 22.7698L32.5463 22.7519C32.5226 22.7367 32.4887 22.715 32.4452 22.6875C32.3581 22.6326 32.2324 22.5543 32.073 22.4581C31.7545 22.2657 31.3002 22.0004 30.7502 21.7046C29.6569 21.1166 28.1562 20.3919 26.5785 19.8863C25.0118 19.3843 23.5109 19.1072 22.4067 18.955C21.8528 18.8786 21.3941 18.8331 21.0711 18.8065C20.9095 18.7932 20.7815 18.7846 20.6922 18.7793C20.6475 18.7767 20.6125 18.7748 20.5878 18.7736L20.5584 18.7722L20.5497 18.7718L20.5458 18.7717C20.5456 18.7717 20.545 18.7716 20.4997 19.9166ZM20.4997 19.9166L20.454 18.7717C20.4842 18.7705 20.5148 18.7704 20.545 18.7716L20.4997 19.9166ZM20.4997 19.9166C20.4997 19.9166 17.7412 20.0257 14.7705 20.9775C11.7998 21.9294 9.04135 23.736 9.04135 23.736C9.04135 23.736 9.38364 30.9361 11.5876 34.77C13.9268 38.839 20.4997 42.8332 20.4997 42.8332C20.4997 42.8332 27.0726 38.839 29.4117 34.77C31.6157 30.9361 31.958 23.736 31.958 23.736C31.958 23.736 29.1995 21.9294 26.2288 20.9775C23.2582 20.0257 20.4997 19.9166 20.4997 19.9166Z" fill="#C28044"/>
<path fill-rule="evenodd" clip-rule="evenodd" d="M30.8395 23.9277C31.1555 23.9427 31.3996 24.2111 31.3845 24.5271L30.8123 24.4999C31.3845 24.5271 31.3845 24.527 31.3845 24.5271L31.3845 24.5277L31.3844 24.5289L31.3842 24.5331L31.3835 24.5484L31.3803 24.606C31.3775 24.6561 31.3731 24.7294 31.3668 24.8233C31.3542 25.0113 31.3341 25.2824 31.3037 25.618C31.243 26.2888 31.1411 27.2197 30.9761 28.2609C30.6495 30.3227 30.0646 32.8943 29.0173 34.716C27.9056 36.6498 25.8234 38.5211 24.0727 39.8843C23.1886 40.5727 22.3719 41.1445 21.7762 41.5442C21.4781 41.7443 21.2349 41.9016 21.0654 42.0093C20.9807 42.0632 20.9144 42.1046 20.8689 42.1329C20.8462 42.147 20.8287 42.1578 20.8166 42.1652L20.8027 42.1737L20.7989 42.176L20.7978 42.1767C20.7977 42.1768 20.7973 42.177 20.4998 41.6874L20.7973 42.177C20.5269 42.3414 20.1745 42.2554 20.0102 41.985C19.8459 41.7146 19.9318 41.3622 20.2022 41.1979C20.2022 41.1979 20.2021 41.1979 20.2022 41.1979L20.2054 41.1959L20.217 41.1888L20.2645 41.1595C20.3067 41.1332 20.3695 41.0939 20.4507 41.0423C20.613 40.9391 20.8483 40.787 21.1377 40.5928C21.717 40.2041 22.5108 39.6483 23.3687 38.9802C25.1021 37.6305 27.0303 35.8733 28.0239 34.145C28.9602 32.5162 29.5211 30.1224 29.8444 28.0816C30.0044 27.0715 30.1035 26.1667 30.1625 25.5147C30.192 25.1889 30.2115 24.9268 30.2235 24.7469C30.2295 24.6569 30.2337 24.5876 30.2363 24.5411L30.2392 24.4889L30.2398 24.4762L30.24 24.4733C30.24 24.4732 30.24 24.4727 30.24 24.4726M30.8395 23.9277C30.5234 23.9126 30.2551 24.1566 30.24 24.4726L30.8395 23.9277Z" fill="#E5A66C"/>
<path fill-rule="evenodd" clip-rule="evenodd" d="M19.046 28.9458L20.5003 26.3791L21.9546 28.9458L24.3785 29.4591L22.4394 31.5124L22.9242 34.0791L20.5003 32.7957L18.0765 34.0791L18.5612 31.5124L16.6221 29.4591L19.046 28.9458ZM17.7977 31.7504L16.1191 29.9729C15.938 29.7812 15.8722 29.5017 15.9478 29.2446C16.0234 28.9876 16.2282 28.7941 16.4814 28.7405L18.5978 28.2923L19.8928 26.0068C20.0196 25.7831 20.2507 25.6458 20.5003 25.6458C20.75 25.6458 20.9811 25.7831 21.1078 26.0068L22.4028 28.2923L24.5192 28.7405C24.7725 28.7941 24.9772 28.9876 25.0528 29.2446C25.1284 29.5017 25.0627 29.7812 24.8816 29.9729L23.203 31.7504L23.6161 33.9377C23.6681 34.2131 23.5645 34.4951 23.3492 34.6642C23.1339 34.8334 22.8447 34.8599 22.6043 34.7326L20.5003 33.6186L18.3964 34.7326C18.1559 34.8599 17.8667 34.8334 17.6514 34.6642C17.4362 34.4951 17.3326 34.2131 17.3846 33.9377L17.7977 31.7504Z" fill="#C38144" fill-opacity="0.5"/>
</g>
</svg>
