<svg width="39" height="38" viewBox="0 0 39 38" fill="none" xmlns="http://www.w3.org/2000/svg">
<path d="M36.2174 1H17.4348C16.8121 1 16.2149 1.24736 15.7746 1.68766C15.3343 2.12797 15.087 2.72514 15.087 3.34783V28.3913C15.088 28.8754 15.2391 29.3473 15.5194 29.7419C15.7997 30.1366 16.1954 30.4347 16.6522 30.5951V32.3043C16.6522 33.1346 16.3224 33.9308 15.7353 34.5179C15.1482 35.105 14.352 35.4348 13.5217 35.4348C12.6915 35.4348 11.8953 35.105 11.3082 34.5179C10.7211 33.9308 10.3913 33.1346 10.3913 32.3043V30.4574H10.3944C10.809 30.4566 11.2063 30.2913 11.4992 29.9978C11.792 29.7044 11.9565 29.3068 11.9565 28.8922V24.4783C11.9565 24.0631 11.7916 23.665 11.4981 23.3715C11.2045 23.0779 10.8064 22.913 10.3913 22.913H8.41083C8.07538 22.9141 7.74852 22.8069 7.47883 22.6074C7.20914 22.4079 7.011 22.1267 6.91386 21.8057C6.27826 19.8811 5.86942 17.8889 5.69565 15.8696C5.86951 13.8501 6.27834 11.8579 6.91386 9.93317C7.01106 9.61214 7.20922 9.33102 7.4789 9.13158C7.74859 8.93213 8.07541 8.825 8.41083 8.82609H10.3913C10.8064 8.82609 11.2045 8.66118 11.4981 8.36765C11.7916 8.07411 11.9565 7.67599 11.9565 7.26087V2.84696C11.9569 2.61954 11.9076 2.39479 11.8121 2.18839C11.7167 1.982 11.5773 1.79893 11.4037 1.65197C11.2302 1.50501 11.0266 1.3977 10.8073 1.33754C10.588 1.27738 10.3582 1.26581 10.134 1.30365L4.6756 2.21351C4.04355 2.31722 3.45873 2.61291 3.00051 3.06043C2.5423 3.50795 2.23288 4.08562 2.11428 4.71504C1.40954 8.39255 1.03661 12.1259 1 15.8702C1.0366 19.614 1.40952 23.3469 2.11428 27.0239C2.23293 27.6533 2.54237 28.2309 3.00058 28.6784C3.45879 29.1259 4.04359 29.4216 4.6756 29.5253L8.82609 30.2171V32.3043C8.82609 33.5497 9.32081 34.7441 10.2014 35.6247C11.082 36.5053 12.2764 37 13.5217 37C14.7671 37 15.9615 36.5053 16.8421 35.6247C17.7227 34.7441 18.2174 33.5497 18.2174 32.3043V30.7391H36.2174C36.8401 30.7391 37.4373 30.4918 37.8776 30.0515C38.3179 29.6112 38.5652 29.014 38.5652 28.3913V3.34783C38.5652 2.72514 38.3179 2.12797 37.8776 1.68766C37.4373 1.24736 36.8401 1 36.2174 1ZM4.93277 27.9812C4.61641 27.9313 4.32335 27.7844 4.094 27.5608C3.86465 27.3373 3.71031 27.0481 3.65226 26.7331C2.96854 23.1515 2.60476 19.5162 2.56522 15.8702C2.6048 12.2235 2.96863 8.5876 3.65242 5.00539C3.71047 4.69042 3.86481 4.40122 4.09416 4.17767C4.32351 3.95413 4.61657 3.80725 4.93292 3.75729L10.3913 2.84758V7.2615H8.41083C7.73812 7.25757 7.08232 7.47215 6.54204 7.87297C6.00175 8.27378 5.6062 8.83917 5.41485 9.4841C4.72634 11.5518 4.29496 13.6964 4.13043 15.8696C4.2949 18.0429 4.72629 20.1877 5.41485 22.2557C5.6062 22.9006 6.00175 23.466 6.54204 23.8668C7.08232 24.2676 7.73812 24.4822 8.41083 24.4783H10.3913V28.8922L4.93277 27.9812ZM37 28.3913C36.9998 28.5988 36.9172 28.7977 36.7705 28.9444C36.6238 29.0911 36.4249 29.1737 36.2174 29.1739H17.4348C17.2273 29.1737 17.0284 29.0911 16.8817 28.9444C16.735 28.7977 16.6524 28.5988 16.6522 28.3913V3.34783C16.6524 3.14034 16.735 2.94143 16.8817 2.79471C17.0284 2.648 17.2273 2.56547 17.4348 2.56522H36.2174C36.4249 2.56547 36.6238 2.648 36.7705 2.79471C36.9172 2.94143 36.9998 3.14034 37 3.34783V28.3913ZM22.913 15.8696C22.913 16.0244 22.8671 16.1757 22.7812 16.3044C22.6952 16.4331 22.5729 16.5334 22.4299 16.5926C22.2869 16.6518 22.1296 16.6673 21.9778 16.6371C21.8259 16.6069 21.6865 16.5324 21.577 16.423C21.4676 16.3135 21.3931 16.1741 21.3629 16.0222C21.3327 15.8704 21.3482 15.7131 21.4074 15.5701C21.4666 15.4271 21.5669 15.3048 21.6956 15.2189C21.8243 15.1329 21.9756 15.087 22.1304 15.087C22.2332 15.087 22.335 15.1072 22.4299 15.1465C22.5249 15.1859 22.6112 15.2435 22.6838 15.3162C22.7565 15.3889 22.8141 15.4751 22.8535 15.5701C22.8928 15.665 22.913 15.7668 22.913 15.8696ZM27.6087 15.8696C27.6087 16.0244 27.5628 16.1757 27.4768 16.3044C27.3908 16.4331 27.2686 16.5334 27.1256 16.5926C26.9826 16.6518 26.8252 16.6673 26.6734 16.6371C26.5216 16.6069 26.3821 16.5324 26.2727 16.423C26.1632 16.3135 26.0887 16.1741 26.0585 16.0222C26.0283 15.8704 26.0438 15.7131 26.1031 15.5701C26.1623 15.4271 26.2626 15.3048 26.3913 15.2189C26.52 15.1329 26.6713 15.087 26.8261 15.087C26.9289 15.087 27.0306 15.1072 27.1256 15.1465C27.2205 15.1859 27.3068 15.2435 27.3795 15.3162C27.4521 15.3889 27.5098 15.4751 27.5491 15.5701C27.5885 15.665 27.6087 15.7668 27.6087 15.8696ZM32.3043 15.8696C32.3043 16.0244 32.2584 16.1757 32.1725 16.3044C32.0865 16.4331 31.9642 16.5334 31.8212 16.5926C31.6782 16.6518 31.5209 16.6673 31.3691 16.6371C31.2172 16.6069 31.0778 16.5324 30.9683 16.423C30.8589 16.3135 30.7844 16.1741 30.7542 16.0222C30.724 15.8704 30.7395 15.7131 30.7987 15.5701C30.8579 15.4271 30.9582 15.3048 31.0869 15.2189C31.2156 15.1329 31.367 15.087 31.5217 15.087C31.6245 15.087 31.7263 15.1072 31.8212 15.1465C31.9162 15.1859 32.0025 15.2435 32.0751 15.3162C32.1478 15.3889 32.2054 15.4751 32.2448 15.5701C32.2841 15.665 32.3043 15.7668 32.3043 15.8696ZM22.913 20.5652C22.913 20.72 22.8671 20.8713 22.7812 21C22.6952 21.1287 22.5729 21.229 22.4299 21.2883C22.2869 21.3475 22.1296 21.363 21.9778 21.3328C21.8259 21.3026 21.6865 21.2281 21.577 21.1186C21.4676 21.0092 21.3931 20.8697 21.3629 20.7179C21.3327 20.5661 21.3482 20.4087 21.4074 20.2657C21.4666 20.1227 21.5669 20.0005 21.6956 19.9145C21.8243 19.8285 21.9756 19.7826 22.1304 19.7826C22.2332 19.7826 22.335 19.8029 22.4299 19.8422C22.5249 19.8815 22.6112 19.9392 22.6838 20.0118C22.7565 20.0845 22.8141 20.1708 22.8535 20.2657C22.8928 20.3607 22.913 20.4624 22.913 20.5652ZM27.6087 20.5652C27.6087 20.72 27.5628 20.8713 27.4768 21C27.3908 21.1287 27.2686 21.229 27.1256 21.2883C26.9826 21.3475 26.8252 21.363 26.6734 21.3328C26.5216 21.3026 26.3821 21.2281 26.2727 21.1186C26.1632 21.0092 26.0887 20.8697 26.0585 20.7179C26.0283 20.5661 26.0438 20.4087 26.1031 20.2657C26.1623 20.1227 26.2626 20.0005 26.3913 19.9145C26.52 19.8285 26.6713 19.7826 26.8261 19.7826C26.9289 19.7826 27.0306 19.8029 27.1256 19.8422C27.2205 19.8815 27.3068 19.9392 27.3795 20.0118C27.4521 20.0845 27.5098 20.1708 27.5491 20.2657C27.5885 20.3607 27.6087 20.4624 27.6087 20.5652ZM32.3043 20.5652C32.3043 20.72 32.2584 20.8713 32.1725 21C32.0865 21.1287 31.9642 21.229 31.8212 21.2883C31.6782 21.3475 31.5209 21.363 31.3691 21.3328C31.2172 21.3026 31.0778 21.2281 30.9683 21.1186C30.8589 21.0092 30.7844 20.8697 30.7542 20.7179C30.724 20.5661 30.7395 20.4087 30.7987 20.2657C30.8579 20.1227 30.9582 20.0005 31.0869 19.9145C31.2156 19.8285 31.367 19.7826 31.5217 19.7826C31.6245 19.7826 31.7263 19.8029 31.8212 19.8422C31.9162 19.8815 32.0025 19.9392 32.0751 20.0118C32.1478 20.0845 32.2054 20.1708 32.2448 20.2657C32.2841 20.3607 32.3043 20.4624 32.3043 20.5652ZM22.913 25.2609C22.913 25.4157 22.8671 25.567 22.7812 25.6957C22.6952 25.8244 22.5729 25.9247 22.4299 25.9839C22.2869 26.0431 22.1296 26.0586 21.9778 26.0284C21.8259 25.9982 21.6865 25.9237 21.577 25.8143C21.4676 25.7048 21.3931 25.5654 21.3629 25.4135C21.3327 25.2617 21.3482 25.1044 21.4074 24.9614C21.4666 24.8184 21.5669 24.6961 21.6956 24.6102C21.8243 24.5242 21.9756 24.4783 22.1304 24.4783C22.2332 24.4783 22.335 24.4985 22.4299 24.5378C22.5249 24.5772 22.6112 24.6348 22.6838 24.7075C22.7565 24.7802 22.8141 24.8664 22.8535 24.9614C22.8928 25.0563 22.913 25.1581 22.913 25.2609ZM27.6087 25.2609C27.6087 25.4157 27.5628 25.567 27.4768 25.6957C27.3908 25.8244 27.2686 25.9247 27.1256 25.9839C26.9826 26.0431 26.8252 26.0586 26.6734 26.0284C26.5216 25.9982 26.3821 25.9237 26.2727 25.8143C26.1632 25.7048 26.0887 25.5654 26.0585 25.4135C26.0283 25.2617 26.0438 25.1044 26.1031 24.9614C26.1623 24.8184 26.2626 24.6961 26.3913 24.6102C26.52 24.5242 26.6713 24.4783 26.8261 24.4783C26.9289 24.4783 27.0306 24.4985 27.1256 24.5378C27.2205 24.5772 27.3068 24.6348 27.3795 24.7075C27.4521 24.7802 27.5098 24.8664 27.5491 24.9614C27.5885 25.0563 27.6087 25.1581 27.6087 25.2609ZM32.3043 25.2609C32.3043 25.4157 32.2584 25.567 32.1725 25.6957C32.0865 25.8244 31.9642 25.9247 31.8212 25.9839C31.6782 26.0431 31.5209 26.0586 31.3691 26.0284C31.2172 25.9982 31.0778 25.9237 30.9683 25.8143C30.8589 25.7048 30.7844 25.5654 30.7542 25.4135C30.724 25.2617 30.7395 25.1044 30.7987 24.9614C30.8579 24.8184 30.9582 24.6961 31.0869 24.6102C31.2156 24.5242 31.367 24.4783 31.5217 24.4783C31.6245 24.4783 31.7263 24.4985 31.8212 24.5378C31.9162 24.5772 32.0025 24.6348 32.0751 24.7075C32.1478 24.7802 32.2054 24.8664 32.2448 24.9614C32.2841 25.0563 32.3043 25.1581 32.3043 25.2609ZM31.5217 5.69565H22.1304C21.5078 5.69565 20.9106 5.94301 20.4703 6.38331C20.03 6.82362 19.7826 7.4208 19.7826 8.04348V9.6087C19.7826 10.2314 20.03 10.8286 20.4703 11.2689C20.9106 11.7092 21.5078 11.9565 22.1304 11.9565H31.5217C32.1444 11.9565 32.7416 11.7092 33.1819 11.2689C33.6222 10.8286 33.8696 10.2314 33.8696 9.6087V8.04348C33.8696 7.4208 33.6222 6.82362 33.1819 6.38331C32.7416 5.94301 32.1444 5.69565 31.5217 5.69565ZM32.3043 9.6087C32.3041 9.81618 32.2216 10.0151 32.0749 10.1618C31.9281 10.3085 31.7292 10.3911 31.5217 10.3913H22.1304C21.923 10.3911 21.724 10.3085 21.5773 10.1618C21.4306 10.0151 21.3481 9.81618 21.3478 9.6087V8.04348C21.3481 7.83599 21.4306 7.63708 21.5773 7.49037C21.724 7.34365 21.923 7.26112 22.1304 7.26087H31.5217C31.7292 7.26112 31.9281 7.34365 32.0749 7.49037C32.2216 7.63708 32.3041 7.83599 32.3043 8.04348V9.6087Z" fill="#E7503D" stroke="white" stroke-width="0.25"/>
</svg>
