<svg width="150" height="236" viewBox="0 0 150 236" fill="none" xmlns="http://www.w3.org/2000/svg">
<path d="M149.109 77.2446V150.329C149.396 171.343 141.148 191.64 126.302 206.558C112.316 220.186 93.5966 227.788 74.0883 227.645H0V0.0723247H74.0883C93.5966 -0.0711183 112.316 7.45964 126.302 21.0867C141.148 35.9331 149.396 56.2302 149.109 77.2446Z" fill="#8EC6E8"/>
<path d="M106.506 34.498C94.8158 19.6517 79.3957 10.1127 62.4694 7.96109L0 0V227.572L62.4694 235.533C78.8219 237.757 95.1744 231.947 106.506 219.97C118.914 206.845 125.728 188.054 125.728 166.179V93.1662C125.943 72.0801 119.201 51.4243 106.506 34.498Z" fill="#B22128"/>
<path d="M106.147 134.908C110.069 134.908 113.248 131.729 113.248 127.807C113.248 123.886 110.069 120.707 106.147 120.707C102.226 120.707 99.0469 123.886 99.0469 127.807C99.0469 131.729 102.226 134.908 106.147 134.908Z" fill="white"/>
<path opacity="0.2" d="M0 86.8535V138.206V192.212L89.7953 96.7511L36.4345 47.9805L0 86.8535Z" fill="#231F20"/>
<path d="M99.9099 70.5728C99.9099 91.3004 84.1312 108.083 64.6229 108.083C45.1864 108.083 29.3359 91.3004 29.3359 70.5728C29.3359 49.8453 45.1147 33.0625 64.6229 33.0625C84.1312 33.0625 99.9099 49.8453 99.9099 70.5728Z" fill="#FAB623"/>
<path d="M93.8841 70.5724C93.8841 87.7856 80.8308 101.7 64.6217 101.7C48.4844 101.7 35.3594 87.7856 35.3594 70.5724C35.3594 53.3593 48.4127 39.4453 64.6217 39.4453C80.7591 39.4453 93.8841 53.3593 93.8841 70.5724Z" fill="#E7503D"/>
<path d="M92.0218 70.5735C92.0218 86.7108 79.7574 99.7641 64.6242 99.7641C49.4909 99.7641 37.2266 86.7108 37.2266 70.5735C37.2266 54.4361 49.4909 41.3828 64.6242 41.3828C79.7574 41.3828 92.0218 54.4361 92.0218 70.5735Z" fill="#F0EFEE"/>
<path d="M65.7716 70.5747C65.7716 71.2202 65.2696 71.794 64.6241 71.794C63.9786 71.794 63.4766 71.2202 63.4766 70.5747C63.4766 69.9292 63.9786 69.3555 64.6241 69.3555C65.2696 69.3555 65.7716 69.9292 65.7716 70.5747Z" fill="#231F20"/>
<path d="M64.6228 46.8331C64.4794 46.8331 64.3359 46.6897 64.3359 46.5462V42.8884C64.3359 42.745 64.4794 42.6016 64.6228 42.6016C64.7663 42.6016 64.9097 42.745 64.9097 42.8884V46.618C64.9097 46.7614 64.7663 46.8331 64.6228 46.8331Z" fill="#231F20"/>
<path d="M64.6228 98.5455C64.4794 98.5455 64.3359 98.402 64.3359 98.2586V94.5291C64.3359 94.3856 64.4794 94.2422 64.6228 94.2422C64.7663 94.2422 64.9097 94.3856 64.9097 94.5291V98.2586C64.9097 98.402 64.7663 98.5455 64.6228 98.5455Z" fill="#231F20"/>
<path d="M77.1735 48.9837C77.0301 48.912 77.0301 48.8402 77.1018 48.7685L78.1776 46.9038C78.2493 46.832 78.321 46.832 78.321 46.832C78.3928 46.9038 78.3928 46.9755 78.3928 47.0472L77.317 48.912C77.2452 48.9837 77.2452 48.9837 77.1735 48.9837Z" fill="#231F20"/>
<path d="M50.9938 94.3118C50.9938 94.3118 50.9221 94.3118 50.9938 94.3118C50.8504 94.2401 50.8504 94.1684 50.9221 94.0966L51.9979 92.2319C52.0697 92.1602 52.1414 92.1602 52.1414 92.1602C52.2131 92.2319 52.2131 92.3036 52.2131 92.3753L51.1373 94.2401C51.0656 94.3118 51.0656 94.3118 50.9938 94.3118Z" fill="#231F20"/>
<path d="M85.5653 58.2362C85.4936 58.2362 85.4936 58.2362 85.4219 58.1644C85.4219 58.0927 85.4219 58.021 85.4936 57.9493L87.2866 56.8735C87.3583 56.8017 87.4301 56.8735 87.4301 56.9452C87.4301 57.0169 87.4301 57.0886 87.3584 57.1603L85.5653 58.2362Z" fill="#231F20"/>
<path d="M41.9559 84.2713C41.8842 84.2713 41.8842 84.2713 41.8125 84.1996C41.8125 84.1279 41.8125 84.0562 41.8842 83.9844L43.6772 82.9086C43.749 82.8369 43.8207 82.9086 43.8207 82.9803C43.8207 83.0521 43.8207 83.1238 43.749 83.1955L41.9559 84.2713Z" fill="#231F20"/>
<path d="M86.7867 85.204C86.7867 85.204 86.7149 85.204 86.7867 85.204L84.9936 84.0564C84.9219 83.9847 84.9219 83.913 84.9219 83.8413C84.9936 83.7695 85.0653 83.7695 85.0653 83.7695L86.7867 84.9171C86.8584 84.9888 86.8584 85.0605 86.8584 85.1322C86.8584 85.204 86.8584 85.204 86.7867 85.204Z" fill="#231F20"/>
<path d="M44.2554 57.3055C44.1837 57.3055 44.1837 57.3055 44.2554 57.3055L42.4624 56.158C42.3906 56.0863 42.3906 56.0145 42.3906 55.9428C42.4623 55.8711 42.5341 55.8711 42.5341 55.8711L44.2554 57.0186C44.3271 57.0904 44.3271 57.1621 44.3271 57.2338C44.3271 57.3055 44.2554 57.3055 44.2554 57.3055Z" fill="#231F20"/>
<path d="M77.3116 94.8859C77.2399 94.8859 77.2399 94.8859 77.1682 94.8142L76.1641 92.8777C76.1641 92.806 76.1641 92.7342 76.2358 92.6625C76.3075 92.5908 76.3793 92.6625 76.3793 92.7342L77.3833 94.6707C77.4551 94.7424 77.4551 94.8142 77.3116 94.8859C77.3834 94.8859 77.3834 94.8859 77.3116 94.8859Z" fill="#231F20"/>
<path d="M52.9288 48.4835C52.8571 48.4835 52.8571 48.4835 52.7853 48.4118L51.7812 46.4753C51.7812 46.4036 51.7813 46.3319 51.853 46.2602C51.9247 46.1885 51.9964 46.2602 51.9964 46.3319L53.0005 48.2684C53.0722 48.3401 53.0722 48.4118 52.9288 48.4835C52.9288 48.4118 52.9288 48.4835 52.9288 48.4835Z" fill="#231F20"/>
<path d="M90.6528 70.8589H87.1385C86.995 70.8589 86.8516 70.7155 86.8516 70.572C86.8516 70.4286 86.995 70.2852 87.1385 70.2852H90.6528C90.7962 70.2852 90.9397 70.4286 90.9397 70.572C90.9397 70.7155 90.7962 70.8589 90.6528 70.8589Z" fill="#231F20"/>
<path d="M42.0981 70.8589H38.5838C38.4403 70.8589 38.2969 70.7155 38.2969 70.572C38.2969 70.4286 38.4403 70.2852 38.5838 70.2852H42.0981C42.2416 70.2852 42.385 70.4286 42.385 70.572C42.385 70.7155 42.2416 70.8589 42.0981 70.8589Z" fill="#231F20"/>
<path d="M67.7739 72.9405C67.7021 72.9405 67.7021 72.9405 67.6304 72.8688L51.1345 61.8954C50.991 61.8237 50.991 61.6802 51.0627 61.5368C51.1345 61.3934 51.2779 61.3934 51.4213 61.4651L67.9173 72.4385C68.0607 72.5102 68.0607 72.6536 67.989 72.7971C67.9173 72.9405 67.8456 72.9405 67.7739 72.9405Z" fill="#231F20"/>
<path d="M60.2268 71.4304C60.1607 71.4028 60.1221 71.3089 60.0836 71.2151C60.0727 71.0551 60.1942 70.9504 60.2881 70.9119L85.2233 67.4185C85.3833 67.4076 85.488 67.5291 85.5265 67.6229C85.5374 67.7829 85.4159 67.8876 85.322 67.9261L60.3868 71.4195C60.293 71.4581 60.293 71.4581 60.2268 71.4304Z" fill="#231F20"/>
</svg>
