<svg width="31" height="35" viewBox="0 0 31 35" fill="none" xmlns="http://www.w3.org/2000/svg">
<path d="M8.00781 16.0164C8.00781 20.3405 11.5131 23.8458 15.8372 23.8458C20.1613 23.8458 23.6666 20.3405 23.6666 16.0164C23.6666 11.6923 20.1613 8.18701 15.8372 8.18701C11.5152 8.19176 8.01282 11.6944 8.00781 16.0164ZM15.8372 9.26686C19.565 9.26686 22.5868 12.2886 22.5868 16.0164C22.5868 19.7442 19.565 22.766 15.8372 22.766C12.1094 22.766 9.08766 19.7442 9.08766 16.0164C9.09188 12.2905 12.1113 9.27107 15.8372 9.26686Z" fill="url(#paint0_diamond_4521_14215)" stroke="url(#paint1_diamond_4521_14215)" stroke-width="0.5"/>
<path d="M26.3283 25.1771L22.0988 27.1754C21.5149 26.0893 20.3947 25.398 19.162 25.3632L15.2575 25.2559C14.6393 25.2382 14.0327 25.0816 13.483 24.7977L13.0857 24.5918C11.0515 23.5315 8.62688 23.5341 6.59479 24.5987L6.61957 23.6986C6.62774 23.4004 6.39284 23.1521 6.09467 23.1439L1.81325 23.0261C1.51508 23.0179 1.267 23.2528 1.25883 23.551L1.00021 32.9464C0.992034 33.2445 1.22693 33.4929 1.5251 33.5011L5.80652 33.6189H5.82128C6.11392 33.6189 6.3533 33.3861 6.36121 33.0937L6.3736 32.6442L7.48587 32.0487C7.92245 31.8138 8.43284 31.7579 8.90976 31.8929L15.5518 33.757C15.5634 33.7605 15.575 33.7631 15.5868 33.7657C16.0669 33.8662 16.5562 33.9165 17.0466 33.9163C18.0853 33.9168 19.1119 33.693 20.0559 33.2596C20.0791 33.249 20.1015 33.2366 20.1229 33.2227L29.7532 26.9935C29.9931 26.8382 30.0706 26.5232 29.9301 26.2743C29.2151 25.0057 27.6294 24.5225 26.3283 25.1771ZM2.09455 32.4365L2.32339 24.1204L5.52522 24.2085L5.29639 32.5248L2.09455 32.4365ZM19.5695 32.2952C18.3966 32.8246 17.0866 32.9706 15.8259 32.7131L9.20186 30.8536C8.45631 30.643 7.65829 30.7303 6.97626 31.097L6.40787 31.4015L6.55999 25.8723C8.36113 24.6743 10.6711 24.5512 12.5893 25.5506L12.9866 25.7565C13.681 26.1151 14.4469 26.3128 15.228 26.3355L19.1327 26.4428C20.2294 26.4744 21.1608 27.2553 21.3833 28.3299L15.5673 28.1693C15.2691 28.1612 15.0211 28.3963 15.0126 28.6942C15.0044 28.9924 15.2396 29.2407 15.5375 29.2489L21.9559 29.4255H21.971C22.2633 29.4253 22.5025 29.1925 22.5104 28.9004C22.517 28.6657 22.4996 28.4308 22.4582 28.1999L26.7963 26.1501C26.8005 26.1483 26.8047 26.1462 26.8089 26.1441C27.4242 25.8327 28.1682 25.9369 28.6744 26.4053L19.5695 32.2952Z" fill="url(#paint2_diamond_4521_14215)" stroke="url(#paint3_diamond_4521_14215)" stroke-width="0.5"/>
<path d="M16.3767 6.66919V1.53992C16.3767 1.24175 16.135 1 15.8368 1C15.5386 1 15.2969 1.24175 15.2969 1.53992V6.66919C15.2969 6.96736 15.5386 7.20911 15.8368 7.20911C16.135 7.20911 16.3767 6.96736 16.3767 6.66919Z" fill="url(#paint4_diamond_4521_14215)" stroke="url(#paint5_diamond_4521_14215)"/>
<path d="M20.4265 6.66928V4.23963C20.4265 3.94146 20.1848 3.69971 19.8866 3.69971C19.5884 3.69971 19.3467 3.94146 19.3467 4.23963V6.66928C19.3467 6.96745 19.5884 7.2092 19.8866 7.2092C20.1848 7.2092 20.4265 6.96745 20.4265 6.66928Z" fill="url(#paint6_diamond_4521_14215)" stroke="url(#paint7_diamond_4521_14215)"/>
<path d="M12.3279 6.66928V4.23963C12.3279 3.94146 12.0861 3.69971 11.788 3.69971C11.4898 3.69971 11.248 3.94146 11.248 4.23963V6.66928C11.248 6.96745 11.4898 7.2092 11.788 7.2092C12.0861 7.2092 12.3279 6.96745 12.3279 6.66928Z" fill="url(#paint8_diamond_4521_14215)" stroke="url(#paint9_diamond_4521_14215)"/>
<path fill-rule="evenodd" clip-rule="evenodd" d="M15.3677 12.8924H13.3905C13.1723 12.8924 12.9951 12.7087 12.9951 12.4824C12.9951 12.256 13.1723 12.0723 13.3905 12.0723H18.1357C18.354 12.0723 18.5311 12.256 18.5311 12.4824C18.5311 12.7087 18.354 12.8924 18.1357 12.8924H16.9494C17.1222 13.1307 17.246 13.4096 17.3053 13.7126H18.1357C18.354 13.7126 18.5311 13.8963 18.5311 14.1227C18.5311 14.3491 18.354 14.5328 18.1357 14.5328H17.3053C17.1222 15.4686 16.3242 16.1731 15.3677 16.1731H15.136L17.6244 18.7538C17.7786 18.9138 17.7786 19.1737 17.6244 19.3337C17.4702 19.4936 17.2195 19.4936 17.0653 19.3337L13.9018 16.053C13.7887 15.9357 13.7547 15.7594 13.816 15.606C13.8773 15.453 14.0217 15.353 14.1814 15.353H15.3677C15.8841 15.353 16.3238 15.0105 16.4864 14.5328H13.3905C13.1723 14.5328 12.9951 14.3491 12.9951 14.1227C12.9951 13.8963 13.1723 13.7126 13.3905 13.7126H16.4864C16.3238 13.2349 15.8841 12.8924 15.3677 12.8924Z" fill="url(#paint10_diamond_4521_14215)" stroke="url(#paint11_diamond_4521_14215)" stroke-width="0.5"/>
<defs>
<radialGradient id="paint0_diamond_4521_14215" cx="0" cy="0" r="1" gradientUnits="userSpaceOnUse" gradientTransform="translate(23.6666 9.05497) rotate(135.392) scale(23.1612 54.964)">
<stop stop-color="#E7503D"/>
<stop offset="1" stop-color="#FFB71B"/>
</radialGradient>
<radialGradient id="paint1_diamond_4521_14215" cx="0" cy="0" r="1" gradientUnits="userSpaceOnUse" gradientTransform="translate(23.6666 9.05497) rotate(135.392) scale(23.1612 54.964)">
<stop stop-color="#E7503D"/>
<stop offset="1" stop-color="#FFB71B"/>
</radialGradient>
<radialGradient id="paint2_diamond_4521_14215" cx="0" cy="0" r="1" gradientUnits="userSpaceOnUse" gradientTransform="translate(30 23.6295) rotate(159.674) scale(32.5653 50.351)">
<stop stop-color="#E7503D"/>
<stop offset="1" stop-color="#FFB71B"/>
</radialGradient>
<radialGradient id="paint3_diamond_4521_14215" cx="0" cy="0" r="1" gradientUnits="userSpaceOnUse" gradientTransform="translate(30 23.6295) rotate(159.674) scale(32.5653 50.351)">
<stop stop-color="#E7503D"/>
<stop offset="1" stop-color="#FFB71B"/>
</radialGradient>
<radialGradient id="paint4_diamond_4521_14215" cx="0" cy="0" r="1" gradientUnits="userSpaceOnUse" gradientTransform="translate(16.3767 1.34417) rotate(99.9989) scale(6.549 5.31542)">
<stop stop-color="#E7503D"/>
<stop offset="1" stop-color="#FFB71B"/>
</radialGradient>
<radialGradient id="paint5_diamond_4521_14215" cx="0" cy="0" r="1" gradientUnits="userSpaceOnUse" gradientTransform="translate(16.3767 1.34417) rotate(99.9989) scale(6.549 5.31542)">
<stop stop-color="#E7503D"/>
<stop offset="1" stop-color="#FFB71B"/>
</radialGradient>
<radialGradient id="paint6_diamond_4521_14215" cx="0" cy="0" r="1" gradientUnits="userSpaceOnUse" gradientTransform="translate(20.4265 3.89424) rotate(107.324) scale(3.81861 5.15255)">
<stop stop-color="#E7503D"/>
<stop offset="1" stop-color="#FFB71B"/>
</radialGradient>
<radialGradient id="paint7_diamond_4521_14215" cx="0" cy="0" r="1" gradientUnits="userSpaceOnUse" gradientTransform="translate(20.4265 3.89424) rotate(107.324) scale(3.81861 5.15255)">
<stop stop-color="#E7503D"/>
<stop offset="1" stop-color="#FFB71B"/>
</radialGradient>
<radialGradient id="paint8_diamond_4521_14215" cx="0" cy="0" r="1" gradientUnits="userSpaceOnUse" gradientTransform="translate(12.3279 3.89424) rotate(107.324) scale(3.81861 5.15255)">
<stop stop-color="#E7503D"/>
<stop offset="1" stop-color="#FFB71B"/>
</radialGradient>
<radialGradient id="paint9_diamond_4521_14215" cx="0" cy="0" r="1" gradientUnits="userSpaceOnUse" gradientTransform="translate(12.3279 3.89424) rotate(107.324) scale(3.81861 5.15255)">
<stop stop-color="#E7503D"/>
<stop offset="1" stop-color="#FFB71B"/>
</radialGradient>
<radialGradient id="paint10_diamond_4521_14215" cx="0" cy="0" r="1" gradientUnits="userSpaceOnUse" gradientTransform="translate(18.5311 12.4814) rotate(127.247) scale(9.63166 22.027)">
<stop stop-color="#E7503D"/>
<stop offset="1" stop-color="#FFB71B"/>
</radialGradient>
<radialGradient id="paint11_diamond_4521_14215" cx="0" cy="0" r="1" gradientUnits="userSpaceOnUse" gradientTransform="translate(18.5311 12.4814) rotate(127.247) scale(9.63166 22.027)">
<stop stop-color="#E7503D"/>
<stop offset="1" stop-color="#FFB71B"/>
</radialGradient>
</defs>
</svg>
