<svg width="37" height="45" viewBox="0 0 37 45" fill="none" xmlns="http://www.w3.org/2000/svg">
<path d="M32.0968 37.3388L28.0177 33.2596C27.612 32.8539 27.0617 32.626 26.4879 32.626C25.9142 32.626 25.3639 32.8539 24.9581 33.2596L23.2012 35.0165C22.972 35.246 22.6721 35.3915 22.35 35.4294C22.0279 35.4674 21.7024 35.3956 21.4262 35.2257C19.0306 33.7944 16.7958 32.1097 14.7605 30.2005C12.8513 28.1652 11.1665 25.9304 9.73532 23.5347C9.56538 23.2584 9.49359 22.9329 9.53155 22.6108C9.56951 22.2886 9.71501 21.9887 9.94452 21.7595L11.7014 20.0026C11.9024 19.8017 12.0618 19.5632 12.1705 19.3007C12.2793 19.0383 12.3353 18.7569 12.3353 18.4728C12.3353 18.1887 12.2793 17.9073 12.1705 17.6448C12.0618 17.3823 11.9024 17.1439 11.7014 16.943L7.62234 12.8643C7.42147 12.6634 7.18298 12.504 6.92049 12.3952C6.658 12.2864 6.37666 12.2305 6.09253 12.2305C5.80841 12.2305 5.52706 12.2864 5.26458 12.3952C5.00209 12.504 4.7636 12.6634 4.56272 12.8643L2.11418 15.313C0.922386 16.5029 0.185113 18.0728 0.0304547 19.7498C-0.124204 21.4268 0.313525 23.105 1.26759 24.4928C3.78494 28.3048 6.59144 31.9177 9.66232 35.2997C13.0439 38.3702 16.6565 41.1765 20.468 43.6936C21.8558 44.6477 23.5341 45.0855 25.2112 44.9309C26.8883 44.7762 28.4582 44.0388 29.648 42.8468L32.0968 40.3981C32.2977 40.1973 32.4571 39.9588 32.5658 39.6963C32.6746 39.4339 32.7305 39.1526 32.7305 38.8685C32.7305 38.5844 32.6746 38.3031 32.5658 38.0406C32.4571 37.7781 32.2977 37.5397 32.0968 37.3388V37.3388ZM31.0906 39.3922L28.6418 41.8409C27.687 42.7976 26.4271 43.3896 25.0812 43.5139C23.7352 43.6382 22.3883 43.2869 21.2745 42.5211C17.5357 40.0514 13.9902 37.301 10.6686 34.2936C7.66093 30.9714 4.91017 27.4255 2.44006 23.6864C1.675 22.5723 1.32416 21.2255 1.44844 19.8797C1.57272 18.534 2.16428 17.2742 3.12044 16.3191L5.56941 13.8704C5.63813 13.8017 5.71971 13.7471 5.80951 13.7099C5.8993 13.6727 5.99555 13.6536 6.09275 13.6536C6.18994 13.6536 6.28619 13.6727 6.37598 13.7099C6.46578 13.7471 6.54736 13.8017 6.61608 13.8704L10.695 17.9494C10.8337 18.0883 10.9116 18.2766 10.9116 18.4729C10.9116 18.6692 10.8337 18.8575 10.695 18.9965L8.93812 20.7534C8.48169 21.208 8.19223 21.8034 8.11667 22.4432C8.04112 23.0829 8.1839 23.7294 8.52187 24.2778C10.0108 26.7695 11.7653 29.0927 13.7545 31.2066C15.8686 33.1957 18.1917 34.9502 20.6833 36.4393C21.2321 36.7761 21.8784 36.9182 22.5178 36.8427C23.1573 36.7671 23.7526 36.4782 24.2077 36.0227L25.9647 34.2661C26.1036 34.1274 26.2918 34.0494 26.4881 34.0494C26.6845 34.0494 26.8727 34.1274 27.0116 34.2661L31.0906 38.3453C31.229 38.4843 31.3068 38.6725 31.3068 38.8687C31.3068 39.0649 31.229 39.253 31.0906 39.392V39.3922Z" fill="#E7503D"/>
<path d="M29.8815 12.3765C31.0224 11.7651 31.9413 10.8053 32.502 9.63394C33.098 8.38896 33.2542 6.97864 32.945 5.63343C32.6357 4.28822 31.8794 3.08765 30.7996 2.22789C29.7198 1.36813 28.3803 0.9 27 0.9C25.6197 0.9 24.2802 1.36813 23.2004 2.22789C22.1206 3.08765 21.3643 4.28822 21.055 5.63343C20.7458 6.97864 20.902 8.38896 21.498 9.63394C22.0587 10.8053 22.9776 11.7651 24.1185 12.3765C22.3503 12.9689 20.8044 14.0902 19.6917 15.5915C18.5306 17.1582 17.9026 19.056 17.9 21.006V21.0061V22.5061C17.9 22.6653 17.9632 22.8179 18.0757 22.9304C18.1883 23.0429 18.3409 23.1061 18.5 23.1061C18.6591 23.1061 18.8117 23.0429 18.9243 22.9304C19.0368 22.8179 19.1 22.6653 19.1 22.5061V21.0061C19.1 18.9109 19.9323 16.9015 21.4139 15.42C22.8954 13.9385 24.9048 13.1061 27 13.1061C29.0952 13.1061 31.1046 13.9385 32.5861 15.42C34.0677 16.9015 34.9 18.9109 34.9 21.0061V22.5061C34.9 22.6653 34.9632 22.8179 35.0757 22.9304C35.1883 23.0429 35.3409 23.1061 35.5 23.1061C35.6591 23.1061 35.8117 23.0429 35.9243 22.9304C36.0368 22.8179 36.1 22.6653 36.1 22.5061V21.0061V21.006C36.0974 19.056 35.4694 17.1582 34.3083 15.5915C33.1956 14.0902 31.6497 12.9689 29.8815 12.3765ZM22.1 7.00603C22.1 6.03694 22.3874 5.08962 22.9258 4.28385C23.4642 3.47805 24.2295 2.85 25.1249 2.47913C26.0202 2.10826 27.0054 2.01122 27.9559 2.20029C28.9064 2.38936 29.7795 2.85604 30.4648 3.54132C31.1501 4.22659 31.6168 5.09969 31.8058 6.0502C31.9949 7.0007 31.8979 7.98593 31.527 8.88129C31.1561 9.77665 30.5281 10.5419 29.7223 11.0803C28.9165 11.6187 27.9692 11.9061 27.0001 11.9061C25.701 11.9047 24.4554 11.388 23.5368 10.4693C22.6182 9.55069 22.1015 8.30517 22.1 7.00603Z" fill="#E7503D" stroke="#E7503D" stroke-width="0.2"/>
</svg>
