<svg width="36" height="36" viewBox="0 0 36 36" fill="none" xmlns="http://www.w3.org/2000/svg">
<path d="M16.5603 30.24C16.7513 30.24 16.9344 30.3159 17.0694 30.4509C17.2045 30.5859 17.2803 30.769 17.2803 30.96C17.2803 31.151 17.2045 31.3341 17.0694 31.4691C16.9344 31.6041 16.7513 31.68 16.5603 31.68H13.6803C13.4894 31.68 13.3062 31.6041 13.1712 31.4691C13.0362 31.3341 12.9603 31.151 12.9603 30.96C12.9603 30.769 13.0362 30.5859 13.1712 30.4509C13.3062 30.3159 13.4894 30.24 13.6803 30.24H16.5603ZM36.0003 9.36V20.88C36.0003 21.4529 35.7727 22.0023 35.3677 22.4074C34.9626 22.8124 34.4132 23.04 33.8403 23.04H25.9203V33.84C25.9203 34.4129 25.6927 34.9623 25.2877 35.3674C24.8826 35.7724 24.3332 36 23.7603 36H6.48031C5.90744 36 5.35804 35.7724 4.95296 35.3674C4.54788 34.9623 4.32031 34.4129 4.32031 33.84V2.16C4.32031 1.58713 4.54788 1.03773 4.95296 0.632649C5.35804 0.227571 5.90744 0 6.48031 0L23.7603 0C24.3332 0 24.8826 0.227571 25.2877 0.632649C25.6927 1.03773 25.9203 1.58713 25.9203 2.16V7.2H33.8403C34.4132 7.2 34.9626 7.42757 35.3677 7.83265C35.7727 8.23773 36.0003 8.78713 36.0003 9.36ZM24.4803 23.04H16.5603C15.9874 23.04 15.438 22.8124 15.033 22.4074C14.6279 22.0023 14.4003 21.4529 14.4003 20.88V9.36C14.4003 8.78713 14.6279 8.23773 15.033 7.83265C15.438 7.42757 15.9874 7.2 16.5603 7.2H24.4803V2.16C24.4801 1.96911 24.4042 1.78611 24.2692 1.65114C24.1342 1.51616 23.9512 1.44023 23.7603 1.44H6.48031C6.28943 1.44023 6.10643 1.51616 5.97145 1.65114C5.83647 1.78611 5.76054 1.96911 5.76031 2.16V33.84C5.76054 34.0309 5.83647 34.2139 5.97145 34.3489C6.10643 34.4838 6.28943 34.5598 6.48031 34.56H23.7603C23.9512 34.5598 24.1342 34.4838 24.2692 34.3489C24.4042 34.2139 24.4801 34.0309 24.4803 33.84V23.04ZM34.5603 9.36C34.5601 9.16912 34.4842 8.98611 34.3492 8.85114C34.2142 8.71616 34.0312 8.64023 33.8403 8.64H16.5603C16.3694 8.64023 16.1864 8.71616 16.0514 8.85114C15.9165 8.98611 15.8405 9.16912 15.8403 9.36V20.88C15.8405 21.0709 15.9165 21.2539 16.0514 21.3889C16.1864 21.5238 16.3694 21.5998 16.5603 21.6H33.8403C34.0312 21.5998 34.2142 21.5238 34.3492 21.3889C34.4842 21.2539 34.5601 21.0709 34.5603 20.88V9.36Z" fill="#E7503D"/>
<path d="M27.4917 12.6792H27.1265C27.0521 12.4573 26.9479 12.2475 26.8168 12.0558H27.4917C27.6265 12.0558 27.7558 12.0004 27.8511 11.9016C27.9465 11.8029 28 11.669 28 11.5293C28 11.3897 27.9465 11.2558 27.8511 11.157C27.7558 11.0583 27.6265 11.0028 27.4917 11.0028H24.908C24.8894 11.0028 24.8714 11 24.8525 11H23.5083C23.3735 11 23.2442 11.0555 23.1489 11.1542C23.0535 11.253 23 11.3869 23 11.5265C23 11.6662 23.0535 11.8001 23.1489 11.8988C23.2442 11.9976 23.3735 12.053 23.5083 12.053H24.8525C25.0783 12.053 25.3007 12.1101 25.5004 12.2192C25.7002 12.3283 25.8712 12.4862 25.9988 12.6792H23.5293C23.3945 12.6792 23.2652 12.7347 23.1699 12.8334C23.0746 12.9322 23.021 13.0661 23.021 13.2057C23.021 13.3454 23.0746 13.4793 23.1699 13.578C23.2652 13.6768 23.3945 13.7323 23.5293 13.7323H26.2214C26.1675 14.0683 26.0004 14.3736 25.7498 14.5942C25.4992 14.8147 25.1813 14.9361 24.8525 14.9369H23.5083C23.4089 14.937 23.3117 14.9672 23.2288 15.0238C23.1458 15.0804 23.0807 15.161 23.0415 15.2556C23.0023 15.3501 22.9906 15.4545 23.0081 15.5558C23.0255 15.6572 23.0712 15.751 23.1396 15.8257L25.8876 18.8268C25.9331 18.8788 25.9881 18.9209 26.0495 18.9506C26.1109 18.9803 26.1774 18.9969 26.2451 18.9996C26.3128 19.0023 26.3804 18.9909 26.4437 18.9662C26.5071 18.9414 26.5651 18.9038 26.6143 18.8555C26.6634 18.8072 26.7028 18.7492 26.73 18.6849C26.7572 18.6207 26.7717 18.5514 26.7727 18.4812C26.7737 18.4111 26.7611 18.3414 26.7358 18.2763C26.7104 18.2112 26.6727 18.1521 26.625 18.1023L24.6908 15.9899H24.8525C25.4513 15.9892 26.0285 15.7576 26.4716 15.3403C26.9148 14.9229 27.1922 14.3497 27.2498 13.7323H27.4917C27.6265 13.7323 27.7558 13.6768 27.8511 13.578C27.9465 13.4793 28 13.3454 28 13.2057C28 13.0661 27.9465 12.9322 27.8511 12.8334C27.7558 12.7347 27.6265 12.6792 27.4917 12.6792Z" fill="#E7503D"/>
</svg>
