<svg width="120" height="127" viewBox="0 0 120 127" fill="none" xmlns="http://www.w3.org/2000/svg">
<path d="M105.698 102.916C103.261 105.493 100.956 107.155 99.1346 108.468C77.7244 123.902 52.3906 119.403 47.0067 118.304C39.0559 116.682 23.6874 113.546 12.5762 100.418C-4.23427 80.5577 -1.61654 49.2679 11.4226 28.613C13.8074 24.8349 26.4062 3.86497 52.0131 0.502136C67.5099 -1.53288 85.5742 2.57187 98.656 13.5827C126.116 36.6956 124.161 83.3882 105.698 102.916V102.916Z" fill="#E1E2C4"/>
<path d="M116.184 1.58502C117.45 14.2113 121.835 87.9917 53.6609 104.561C53.6609 104.561 38.3287 56.7353 114.492 0.822963C115.158 0.333925 116.101 0.759958 116.184 1.58502Z" fill="#E1E2C4"/>
<path opacity="0.86" d="M109.635 12.5179C108.438 16.3912 107.162 20.2357 105.853 24.0705C104.542 27.9039 103.187 31.7223 101.788 35.5245C100.389 39.3266 98.9454 43.1125 97.457 46.8808C95.9672 50.6486 94.4195 54.3934 92.8248 58.1179C89.6222 65.5606 86.202 72.9159 82.3876 80.0698C80.4917 83.6525 78.4661 87.1674 76.3083 90.6014C74.1458 94.0315 71.845 97.3819 69.2849 100.539C69.1727 100.677 68.97 100.698 68.8327 100.585C68.6949 100.472 68.6744 100.269 68.7866 100.131L68.7875 100.13L68.7883 100.128C71.3378 97.0095 73.6394 93.6861 75.8049 90.28C77.9661 86.8696 79.999 83.3734 81.9034 79.8074C85.7352 72.6866 89.1785 65.3562 92.4054 57.9345C94.012 54.2202 95.5726 50.4853 97.0756 46.7269C98.5768 42.9676 100.034 39.1903 101.446 35.3963C102.859 31.6023 104.227 27.7916 105.552 23.9655C106.875 20.1389 108.165 16.2994 109.375 12.4373V12.436C109.398 12.364 109.475 12.3237 109.546 12.3464C109.618 12.3691 109.658 12.4454 109.636 12.5174L109.635 12.5179Z" fill="white"/>
<path d="M117.339 62.1931C117.408 61.6175 116.662 61.3311 116.333 61.8073C113.157 66.4144 104.451 78.2323 95.646 83.0524C81.3086 90.901 67.9973 107.101 71.3518 119.045C71.3518 119.045 109.814 124.897 117.339 62.1926V62.1931Z" fill="#E1E2C4"/>
<path opacity="0.43" d="M115.463 70.7759C115.383 70.9237 115.299 71.048 115.217 71.1813L114.967 71.5722L114.457 72.3476C114.114 72.8623 113.766 73.3736 113.416 73.8837C112.714 74.902 111.999 75.9114 111.275 76.9143C109.825 78.9181 108.322 80.8836 106.79 82.8252C105.259 84.7681 103.678 86.6715 102.059 88.5411L101.453 89.2431L100.838 89.9375C100.426 90.3987 100.023 90.8671 99.6028 91.321L98.3528 92.6917L97.0824 94.0435C93.6763 97.6301 90.0816 101.042 86.2599 104.183C86.1405 104.281 86.0227 104.381 85.902 104.478L85.5377 104.765L84.809 105.338L84.0804 105.912C83.8351 106.1 83.5851 106.281 83.3372 106.467L82.5927 107.02C82.3432 107.202 82.1004 107.393 81.844 107.566L80.3227 108.626C78.2681 110 76.153 111.285 73.9576 112.418C73.9286 112.433 73.8927 112.421 73.8778 112.392C73.8629 112.363 73.874 112.328 73.9021 112.312H73.903C76.0664 111.13 78.1585 109.825 80.1845 108.422L81.6904 107.35C81.9439 107.176 82.1845 106.982 82.4315 106.798L83.1678 106.239C83.4127 106.053 83.6601 105.869 83.9029 105.679L84.6234 105.1L85.344 104.522L85.7045 104.232C85.8239 104.135 85.9404 104.034 86.0582 103.935L87.472 102.743C87.9408 102.343 88.3986 101.93 88.8623 101.524C89.0927 101.319 89.326 101.118 89.5543 100.911L90.2343 100.284L90.9143 99.6578C91.1417 99.4499 91.3678 99.2403 91.5888 99.0252C93.3844 97.3339 95.1127 95.5723 96.823 93.7941C100.23 90.2234 103.455 86.4791 106.557 82.6366C108.105 80.7126 109.616 78.7586 111.09 76.7759C111.828 75.7854 112.557 74.7885 113.273 73.7821C113.63 73.2781 113.985 72.7727 114.336 72.264L114.856 71.4981L115.112 71.1123C115.194 70.9837 115.283 70.8509 115.354 70.7287L115.36 70.7172C115.376 70.6889 115.412 70.679 115.441 70.6957C115.468 70.712 115.478 70.7472 115.463 70.7754V70.7759Z" fill="white"/>
<path d="M63.2622 5.79968H7.89038C4.41059 5.79968 1.58966 8.64775 1.58966 12.161V119.106C1.58966 122.619 4.41059 125.467 7.89038 125.467H63.2622C66.742 125.467 69.5629 122.619 69.5629 119.106V12.161C69.5629 8.64775 66.742 5.79968 63.2622 5.79968Z" fill="white"/>
<path d="M63.2622 126.264H7.89041C3.98069 126.264 0.798767 123.053 0.798767 119.104V12.1599C0.798767 8.21255 3.97962 5 7.89041 5H63.2633C67.173 5 70.3539 8.21147 70.3539 12.1599V119.104C70.3539 123.052 67.173 126.264 63.2633 126.264H63.2622ZM7.89041 6.59817C4.85297 6.59817 2.38063 9.09322 2.38063 12.161V119.106C2.38063 122.173 4.8519 124.668 7.89041 124.668H63.2633C66.3008 124.668 68.7731 122.173 68.7731 119.106V12.1599C68.7731 9.09322 66.3018 6.59709 63.2633 6.59709H7.89041V6.59817Z" fill="#222721"/>
<path d="M34.679 61.4713C34.679 61.4713 45.9715 75.2887 50.1259 71.9593C54.2803 68.6299 43.0645 50.4807 43.0645 50.4807L34.679 61.4713Z" fill="url(#paint0_linear_7865_16486)"/>
<path d="M29.8958 123C30.3062 112.395 31.0114 102.705 31.0114 102.705C32.499 105.157 34.5693 114.171 36.3402 123H43.9634C42.3705 102.021 38.49 87.203 38.49 87.203H24.7994C24.7994 87.203 22.0242 91.8011 22.0157 92.8584C21.9389 102.292 22.8105 113.566 23.7755 123H29.8962H29.8958Z" fill="#1F251F"/>
<path d="M42.7979 50.5972C34.1892 49.3465 24.7333 50.4939 20.1437 51.0751C18.6578 51.2632 17.2986 51.9991 16.3191 53.1379C12.4356 57.6533 3.91349 70.0147 13.9441 82.4712C15.2278 81.7554 17.0516 80.6076 18.2905 79.2789C17.1809 76.136 17.09 72.12 19.4155 67.1949C19.4948 67.5853 19.5934 67.9715 19.7128 68.3521C22.9184 78.5546 23.0891 87.0444 23.0822 89.001C23.0814 89.2667 23.2401 89.5059 23.4854 89.6049C27.7042 91.3034 35.8249 90.2924 38.5509 89.8843C39.0509 89.8093 39.3871 89.3421 39.318 88.839C38.359 81.8591 41.6149 71.6528 44.2041 64.9533C45.2271 62.3058 43.3338 51.34 42.7979 50.5976V50.5972Z" fill="#DE5849"/>
<path d="M29.077 40.4521L27.8885 50.3229C27.8347 50.7708 28.1086 51.1943 28.5395 51.3207C29.8296 51.6996 32.5911 52.2735 35.115 51.2303C35.594 51.0322 35.8585 50.5119 35.7485 50.0032L34.2459 43.0559L29.077 40.4526V40.4521Z" fill="#EFAAA8"/>
<path d="M36.7826 33.4368C36.8568 33.5731 38.4472 43.7078 38.4472 43.7078L32.6679 44.4973L29.7396 35.1165C29.7396 35.1165 35.5403 31.1579 36.7822 33.4368H36.7826Z" fill="#EFAAA8"/>
<path d="M31.8816 36.05C31.7174 36.2523 31.6555 36.518 31.714 36.7726L32.8539 41.759C32.8714 41.8348 32.8978 41.9064 32.935 41.9746C33.1414 42.3487 33.8948 43.4871 35.0352 42.6453C36.007 41.9278 36.9097 41.2819 37.6956 41.1508C38.1546 41.0741 38.5846 41.3959 38.655 41.8575C38.8009 42.809 39.0561 44.7348 39.0437 46.4779C39.0407 46.9147 38.6994 47.2734 38.2655 47.3043C37.1209 47.3853 34.8808 47.4761 33.0275 47.1422C32.7229 47.0874 32.4746 46.8696 32.3786 46.5743C31.9559 45.2744 30.7558 41.636 30.2596 40.6613C29.7989 39.7557 28.4568 39.6018 27.8365 39.5799C27.601 39.5718 27.3812 39.4668 27.2272 39.2881C26.7644 38.7519 26.0412 37.5561 27.4354 36.3886C27.7823 36.0984 27.8232 35.5738 27.5412 35.2198C27.0361 34.585 26.5971 33.5602 27.6795 32.4865C28.775 31.4 30.0139 31.6752 30.7989 32.0429C31.1461 32.2058 31.5753 32.1351 31.824 31.8419C31.9345 31.7116 32.0984 31.6229 32.3407 31.6512C32.7976 31.7039 33.2067 31.4022 33.2622 30.9436C33.3573 30.1571 33.7771 29.2322 35.1623 28.9673C37.7028 28.4817 38.9626 31.0383 38.9119 32.8324C38.8615 34.6266 36.077 34.996 34.4989 34.6939C33.3398 34.4718 32.3338 35.4928 31.8816 36.0508V36.05Z" fill="#222721"/>
<path d="M30.6991 42.4992C30.6991 42.4992 30.6534 39.3691 29.3932 39.0712C28.133 38.7737 26.7699 39.6858 27.8433 41.5627C29.1782 43.8977 30.6995 42.4992 30.6995 42.4992H30.6991Z" fill="#EFAAA8"/>
<path d="M18.9906 66.432C17.2901 61.7572 17.907 56.1121 17.9134 56.0555L18.3818 56.1095C18.3754 56.1648 17.7717 61.7019 19.4334 66.2696L18.9901 66.4324L18.9906 66.432Z" fill="url(#paint1_linear_7865_16486)"/>
<path d="M30.781 102.096C30.676 102.096 30.5805 102.025 30.5532 101.919C30.0344 99.9086 26.1501 97.7 26.1108 97.6777C25.9973 97.6138 25.9568 97.4694 26.0204 97.355C26.0839 97.2409 26.2273 97.2002 26.3416 97.2641C26.5084 97.3584 30.4405 99.5944 31.0096 101.8C31.0425 101.926 30.9666 102.055 30.8407 102.088C30.8211 102.094 30.801 102.096 30.7814 102.096H30.781Z" fill="url(#paint2_linear_7865_16486)"/>
<path d="M18.2909 79.279C17.052 80.6072 15.2282 81.7555 13.9445 82.4712C15.8613 84.8517 18.4551 87.2356 21.889 89.5689L22.3045 90.5054C22.6603 91.3078 23.438 91.8397 24.3113 91.8817C29.1103 92.1114 30.4384 91.0888 26.0208 87.9934C26.0208 87.9934 20.3711 85.1689 18.2913 79.2794L18.2909 79.279Z" fill="#EFAAA8"/>
<path d="M53.5734 58.3563C53.5734 58.3563 47.518 64.6807 46.1187 66.9746C44.7199 69.269 46.277 73.4474 49.4553 72.4771C52.6336 71.5071 56.3332 60.5336 56.3332 60.5336L53.5734 58.3558V58.3563Z" fill="#EFAAA8"/>
<path d="M43.4374 49.3744C43.4374 49.3744 48.7591 63.4742 50.4399 66.4071C52.3917 69.812 58.0913 67.6424 57.8076 64.793C57.5239 61.9436 50.8648 50.166 50.8648 50.166L43.4374 49.3744Z" fill="#A71E25"/>
<path d="M50.6276 39.1033L83.7024 27.5825L83.3551 58.76L49.7241 51.2208L50.6276 39.1033Z" fill="#A71E25"/>
<path d="M83.7336 59.2842C85.5282 59.2842 86.9831 52.1106 86.9831 43.2616C86.9831 34.4127 85.5282 27.2391 83.7336 27.2391C81.9389 27.2391 80.484 34.4127 80.484 43.2616C80.484 52.1106 81.9389 59.2842 83.7336 59.2842Z" fill="#FF7163"/>
<path d="M45.2932 38.433C46.8491 38.2513 49.0803 38.1861 51.4924 38.7412C50.6976 42.9124 50.8175 47.2597 51.7368 51.7613H44.9327C43.8478 51.7613 42.9229 50.9697 42.7536 49.893C42.4144 47.735 41.9997 44.1086 42.4421 41.1958C42.664 39.7338 43.8312 38.6036 45.2932 38.433Z" fill="#D94B39"/>
<path d="M83.9801 58.1882C83.6866 57.8882 83.0467 56.7305 82.4981 53.7367C81.9678 50.8436 81.676 47.0916 81.676 43.1708C81.676 39.2499 81.9678 35.4979 82.4981 32.6048C83.0467 29.6114 83.6862 28.4538 83.9801 28.1533C84.2736 28.4533 84.9136 29.611 85.4622 32.6048C85.9925 35.4979 86.2843 39.2499 86.2843 43.1708C86.2843 47.0916 85.9925 50.8436 85.4622 53.7367C84.9136 56.7301 84.2741 57.8877 83.9801 58.1882Z" fill="#A71E25"/>
<path d="M88.1452 43.0516C88.1452 45.7741 86.6853 47.981 83.7962 47.981C80.9072 47.981 78.5651 45.7741 78.5651 43.0516C78.5651 40.3291 80.9072 38.1223 83.7962 38.1223C86.6853 38.1223 88.1452 40.3291 88.1452 43.0516Z" fill="#7D080E"/>
<path d="M49.3768 41.7071H44.0756C43.8696 41.7071 43.6802 41.594 43.5816 41.4122C43.4831 41.2301 43.4916 41.0093 43.6038 40.8353C43.6682 40.735 43.8017 40.7068 43.9016 40.7715C44.0014 40.8362 44.03 40.9703 43.9651 41.0706C43.9267 41.1302 43.9489 41.1851 43.96 41.2056C43.9711 41.2266 44.0048 41.2747 44.0756 41.2747H49.3768C49.4497 41.2747 49.5086 41.2151 49.5086 41.1422V40.7633C49.5086 40.69 49.4493 40.6309 49.3768 40.6309H44.0364C43.9174 40.6309 43.8209 40.534 43.8209 40.4144C43.8209 40.2949 43.9174 40.198 44.0364 40.198H49.3768C49.6869 40.198 49.9395 40.4513 49.9395 40.7633V41.1422C49.9395 41.4538 49.6869 41.7071 49.3768 41.7071Z" fill="#FF7163"/>
<path d="M48.9041 44.0657H43.603C43.3969 44.0657 43.2075 43.9525 43.109 43.7708C43.0104 43.5887 43.0185 43.3675 43.1307 43.1939C43.1951 43.0932 43.3287 43.0649 43.4285 43.1296C43.5283 43.1943 43.5569 43.3285 43.4925 43.4288C43.4541 43.4884 43.4763 43.5432 43.4874 43.5642C43.4985 43.5848 43.5322 43.6332 43.603 43.6332H48.9041C48.9771 43.6332 49.0359 43.5737 49.0359 43.5008V43.1219C49.0359 43.0486 48.9766 42.9895 48.9041 42.9895H43.5637C43.4447 42.9895 43.3483 42.8926 43.3483 42.773C43.3483 42.6534 43.4447 42.5566 43.5637 42.5566H48.9041C49.2143 42.5566 49.4668 42.8099 49.4668 43.1219V43.5008C49.4668 43.8124 49.2143 44.0657 48.9041 44.0657Z" fill="#FF7163"/>
<path d="M55.4339 38.3387C55.3426 38.3387 55.2577 38.28 55.2287 38.1878C55.1929 38.0738 55.2551 37.9525 55.3686 37.9161L80.4187 29.9076C80.5322 29.8712 80.6534 29.9346 80.6892 30.0482C80.725 30.1622 80.6627 30.2835 80.5493 30.3199L55.4992 38.3284C55.4774 38.3353 55.4552 38.3387 55.4339 38.3387Z" fill="#FF7163"/>
<path d="M52.0466 39.7299C51.9617 39.7299 51.8811 39.6794 51.8469 39.5954C51.8021 39.4848 51.8546 39.3583 51.9647 39.3133L53.2539 38.784C53.364 38.7386 53.4898 38.7917 53.5346 38.9023C53.5794 39.0129 53.5269 39.1393 53.4169 39.1843L52.1276 39.7137C52.1012 39.7248 52.0735 39.7295 52.0462 39.7295L52.0466 39.7299Z" fill="#FF7163"/>
<path d="M49.3768 46.8281H44.0756C43.8696 46.8281 43.6802 46.7149 43.5816 46.5332C43.4831 46.351 43.4912 46.1299 43.6034 45.9559C43.6678 45.8552 43.8013 45.8269 43.9011 45.8916C44.001 45.9563 44.0296 46.0905 43.9651 46.1908C43.9267 46.2503 43.9489 46.3052 43.96 46.3262C43.9711 46.3472 44.0052 46.3952 44.0756 46.3952H49.3768C49.4497 46.3952 49.5086 46.3356 49.5086 46.2628V45.8839C49.5086 45.811 49.4493 45.7514 49.3768 45.7514H44.0364C43.9174 45.7514 43.8209 45.6546 43.8209 45.535C43.8209 45.4154 43.9174 45.3185 44.0364 45.3185H49.3768C49.6869 45.3185 49.9395 45.5723 49.9395 45.8834V46.2623C49.9395 46.5739 49.6869 46.8277 49.3768 46.8277V46.8281Z" fill="#FF7163"/>
<path d="M49.8729 49.8943H44.5718C44.3657 49.8943 44.1763 49.7812 44.0778 49.5994C43.9792 49.4173 43.9873 49.1965 44.0995 49.0225C44.1639 48.9218 44.2975 48.8935 44.3973 48.9582C44.4971 49.023 44.5257 49.1571 44.4613 49.2574C44.4229 49.317 44.4451 49.3718 44.4562 49.3928C44.4677 49.4138 44.5014 49.4618 44.5718 49.4618H49.8729C49.9455 49.4618 50.0048 49.4023 50.0048 49.3294V48.9505C50.0048 48.8777 49.9455 48.8181 49.8729 48.8181H44.5325C44.4135 48.8181 44.3171 48.7212 44.3171 48.6016C44.3171 48.4821 44.4135 48.3852 44.5325 48.3852H49.8729C50.1831 48.3852 50.4352 48.6385 50.4352 48.9501V49.329C50.4352 49.6406 50.1831 49.8939 49.8729 49.8939V49.8943Z" fill="#FF7163"/>
<path d="M54.608 66.5653C54.358 66.5653 54.1054 66.5383 53.8533 66.483C52.7509 66.2417 51.8533 65.5114 51.3909 64.4793L47.1554 55.026C47.1068 54.9171 47.1554 54.789 47.2634 54.7401C47.3717 54.6912 47.4993 54.7401 47.5479 54.8485L51.7834 64.3014C52.1891 65.207 52.977 65.8482 53.9446 66.06C54.8951 66.2678 55.8571 66.021 56.5841 65.3823C56.6238 65.3476 56.6634 65.3116 56.7031 65.2752C56.7906 65.1942 56.9267 65.2006 57.0073 65.2889C57.0875 65.3772 57.0815 65.5139 56.9936 65.5945C56.9514 65.6335 56.9092 65.6712 56.8674 65.7081C56.23 66.2687 55.4343 66.5653 54.608 66.5653Z" fill="#FF7163"/>
<path d="M46.7258 53.756C46.6434 53.756 46.5649 53.7085 46.5291 53.6283L46.0568 52.5735C46.0082 52.4647 46.0568 52.3365 46.1648 52.2876C46.2727 52.2388 46.4007 52.2876 46.4493 52.3961L46.9216 53.4509C46.9702 53.5597 46.9216 53.6879 46.8137 53.7368C46.7851 53.7496 46.7552 53.7556 46.7254 53.7556L46.7258 53.756Z" fill="#FF7163"/>
<path d="M87.3705 42.9891C87.2587 42.9891 87.164 42.9021 87.1559 42.7881C87.0633 41.4791 86.6145 40.5044 85.821 39.8911C84.446 38.829 82.4678 39.1925 82.4477 39.1963C82.3308 39.2186 82.2182 39.1419 82.1956 39.0245C82.1734 38.9075 82.2498 38.7939 82.3663 38.7712C82.455 38.754 84.5501 38.3653 86.0808 39.5457C86.9776 40.237 87.4835 41.3175 87.5851 42.7568C87.5936 42.8759 87.504 42.9796 87.3854 42.9878C87.3803 42.9878 87.3752 42.9882 87.37 42.9882L87.3705 42.9891Z" fill="#BDD0FB"/>
<path d="M51.2808 54.7208C51.2808 54.7208 53.006 53.2494 54.3541 54.7208C55.7022 56.1922 55.9689 58.76 55.6945 58.8851C55.4202 59.0107 47.0837 56.9307 51.2803 54.7208H51.2808Z" fill="#EFAAA8"/>
<path d="M87.0441 96.0292C95.4673 96.0292 102.296 89.1691 102.296 80.7066C102.296 72.2442 95.4673 65.384 87.0441 65.384C78.6209 65.384 71.7925 72.2442 71.7925 80.7066C71.7925 89.1691 78.6209 96.0292 87.0441 96.0292Z" fill="url(#paint3_linear_7865_16486)"/>
<path opacity="0.88" d="M87.3103 94.2895C94.6669 94.2895 100.631 88.2981 100.631 80.9072C100.631 73.5164 94.6669 67.5249 87.3103 67.5249C79.9537 67.5249 73.9901 73.5164 73.9901 80.9072C73.9901 88.2981 79.9537 94.2895 87.3103 94.2895Z" fill="white"/>
<path d="M84.408 71.8036C84.408 71.8036 83.9848 73.5935 82.8445 72.606C81.7046 71.6185 80.295 70.1574 78.7008 71.4123C77.1065 72.6673 78.9977 73.7066 78.9977 73.7066C78.9977 73.7066 78.2711 73.3329 77.7242 73.9227C77.5668 74.092 77.3159 74.1233 77.1287 73.9882C76.952 73.8605 76.708 73.7924 76.4137 73.9844C76.182 74.1353 75.5374 75.6045 76.1265 78.2091C76.4776 79.7603 77.4977 84.2289 80.9908 85.0775C83.2715 85.6317 85.219 84.3052 85.3901 84.1847C87.3031 82.8385 87.6674 80.779 87.7271 80.404C87.6205 79.9908 87.1175 77.88 88.3363 76.1656C88.6136 75.776 89.4212 74.7696 90.6669 74.5827C90.9348 74.5424 91.2143 74.5956 91.6029 74.722C91.6029 74.722 91.9306 76.5637 93.1422 76.4951C93.1422 76.4951 93.0227 76.0323 93.4937 75.7614C93.9451 75.5016 95.0235 74.1713 93.1929 72.9956C93.0475 72.9022 92.9715 72.7329 92.9869 72.5601C93.0364 72.0034 92.9118 70.7283 91.0398 69.6812C88.661 68.3508 87.0125 68.6157 86.1311 69.9375C86.0671 70.0335 85.9669 70.0982 85.8543 70.1218C85.4763 70.202 84.6111 70.5238 84.4072 71.8032L84.408 71.8036Z" fill="#222721"/>
<path d="M86.6047 81.1606L87.4396 85.4329L91.6686 85.0514L90.8504 80.5528L86.6047 81.1606Z" fill="#FFB6B5"/>
<path d="M93.0236 74.6097C93.0236 74.6097 93.9267 74.6097 94.0773 75.971C94.2279 77.3322 92.5718 77.937 92.5718 77.937L91.6686 77.7857L92.1204 74.9123L93.0236 74.6097Z" fill="#222721"/>
<path d="M85.0697 77.6095C85.0697 77.6095 85.6636 82.1977 88.3256 82.9868C90.9882 83.7759 92.1763 79.6128 92.3469 79.321C92.3469 79.321 92.9271 79.6638 93.1183 79.0707C93.3094 78.4775 94.163 77.0202 92.8111 76.9272C92.8111 76.9272 93.2138 75.4391 92.8145 74.6535C92.4152 73.8683 91.637 71.9957 89.6537 72.3146C87.6704 72.6334 85.2229 75.3457 85.0693 77.6091L85.0697 77.6095Z" fill="#FFB6B5"/>
<path d="M92.6119 72.6073C92.4621 72.5216 92.3777 72.3561 92.3841 72.183C92.4054 71.6245 92.2164 70.3571 90.2936 69.4069C87.8504 68.1995 86.2177 68.548 85.4046 69.9131C85.3457 70.0121 85.2485 70.082 85.1375 70.1115C84.7642 70.211 83.9166 70.5766 83.7775 71.865C83.7775 71.865 83.6269 72.6814 83.1674 72.9356C84.2668 73.8537 84.7549 77.0738 84.777 77.1171C85.1213 77.2011 86.3909 77.3824 87.9216 76.0211C89.7565 74.389 89.9122 74.0894 91.111 74.4126C91.111 74.4126 91.9762 76.2281 93.1831 76.0979C93.1831 76.0979 92.8653 75.7228 93.3218 75.4284C93.7595 75.1459 94.4997 73.6882 92.6119 72.6069V72.6073Z" fill="#222721"/>
<path d="M85.3598 77.781C85.3598 77.781 85.4213 76.8758 84.6602 76.9752C83.8991 77.0747 84.6581 79.3394 85.359 78.9631L85.3598 77.781Z" fill="#FFB6B5"/>
<path d="M87.1337 83.8659L84.3159 84.9245L87.803 88.7687L94.076 84.7582C93.5811 84.5726 93.2693 84.2113 92.794 84.0832C92.326 83.9572 91.8674 83.8376 91.4199 83.6841L87.1332 83.8659H87.1337Z" fill="#FFB6B5"/>
<path d="M82.4938 94.6243C82.8543 93.6192 83.1325 93.0595 83.1325 93.0595L80.6935 86.8156C80.6935 86.8156 79.5365 89.1947 78.5864 92.3711C78.2507 93.4936 79.0856 94.6243 80.2524 94.6243H82.4938Z" fill="#FF7163"/>
<path d="M99.3797 92.4624C98.823 89.2311 97.936 86.978 97.936 86.978L94.6652 91.6896C95.1178 92.7033 95.4587 93.6912 95.7065 94.6243H97.5721C98.712 94.6243 99.5738 93.5913 99.3797 92.4628V92.4624Z" fill="#FF7163"/>
<path d="M95.6324 94.6243L97.925 87.179C98.2006 86.7483 96.0504 84.9104 92.4464 83.9238C92.0552 85.8366 86.0292 85.7368 85.9699 84.3048C83.2016 85.3039 80.7059 86.0668 80.5032 87.2244C80.6031 89.4335 81.167 91.8971 81.9094 94.6247L95.6324 94.6243Z" fill="#FF7163"/>
<path d="M96.9403 31.076C105.364 31.076 112.192 24.2158 112.192 15.7534C112.192 7.29095 105.364 0.430786 96.9403 0.430786C88.5171 0.430786 81.6888 7.29095 81.6888 15.7534C81.6888 24.2158 88.5171 31.076 96.9403 31.076Z" fill="url(#paint4_linear_7865_16486)"/>
<path opacity="0.88" d="M97.207 29.3363C104.564 29.3363 110.527 23.3448 110.527 15.954C110.527 8.56312 104.564 2.57166 97.207 2.57166C89.8504 2.57166 83.8867 8.56312 83.8867 15.954C83.8867 23.3448 89.8504 29.3363 97.207 29.3363Z" fill="white"/>
<path opacity="0.88" d="M97.207 29.3363C104.564 29.3363 110.527 23.3448 110.527 15.954C110.527 8.56312 104.564 2.57166 97.207 2.57166C89.8504 2.57166 83.8867 8.56312 83.8867 15.954C83.8867 23.3448 89.8504 29.3363 97.207 29.3363Z" fill="white"/>
<path d="M100.528 13.7458C102.352 11.9128 102.352 8.94095 100.528 7.10797C98.7033 5.27499 95.7453 5.27499 93.9208 7.10797C92.0963 8.94095 92.0963 11.9128 93.9208 13.7458C95.7453 15.5788 98.7033 15.5788 100.528 13.7458Z" fill="#212721"/>
<path d="M92.7373 9.11688C90.6823 16.2557 89.2856 22.7456 89.5121 24.5706L95.5026 23.935L96.1972 10.7302L92.7369 9.11646L92.7373 9.11688Z" fill="#222721"/>
<path d="M99.3691 8.37968L98.547 24.5209L105.326 28.1473C105.183 22.6312 102.378 8.45683 101.23 8.07666L99.3691 8.37925V8.37968Z" fill="#212721"/>
<path d="M99.3704 17.1211L99.5674 21.5173L95.3239 22.1589L95.0564 17.5441L99.3704 17.1211Z" fill="url(#paint5_linear_7865_16486)"/>
<path d="M101.383 14.4736C101.383 14.4736 100.366 19.0374 97.614 19.586C94.8619 20.1342 94.0466 15.8344 93.9016 15.5249C93.9016 15.5249 93.2859 15.8168 93.1477 15.2018C93.0095 14.5872 92.2838 13.0412 93.6528 13.0729C93.6528 13.0729 93.3832 11.5376 93.8572 10.7842C94.3312 10.0307 95.2855 8.21767 97.2526 8.72128C99.2198 9.22532 102.364 10.8883 101.383 14.4736Z" fill="url(#paint6_linear_7865_16486)"/>
<path d="M99.5018 20.0476L102.193 21.4813L98.6686 25.367L92.1525 21.2494C93.1452 20.877 94.1209 20.3768 95.0125 20.2281L99.5018 20.048V20.0476Z" fill="url(#paint7_linear_7865_16486)"/>
<path d="M93.8073 8.99004C92.8875 10.2823 93.6106 11.4288 93.3636 12.3567C94.2544 12.0314 97.2629 11.545 98.1681 11.6345C98.3554 11.0165 97.9877 9.98783 97.7995 9.17691C98.0935 9.94711 98.765 11.1253 98.6933 11.7335C99.9092 11.7897 99.6605 11.8068 101.027 12.3567L99.9629 8.62915C97.5935 7.51693 95.547 7.65879 93.8068 8.99004H93.8073Z" fill="#222721"/>
<path d="M98.3363 4.60884C98.3363 5.50505 97.4967 6.51099 96.8918 6.51099C96.3935 6.51099 95.4473 5.50505 95.4473 4.60884C95.4473 3.71263 96.094 2.98615 96.8918 2.98615C97.6896 2.98615 98.3363 3.71263 98.3363 4.60884Z" fill="#222721"/>
<path d="M104.124 31.2097L105.606 22.9291C103.59 21.5516 101.721 20.8958 99.5014 20.0506C98.8132 21.4881 95.6695 21.3458 95.0121 20.2293C92.9212 20.7625 90.9311 21.7487 89.007 23.026L91.0347 31.2102H104.124V31.2097Z" fill="#FF7163"/>
<path d="M108.189 29.7452C106.988 24.5895 105.606 22.9286 105.606 22.9286L103.389 29.7066C103.389 29.7066 103.656 30.2475 104.007 31.2093H107.031C107.796 31.2093 108.363 30.4931 108.189 29.7447V29.7452Z" fill="#FF7163"/>
<path d="M91.1819 31.2098C91.4272 30.3247 91.7544 29.3955 92.1793 28.4436L89.007 23.0277C89.007 23.0277 87.4422 25.7583 86.9242 29.8712C86.8347 30.5823 87.3893 31.2098 88.1021 31.2098H91.1815H91.1819Z" fill="#FF7163"/>
<path d="M99.8239 8.71228C101.396 12.7052 102.181 23.9676 101.221 29.9235C102.724 24.7241 104.596 18.1291 101.735 9.2609L99.8239 8.71185V8.71228Z" fill="#222721"/>
<path d="M104.45 64.3764C112.873 64.3764 119.701 57.5162 119.701 49.0538C119.701 40.5914 112.873 33.7312 104.45 33.7312C96.0265 33.7312 89.1981 40.5914 89.1981 49.0538C89.1981 57.5162 96.0265 64.3764 104.45 64.3764Z" fill="url(#paint8_linear_7865_16486)"/>
<path opacity="0.88" d="M104.716 62.6371C112.072 62.6371 118.036 56.6457 118.036 49.2548C118.036 41.864 112.072 35.8725 104.716 35.8725C97.3593 35.8725 91.3956 41.864 91.3956 49.2548C91.3956 56.6457 97.3593 62.6371 104.716 62.6371Z" fill="white"/>
<path d="M119.616 61.5395C118.892 57.3036 116.96 53.4354 116.96 53.4354L114.429 62.2497C114.429 62.2497 114.473 62.3491 114.546 62.5703L118.759 62.5613C119.298 62.56 119.708 62.0731 119.617 61.5395H119.616Z" fill="#DE5849"/>
<path d="M97.7142 62.5698C97.9915 61.5746 98.2048 60.9339 98.2048 60.9339L94.0692 53.435C94.0692 53.435 93.1298 54.5592 92.1234 61.0282C91.998 61.8348 92.5965 62.5698 93.4088 62.5698H97.7138H97.7142Z" fill="#DE5849"/>
<path d="M111.957 62.5699L110.836 50.7601C105.827 48.9004 99.5111 50.9817 99.5111 50.9817L98.9911 62.5699C102.911 63.4292 107.191 63.518 111.957 62.5699H111.957Z" fill="#FF7163"/>
<path d="M102.793 47.0351L102.699 50.1515C102.69 50.4596 102.88 50.7374 103.17 50.8398C103.963 51.121 105.605 51.5483 107.161 50.9885C107.475 50.8754 107.664 50.5527 107.616 50.2213L107.149 47.0347H102.793L102.793 47.0351Z" fill="url(#paint9_linear_7865_16486)"/>
<path d="M101.207 41.3462C101.207 41.3462 101.751 46.9254 102.949 48.3475C102.949 48.3475 106.543 48.6758 107.849 47.9099C107.849 47.9099 108.775 45.1201 108.666 41.4007C108.666 41.4007 108.844 38.016 105.127 37.7361C100.771 37.4078 101.207 41.3462 101.207 41.3462Z" fill="url(#paint10_linear_7865_16486)"/>
<path d="M108.285 43.0967C108.285 43.0967 108.611 42.1122 109.156 42.1122C109.7 42.1122 109.047 44.7378 108.285 44.7378V43.0967Z" fill="url(#paint11_linear_7865_16486)"/>
<path d="M101.702 43.3551C101.702 43.3551 101.246 42.4237 100.707 42.4974C100.167 42.5712 101.167 45.0841 101.922 44.9808L101.702 43.3547V43.3551Z" fill="url(#paint12_linear_7865_16486)"/>
<path d="M101.277 42.0427C101.277 42.0427 101.705 47.4092 103.164 49.2814C103.298 49.4533 103.491 49.5531 103.695 49.5638C104.44 49.6037 106.344 49.6748 107.417 49.437C107.684 49.3778 107.904 49.1682 107.992 48.8811C108.148 48.371 108.288 47.9651 108.296 47.7856C108.332 46.9536 108.522 44.6465 108.765 41.5018C108.691 41.3835 108.617 41.2656 108.543 41.1473C108.475 41.8747 108.032 46.5053 107.33 46.6129C107.179 46.636 107.014 46.6026 107.014 46.6026C106.588 46.5165 106.458 46.1792 106.162 45.9597C105.645 45.577 104.756 45.6533 104.26 46.0536C104.054 46.2199 103.924 46.4355 103.563 46.5893C103.333 46.6879 103.117 46.7149 103.048 46.7119C102.535 46.69 102.024 44.661 101.738 41.8995L101.277 42.0427Z" fill="#222721"/>
<path d="M107.196 39.9528C107.196 39.9528 104.421 42.3715 101.398 42.362C101.398 42.362 99.6821 38.4763 103.058 37.8304C106.433 37.1845 106.543 38.0151 106.543 38.0151C106.543 38.0151 110.49 37.1935 108.734 41.942L107.196 39.9533L107.196 39.9528Z" fill="#222721"/>
<path d="M97.7036 62.5699H100.676L102.102 50.3594C98.1963 50.7164 94.0696 53.435 94.0696 53.435L97.1421 60.9249C97.3623 61.4611 97.5496 62.017 97.7036 62.5699Z" fill="#DE5849"/>
<path d="M114.642 62.5698C114.81 61.8695 115.01 61.2236 115.241 60.567L116.959 53.435C113.537 50.7489 108.183 50.1206 108.183 50.1206L110.184 62.5698H114.643H114.642Z" fill="#DE5849"/>
<path d="M24.5793 12H45.3872" stroke="black" stroke-width="2" stroke-linecap="round"/>
<defs>
<linearGradient id="paint0_linear_7865_16486" x1="82.2523" y1="-29.8012" x2="73.3372" y2="-8.33253" gradientUnits="userSpaceOnUse">
<stop stop-color="#FF928E"/>
<stop offset="1" stop-color="#FE7062"/>
</linearGradient>
<linearGradient id="paint1_linear_7865_16486" x1="59.9138" y1="-39.0775" x2="50.9987" y2="-17.6088" gradientUnits="userSpaceOnUse">
<stop stop-color="#FF928E"/>
<stop offset="1" stop-color="#FE7062"/>
</linearGradient>
<linearGradient id="paint2_linear_7865_16486" x1="32.22" y1="93.0213" x2="27.5481" y2="101.296" gradientUnits="userSpaceOnUse">
<stop stop-color="#09005D"/>
<stop offset="1" stop-color="#1A0F91"/>
</linearGradient>
<linearGradient id="paint3_linear_7865_16486" x1="125.176" y1="-11.9769" x2="116.261" y2="9.49178" gradientUnits="userSpaceOnUse">
<stop stop-color="#FF928E"/>
<stop offset="1" stop-color="#FE7062"/>
</linearGradient>
<linearGradient id="paint4_linear_7865_16486" x1="110.805" y1="-17.9448" x2="101.889" y2="3.52392" gradientUnits="userSpaceOnUse">
<stop stop-color="#FF928E"/>
<stop offset="1" stop-color="#FE7062"/>
</linearGradient>
<linearGradient id="paint5_linear_7865_16486" x1="94.1067" y1="11.4358" x2="100.008" y2="26.2668" gradientUnits="userSpaceOnUse">
<stop stop-color="#FEBBBA"/>
<stop offset="1" stop-color="#FF928E"/>
</linearGradient>
<linearGradient id="paint6_linear_7865_16486" x1="95.87" y1="21.0664" x2="99.9487" y2="-1.51705" gradientUnits="userSpaceOnUse">
<stop stop-color="#FEBBBA"/>
<stop offset="1" stop-color="#FF928E"/>
</linearGradient>
<linearGradient id="paint7_linear_7865_16486" x1="95.7309" y1="10.9496" x2="97.9404" y2="26.7666" gradientUnits="userSpaceOnUse">
<stop stop-color="#FEBBBA"/>
<stop offset="1" stop-color="#FF928E"/>
</linearGradient>
<linearGradient id="paint8_linear_7865_16486" x1="128.919" y1="-10.4228" x2="120.004" y2="11.0459" gradientUnits="userSpaceOnUse">
<stop stop-color="#FF928E"/>
<stop offset="1" stop-color="#FE7062"/>
</linearGradient>
<linearGradient id="paint9_linear_7865_16486" x1="105.098" y1="49.2017" x2="105.653" y2="58.4584" gradientUnits="userSpaceOnUse">
<stop stop-color="#FEBBBA"/>
<stop offset="1" stop-color="#FF928E"/>
</linearGradient>
<linearGradient id="paint10_linear_7865_16486" x1="104.016" y1="41.8087" x2="111.775" y2="52.1142" gradientUnits="userSpaceOnUse">
<stop stop-color="#FEBBBA"/>
<stop offset="1" stop-color="#FF928E"/>
</linearGradient>
<linearGradient id="paint11_linear_7865_16486" x1="106.28" y1="40.1042" x2="114.04" y2="50.4092" gradientUnits="userSpaceOnUse">
<stop stop-color="#FEBBBA"/>
<stop offset="1" stop-color="#FF928E"/>
</linearGradient>
<linearGradient id="paint12_linear_7865_16486" x1="101.384" y1="43.791" x2="109.143" y2="54.096" gradientUnits="userSpaceOnUse">
<stop stop-color="#FEBBBA"/>
<stop offset="1" stop-color="#FF928E"/>
</linearGradient>
</defs>
</svg>
