<svg width="36" height="24" viewBox="0 0 36 24" fill="none" xmlns="http://www.w3.org/2000/svg">
<path d="M35.2171 3.64562H30.2127C30.0581 3.64589 29.907 3.60377 29.7786 3.52466L25.4774 0.886578C25.3489 0.807703 25.1978 0.765614 25.0433 0.765617H20.3476C20.2386 0.765724 20.1308 0.786727 20.0311 0.827288C19.9314 0.86785 19.842 0.927079 19.7685 1.0012L17.1546 3.64562H9.86501C9.40142 3.64512 8.94814 3.77143 8.56276 4.0085L4.65586 6.4048C4.52746 6.48392 4.37635 6.52603 4.22182 6.52576H0.782602C0.575043 6.52576 0.375985 6.60162 0.229219 6.73665C0.0824525 6.87167 0 7.05481 0 7.24576L0 17.3258C0 17.5167 0.0824525 17.6999 0.229219 17.8349C0.375985 17.9699 0.575043 18.0458 0.782602 18.0458H7.24517C7.42751 18.0444 7.60433 18.1033 7.74353 18.2117C7.9636 18.3845 8.26318 18.6392 8.62396 18.9461C10.4542 20.6216 12.5124 22.0722 14.7472 23.2619C15.5141 23.6199 16.362 23.8061 17.2219 23.8053C17.9858 23.8055 18.7414 23.6601 19.4411 23.3784C20.1409 23.0967 20.7697 22.6848 21.2879 22.1685L26.4559 16.5768C26.5056 16.5914 26.5568 16.6011 26.6088 16.6056H35.2174C35.425 16.6056 35.624 16.5298 35.7708 16.3947C35.9175 16.2597 36 16.0766 36 15.8856V4.36562C36 4.27104 35.9797 4.17739 35.9404 4.09002C35.901 4.00265 35.8434 3.92326 35.7707 3.8564C35.698 3.78954 35.6117 3.73651 35.5167 3.70034C35.4217 3.66418 35.3199 3.64558 35.2171 3.64562ZM26.2079 14.6235L20.1168 21.2139C19.5342 21.7887 18.7645 22.174 17.9235 22.3116C17.0824 22.4493 16.2155 22.3319 15.4533 21.9771C13.3506 20.8451 11.4131 19.4714 9.68767 17.8891C9.30561 17.5642 8.98912 17.2942 8.75528 17.1128C8.33305 16.7845 7.79797 16.6047 7.24517 16.6052H1.5652V7.96519H4.22182C4.68541 7.96568 5.1387 7.83937 5.52407 7.60231L9.43098 5.20658C9.55937 5.12746 9.71048 5.08535 9.86501 5.08562H15.7325L13.396 7.45024C12.8599 7.99199 12.5755 8.70522 12.6036 9.43739C12.6317 10.1696 12.9701 10.8625 13.5465 11.3681C14.1228 11.8737 14.8912 12.1518 15.6875 12.1428C16.4838 12.1339 17.2446 11.8386 17.8073 11.3202L21.8476 7.60346L26.3014 12.725C26.539 12.9979 26.6606 13.3411 26.6434 13.6904C26.6262 14.0398 26.4714 14.3714 26.2079 14.6235ZM34.4345 15.1656H27.7246C28.0762 14.6599 28.246 14.0653 28.21 13.4659C28.174 12.8666 27.934 12.2928 27.524 11.8258L22.5242 6.07562C22.4536 5.99941 22.3672 5.93697 22.2699 5.89199C22.1727 5.847 22.0667 5.82038 21.9581 5.81368C21.9062 5.81265 21.8544 5.81656 21.8034 5.82535C21.638 5.84677 21.4833 5.91338 21.3594 6.01658L16.7007 10.3022C16.4272 10.5554 16.0566 10.7 15.6686 10.7048C15.2805 10.7096 14.9059 10.5742 14.625 10.3278C14.3442 10.0814 14.1795 9.74352 14.1663 9.38668C14.1531 9.02984 14.2925 8.68246 14.5545 8.41907L20.6931 2.20562H24.8063L28.9104 4.72274C29.2958 4.95981 29.7491 5.08612 30.2127 5.08562H34.4345V15.1656Z" fill="#E7503D"/>
</svg>
