<svg width="24" height="24" viewBox="0 0 24 24" fill="none" xmlns="http://www.w3.org/2000/svg">
<path d="M9.5 10.5H4.5C3.83696 10.5 3.20107 10.7634 2.73223 11.2322C2.26339 11.7011 2 12.337 2 13M7.375 16.1875L5.1875 14M5.1875 14L3 16.1875M5.1875 14C5.1875 14.5634 5.17652 15.2639 5.15989 16.0022C5.09841 18.7299 7.27162 21 10 21V21M22 20V18.2222C22 17.2792 21.6348 16.3749 20.9846 15.7081C20.3345 15.0413 19.4528 14.6667 18.5333 14.6667H12.4667C11.5472 14.6667 10.6655 15.0413 10.0154 15.7081M9.5 5.5C9.5 6.88071 8.38071 8 7 8C5.61929 8 4.5 6.88071 4.5 5.5C4.5 4.11929 5.61929 3 7 3C8.38071 3 9.5 4.11929 9.5 5.5ZM18.9667 7.55556C18.9667 9.51923 17.4146 11.1111 15.5 11.1111C13.5854 11.1111 12.0333 9.51923 12.0333 7.55556C12.0333 5.59188 13.5854 4 15.5 4C17.4146 4 18.9667 5.59188 18.9667 7.55556Z" stroke="#212121" stroke-linecap="round" stroke-linejoin="round"/>
</svg>
