<svg width="22" height="22" viewBox="0 0 22 22" fill="none" xmlns="http://www.w3.org/2000/svg">
<path d="M20.075 11.0008V11.0009V11.8001C20.075 11.9393 20.1303 12.0728 20.2288 12.1713C20.3272 12.2698 20.4608 12.3251 20.6 12.3251C20.7392 12.3251 20.8728 12.2698 20.9712 12.1713C21.0697 12.0728 21.125 11.9393 21.125 11.8001V11.0009V11.0001C21.125 11.0001 21.125 11.0001 21.125 11.0001C21.1257 8.66543 20.3194 6.40231 18.8426 4.59412C17.3657 2.78592 15.3092 1.54383 13.0215 1.07829C10.7337 0.612749 8.35534 0.952377 6.28931 2.03964C4.39372 3.0372 2.868 4.60786 1.925 6.52025V2.20007C1.925 2.06083 1.86969 1.92729 1.77123 1.82884C1.67278 1.73038 1.53924 1.67507 1.4 1.67507C1.26076 1.67507 1.12723 1.73038 1.02877 1.82884C0.930313 1.92729 0.875001 2.06083 0.875001 2.20007V7.80007C0.875001 7.93931 0.930313 8.07284 1.02877 8.1713C1.12723 8.26975 1.26076 8.32507 1.4 8.32507H7C7.13924 8.32507 7.27277 8.26975 7.37123 8.1713C7.46969 8.07284 7.525 7.93931 7.525 7.80007C7.525 7.66083 7.46969 7.52729 7.37123 7.42884C7.27277 7.33038 7.13924 7.27507 7 7.27507H2.73386C3.56427 5.4283 4.98988 3.91067 6.78541 2.96678C8.63699 1.99344 10.7681 1.69006 12.8177 2.10804C14.8674 2.52602 16.7095 3.63966 18.0321 5.2603C19.3547 6.88095 20.0764 8.90896 20.075 11.0008ZM1.925 11.0001V11.0001V10.2001C1.925 10.0608 1.86969 9.92729 1.77123 9.82884C1.67277 9.73038 1.53924 9.67507 1.4 9.67507C1.26076 9.67507 1.12723 9.73038 1.02877 9.82884C0.930313 9.92729 0.875001 10.0608 0.875001 10.2001V10.9989V11C0.875001 11 0.875001 11.0001 0.875001 11.0001C0.874269 13.3347 1.68061 15.5978 3.15743 17.406C4.63426 19.2142 6.69076 20.4563 8.97853 20.9218C11.2663 21.3874 13.6447 21.0478 15.7107 19.9605C17.6063 18.9629 19.132 17.3923 20.075 15.4799V19.8001C20.075 19.9393 20.1303 20.0728 20.2288 20.1713C20.3272 20.2698 20.4608 20.3251 20.6 20.3251C20.7392 20.3251 20.8728 20.2698 20.9712 20.1713C21.0697 20.0728 21.125 19.9393 21.125 19.8001V14.2001C21.125 14.0608 21.0697 13.9273 20.9712 13.8288C20.8728 13.7304 20.7392 13.6751 20.6 13.6751H15C14.8608 13.6751 14.7272 13.7304 14.6288 13.8288C14.5303 13.9273 14.475 14.0608 14.475 14.2001C14.475 14.3393 14.5303 14.4728 14.6288 14.5713C14.7272 14.6698 14.8608 14.7251 15 14.7251H19.2661C18.4358 16.5718 17.0102 18.0894 15.2148 19.0333C13.3633 20.0066 11.2322 20.31 9.18264 19.8922C7.13305 19.4743 5.29091 18.3608 3.96826 16.7403C2.6456 15.1198 1.92376 13.0919 1.925 11.0001Z" fill="#E7503D" stroke="#E7503D" stroke-width="0.25"/>
</svg>
