<svg width="22" height="20" viewBox="0 0 22 20" fill="none" xmlns="http://www.w3.org/2000/svg">
<path fill-rule="evenodd" clip-rule="evenodd" d="M6.90665 6.00205C6.94059 6.06453 6.96179 6.13313 6.96903 6.20386C6.97628 6.2746 6.96942 6.34607 6.94886 6.41414C6.9283 6.4822 6.89443 6.54551 6.84923 6.60041C6.80404 6.6553 6.7484 6.70068 6.68555 6.73392L1.9099 9.28304C1.8401 9.32055 1.76289 9.34216 1.68377 9.34634C1.60465 9.35053 1.52558 9.33717 1.45222 9.30723L1.42601 9.29647C1.34964 9.26103 1.28258 9.20825 1.2302 9.14233C1.17781 9.07642 1.14153 8.99918 1.12425 8.91677L0.00863455 3.62363C-0.0164425 3.48485 0.0135931 3.34176 0.0923548 3.22478C0.171116 3.1078 0.292397 3.02615 0.430415 2.99719C0.568432 2.96822 0.71231 2.99421 0.831459 3.06966C0.950609 3.1451 1.03564 3.26404 1.06848 3.40118L1.70626 6.43754C2.3656 4.71601 3.49637 3.21493 4.96911 2.10613C6.05647 1.27651 7.29851 0.672325 8.62242 0.328999C9.94633 -0.0143274 11.3255 -0.0898875 12.679 0.106746C14.4222 0.372668 16.0605 1.10709 17.4189 2.23157C18.7773 3.35606 19.8047 4.82838 20.3915 6.4913C20.4395 6.62659 20.4317 6.77538 20.3699 6.90494C20.3082 7.03451 20.1975 7.13423 20.0622 7.18218C19.9269 7.23013 19.7781 7.22237 19.6486 7.16061C19.519 7.09886 19.4193 6.98815 19.3713 6.85287C18.8499 5.37475 17.9367 4.06605 16.7294 3.06655C15.522 2.06705 14.0658 1.41428 12.5163 1.178C11.3065 1.00266 10.0738 1.07052 8.89043 1.3776C7.70711 1.68468 6.59697 2.22482 5.62504 2.96636C4.03331 4.15894 2.89891 5.8615 2.41125 7.78973L6.17478 5.78094C6.23712 5.74667 6.30565 5.72511 6.37639 5.71751C6.44712 5.70991 6.51866 5.71642 6.58686 5.73667C6.65507 5.75693 6.71856 5.79052 6.77369 5.8355C6.82881 5.88048 6.87446 5.93594 6.90799 5.99868L6.90665 6.00205ZM21.9843 16.8793C22.0138 17.0197 21.9863 17.166 21.9079 17.2861C21.8295 17.4062 21.7066 17.4903 21.5663 17.5198C21.4259 17.5493 21.2796 17.5218 21.1595 17.4434C21.0393 17.365 20.9553 17.2421 20.9258 17.1018L20.2148 13.7173C19.1559 16.0295 17.247 17.8448 14.8846 18.7863C12.5222 19.7277 9.88786 19.7227 7.52897 18.7725C5.1576 17.8121 3.26134 15.9543 2.25264 13.603C2.22237 13.5374 2.20553 13.4665 2.20309 13.3943C2.20065 13.3221 2.21268 13.2501 2.23846 13.1827C2.26424 13.1152 2.30326 13.0536 2.35321 13.0014C2.40316 12.9492 2.46305 12.9076 2.52934 12.8789C2.59563 12.8502 2.66698 12.8351 2.73921 12.8344C2.81144 12.8337 2.88307 12.8474 2.94991 12.8748C3.01674 12.9022 3.07743 12.9427 3.12838 12.9939C3.17934 13.0451 3.21954 13.1059 3.24662 13.1729C3.82531 14.5234 4.73936 15.7036 5.90211 16.6017C7.06486 17.4998 8.43775 18.086 9.89059 18.3048C11.8631 18.584 13.8723 18.1942 15.5974 17.1977C17.3225 16.2013 18.664 14.6555 19.4076 12.8073L15.8242 14.72C15.6977 14.7856 15.5504 14.7987 15.4143 14.7564C15.2781 14.7141 15.1642 14.6199 15.0971 14.4942C15.0299 14.3684 15.0151 14.2213 15.0557 14.0847C15.0964 13.948 15.1892 13.8329 15.3141 13.7643L19.9849 11.273C19.9943 11.2669 20.0057 11.2629 20.0158 11.2569L20.0924 11.2186C20.1103 11.2128 20.1285 11.2081 20.1469 11.2045C20.1688 11.1971 20.1913 11.1912 20.2141 11.187C20.3345 11.1494 20.4643 11.1558 20.5804 11.2051C20.6569 11.2404 20.7241 11.2931 20.7765 11.359C20.8289 11.425 20.8651 11.5023 20.8821 11.5848L21.9843 16.8793Z" fill="#E7503D"/>
</svg>
