<svg width="36" height="36" viewBox="0 0 36 36" fill="none" xmlns="http://www.w3.org/2000/svg">
<g clip-path="url(#clip0_8595_18926)">
<path d="M35.7667 20.3491L18.4867 4.5091C18.3537 4.38765 18.1802 4.32031 18.0001 4.32031C17.82 4.32031 17.6465 4.38765 17.5135 4.5091L0.233539 20.3491C0.092747 20.4781 0.00898583 20.6578 0.000681722 20.8486C-0.00762239 21.0394 0.0602108 21.2257 0.189259 21.3665C0.318307 21.5073 0.497999 21.5911 0.688804 21.5994C0.87961 21.6077 1.0659 21.5399 1.20669 21.4108L4.32026 18.5569V33.8407C4.32026 34.4136 4.54783 34.963 4.95291 35.3681C5.35799 35.7732 5.90739 36.0007 6.48026 36.0007H29.5203C30.0931 36.0007 30.6425 35.7732 31.0476 35.3681C31.4527 34.963 31.6803 34.4136 31.6803 33.8407V18.5576L34.7935 21.4108C34.8633 21.4747 34.9449 21.5243 35.0337 21.5566C35.1226 21.589 35.2169 21.6035 35.3114 21.5994C35.4059 21.5953 35.4986 21.5726 35.5844 21.5326C35.6701 21.4927 35.7471 21.4362 35.811 21.3665C35.8749 21.2968 35.9244 21.2152 35.9568 21.1263C35.9891 21.0375 36.0037 20.9431 35.9995 20.8486C35.9954 20.7542 35.9728 20.6614 35.9328 20.5757C35.8928 20.49 35.8364 20.413 35.7667 20.3491ZM30.2403 17.2807V33.8407C30.2403 34.0317 30.1644 34.2148 30.0294 34.3499C29.8944 34.4849 29.7112 34.5607 29.5203 34.5607H6.48026C6.2893 34.5607 6.10617 34.4849 5.97114 34.3499C5.83612 34.2148 5.76026 34.0317 5.76026 33.8407V17.2807H5.71274L18.0003 6.01664L30.2878 17.2807H30.2403Z" fill="#E7503D"/>
<path d="M20.5074 19.7601L20.53 19.8287H20.6023H21.1868C21.3742 19.8287 21.5551 19.907 21.6893 20.0482C21.8237 20.1896 21.9 20.3823 21.9 20.5843C21.9 20.7863 21.8237 20.9791 21.6893 21.1204C21.5551 21.2616 21.3742 21.3399 21.1868 21.3399H20.7997H20.7084L20.7001 21.4308C20.61 22.4109 20.1766 23.3197 19.4855 23.9806C18.7946 24.6415 17.8956 25.0074 16.9638 25.0086H16.7053H16.4805L16.6311 25.1756L19.7257 28.6082L19.7257 28.6082L19.7273 28.6099C19.7945 28.6811 19.8479 28.7661 19.8839 28.8599C19.9199 28.9536 19.9377 29.0542 19.9363 29.1556C19.9349 29.257 19.9142 29.357 19.8756 29.4495C19.8371 29.5421 19.7814 29.6253 19.7122 29.6944C19.643 29.7634 19.5617 29.817 19.4731 29.8521C19.3846 29.8872 19.2905 29.9032 19.1962 29.8995C19.1019 29.8957 19.0092 29.8721 18.9233 29.83C18.8375 29.7878 18.7601 29.7278 18.696 29.6533L18.6961 29.6533L18.6945 29.6516L14.2977 24.7748C14.2976 24.7748 14.2976 24.7748 14.2976 24.7747C14.2013 24.6678 14.1363 24.5329 14.1115 24.3865C14.0867 24.2401 14.1033 24.0894 14.1589 23.9531C14.2146 23.8168 14.3067 23.7015 14.423 23.6208C14.5393 23.5402 14.675 23.4975 14.8132 23.4975C14.8132 23.4975 14.8133 23.4975 14.8133 23.4975L16.9639 23.4975L16.9642 23.4975C17.5154 23.4961 18.0475 23.2894 18.4663 22.9151C18.885 22.5409 19.1633 22.0236 19.253 21.4555L19.2713 21.3399H19.1542H14.8468C14.6594 21.3399 14.4785 21.2616 14.3443 21.1204C14.2099 20.9791 14.1336 20.7863 14.1336 20.5843C14.1336 20.3823 14.2099 20.1896 14.3443 20.0482C14.4785 19.907 14.6594 19.8287 14.8468 19.8287H18.798H18.9824L18.8819 19.6742C18.6691 19.3472 18.3834 19.0792 18.0492 18.8937C17.7149 18.7083 17.3424 18.6112 16.964 18.6112H16.9639H14.8132C14.6258 18.6112 14.4449 18.5329 14.3107 18.3917C14.1763 18.2503 14.1 18.0576 14.1 17.8556C14.1 17.6536 14.1763 17.4608 14.3107 17.3195C14.4449 17.1783 14.6258 17.1 14.8132 17.1H16.9639C16.9746 17.1 16.9856 17.1008 17.0009 17.102L17.0023 17.1021C17.0162 17.1032 17.0341 17.1046 17.0529 17.1046H21.1868C21.3742 17.1046 21.5551 17.1829 21.6893 17.3241C21.8237 17.4654 21.9 17.6582 21.9 17.8601C21.9 18.0621 21.8237 18.2549 21.6893 18.3962C21.5551 18.5374 21.3742 18.6157 21.1868 18.6157H20.1068H19.9189L20.0239 18.7716C20.2285 19.0753 20.3913 19.4081 20.5074 19.7601Z" fill="#E7503D" stroke="white" stroke-width="0.2"/>
</g>
<defs>
<clipPath id="clip0_8595_18926">
<rect width="36" height="36" fill="white"/>
</clipPath>
</defs>
</svg>
