<svg width="136" height="126" viewBox="0 0 136 126" fill="none" xmlns="http://www.w3.org/2000/svg">
<path d="M0.874839 73.8147H0.472534V79.2593H0.874839V73.8147Z" fill="#407BFF"/>
<path d="M0.874839 80.8838H0.472534V83.1362H0.874839V80.8838Z" fill="#407BFF"/>
<path d="M1.88062 53.9158H67.6696V125H3.75938C2.72143 125 1.88062 124.153 1.88062 123.108V53.9158Z" fill="#E1E2C4"/>
<path opacity="0.2" d="M67.6696 53.9158H1.88062V58.9594H39.7295L40.9847 125L41.8657 58.9594H67.6696V53.9158Z" fill="black"/>
<path d="M1.30932 43.1159H67.6695V57.5215H1.30932C0.790345 57.5215 0.371948 57.0962 0.371948 56.5776V44.0639C0.371948 43.5413 0.794369 43.12 1.30932 43.12V43.1159Z" fill="#E1E2C4"/>
<path d="M27.2097 125L26.5258 43.1156H40.8277L41.5156 125H27.2097Z" fill="#E7503D"/>
<path d="M93.5821 125.004H67.6696V53.9198H95.4608L95.4608 123.108C95.4608 124.153 94.62 125 93.5821 125V125.004Z" fill="#E1E2C4"/>
<path opacity="0.2" d="M93.5821 125.004H67.6696V53.9198H95.4608L95.4608 123.108C95.4608 124.153 94.62 125 93.5821 125V125.004Z" fill="black"/>
<path opacity="0.2" d="M67.6696 53.9158H95.4608V58.9594H79.9479L77.8398 125L78.0732 58.9594H67.6696V53.9158Z" fill="black"/>
<path d="M96.0321 57.5172L67.6696 57.5172V43.1116H96.0321C96.5511 43.1116 96.9695 43.5369 96.9695 44.0555V56.5693C96.9695 57.0919 96.5471 57.5132 96.0321 57.5132V57.5172Z" fill="#E1E2C4"/>
<path opacity="0.2" d="M96.0321 57.5172L67.6696 57.5172V43.1116H96.0321C96.5511 43.1116 96.9695 43.5369 96.9695 44.0555V56.5693C96.9695 57.0919 96.5471 57.5132 96.0321 57.5132V57.5172Z" fill="black"/>
<path d="M77.8398 125L79.0427 43.1156H87.9699L86.771 125H77.8398Z" fill="#E7503D"/>
<path opacity="0.2" d="M77.8398 125L79.0427 43.1156H87.9699L86.771 125H77.8398Z" fill="#E7503D"/>
<path d="M82.5024 15.9451L82.5185 15.9248H70.7954C70.3689 15.9248 69.7333 16.0909 68.8562 16.4596C56.9882 21.4667 51.2192 34.5881 48.6686 43.1116H60.6412C60.6412 43.1116 88.9755 15.1267 82.4984 15.941L82.5024 15.9451Z" fill="#E7503D"/>
<path opacity="0.5" d="M60.6451 43.1156C60.6451 32.044 68.9648 21.4667 80.8328 16.4636C92.7008 11.4565 60.6451 43.1156 60.6451 43.1156Z" fill="#E36B5C"/>
<path d="M85.5558 22.9413L85.576 22.9251H76.8701C76.5523 22.9251 76.0373 23.0466 75.281 23.3221C65.0423 27.041 57.0244 36.7838 52.7036 43.1116H61.5946C61.5946 43.1116 90.5967 22.3336 85.5599 22.9372L85.5558 22.9413Z" fill="#E7503D"/>
<path opacity="0.5" d="M61.5946 43.1156C65.7826 32.1777 73.9333 27.041 84.172 23.3261C94.4106 19.6073 61.5946 43.1156 61.5946 43.1156Z" fill="#EF8383"/>
<path d="M27.0729 12.4733L27.0568 12.449H15.3416C14.9072 12.449 14.5451 12.6353 14.2755 13.0526C10.6146 18.6998 26.3608 33.4984 37.7822 43.1116H49.7548C49.7548 43.1116 32.2143 11.5577 27.0729 12.4733Z" fill="#E7503D"/>
<path opacity="0.5" d="M49.7549 43.1156C38.3334 33.5024 22.5872 18.7039 26.2482 13.0567C29.9092 7.40946 49.7549 43.1156 49.7549 43.1156Z" fill="#E36B5C"/>
<path d="M39.299 20.3648L39.291 20.3486H30.5931C30.2713 20.3486 29.9655 20.4864 29.6799 20.7983C25.7977 24.9912 34.4432 35.9777 40.9444 43.1157H49.8354C49.8354 43.1157 43.306 19.6843 39.299 20.3648Z" fill="#E7503D"/>
<path opacity="0.5" d="M49.8353 43.1157C43.3341 35.9777 34.6885 24.9911 38.5708 20.7983C42.453 16.6054 49.8353 43.1157 49.8353 43.1157Z" fill="#E36B5C"/>
<path d="M124.455 119.065L127.529 118.069L126.052 110.635L122.979 111.636L124.455 119.065Z" fill="#FF8B7B"/>
<path d="M100.079 121.682H103.31L104.167 114.151H100.94L100.079 121.682Z" fill="#FF8B7B"/>
<path d="M103.619 121.305H99.6808C99.5481 121.305 99.4395 121.399 99.4153 121.528L98.8963 124.417C98.844 124.716 99.0895 125 99.3912 124.996C100.658 124.976 101.58 124.899 103.173 124.899C104.154 124.899 107.119 125 108.475 125C109.831 125 109.952 123.651 109.392 123.529C106.882 122.983 104.975 122.225 104.15 121.504C104.002 121.374 103.813 121.305 103.619 121.305Z" fill="#263238"/>
<path d="M127.392 117.716L124.036 118.806C123.912 118.846 123.831 118.968 123.843 119.102L124.117 122.051C124.145 122.355 124.447 122.557 124.736 122.456C125.939 122.043 127.665 121.403 129.19 120.908C130.968 120.329 132.026 120.037 134.11 119.357C135.373 118.948 135.309 117.55 134.746 117.603C132.171 117.854 130.703 118.328 128.212 117.712C127.943 117.647 127.661 117.627 127.396 117.712L127.392 117.716Z" fill="#263238"/>
<path d="M111.207 23.0101C111.617 23.9216 112.056 24.902 112.51 25.8418C112.969 26.7857 113.42 27.7296 113.902 28.6573C114.377 29.585 114.864 30.5046 115.375 31.3959C115.874 32.2992 116.413 33.1581 116.964 33.9926C117.246 34.3937 117.519 34.815 117.817 35.1877L118.255 35.7508C118.352 35.8764 118.436 35.9736 118.525 36.0586C118.698 36.2247 118.839 36.3301 119.028 36.403C119.217 36.4719 119.478 36.5083 119.808 36.4719C120.472 36.3989 121.317 36.0505 122.13 35.5766C122.54 35.3376 122.95 35.0702 123.353 34.7826C123.751 34.499 124.173 34.1708 124.523 33.8913L126.394 35.4469C126.048 35.9898 125.722 36.4394 125.34 36.9013C124.962 37.355 124.555 37.7966 124.105 38.2098C123.658 38.627 123.168 39.0159 122.616 39.3765C122.065 39.737 121.45 40.049 120.734 40.2758C120.026 40.5027 119.189 40.6202 118.316 40.4986C117.447 40.3892 116.582 40.0287 115.902 39.5385C115.56 39.2955 115.25 39.02 114.985 38.7486L114.377 38.0801C113.967 37.6305 113.617 37.1727 113.247 36.7149C111.847 34.8595 110.66 32.9393 109.586 30.9745C109.051 29.9901 108.54 29.0017 108.065 27.993C107.586 26.9802 107.128 25.9958 106.693 24.9141L111.207 23.0101Z" fill="#FF8B7B"/>
<path d="M105.297 23.3018C104.718 26.3563 108.487 30.7152 108.487 30.7152L114.019 28.317C114.019 28.317 113.448 24.8209 111.235 22.2971C108.528 19.2061 105.929 19.9596 105.297 23.2977V23.3018Z" fill="#DE5849"/>
<path opacity="0.2" d="M108.282 24.3834C106.774 23.8406 105.659 24.0188 105.257 24.3996C105.53 27.3002 108.483 30.7193 108.483 30.7193L112.402 29.0219C112.104 27.6567 110.644 25.2301 108.282 24.3834Z" fill="black"/>
<path d="M124.069 34.5881L125.835 30.8408L128.313 33.4497C128.313 33.4497 127.609 36.4394 125.288 36.0586L124.069 34.5881Z" fill="#FF8B7B"/>
<path d="M127.251 29.0786L129.166 31.4687L128.309 33.4497L125.831 30.8368L127.251 29.0786Z" fill="#FF8B7B"/>
<path opacity="0.2" d="M126.052 110.639L126.812 114.467L123.739 115.468L122.974 111.635L126.052 110.639Z" fill="black"/>
<path opacity="0.2" d="M100.94 114.151H104.171L103.724 118.032H100.494L100.94 114.151Z" fill="black"/>
<path d="M90.806 23.3504C95.4607 35.301 96.032 48.4184 96.5992 51.0273C99.0935 50.5938 108.495 48.9532 113.617 48.0579C114.015 31.9022 109.996 22.9696 108.918 20.8792C108.761 20.5754 108.463 20.3769 108.125 20.3566C107.655 20.3242 106.902 20.2877 106.021 20.2837C105.546 20.2837 105.036 20.2877 104.505 20.312C104.211 20.3242 103.913 20.3445 103.611 20.3647C101.668 20.5227 98.5303 21.1466 96.378 21.6286C95.9274 21.7299 95.4687 21.8474 95.0262 21.9649C94.6159 22.0783 94.2136 22.1958 93.8354 22.3092C92.1216 22.8318 90.806 23.3504 90.806 23.3504Z" fill="#DE5849"/>
<path opacity="0.2" d="M92.4556 28.155C93.0188 30.0266 93.5016 31.8901 93.9079 33.6969C94.443 30.4277 94.6803 27.0693 94.6803 27.0693L92.4556 28.155Z" fill="black"/>
<path d="M95.7183 13.3523C96.5792 15.6168 97.774 19.83 96.4142 21.6813C97.8988 22.7265 99.8017 23.9013 102.586 23.5164C105.366 23.1316 104.553 21.3005 103.652 20.4174C100.948 20.2472 100.683 18.2946 100.819 16.3947L95.7223 13.3523H95.7183Z" fill="#FF8B7B"/>
<path d="M104.396 24.2862C104.396 24.2862 106.548 22.3296 104.191 20.2797C103.873 20.2149 103.277 20.3769 103.277 20.3769C103.277 20.3769 105.925 22.6536 102.911 23.4558C99.1297 23.2329 96.4021 21.4626 96.4021 21.4626C96.4021 21.4626 95.9917 21.5517 95.7222 21.7381C96.5549 23.4112 102.187 24.7237 102.187 24.7237C102.187 24.7237 102.252 24.3348 102.453 23.9662C102.634 24.4888 103.265 26.2024 103.748 28.7708C104.082 28.7505 104.871 28.5155 104.871 28.5155C104.871 28.5155 104.255 25.3436 103.676 23.7393C104.138 23.9905 104.4 24.2781 104.4 24.2781L104.396 24.2862Z" fill="white"/>
<path opacity="0.2" d="M97.7982 14.5919L100.815 16.3906C100.779 16.8403 100.771 17.294 100.815 17.7234C99.7976 17.7518 98.2488 16.8929 97.9631 15.868C97.8223 15.3576 97.758 14.8512 97.7982 14.5919Z" fill="black"/>
<path d="M101.749 10.1601C104.114 9.25265 103.869 3.15983 100.224 4.05917C97.766 4.66684 98.0194 5.41628 98.466 7.00836C98.9125 8.60043 100.248 10.7353 101.749 10.1601Z" fill="#263238"/>
<path d="M94.8331 9.87252C95.5733 13.0121 95.8469 14.8877 97.7216 16.2408C100.538 18.2744 104.179 16.1395 104.384 12.842C104.569 9.87252 103.326 5.23808 100.027 4.51294C96.7722 3.79995 94.0968 6.73698 94.8371 9.87657L94.8331 9.87252Z" fill="#FF8B7B"/>
<path d="M95.2957 12.1491C97.6612 11.2417 96.752 5.27041 93.1112 6.1738C90.6531 6.78147 91.0755 8.19529 91.7715 9.59291C92.5037 11.0756 93.7991 12.7244 95.2997 12.1491H95.2957Z" fill="#263238"/>
<path d="M100.691 1.58396C100.071 -1.42946e-05 96.8688 -1.14242 96.2814 1.94045C93.59 1.7541 87.1652 7.0124 94.7889 6.99214C98.5625 7.9482 104.142 5.85784 104.227 3.65811C104.311 1.45837 101.612 0.664362 100.691 1.58396Z" fill="#263238"/>
<path d="M94.0326 12.9067C94.4751 13.5792 95.1711 13.9884 95.7947 14.1139C96.7361 14.3003 97.0981 13.405 96.7441 12.5259C96.4263 11.7319 95.5533 10.6827 94.6521 10.8933C93.763 11.0999 93.5216 12.1411 94.0326 12.9108V12.9067Z" fill="#FF8B7B"/>
<path d="M127.738 113.382L122.532 115.071C122.532 115.071 117.354 96.1807 115.391 86.2434C114.796 83.2213 113.138 79.3485 111.666 74.9004C109.811 69.2978 107.582 63.2657 105.784 58.5462C103.885 53.5755 102.489 50.0065 102.489 50.0065L113.617 48.062C113.617 48.062 123.212 74.236 124.547 84.068C125.939 94.2929 127.734 113.386 127.734 113.386L127.738 113.382Z" fill="#263238"/>
<path opacity="0.2" d="M111.666 74.8962C109.811 69.2936 107.582 63.2615 105.784 58.542L106.697 55.8845C109.831 58.939 111.637 69.2166 111.67 74.8962H111.666Z" fill="black"/>
<path d="M108.314 48.9856C108.314 48.9856 109.22 76.9826 108.817 86.5026C108.379 96.926 105.217 117.283 105.217 117.283H99.3027C99.3027 117.283 100.618 98.8179 100.494 88.6497C100.349 77.0636 96.5992 51.0314 96.5992 51.0314L108.314 48.9856Z" fill="#263238"/>
<path d="M105.925 117.412H98.9608V115.318L106.745 115.18L105.925 117.412Z" fill="#407BFF"/>
<path d="M128.43 113.288L122.226 115.306L121.582 113.288L128.478 110.927L128.43 113.288Z" fill="#407BFF"/>
<path d="M104.71 121.873C104.412 121.873 104.086 121.812 103.861 121.755C103.829 121.747 103.808 121.723 103.8 121.694C103.792 121.662 103.808 121.634 103.833 121.617C103.945 121.544 104.963 120.9 105.329 121.083C105.386 121.111 105.458 121.172 105.47 121.301C105.486 121.476 105.442 121.609 105.329 121.707C105.188 121.832 104.959 121.873 104.714 121.873H104.71ZM104.078 121.646C104.629 121.755 105.052 121.735 105.221 121.589C105.297 121.524 105.325 121.431 105.313 121.31C105.305 121.249 105.281 121.228 105.261 121.22C105.072 121.123 104.488 121.403 104.078 121.65V121.646Z" fill="#407BFF"/>
<path d="M103.877 121.759C103.877 121.759 103.849 121.755 103.837 121.747C103.812 121.731 103.796 121.706 103.8 121.678C103.8 121.638 103.841 120.702 104.203 120.39C104.295 120.309 104.404 120.276 104.525 120.293C104.71 120.317 104.762 120.43 104.778 120.495C104.863 120.856 104.243 121.569 103.917 121.751C103.905 121.759 103.893 121.759 103.881 121.759H103.877ZM104.476 120.443C104.412 120.443 104.356 120.463 104.303 120.511C104.07 120.71 103.99 121.257 103.965 121.528C104.287 121.273 104.677 120.734 104.629 120.524C104.625 120.503 104.613 120.459 104.512 120.447C104.512 120.447 104.488 120.447 104.476 120.447V120.443Z" fill="#407BFF"/>
<path d="M127.83 118.044C127.802 118.044 127.774 118.028 127.762 118C127.746 117.971 127.754 117.935 127.778 117.911C127.895 117.793 128.928 116.76 129.367 116.849C129.451 116.866 129.516 116.922 129.548 117.007C129.604 117.149 129.6 117.283 129.524 117.408C129.283 117.818 128.361 117.984 127.838 118.044C127.838 118.044 127.83 118.044 127.826 118.044H127.83ZM129.307 116.999C129.049 116.995 128.462 117.469 128.047 117.862C128.764 117.757 129.258 117.562 129.395 117.331C129.443 117.25 129.447 117.165 129.407 117.068C129.391 117.032 129.371 117.011 129.335 117.003C129.327 117.003 129.315 117.003 129.303 117.003L129.307 116.999Z" fill="#407BFF"/>
<path d="M127.834 118.044C127.834 118.044 127.818 118.044 127.814 118.044C127.79 118.036 127.77 118.016 127.762 117.988C127.754 117.951 127.569 117.092 127.858 116.639C127.947 116.501 128.067 116.416 128.22 116.383C128.425 116.339 128.518 116.424 128.558 116.501C128.727 116.833 128.204 117.741 127.89 118.028C127.874 118.04 127.858 118.048 127.838 118.048L127.834 118.044ZM128.329 116.521C128.309 116.521 128.281 116.521 128.248 116.529C128.136 116.554 128.047 116.614 127.983 116.72C127.794 117.015 127.846 117.55 127.882 117.805C128.188 117.453 128.518 116.764 128.417 116.566C128.409 116.554 128.393 116.521 128.329 116.521Z" fill="#407BFF"/>
<path d="M94.7326 27.3771C94.3423 28.3089 93.9159 29.3135 93.5297 30.2979C93.1475 31.2905 92.7573 32.2749 92.3992 33.2714C92.0412 34.2639 91.6871 35.2605 91.3814 36.253C91.0555 37.2455 90.786 38.2421 90.5526 39.2265C90.444 39.7167 90.3273 40.2069 90.2549 40.6849L90.1905 41.0454L90.1745 41.1346C90.1745 41.1346 90.1745 41.1184 90.1745 41.1103C90.1664 41.0941 90.1745 41.0576 90.1624 41.0292C90.1463 40.8996 90.0578 40.7416 90.0055 40.7011C89.8808 40.6241 90.0618 40.855 90.3756 41.013C90.6894 41.1791 91.0998 41.3493 91.5423 41.487C93.3446 42.042 95.513 42.3215 97.5728 42.5808L97.7016 45.0196C96.551 45.2383 95.4447 45.3639 94.29 45.4206C93.1394 45.4733 91.9728 45.4652 90.7337 45.2869C90.1141 45.1937 89.4704 45.0722 88.7785 44.8129C88.4325 44.6833 88.0704 44.5253 87.6882 44.2863C87.306 44.0432 86.8957 43.7394 86.5175 43.2452C86.1434 42.7672 85.8537 42.0744 85.7853 41.4019C85.7732 41.2399 85.7612 41.0657 85.7652 40.9118L85.7773 40.6808L85.7893 40.5674L85.8336 40.1137C85.8819 39.4979 85.9744 38.9146 86.0629 38.3272C86.4612 35.9978 87.0807 33.8021 87.7848 31.647C88.1509 30.5775 88.525 29.512 88.9434 28.4628C89.3658 27.4095 89.7762 26.3887 90.2791 25.3273L94.7285 27.3812L94.7326 27.3771Z" fill="#FF8B7B"/>
<path d="M90.806 23.3504C89.1324 24.2619 87.9697 29.7389 87.9697 29.7389L92.9181 32.8015C92.9181 32.8015 94.1974 30.2737 95.1428 28.1874C96.9452 24.2051 94.0968 21.5598 90.806 23.3504Z" fill="#DE5849"/>
<path d="M97.1625 42.5241L100.417 42.3823L98.9728 45.4854C98.9728 45.4854 95.9073 45.3031 96.3096 43.8205L97.1585 42.5201L97.1625 42.5241Z" fill="#FF8B7B"/>
<path d="M102.561 44.5334L100.94 46.5671L98.9729 45.4854L100.417 42.3823L102.561 44.5334Z" fill="#FF8B7B"/>
</svg>
