<svg width="38" height="38" viewBox="0 0 38 38" fill="none" xmlns="http://www.w3.org/2000/svg">
<path d="M27.5988 29.3004L29.2988 29.3004L29.2988 27.6004L27.5988 27.6004L27.5988 29.3004Z" fill="#E7503D" stroke="#E7503D"/>
<path d="M30.65 13.5996L30.65 13.0996L31.15 13.0996L32 13.0996L32 5.99965L24.4 5.99965L23.55 5.99965L23.55 6.34965L24.4 6.34965L24.9 6.34965L24.9 6.84965L24.9 10.8996L24.9 11.3996L24.4 11.3996L22.2 11.3996L22.2 12.2496L22.2 13.0996L22.55 13.0996L22.55 12.2496L22.55 11.7496L23.05 11.7496L24.4 11.7496L24.9 11.7496L24.9 12.2496L24.9 13.0996L29.8 13.0996L30.3 13.0996L30.3 13.5996L30.3 14.4496L30.65 14.4496L30.65 13.5996ZM25.25 6.84965L25.25 6.34965L25.75 6.34965L31.15 6.34965L31.65 6.34965L31.65 6.84965L31.65 12.2496L31.65 12.7496L31.15 12.7496L25.75 12.7496L25.25 12.7496L25.25 12.2496L25.25 6.84965Z" fill="#E7503D" stroke="#E7503D"/>
<path d="M27.5988 10.3992L29.2988 10.3992L29.2988 8.69923L27.5988 8.69923L27.5988 10.3992Z" fill="#E7503D" stroke="#E7503D"/>
<path d="M8.70039 29.3004L10.4004 29.3004L10.4004 27.6004L8.70039 27.6004L8.70039 29.3004Z" fill="#E7503D" stroke="#E7503D"/>
<path d="M12.7496 13.1008L13.0996 13.1008L13.0996 12.7508L12.7496 12.7508L12.7496 13.1008Z" fill="#E7503D" stroke="#E7503D"/>
<path d="M5.99961 19.8508L6.34961 19.8508L6.34961 19.5008L5.99961 19.5008L5.99961 19.8508Z" fill="#E7503D" stroke="#E7503D"/>
<path d="M11.4 18.5L11.75 18.5L11.75 18.15L11.4 18.15L11.4 18.5Z" fill="#E7503D" stroke="#E7503D"/>
<path d="M8.69883 18.5L9.04883 18.5L9.04883 18.15L8.69883 18.15L8.69883 18.5Z" fill="#E7503D" stroke="#E7503D"/>
<path d="M15.4488 6.35077L15.7988 6.35077L15.7988 6.00077L15.4488 6.00077L15.4488 6.35077Z" fill="#E7503D" stroke="#E7503D"/>
<path d="M15.4488 32L15.7988 32L15.7988 31.65L15.4488 31.65L15.4488 32Z" fill="#E7503D" stroke="#E7503D"/>
<path d="M22.1988 32L22.5488 32L22.5488 31.65L22.1988 31.65L22.1988 32Z" fill="#E7503D" stroke="#E7503D"/>
<path d="M29.3004 17.6508L29.3004 17.1508L29.8004 17.1508L30.6504 17.1508L30.6504 16.8008L29.8004 16.8008L28.9504 16.8008L28.9504 19.8508L29.3004 19.8508L29.3004 17.6508Z" fill="#E7503D" stroke="#E7503D"/>
<path d="M19.8512 6.85036L19.8512 6.35036L20.3512 6.35036L21.2012 6.35036L21.2012 6.00037L20.3512 6.00037L19.5012 6.00037L19.5012 6.85036L19.5012 7.35036L19.0012 7.35036L18.1512 7.35036L18.1512 8.20036L18.1512 8.70036L17.6512 8.70036L16.8012 8.70036L16.8012 9.05036L17.6512 9.05036L18.1512 9.05036L18.1512 9.55036L18.1512 12.2504L18.1512 12.7504L17.6512 12.7504L16.3012 12.7504L15.8012 12.7504L15.8012 12.2504L15.8012 10.0504L13.6012 10.0504L13.1012 10.0504L13.1012 9.55036L13.1012 8.70036L12.7512 8.70036L12.7512 9.55036L12.7512 10.0504L12.2512 10.0504L10.0512 10.0504L10.0512 13.6004L10.0512 14.1004L9.55118 14.1004L8.70118 14.1004L8.70118 14.4504L9.55118 14.4504L10.0512 14.4504L10.0512 14.9504L10.0512 15.8004L12.2512 15.8004L12.7512 15.8004L12.7512 16.3004L12.7512 17.1504L13.1012 17.1504L13.1012 16.3004L13.1012 15.8004L13.6012 15.8004L14.9512 15.8004L15.4512 15.8004L15.4512 16.3004L15.4512 19.0004L15.4512 19.5004L14.9512 19.5004L14.1012 19.5004L14.1012 19.8504L14.9512 19.8504L15.4512 19.8504L15.4512 20.3504L15.4512 22.5504L15.8012 22.5504L15.8012 21.7004L15.8012 21.2004L16.3012 21.2004L17.1512 21.2004L17.1512 20.8504L16.3012 20.8504L15.8012 20.8504L15.8012 20.3504L15.8012 19.0004L15.8012 18.5004L16.3012 18.5004L17.1512 18.5004L17.1512 18.1504L16.3012 18.1504L15.8012 18.1504L15.8012 17.6504L15.8012 16.3004L15.8012 13.6004L15.8012 13.1004L16.3012 13.1004L17.6512 13.1004L18.1512 13.1004L18.1512 13.6004L18.1512 17.1504L18.5012 17.1504L18.5012 14.9504L18.5012 14.4504L19.0012 14.4504L19.8512 14.4504L19.8512 14.1004L19.0012 14.1004L18.5012 14.1004L18.5012 13.6004L18.5012 9.55036L18.5012 9.05036L19.0012 9.05036L19.8512 9.05036L19.8512 6.85036ZM14.9512 10.4004L15.4512 10.4004L15.4512 10.9004L15.4512 14.9504L15.4512 15.4504L14.9512 15.4504L10.9012 15.4504L10.4012 15.4504L10.4012 14.9504L10.4012 10.9004L10.4012 10.4004L10.9012 10.4004L14.9512 10.4004Z" fill="#E7503D" stroke="#E7503D"/>
<path d="M22.5504 16.2992L22.5504 15.7992L23.0504 15.7992L23.9004 15.7992L23.9004 14.9492L23.9004 14.0992L23.5504 14.0992L23.5504 14.9492L23.5504 15.4492L23.0504 15.4492L22.2004 15.4492L22.2004 16.2992L22.2004 16.7992L21.7004 16.7992L20.8504 16.7992L20.8504 17.1492L21.7004 17.1492L22.5504 17.1492L22.5504 16.2992Z" fill="#E7503D" stroke="#E7503D"/>
<path d="M5.99961 17.1492L6.34961 17.1492L6.34961 15.4492L5.99961 15.4492L5.99961 17.1492Z" fill="#E7503D" stroke="#E7503D"/>
<path d="M30.3004 21.1996L30.6504 21.1996L30.6504 20.8496L30.3004 20.8496L30.3004 21.1996Z" fill="#E7503D" stroke="#E7503D"/>
<path d="M20.8512 10.3992L21.2012 10.3992L21.2012 10.0492L20.8512 10.0492L20.8512 10.3992Z" fill="#E7503D" stroke="#E7503D"/>
<path d="M22.1988 9.05035L22.5488 9.05035L22.5488 8.70036L22.1988 8.70036L22.1988 9.05035Z" fill="#E7503D" stroke="#E7503D"/>
<path d="M15.4488 26.6008L15.7988 26.6008L15.7988 26.2508L15.4488 26.2508L15.4488 26.6008Z" fill="#E7503D" stroke="#E7503D"/>
<path d="M6.85118 24.9L6.35118 24.9L6.35118 24.4L6.35118 22.2L6.00118 22.2L6.00118 24.4L6.00118 32L13.1012 32L13.1012 31.15L13.1012 30.65L13.6012 30.65L14.4512 30.65L14.4512 29.8L14.4512 28.95L13.6012 28.95L13.1012 28.95L13.1012 28.45L13.1012 24.4L13.1012 23.9L13.6012 23.9L14.4512 23.9L14.4512 23.55L13.6012 23.55L12.7512 23.55L12.7512 24.4L12.7512 24.9L12.2512 24.9L6.85118 24.9ZM6.35118 25.75L6.35118 25.25L6.85118 25.25L12.2512 25.25L12.7512 25.25L12.7512 25.75L12.7512 31.15L12.7512 31.65L12.2512 31.65L6.85118 31.65L6.35118 31.65L6.35118 31.15L6.35118 25.75Z" fill="#E7503D" stroke="#E7503D"/>
<path d="M23.5504 23.8992L23.9004 23.8992L23.9004 23.5492L23.5504 23.5492L23.5504 23.8992Z" fill="#E7503D" stroke="#E7503D"/>
<path d="M24.4 30.65L24.9 30.65L24.9 31.15L24.9 32L32 32L32 24.4L32 23.05L32 22.2L31.65 22.2L31.65 23.05L31.65 24.4L31.65 24.9L31.15 24.9L28.45 24.9L27.95 24.9L27.95 24.4L27.95 23.55L27.6 23.55L27.6 24.4L27.6 24.9L27.1 24.9L24.9 24.9L24.9 27.1L24.9 27.6L24.4 27.6L23.55 27.6L23.55 27.95L24.4 27.95L24.9 27.95L24.9 28.45L24.9 29.8L24.9 30.3L24.4 30.3L23.55 30.3L23.55 30.65L24.4 30.65ZM25.25 25.75L25.25 25.25L25.75 25.25L31.15 25.25L31.65 25.25L31.65 25.75L31.65 31.15L31.65 31.65L31.15 31.65L25.75 31.65L25.25 31.65L25.25 31.15L25.25 25.75Z" fill="#E7503D" stroke="#E7503D"/>
<path d="M27.6012 15.8004L27.9512 15.8004L27.9512 15.4504L27.6012 15.4504L27.6012 15.8004Z" fill="#E7503D" stroke="#E7503D"/>
<path d="M31.65 18.5L32 18.5L32 18.15L31.65 18.15L31.65 18.5Z" fill="#E7503D" stroke="#E7503D"/>
<path d="M25.7496 18.15L25.2496 18.15L25.2496 17.65L25.2496 16.8L24.8996 16.8L24.8996 20.35L24.8996 20.85L24.3996 20.85L21.6996 20.85L21.1996 20.85L21.1996 20.35L21.1996 19.5L20.3496 19.5L19.8496 19.5L19.8496 19L19.8496 18.15L19.4996 18.15L19.4996 19L19.4996 19.85L20.3496 19.85L20.8496 19.85L20.8496 20.35L20.8496 21.7L20.8496 23.05L20.8496 23.55L20.3496 23.55L18.9996 23.55L18.4996 23.55L18.4996 23.05L18.4996 22.2L18.1496 22.2L18.1496 24.4L18.1496 24.9L17.6496 24.9L16.7996 24.9L16.7996 25.25L17.6496 25.25L18.1496 25.25L18.1496 25.75L18.1496 27.1L18.1496 27.6L17.6496 27.6L16.7996 27.6L16.7996 27.95L17.6496 27.95L18.1496 27.95L18.1496 28.45L18.1496 32L18.4996 32L18.4996 28.45L18.4996 27.95L18.9996 27.95L20.3496 27.95L20.8496 27.95L20.8496 28.45L20.8496 30.65L21.1996 30.65L21.1996 27.1L21.1996 26.6L21.6996 26.6L22.5496 26.6L22.5496 26.25L21.6996 26.25L21.1996 26.25L21.1996 25.75L21.1996 21.7L21.1996 21.2L21.6996 21.2L24.3996 21.2L24.8996 21.2L24.8996 21.7L24.8996 22.55L25.7496 22.55L26.5996 22.55L26.5996 22.2L25.7496 22.2L25.2496 22.2L25.2496 21.7L25.2496 19L25.2496 18.5L25.7496 18.5L26.5996 18.5L26.5996 18.15L25.7496 18.15ZM18.4996 24.4L18.4996 23.9L18.9996 23.9L20.3496 23.9L20.8496 23.9L20.8496 24.4L20.8496 27.1L20.8496 27.6L20.3496 27.6L18.9996 27.6L18.4996 27.6L18.4996 27.1L18.4996 24.4Z" fill="#E7503D" stroke="#E7503D"/>
<path d="M10.8996 20.8504L10.3996 20.8504L10.3996 20.3504L10.3996 19.5004L10.0496 19.5004L10.0496 20.3504L10.0496 20.8504L9.54961 20.8504L8.69961 20.8504L8.69961 22.5504L9.04961 22.5504L9.04961 21.7004L9.04961 21.2004L9.54961 21.2004L10.8996 21.2004L11.3996 21.2004L11.3996 21.7004L11.3996 22.5504L11.7496 22.5504L11.7496 21.7004L11.7496 21.2004L12.2496 21.2004L13.0996 21.2004L13.0996 20.8504L12.2496 20.8504L10.8996 20.8504Z" fill="#E7503D" stroke="#E7503D"/>
<path d="M8.19883 8.70077L7.69883 8.70077L7.69883 8.20077L7.69883 6.00077L6.84883 6.00077L5.99883 6.00077L5.99883 6.35077L6.84883 6.35077L7.34883 6.35077L7.34883 6.85077L7.34883 9.55077L7.34883 10.0508L6.84883 10.0508L5.99883 10.0508L5.99883 10.4008L6.84883 10.4008L7.34883 10.4008L7.34883 10.9008L7.34883 13.1008L7.69883 13.1008L7.69883 9.55077L7.69883 9.05077L8.19883 9.05077L9.04883 9.05077L9.04883 8.70077L8.19883 8.70077Z" fill="#E7503D" stroke="#E7503D"/>
<path d="M11.7496 6.84965L11.7496 6.34965L12.2496 6.34965L13.0996 6.34965L13.0996 5.99965L12.2496 5.99965L11.3996 5.99965L11.3996 7.69965L11.7496 7.69965L11.7496 6.84965Z" fill="#E7503D" stroke="#E7503D"/>
<path d="M37 11.125L37 1L26.875 1" stroke="#E7503D" stroke-width="1.5" stroke-linecap="round"/>
<path d="M1 26.875L1 37L11.125 37" stroke="#E7503D" stroke-width="1.5" stroke-linecap="round"/>
<path d="M11.125 1H1V11.125" stroke="#E7503D" stroke-width="1.5" stroke-linecap="round"/>
<path d="M26.875 37L37 37L37 26.875" stroke="#E7503D" stroke-width="1.5" stroke-linecap="round"/>
</svg>
