<svg width="24" height="24" viewBox="0 0 24 24" fill="none" xmlns="http://www.w3.org/2000/svg">
<path d="M3 7.5V5C3 3.89543 3.89543 3 5 3H7.5M16.5 3H19C20.1046 3 21 3.89543 21 5V7.5M21 16.5V19C21 20.1046 20.1046 21 19 21H16.5M7.5 21H5C3.89543 21 3 20.1046 3 19V16.5" stroke="#212121" stroke-linecap="round" stroke-linejoin="round"/>
<path d="M10.875 6.375H6.375V10.875H10.875V6.375Z" stroke="#E7503D" stroke-width="1.5" stroke-linecap="round"/>
<path d="M10.875 13.125H6.375V17.625H10.875V13.125Z" stroke="#E7503D" stroke-width="1.5" stroke-linecap="round"/>
<path d="M17.625 6.375H13.125V10.875H17.625V6.375Z" stroke="#E7503D" stroke-width="1.5" stroke-linecap="round"/>
<path d="M13.125 13.125H14.25M14.25 14.25H15.375M15.375 13.125H16.5H17.625M16.5 14.25H17.625M16.5 16.5H17.625M15.9375 14.25V15.375V16.5M13.6875 15.375V16.5H14.9192" stroke="#E7503D" stroke-width="1.5"/>
</svg>
