<svg width="28" height="28" viewBox="0 0 28 28" fill="none" xmlns="http://www.w3.org/2000/svg">
<circle cx="14" cy="14" r="13.25" stroke="#E7503D" stroke-width="1.5"/>
<path d="M20.086 8.56057C20.086 9.75043 19.1215 10.715 17.9317 10.715C16.7418 10.715 15.7773 9.75043 15.7773 8.56057C15.7773 7.37083 16.7418 6.40625 17.9317 6.40625C19.1215 6.40625 20.086 7.37083 20.086 8.56057Z" fill="#E7503D"/>
<path d="M17.9318 11.2123C16.4694 11.2123 15.2803 10.023 15.2803 8.56066C15.2803 7.09843 16.4694 5.90918 17.9318 5.90918C19.3941 5.90918 20.5832 7.09843 20.5832 8.56066C20.5832 10.023 19.3941 11.2123 17.9318 11.2123ZM17.9318 6.9035C17.0177 6.9035 16.2746 7.6473 16.2746 8.56066C16.2746 9.47415 17.0177 10.2179 17.9318 10.2179C18.8458 10.2179 19.5889 9.47415 19.5889 8.56066C19.5889 7.6473 18.8458 6.9035 17.9318 6.9035Z" fill="#E7503D"/>
<path d="M20.086 19.1667C20.086 20.3564 19.1215 21.321 17.9317 21.321C16.7418 21.321 15.7773 20.3564 15.7773 19.1667C15.7773 17.9768 16.7418 17.0122 17.9317 17.0122C19.1215 17.0122 20.086 17.9768 20.086 19.1667Z" fill="#E7503D"/>
<path d="M17.9318 21.8182C16.4694 21.8182 15.2803 20.629 15.2803 19.1667C15.2803 17.7044 16.4694 16.5151 17.9318 16.5151C19.3941 16.5151 20.5832 17.7044 20.5832 19.1667C20.5832 20.629 19.3941 21.8182 17.9318 21.8182ZM17.9318 17.5095C17.0177 17.5095 16.2746 18.2533 16.2746 19.1667C16.2746 20.0801 17.0177 20.8239 17.9318 20.8239C18.8458 20.8239 19.5889 20.0801 19.5889 19.1667C19.5889 18.2533 18.8458 17.5095 17.9318 17.5095Z" fill="#E7503D"/>
<path d="M10.806 13.8638C10.806 15.0537 9.84138 16.0181 8.65152 16.0181C7.46178 16.0181 6.49719 15.0537 6.49719 13.8638C6.49719 12.6739 7.46178 11.7095 8.65152 11.7095C9.84138 11.7095 10.806 12.6739 10.806 13.8638Z" fill="#E7503D"/>
<path d="M8.65148 16.5154C7.18925 16.5154 6 15.3262 6 13.8639C6 12.4015 7.18925 11.2124 8.65148 11.2124C10.1138 11.2124 11.3031 12.4015 11.3031 13.8639C11.3031 15.3262 10.1138 16.5154 8.65148 16.5154ZM8.65148 12.2067C7.73739 12.2067 6.99432 12.9504 6.99432 13.8639C6.99432 14.7774 7.73739 15.521 8.65148 15.521C9.5657 15.521 10.3088 14.7774 10.3088 13.8639C10.3088 12.9504 9.5657 12.2067 8.65148 12.2067Z" fill="#E7503D"/>
<path d="M10.2163 13.5457C9.98554 13.5457 9.76148 13.4256 9.63949 13.2109C9.45852 12.8934 9.56994 12.4883 9.88747 12.3066L16.0383 8.80004C16.3558 8.61774 16.7608 8.72916 16.9425 9.0479C17.1235 9.36542 17.0121 9.77045 16.6945 9.95216L10.5436 13.4587C10.4402 13.5177 10.3276 13.5457 10.2163 13.5457Z" fill="#E7503D"/>
<path d="M16.3669 19.0143C16.2554 19.0143 16.1428 18.9864 16.0394 18.9274L9.88847 15.4208C9.57095 15.2398 9.45965 14.8348 9.64062 14.5165C9.82087 14.1984 10.2265 14.0864 10.5448 14.2687L16.6957 17.7753C17.0132 17.9562 17.1245 18.3613 16.9435 18.6795C16.8209 18.8942 16.5969 19.0143 16.3669 19.0143Z" fill="#E7503D"/>
</svg>
