<svg width="21" height="25" viewBox="0 0 21 25" fill="none" xmlns="http://www.w3.org/2000/svg">
<path d="M5.57462 6.38511C5.48838 6.29885 5.43993 6.18187 5.43993 6.05989C5.43993 5.93792 5.48838 5.82094 5.57462 5.73467L10.1746 1.13468C10.2609 1.04845 10.3779 1 10.4998 1C10.6218 1 10.7388 1.04845 10.825 1.13468L15.425 5.73467C15.469 5.77711 15.504 5.82787 15.5281 5.88399C15.5522 5.94011 15.5649 6.00047 15.5655 6.06155C15.566 6.12263 15.5543 6.1832 15.5312 6.23973C15.5081 6.29626 15.4739 6.34762 15.4307 6.39081C15.3876 6.434 15.3362 6.46816 15.2797 6.49129C15.2231 6.51442 15.1626 6.52606 15.1015 6.52553C15.0404 6.525 14.98 6.51231 14.9239 6.4882C14.8678 6.46409 14.817 6.42905 14.7746 6.38511L10.9598 2.57034V19.8599C10.9598 19.9819 10.9114 20.0989 10.8251 20.1851C10.7388 20.2714 10.6218 20.3199 10.4998 20.3199C10.3778 20.3199 10.2608 20.2714 10.1746 20.1851C10.0883 20.0989 10.0398 19.9819 10.0398 19.8599V2.57034L6.22505 6.38511C6.13879 6.47135 6.02181 6.51979 5.89984 6.51979C5.77786 6.51979 5.66088 6.47135 5.57462 6.38511ZM18.7798 8.35989H16.0198C15.8978 8.35989 15.7808 8.40835 15.6945 8.49462C15.6083 8.58089 15.5598 8.69789 15.5598 8.81989C15.5598 8.94189 15.6083 9.05889 15.6945 9.14516C15.7808 9.23142 15.8978 9.27989 16.0198 9.27989H18.7798C18.9018 9.27989 19.0188 9.32835 19.1051 9.41462C19.1913 9.50089 19.2398 9.61789 19.2398 9.73989V22.6199C19.2398 22.7419 19.1913 22.8589 19.1051 22.9451C19.0188 23.0314 18.9018 23.0799 18.7798 23.0799H2.21984C2.09784 23.0799 1.98084 23.0314 1.89457 22.9451C1.80831 22.8589 1.75984 22.7419 1.75984 22.6199V9.73989C1.75984 9.61789 1.80831 9.50089 1.89457 9.41462C1.98084 9.32835 2.09784 9.27989 2.21984 9.27989H4.97984C5.10184 9.27989 5.21884 9.23142 5.30511 9.14516C5.39137 9.05889 5.43984 8.94189 5.43984 8.81989C5.43984 8.69789 5.39137 8.58089 5.30511 8.49462C5.21884 8.40835 5.10184 8.35989 4.97984 8.35989H2.21984C1.85384 8.35989 1.50284 8.50528 1.24404 8.76408C0.985236 9.02288 0.839844 9.37389 0.839844 9.73989V22.6199C0.839844 22.9859 0.985236 23.3369 1.24404 23.5957C1.50284 23.8545 1.85384 23.9999 2.21984 23.9999H18.7798C19.1458 23.9999 19.4968 23.8545 19.7556 23.5957C20.0144 23.3369 20.1598 22.9859 20.1598 22.6199V9.73989C20.1598 9.37389 20.0144 9.02288 19.7556 8.76408C19.4968 8.50528 19.1458 8.35989 18.7798 8.35989Z" fill="#E7503D" stroke="#E7503D"/>
</svg>
