<svg width="20" height="13" viewBox="0 0 20 13" fill="none" xmlns="http://www.w3.org/2000/svg">
<path d="M10 1C5.00312 1 0.952393 5.79242 0.952393 6.42857C0.952393 7.06473 5.00312 11.8571 10 11.8571C14.9969 11.8571 19.0476 7.10714 19.0476 6.42857C19.0476 5.75 14.9969 1 10 1ZM10 11.1333C5.71933 11.1333 2.28833 7.35244 1.72759 6.42857C2.28833 5.5047 5.71933 1.72381 10 1.72381C14.1402 1.72381 17.7325 5.41603 18.2831 6.42857C17.7325 7.44147 14.1402 11.1333 10 11.1333ZM10 3.89524C9.49897 3.89524 9.00917 4.04382 8.59257 4.32218C8.17596 4.60055 7.85126 4.9962 7.65952 5.45911C7.46777 5.92201 7.41761 6.43138 7.51536 6.9228C7.6131 7.41422 7.85438 7.86562 8.20867 8.21991C8.56297 8.5742 9.01436 8.81548 9.50578 8.91323C9.9972 9.01098 10.5066 8.96081 10.9695 8.76907C11.4324 8.57732 11.828 8.25262 12.1064 7.83602C12.3848 7.41941 12.5333 6.92962 12.5333 6.42857C12.5333 5.75669 12.2664 5.11233 11.7913 4.63723C11.3163 4.16214 10.6719 3.89524 10 3.89524ZM10 8.2381C9.64212 8.2381 9.29227 8.13197 8.99469 7.93314C8.69712 7.7343 8.46519 7.45169 8.32823 7.12105C8.19127 6.7904 8.15544 6.42656 8.22526 6.07555C8.29508 5.72454 8.46742 5.40211 8.72049 5.14904C8.97355 4.89598 9.29598 4.72364 9.64699 4.65382C9.998 4.584 10.3618 4.61983 10.6925 4.75679C11.0231 4.89375 11.3057 5.12568 11.5046 5.42325C11.7034 5.72083 11.8095 6.07068 11.8095 6.42857C11.809 6.90832 11.6182 7.36825 11.2789 7.70749C10.9397 8.04672 10.4798 8.23754 10 8.2381Z" fill="#E7503D" stroke="#E7503D" stroke-width="0.5"/>
</svg>
