<svg width="41" height="49" viewBox="0 0 41 49" fill="none" xmlns="http://www.w3.org/2000/svg">
<path d="M14.8276 2.54619C14.6243 2.20734 14.2581 2 13.8629 2H2.98685C2.1124 2 1.57227 2.95397 2.02217 3.70381L14.1722 23.9538C14.3755 24.2927 14.7417 24.5 15.1368 24.5H26.0129C26.8874 24.5 27.4275 23.546 26.9776 22.7962L14.8276 2.54619Z" fill="#C52229"/>
<path fill-rule="evenodd" clip-rule="evenodd" d="M13.8631 0.875H2.98707C1.23816 0.875 0.157904 2.78294 1.05771 4.28261L13.2077 24.5326C13.6143 25.2103 14.3467 25.625 15.1371 25.625H26.0131C27.762 25.625 28.8423 23.7171 27.9425 22.2174L15.7925 1.96738C15.3859 1.28967 14.6535 0.875 13.8631 0.875ZM13.8631 2C14.2583 2 14.6245 2.20734 14.8278 2.54619L26.9778 22.7962C27.4277 23.546 26.8876 24.5 26.0131 24.5H15.1371C14.7419 24.5 14.3757 24.2927 14.1724 23.9538L2.02239 3.70381C1.57249 2.95397 2.11261 2 2.98707 2H13.8631Z" fill="#9B0F15"/>
<path d="M26.5474 2.54619C26.7507 2.20734 27.1169 2 27.5121 2H38.3881C39.2626 2 39.8027 2.95397 39.3528 3.70381L27.2028 23.9538C26.9995 24.2927 26.6333 24.5 26.2382 24.5H15.3621C14.4876 24.5 13.9475 23.546 14.3974 22.7962L26.5474 2.54619Z" fill="#F1333B"/>
<path fill-rule="evenodd" clip-rule="evenodd" d="M27.5119 0.875H38.3879C40.1368 0.875 41.2171 2.78294 40.3173 4.28261L28.1673 24.5326C27.7607 25.2103 27.0283 25.625 26.2379 25.625H15.3619C13.613 25.625 12.5327 23.7171 13.4325 22.2174L25.5825 1.96738C25.9891 1.28967 26.7215 0.875 27.5119 0.875ZM27.5119 2C27.1167 2 26.7505 2.20734 26.5472 2.54619L14.3972 22.7962C13.9473 23.546 14.4874 24.5 15.3619 24.5H26.2379C26.6331 24.5 26.9993 24.2927 27.2026 23.9538L39.3526 3.70381C39.8025 2.95397 39.2624 2 38.3879 2H27.5119Z" fill="#9B0F15"/>
<path fill-rule="evenodd" clip-rule="evenodd" d="M27.72 2.63853C27.9887 2.79452 28.08 3.13877 27.924 3.40742L22.8615 12.1262C22.7055 12.3948 22.3613 12.4862 22.0926 12.3302C21.824 12.1742 21.7327 11.8299 21.8886 11.5613L26.9511 2.84252C27.1071 2.57386 27.4514 2.48253 27.72 2.63853Z" fill="#FE666D"/>
<path fill-rule="evenodd" clip-rule="evenodd" d="M2.96746 2.63853C2.6988 2.79452 2.60747 3.13877 2.76347 3.40742L7.82596 12.1262C7.98196 12.3948 8.3262 12.4862 8.59486 12.3302C8.86351 12.1742 8.95484 11.8299 8.79885 11.5613L3.73635 2.84252C3.58036 2.57386 3.23611 2.48253 2.96746 2.63853Z" fill="#DF3840"/>
<path d="M13.6562 3.8457C13.6562 4.24374 13.3415 4.56641 12.9531 4.56641C12.5648 4.56641 12.25 4.24374 12.25 3.8457C12.25 3.44767 12.5648 3.125 12.9531 3.125C13.3415 3.125 13.6562 3.44767 13.6562 3.8457Z" fill="#AA161D"/>
<path d="M11.1867 4.02148C11.1867 4.5166 10.7952 4.91797 10.3121 4.91797C9.82908 4.91797 9.4375 4.5166 9.4375 4.02148C9.4375 3.52637 9.82908 3.125 10.3121 3.125C10.7952 3.125 11.1867 3.52637 11.1867 4.02148Z" fill="#AA161D"/>
<path d="M13.3742 6.58789C13.3742 7.083 12.9827 7.48437 12.4996 7.48437C12.0166 7.48437 11.625 7.083 11.625 6.58789C11.625 6.09278 12.0166 5.69141 12.4996 5.69141C12.9827 5.69141 13.3742 6.09278 13.3742 6.58789Z" fill="#AA161D"/>
<path d="M15.3746 5.36621C15.3746 5.61377 15.1788 5.81445 14.9373 5.81445C14.6958 5.81445 14.5 5.61377 14.5 5.36621C14.5 5.11865 14.6958 4.91797 14.9373 4.91797C15.1788 4.91797 15.3746 5.11865 15.3746 5.36621Z" fill="#AA161D"/>
<path d="M10.7486 6.13965C10.7486 6.38721 10.5529 6.58789 10.3113 6.58789C10.0698 6.58789 9.87402 6.38721 9.87402 6.13965C9.87402 5.89209 10.0698 5.69141 10.3113 5.69141C10.5529 5.69141 10.7486 5.89209 10.7486 6.13965Z" fill="#AA161D"/>
<path d="M8.31212 3.39746C8.31212 3.64502 8.11633 3.8457 7.87481 3.8457C7.63329 3.8457 7.4375 3.64502 7.4375 3.39746C7.4375 3.1499 7.63329 2.94922 7.87481 2.94922C8.11633 2.94922 8.31212 3.1499 8.31212 3.39746Z" fill="#AA161D"/>
<path d="M14.9371 8.49512C14.9371 8.74267 14.7413 8.94336 14.4998 8.94336C14.2583 8.94336 14.0625 8.74267 14.0625 8.49512C14.0625 8.24756 14.2583 8.04688 14.4998 8.04688C14.7413 8.04688 14.9371 8.24756 14.9371 8.49512Z" fill="#AA161D"/>
<path d="M12.6871 8.94336C12.6871 9.19092 12.4913 9.3916 12.2498 9.3916C12.0083 9.3916 11.8125 9.19092 11.8125 8.94336C11.8125 8.6958 12.0083 8.49512 12.2498 8.49512C12.4913 8.49512 12.6871 8.6958 12.6871 8.94336Z" fill="#AA161D"/>
<path d="M17.0484 7.31738C17.0484 7.72027 16.7298 8.04687 16.3367 8.04687C15.9436 8.04687 15.625 7.72027 15.625 7.31738C15.625 6.9145 15.9436 6.58789 16.3367 6.58789C16.7298 6.58789 17.0484 6.9145 17.0484 7.31738Z" fill="#AA161D"/>
<path d="M17.9762 9.3916C17.9762 9.63916 17.7804 9.83984 17.5389 9.83984C17.2974 9.83984 17.1016 9.63916 17.1016 9.3916C17.1016 9.14404 17.2974 8.94336 17.5389 8.94336C17.7804 8.94336 17.9762 9.14404 17.9762 9.3916Z" fill="#AA161D"/>
<path d="M5.5 21.6875C5.5 21.6875 5.9537 31.2308 8.875 36.3125C11.9754 41.7058 20.6875 47 20.6875 47C20.6875 47 29.3995 41.7058 32.5 36.3125C35.4213 31.2308 35.875 21.6875 35.875 21.6875C35.875 21.6875 32.2187 19.2929 28.2812 18.0312C24.3437 16.7696 20.6875 16.625 20.6875 16.625C20.6875 16.625 17.0312 16.7696 13.0937 18.0312C9.15625 19.2929 5.5 21.6875 5.5 21.6875Z" fill="#BCCCD2"/>
<path fill-rule="evenodd" clip-rule="evenodd" d="M4.88363 20.7464L5.5 21.6875L4.37627 21.7409C4.35735 21.3429 4.55034 20.9647 4.88363 20.7464ZM20.6875 16.625C20.643 15.5009 20.6429 15.5009 20.6427 15.5009L20.6377 15.5011L20.627 15.5016L20.5901 15.5033C20.5586 15.5048 20.5136 15.5072 20.4558 15.5107C20.3402 15.5176 20.1735 15.5287 19.9624 15.5461C19.5404 15.5808 18.9397 15.6404 18.2136 15.7405C16.7649 15.9402 14.7991 16.3035 12.7505 16.9599C10.691 17.6198 8.72538 18.5683 7.28742 19.3417C6.56516 19.7302 5.96867 20.0785 5.55116 20.3307C5.34227 20.4568 5.17782 20.5592 5.06442 20.6307C5.00772 20.6665 4.96375 20.6946 4.93335 20.7142L4.89802 20.737L4.88817 20.7434L4.88426 20.746C4.88412 20.746 4.88363 20.7464 5.5 21.6875C4.37627 21.7409 4.37626 21.7407 4.37627 21.7409L4.37673 21.7503L4.37791 21.7735C4.37895 21.7934 4.3805 21.8223 4.38262 21.8596C4.38686 21.9344 4.39339 22.0431 4.40271 22.1825C4.42135 22.4613 4.45116 22.8627 4.49612 23.3595C4.58597 24.352 4.73675 25.7294 4.98087 27.2704C5.46273 30.3121 6.3301 34.1428 7.89968 36.8732C9.56589 39.7716 12.6702 42.5554 15.2527 44.5664C16.5612 45.5852 17.7695 46.4312 18.6509 47.0226C19.092 47.3186 19.4523 47.5516 19.7035 47.7113C19.8292 47.7912 19.9277 47.8528 19.9954 47.8949C20.0293 47.916 20.0555 47.9321 20.0737 47.9433L20.0947 47.9562L20.1023 47.9608L20.1029 47.9611C20.1031 47.9613 20.1033 47.9614 20.6875 47L20.1029 47.9611C20.4618 48.1793 20.9128 48.1795 21.2717 47.9614L20.6875 47C21.2717 47.9614 21.2715 47.9615 21.2717 47.9614L21.2727 47.9608L21.2803 47.9562L21.3013 47.9433C21.3194 47.9321 21.3457 47.916 21.3796 47.8949C21.4473 47.8528 21.5458 47.7912 21.6715 47.7113C21.9227 47.5516 22.283 47.3186 22.7241 47.0226C23.6055 46.4312 24.8137 45.5852 26.1222 44.5664C28.7048 42.5554 31.8091 39.7716 33.4753 36.8732C35.0449 34.1428 35.9123 30.3121 36.3941 27.2704C36.6382 25.7294 36.789 24.352 36.8789 23.3595C36.9238 22.8627 36.9536 22.4613 36.9723 22.1825C36.9816 22.0431 36.9881 21.9344 36.9924 21.8596C36.9945 21.8223 36.996 21.7934 36.9971 21.7735L36.9983 21.7503L36.9986 21.7439L36.9987 21.7413C36.9987 21.7411 36.9987 21.7409 35.875 21.6875L36.9987 21.7413C37.0176 21.3434 36.8247 20.9647 36.4914 20.7464L35.875 21.6875C36.4914 20.7464 36.4915 20.7465 36.4914 20.7464L36.4907 20.746L36.4868 20.7434L36.477 20.737L36.4416 20.7142C36.4112 20.6946 36.3673 20.6665 36.3106 20.6307C36.1972 20.5592 36.0327 20.4568 35.8238 20.3307C35.4063 20.0785 34.8098 19.7302 34.0876 19.3417C32.6496 18.5683 30.684 17.6198 28.6245 16.9599C26.5759 16.3035 24.6101 15.9402 23.1614 15.7405C22.4353 15.6404 21.8345 15.5808 21.4126 15.5461C21.2015 15.5287 21.0348 15.5176 20.9192 15.5107C20.8614 15.5072 20.8164 15.5048 20.7849 15.5033L20.7479 15.5016L20.7373 15.5011L20.7328 15.5009C20.7326 15.5009 20.732 15.5009 20.6875 16.625ZM20.6875 16.625L20.6427 15.5009C20.6723 15.4997 20.7023 15.4997 20.732 15.5009L20.6875 16.625ZM20.6875 16.625C20.6875 16.625 17.0312 16.7696 13.0937 18.0312C9.15625 19.2929 5.5 21.6875 5.5 21.6875C5.5 21.6875 5.9537 31.2308 8.875 36.3125C11.9754 41.7058 20.6875 47 20.6875 47C20.6875 47 29.3995 41.7058 32.5 36.3125C35.4213 31.2308 35.875 21.6875 35.875 21.6875C35.875 21.6875 32.2187 19.2929 28.2812 18.0312C24.3437 16.7696 20.6875 16.625 20.6875 16.625Z" fill="#81A5B0"/>
<path fill-rule="evenodd" clip-rule="evenodd" d="M21.2496 17.7278C21.2618 18.0381 21.0202 18.2997 20.7098 18.312L20.7086 18.3121L20.7026 18.3124L20.6763 18.3136C20.6525 18.3148 20.6162 18.3167 20.5684 18.3195C20.4726 18.3252 20.3304 18.3347 20.1477 18.3498C19.7822 18.3798 19.2554 18.432 18.6159 18.5202C17.335 18.6968 15.6109 19.0164 13.8279 19.5877C12.0503 20.1573 10.3261 20.9864 9.03988 21.6782C8.39841 22.0233 7.86951 22.3321 7.50177 22.5543C7.3869 22.6237 7.28783 22.6845 7.20605 22.7353C7.20717 22.7525 7.20835 22.7704 7.20958 22.7888C7.22609 23.0357 7.25273 23.3949 7.29311 23.841C7.37392 24.7337 7.50958 25.9724 7.72873 27.3558C8.17023 30.1428 8.93967 33.4409 10.2377 35.6988C10.3925 35.9681 10.2997 36.312 10.0303 36.4668C9.76101 36.6216 9.41717 36.5288 9.26234 36.2595C7.85542 33.8121 7.06236 30.3394 6.61759 27.5319C6.39361 26.118 6.25518 24.8536 6.1727 23.9424C6.13143 23.4866 6.10412 23.1186 6.08709 22.8639C6.07857 22.7365 6.07262 22.6374 6.06878 22.5697C6.06686 22.5359 6.06547 22.5099 6.06455 22.4922L6.06351 22.4719L6.06317 22.4649C6.06316 22.4648 6.06314 22.4642 6.625 22.4375C6.31682 21.9669 6.31689 21.9669 6.31697 21.9668L6.32022 21.9647L6.32853 21.9593L6.35957 21.9392C6.38659 21.9219 6.42612 21.8966 6.4774 21.8642C6.57996 21.7995 6.72957 21.7064 6.92011 21.5913C7.30107 21.3612 7.84638 21.0428 8.50699 20.6875C9.82493 19.9786 11.6163 19.115 13.4846 18.5164C15.3475 17.9195 17.139 17.5881 18.4622 17.4057C19.1248 17.3144 19.6722 17.2601 20.0554 17.2286C20.2471 17.2128 20.3978 17.2027 20.5014 17.1965C20.5533 17.1934 20.5933 17.1913 20.6209 17.19L20.6528 17.1885L20.6615 17.1881L20.6648 17.1879C20.6649 17.1879 20.6653 17.1879 20.6875 17.75L20.6648 17.1879C20.9752 17.1757 21.2373 17.4173 21.2496 17.7278ZM6.625 22.4375L6.31697 21.9668C6.15032 22.076 6.05368 22.2652 6.06314 22.4642L6.625 22.4375Z" fill="#D0DEE3"/>
<path fill-rule="evenodd" clip-rule="evenodd" d="M34.7768 21.8756C35.0871 21.8904 35.3267 22.1539 35.3119 22.4642L34.7501 22.4375C35.3119 22.4642 35.3119 22.4641 35.3119 22.4642L35.3119 22.4649L35.3116 22.4719L35.3105 22.4922C35.3096 22.51 35.3082 22.5359 35.3063 22.5698C35.3025 22.6374 35.2965 22.7365 35.288 22.8639C35.271 23.1187 35.2436 23.4866 35.2024 23.9424C35.1199 24.8536 34.9815 26.118 34.7575 27.5319C34.3127 30.3395 33.5197 33.8121 32.1127 36.2595C30.6194 38.8573 27.8094 41.3872 25.4254 43.2436C24.2247 44.1785 23.1155 44.9551 22.3063 45.4981C21.9015 45.7698 21.5713 45.9833 21.3416 46.1293C21.2267 46.2023 21.137 46.2585 21.0756 46.2966C21.0449 46.3157 21.0213 46.3302 21.0052 46.3401L20.9867 46.3514L20.9817 46.3545L20.9803 46.3553C20.9802 46.3554 20.9797 46.3557 20.6876 45.875L20.9797 46.3557C20.7142 46.517 20.3682 46.4326 20.2069 46.1671C20.0456 45.9016 20.13 45.5557 20.3954 45.3943C20.3954 45.3943 20.3954 45.3943 20.3954 45.3943L20.4002 45.3914L20.4164 45.3815C20.431 45.3725 20.4531 45.3589 20.4821 45.3409C20.5403 45.3047 20.6267 45.2507 20.738 45.1799C20.9607 45.0383 21.2831 44.8299 21.6794 44.5639C22.4724 44.0318 23.5593 43.2708 24.7342 42.3559C27.1012 40.5128 29.76 38.0948 31.1374 35.6988C32.4354 33.4409 33.2048 30.1428 33.6463 27.3559C33.8655 25.9725 34.0011 24.7337 34.082 23.841C34.1223 23.3949 34.149 23.0357 34.1655 22.7889C34.1737 22.6654 34.1795 22.5701 34.1831 22.506C34.1849 22.474 34.1862 22.4498 34.187 22.4338L34.188 22.416L34.1882 22.4118L34.1882 22.4109C34.203 22.1006 34.4665 21.8609 34.7768 21.8756Z" fill="#A2B9C1"/>
<path d="M9.4375 23.75C9.4375 23.75 9.77357 30.8191 11.9375 34.5833C14.2341 38.5784 20.6875 42.5 20.6875 42.5C20.6875 42.5 27.1409 38.5784 29.4375 34.5833C31.6014 30.8191 31.9375 23.75 31.9375 23.75C31.9375 23.75 29.2292 21.9762 26.3125 21.0417C23.3958 20.1071 20.6875 20 20.6875 20C20.6875 20 17.9792 20.1071 15.0625 21.0417C12.1458 21.9762 9.4375 23.75 9.4375 23.75Z" fill="#D2E2E7"/>
<path fill-rule="evenodd" clip-rule="evenodd" d="M8.82113 22.8089L9.4375 23.75L8.31377 23.8034C8.29485 23.4054 8.48784 23.0272 8.82113 22.8089ZM20.6875 20C20.643 18.8759 20.6429 18.8759 20.6427 18.8759L20.6384 18.8761L20.6298 18.8764L20.601 18.8778C20.5767 18.879 20.5423 18.8808 20.4985 18.8834C20.4108 18.8886 20.2852 18.8971 20.1265 18.9101C19.8093 18.9362 19.359 18.9809 18.8151 19.0559C17.7311 19.2053 16.2574 19.4774 14.7192 19.9703C13.1701 20.4667 11.6967 21.1782 10.6234 21.7555C10.0834 22.0459 9.63729 22.3064 9.3246 22.4953C9.16812 22.5898 9.04468 22.6666 8.9592 22.7205C8.91645 22.7475 8.88316 22.7688 8.85996 22.7837L8.83277 22.8013L8.82498 22.8064L8.82172 22.8085C8.82158 22.8086 8.82113 22.8089 9.4375 23.75C8.31377 23.8034 8.31376 23.8032 8.31377 23.8034L8.31415 23.811L8.31505 23.8288C8.31585 23.844 8.31702 23.8659 8.31861 23.894C8.32181 23.9503 8.32671 24.0319 8.33368 24.1361C8.34762 24.3446 8.36987 24.6443 8.40341 25.0148C8.4704 25.7548 8.58281 26.7817 8.76489 27.9311C9.12267 30.1896 9.77129 33.0724 10.9622 35.144C12.2265 37.3433 14.5651 39.4344 16.4826 40.9274C17.4585 41.6873 18.3593 42.318 19.0164 42.759C19.3453 42.9797 19.6142 43.1536 19.8022 43.2731C19.8961 43.3328 19.97 43.379 20.021 43.4107C20.0465 43.4265 20.0663 43.4388 20.0802 43.4473L20.0963 43.4572L20.101 43.46L20.1029 43.4612C20.1031 43.4613 20.1033 43.4614 20.6875 42.5L20.1029 43.4612C20.4619 43.6793 20.9128 43.6795 21.2717 43.4614L20.6875 42.5C21.2717 43.4614 21.2715 43.4615 21.2717 43.4614L21.274 43.46L21.2786 43.4572L21.2948 43.4473C21.3086 43.4388 21.3285 43.4265 21.354 43.4107C21.405 43.379 21.4789 43.3328 21.5728 43.2731C21.7608 43.1536 22.0297 42.9797 22.3586 42.759C23.0157 42.318 23.9165 41.6873 24.8924 40.9274C26.8099 39.4344 29.1485 37.3433 30.4128 35.144C31.6037 33.0724 32.2523 30.1896 32.6101 27.9311C32.7922 26.7817 32.9046 25.7548 32.9716 25.0148C33.0051 24.6443 33.0274 24.3446 33.0413 24.1361C33.0483 24.0319 33.0532 23.9503 33.0564 23.894C33.058 23.8659 33.0591 23.844 33.0599 23.8288L33.0608 23.811L33.0612 23.8044C33.0612 23.8041 33.0612 23.8034 31.9375 23.75L33.0612 23.8034C33.0801 23.4054 32.8872 23.0272 32.5539 22.8089L31.9375 23.75C32.5539 22.8089 32.554 22.809 32.5539 22.8089L32.5533 22.8085L32.5524 22.8079L32.55 22.8064L32.5422 22.8013L32.515 22.7837C32.4918 22.7688 32.4585 22.7475 32.4158 22.7205C32.3303 22.6666 32.2069 22.5898 32.0504 22.4953C31.7377 22.3064 31.2916 22.0459 30.7516 21.7555C29.6783 21.1782 28.2048 20.4667 26.6558 19.9703C25.1176 19.4774 23.6439 19.2053 22.5599 19.0559C22.016 18.9809 21.5657 18.9362 21.2485 18.9101C21.0898 18.8971 20.9642 18.8886 20.8765 18.8834C20.8327 18.8808 20.7983 18.879 20.774 18.8778L20.7452 18.8764L20.7366 18.8761L20.7327 18.8759C20.7326 18.8759 20.732 18.8759 20.6875 20ZM20.6875 20L20.6427 18.8759C20.6723 18.8747 20.7023 18.8747 20.732 18.8759L20.6875 20ZM20.6875 20C20.6875 20 17.9792 20.1071 15.0625 21.0417C12.1458 21.9762 9.4375 23.75 9.4375 23.75C9.4375 23.75 9.77358 30.8191 11.9375 34.5833C14.2341 38.5783 20.6875 42.5 20.6875 42.5C20.6875 42.5 27.1409 38.5783 29.4375 34.5833C31.6014 30.8191 31.9375 23.75 31.9375 23.75C31.9375 23.75 29.2292 21.9762 26.3125 21.0417C23.3958 20.1071 20.6875 20 20.6875 20Z" fill="#81A5B0"/>
<path fill-rule="evenodd" clip-rule="evenodd" d="M30.8393 23.9381C31.1496 23.9529 31.3892 24.2164 31.3744 24.5267L30.8126 24.5C31.3744 24.5267 31.3744 24.5266 31.3744 24.5267L31.3744 24.5273L31.3744 24.5285L31.3742 24.5326L31.3734 24.5476L31.3703 24.6042C31.3675 24.6534 31.3632 24.7253 31.357 24.8175C31.3447 25.002 31.3249 25.2682 31.2951 25.5978C31.2355 26.2564 31.1354 27.1704 30.9735 28.1926C30.6528 30.217 30.0785 32.7417 29.0502 34.5303C27.9588 36.429 25.9144 38.2662 24.1956 39.6046C23.3275 40.2806 22.5257 40.8419 21.9408 41.2344C21.6482 41.4308 21.4093 41.5853 21.243 41.691C21.1598 41.7439 21.0947 41.7846 21.05 41.8124C21.0277 41.8262 21.0105 41.8368 20.9987 41.8441L20.985 41.8525L20.9813 41.8547L20.9802 41.8554C20.9801 41.8554 20.9797 41.8557 20.6876 41.375L20.9797 41.8557C20.7142 42.017 20.3682 41.9326 20.2069 41.6671C20.0456 41.4017 20.13 41.0557 20.3954 40.8943C20.3954 40.8943 20.3954 40.8944 20.3954 40.8943L20.3986 40.8924L20.4099 40.8854L20.4566 40.8566C20.498 40.8309 20.5597 40.7923 20.6394 40.7416C20.7988 40.6403 21.0298 40.4909 21.3139 40.3003C21.8826 39.9186 22.6621 39.3729 23.5044 38.717C25.2063 37.3918 27.0994 35.6665 28.0749 33.9697C28.9942 32.3705 29.5449 30.0203 29.8623 28.0166C30.0194 27.0248 30.1167 26.1365 30.1747 25.4963C30.2036 25.1765 30.2227 24.9191 30.2345 24.7425C30.2404 24.6542 30.2445 24.5861 30.2471 24.5404L30.2499 24.4891L30.2505 24.4767L30.2507 24.4738C30.2507 24.4738 30.2507 24.4732 30.2507 24.4732M30.8393 23.9381C30.529 23.9234 30.2655 24.1629 30.2507 24.4732L30.8393 23.9381Z" fill="#BAD0D7"/>
<path fill-rule="evenodd" clip-rule="evenodd" d="M18.9737 27.3079L20.6871 24.2839L22.4006 27.3079L25.2563 27.9127L22.9717 30.3319L23.5429 33.3559L20.6871 31.8439L17.8313 33.3559L18.4025 30.3319L16.1179 27.9127L18.9737 27.3079ZM17.5029 30.6123L15.5252 28.5181C15.3118 28.2922 15.2344 27.9629 15.3234 27.6601C15.4125 27.3572 15.6537 27.1293 15.9521 27.0661L18.4456 26.538L19.9714 23.8453C20.1207 23.5817 20.3929 23.4199 20.6871 23.4199C20.9813 23.4199 21.2535 23.5817 21.4028 23.8453L22.9286 26.538L25.4221 27.0661C25.7205 27.1293 25.9617 27.3572 26.0508 27.6601C26.1398 27.9629 26.0624 28.2922 25.849 28.5181L23.8713 30.6123L24.3581 33.1894C24.4193 33.5138 24.2972 33.8461 24.0436 34.0453C23.79 34.2446 23.4492 34.2759 23.166 34.1259L20.6871 32.8134L18.2083 34.1259C17.925 34.2759 17.5843 34.2446 17.3306 34.0453C17.077 33.8461 16.9549 33.5138 17.0162 33.1894L17.5029 30.6123Z" fill="#81A5B0"/>
</svg>
