<svg width="32" height="32" viewBox="0 0 32 32" fill="none" xmlns="http://www.w3.org/2000/svg">
<path d="M2 15.976C2 23.7212 8.26801 30 16 30C19.3108 30 22.3532 28.8488 24.75 26.9241L22.6001 24.1567C20.7968 25.6185 18.5005 26.494 16 26.494C10.201 26.494 5.5 21.7849 5.5 15.976C5.5 10.6031 9.52169 6.17122 14.7141 5.53609V2.01037C7.58484 2.66069 2 8.66502 2 15.976Z" stroke="#212121" stroke-linejoin="round"/>
<path d="M30 15.976C30 12.6595 28.8507 9.6119 26.9294 7.211L24.1667 9.36446C25.6259 11.1709 26.5 13.4712 26.5 15.976C26.5 18.4808 25.6259 20.7811 24.1667 22.5875L27.01 24.6394C28.8828 22.2544 30 19.2459 30 15.976Z" stroke="#212121" stroke-linejoin="round"/>
<path d="M24.75 5.02786C22.6376 3.33161 20.0238 2.23611 17.1667 2V5.52219C19.2125 5.74874 21.0813 6.56409 22.6002 7.79533L24.75 5.02786Z" stroke="#212121" stroke-linejoin="round"/>
<path d="M12 17.6842L15.415 17.6842C16.2332 17.6842 17.0179 17.3848 17.5964 16.8518C18.175 16.3188 18.5 15.5959 18.5 14.8421C18.5 14.0883 18.175 13.3654 17.5964 12.8324C17.0179 12.2994 16.2332 12 15.415 12L12 12M12 14.8421L20 14.8421M13.5 12L20 12M16 17.6842L18.3382 21" stroke="#212121" stroke-linecap="round" stroke-linejoin="round"/>
<path d="M29.9998 15.9759C29.9998 12.6594 28.8506 9.61184 26.9292 7.21094L24.1665 9.3644C25.6258 11.1708 26.4998 13.4711 26.4998 15.9759C26.4998 18.4807 25.6258 20.781 24.1665 22.5875L27.0098 24.6393C28.8827 22.2543 29.9998 19.2458 29.9998 15.9759Z" stroke="#E7503D" stroke-linejoin="round"/>
</svg>
