<svg width="32" height="32" viewBox="0 0 32 32" fill="none" xmlns="http://www.w3.org/2000/svg">
<path d="M24.1818 8.41667H28V5C28 3.89543 27.1046 3 26 3H25.8182M25.8182 3H24.6364C24.0841 3 23.6364 3.44771 23.6364 4V14L22.3001 13.2651C22 13.1 21.6363 13.1 21.3363 13.2651L20 14L18.4472 13.2236C18.1657 13.0828 17.8343 13.0828 17.5528 13.2236L16 14L14.4472 13.2236C14.1657 13.0828 13.8343 13.0828 13.5528 13.2236L12 14L10.4472 13.2236C10.1657 13.0828 9.83431 13.0828 9.55279 13.2236L8 14L6.44721 13.2236C6.16569 13.0828 5.83431 13.0828 5.55279 13.2236L4 14V5C4 3.89543 4.89543 3 6 3H25.8182ZM13.8182 27.9167L16.2727 29L18.7273 27.9167L21.1818 29H22.6364C23.1886 29 23.6364 28.5523 23.6364 28V18L22.3001 17.2651C22 17.1 21.6363 17.1 21.3363 17.2651L20 18L18.4472 17.2236C18.1657 17.0828 17.8343 17.0828 17.5528 17.2236L16 18L14.4472 17.2236C14.1657 17.0828 13.8343 17.0828 13.5528 17.2236L12 18L10.4472 17.2236C10.1657 17.0828 9.83431 17.0828 9.55279 17.2236L8 18L6.44721 17.2236C6.16569 17.0828 5.83431 17.0828 5.55279 17.2236L4 18V28C4 28.5523 4.44772 29 5 29H6.45455L8.90909 27.9167L11.3636 29L13.8182 27.9167Z" stroke="#212121" stroke-linejoin="round"/>
<path d="M8.5 21H15.5" stroke="#E7503D" stroke-linecap="round" stroke-linejoin="round"/>
<path d="M8.5 24H19.5" stroke="#E7503D" stroke-linecap="round" stroke-linejoin="round"/>
<path d="M10 7L13.415 7C14.2332 7 15.0179 7.29944 15.5964 7.83243C16.175 8.36543 16.5 9.08833 16.5 9.84211C16.5 10.5959 16.175 11.3188 15.5964 11.8518L15 12.5M10 9.84211L18 9.84211M11.5 7L18 7" stroke="#E7503D" stroke-linecap="round" stroke-linejoin="round"/>
</svg>
