<svg width="16" height="16" viewBox="0 0 16 16" fill="none" xmlns="http://www.w3.org/2000/svg">
<path d="M11.6675 14.6126C11.5855 14.6142 11.5045 14.5935 11.4328 14.5525L8.00661 12.749L4.99105 14.3721C4.49343 14.6434 3.87541 14.4529 3.60648 13.9453C3.50183 13.7404 3.46478 13.5063 3.50087 13.278L4.08756 9.81538L1.63522 7.3326C1.44211 7.13622 1.3335 6.86896 1.3335 6.59018C1.3335 6.31139 1.44211 6.04414 1.63522 5.84775C1.79239 5.68303 1.999 5.57717 2.2219 5.54717L5.5836 5.03619L7.07965 1.9222C7.25047 1.56201 7.60699 1.33337 7.99781 1.33337C8.38863 1.33337 8.74515 1.56201 8.91597 1.9222L10.4179 5.04821L13.7913 5.56521C14.0624 5.60515 14.3064 5.75499 14.4685 5.98108C14.6307 6.20716 14.6974 6.49053 14.6537 6.76752C14.6219 6.99512 14.519 7.20603 14.3604 7.36867L11.9198 9.82139L12.2601 11.685C12.3061 11.9686 12.12 12.2371 11.8435 12.2861C11.5717 12.3375 11.3101 12.1553 11.2568 11.8773L10.9107 10.0138C10.8529 9.67081 10.9625 9.32059 11.204 9.07596L13.6505 6.60521L10.2771 6.0822C9.93778 6.02881 9.64824 5.80233 9.50852 5.48104L8.00661 2.36706L6.4871 5.52914C6.34738 5.85043 6.05784 6.0769 5.71854 6.13029L2.35684 6.64128L4.78571 9.10601C5.0262 9.34635 5.13589 9.69254 5.07905 10.0318L4.49237 13.4945L7.50793 11.8773C7.80773 11.7095 8.17029 11.7095 8.47009 11.8773L11.8905 13.6808C12.0978 13.7925 12.2043 14.0345 12.1488 14.2676C12.0933 14.5008 11.89 14.6653 11.6558 14.6667L11.6675 14.6126Z" fill="#E7503D"/>
</svg>
