<svg width="26" height="26" viewBox="0 0 26 26" fill="none" xmlns="http://www.w3.org/2000/svg">
<path d="M25.999 13.0005C25.999 20.1682 20.1673 26 12.9995 26C5.83165 26 0 20.1683 0 13.0005C0 5.83175 5.83165 0 12.9995 0C20.1673 0 25.999 5.83165 25.999 13.0005Z" fill="#FFD561"/>
<path d="M19.7314 12.7345L17.6542 14.759L18.1446 17.617C18.2603 18.2891 17.9892 18.9551 17.4379 19.3551C16.8856 19.7561 16.1688 19.8079 15.5657 19.4901L12.9991 18.1408L10.4326 19.4911C10.1706 19.6281 9.88642 19.6972 9.60413 19.6972C9.23657 19.6972 8.87317 19.5815 8.56141 19.3551C8.00915 18.9551 7.73906 18.2891 7.85372 17.617L8.34408 14.759L6.26788 12.7355C5.77956 12.2594 5.60696 11.5619 5.81808 10.9132C6.0283 10.2654 6.57751 9.80142 7.25267 9.70394L10.1218 9.28666L11.4052 6.68656C11.7067 6.07534 12.3179 5.69568 12.9991 5.69568C13.3393 5.69568 13.6631 5.79113 13.9383 5.9617C14.2145 6.13328 14.4419 6.381 14.5931 6.68656L15.8764 9.28666L18.7456 9.70394C19.4208 9.80142 19.97 10.2653 20.1802 10.9132C20.3913 11.5609 20.2187 12.2594 19.7314 12.7345Z" fill="#FFF2D4" stroke="#E7503D"/>
</svg>
