<svg width="36" height="36" viewBox="0 0 36 36" fill="none" xmlns="http://www.w3.org/2000/svg">
<path d="M36 17.9998C35.9998 21.6565 34.886 25.2263 32.8068 28.2343C30.7276 31.2423 27.7817 33.5457 24.3611 34.838C20.9404 36.1304 17.2073 36.3503 13.6586 35.4686C10.1099 34.5869 6.91384 32.6453 4.49582 29.9023C4.36939 29.7591 4.30503 29.5715 4.3169 29.3808C4.32877 29.1902 4.41589 29.012 4.55911 28.8856C4.70233 28.7592 4.8899 28.6948 5.08058 28.7067C5.27125 28.7185 5.44939 28.8057 5.57582 28.9489C7.94802 31.6485 11.1336 33.5038 14.6522 34.235C18.1708 34.9663 21.8318 34.5338 25.0832 33.0028C28.3345 31.4718 31.0001 28.9253 32.6779 25.7472C34.3558 22.5691 34.955 18.9317 34.3852 15.3834C33.8154 11.8351 32.1075 8.56812 29.519 6.07514C26.9304 3.58215 23.6016 1.99824 20.0344 1.5622C16.4671 1.12617 12.8548 1.86164 9.74203 3.65775C6.62925 5.45385 4.18474 8.21322 2.77704 11.5198H6.48C6.67096 11.5198 6.85409 11.5957 6.98912 11.7307C7.12414 11.8658 7.2 12.0489 7.2 12.2398C7.2 12.4308 7.12414 12.6139 6.98912 12.749C6.85409 12.884 6.67096 12.9598 6.48 12.9598H0.72C0.529044 12.9598 0.345909 12.884 0.210883 12.749C0.0758569 12.6139 0 12.4308 0 12.2398V6.47984C0 6.28889 0.0758569 6.10575 0.210883 5.97073C0.345909 5.8357 0.529044 5.75984 0.72 5.75984C0.910956 5.75984 1.09409 5.8357 1.22912 5.97073C1.36414 6.10575 1.44 6.28889 1.44 6.47984V10.9669C3.06092 7.14608 5.9528 4.00306 9.62571 2.07028C13.2986 0.137494 17.5268 -0.46621 21.5938 0.361437C25.6609 1.18908 29.3168 3.39719 31.9422 6.61169C34.5677 9.82619 36.0012 13.8494 36 17.9998ZM18 8.63984C17.809 8.63984 17.6259 8.7157 17.4909 8.85073C17.3559 8.98575 17.28 9.16889 17.28 9.35984V17.9998V18.0021C17.2805 18.1887 17.3541 18.3677 17.4849 18.5007L17.4904 18.5089L23.2504 24.2689C23.386 24.4011 23.5682 24.4746 23.7576 24.4734C23.9469 24.4722 24.1282 24.3964 24.2621 24.2625C24.396 24.1286 24.4718 23.9474 24.473 23.758C24.4742 23.5686 24.4008 23.3864 24.2686 23.2508L18.72 17.7021V9.35984C18.72 9.16889 18.6441 8.98575 18.5091 8.85073C18.3741 8.7157 18.191 8.63984 18 8.63984Z" fill="#E7503D"/>
<path d="M5.6816 17.5487L5.70353 17.6188H5.77704H6.28843C6.44706 17.6188 6.6016 17.6887 6.71729 17.8171C6.83329 17.9458 6.9 18.1225 6.9 18.3086C6.9 18.4947 6.83329 18.6714 6.71729 18.8001C6.6016 18.9285 6.44706 18.9984 6.28843 18.9984H5.94972H5.85805L5.85009 19.0897C5.7713 19.994 5.39226 20.8316 4.78928 21.44C4.18658 22.0481 3.40364 22.3838 2.59331 22.3849H2.36717H2.15017L2.29115 22.5499L4.99893 25.7184L4.99891 25.7184L5.00046 25.7202C5.05851 25.785 5.10479 25.8626 5.13611 25.9487C5.16743 26.0347 5.18303 26.1272 5.18179 26.2205C5.18055 26.3138 5.16251 26.4057 5.12895 26.4907C5.09539 26.5756 5.04713 26.6516 4.98748 26.7144C4.92784 26.7771 4.8581 26.8254 4.78265 26.857C4.70724 26.8885 4.6273 26.9029 4.5474 26.8995C4.46749 26.8961 4.38861 26.8751 4.31534 26.8371C4.24203 26.7991 4.17556 26.7449 4.1202 26.677L4.12022 26.677L4.11872 26.6752L0.271484 22.1736C0.271478 22.1735 0.271472 22.1735 0.271466 22.1735C0.188254 22.0761 0.131688 21.9526 0.110051 21.8179C0.0884109 21.6832 0.10289 21.5445 0.151325 21.4194C0.199747 21.2944 0.279523 21.1894 0.379333 21.1164C0.478979 21.0435 0.594474 21.0054 0.711575 21.0054C0.711589 21.0054 0.711603 21.0054 0.711617 21.0054L2.59345 21.0054L2.59371 21.0054C3.08077 21.0041 3.54997 20.8113 3.91834 20.464C4.28646 20.1169 4.53027 19.638 4.60886 19.1132L4.62605 18.9984H4.50996H0.740987C0.582351 18.9984 0.427812 18.9285 0.312121 18.8001C0.196119 18.6714 0.129412 18.4947 0.129412 18.3086C0.129412 18.1225 0.196119 17.9458 0.312121 17.8171C0.427812 17.6887 0.582351 17.6188 0.740987 17.6188H4.19829H4.37746L4.28341 17.4663C4.09668 17.1636 3.84559 16.9148 3.55111 16.7425C3.25655 16.5701 2.92781 16.4796 2.59346 16.4795H2.59345H0.711575C0.552939 16.4795 0.3984 16.4097 0.282709 16.2813C0.166707 16.1525 0.1 15.9759 0.1 15.7898C0.1 15.6037 0.166707 15.427 0.282709 15.2983C0.3984 15.1699 0.552939 15.1 0.711575 15.1H2.59345C2.60201 15.1 2.61094 15.1007 2.62438 15.1018L2.62578 15.1019C2.63784 15.1029 2.65412 15.1042 2.67125 15.1042H6.28843C6.44706 15.1042 6.6016 15.1741 6.71729 15.3025C6.83329 15.4312 6.9 15.6079 6.9 15.794C6.9 15.9801 6.83329 16.1567 6.71729 16.2855C6.6016 16.4139 6.44706 16.4838 6.28843 16.4838H5.34345H5.16095L5.25917 16.6376C5.43784 16.9174 5.58011 17.2241 5.6816 17.5487Z" fill="#E7503D" stroke="white" stroke-width="0.2"/>
</svg>
