<svg width="143" height="41" viewBox="0 0 143 41" fill="none" xmlns="http://www.w3.org/2000/svg">
<path d="M7.98145 40.832C5.31217 40.832 3.3916 40.124 2.21973 38.708C1.06413 37.292 0.486328 35.5911 0.486328 33.6055C0.486328 32.0104 0.819987 30.4642 1.4873 28.9668C2.15462 27.4694 3.14746 26.2324 4.46582 25.2559C5.80046 24.263 7.4362 23.7666 9.37305 23.7666C10.7077 23.7666 11.611 24.0189 12.083 24.5234C12.555 25.028 12.791 25.6709 12.791 26.4521C12.791 27.2497 12.6689 28.2262 12.4248 29.3818C12.1644 30.6514 12.0342 31.693 12.0342 32.5068C12.0342 33.109 12.1074 33.6462 12.2539 34.1182C11.5703 34.3786 10.96 34.5088 10.4229 34.5088C9.39746 34.5088 8.88477 34.0612 8.88477 33.166C8.88477 32.4824 9.11263 31.6198 9.56836 30.5781C10.1055 29.39 10.374 28.3727 10.374 27.5264C10.374 26.859 10.0078 26.5254 9.27539 26.5254C8.29883 26.5254 7.5013 26.9567 6.88281 27.8193C6.26432 28.682 5.80859 29.6667 5.51562 30.7734C5.23893 31.8802 5.10059 32.8161 5.10059 33.5811C5.10059 34.7041 5.42611 35.7132 6.07715 36.6084C6.74447 37.4873 7.8431 37.9268 9.37305 37.9268C11.0169 37.9268 12.4655 37.3083 13.7188 36.0713C14.972 34.8343 15.9486 33.3369 16.6484 31.5791C17.3646 29.805 17.7227 28.1693 17.7227 26.6719C17.7227 23.9538 16.3555 21.2113 13.6211 18.4443C13.0352 17.8584 12.4899 17.2562 11.9854 16.6377C10.8623 15.2542 10.3008 13.8708 10.3008 12.4873C10.3008 10.3389 10.9274 8.35319 12.1807 6.53027C13.4339 4.70736 15.0371 3.23438 16.9902 2.11133C18.9596 0.972005 21.0186 0.402344 23.167 0.402344C24.7946 0.402344 26.0804 0.882487 27.0244 1.84277C27.9033 2.72168 28.3428 3.99121 28.3428 5.65137C28.3428 7.88118 27.765 9.69596 26.6094 11.0957C25.5352 12.3978 23.8831 13.0488 21.6533 13.0488C20.8232 13.0488 20.1152 12.8861 19.5293 12.5605C18.9596 12.2188 18.6748 11.6572 18.6748 10.876C18.6748 10.0947 18.8294 9.2972 19.1387 8.4834C19.4967 7.50684 19.7083 6.70117 19.7734 6.06641C19.7734 6.01758 19.8385 5.99316 19.9688 5.99316C20.1803 5.99316 20.4408 6.05827 20.75 6.18848C21.4336 6.48145 21.7754 6.92904 21.7754 7.53125C21.7754 7.72656 21.6777 8.06836 21.4824 8.55664C21.1243 9.45182 20.9453 10.1191 20.9453 10.5586C20.9453 11.3236 21.2546 11.7061 21.873 11.7061C23.0449 11.7061 24.0947 10.4365 25.0225 7.89746C25.3317 7.03483 25.4863 6.32682 25.4863 5.77344C25.4863 4.76432 25.1689 4.02376 24.5342 3.55176C23.9645 3.12858 23.2728 2.91699 22.459 2.91699C20.3105 2.91699 18.5609 3.67383 17.21 5.1875C15.8753 6.6849 15.208 8.43457 15.208 10.4365C15.208 11.4131 15.4277 12.349 15.8672 13.2441C16.3229 14.1393 16.8844 15.002 17.5518 15.832C18.2191 16.6458 18.8945 17.4108 19.5781 18.127C20.0664 18.6478 20.5059 19.1523 20.8965 19.6406C22.6706 21.8053 23.5576 24.2712 23.5576 27.0381C23.5576 30.0817 22.752 32.6452 21.1406 34.7285C19.5293 36.7956 17.4867 38.3499 15.0127 39.3916C12.7666 40.3519 10.4229 40.832 7.98145 40.832ZM40.2812 38.1709C39.0443 38.1709 38.0433 37.5524 37.2783 36.3154C36.7738 35.5016 36.5215 34.5169 36.5215 33.3613C36.5215 32.7266 36.5947 32.0511 36.7412 31.335C35.6019 33.3532 34.373 34.9971 33.0547 36.2666C31.7363 37.5361 30.5726 38.1709 29.5635 38.1709C27.0244 38.1709 25.7549 36.4049 25.7549 32.873C25.7549 31.4733 26.2594 29.2598 27.2686 26.2324C28.5055 22.5052 29.5879 20.3242 30.5156 19.6895C31.2318 19.2012 32.1188 18.957 33.1768 18.957C33.5186 18.957 34.1045 19.0384 34.9346 19.2012C34.43 20.015 33.8685 20.8695 33.25 21.7646C32.9408 22.2041 32.4932 23.0749 31.9072 24.377C30.2796 28.0228 29.4658 30.806 29.4658 32.7266C29.4658 33.9473 29.8564 34.5576 30.6377 34.5576C32.5094 34.5576 34.6335 32.3278 37.0098 27.8682C37.5306 26.8753 38.0758 25.7686 38.6455 24.5479C39.6221 22.4482 40.6149 21.1055 41.624 20.5195C42.2913 20.1289 43.097 19.9336 44.041 19.9336C44.5944 19.9336 45.2617 20.0068 46.043 20.1533C45.3431 21.2275 44.2852 23.0911 42.8691 25.7441C41.4531 28.3971 40.7451 30.8792 40.7451 33.1904C40.7451 34.8994 41.5264 36.1283 43.0889 36.877C42.3727 37.7396 41.4368 38.1709 40.2812 38.1709ZM53.0986 37.4873C51.585 37.4873 50.4049 36.999 49.5586 36.0225C48.6471 34.9971 48.1914 33.6217 48.1914 31.8965C48.1914 30.3828 48.5007 28.8122 49.1191 27.1846C49.7376 25.5407 50.6003 23.9945 51.707 22.5459C52.8301 21.0973 54.1159 19.9173 55.5645 19.0059C57.0293 18.0944 58.5674 17.6387 60.1787 17.6387C61.5296 17.6387 62.5143 18.013 63.1328 18.7617C63.7025 19.4453 63.9873 20.3324 63.9873 21.4229C63.9873 22.7249 63.3851 23.376 62.1807 23.376H61.5947C61.6598 22.904 61.6924 22.3831 61.6924 21.8135C61.6924 19.9906 61.2122 19.0791 60.252 19.0791C59.194 19.0791 58.2093 19.543 57.2979 20.4707C56.3864 21.3984 55.5889 22.5378 54.9053 23.8887C54.238 25.2396 53.7171 26.5986 53.3428 27.9658C52.9684 29.333 52.7812 30.4967 52.7812 31.457C52.7812 33.3451 53.2858 34.3786 54.2949 34.5576C54.474 34.5902 54.6611 34.6064 54.8564 34.6064C57.9326 34.6064 62.2376 31.4163 67.7715 25.0361C67.8529 25.3942 67.8936 25.7116 67.8936 25.9883C67.8936 26.7207 67.682 27.3473 67.2588 27.8682C62.0342 34.2646 57.3141 37.471 53.0986 37.4873ZM70.4326 37.4873C68.9189 37.4873 67.7389 36.999 66.8926 36.0225C65.9811 34.9971 65.5254 33.6217 65.5254 31.8965C65.5254 30.3828 65.8346 28.8122 66.4531 27.1846C67.0716 25.5407 67.9342 23.9945 69.041 22.5459C70.1641 21.0973 71.4499 19.9173 72.8984 19.0059C74.3633 18.0944 75.9014 17.6387 77.5127 17.6387C78.8636 17.6387 79.8483 18.013 80.4668 18.7617C81.0365 19.4453 81.3213 20.3324 81.3213 21.4229C81.3213 22.7249 80.7191 23.376 79.5146 23.376H78.9287C78.9938 22.904 79.0264 22.3831 79.0264 21.8135C79.0264 19.9906 78.5462 19.0791 77.5859 19.0791C76.528 19.0791 75.5433 19.543 74.6318 20.4707C73.7204 21.3984 72.9229 22.5378 72.2393 23.8887C71.5719 25.2396 71.0511 26.5986 70.6768 27.9658C70.3024 29.333 70.1152 30.4967 70.1152 31.457C70.1152 33.3451 70.6198 34.3786 71.6289 34.5576C71.8079 34.5902 71.9951 34.6064 72.1904 34.6064C75.2666 34.6064 79.5716 31.4163 85.1055 25.0361C85.1868 25.3942 85.2275 25.7116 85.2275 25.9883C85.2275 26.7207 85.016 27.3473 84.5928 27.8682C79.3682 34.2646 74.6481 37.471 70.4326 37.4873ZM87.4492 37.8047C85.8053 37.8047 84.5521 37.3164 83.6895 36.3398C82.8757 35.4609 82.4688 34.2402 82.4688 32.6777C82.4688 31.3431 82.8431 29.6585 83.5918 27.624C84.3405 25.5732 85.2438 23.9131 86.3018 22.6436C87.376 21.3577 88.4909 20.4137 89.6465 19.8115C90.8021 19.2093 91.8763 18.9082 92.8691 18.9082C94.0247 18.9082 94.9525 19.3721 95.6523 20.2998C96.2383 21.0811 96.5312 22.139 96.5312 23.4736C96.5312 25.4593 95.9453 26.9486 94.7734 27.9414C93.1296 29.3086 90.68 29.9922 87.4248 29.9922H86.8145C86.8145 31.6198 86.9772 32.8649 87.3027 33.7275C87.6771 34.7041 88.3851 35.1924 89.4268 35.1924C92.9424 35.1924 96.9707 32.1976 101.512 26.208C101.642 26.4521 101.707 26.7044 101.707 26.9648C101.707 27.4043 101.593 27.8112 101.365 28.1855C101.154 28.5599 100.983 28.8447 100.853 29.04C96.8324 34.8831 92.3646 37.8047 87.4492 37.8047ZM87.9131 28.4785C88.6455 28.4785 89.5 28.2425 90.4766 27.7705C91.4531 27.2985 92.1449 26.6068 92.5518 25.6953C93.2516 24.1491 93.6016 22.9284 93.6016 22.0332C93.6016 20.9427 93.1133 20.3975 92.1367 20.3975C91.3555 20.3975 90.5824 20.8939 89.8174 21.8867C89.0524 22.8796 88.4014 24.0026 87.8643 25.2559C87.3271 26.5091 87.0016 27.5345 86.8877 28.332C87.2295 28.4297 87.5713 28.4785 87.9131 28.4785ZM105.345 38.3906C106.321 38.3906 107.021 38.1872 107.444 37.7803C107.868 37.3571 108.079 36.8688 108.079 36.3154C108.079 35.4854 107.632 34.7204 106.736 34.0205C104.734 34.8018 102.977 35.2493 101.463 35.3633C101.479 36.1771 101.886 36.8851 102.684 37.4873C103.481 38.0895 104.368 38.3906 105.345 38.3906ZM105.027 40.1973C104.23 40.1973 103.375 40.0345 102.464 39.709C101.552 39.3835 100.747 38.8545 100.047 38.1221C99.3307 37.4059 98.9727 36.5352 98.9727 35.5098C98.9727 34.8913 99.1029 34.346 99.3633 33.874C99.64 33.9717 99.9411 34.0205 100.267 34.0205C101.683 34.0205 103.465 33.6217 105.613 32.8242C102.033 30.3665 100.242 27.7135 100.242 24.8652C100.242 22.8796 100.885 21.1868 102.171 19.7871C103.457 18.3874 105.32 17.6712 107.762 17.6387C108.82 17.6387 109.772 18.0293 110.618 18.8105C111.481 19.5755 111.912 20.5033 111.912 21.5938C111.912 22.2611 111.749 22.904 111.424 23.5225C111.115 24.141 110.643 24.4502 110.008 24.4502C109.503 24.4502 109.023 24.3363 108.567 24.1084C109.251 23.083 109.593 22.1553 109.593 21.3252C109.593 20.8532 109.397 20.4056 109.007 19.9824C108.632 19.5592 108.177 19.3477 107.64 19.3477C106.956 19.3477 106.329 19.6325 105.76 20.2021C105.19 20.7718 104.734 21.4635 104.393 22.2773C104.051 23.0911 103.88 23.8236 103.88 24.4746C103.88 26.6556 105.41 29.0319 108.47 31.6035C111.871 29.9596 114.581 28.2181 116.6 26.3789C116.681 26.5579 116.722 26.7451 116.722 26.9404C116.722 27.3962 116.421 27.9251 115.818 28.5273C114.354 29.9922 112.286 31.3187 109.617 32.5068C110.171 33.2718 110.447 34.11 110.447 35.0215C110.447 36.4863 109.992 37.6745 109.08 38.5859C107.99 39.6602 106.639 40.1973 105.027 40.1973ZM120.481 38.3906C121.458 38.3906 122.158 38.1872 122.581 37.7803C123.004 37.3571 123.216 36.8688 123.216 36.3154C123.216 35.4854 122.768 34.7204 121.873 34.0205C119.871 34.8018 118.113 35.2493 116.6 35.3633C116.616 36.1771 117.023 36.8851 117.82 37.4873C118.618 38.0895 119.505 38.3906 120.481 38.3906ZM120.164 40.1973C119.367 40.1973 118.512 40.0345 117.601 39.709C116.689 39.3835 115.883 38.8545 115.184 38.1221C114.467 37.4059 114.109 36.5352 114.109 35.5098C114.109 34.8913 114.24 34.346 114.5 33.874C114.777 33.9717 115.078 34.0205 115.403 34.0205C116.819 34.0205 118.602 33.6217 120.75 32.8242C117.169 30.3665 115.379 27.7135 115.379 24.8652C115.379 22.8796 116.022 21.1868 117.308 19.7871C118.593 18.3874 120.457 17.6712 122.898 17.6387C123.956 17.6387 124.909 18.0293 125.755 18.8105C126.618 19.5755 127.049 20.5033 127.049 21.5938C127.049 22.2611 126.886 22.904 126.561 23.5225C126.251 24.141 125.779 24.4502 125.145 24.4502C124.64 24.4502 124.16 24.3363 123.704 24.1084C124.388 23.083 124.729 22.1553 124.729 21.3252C124.729 20.8532 124.534 20.4056 124.144 19.9824C123.769 19.5592 123.313 19.3477 122.776 19.3477C122.093 19.3477 121.466 19.6325 120.896 20.2021C120.327 20.7718 119.871 21.4635 119.529 22.2773C119.188 23.0911 119.017 23.8236 119.017 24.4746C119.017 26.6556 120.547 29.0319 123.606 31.6035C127.008 29.9596 129.718 28.2181 131.736 26.3789C131.818 26.5579 131.858 26.7451 131.858 26.9404C131.858 27.3962 131.557 27.9251 130.955 28.5273C129.49 29.9922 127.423 31.3187 124.754 32.5068C125.307 33.2718 125.584 34.11 125.584 35.0215C125.584 36.4863 125.128 37.6745 124.217 38.5859C123.126 39.6602 121.775 40.1973 120.164 40.1973ZM136.912 32.0918C136.684 31.6361 136.277 31.4082 135.691 31.4082C135.138 31.4082 134.642 31.5791 134.202 31.9209L138.206 7.70215C138.418 6.41634 138.792 5.46419 139.329 4.8457C140.062 3.98307 140.949 3.55176 141.99 3.55176C142.169 3.55176 142.381 3.58431 142.625 3.64941C142.869 3.71452 142.991 3.80404 142.991 3.91797C142.991 4.06445 140.965 13.4557 136.912 32.0918ZM134.593 39.3672C134.121 39.3672 133.755 39.1312 133.494 38.6592C133.234 38.1872 133.104 37.5768 133.104 36.8281C133.12 35.7865 133.396 34.8669 133.934 34.0693C134.471 33.2718 135.04 32.873 135.643 32.873C136.131 32.873 136.505 33.109 136.766 33.5811C137.026 34.0531 137.156 34.6471 137.156 35.3633C137.156 36.3561 136.863 37.3001 136.277 38.1953C135.773 38.9766 135.211 39.3672 134.593 39.3672Z" fill="#4EBD3C"/>
</svg>
