<svg width="202" height="293" viewBox="0 0 202 293" fill="none" xmlns="http://www.w3.org/2000/svg">
<path d="M124.541 155.668V216.288C124.659 224.93 123.036 233.508 119.766 241.517C116.497 249.527 111.647 256.805 105.502 262.925C93.8519 274.233 78.1871 280.531 61.897 280.456H0V91.6343H61.897C78.1702 91.5221 93.8351 97.7708 105.509 109.031C111.653 115.151 116.502 122.43 119.77 130.439C123.039 138.449 124.661 147.027 124.541 155.668Z" fill="#8EC6E8"/>
<path d="M88.9616 120.244C79.2217 107.913 66.3372 99.9921 52.1862 98.2397L0.0078125 91.6328V280.455L52.1862 287.033C58.9068 287.94 65.7481 287.243 72.1434 285C78.5387 282.758 84.304 279.034 88.9616 274.138C99.3489 263.227 105.012 247.647 105.012 229.508V168.915C105.188 151.381 99.5476 134.277 88.9616 120.244Z" fill="#B22128"/>
<path d="M88.7006 203.532C91.9698 203.532 94.62 200.899 94.62 197.652C94.62 194.406 91.9698 191.773 88.7006 191.773C85.4314 191.773 82.7812 194.406 82.7812 197.652C82.7812 200.899 85.4314 203.532 88.7006 203.532Z" fill="white"/>
<path d="M155.403 205.668C155.581 205.739 153.133 208.869 150.75 211.081C148.829 213.476 147.022 216.31 146.403 219.405C145.464 224.104 146.247 247.323 145.428 248.976C138.378 255.824 133.27 273.001 131.832 278.252C131.553 279.272 130.988 280.194 130.203 280.908L130.516 286.83L134.024 290.038C134.024 290.038 133.241 285.212 134.799 281.629C134.799 281.629 152.586 254.926 153.61 252.884C155.624 247.069 162.952 217.292 162.952 217.292L164.652 210.445L155.403 205.668Z" fill="#F9C38A"/>
<path d="M126.367 282.819C126.367 282.819 128.58 286.211 128.772 287.532C128.964 288.854 130.145 291.857 131.447 292.048C131.746 292.09 136.826 292.458 136.79 291.829C136.79 291.348 134.919 290.656 134.065 290.076C132.592 289.059 130.302 280.812 130.302 280.812C130.302 280.812 126.46 281.759 126.367 282.819Z" fill="#DC4537"/>
<path d="M170.578 216.337C170.578 216.337 182.018 240.617 182.089 244.885C182.153 248.545 180.09 269.079 180.666 286.179C180.666 286.794 181.47 287.592 182.615 288.136C183.263 288.433 186.379 289.811 186.379 289.811L186.806 290.921L176.077 290.164L175.928 287.253C175.928 287.253 171.659 261.674 172.093 254.438C172.164 253.307 172.719 246.503 172.719 246.503L159.82 221.771L167.931 211.172L170.578 216.337Z" fill="#F9C38A"/>
<path d="M171.675 161.828C169.946 157.242 165.414 154.465 160.704 155.327C159.983 154.173 159.039 153.173 157.926 152.383C156.814 151.594 155.555 151.031 154.223 150.727C149.043 149.624 142.049 151.659 142.234 157.086C140.228 160.739 140.15 165.968 143.223 168.752C142.156 173.699 146.781 178.419 152.814 178.249C154.913 181.683 158.918 183.902 162.888 183.422C163.767 183.278 164.653 183.181 165.542 183.132C165.236 183.083 171.945 188.17 177.601 180.341C183.364 172.356 179.302 162.683 171.675 161.828Z" fill="#202721"/>
<path d="M170.963 134.328C171.242 133.671 171.588 133.043 171.995 132.456L172.436 131.813C172.483 131.721 172.523 131.627 172.557 131.53C172.67 130.729 172.687 129.918 172.607 129.113L168.694 130.053L167.833 132.3C166.965 131.897 165.478 128.894 164.937 129.615C164.29 130.463 166.709 134.166 166.901 135.162C167.093 136.158 164.824 151.704 164.169 154.785C163.514 157.865 159.082 166.486 159.082 166.486L163.137 171.588C163.137 171.588 169.626 158.459 170.053 154.445C170.095 154.021 170.145 153.393 170.202 152.615L170.963 134.328Z" fill="#F9C38A"/>
<path d="M144.006 182.985L139.197 178.936C139.197 178.936 135.305 185.38 132.189 190.638C129.094 189.528 121.105 184.349 120.706 184.115C120.308 183.882 119.433 178.024 118.757 178.335C118.081 178.646 119.276 181.423 118.458 181.628C117.64 181.833 111.479 177.756 111.343 178.3C111.101 179.325 115.015 180.95 114.815 181.402C114.616 181.854 110.888 179.318 110.29 179.954C109.693 180.589 114.04 182.017 114.068 182.434C114.097 182.851 109.8 181.649 109.92 182.54C109.977 183.02 113.748 183.508 113.478 184.024C113.207 184.539 110.305 184.624 110.426 185.175C110.547 185.727 112.88 184.766 114.296 185.387C115.712 186.009 117.056 185.698 119.041 187.359C121.026 189.019 130.773 198.502 133.811 197.69C136.515 196.976 144.006 182.985 144.006 182.985Z" fill="#F9C38A"/>
<path d="M160.728 176.96C161.034 175.095 163.944 170.424 164.407 169.28C164.407 169.28 161.034 165.04 158.295 165.344C158.295 165.344 154.617 171.399 152.525 171.604C150.434 171.809 143.077 172.127 141.782 172.905C140.487 173.682 135.023 182.027 135.023 182.027C135.023 182.027 139.94 187.016 141.917 186.973C142.348 186.106 142.84 185.27 143.39 184.472C143.689 185.426 148.271 200.166 148.264 203.508C149.276 204.326 150.445 204.93 151.7 205.285C152.955 205.64 154.27 205.738 155.564 205.573C156.858 205.408 158.105 204.983 159.229 204.324C160.353 203.666 161.33 202.787 162.102 201.741C161.871 198.803 161.814 195.854 161.931 192.909C162.315 186.323 163.667 182.797 160.728 176.96Z" fill="#E7503D"/>
<path d="M184.576 234.004L162.136 201.797C160.792 202.377 159.393 202.822 157.96 203.125C154.753 203.622 151.501 203.76 148.263 203.535C148.271 203.641 148.271 203.747 148.263 203.853C147.893 206.51 144.343 210.615 143.61 218.692C142.785 227.836 143.283 243.72 143.567 244.759C158.465 242.95 180.343 238.414 184.576 234.004Z" fill="#202721"/>
<path d="M148.738 166.267C148.738 166.267 149.528 170.507 149.371 172.16C149.215 173.814 149.969 179.191 153.377 179.226C156.785 179.262 154.024 172.408 153.704 170.747C153.457 168.527 153.324 166.296 153.306 164.062L148.738 166.267Z" fill="#F9C38A"/>
<path d="M153.377 166.565C153.327 165.187 153.306 164.035 153.306 164.035L148.738 166.268C148.738 166.268 148.902 167.137 149.058 168.232C149.863 168.449 150.717 168.403 151.494 168.103C152.271 167.803 152.931 167.264 153.377 166.565Z" fill="#E5AC7A"/>
<path d="M147.067 154.582C145.898 155.329 145.038 156.467 144.641 157.79C143.993 159.981 144.726 165.634 149.28 166.976C153.833 168.319 155.804 163.867 154.864 160.369C153.925 156.872 151.912 152.448 147.067 154.582Z" fill="#F9C38A"/>
<path d="M155.453 159.024C155.361 159.964 154.863 160.677 154.329 160.628C153.796 160.578 153.447 159.766 153.532 158.826C153.618 157.886 154.123 157.165 154.656 157.222C155.19 157.278 155.539 158.084 155.453 159.024Z" fill="#F9C38A"/>
<path d="M145.968 162.643C146.502 163.463 146.502 164.438 145.968 164.805C145.434 165.173 144.545 164.805 144.033 164C143.521 163.194 143.499 162.205 144.033 161.83C144.566 161.456 145.434 161.823 145.968 162.643Z" fill="#F9C38A"/>
<path d="M167.172 128.981L165.784 130.691L164.867 129.984C164.839 129.925 164.824 129.859 164.824 129.794C164.824 129.728 164.839 129.662 164.867 129.603C165.002 129.391 167.143 128.352 167.172 128.981Z" fill="#F9C38A"/>
<path d="M176.045 292.193H189.599C190.097 292.144 190.218 291.741 190.047 291.486C189.691 290.978 188.105 290.603 186.333 289.79C183.217 290.116 176.43 288.003 175.939 287.289C175.654 288.716 175.768 292.129 176.045 292.193Z" fill="#DC4537"/>
<path d="M149.242 131.459C147.819 120.818 146.396 110.261 145.016 99.6615C145.671 99.5779 146.32 99.4504 146.958 99.2799C148.488 98.757 149.434 97.5558 150.28 96.2839C152.337 93.1677 153.56 89.6982 154.663 86.1793C155.168 84.5611 163.912 69.2558 164.211 65.0656C164.36 62.8468 164.339 60.621 164.353 58.4022C164.353 57.4059 164.261 56.4025 164.211 55.3991C164.211 54.7348 164.524 54.3462 165.299 54.1484C166.995 53.753 168.777 53.9501 170.344 54.7066C173.132 55.9078 174.612 58.1619 175.48 60.9389C176.633 64.8284 176.458 68.9874 174.982 72.7677C174.065 75.2974 173.36 77.9048 172.67 80.5051C172.324 81.693 172.377 82.9603 172.819 84.1159C173.004 84.5682 173.246 84.6742 173.766 84.6035C177.807 84.0241 181.855 83.4305 185.91 82.9712C188.294 82.6956 190.713 82.6391 193.11 82.519C194.172 82.4808 195.212 82.8217 196.041 83.48C197.894 84.7668 199.367 86.5204 200.31 88.5605C200.513 88.9646 200.609 89.4128 200.59 89.8637C200.572 90.3146 200.439 90.7535 200.204 91.1397C199.755 91.8958 199.343 92.6801 198.916 93.4503C198.705 93.7927 198.603 94.1904 198.623 94.5913C198.643 94.9923 198.785 95.3778 199.03 95.6974C199.698 96.623 200.41 97.5204 201.114 98.4249C202.253 99.8876 202.281 100.608 201.264 102.128C200.744 102.891 200.253 103.675 199.762 104.452C199.515 104.809 199.375 105.228 199.357 105.661C199.34 106.093 199.446 106.522 199.663 106.897C200.154 107.816 200.595 108.763 201.157 109.632C202.146 111.172 201.904 112.571 200.851 113.935C200.239 114.734 199.634 115.539 199.008 116.331C198.658 116.722 198.405 117.189 198.27 117.694C198.134 118.2 198.119 118.73 198.226 119.242C198.347 119.821 198.354 120.429 198.489 121.001C198.591 121.494 198.591 122.002 198.491 122.495C198.391 122.988 198.192 123.455 197.906 123.87C196.915 125.491 195.646 126.926 194.156 128.11C193.007 128.944 191.676 129.496 190.272 129.721C188.18 130.18 186.074 130.604 183.954 130.901C181.613 131.233 179.244 131.424 176.882 131.65C175.018 131.827 173.147 131.961 171.276 132.102C168.142 132.359 164.993 132.383 161.856 132.173C158.135 131.918 154.4 131.777 150.679 131.579C150.202 131.53 149.733 131.487 149.242 131.459Z" fill="#F9C38A"/>
<path d="M145.944 115.102C145.318 110.391 144.694 105.699 144.073 101.026C143.937 100.214 143.903 99.3878 143.973 98.5672C144.058 97.8606 144.229 97.5144 144.485 97.479C145.332 97.3589 148.099 98.2916 148.363 100.228C148.477 101.047 148.583 101.867 148.69 102.687C149.843 111.35 150.993 120.011 152.141 128.669C152.212 129.164 152.262 129.672 152.283 130.146C152.333 131.39 150.084 132.449 149.273 132.626C148.754 132.739 148.135 131.7 147.851 129.227C147.203 124.521 146.57 119.808 145.944 115.102Z" fill="#E7E6E6"/>
<path d="M132.118 116.902C131.445 111.796 130.766 106.687 130.083 101.576C129.883 100.633 130.046 99.65 130.539 98.8201C130.776 98.4381 131.096 98.1132 131.475 97.8688C131.853 97.6244 132.282 97.4666 132.73 97.4068L141.872 96.2056C143.857 95.9512 145.359 97.1524 145.672 99.2652C145.8 100.156 145.906 101.046 146.027 101.936C147.279 111.358 148.529 120.793 149.777 130.243C149.855 130.782 149.855 131.33 149.777 131.868C149.683 132.528 149.374 133.139 148.897 133.607C148.42 134.075 147.802 134.376 147.137 134.462C144.17 134.857 141.196 135.168 138.244 135.649C136.344 135.953 134.487 134.942 134.153 132.278C133.513 127.155 132.801 122.032 132.118 116.902Z" fill="#9DC150"/>
<path d="M142.949 101.634C142.999 102.011 142.935 102.394 142.765 102.734C142.594 103.075 142.326 103.357 141.994 103.545C141.662 103.734 141.281 103.82 140.9 103.793C140.518 103.766 140.153 103.627 139.852 103.393C139.55 103.159 139.325 102.842 139.206 102.481C139.086 102.12 139.078 101.732 139.181 101.366C139.284 101 139.495 100.673 139.786 100.426C140.077 100.18 140.435 100.025 140.815 99.9808C141.318 99.9246 141.823 100.066 142.222 100.375C142.62 100.684 142.882 101.136 142.949 101.634Z" fill="#E7E6E6"/>
<path d="M163.616 129.642C163.899 129.718 164.149 129.885 164.327 130.116C164.782 130.603 165.181 131.578 165.252 131.529C166.651 132.339 168.098 133.063 169.585 133.698C169.642 133.867 169.713 134.03 169.798 134.186L167.265 135.649L167.052 135.324C166.706 134.82 166.292 134.366 165.821 133.974C165.353 133.613 164.947 133.179 164.619 132.688C164.526 132.455 164.249 131.84 164.099 131.515C163.95 131.19 163.765 130.808 163.708 130.625C163.624 130.458 163.513 130.305 163.381 130.172C163.332 130.13 163.298 130.073 163.284 130.01C163.271 129.947 163.277 129.881 163.303 129.822C163.329 129.763 163.374 129.714 163.43 129.682C163.486 129.649 163.551 129.636 163.616 129.642Z" fill="#F9C38A"/>
<path d="M109.78 52.502C108.992 51.3572 107.961 50.3985 106.758 49.6939C105.556 48.9893 104.212 48.556 102.822 48.4248C101.057 48.2639 99.2765 48.4414 97.5785 48.9477C98.788 43.2947 102.815 39.5144 107.005 36.3134C107.281 36.0802 107.469 35.7608 107.537 35.4075C107.606 35.0543 107.551 34.6884 107.382 34.3702C107.247 34.0778 107.016 33.84 106.726 33.6961C106.436 33.5522 106.105 33.5108 105.789 33.5788C98.8521 35.2747 94.5335 42.5811 93.4592 48.6509C93.3321 49.383 93.2442 50.1213 93.1959 50.8626C92.1625 51.4826 91.1947 52.2046 90.3074 53.0178C84.011 58.7767 80.0482 67.1501 78.8458 77.29C78.8159 77.5409 78.8542 77.7951 78.9568 78.0263C79.0594 78.2574 79.2226 78.457 79.4292 78.6043C79.6156 78.7329 79.8303 78.8152 80.0553 78.8446C80.2309 78.8672 80.4093 78.8546 80.5799 78.8075C80.7505 78.7604 80.9098 78.6797 81.0485 78.5704C81.1872 78.461 81.3023 78.3251 81.3871 78.1707C81.4719 78.0163 81.5247 77.8466 81.5422 77.6716C82.4537 71.7602 84.8002 66.158 88.3793 61.3488C89.8358 59.2711 91.5523 57.3859 93.4876 55.7383C94.3841 60.4302 97.1161 64.4862 101.926 65.4754C103.442 65.8424 105.036 65.7322 106.486 65.16C107.937 64.5878 109.172 63.5819 110.022 62.2815C110.964 60.812 111.445 59.0969 111.402 57.3551C111.359 55.6133 110.794 53.9238 109.78 52.502ZM101.954 52.6574C104.167 52.8835 106.934 54.1554 107.311 57.0031C107.413 57.5676 107.385 58.1477 107.229 58.6998C107.072 59.2518 106.791 59.7613 106.408 60.1899C106.015 60.5937 105.535 60.9034 105.003 61.0956C104.472 61.2878 103.904 61.3574 103.341 61.2993C102.554 61.2575 101.786 61.0463 101.09 60.6803C100.393 60.3142 99.7849 59.8021 99.3074 59.1795C98.1073 57.4782 97.4166 55.4742 97.3153 53.3994C98.7559 52.7648 100.333 52.4976 101.904 52.6221L101.954 52.6574Z" fill="#E7503D"/>
<path d="M69.0902 72.2871C71.0609 64.2529 72.6475 56.4236 70.5985 48.884C69.5447 44.9352 67.3834 41.3649 64.3661 38.5886C65.0073 37.1087 65.4844 35.5639 65.789 33.9815C67.2119 26.4207 64.8428 18.6267 59.6349 13.6239C59.3873 13.3818 59.0538 13.2461 58.7064 13.2461C58.359 13.2461 58.0255 13.3818 57.7779 13.6239C57.4905 13.8795 57.3116 14.2341 57.2772 14.6158C57.2429 14.9975 57.3557 15.3779 57.593 15.6801C59.561 17.971 61.0414 20.634 61.945 23.5086C62.8487 26.3832 63.1567 29.4097 62.8506 32.4057C62.6738 33.9065 62.3375 35.3845 61.8475 36.815C60.2478 35.905 58.4528 35.3866 56.6112 35.3029C53.7653 35.1898 50.5566 36.7655 49.9163 40.016C49.7011 41.2857 49.9685 42.5896 50.6666 43.6746C51.3646 44.7597 52.4436 45.5484 53.6942 45.888C54.5978 46.1994 55.5602 46.3059 56.5106 46.1995C57.4611 46.0931 58.3755 45.7766 59.1867 45.2732C60.5384 44.419 61.6847 43.2805 62.5447 41.938C64.7095 44.3269 66.2339 47.2187 66.9771 50.3467C68.4001 55.823 67.6459 61.6526 66.906 67.2348C66.7139 68.6905 66.5147 70.2026 66.3581 71.6724C66.3348 71.936 66.3833 72.201 66.4984 72.4397C66.6136 72.6784 66.7912 72.8819 67.0127 73.0291C67.189 73.1581 67.394 73.243 67.6103 73.2764C67.7729 73.3082 67.9402 73.3079 68.1027 73.2753C68.2652 73.2428 68.4195 73.1788 68.557 73.0869C68.6945 72.995 68.8123 72.877 68.9038 72.7398C68.9953 72.6025 69.0587 72.4487 69.0902 72.2871ZM59.393 41.302C58.5748 42.256 56.8957 43.7752 54.7756 43.2523C54.329 43.166 53.9119 42.9683 53.5634 42.6779C53.2149 42.3874 52.9465 42.0136 52.7835 41.5917C52.6929 41.2503 52.698 40.8907 52.7983 40.5519C52.8986 40.2132 53.0904 39.9081 53.3527 39.6697C53.6653 39.3186 54.0482 39.036 54.4769 38.8401C54.9057 38.6442 55.3709 38.5393 55.8428 38.5321C57.4507 38.5947 59.0035 39.1309 60.3037 40.0725C60.029 40.5027 59.7247 40.9135 59.393 41.302Z" fill="#FAB623"/>
<path d="M55.8361 82.8874C54.7834 79.141 52.8226 75.7079 50.125 72.8882C47.4274 70.0686 44.0753 67.9484 40.3618 66.713C39.4136 66.4221 38.4491 66.1861 37.4733 66.0064C35.7871 57.4493 27.9611 52.2274 20.3911 48.2633C20.2559 48.189 20.107 48.1426 19.9533 48.127C19.7996 48.1114 19.6442 48.1268 19.4967 48.1724C19.3491 48.2179 19.2124 48.2926 19.0947 48.392C18.977 48.4915 18.8807 48.6135 18.8117 48.7508C18.638 49.038 18.5855 49.3817 18.6654 49.7071C18.7453 50.0326 18.9513 50.3136 19.2386 50.4891C24.0907 53.3156 30.1311 56.8486 33.048 62.5016C33.5391 63.4679 33.9231 64.4844 34.1935 65.533C29.0212 65.2079 23.6497 66.3809 20.505 69.7727C18.5841 71.8218 18.1856 74.3021 19.4022 76.5703C19.5558 76.8591 19.7318 77.1355 19.9287 77.397C20.8598 78.6059 22.0972 79.5477 23.5147 80.1262C24.9321 80.7047 26.4788 80.8992 27.9966 80.6899C33.6172 79.7995 37.6796 74.6836 37.7508 68.8258C38.3271 68.953 38.882 69.1014 39.4156 69.2639C42.7933 70.3106 45.8589 72.1685 48.3409 74.673C50.8229 77.1776 52.6446 80.2514 53.6448 83.6223C53.6805 83.7651 53.7454 83.899 53.8355 84.0158C53.9255 84.1326 54.0387 84.2298 54.1682 84.3013C54.2976 84.3729 54.4404 84.4173 54.5878 84.4318C54.7352 84.4462 54.884 84.4305 55.025 84.3855C55.3317 84.2924 55.589 84.0827 55.7409 83.8022C55.8928 83.5217 55.927 83.1929 55.8361 82.8874ZM34.6203 68.3665C34.7697 71.518 33.7453 74.6624 30.8567 76.7258C29.0923 77.9835 26.3318 78.9092 23.8702 77.7291C23.1895 77.482 22.5939 77.0473 22.153 76.4761C21.7121 75.9048 21.4442 75.2206 21.3808 74.5036C21.3173 73.7866 21.4609 73.0664 21.7947 72.4276C22.1285 71.7887 22.6387 71.2575 23.2655 70.8962C26.3674 68.6633 30.6646 68.0485 34.6203 68.3665Z" fill="#8EC6E8"/>
<path d="M86.9395 42.3183C85.5671 43.3492 84.4963 44.7249 83.8375 46.3036C83.6311 46.9184 84.4493 47.6391 84.8833 47.0102C85.6171 45.6567 86.5392 44.4126 87.6224 43.3146C88.1347 42.8482 87.5228 41.9014 86.911 42.3536L86.9395 42.3183Z" fill="#8EC6E8"/>
<path d="M54.0729 65.6463C52.4555 62.8853 50.3149 60.4617 47.7694 58.5094C47.1575 58.036 46.5385 59.0111 47.1077 59.4492C49.574 61.3391 51.6452 63.689 53.2049 66.367C53.5962 67.0383 54.4358 66.2681 54.0729 65.6604V65.6463Z" fill="#B22128"/>
<path d="M20.2643 65.8034C20.5583 64.5886 21.1527 63.4658 21.9937 62.5368C22.8347 61.6077 23.8958 60.9016 25.0809 60.4826C25.7425 60.2423 25.3299 59.1188 24.6398 59.3732C23.3202 59.8537 22.1387 60.6468 21.1976 61.6836C20.2566 62.7204 19.5845 63.9696 19.2398 65.3229C19.0619 66.0295 20.0651 66.5595 20.2643 65.8034Z" fill="#B22128"/>
<path d="M41.2387 33.2621C41.5091 29.6089 39.9226 26.0193 36.5574 24.2739C33.1922 22.5286 29.0586 23.4048 26.291 25.9415C25.7574 26.4362 26.412 27.4678 27.0025 26.9449C32.0609 22.5639 40.449 26.2383 40.1431 33.0784C40.1431 33.785 41.1747 34.0394 41.2317 33.2621H41.2387Z" fill="#9DC150"/>
<path d="M60.3324 60.6353C59.9695 54.4666 51.6241 51.7461 46.4447 52.4315C45.6336 52.5375 45.847 53.76 46.6225 53.7529C49.1408 53.7131 51.6357 54.2372 53.9221 55.2863C56.0565 56.2967 58.9735 58.1975 59.2438 60.7767C59.2532 60.8477 59.2765 60.9161 59.3125 60.9782C59.3485 61.0402 59.3964 61.0946 59.4535 61.1382C59.5107 61.1818 59.5759 61.2139 59.6455 61.2325C59.7151 61.251 59.7878 61.2558 59.8593 61.2466C59.9307 61.2373 59.9996 61.2141 60.0621 61.1784C60.1246 61.1426 60.1793 61.095 60.2232 61.0383C60.2672 60.9815 60.2994 60.9167 60.3182 60.8476C60.3369 60.7784 60.3417 60.7063 60.3324 60.6353Z" fill="#9DC150"/>
<path d="M112.865 41.3505C113.745 40.4955 114.822 39.867 116.003 39.5197C117.183 39.1724 118.431 39.1168 119.638 39.3579C120.35 39.4992 120.478 38.305 119.78 38.1708C118.428 37.9035 117.03 37.9657 115.706 38.3521C114.383 38.7385 113.174 39.4376 112.182 40.3895C111.677 40.87 112.324 41.8664 112.893 41.3505H112.865Z" fill="#9DC150"/>
<path d="M13.468 50.896L12.8918 49.8573C12.8569 49.792 12.8387 49.7192 12.8387 49.6453C12.8387 49.5714 12.8569 49.4986 12.8918 49.4333L13.4182 48.3734C13.4568 48.297 13.4731 48.2114 13.4653 48.1263C13.4575 48.0412 13.4259 47.9599 13.3742 47.8916C13.3224 47.8233 13.2525 47.7708 13.1723 47.7398C13.0921 47.7088 13.0048 47.7007 12.9202 47.7163L11.7463 47.9424C11.6723 47.9555 11.5962 47.9509 11.5244 47.9287C11.4526 47.9066 11.3872 47.8677 11.3337 47.8152L10.487 46.9885C10.4244 46.929 10.3464 46.888 10.2617 46.8698C10.177 46.8517 10.0889 46.8572 10.0071 46.8857C9.92536 46.9143 9.85313 46.9647 9.79845 47.0315C9.74378 47.0982 9.70879 47.1787 9.69732 47.264L9.55502 48.437C9.5453 48.5106 9.5175 48.5807 9.47408 48.641C9.43065 48.7014 9.37295 48.7503 9.30603 48.7833L8.25304 49.3344C8.17485 49.372 8.10893 49.4308 8.0628 49.5039C8.01666 49.577 7.99219 49.6615 7.99219 49.7478C7.99219 49.8341 8.01666 49.9186 8.0628 49.9917C8.10893 50.0648 8.17485 50.1235 8.25304 50.1612L9.32735 50.6558C9.39549 50.689 9.45484 50.7376 9.50057 50.7977C9.54629 50.8579 9.57712 50.9279 9.59058 51.002L9.78981 52.1679C9.80434 52.2527 9.84249 52.3317 9.89998 52.3959C9.95747 52.4602 10.032 52.5071 10.115 52.5314C10.198 52.5557 10.2862 52.5564 10.3696 52.5333C10.4529 52.5103 10.5282 52.4645 10.5866 52.4011L11.3977 51.5391C11.4483 51.4842 11.5119 51.4425 11.5826 51.4179C11.6534 51.3932 11.7291 51.3863 11.8032 51.3977L12.9843 51.5744C13.0707 51.5897 13.1597 51.5803 13.2409 51.5473C13.3221 51.5142 13.3922 51.4589 13.4429 51.3877C13.4937 51.3166 13.523 51.2326 13.5274 51.1455C13.5319 51.0584 13.5113 50.9719 13.468 50.896Z" fill="#B22128"/>
<path d="M48.2714 18.0267L47.688 16.988C47.6548 16.9222 47.6375 16.8496 47.6375 16.776C47.6375 16.7024 47.6548 16.6298 47.688 16.564L48.2215 15.5041C48.2607 15.4271 48.2773 15.3406 48.2693 15.2547C48.2613 15.1688 48.2291 15.0868 48.1764 15.0183C48.1237 14.9497 48.0526 14.8972 47.9712 14.8669C47.8899 14.8366 47.8016 14.8297 47.7164 14.8469L46.5496 15.073C46.4756 15.0868 46.3993 15.0824 46.3274 15.0602C46.2555 15.0381 46.1901 14.9988 46.137 14.9458L45.2832 14.1191C45.2214 14.0591 45.1439 14.0175 45.0594 13.999C44.975 13.9806 44.887 13.986 44.8055 14.0147C44.724 14.0434 44.6522 14.0942 44.5983 14.1614C44.5444 14.2285 44.5106 14.3094 44.5006 14.3947L44.3228 15.5677C44.3149 15.6418 44.2887 15.7128 44.2465 15.7745C44.2043 15.8361 44.1474 15.8864 44.0808 15.921L43.0421 16.4651C42.964 16.5027 42.898 16.5614 42.8519 16.6345C42.8057 16.7076 42.7812 16.7922 42.7812 16.8784C42.7812 16.9647 42.8057 17.0493 42.8519 17.1224C42.898 17.1955 42.964 17.2542 43.0421 17.2918L44.1235 17.7935C44.1909 17.825 44.2494 17.8723 44.2941 17.9314C44.3388 17.9906 44.3682 18.0597 44.3797 18.1327L44.5789 19.2986C44.5947 19.3824 44.6335 19.4603 44.6908 19.5238C44.7481 19.5872 44.8218 19.6339 44.9039 19.6587C44.9861 19.6834 45.0735 19.6854 45.1567 19.6642C45.2399 19.6431 45.3156 19.5997 45.3757 19.5389L46.1868 18.6697C46.2388 18.6167 46.3026 18.5764 46.3729 18.5519C46.4432 18.5274 46.5183 18.5193 46.5923 18.5284L47.7733 18.705C47.8601 18.7207 47.9497 18.7117 48.0316 18.6791C48.1135 18.6465 48.1845 18.5917 48.2364 18.5209C48.2884 18.4501 48.3193 18.3662 48.3255 18.2788C48.3316 18.1914 48.3129 18.104 48.2714 18.0267Z" fill="#8EC6E8"/>
<path d="M95.9411 17.9774L95.3577 16.9458C95.3244 16.8787 95.3072 16.805 95.3072 16.7302C95.3072 16.6555 95.3244 16.5818 95.3577 16.5147L95.8913 15.4548C95.9305 15.3778 95.947 15.2914 95.939 15.2054C95.931 15.1195 95.8989 15.0376 95.8461 14.969C95.7934 14.9004 95.7223 14.8479 95.641 14.8176C95.5596 14.7873 95.4713 14.7804 95.3862 14.7976L94.2194 15.0238C94.146 15.0384 94.07 15.0352 93.9981 15.0142C93.9263 14.9933 93.8606 14.9554 93.8067 14.9036L92.953 14.0769C92.8916 14.017 92.8146 13.9754 92.7307 13.9566C92.6468 13.9378 92.5593 13.9426 92.478 13.9705C92.3966 13.9984 92.3248 14.0483 92.2705 14.1145C92.2161 14.1807 92.1815 14.2607 92.1704 14.3454L91.9925 15.5184C91.9859 15.5929 91.9602 15.6645 91.9179 15.7263C91.8755 15.7882 91.8179 15.8382 91.7506 15.8717L90.6905 16.4158C90.6123 16.4534 90.5464 16.5121 90.5003 16.5852C90.4542 16.6583 90.4297 16.7429 90.4297 16.8292C90.4297 16.9155 90.4542 17 90.5003 17.0731C90.5464 17.1462 90.6123 17.2049 90.6905 17.2425L91.772 17.7442C91.8393 17.7757 91.8979 17.823 91.9425 17.8822C91.9872 17.9413 92.0165 18.0104 92.0281 18.0834L92.2273 19.2493C92.2408 19.3346 92.2782 19.4144 92.3352 19.4796C92.3923 19.5448 92.4666 19.5926 92.5498 19.6177C92.633 19.6428 92.7217 19.6441 92.8055 19.6214C92.8894 19.5987 92.9652 19.5531 93.0241 19.4896L93.8352 18.6275C93.8863 18.5731 93.9498 18.5318 94.0204 18.5072C94.0911 18.4826 94.1666 18.4754 94.2407 18.4862L95.4218 18.6558C95.5101 18.6765 95.6027 18.6713 95.6881 18.6408C95.7736 18.6103 95.8483 18.5559 95.9033 18.4841C95.9583 18.4123 95.9911 18.3263 95.9978 18.2363C96.0045 18.1464 95.9848 18.0565 95.9411 17.9774Z" fill="#FFCD03"/>
<path d="M36.7751 46.9484C36.9528 46.6983 37.0515 46.4014 37.0586 46.0954C37.0657 45.7894 36.9808 45.4883 36.8149 45.2304C36.6489 44.9725 36.4094 44.7696 36.1268 44.6474C35.8442 44.5253 35.5314 44.4896 35.2283 44.5448C34.9252 44.6 34.6455 44.7436 34.425 44.9573C34.2044 45.1711 34.0529 45.4452 33.9899 45.7448C33.9268 46.0444 33.955 46.3558 34.0709 46.6394C34.1868 46.923 34.3852 47.1658 34.6407 47.337C34.977 47.5623 35.3887 47.6478 35.7877 47.5751C36.1867 47.5025 36.5411 47.2775 36.7751 46.9484Z" fill="#8EC6E8"/>
<path d="M79.9743 29.7023C80.152 29.4522 80.2507 29.1553 80.2578 28.8493C80.2649 28.5433 80.1801 28.2422 80.0141 27.9843C79.8481 27.7264 79.6086 27.5235 79.326 27.4013C79.0435 27.2792 78.7307 27.2435 78.4276 27.2987C78.1244 27.3539 77.8447 27.4975 77.6242 27.7112C77.4036 27.925 77.2521 28.1991 77.1891 28.4987C77.126 28.7983 77.1543 29.1097 77.2702 29.3933C77.3861 29.6769 77.5844 29.9198 77.8399 30.0909C78.1756 30.318 78.5879 30.4046 78.9874 30.3318C79.3869 30.2591 79.7415 30.0329 79.9743 29.7023Z" fill="#9DC150"/>
<path d="M10.661 33.4498C11.411 33.0389 11.6837 32.1019 11.2699 31.357C10.8562 30.612 9.91283 30.3412 9.16277 30.7521C8.41272 31.163 8.14007 32.1 8.55378 32.8449C8.96749 33.5899 9.9109 33.8607 10.661 33.4498Z" fill="#B22128"/>
<path d="M56.09 4.01444C56.9466 4.01444 57.641 3.32477 57.641 2.47402C57.641 1.62326 56.9466 0.933594 56.09 0.933594C55.2335 0.933594 54.5391 1.62326 54.5391 2.47402C54.5391 3.32477 55.2335 4.01444 56.09 4.01444Z" fill="#B22128"/>
<path d="M78.4807 54.0574C79.3372 54.0574 80.0316 53.3677 80.0316 52.517C80.0316 51.6662 79.3372 50.9766 78.4807 50.9766C77.6241 50.9766 76.9297 51.6662 76.9297 52.517C76.9297 53.3677 77.6241 54.0574 78.4807 54.0574Z" fill="#B22128"/>
<path d="M7.13391 70.7404C7.31063 70.4898 7.40821 70.1926 7.41417 69.8866C7.42013 69.5807 7.33422 69.2799 7.16739 69.0227C7.00057 68.7655 6.76039 68.5634 6.47747 68.4423C6.19456 68.3211 5.88175 68.2864 5.5789 68.3426C5.27604 68.3987 4.99689 68.5432 4.77703 68.7575C4.55716 68.9719 4.40654 69.2464 4.34439 69.5461C4.28224 69.8458 4.31134 70.1571 4.42803 70.4403C4.54471 70.7234 4.74367 70.9657 4.99953 71.1361C5.33667 71.3607 5.74905 71.4451 6.1481 71.3711C6.54715 71.2971 6.90106 71.0707 7.13391 70.7404Z" fill="#FFCD03"/>
</svg>
