<svg width="31" height="36" viewBox="0 0 31 36" fill="none" xmlns="http://www.w3.org/2000/svg">
<path d="M30.24 29.52V33.12C30.24 33.8838 29.9365 34.6164 29.3964 35.1565C28.8563 35.6966 28.1238 36 27.36 36H2.88V35.928C2.06685 35.762 1.33603 35.3202 0.811218 34.6773C0.286404 34.0344 -0.000169308 33.2299 7.50443e-08 32.4V0.720054C-2.04282e-06 0.589726 0.0353705 0.461841 0.102345 0.350039C0.16932 0.238237 0.265385 0.14671 0.380295 0.0852197C0.495205 0.0237294 0.62465 -0.00541802 0.754826 0.000885927C0.885001 0.00718987 1.01102 0.0487088 1.11945 0.121015L5.03999 2.7349L8.96067 0.121303C9.07886 0.0422179 9.21786 0 9.36006 0C9.50226 0 9.64126 0.0422179 9.75944 0.121303L13.68 2.7349L17.6007 0.121303C17.7188 0.0422179 17.8578 0 18 0C18.1422 0 18.2812 0.0422179 18.3994 0.121303L22.32 2.7349L26.2406 0.121303C26.3491 0.0490491 26.475 0.00756379 26.6052 0.00126823C26.7353 -0.00502733 26.8647 0.0241027 26.9796 0.0855539C27.0944 0.147005 27.1905 0.238474 27.2575 0.350213C27.3245 0.461952 27.3599 0.589773 27.36 0.720054V28.8H29.52C29.7109 28.8 29.894 28.8759 30.0291 29.0109C30.1641 29.1459 30.24 29.3291 30.24 29.52ZM6.47999 28.8H25.92V2.06544L22.7194 4.19952C22.6012 4.27861 22.4622 4.32082 22.32 4.32082C22.1778 4.32082 22.0388 4.27861 21.9207 4.19952L18 1.58592L14.0794 4.19952C13.9613 4.27861 13.8223 4.32082 13.6801 4.32082C13.5378 4.32082 13.3988 4.27861 13.2807 4.19952L9.35999 1.58592L5.43945 4.19952C5.32127 4.27861 5.18227 4.32082 5.04006 4.32082C4.89786 4.32082 4.75886 4.27861 4.64068 4.19952L1.44 2.06544V32.4C1.44 32.9729 1.66757 33.5223 2.07265 33.9274C2.47772 34.3324 3.02713 34.56 3.59999 34.56C4.17286 34.56 4.72227 34.3324 5.12734 33.9274C5.53242 33.5223 5.75999 32.9729 5.75999 32.4V29.52C5.75999 29.3291 5.83585 29.1459 5.97087 29.0109C6.1059 28.8759 6.28903 28.8 6.47999 28.8ZM28.8 30.24H7.19999V32.4C7.19765 33.1812 6.93894 33.9401 6.46357 34.56H27.36C27.7418 34.5597 28.1078 34.4078 28.3778 34.1379C28.6478 33.8679 28.7996 33.5018 28.8 33.12V30.24Z" fill="#E7503D"/>
<path d="M17.8446 13.4386H17.1871C17.0533 13.0503 16.8656 12.6831 16.6296 12.3477H17.8446C18.0872 12.3477 18.3199 12.2506 18.4915 12.0778C18.6631 11.905 18.7594 11.6707 18.7594 11.4263C18.7594 11.1819 18.6631 10.9476 18.4915 10.7748C18.3199 10.602 18.0872 10.5049 17.8446 10.5049H13.1939C13.1604 10.5049 13.128 10.5 13.0939 10.5H10.6743C10.4317 10.5 10.199 10.5971 10.0274 10.7699C9.85583 10.9427 9.75944 11.177 9.75944 11.4214C9.75944 11.6658 9.85583 11.9001 10.0274 12.0729C10.199 12.2457 10.4317 12.3428 10.6743 12.3428H13.0939C13.5003 12.3428 13.9007 12.4426 14.2602 12.6336C14.6197 12.8245 14.9276 13.1009 15.1572 13.4386H10.7121C10.4695 13.4386 10.2368 13.5357 10.0652 13.7085C9.89365 13.8813 9.79726 14.1157 9.79726 14.36C9.79726 14.6044 9.89365 14.8388 10.0652 15.0116C10.2368 15.1844 10.4695 15.2814 10.7121 15.2814H15.558C15.4609 15.8695 15.1602 16.4039 14.7091 16.7898C14.258 17.1757 13.6858 17.3882 13.0939 17.3896H10.6743C10.4955 17.3897 10.3206 17.4425 10.1713 17.5416C10.0219 17.6407 9.90471 17.7817 9.8341 17.9472C9.7635 18.1127 9.7426 18.2954 9.77399 18.4727C9.80538 18.65 9.88769 18.8142 10.0107 18.9449L14.9572 24.1969C15.039 24.2879 15.1381 24.3616 15.2486 24.4135C15.3591 24.4655 15.4788 24.4947 15.6007 24.4993C15.7225 24.504 15.8441 24.4841 15.9582 24.4408C16.0723 24.3975 16.1767 24.3316 16.2651 24.2471C16.3536 24.1626 16.4244 24.0611 16.4734 23.9486C16.5224 23.8362 16.5485 23.715 16.5503 23.5922C16.5521 23.4694 16.5295 23.3474 16.4838 23.2336C16.4382 23.1197 16.3703 23.0161 16.2844 22.929L12.8029 19.2324H13.0939C14.1719 19.231 15.2108 18.8257 16.0084 18.0954C16.806 17.3651 17.3053 16.3621 17.4091 15.2814H17.8446C18.0872 15.2814 18.3199 15.1844 18.4915 15.0116C18.6631 14.8388 18.7594 14.6044 18.7594 14.36C18.7594 14.1157 18.6631 13.8813 18.4915 13.7085C18.3199 13.5357 18.0872 13.4386 17.8446 13.4386Z" fill="#E7503D"/>
</svg>
