<svg width="30" height="30" viewBox="0 0 30 30" fill="none" xmlns="http://www.w3.org/2000/svg">
<circle cx="15" cy="15" r="15" fill="#B12028"/>
<path d="M15.004 20.14C14.332 20.14 13.688 20.042 13.072 19.846C12.4653 19.6407 11.9613 19.3653 11.56 19.02L12.148 17.648C12.988 18.3013 13.9213 18.628 14.948 18.628C16.208 18.628 16.838 18.1333 16.838 17.144C16.838 16.6773 16.6793 16.332 16.362 16.108C16.054 15.8747 15.6013 15.758 15.004 15.758H13.422V14.274H14.836C15.3587 14.274 15.774 14.148 16.082 13.896C16.39 13.6347 16.544 13.2753 16.544 12.818C16.544 12.3887 16.3993 12.062 16.11 11.838C15.83 11.614 15.4193 11.502 14.878 11.502C13.9073 11.502 13.0533 11.838 12.316 12.51L11.728 11.166C12.12 10.7927 12.61 10.5033 13.198 10.298C13.786 10.0927 14.3973 9.99 15.032 9.99C16.0587 9.99 16.8567 10.2233 17.426 10.69C17.9953 11.1473 18.28 11.7867 18.28 12.608C18.28 13.14 18.1447 13.6067 17.874 14.008C17.6033 14.4093 17.2347 14.6987 16.768 14.876C17.3373 15.0347 17.7807 15.3287 18.098 15.758C18.4153 16.178 18.574 16.6913 18.574 17.298C18.574 18.1753 18.2567 18.8707 17.622 19.384C16.9873 19.888 16.1147 20.14 15.004 20.14Z" fill="white"/>
</svg>
