<svg width="35" height="36" viewBox="0 0 35 36" fill="none" xmlns="http://www.w3.org/2000/svg">
<path d="M34.6698 35.0112L29.7456 30.0869C29.7315 30.0765 29.717 30.0669 29.7019 30.058C30.8669 28.6853 31.456 26.9153 31.3459 25.1183C31.2357 23.3212 30.4349 21.6364 29.111 20.4162C27.7871 19.1961 26.0427 18.5351 24.2427 18.5717C22.4426 18.6082 20.7264 19.3395 19.4532 20.6124C18.1799 21.8853 17.4482 23.6012 17.4111 25.4013C17.374 27.2013 18.0345 28.9459 19.2542 30.2702C20.474 31.5945 22.1586 32.3957 23.9556 32.5064C25.7527 32.617 27.5228 32.0285 28.8959 30.8639C28.9075 30.8774 28.912 30.8945 28.9249 30.9075L33.849 35.8317C33.958 35.9398 34.1053 36.0003 34.2588 36C34.4123 35.9997 34.5594 35.9386 34.6679 35.8301C34.7764 35.7216 34.8376 35.5745 34.8379 35.421C34.8383 35.2675 34.7778 35.1202 34.6698 35.0112ZM24.394 31.3592C23.2462 31.3592 22.1242 31.0189 21.1699 30.3812C20.2155 29.7435 19.4717 28.8372 19.0325 27.7768C18.5933 26.7164 18.4783 25.5496 18.7023 24.4239C18.9262 23.2981 19.4789 22.2641 20.2905 21.4525C21.1021 20.6409 22.1361 20.0882 23.2618 19.8643C24.3875 19.6404 25.5544 19.7553 26.6148 20.1945C27.6752 20.6338 28.5815 21.3776 29.2192 22.3319C29.8568 23.2862 30.1972 24.4082 30.1972 25.556C30.1954 27.0946 29.5834 28.5696 28.4955 29.6575C27.4076 30.7455 25.9325 31.3574 24.394 31.3592Z" fill="#E7503D"/>
<path fill-rule="evenodd" clip-rule="evenodd" d="M25.5341 6.96385H26.1144C26.5762 6.96385 27.019 7.14727 27.3455 7.47377C27.672 7.80026 27.8554 8.24308 27.8554 8.70481V16.6358C27.4763 16.5326 27.089 16.4492 26.6948 16.3867V15.0883H22.0522V16.6358C21.656 16.7436 21.2687 16.8729 20.8916 17.0224V15.0883C20.8916 14.7805 21.0138 14.4853 21.2315 14.2676C21.4492 14.05 21.7444 13.9277 22.0522 13.9277H26.6948V8.70481C26.6948 8.5509 26.6336 8.4033 26.5248 8.29446C26.416 8.18563 26.2684 8.12449 26.1144 8.12449H4.06225C3.52124 8.12466 2.98569 8.01631 2.48729 7.80585C1.9889 7.59538 1.53778 7.28709 1.16064 6.8992V24.9538C1.16064 25.1077 1.22178 25.2553 1.33061 25.3641C1.43945 25.473 1.58705 25.5341 1.74096 25.5341H14.0646C14.0041 25.9149 13.9632 26.3021 13.9428 26.6948H1.74096C1.27923 26.6948 0.83641 26.5113 0.509916 26.1848C0.183422 25.8584 0 25.4155 0 24.9538V4.06225C0 2.98487 0.427985 1.95162 1.1898 1.1898C1.95162 0.427985 2.98487 0 4.06225 0H24.3735C24.6813 0 24.9765 0.122281 25.1942 0.339944C25.4118 0.557607 25.5341 0.85282 25.5341 1.16064V6.96385ZM24.3735 1.16064H4.06225C3.31702 1.15851 2.5997 1.44396 2.05969 1.95753C1.51969 2.4711 1.19862 3.17321 1.16338 3.9176C1.12814 4.66199 1.38143 5.39129 1.8705 5.95358C2.35957 6.51588 3.04671 6.86782 3.7888 6.93611C3.59008 6.59145 3.48433 6.20105 3.48193 5.80321C3.48193 5.18757 3.72649 4.59714 4.16181 4.16181C4.59714 3.72649 5.18757 3.48193 5.80321 3.48193H24.3735V1.16064ZM24.3735 6.96385V4.64257H5.80321C5.49539 4.64257 5.20017 4.76485 4.98251 4.98251C4.76485 5.20017 4.64257 5.49539 4.64257 5.80321C4.64257 6.11103 4.76485 6.40624 4.98251 6.62391C5.20017 6.84157 5.49539 6.96385 5.80321 6.96385H24.3735Z" fill="#E7503D"/>
</svg>
