<svg width="36" height="36" viewBox="0 0 36 36" fill="none" xmlns="http://www.w3.org/2000/svg">
<path d="M7.92042 25.92H6.48042C5.90755 25.92 5.35815 26.1476 4.95307 26.5527C4.54799 26.9577 4.32042 27.5071 4.32042 28.08V33.84C4.32042 34.4129 4.54799 34.9623 4.95307 35.3674C5.35815 35.7724 5.90755 36 6.48042 36H7.92042C8.49329 36 9.04269 35.7724 9.44777 35.3674C9.85285 34.9623 10.0804 34.4129 10.0804 33.84V28.08C10.0804 27.5071 9.85285 26.9577 9.44777 26.5527C9.04269 26.1476 8.49329 25.92 7.92042 25.92ZM8.64042 33.84C8.64019 34.0309 8.56426 34.2139 8.42928 34.3489C8.29431 34.4838 8.1113 34.5598 7.92042 34.56H6.48042C6.28953 34.5598 6.10653 34.4838 5.97155 34.3489C5.83658 34.2139 5.76065 34.0309 5.76042 33.84V28.08C5.76065 27.8891 5.83658 27.7061 5.97155 27.5711C6.10653 27.4362 6.28953 27.3602 6.48042 27.36H7.92042C8.1113 27.3602 8.29431 27.4362 8.42928 27.5711C8.56426 27.7061 8.64019 27.8891 8.64042 28.08V33.84ZM18.0004 18.72H16.5604C15.9875 18.72 15.4381 18.9476 15.0331 19.3526C14.628 19.7577 14.4004 20.3071 14.4004 20.88V33.84C14.4004 34.4129 14.628 34.9623 15.0331 35.3674C15.4381 35.7724 15.9875 36 16.5604 36H18.0004C18.5733 36 19.1227 35.7724 19.5278 35.3674C19.9328 34.9623 20.1604 34.4129 20.1604 33.84V20.88C20.1604 20.3071 19.9328 19.7577 19.5278 19.3526C19.1227 18.9476 18.5733 18.72 18.0004 18.72ZM18.7204 33.84C18.7202 34.0309 18.6443 34.2139 18.5093 34.3489C18.3743 34.4838 18.1913 34.5598 18.0004 34.56H16.5604C16.3695 34.5598 16.1865 34.4838 16.0516 34.3489C15.9166 34.2139 15.8406 34.0309 15.8404 33.84V20.88C15.8406 20.6891 15.9166 20.5061 16.0516 20.3711C16.1865 20.2362 16.3695 20.1602 16.5604 20.16H18.0004C18.1913 20.1602 18.3743 20.2362 18.5093 20.3711C18.6443 20.5061 18.7202 20.6891 18.7204 20.88V33.84ZM28.0804 10.08H26.6404C26.0676 10.08 25.5181 10.3076 25.1131 10.7126C24.708 11.1177 24.4804 11.6671 24.4804 12.24V33.84C24.4804 34.4129 24.708 34.9623 25.1131 35.3674C25.5181 35.7724 26.0676 36 26.6404 36H28.0804C28.6533 36 29.2027 35.7724 29.6078 35.3674C30.0128 34.9623 30.2404 34.4129 30.2404 33.84V12.24C30.2404 11.6671 30.0128 11.1177 29.6078 10.7126C29.2027 10.3076 28.6533 10.08 28.0804 10.08ZM28.8004 33.84C28.8002 34.0309 28.7243 34.2139 28.5893 34.3489C28.4543 34.4838 28.2713 34.5598 28.0804 34.56H26.6404C26.4495 34.5598 26.2665 34.4838 26.1316 34.3489C25.9966 34.2139 25.9206 34.0309 25.9204 33.84V12.24C25.9206 12.0491 25.9966 11.8661 26.1316 11.7311C26.2665 11.5962 26.4495 11.5202 26.6404 11.52H28.0804C28.2713 11.5202 28.4543 11.5962 28.5893 11.7311C28.7243 11.8661 28.8002 12.0491 28.8004 12.24V33.84ZM31.6804 0.72V6.48C31.6804 6.67096 31.6046 6.85409 31.4695 6.98912C31.3345 7.12414 31.1514 7.2 30.9604 7.2C30.7695 7.2 30.5863 7.12414 30.4513 6.98912C30.3163 6.85409 30.2404 6.67096 30.2404 6.48V2.51827C19.9279 13.0359 4.10111 21.4298 3.93507 21.5171C3.85113 21.5648 3.75844 21.5951 3.66254 21.6062C3.56663 21.6174 3.46946 21.6091 3.37681 21.582C3.28416 21.5548 3.19791 21.5093 3.12321 21.4481C3.04851 21.3869 2.98687 21.3114 2.94197 21.2259C2.89707 21.1404 2.86982 21.0468 2.86184 20.9506C2.85386 20.8543 2.86531 20.7575 2.89552 20.6658C2.92573 20.5741 2.97407 20.4894 3.03768 20.4167C3.10128 20.3441 3.17885 20.285 3.26576 20.2429C3.42762 20.1571 19.1396 11.8224 29.282 1.44H25.2004C25.0095 1.44 24.8263 1.36414 24.6913 1.22912C24.5563 1.09409 24.4804 0.910956 24.4804 0.72C24.4804 0.529044 24.5563 0.345909 24.6913 0.210883C24.8263 0.0758569 25.0095 0 25.2004 0L30.9604 0C30.9952 0.00422541 31.0296 0.0111584 31.0634 0.020736C31.1169 0.0252112 31.1697 0.0359403 31.2208 0.052704C31.2679 0.0741622 31.3125 0.100927 31.3535 0.13248C31.3867 0.149132 31.4184 0.168393 31.4484 0.19008L31.4581 0.203472C31.4925 0.241466 31.5228 0.283086 31.5482 0.3276C31.5747 0.360304 31.5983 0.395233 31.6188 0.432C31.629 0.465006 31.6369 0.498689 31.6424 0.5328C31.6611 0.588745 31.6729 0.646782 31.6774 0.7056L31.6804 0.72Z" fill="#E7503D"/>
</svg>
