<svg width="41" height="37" viewBox="0 0 41 37" fill="none" xmlns="http://www.w3.org/2000/svg">
<path d="M38.54 6.55955H17.0988L23.4725 1.46095C23.5566 1.39365 23.6267 1.31044 23.6786 1.21607C23.7306 1.12169 23.7635 1.01801 23.7754 0.910937C23.7872 0.803864 23.7779 0.695496 23.7479 0.592021C23.718 0.488546 23.6679 0.391991 23.6006 0.307868C23.5333 0.223746 23.4501 0.153703 23.3557 0.101739C23.2613 0.0497755 23.1576 0.0169085 23.0506 0.0050148C22.9435 -0.0068789 22.8351 0.00243364 22.7317 0.0324206C22.6282 0.0624076 22.5316 0.112482 22.4475 0.179784L14.76 6.32995L7.0725 0.179948C6.90258 0.0440249 6.68563 -0.0188329 6.46937 0.00520288C6.25311 0.0292387 6.05526 0.138199 5.91933 0.308114C5.78341 0.47803 5.72055 0.694981 5.74459 0.911241C5.76862 1.1275 5.87758 1.32536 6.0475 1.46128L12.4212 6.55955H2.46C1.80757 6.55955 1.18186 6.81873 0.720517 7.28006C0.259178 7.7414 0 8.36712 0 9.01955L0 33.6195C0 34.272 0.259178 34.8977 0.720517 35.359C1.18186 35.8204 1.80757 36.0795 2.46 36.0795H38.54C39.1924 36.0795 39.8181 35.8204 40.2795 35.359C40.7408 34.8977 41 34.272 41 33.6195V9.01955C41 8.36712 40.7408 7.7414 40.2795 7.28006C39.8181 6.81873 39.1924 6.55955 38.54 6.55955ZM39.36 33.6523C39.3598 33.8611 39.2768 34.0612 39.1292 34.2087C38.9816 34.3563 38.7815 34.4393 38.5728 34.4395H2.4272C2.21849 34.4393 2.01839 34.3563 1.87081 34.2087C1.72322 34.0612 1.64022 33.8611 1.64 33.6523V8.98675C1.64022 8.77804 1.72322 8.57793 1.87081 8.43035C2.01839 8.28277 2.21849 8.19976 2.4272 8.19955H38.5728C38.7815 8.19976 38.9816 8.28277 39.1292 8.43035C39.2768 8.57793 39.3598 8.77804 39.36 8.98675V33.6523ZM36.08 13.9395C36.08 14.157 35.9936 14.3656 35.8398 14.5194C35.686 14.6732 35.4775 14.7595 35.26 14.7595H30.34C30.1225 14.7595 29.914 14.6732 29.7602 14.5194C29.6064 14.3656 29.52 14.157 29.52 13.9395C29.52 13.7221 29.6064 13.5135 29.7602 13.3597C29.914 13.2059 30.1225 13.1195 30.34 13.1195H35.26C35.4775 13.1195 35.686 13.2059 35.8398 13.3597C35.9936 13.5135 36.08 13.7221 36.08 13.9395ZM36.08 18.8595C36.08 19.077 35.9936 19.2856 35.8398 19.4394C35.686 19.5932 35.4775 19.6795 35.26 19.6795H30.34C30.1225 19.6795 29.914 19.5932 29.7602 19.4394C29.6064 19.2856 29.52 19.077 29.52 18.8595C29.52 18.6421 29.6064 18.4335 29.7602 18.2797C29.914 18.1259 30.1225 18.0395 30.34 18.0395H35.26C35.4775 18.0395 35.686 18.1259 35.8398 18.2797C35.9936 18.4335 36.08 18.6421 36.08 18.8595ZM24.6 11.4795H6.56C6.12504 11.4795 5.7079 11.6523 5.40034 11.9599C5.09278 12.2675 4.92 12.6846 4.92 13.1195V29.5195C4.92 29.9545 5.09278 30.3716 5.40034 30.6792C5.7079 30.9868 6.12504 31.1595 6.56 31.1595H24.6C25.035 31.1595 25.4521 30.9868 25.7597 30.6792C26.0672 30.3716 26.24 29.9545 26.24 29.5195V13.1195C26.24 12.6846 26.0672 12.2675 25.7597 11.9599C25.4521 11.6523 25.035 11.4795 24.6 11.4795ZM24.6 29.5195H6.56V13.1195H24.6V29.5195ZM32.8 24.5995C32.1513 24.5995 31.5171 24.7919 30.9777 25.1523C30.4383 25.5127 30.0179 26.025 29.7697 26.6243C29.5214 27.2237 29.4565 27.8832 29.583 28.5194C29.7096 29.1557 30.022 29.7401 30.4807 30.1989C30.9394 30.6576 31.5238 30.97 32.1601 31.0965C32.7964 31.2231 33.4559 31.1581 34.0552 30.9099C34.6545 30.6616 35.1668 30.2412 35.5272 29.7018C35.8876 29.1624 36.08 28.5283 36.08 27.8795C36.08 27.0096 35.7344 26.1754 35.1193 25.5602C34.5042 24.9451 33.6699 24.5995 32.8 24.5995ZM32.8 29.5195C32.4756 29.5195 32.1586 29.4234 31.8889 29.2432C31.6192 29.063 31.409 28.8068 31.2848 28.5071C31.1607 28.2075 31.1282 27.8777 31.1915 27.5596C31.2548 27.2415 31.411 26.9492 31.6403 26.7199C31.8697 26.4905 32.1619 26.3343 32.48 26.2711C32.7982 26.2078 33.1279 26.2403 33.4276 26.3644C33.7273 26.4885 33.9834 26.6987 34.1636 26.9684C34.3438 27.2381 34.44 27.5552 34.44 27.8795C34.4395 28.3143 34.2665 28.7312 33.9591 29.0386C33.6516 29.3461 33.2348 29.519 32.8 29.5195Z" fill="#E7503D"/>
</svg>
