<svg width="30" height="30" viewBox="0 0 30 30" fill="none" xmlns="http://www.w3.org/2000/svg">
<circle cx="15" cy="15" r="15" fill="#B12028"/>
<path d="M12.12 20V18.67L15.312 15.268C15.7413 14.8013 16.0493 14.3907 16.236 14.036C16.4227 13.672 16.516 13.3033 16.516 12.93C16.516 11.978 15.942 11.502 14.794 11.502C13.898 11.502 13.072 11.838 12.316 12.51L11.714 11.166C12.106 10.8113 12.596 10.5267 13.184 10.312C13.772 10.0973 14.3833 9.99 15.018 9.99C16.0727 9.99 16.88 10.228 17.44 10.704C18.0093 11.18 18.294 11.8613 18.294 12.748C18.294 13.3453 18.1493 13.9193 17.86 14.47C17.58 15.0207 17.1367 15.6133 16.53 16.248L14.36 18.516H18.672V20H12.12Z" fill="white"/>
</svg>
