<svg width="146" height="68" viewBox="0 0 146 68" fill="none" xmlns="http://www.w3.org/2000/svg">
<path d="M113.889 40.4286C113.887 36.6991 111.646 33.3406 108.217 31.9277C104.787 30.5148 100.849 31.3276 98.2493 33.9851C95.6493 36.6426 94.9028 40.6178 96.3597 44.0469C96.3508 44.0369 96.3415 44.0272 96.3326 44.0171C96.7383 44.9686 97.3006 45.8443 97.9959 46.6074C97.998 46.6097 98.0002 46.6119 98.0022 46.6142C98.0583 46.6758 98.1148 46.737 98.1725 46.797C99.8582 48.5664 102.178 49.5823 104.614 49.6176L104.305 66.4861H105.259L105.066 55.3527L106.445 54.622L106.234 54.2198L105.057 54.8437L104.966 49.6167C109.927 49.5023 113.889 45.4223 113.889 40.4286Z" fill="#E6E6E6"/>
<path d="M86.7209 35.877C86.7186 31.4962 84.082 27.551 80.0472 25.8913C76.0125 24.2316 71.3797 25.1864 68.3209 28.3081C65.2621 31.4297 64.3839 36.0993 66.0979 40.1273C66.0874 40.1156 66.0766 40.1042 66.0661 40.0924C66.5433 41.2101 67.2049 42.2388 68.0229 43.1351C68.0254 43.1378 68.0279 43.1405 68.0303 43.1432C68.0963 43.2154 68.1627 43.2873 68.2306 43.3578C70.2138 45.4364 72.9432 46.6297 75.8086 46.6711L75.4455 66.4861H76.5671L76.3401 53.408L77.9626 52.5496L77.7151 52.0772L76.3298 52.8101L76.2232 46.6701C82.0594 46.5357 86.7208 41.7431 86.7209 35.877Z" fill="#E6E6E6"/>
<path d="M55.8698 31.6268C55.8671 26.6597 52.8538 22.1865 48.2427 20.3047C43.6316 18.4229 38.337 19.5055 34.8412 23.0449C31.3455 26.5843 30.3418 31.8788 32.3007 36.4459C32.2886 36.4326 32.2762 36.4197 32.2643 36.4063C32.8097 37.6736 33.5658 38.8399 34.5007 39.8562C34.5034 39.8593 34.5063 39.8623 34.5091 39.8654C34.5845 39.9473 34.6604 40.0289 34.738 40.1087C37.0046 42.4655 40.1238 43.8185 43.3985 43.8655L42.9836 66.3323H44.2655L44.0061 51.5039L45.8603 50.5307L45.5775 49.9951L43.9942 50.826L43.8724 43.8643C50.5423 43.7119 55.8697 38.2779 55.8698 31.6268Z" fill="#E6E6E6"/>
<ellipse cx="103.758" cy="10.1576" rx="10.1303" ry="10.1576" fill="#FEF6F4"/>
<ellipse cx="54.1816" cy="21.0078" rx="15.9629" ry="16.0829" fill="#E7503D"/>
<path opacity="0.2" d="M42.2912 10.1576C39.1951 17.4041 41.8037 25.8279 48.4524 30.0533C55.1011 34.2787 63.8306 33.0605 69.07 27.1761C66.5677 33.0336 60.8456 36.8611 54.4794 36.9356C48.1132 37.0102 42.3031 33.3177 39.6644 27.5204C37.0257 21.7231 38.0559 14.9138 42.2912 10.1576Z" fill="black"/>
<path d="M54.1049 20.7769H54.1494L54.9491 66.3322H53.2607L54.1049 20.7769Z" fill="#3F3D56"/>
<path d="M78.5859 66.0243C78.5859 66.0243 78.643 64.8182 79.8138 64.9584L78.5859 66.0243Z" fill="#3F3D56"/>
<ellipse cx="78.279" cy="64.3314" rx="0.613956" ry="0.615612" fill="#00CF99"/>
<rect x="78.2793" y="65.2549" width="0.153489" height="1.07732" fill="#3F3D56"/>
<path d="M37.6045 65.8705C37.6045 65.8705 37.6616 64.6643 38.8324 64.8046L37.6045 65.8705Z" fill="#3F3D56"/>
<ellipse cx="37.1442" cy="64.1776" rx="0.613956" ry="0.615612" fill="#00CF99"/>
<rect x="37.1445" y="65.2549" width="0.153489" height="1.07732" fill="#3F3D56"/>
<path d="M47.4277 65.8705C47.4277 65.8705 47.4848 64.6643 48.6556 64.8046L47.4277 65.8705Z" fill="#3F3D56"/>
<ellipse cx="46.9675" cy="64.1776" rx="0.613956" ry="0.615612" fill="#00CF99"/>
<rect x="46.8145" y="65.2549" width="0.153489" height="1.07732" fill="#3F3D56"/>
<path d="M73.1192 11.1634L74.2884 10.1715C73.3801 10.0652 73.0069 10.5906 72.8541 11.0065C72.1445 10.694 71.3721 11.1036 71.3721 11.1036L73.7114 12.0044C73.5934 11.6701 73.3879 11.3783 73.1192 11.1634Z" fill="#3F3D56"/>
<path d="M91.2315 20.8593L92.4007 19.8674C91.4924 19.7611 91.1192 20.2866 90.9664 20.7025C90.2569 20.3899 89.4844 20.7995 89.4844 20.7995L91.8237 21.7004C91.7057 21.366 91.5003 21.0742 91.2315 20.8593Z" fill="#3F3D56"/>
<path d="M71.7383 29.1701L72.9075 28.1782C71.9992 28.0719 71.626 28.5974 71.4733 29.0132C70.7637 28.7007 69.9912 29.1103 69.9912 29.1103L72.3305 30.0111C72.2125 29.6768 72.0071 29.385 71.7383 29.1701Z" fill="#3F3D56"/>
<path d="M64.7725 61.0591C64.7725 61.0591 65.7017 63.7989 65.3034 64.8013L66.4982 65.8705L67.2283 64.935C67.2283 64.935 66.4318 64.1331 66.4982 63.5316C66.5645 62.9302 66.6309 60.7917 66.6309 60.7917L64.7725 61.0591Z" fill="#FFB9B9"/>
<path d="M69.2601 66.3932C69.2045 66.4262 69.1515 66.4575 69.1028 66.4862H64.8845C64.8045 66.4396 64.761 66.3477 64.7751 66.255C64.7948 66.1525 64.8452 65.944 64.9076 65.7042C65.0555 65.1369 65.2726 64.394 65.3196 64.4731C65.3198 64.4731 65.32 64.4732 65.3202 64.4733C65.3204 64.4735 65.3205 64.4737 65.3204 64.474C65.3863 64.5973 65.5222 65.1499 65.8624 65.0813C66.2026 65.0118 66.7462 64.8736 66.7462 64.8736C66.7462 64.8736 66.5522 64.4305 66.7377 64.2515C66.7775 64.2138 66.8281 64.1898 66.8821 64.1829C67.2898 64.1143 67.2898 64.7355 67.2898 64.7355L68.7848 65.5643C68.9137 65.6006 69.0395 65.6474 69.1609 65.7042C69.4644 65.8484 69.7644 66.0952 69.2601 66.3932Z" fill="#2F2E41"/>
<path d="M62.0706 60.0222L60.3292 62.0543L59.8604 63.1031L60.4631 63.562L60.999 63.3653C60.999 63.3653 61.4678 62.1854 61.9366 61.9888C62.4055 61.7921 63.5441 60.4811 63.5441 60.4811L62.0706 60.0222Z" fill="#FFB9B9"/>
<path d="M65.6932 58.4796L64.8047 60.129L64.1682 61.31C63.9645 61.4314 63.6931 61.4294 63.401 61.3576C63.2648 61.3227 63.1314 61.2781 63.0016 61.2241C62.2043 60.8973 61.3955 60.2484 61.3955 60.2484L62.9259 58.3334L63.4258 57.7087L63.5444 57.5597L64.1159 57.8046L65.1243 58.2361L65.6932 58.4796Z" fill="#2F2E41"/>
<path d="M61.8044 44.3204L61.0889 47.2112L61.8254 50.9198C61.8254 50.9198 61.8435 52.4359 62.5185 52.3209C63.1934 52.2058 62.4861 50.6768 62.4861 50.6768L62.1559 47.6359L63.2115 44.6316C63.293 44.3781 63.1795 44.1033 62.9413 43.978C62.5234 43.7266 61.9295 43.9055 61.8044 44.3204Z" fill="#FFB9B9"/>
<path d="M64.1581 41.8662L63.5737 43.7085L62.4697 43.1163C62.4697 43.1163 62.9243 41.8004 62.9243 41.603C62.9243 41.4056 64.1581 41.8662 64.1581 41.8662Z" fill="#FFB9B9"/>
<ellipse cx="63.6978" cy="41.0922" rx="1.3814" ry="1.38513" fill="#FFB9B9"/>
<path d="M64.0741 44.0555L63.8076 43.7878L63.741 43.4531C63.741 43.4531 62.8749 42.3154 62.1421 42.7169C61.9131 42.8424 61.7426 43.1313 61.6165 43.4692C61.2952 44.3524 61.3252 45.3259 61.7002 46.1875L62.8749 48.9411L65.5397 48.6734L65.0734 46.9333C65.0734 46.9333 65.5397 45.8625 64.6736 45.1263L64.0741 44.0555Z" fill="#E7503D"/>
<path opacity="0.3" d="M65.693 58.4796L64.8028 60.129L64.1651 61.31C63.9611 61.4314 63.6892 61.4294 63.3965 61.3576C63.3455 61.0181 63.6502 59.2238 63.4106 57.761L63.4213 57.7087L63.5402 57.5597L64.1128 57.8046L65.123 58.2361L65.693 58.4796Z" fill="black"/>
<path d="M65.7654 48.5789C65.7654 48.5789 64.0368 47.5034 62.84 48.8478L62.9065 49.2511C62.9065 49.2511 61.9092 50.3937 62.5076 52.8135C63.106 55.2333 64.0368 61.5516 64.0368 61.5516C64.0368 61.5516 66.2308 61.6861 67.2281 60.9467C67.2281 60.9467 66.8956 52.6119 65.7654 51.8053V48.5789Z" fill="#2F2E41"/>
<path d="M61.9688 44.8713L63.8763 47.2063L67.324 48.8888C67.324 48.8888 68.5622 49.8011 68.8773 49.1951C69.1923 48.5891 67.5268 48.2158 67.5268 48.2158L64.8654 46.619L63.0717 43.9447C62.9158 43.725 62.6247 43.6472 62.3792 43.7596C61.923 43.9377 61.7086 44.5184 61.9688 44.8713Z" fill="#FFB9B9"/>
<path d="M60.8398 63.274C60.8398 63.274 61.2442 62.7729 61.4857 63.0886C61.7272 63.4043 61.2009 63.6749 61.2009 63.6749L61.1702 65.3036C61.1702 65.3036 61.4575 66.5489 60.682 66.0678C59.9065 65.5866 59.876 65.529 59.7234 65.2408C59.5709 64.9527 59.2557 63.795 58.9836 63.4217C58.7116 63.0483 58.4625 62.2966 58.7854 62.2039C59.1083 62.1112 60.6136 61.7813 60.5386 61.8912C60.4636 62.0011 60.0568 62.3569 60.2678 62.615C60.4788 62.8731 60.8398 63.274 60.8398 63.274Z" fill="#2F2E41"/>
<path d="M64.465 39.849C64.465 39.8472 64.4652 39.8455 64.4652 39.8438C64.4652 39.0415 63.9977 38.3182 63.2808 38.0112C62.5639 37.7041 61.7386 37.8738 61.1899 38.4411C60.6412 39.0085 60.4771 39.8616 60.774 40.6029C61.071 41.3441 61.7706 41.8274 62.5466 41.8274C62.5911 41.8274 62.7674 42.1725 62.8112 42.1694C62.8138 41.1223 63.4689 39.9193 64.465 39.849Z" fill="#2F2E41"/>
<ellipse cx="60.475" cy="38.4757" rx="1.22791" ry="1.23122" fill="#2F2E41"/>
<path d="M60.4746 36.5257C61.1303 36.5218 61.6887 36.9711 61.7833 37.5786C61.8779 38.1861 61.4797 38.7659 60.8501 38.9374C61.365 38.9366 61.8321 38.6545 62.0451 38.2156C62.2582 37.7767 62.178 37.2618 61.84 36.8981C61.502 36.5344 60.9684 36.3888 60.4746 36.5257H60.4746Z" fill="#2F2E41"/>
<path d="M111.74 66.9479C111.74 66.9479 111.84 64.7078 113.889 64.9682L111.74 66.9479Z" fill="#3F3D56"/>
<path d="M92.2471 66.9479C92.2471 66.9479 92.347 64.7078 94.3959 64.9682L92.2471 66.9479Z" fill="#3F3D56"/>
<path d="M20.875 66.9478C20.875 66.9478 20.9749 64.7077 23.0238 64.9681L20.875 66.9478Z" fill="#3F3D56"/>
<path d="M120.643 66.9479C120.643 66.9479 120.743 64.7078 122.791 64.9682L120.643 66.9479Z" fill="#3F3D56"/>
<path d="M116.345 66.9479C116.345 66.9479 116.445 64.7078 118.494 64.9682L116.345 66.9479Z" fill="#3F3D56"/>
<path d="M107.903 66.9479C107.903 66.9479 107.803 64.7078 105.754 64.9682L107.903 66.9479Z" fill="#3F3D56"/>
<path d="M73.9819 66.9479C73.9819 66.9479 73.8819 64.7078 71.833 64.9682L73.9819 66.9479Z" fill="#3F3D56"/>
<path d="M46.2006 66.9478C46.2006 66.9478 46.1007 64.7077 44.0518 64.9681L46.2006 66.9478Z" fill="#3F3D56"/>
<path d="M16.2699 66.9479C16.2699 66.9479 16.17 64.7078 14.1211 64.9682L16.2699 66.9479Z" fill="#3F3D56"/>
<path d="M129.544 66.9478C129.544 66.9478 129.444 64.7077 127.396 64.9681L129.544 66.9478Z" fill="#3F3D56"/>
<path d="M116.805 67.1017C116.805 67.1017 116.705 64.8616 114.656 65.122L116.805 67.1017Z" fill="#3F3D56"/>
<rect y="67.4095" width="145.201" height="0.153903" fill="#3F3D56"/>
</svg>
