<svg width="301" height="243" viewBox="0 0 301 243" fill="none" xmlns="http://www.w3.org/2000/svg">
<g clip-path="url(#clip0_4820_6867)">
<path d="M171.474 214.976C169.393 212.058 166.575 209.923 163.033 209.124C159.945 208.427 156.768 208.545 153.629 208.57L113.928 208.876C110.528 208.902 107.268 211.852 107.426 215.387C107.582 218.892 110.283 221.926 113.928 221.897C125.557 221.808 137.187 221.718 148.817 221.628C151.558 221.607 154.302 221.557 157.043 221.566C157.659 221.568 158.272 221.601 158.887 221.608C159.036 221.61 159.144 221.608 159.22 221.605C159.239 221.611 159.255 221.616 159.28 221.623C159.601 221.711 159.93 221.772 160.253 221.856C160.14 221.859 160.462 222.061 160.624 222.129C160.646 222.173 160.694 222.251 160.773 222.371C160.883 222.579 161.211 223.209 161.224 223.189C161.716 224.434 162.121 225.711 162.438 227.011C163.194 229.879 163.36 230.478 163.468 233.168C163.606 236.567 166.361 239.841 169.971 239.679C173.376 239.526 176.62 236.813 176.473 233.168C176.224 227.026 175.148 220.127 171.474 214.976Z" fill="#E6E6E6"/>
<path d="M116.262 229.669C115.516 225.145 114.784 220.617 114.024 216.095C113.253 211.507 111.678 207.306 108.112 204.295C107.16 203.491 106.172 202.74 105.18 201.991C104.831 201.728 104.483 201.464 104.138 201.195C104.117 201.179 104.104 201.169 104.086 201.155C104.049 201.122 104.003 201.084 103.942 201.032C102.456 199.773 101.02 198.457 99.6523 197.059C98.4377 195.817 97.2762 194.523 96.1677 193.175C95.8907 192.839 95.6172 192.499 95.3474 192.156C95.3009 192.097 95.0509 191.774 94.8862 191.563C94.733 191.351 94.453 190.97 94.406 190.903C94.0907 190.457 93.781 190.006 93.4769 189.551C91.406 186.445 89.6127 183.161 88.1179 179.738C87.9697 179.399 87.825 179.058 87.6838 178.714C87.6459 178.609 87.5969 178.475 87.5318 178.296C87.2306 177.466 86.9299 176.638 86.6545 175.799C86.0693 174.016 85.5663 172.207 85.1453 170.372C84.9371 169.466 84.7497 168.555 84.5831 167.639C84.4972 167.169 84.4168 166.697 84.342 166.224C84.3297 166.146 84.2567 165.636 84.2136 165.348C84.1819 165.058 84.1227 164.545 84.1148 164.466C84.0672 163.99 84.0249 163.513 83.988 163.035C83.9049 161.961 83.8487 160.885 83.8194 159.807C83.7694 157.891 83.8036 155.976 83.9222 154.061C83.9896 152.985 84.0857 151.911 84.2039 150.84C84.2111 150.774 84.2166 150.722 84.2218 150.674C84.2289 150.627 84.2373 150.572 84.2472 150.505C84.3347 149.913 84.4268 149.321 84.5297 148.732C84.9198 146.494 85.427 144.278 86.0493 142.094C86.344 141.061 86.6641 140.036 87.0095 139.019C87.1635 138.568 87.3224 138.119 87.4862 137.671C87.4754 137.7 87.9666 136.444 87.9731 136.402C89.9217 131.792 93.1089 127.589 93.1133 122.352C93.1162 118.807 90.1205 115.41 86.6111 115.574C84.8614 115.64 83.2055 116.384 81.9926 117.648C80.7796 118.912 80.1043 120.599 80.1089 122.352C80.1089 122.432 80.1085 122.5 80.1083 122.566C80.0756 122.676 80.0482 122.768 80.0236 122.85C79.6436 123.676 79.1781 124.462 78.761 125.268C77.6188 127.475 76.6439 129.755 75.7178 132.067C74.2018 135.834 73.0413 139.734 72.2517 143.717C70.5353 152.444 70.402 161.408 71.8584 170.183C74.3794 185.569 82.6933 200.298 94.2514 210.198C95.2545 211.058 96.282 211.888 97.3192 212.701C97.7484 213.038 98.1812 213.368 98.6161 213.696C98.8217 213.852 99.6734 214.524 99.2987 214.198C100.104 214.887 100.443 215.233 100.65 215.74C100.68 215.857 100.721 216.016 100.777 216.233C100.922 216.805 101.061 217.375 101.176 217.955C102.182 223.022 102.881 228.174 103.722 233.273C104.299 236.777 108.607 239.057 111.72 238.007C115.344 236.785 116.88 233.424 116.262 229.669Z" fill="#E6E6E6"/>
<path d="M172.132 242.809C169.401 242.816 166.779 241.739 164.841 239.812C162.903 237.886 161.807 235.269 161.794 232.535V225.108C154.028 225.978 127.436 225.777 119.814 224.55V232.238C119.793 234.97 118.695 237.583 116.759 239.507C114.822 241.432 112.204 242.512 109.475 242.512C106.747 242.512 104.129 241.432 102.192 239.507C100.256 237.583 99.1574 234.97 99.1369 232.238V217.144C88.813 211.402 80.2065 203.004 74.2057 192.819C68.2049 182.634 65.0272 171.03 65.0005 159.204C65.0005 138.928 74.1779 120.012 90.1796 107.309C100.584 99.021 113.225 94.0368 126.479 92.9962C128.278 92.855 130.088 92.7834 131.859 92.7834C138.098 92.7834 166.247 93.7485 173.31 95.783L189.414 79.7824C189.651 79.544 189.953 79.3816 190.282 79.3158C190.611 79.2501 190.953 79.2841 191.263 79.4134C191.575 79.5378 191.843 79.7539 192.03 80.0333C192.217 80.3126 192.316 80.6422 192.313 80.9787V83.5227L195.449 80.4131C195.685 80.1744 195.987 80.0117 196.316 79.9459C196.646 79.8801 196.987 79.914 197.297 80.0435C197.609 80.1678 197.877 80.3839 198.064 80.6634C198.252 80.9429 198.351 81.2726 198.348 81.6094V110.038C206.429 117.333 212.588 126.511 216.279 136.759C219.971 147.007 221.08 158.008 219.51 168.788C217.94 179.568 213.738 189.794 207.277 198.559C200.816 207.324 192.295 214.358 182.47 219.037V232.535C182.457 235.269 181.361 237.886 179.423 239.812C177.485 241.739 174.863 242.816 172.132 242.809ZM162.606 224.185V232.535C162.627 235.051 163.639 237.457 165.424 239.229C167.208 241.001 169.619 241.995 172.132 241.995C174.645 241.995 177.056 241.001 178.84 239.229C180.624 237.457 181.637 235.051 181.658 232.535V218.523L181.89 218.413C192.914 213.175 202.273 204.98 208.927 194.738C217.406 181.669 220.932 165.991 218.868 150.544C216.803 135.097 209.283 120.9 197.67 110.523L197.535 110.401V81.6093C197.538 81.4344 197.487 81.2628 197.39 81.1176C197.292 80.9724 197.153 80.8606 196.99 80.7973C196.828 80.728 196.649 80.7093 196.476 80.7436C196.304 80.778 196.145 80.8638 196.022 80.9898L191.5 85.4742V80.9787C191.503 80.8038 191.453 80.6321 191.355 80.4869C191.258 80.3418 191.118 80.23 190.955 80.1667C190.793 80.0974 190.613 80.0789 190.44 80.1135C190.267 80.1481 190.109 80.2342 189.986 80.3606L173.537 96.7038L173.303 96.6305C166.737 94.5728 138.145 93.5973 131.859 93.5973C130.109 93.5973 128.321 93.668 126.543 93.8077C113.45 94.8355 100.962 99.7592 90.6847 107.946C74.8785 120.495 65.8132 139.178 65.8132 159.204C65.8402 170.925 69.0009 182.425 74.967 192.509C80.9332 202.593 89.487 210.894 99.74 216.549L99.9497 216.665V232.238C99.9706 234.753 100.983 237.159 102.768 238.931C104.552 240.702 106.963 241.697 109.475 241.697C111.988 241.697 114.399 240.702 116.183 238.931C117.967 237.159 118.98 234.753 119.001 232.238V223.576L119.483 223.667C126.333 224.957 155.176 225.161 162.147 224.245L162.606 224.185Z" fill="#3F3D56"/>
<path d="M117.038 48.4712L72.035 62.0134C70.6036 62.4458 69.4022 63.4296 68.6947 64.7484C67.9872 66.0673 67.8315 67.6134 68.2617 69.0472C68.692 70.4809 69.6731 71.685 70.9894 72.3949C72.3058 73.1048 73.8498 73.2625 75.2821 72.8333L114.665 60.9798L115.49 60.7316C115.657 56.4747 116.81 52.3149 118.859 48.5811C118.602 48.4653 118.327 48.3937 118.046 48.3695C117.707 48.3366 117.364 48.3712 117.038 48.4712Z" fill="#E7503D"/>
<path d="M74.5038 75.721C73.9064 75.7195 73.3245 75.5301 72.8405 75.1796C72.3564 74.829 71.9946 74.335 71.8063 73.7673L68.9921 65.2644C68.8746 64.9093 68.828 64.5345 68.8552 64.1614C68.8823 63.7883 68.9826 63.4242 69.1502 63.0899C69.3179 62.7557 69.5497 62.4577 69.8324 62.2132C70.1151 61.9686 70.4431 61.7822 70.7978 61.6645L107.426 49.5099C107.78 49.3922 108.155 49.3456 108.527 49.3727C108.9 49.3999 109.263 49.5002 109.597 49.6681C109.931 49.8359 110.229 50.0679 110.473 50.3509C110.717 50.6339 110.903 50.9623 111.021 51.3174L113.835 59.8203C114.069 60.5197 114.022 61.2828 113.704 61.9481C113.386 62.6134 112.822 63.1286 112.131 63.3846C112.097 63.3973 112.063 63.4093 112.029 63.4205L75.4014 75.5748C75.112 75.6714 74.8089 75.7208 74.5038 75.721Z" fill="#2F2E41"/>
<path d="M143.1 33.3711C135.707 33.374 128.606 36.257 123.299 41.4101C117.992 46.5631 114.895 53.5817 114.665 60.9803C114.657 61.2692 114.653 61.5622 114.653 61.8552C114.653 67.4888 116.321 72.9959 119.447 77.6801C122.573 82.3643 127.016 86.0152 132.214 88.1711C137.412 90.327 143.131 90.8911 148.65 89.792C154.168 88.6929 159.237 85.9801 163.215 81.9965C167.193 78.0129 169.903 72.9375 171 67.4122C172.098 61.8868 171.535 56.1596 169.381 50.9548C167.228 45.75 163.582 41.3014 158.904 38.1715C154.226 35.0417 148.726 33.3711 143.1 33.3711ZM143.1 89.5255C135.773 89.5178 128.749 86.6001 123.568 81.4126C118.387 76.2251 115.473 69.1915 115.466 61.8552C115.466 61.4768 115.474 61.1024 115.49 60.7321C115.71 55.3119 117.516 50.0761 120.685 45.6756C123.853 41.2751 128.243 37.9042 133.309 35.982C138.375 34.0597 143.893 33.671 149.178 34.8641C154.463 36.0572 159.281 38.7795 163.034 42.6925C166.786 46.6055 169.306 51.5366 170.282 56.8725C171.258 62.2085 170.646 67.714 168.522 72.7043C166.398 77.6947 162.855 81.9498 158.335 84.9405C153.816 87.9312 148.517 89.5256 143.1 89.5255Z" fill="#3F3D56"/>
<path d="M167.077 61.8536C167.077 68.221 164.55 74.3275 160.054 78.8299C155.557 83.3323 149.459 85.8617 143.1 85.8617C136.741 85.8617 130.642 83.3323 126.146 78.8299C121.649 74.3275 119.123 68.221 119.123 61.8536C119.123 61.0927 119.16 60.344 119.229 59.6034C119.806 53.4583 122.726 47.772 127.38 43.7254C132.035 39.6787 138.067 37.5826 144.225 37.8722C150.382 38.1617 156.192 40.8148 160.447 45.2805C164.702 49.7462 167.077 55.6813 167.077 61.8536Z" fill="#E6E6E6"/>
<path d="M150.24 63.4493C149.659 62.6842 148.894 62.0782 148.017 61.6874C146.935 61.2308 145.818 60.8634 144.677 60.5887V54.0536C146.431 54.3185 148.077 55.0698 149.427 56.2225L150.752 53.3944C149.99 52.7147 149.115 52.1735 148.167 51.7952C147.117 51.3692 146.014 51.0859 144.888 50.9529V47.6406H141.82V50.9855C140.635 51.1187 139.492 51.503 138.467 52.1126C137.541 52.6614 136.762 53.4265 136.195 54.3425C135.655 55.2365 135.375 56.264 135.387 57.3089C135.334 58.4413 135.661 59.5588 136.317 60.4829C136.921 61.283 137.718 61.9159 138.634 62.3222C139.733 62.7922 140.869 63.1692 142.031 63.4493V69.7117C139.96 69.5554 137.988 68.7671 136.378 67.4534L135.053 70.2855C135.953 71.0304 136.977 71.6116 138.077 72.0027C139.283 72.4347 140.542 72.6976 141.82 72.784V76.0678H144.888V72.7229C146.592 72.5365 148.19 71.8027 149.443 70.6314C149.995 70.1014 150.431 69.4625 150.724 68.755C151.016 68.0475 151.159 67.287 151.142 66.5215C151.193 65.4252 150.875 64.3435 150.24 63.4493ZM142.031 59.8969C141.284 59.67 140.589 59.2965 139.987 58.7983C139.748 58.5858 139.56 58.3231 139.435 58.029C139.31 57.7349 139.251 57.4167 139.264 57.0974C139.241 56.3726 139.507 55.6687 140.003 55.1401C140.553 54.5856 141.262 54.217 142.031 54.0862V59.8969ZM146.603 68.5561C146.084 69.0885 145.409 69.4407 144.677 69.5612V64.1736C145.377 64.3618 146.032 64.6898 146.603 65.138C146.819 65.323 146.991 65.5544 147.106 65.8151C147.22 66.0757 147.275 66.3589 147.265 66.6436C147.294 67.342 147.057 68.0252 146.603 68.5561Z" fill="#E7503D"/>
<path d="M75.8099 110.181C75.1817 110.18 74.5713 109.971 74.0735 109.588C73.5757 109.204 73.2183 108.667 73.0566 108.059L71.5245 102.252C71.3327 101.522 71.4379 100.746 71.8169 100.094C72.1959 99.4413 72.8178 98.9661 73.5463 98.7724L121.882 85.9831C122.612 85.7925 123.387 85.899 124.038 86.2792C124.689 86.6593 125.163 87.2823 125.357 88.0117L126.655 92.9313L126.412 92.9502C114.015 93.9153 102.154 98.4157 92.2318 105.919L92.1613 105.953L76.5316 110.087C76.296 110.15 76.0535 110.181 75.8099 110.181Z" fill="#2F2E41"/>
<path d="M67.8046 138.863C62.1346 138.024 56.7118 135.971 51.9059 132.844C49.525 131.295 47.3209 129.49 45.3331 127.461C43.3711 125.457 41.4941 123.18 40.5223 120.511C39.5874 118.042 39.6355 115.308 40.657 112.873C41.6644 110.454 43.589 108.533 46.0086 107.533C48.4426 106.561 51.3835 106.457 53.7524 107.521C54.8812 108.016 55.8581 108.804 56.5826 109.802C56.9194 110.262 57.1688 110.781 57.3183 111.331C57.457 111.83 57.4697 112.356 57.355 112.861C57.2161 113.365 56.9711 113.834 56.6365 114.236C56.3019 114.637 55.8854 114.963 55.415 115.19C54.3796 115.722 53.2577 116.064 52.1021 116.202C50.9398 116.36 49.2701 116.505 48.3357 115.57C48.1433 115.386 47.9921 115.162 47.8917 114.915C47.8214 114.726 47.7974 114.522 47.8216 114.322C47.808 114.41 47.878 114.129 47.874 114.141C47.8592 114.182 47.7952 114.283 47.8862 114.128C47.9146 114.077 47.9463 114.027 47.9809 113.98C47.95 114.02 47.8822 114.087 48.0033 113.972C48.1034 113.863 48.2321 113.783 48.3749 113.743C48.4311 113.726 48.4882 113.713 48.5446 113.698C48.688 113.659 48.4017 113.7 48.5484 113.695C48.605 113.693 48.6623 113.695 48.7187 113.692C48.8625 113.686 48.5767 113.653 48.7146 113.688C48.7681 113.701 48.8212 113.714 48.8739 113.731C48.9885 113.767 48.7927 113.647 48.8704 113.737C48.9614 113.842 48.7748 113.634 48.8783 113.736C48.9298 113.787 48.9783 113.841 49.0236 113.897C49.2031 114.074 49.4451 114.174 49.6972 114.174C49.9494 114.174 50.1914 114.074 50.3708 113.897C50.5441 113.715 50.6409 113.474 50.6409 113.222C50.6409 112.971 50.5441 112.73 50.3708 112.548C49.4315 111.382 47.5761 111.67 46.6259 112.655C45.414 113.912 45.8939 115.904 47.0727 117C48.4071 118.242 50.2971 118.328 52.0137 118.12C53.4644 117.981 54.8781 117.581 56.1869 116.939C57.4874 116.299 58.5045 115.199 59.0414 113.851C59.2837 113.132 59.3708 112.37 59.2968 111.614C59.2228 110.859 58.9894 110.128 58.6121 109.469C57.0965 106.616 53.9583 105.154 50.8564 104.9C49.2594 104.775 47.6535 104.968 46.1315 105.468C44.6095 105.969 43.2017 106.766 41.9896 107.815C39.6533 109.921 38.2146 112.846 37.9712 115.984C37.7004 119.238 38.9612 122.397 40.7993 125.023C42.7236 127.691 45.0199 130.069 47.6182 132.084C52.6978 136.145 58.6561 138.959 65.0164 140.3C65.7729 140.457 66.5335 140.591 67.2982 140.702C67.5415 140.761 67.7981 140.725 68.0158 140.602C68.2335 140.478 68.3959 140.276 68.4699 140.036C68.5353 139.792 68.5021 139.532 68.3776 139.313C68.2531 139.093 68.0472 138.932 67.8046 138.863L67.8046 138.863Z" fill="#3F3D56"/>
<path d="M158.585 97.4084C150.278 97.291 141.997 97.5021 133.742 98.0417C130.92 98.2262 128.479 99.2248 128.479 100.903C128.479 102.306 130.901 103.95 133.742 103.765C141.993 103.225 150.274 103.014 158.585 103.131C165.361 103.227 165.357 97.5041 158.585 97.4084Z" fill="#CCCCCC"/>
<path d="M146.307 102.848C145.409 102.848 124.319 102.815 124.319 99.8976C124.319 96.9808 145.409 96.9473 146.307 96.9473C147.205 96.9473 168.295 96.9808 168.295 99.8976C168.295 102.815 147.205 102.848 146.307 102.848ZM125.144 99.8976C125.721 100.782 133.473 102.034 146.307 102.034C159.141 102.034 166.893 100.782 167.47 99.8976C166.893 99.0134 159.141 97.7611 146.307 97.7611C133.473 97.7611 125.721 99.0134 125.144 99.8976V99.8976Z" fill="#3F3D56"/>
<path d="M213.22 179.531C217.888 179.401 223.699 179.238 228.175 175.964C229.508 174.949 230.603 173.655 231.384 172.171C232.165 170.688 232.612 169.052 232.694 167.377C232.786 164.791 231.853 162.534 230.067 161.023C227.729 159.045 224.315 158.581 220.636 159.664L224.448 131.771L221.65 131.387L217.168 164.179L219.505 163.105C222.214 161.861 225.933 161.228 228.244 163.183C228.811 163.694 229.253 164.33 229.536 165.04C229.818 165.75 229.933 166.516 229.872 167.278C229.803 168.524 229.468 169.741 228.887 170.846C228.307 171.951 227.496 172.917 226.509 173.68C223.025 176.228 218.394 176.557 213.141 176.704L213.22 179.531Z" fill="#3F3D56"/>
<path d="M205.483 134.176H190.271V137.004H205.483V134.176Z" fill="#3F3D56"/>
<path d="M82.6934 123.19C82.0163 123.187 81.3621 122.944 80.8479 122.503C80.3338 122.061 79.9934 121.451 79.8877 120.782L78.9592 114.848C78.8432 114.102 79.0276 113.34 79.4719 112.73C79.9163 112.12 80.5843 111.711 81.3293 111.593L130.718 103.844C131.463 103.728 132.224 103.913 132.833 104.358C133.443 104.803 133.851 105.472 133.969 106.218L134.897 112.151C135.013 112.897 134.829 113.659 134.384 114.27C133.94 114.88 133.272 115.289 132.527 115.406L83.1384 123.155C82.9912 123.178 82.8424 123.19 82.6934 123.19Z" fill="#2F2E41"/>
<path d="M62.254 53.6538C73.7005 53.6538 82.9797 44.3625 82.9797 32.9011C82.9797 21.4397 73.7005 12.1484 62.254 12.1484C50.8075 12.1484 41.5283 21.4397 41.5283 32.9011C41.5283 44.3625 50.8075 53.6538 62.254 53.6538Z" fill="#E7503D"/>
<path d="M73.9885 38.2698C74.6509 38.0378 75.256 37.6665 75.7632 37.1808C76.0987 36.8346 76.3546 36.419 76.5128 35.9633C76.6711 35.5076 76.728 35.0228 76.6795 34.5428C76.6513 34.2007 76.5445 33.8697 76.3674 33.5758C76.1903 33.2818 75.9477 33.0329 75.6586 32.8483C74.9085 32.3865 73.9174 32.4039 72.9167 32.8684L72.8012 24.7676L71.9886 24.7792L72.1243 34.3025L72.743 33.8963C73.4604 33.4259 74.4912 33.0848 75.2327 33.5416C75.4162 33.6625 75.5693 33.8242 75.6801 34.014C75.791 34.2038 75.8566 34.4167 75.872 34.636C75.9061 34.9936 75.863 35.3544 75.7455 35.6938C75.6279 36.0332 75.4387 36.3433 75.1908 36.6029C74.3097 37.4782 73.0057 37.7715 71.5173 38.0398L71.6614 38.8406C72.4526 38.7203 73.2314 38.5293 73.9885 38.2698Z" fill="#2F2E41"/>
<path d="M81.1701 24.1992L76.842 24.8555L76.9637 25.66L81.2918 25.0037L81.1701 24.1992Z" fill="#2F2E41"/>
<path d="M67.5089 26.2714L63.1808 26.9277L63.3025 27.7323L67.6306 27.076L67.5089 26.2714Z" fill="#2F2E41"/>
<path d="M75.9504 122.826C75.2051 122.825 74.4778 122.596 73.8655 122.17C73.2532 121.745 72.7849 121.142 72.5228 120.444L58.233 82.1248C56.4864 77.4253 56.6729 72.2239 58.7516 67.6618C60.8303 63.0998 64.6314 59.5497 69.3209 57.7904L80.9402 53.446C81.3895 53.2769 81.8677 53.1984 82.3474 53.2151C82.8271 53.2318 83.2988 53.3433 83.7353 53.5432C84.1707 53.738 84.563 54.0177 84.8893 54.3661C85.2155 54.7144 85.4691 55.1244 85.6353 55.572L112.106 105.616C112.278 106.067 112.359 106.548 112.344 107.031C112.33 107.514 112.22 107.989 112.022 108.429C111.823 108.869 111.54 109.266 111.187 109.596C110.835 109.926 110.421 110.183 109.97 110.352L77.2286 122.593C76.8199 122.747 76.387 122.826 75.9504 122.826Z" fill="#2F2E41"/>
<path d="M77.415 54.7643L103.679 89.9323L85.9074 55.1334C85.7607 54.7274 85.5354 54.3543 85.2446 54.0354C84.9538 53.7166 84.6031 53.4582 84.2126 53.2751C83.822 53.092 83.3993 52.9877 82.9685 52.9682C82.5376 52.9487 82.1072 53.0144 81.7018 53.1615L77.415 54.7643Z" fill="#E6E6E6"/>
<path d="M119.001 81.4726L72.1062 78.4479C71.3671 78.4002 70.6445 78.2073 69.9798 77.88C69.3151 77.5527 68.7213 77.0975 68.2323 76.5405C67.7433 75.9834 67.3686 75.3353 67.1298 74.6333C66.8909 73.9312 66.7924 73.1889 66.84 72.4488C66.8876 71.7087 67.0804 70.9852 67.4072 70.3196C67.7341 69.654 68.1887 69.0595 68.745 68.5698C69.3013 68.0802 69.9486 67.705 70.6497 67.4658C71.3508 67.2266 72.0921 67.1281 72.8313 67.1757L119.726 70.2002C120.073 70.2225 120.411 70.3128 120.722 70.4661C121.034 70.6193 121.312 70.8325 121.541 71.0934C121.77 71.3543 121.945 71.6578 122.057 71.9865C122.169 72.3153 122.215 72.6629 122.193 73.0096L121.807 79.0031C121.762 79.7031 121.441 80.3566 120.915 80.8197C120.389 81.2828 119.7 81.5176 119.001 81.4726Z" fill="#E7503D"/>
<path d="M106.47 83.4116C106.408 83.4116 106.346 83.4096 106.284 83.4056H106.284L67.7763 80.922C67.4035 80.898 67.039 80.8007 66.7038 80.6357C66.3686 80.4706 66.0691 80.2411 65.8224 79.9602C65.5758 79.6792 65.3868 79.3524 65.2664 78.9983C65.1459 78.6442 65.0962 78.2699 65.1203 77.8966L65.7788 67.6593C65.8028 67.286 65.9 66.9211 66.0649 66.5854C66.2297 66.2498 66.459 65.9499 66.7396 65.703C67.0202 65.456 67.3467 65.2669 67.7003 65.1463C68.0539 65.0256 68.4278 64.976 68.8006 65.0001L107.308 67.4835C108.061 67.5328 108.763 67.8791 109.261 68.4463C109.759 69.0135 110.012 69.7553 109.964 70.5089L109.306 80.7464C109.269 81.2949 109.076 81.8213 108.748 82.2624C108.42 82.7035 107.972 83.0405 107.458 83.233C107.142 83.3513 106.808 83.4118 106.47 83.4116Z" fill="#2F2E41"/>
<path d="M62.0165 19.1008C64.743 16.7528 68.4872 18.8533 71.614 18.4856C74.6054 18.1338 76.9676 15.4469 77.571 12.5925C78.275 9.26226 76.5487 5.92588 74.0043 3.84956C71.2175 1.57548 67.5216 0.922646 64.0192 1.34337C60.0051 1.82556 56.334 3.69914 53.0399 5.96534C49.8603 8.08501 46.9363 10.5659 44.3263 13.3587C41.9892 15.9432 40.009 19.024 39.3767 22.502C38.802 25.6627 39.2408 29.1652 41.1068 31.8428C42.0964 33.2151 43.4224 34.309 44.957 35.0189C46.5571 35.8056 48.264 36.368 49.8142 37.2576C52.1581 38.6026 54.4362 41.3914 53.702 44.2935C53.5446 44.9275 53.234 45.513 52.7974 45.9985C52.2729 46.5815 51.3268 45.8111 51.8527 45.2266C52.7763 44.1999 52.74 42.8307 52.2477 41.6049C51.6624 40.2237 50.6259 39.0825 49.3081 38.3682C47.6854 37.4392 45.8939 36.8658 44.2308 36.0197C42.6389 35.2467 41.257 34.1001 40.2029 32.6773C38.2123 29.9074 37.6169 26.3026 38.0684 22.9679C38.5569 19.3592 40.4086 16.08 42.7299 13.332C45.256 10.3414 48.3591 7.80989 51.5291 5.53571C54.9306 3.09549 58.6886 1.03246 62.847 0.286298C66.4517 -0.360511 70.3589 0.0377052 73.5111 2.00467C76.4534 3.84072 78.7097 6.99907 78.9341 10.5282C79.0147 12.134 78.6665 13.7322 77.9253 15.1585C77.1842 16.5847 76.0769 17.7875 74.7173 18.643C73.3223 19.4788 71.7005 19.8551 70.0805 19.7186C68.3486 19.6076 66.6151 19.0765 64.8722 19.224C64.0835 19.2719 63.3319 19.576 62.7313 20.0901C62.1356 20.6031 61.4256 19.6096 62.0165 19.1008V19.1008Z" fill="#2F2E41"/>
<path d="M327.737 243H0.526183C0.386491 242.999 0.252661 242.942 0.154027 242.84C0.055392 242.738 0 242.599 0 242.455C0 242.311 0.055392 242.172 0.154027 242.07C0.252661 241.968 0.386491 241.911 0.526183 241.91H327.737C327.877 241.91 328.011 241.968 328.11 242.07C328.209 242.172 328.264 242.31 328.264 242.455C328.264 242.6 328.209 242.738 328.11 242.84C328.011 242.942 327.877 243 327.737 243Z" fill="#3F3D56"/>
</g>
<defs>
<clipPath id="clip0_4820_6867">
<rect width="301" height="243" fill="white"/>
</clipPath>
</defs>
</svg>
