<svg width="36" height="36" viewBox="0 0 36 36" fill="none" xmlns="http://www.w3.org/2000/svg">
<path d="M33.8821 17.9996C33.8821 20.6115 33.2379 23.1831 32.0067 25.4865C30.7753 27.7901 28.995 29.7542 26.8233 31.2052C24.6517 32.6564 22.1556 33.5494 19.5563 33.8054C16.957 34.0615 14.3347 33.6725 11.9217 32.6729C9.5086 31.6734 7.37931 30.0943 5.72235 28.0751C4.0654 26.0561 2.93193 23.6596 2.42238 21.098C1.91282 18.5363 2.04288 15.8885 2.80106 13.3891C3.55922 10.8897 4.9221 8.61585 6.76896 6.76896C6.89919 6.64317 7.07362 6.57357 7.25468 6.57513C7.43574 6.5767 7.60892 6.64934 7.73696 6.77737C7.86499 6.9054 7.93762 7.07858 7.93919 7.25964C7.94076 7.4407 7.87117 7.61513 7.74538 7.74539C5.38607 10.0944 3.90601 13.1831 3.55329 16.4937C3.2006 19.8043 3.99668 23.1355 5.8081 25.9289C7.61953 28.7225 10.3362 30.8081 13.5027 31.8367C16.6691 32.8652 20.0929 32.7739 23.2001 31.5781C26.3073 30.3823 28.909 28.1547 30.569 25.2688C32.2291 22.3829 32.8464 19.014 32.3178 15.7269C31.7892 12.4398 30.1468 9.43432 27.6655 7.2143C25.1845 4.99429 22.0157 3.69469 18.6902 3.53335V9.71315C18.6902 9.89628 18.6174 10.0719 18.4879 10.2014C18.3584 10.3309 18.1828 10.4037 17.9996 10.4037C17.8165 10.4037 17.6409 10.3309 17.5114 10.2014C17.3818 10.0719 17.3091 9.89628 17.3091 9.71315V2.80773C17.3091 2.6246 17.3818 2.44894 17.5114 2.31945C17.6409 2.18995 17.8165 2.11719 17.9996 2.11719C22.2105 2.12198 26.2474 3.79684 29.225 6.77434C32.2024 9.75184 33.8772 13.7888 33.8821 17.9996ZM17.5113 18.6555C17.5753 18.7201 17.6514 18.7714 17.7353 18.8065C17.8192 18.8416 17.9092 18.8598 18.0002 18.86C18.0911 18.8602 18.1812 18.8425 18.2652 18.8077C18.3493 18.7731 18.4257 18.7221 18.49 18.6578C18.5543 18.5935 18.6053 18.5171 18.64 18.4331C18.6747 18.349 18.6925 18.259 18.6923 18.168C18.6921 18.0771 18.674 17.9871 18.6389 17.9032C18.6039 17.8193 18.5526 17.7431 18.488 17.6791L11.4149 10.606C11.2849 10.4792 11.1101 10.4088 10.9285 10.4099C10.7469 10.411 10.573 10.4837 10.4446 10.6121C10.3161 10.7405 10.2434 10.9144 10.2423 11.096C10.2411 11.2776 10.3116 11.4524 10.4384 11.5824L17.5113 18.6555ZM3.49827 4.87936C3.77143 4.87936 4.03844 4.79836 4.26556 4.64659C4.49268 4.49484 4.66969 4.27916 4.77422 4.0268C4.87875 3.77444 4.90611 3.49673 4.85281 3.22883C4.79953 2.96092 4.668 2.71485 4.47485 2.5217C4.2817 2.32855 4.03561 2.19703 3.7677 2.14372C3.4998 2.09044 3.22211 2.11778 2.96975 2.22231C2.71739 2.32686 2.50169 2.50387 2.34994 2.73099C2.19819 2.95811 2.11719 3.22512 2.11719 3.49828C2.11719 3.86457 2.26269 4.21584 2.5217 4.47485C2.78071 4.73384 3.13199 4.87936 3.49827 4.87936Z" fill="#E7503D" stroke="#E7503D"/>
</svg>
