<svg width="32" height="38" viewBox="0 0 32 38" fill="none" xmlns="http://www.w3.org/2000/svg">
<path d="M30.2715 36.8478H30.7715V36.3478V1.65217V1.15217H30.2715H1.78505H1.28505V1.65217V36.3478V36.8478H1.78505H30.2715ZM16.0283 10.9275H16.0277C15.2312 10.9284 14.4661 11.2407 13.9008 11.7982C13.3352 12.3559 13.0157 13.1135 13.0148 13.9052V13.9058C13.0148 14.4964 13.1924 15.0732 13.5245 15.5631C13.8564 16.053 14.3275 16.4337 14.8774 16.6583C15.4271 16.8828 16.0317 16.9415 16.6149 16.8271C17.1981 16.7127 17.7348 16.4302 18.1567 16.0142C18.5786 15.5982 18.8668 15.0672 18.9836 14.4882C19.1005 13.909 19.0404 13.3088 18.8115 12.7638C18.5825 12.2187 18.1953 11.7541 17.6998 11.4277C17.2044 11.1013 16.6228 10.9275 16.0283 10.9275ZM21.8335 26.7971H22.4128L22.3281 26.224C22.107 24.7279 21.3476 23.3615 20.1907 22.3738C19.034 21.3862 17.5568 20.8425 16.0289 20.8406L16.0277 20.8406C14.4998 20.8425 13.0225 21.3861 11.8658 22.3737C10.7089 23.3615 9.94958 24.7279 9.72846 26.224L9.64375 26.7971H10.2231H21.8335ZM1.78505 0.5H30.2715C30.5856 0.5 30.8854 0.62308 31.1054 0.839952C31.3251 1.05659 31.4472 1.34889 31.4472 1.65217V36.3478C31.4472 36.6511 31.3251 36.9434 31.1054 37.1601C30.8854 37.3769 30.5856 37.5 30.2715 37.5H1.78505C1.47098 37.5 1.17117 37.3769 0.951218 37.1601C0.731499 36.9434 0.609375 36.6511 0.609375 36.3478V1.65217C0.609375 1.3489 0.731499 1.05659 0.951217 0.839952C1.17117 0.62308 1.47098 0.5 1.78505 0.5ZM18.0806 16.9226C17.4737 17.3224 16.7595 17.5362 16.0283 17.5362C15.0476 17.5362 14.1085 17.1521 13.4171 16.4704C12.726 15.789 12.3391 14.8664 12.3391 13.9058C12.3391 13.1894 12.5545 12.4884 12.959 11.8916C13.3636 11.2946 13.9393 10.8283 14.6142 10.5527C15.2892 10.277 16.0323 10.2048 16.7493 10.3454C17.4663 10.486 18.124 10.8329 18.6395 11.3412C19.1549 11.8494 19.5051 12.496 19.6469 13.1989C19.7887 13.9017 19.716 14.6303 19.4376 15.2928C19.1593 15.9554 18.6874 16.5228 18.0806 16.9226ZM21.0092 22.222C22.3262 23.5206 23.0659 25.2793 23.0688 27.1123C23.0637 27.2248 23.0558 27.3372 23.0451 27.4493H9.01152C9.00078 27.3372 8.99286 27.2248 8.98776 27.1123C8.99069 25.2793 9.7304 23.5206 11.0474 22.222C12.3672 20.9207 14.1588 20.1884 16.0283 20.1884C17.8978 20.1884 19.6894 20.9207 21.0092 22.222Z" fill="#E7503D" stroke="#E7503D"/>
</svg>
