<svg width="24" height="24" viewBox="0 0 24 24" fill="none" xmlns="http://www.w3.org/2000/svg">
<rect width="24" height="24" fill="white"/>
<path d="M18.5 15C19.5 14 20 12.7477 20 11.5C20 6.80558 16.1944 3 11.5 3C6.80558 3 3 6.80558 3 11.5C3 16.1944 6.80558 20 11.5 20C12.245 20 12.9676 19.9042 13.6561 19.7241" stroke="#212121" stroke-linecap="round" stroke-linejoin="round"/>
<path d="M15 8V14.3472C15 15.4057 15.5888 16.2358 16.6138 15.9718C16.7413 15.939 16.8707 15.9009 17 15.8576M15 13V11C15 9.34315 13.6569 8 12 8C9.79086 8 8 9.79086 8 12C8 14.2091 9.79086 16 12 16C13.6569 16 15 14.6569 15 13Z" stroke="#E7503D" stroke-width="1.5" stroke-linecap="round" stroke-linejoin="round"/>
</svg>
