<svg width="253" height="156" viewBox="0 0 253 156" fill="none" xmlns="http://www.w3.org/2000/svg">
<line y1="155.5" x2="253" y2="155.5" stroke="#2F878A"/>
<mask id="mask0_11545_17243" style="mask-type:alpha" maskUnits="userSpaceOnUse" x="45" y="0" width="174" height="156">
<path d="M45 5C45 2.23857 47.2386 0 50 0H213.018C215.78 0 218.018 2.23858 218.018 5V151C218.018 153.761 215.78 156 213.018 156H50C47.2386 156 45 153.761 45 151V5Z" fill="white"/>
</mask>
<g mask="url(#mask0_11545_17243)">
<path d="M164.019 75.5769H164.014L163.043 75.5635C162.865 75.5612 162.722 75.417 162.724 75.2414C162.727 75.0657 162.867 74.9301 163.052 74.9277L164.023 74.9411C164.201 74.9434 164.344 75.0876 164.342 75.2632C164.339 75.4374 164.195 75.5769 164.018 75.5769H164.019Z" fill="white"/>
<path d="M161.154 75.5377H161.149L159.255 75.5115C159.076 75.5091 158.933 75.3649 158.935 75.1893C158.938 75.0151 159.082 74.8757 159.259 74.8757H159.264L161.158 74.9019C161.337 74.9042 161.48 75.0485 161.477 75.2241C161.475 75.3982 161.331 75.5377 161.154 75.5377ZM157.365 75.4853H157.36L155.466 75.4592C155.287 75.4568 155.144 75.3121 155.146 75.137C155.149 74.9618 155.302 74.8248 155.474 74.8233L157.369 74.8495C157.548 74.8519 157.69 74.9966 157.688 75.1717C157.686 75.3459 157.541 75.4853 157.364 75.4853H157.365ZM153.576 75.433H153.571L151.677 75.4068C151.498 75.4044 151.355 75.2602 151.357 75.0846C151.36 74.909 151.51 74.7724 151.685 74.771L153.58 74.7972C153.759 74.7996 153.901 74.9438 153.899 75.1194C153.897 75.2935 153.752 75.433 153.575 75.433H153.576Z" fill="white"/>
<path d="M149.787 75.3806H149.782L148.811 75.3673C148.633 75.3649 148.49 75.2207 148.492 75.0451C148.495 74.8695 148.644 74.7286 148.82 74.7315L149.791 74.7448C149.969 74.7472 150.112 74.8914 150.11 75.067C150.107 75.2412 149.963 75.3806 149.786 75.3806H149.787Z" fill="white"/>
<path d="M183.189 124.65C182.2 121.676 180.458 119.031 178.175 116.888C175.288 114.179 171.536 112.27 167.346 111.51C167.346 111.51 161.909 110.586 155.943 109.076C153.994 108.583 151.908 108.996 150.345 110.177C146.176 113.324 138.35 117.421 126.055 117.145C114.918 116.895 108.518 113.619 105.048 110.799C103.433 109.487 101.209 109.02 99.1426 109.578C94.6509 110.788 90.9147 111.51 90.9147 111.51C83.4127 112.872 73.8743 117.914 71.6335 124.65C69.4867 131.104 67.2958 141.731 67.0619 150.625C66.9772 153.859 69.7821 156.528 73.2927 156.528H181.53C185.04 156.528 187.845 153.859 187.761 150.625C187.527 141.731 185.336 131.104 183.189 124.65Z" fill="#466EB6"/>
<path d="M126.055 117.695C141.214 118.059 151.843 112.081 154.934 108.905C148.788 107.033 140.761 103.822 140.665 101.159L139.739 75.5098H115.324L114.398 101.159C114.296 104.001 104.939 107.713 99.1421 109.625C101.621 112.737 111.687 117.351 126.055 117.695Z" fill="url(#paint0_linear_11545_17243)"/>
<path d="M106.119 52.7637C106.119 52.7637 109.632 90.1656 119.893 94.1856C119.893 94.1856 128.219 97.7097 135.174 93.7226C135.174 93.7226 146.647 83.4625 145.822 53.0488C145.822 53.0488 146.772 35.4265 126.985 33.9678C103.8 32.2593 106.119 52.7642 106.119 52.7642L106.119 52.7637Z" fill="url(#paint1_linear_11545_17243)"/>
<path d="M143.793 65.9141C143.793 65.9141 145.532 60.7876 148.429 60.7876C151.327 60.7876 147.85 74.4575 143.793 74.4575V65.9136V65.9141Z" fill="url(#paint2_linear_11545_17243)"/>
<path d="M109.928 64.7446C109.928 64.7446 107.537 60.4034 104.666 60.7875C101.794 61.1715 105.908 74.9714 109.928 74.4341V64.7446Z" fill="url(#paint3_linear_11545_17243)"/>
<path d="M109.281 62.2329C108.167 62.7183 106.869 62.1767 106.453 61.0517C105.722 59.0729 104.599 56.0651 103.689 53.7665C102.208 50.024 94.3792 45.2416 102.631 35.8848C110.883 26.528 115.556 36.6834 121.048 33.9969C126.54 31.3104 133.099 25.0727 138.812 29.0232C144.525 32.9737 140.716 36.7162 142.62 37.7561C144.525 38.7959 147.487 33.3897 149.603 40.6672C151.24 46.2977 148.573 56.6638 147.282 61.0669C146.969 62.1363 145.731 62.6465 144.735 62.1168C144.209 61.8374 143.863 61.3182 143.812 60.7328C143.669 59.0738 143.333 55.3979 142.832 51.2713C142.151 45.6561 136.935 53.4358 126.765 54.537C116.596 55.6378 117.442 50.232 112.576 50.232C110.523 50.232 110.46 57.2697 110.529 60.3031C110.548 61.135 110.054 61.8955 109.281 62.2334V62.2329Z" fill="#212721"/>
<path d="M106.685 54.418C106.238 54.418 105.876 54.0621 105.876 53.6233V47.8843C105.876 46.3586 107.139 45.1169 108.692 45.1169H112.734C113.18 45.1169 113.543 45.4729 113.543 45.9117C113.543 46.3505 113.18 46.7065 112.734 46.7065H108.692C108.032 46.7065 107.493 47.2347 107.493 47.8843V53.6233C107.493 54.0621 107.131 54.418 106.685 54.418Z" fill="#E7503D"/>
<path d="M145.866 54.418C145.419 54.418 145.057 54.0621 145.057 53.6233V47.8843C145.057 47.2347 144.519 46.7065 143.858 46.7065H139.817C139.37 46.7065 139.008 46.3505 139.008 45.9117C139.008 45.4729 139.37 45.1169 139.817 45.1169H143.858C145.411 45.1169 146.674 46.3581 146.674 47.8843V53.6233C146.674 54.0621 146.312 54.418 145.866 54.418Z" fill="#E7503D"/>
<path d="M112.733 99.8299H108.691C107.138 99.8299 105.875 98.5888 105.875 97.0625V91.3236C105.875 90.8848 106.237 90.5288 106.684 90.5288C107.13 90.5288 107.492 90.8848 107.492 91.3236V97.0625C107.492 97.7121 108.03 98.2404 108.691 98.2404H112.733C113.179 98.2404 113.542 98.5964 113.542 99.0351C113.542 99.4739 113.179 99.8299 112.733 99.8299Z" fill="#E7503D"/>
<path d="M143.858 99.8299H139.817C139.37 99.8299 139.008 99.4739 139.008 99.0351C139.008 98.5964 139.37 98.2404 139.817 98.2404H143.858C144.519 98.2404 145.057 97.7121 145.057 97.0625V91.3236C145.057 90.8848 145.419 90.5288 145.866 90.5288C146.312 90.5288 146.674 90.8848 146.674 91.3236V97.0625C146.674 98.5883 145.411 99.8299 143.858 99.8299Z" fill="#E7503D"/>
<path d="M142.791 97.1785H109.704C109.051 97.1785 108.519 96.6559 108.519 96.0139V48.7908C108.519 48.1488 109.051 47.6262 109.704 47.6262H142.791C143.444 47.6262 143.976 48.1488 143.976 48.7908V96.0139C143.976 96.6559 143.444 97.1785 142.791 97.1785ZM109.704 48.1031C109.318 48.1031 109.004 48.4115 109.004 48.7908V96.0139C109.004 96.3932 109.318 96.7016 109.704 96.7016H142.791C143.177 96.7016 143.49 96.3932 143.49 96.0139V48.7908C143.49 48.4115 143.177 48.1031 142.791 48.1031H109.704Z" fill="white"/>
</g>
<defs>
<linearGradient id="paint0_linear_11545_17243" x1="127.697" y1="123.699" x2="126.057" y2="86.504" gradientUnits="userSpaceOnUse">
<stop stop-color="#FEBBBA"/>
<stop offset="1" stop-color="#FF928E"/>
</linearGradient>
<linearGradient id="paint1_linear_11545_17243" x1="125.677" y1="93.369" x2="126.145" y2="25.4204" gradientUnits="userSpaceOnUse">
<stop stop-color="#FEBBBA"/>
<stop offset="1" stop-color="#FF928E"/>
</linearGradient>
<linearGradient id="paint2_linear_11545_17243" x1="146.439" y1="93.5123" x2="146.907" y2="25.5638" gradientUnits="userSpaceOnUse">
<stop stop-color="#FEBBBA"/>
<stop offset="1" stop-color="#FF928E"/>
</linearGradient>
<linearGradient id="paint3_linear_11545_17243" x1="106.642" y1="93.2376" x2="107.11" y2="25.2896" gradientUnits="userSpaceOnUse">
<stop stop-color="#FEBBBA"/>
<stop offset="1" stop-color="#FF928E"/>
</linearGradient>
</defs>
</svg>
