<svg width="24" height="24" viewBox="0 0 24 24" fill="none" xmlns="http://www.w3.org/2000/svg">
<path d="M17 21V19C17 17.9391 16.5786 16.9217 15.8284 16.1716C15.0783 15.4214 14.0609 15 13 15H6C4.93913 15 3.92172 15.4214 3.17157 16.1716C2.42143 16.9217 2 17.9391 2 19V21" stroke="#212121" stroke-linecap="round" stroke-linejoin="round"/>
<path d="M9.5 11C11.433 11 13 9.433 13 7.5C13 5.567 11.433 4 9.5 4C7.567 4 6 5.567 6 7.5C6 9.433 7.567 11 9.5 11Z" stroke="#212121" stroke-linecap="round" stroke-linejoin="round"/>
<path d="M22 21.0009V19.0009C21.9993 18.1146 21.7044 17.2536 21.1614 16.5532C20.6184 15.8527 19.8581 15.3524 19 15.1309" stroke="#E7503D" stroke-width="1.5" stroke-linecap="round" stroke-linejoin="round"/>
<path d="M16 4C16.6675 4.19898 17.2591 4.65096 17.6815 5.28467C18.104 5.91838 18.3333 6.69778 18.3333 7.5C18.3333 8.30222 18.104 9.08162 17.6815 9.71533C17.2591 10.349 16.6675 10.801 16 11" stroke="#E7503D" stroke-width="1.5" stroke-linecap="round" stroke-linejoin="round"/>
</svg>
