<svg width="34" height="36" viewBox="0 0 34 36" fill="none" xmlns="http://www.w3.org/2000/svg">
<path d="M27.26 4.32V4.42H27.36H32.4C32.5644 4.42 32.7221 4.48532 32.8384 4.60159C32.9547 4.71787 33.02 4.87557 33.02 5.04V8.63989C33.0182 10.3081 32.4282 11.9222 31.3536 13.1983C30.279 14.4743 28.7889 15.3304 27.1453 15.6161L27.0773 15.6279L27.0642 15.6957C26.6954 17.6131 25.8093 19.3931 24.5018 20.8433C23.1944 22.2935 21.5153 23.3586 19.6462 23.9235L19.5574 23.9503L19.5775 24.0409L20.6398 28.8217L20.6572 28.9H20.7374H22.7506C23.0184 28.9 23.28 28.9802 23.5018 29.1303C23.7235 29.2804 23.8953 29.4935 23.9948 29.7421L25.7228 34.062L25.814 34.0255L25.7228 34.0621C25.8041 34.2654 25.8345 34.4856 25.811 34.7033C25.7876 34.9211 25.7111 35.1298 25.5884 35.3112C25.4656 35.4925 25.3002 35.6411 25.1068 35.7437C24.9133 35.8464 24.6976 35.9 24.4786 35.9H8.64144C8.42241 35.9 8.20672 35.8464 8.01325 35.7437C7.81977 35.6411 7.65441 35.4925 7.53163 35.3112C7.40885 35.1298 7.3324 34.9211 7.30897 34.7033C7.28555 34.4856 7.31585 34.2654 7.39724 34.0621L7.3044 34.0249L7.39725 34.062L9.12524 29.7421C9.22475 29.4935 9.39646 29.2804 9.61823 29.1303C9.83999 28.9802 10.1016 28.9 10.3694 28.9H12.3817H12.4619L12.4793 28.8217L13.5417 24.0409L13.5619 23.9503L13.4731 23.9235C11.6041 23.3586 9.92523 22.2935 8.61794 20.8434C7.31065 19.3932 6.42475 17.6133 6.05606 15.696L6.04302 15.6282L5.97497 15.6163C4.3313 15.3308 2.84103 14.4746 1.76641 13.1985C0.691798 11.9224 0.101711 10.3082 0.0999999 8.6399L0.1 5.04C0.1 4.87557 0.165321 4.71787 0.281594 4.60159C0.397866 4.48532 0.555566 4.42 0.72 4.42H5.76H5.86V4.32V0.72C5.86 0.555566 5.92532 0.397866 6.04159 0.281594C6.15787 0.165321 6.31557 0.1 6.48 0.1H26.64C26.8044 0.1 26.9621 0.165321 27.0784 0.281594C27.1947 0.397866 27.26 0.555566 27.26 0.72V4.32ZM5.73486 14.3146L5.86 14.3471V14.2178V13.68V5.76V5.66H5.76H1.44H1.34V5.76L1.34 8.64L1.34 8.64013C1.34171 9.93888 1.77404 11.2004 2.56929 12.2272C3.36454 13.254 4.47782 13.9881 5.73486 14.3146ZM22.8434 30.2029L22.8183 30.14H22.7506H10.3694H10.3017L10.2766 30.2029L8.54859 34.5229L8.49374 34.66H8.64144H24.4786H24.6263L24.5714 34.5229L22.8434 30.2029ZM13.7598 28.7783L13.7327 28.9H13.8574H19.2617H19.3864L19.3593 28.7783L18.3663 24.3107L18.3458 24.2182L18.2523 24.2338C17.6929 24.327 17.127 24.3759 16.56 24.38C15.9928 24.376 15.4269 24.3269 14.8675 24.2331L14.774 24.2174L14.7534 24.31L13.7598 28.7783ZM7.2 1.34H7.1V1.44V13.68C7.1 16.1889 8.09667 18.5951 9.87077 20.3692C11.6449 22.1433 14.0511 23.14 16.56 23.14C19.0689 23.14 21.4751 22.1433 23.2492 20.3692C25.0233 18.5951 26.02 16.1889 26.02 13.68V4.32V1.44V1.34H25.92H7.2ZM31.78 8.64013V8.64V5.76V5.66H31.68H27.36H27.26V5.76V14.2178V14.3471L27.3851 14.3146C28.6422 13.9881 29.7555 13.254 30.5507 12.2272C31.346 11.2004 31.7783 9.93888 31.78 8.64013ZM11.62 32.4C11.62 32.2356 11.6853 32.0779 11.8016 31.9616C11.9179 31.8453 12.0756 31.78 12.24 31.78H20.88C21.0444 31.78 21.2021 31.8453 21.3184 31.9616C21.4347 32.0779 21.5 32.2356 21.5 32.4C21.5 32.5644 21.4347 32.7221 21.3184 32.8384C21.2021 32.9547 21.0444 33.02 20.88 33.02H12.24C12.0756 33.02 11.9179 32.9547 11.8016 32.8384C11.6853 32.7221 11.62 32.5644 11.62 32.4Z" fill="#E7503D" stroke="white" stroke-width="0.2"/>
</svg>
