<svg width="24" height="24" viewBox="0 0 24 24" fill="none" xmlns="http://www.w3.org/2000/svg">
<path d="M11.6758 3.92714C11.93 3.58922 12.1495 3.30383 12.32 3.08469C12.4905 3.30383 12.71 3.58922 12.9642 3.92714C13.5865 4.75422 14.4152 5.89364 15.243 7.1451C16.072 8.39831 16.8937 9.75452 17.5065 11.0165C18.1281 12.2968 18.5 13.4122 18.5 14.2059C18.5 15.8296 17.8499 17.3876 16.6913 18.5369C15.5327 19.6864 13.9603 20.3329 12.32 20.3329C10.6797 20.3329 9.10736 19.6864 7.94868 18.5369C6.79014 17.3876 6.14001 15.8296 6.14001 14.2059C6.14001 13.4122 6.51195 12.2968 7.13355 11.0165C7.74629 9.75452 8.56808 8.39831 9.39704 7.1451C10.2248 5.89364 11.0536 4.75422 11.6758 3.92714Z" stroke="#212121" stroke-linejoin="round"/>
<path d="M8.49963 13C8.49963 14.3475 8.65396 15.7536 9.49964 16.5926C10.4601 17.5454 11.7627 18.0807 13.121 18.0807" stroke="#E7503D" stroke-width="1.5" stroke-linecap="round"/>
</svg>
