<svg width="27" height="36" viewBox="0 0 27 36" fill="none" xmlns="http://www.w3.org/2000/svg">
<path d="M11.8546 3.0685C12.4399 2.29062 12.9304 1.65588 13.2803 1.20856C13.6302 1.65588 14.1207 2.29062 14.706 3.0685C15.915 4.67548 17.5256 6.88985 19.1348 9.32261C20.7457 11.758 22.3459 14.3982 23.5406 16.8589C24.7487 19.3471 25.4903 21.5496 25.4903 23.1429C25.4903 26.3519 24.2054 29.4308 21.9162 31.7018C19.6268 33.973 16.5205 35.25 13.2803 35.25C10.0401 35.25 6.93379 33.973 4.64442 31.7018C2.35526 29.4308 1.07031 26.3519 1.07031 23.1429C1.07031 21.5496 1.81196 19.3471 3.01999 16.8589C4.21472 14.3982 5.8149 11.758 7.42585 9.32261C9.03505 6.88985 10.6456 4.67548 11.8546 3.0685Z" stroke="#E7503D" stroke-width="1.5"/>
</svg>
