<svg width="28" height="38" viewBox="0 0 28 38" fill="none" xmlns="http://www.w3.org/2000/svg">
<path d="M12.3416 3.36423C12.8718 2.65954 13.3282 2.06636 13.68 1.61436C14.0318 2.06636 14.4882 2.65954 15.0184 3.36423C16.2929 5.05826 17.9904 7.39209 19.686 9.95547C21.3839 12.5224 23.0675 15.3007 24.3229 17.8865C25.5961 20.5089 26.36 22.7973 26.36 24.4286C26.36 27.7601 25.026 30.9569 22.6489 33.3151C20.2716 35.6736 17.0455 37 13.68 37C10.3145 37 7.08842 35.6736 4.71106 33.3151C2.33397 30.9569 1 27.7601 1 24.4286C1 22.7973 1.76387 20.5089 3.03708 17.8865C4.29254 15.3007 5.97612 12.5224 7.67405 9.95547C9.36965 7.39209 11.0671 5.05826 12.3416 3.36423Z" stroke="#E7503D" stroke-width="2"/>
<path d="M4.44 23C4.44 25.7595 5.54499 28.406 7.51187 30.3573C9.47875 32.3085 12.1464 33.4048 14.928 33.4048" stroke="#E7503D" stroke-width="2" stroke-linecap="round"/>
</svg>
