<svg width="36" height="37" viewBox="0 0 36 37" fill="none" xmlns="http://www.w3.org/2000/svg">
<g filter="url(#filter0_d_4521_14193)">
<path d="M27.9204 7.08722C25.288 4.45307 21.7878 3.00161 18.0586 3C10.3739 3 4.12012 9.25179 4.11705 16.9361C4.11615 19.3924 4.75796 21.7902 5.97786 23.9037L4 31.1256L11.3906 29.1877C13.4268 30.2982 15.7195 30.8833 18.0526 30.8843H18.0585H18.0586C25.742 30.8843 31.9967 24.6314 32 16.9474C32.0013 13.2232 30.5524 9.72156 27.9204 7.08722ZM18.0586 28.5304H18.0541C15.9744 28.5293 13.9351 27.971 12.1563 26.9155L11.733 26.6645L7.34727 27.8144L8.51819 23.5399L8.24238 23.1017C7.08236 21.2572 6.46997 19.1257 6.47084 16.937C6.47339 10.55 11.6713 5.35395 18.063 5.35395C21.1582 5.35524 24.0673 6.56171 26.2552 8.75113C28.443 10.9405 29.6469 13.851 29.646 16.9464C29.6433 23.3336 24.4452 28.5304 18.0586 28.5304Z" fill="#E0E0E0"/>
<path d="M4.63965 30.3241L6.52716 23.4322C5.36268 21.4151 4.75031 19.1268 4.75105 16.7831C4.7541 9.44992 10.7223 3.48389 18.0553 3.48389C21.6143 3.48549 24.9547 4.87059 27.4663 7.38447C29.9783 9.89834 31.3609 13.2398 31.3595 16.7935C31.3564 24.1268 25.3879 30.0934 18.0558 30.0934C18.0553 30.0934 18.0562 30.0934 18.0558 30.0934H18.0499C15.8234 30.0927 13.6356 29.5338 11.6925 28.4748L4.63965 30.3241Z" fill="url(#paint0_linear_4521_14193)"/>
<path fill-rule="evenodd" clip-rule="evenodd" d="M14.614 11.0196C14.3561 10.4461 14.0845 10.4346 13.8391 10.4246C13.6384 10.416 13.4086 10.4165 13.1792 10.4165C12.9496 10.4165 12.5765 10.5028 12.261 10.8474C11.9453 11.1919 11.0557 12.0249 11.0557 13.7191C11.0557 15.4134 12.2897 17.0505 12.4617 17.2805C12.6339 17.5101 14.844 21.0978 18.344 22.4781C21.2528 23.6251 21.8448 23.397 22.4761 23.3396C23.1075 23.2822 24.5134 22.5068 24.8004 21.7026C25.0874 20.8987 25.0874 20.2096 25.0013 20.0655C24.9152 19.922 24.6856 19.8359 24.3412 19.6637C23.9968 19.4915 22.304 18.6584 21.9883 18.5436C21.6726 18.4288 21.443 18.3714 21.2134 18.7161C20.9838 19.0605 20.3242 19.8359 20.1233 20.0655C19.9224 20.2956 19.7216 20.3243 19.3772 20.1521C19.0328 19.9794 17.9237 19.6162 16.6081 18.4431C15.5844 17.5305 14.8933 16.4033 14.6924 16.0586C14.4915 15.7142 14.6708 15.5276 14.8436 15.356C14.9982 15.2017 15.188 14.954 15.3602 14.7529C15.532 14.5518 15.5894 14.4083 15.7042 14.1787C15.819 13.9488 15.7616 13.7477 15.6755 13.5755C15.5894 13.4033 14.9202 11.7004 14.614 11.0196Z" fill="white"/>
<path d="M27.8069 7.04276C25.2048 4.43885 21.7448 3.00407 18.0584 3.00244C10.4619 3.00244 4.27988 9.18245 4.27682 16.7786C4.27593 19.2067 4.91037 21.5769 6.11626 23.6662L4.16113 30.8051L11.4669 28.8894C13.4798 29.9872 15.7461 30.5657 18.0524 30.5666H18.0583H18.0584C25.6536 30.5666 31.8365 24.3855 31.8397 16.7897C31.841 13.1083 30.4087 9.64685 27.8069 7.04276ZM18.0584 28.2398H18.0539C15.9981 28.2387 13.9822 27.6868 12.2238 26.6434L11.8053 26.3953L7.46996 27.532L8.62744 23.3066L8.35479 22.8734C7.20809 21.0501 6.60272 18.943 6.60362 16.7795C6.60612 10.4659 11.7444 5.32942 18.0627 5.32942C21.1224 5.33068 23.998 6.5233 26.1609 8.68759C28.3235 10.8519 29.5136 13.729 29.5128 16.7888C29.51 23.1026 24.3716 28.2398 18.0584 28.2398Z" fill="white"/>
</g>
<defs>
<filter id="filter0_d_4521_14193" x="0" y="0" width="36" height="36.1255" filterUnits="userSpaceOnUse" color-interpolation-filters="sRGB">
<feFlood flood-opacity="0" result="BackgroundImageFix"/>
<feColorMatrix in="SourceAlpha" type="matrix" values="0 0 0 0 0 0 0 0 0 0 0 0 0 0 0 0 0 0 127 0" result="hardAlpha"/>
<feOffset dy="1"/>
<feGaussianBlur stdDeviation="2"/>
<feComposite in2="hardAlpha" operator="out"/>
<feColorMatrix type="matrix" values="0 0 0 0 0 0 0 0 0 0 0 0 0 0 0 0 0 0 0.25 0"/>
<feBlend mode="normal" in2="BackgroundImageFix" result="effect1_dropShadow_4521_14193"/>
<feBlend mode="normal" in="SourceGraphic" in2="effect1_dropShadow_4521_14193" result="shape"/>
</filter>
<linearGradient id="paint0_linear_4521_14193" x1="17.9996" y1="30.3241" x2="17.9996" y2="3.48393" gradientUnits="userSpaceOnUse">
<stop stop-color="#20B038"/>
<stop offset="1" stop-color="#60D66A"/>
</linearGradient>
</defs>
</svg>
