<svg width="146" height="10" viewBox="0 0 146 10" fill="none" xmlns="http://www.w3.org/2000/svg">
<path d="M1 9.5L7.56022 4.18935C9.71824 2.44238 12.8925 2.82099 14.5791 5.02652V5.02652C16.3905 7.39524 19.8736 7.62642 21.9821 5.51788L22.5321 4.96791C24.7235 2.7765 28.2765 2.7765 30.4679 4.96791L30.75 5.25C33.0972 7.59721 36.9028 7.59721 39.25 5.25V5.25C41.5972 2.90279 45.4028 2.90279 47.75 5.25V5.25C50.0972 7.59721 53.9028 7.59721 56.25 5.25V5.25C58.5972 2.90279 62.4028 2.90279 64.75 5.25V5.25C67.0972 7.59721 70.9028 7.59721 73.25 5.25V5.25C75.5972 2.90279 79.4028 2.90279 81.75 5.25V5.25C84.0972 7.59721 87.9028 7.59721 90.25 5.25V5.25C92.5972 2.90279 96.4028 2.90279 98.75 5.25V5.25C101.097 7.59721 104.903 7.59721 107.25 5.25V5.25C109.597 2.90279 113.403 2.90279 115.75 5.25V5.25C118.097 7.59721 121.903 7.59721 124.25 5.25V5.25C126.597 2.90279 130.403 2.90279 132.75 5.25V5.25C135.097 7.59721 138.903 7.59721 141.25 5.25L145.5 1" stroke="white" stroke-linecap="round" stroke-linejoin="round"/>
</svg>
